<svg width="41" height="42" viewBox="0 0 41 42" fill="none" xmlns="http://www.w3.org/2000/svg">
<mask id="mask0_1300_2136" style="mask-type:luminance" maskUnits="userSpaceOnUse" x="0" y="0" width="41" height="42">
<path d="M0.328125 0.335449H40.6723V41.6636H0.328125V0.335449Z" fill="white"/>
</mask>
<g mask="url(#mask0_1300_2136)">
<path fill-rule="evenodd" clip-rule="evenodd" d="M26.4034 0.335449H6.06039C5.25777 0.335449 4.48822 0.661975 3.92078 1.24321C3.35336 1.82447 3.03464 2.61305 3.03464 3.435V31.5069C2.44438 31.7206 1.93325 32.1164 1.57193 32.6403C1.21064 33.1638 1.01702 33.7894 1.01733 34.4308V39.5969L0.00850344 39.5966C-0.548288 39.5966 -1 40.0593 -1 40.63C-1 41.2007 -0.548312 41.6631 0.00850344 41.6631H38.3355C38.8926 41.6631 39.344 41.2007 39.344 40.63C39.344 40.0593 38.8926 39.5966 38.3355 39.5966H37.3267V26.1656C37.3273 25.5241 37.1334 24.8986 36.7721 24.375C36.4108 23.8511 35.8996 23.4554 35.3097 23.2417V9.45881C35.3087 8.63719 34.9897 7.84927 34.4219 7.26866L28.5418 1.24477C27.975 0.663508 27.2058 0.33636 26.4035 0.335703L26.4034 0.335449ZM25.2236 2.4019H6.06007C5.50297 2.4019 5.05125 2.86428 5.05125 3.435V31.3314H6.06007C6.86245 31.3314 7.63225 31.6582 8.19968 32.2395C8.76711 32.8207 9.08582 33.609 9.08582 34.4312V39.5973H10.0943V24.0992C10.0943 23.277 10.4131 22.4886 10.9805 21.9074C11.5479 21.3261 12.3177 20.9996 13.1201 20.9996H15.1373C15.94 20.9996 16.7095 21.3261 17.2769 21.9074C17.8444 22.4886 18.1631 23.2769 18.1631 24.0992V39.5973H20.1803V30.2983C20.1803 29.4763 20.4991 28.6877 21.0665 28.1065C21.6339 27.5252 22.4037 27.1987 23.2061 27.1987H25.2233C26.0257 27.1987 26.7955 27.5252 27.3629 28.1065C27.9304 28.6877 28.2491 29.4763 28.2491 30.2983V39.5973H29.2576V26.1664C29.2576 25.3442 29.5767 24.5558 30.1441 23.9746C30.7115 23.3933 31.481 23.0665 32.2837 23.0665H33.2922V10.6683H28.2491C27.4467 10.6683 26.6769 10.3417 26.1095 9.76051C25.542 9.17925 25.2233 8.39067 25.2233 7.56872L25.2236 2.4019ZM3.03472 39.5973V34.4316C3.03472 33.8609 3.4861 33.3981 4.04322 33.3981H6.06047C6.32792 33.3981 6.58442 33.5071 6.77366 33.701C6.9626 33.8945 7.06895 34.1573 7.06895 34.4315V39.5976L3.03472 39.5973ZM26.2325 39.5973H22.198V30.2983C22.198 29.7276 22.6494 29.2652 23.2065 29.2652H25.2237C25.4912 29.2652 25.7477 29.3738 25.9369 29.5677C26.1262 29.7615 26.2322 30.0243 26.2322 30.2982V39.5973L26.2325 39.5973ZM35.3102 39.5973H31.2756V26.1664C31.2756 25.5957 31.7273 25.1329 32.2845 25.1329H34.3017H34.3014C34.5688 25.1329 34.8257 25.2419 35.0146 25.4357C35.2038 25.6293 35.3102 25.892 35.3102 26.1663L35.3102 39.5973ZM16.1467 24.0992V39.5973H12.1125V24.0992C12.1125 23.5285 12.5641 23.0657 13.121 23.0657H15.1382C15.4057 23.0657 15.6622 23.1747 15.8514 23.3685C16.0406 23.5621 16.1467 23.8252 16.1467 24.0992ZM23.207 24.0992H26.2328C26.7899 24.0992 27.2416 23.6365 27.2416 23.0657C27.2416 22.4954 26.7899 22.0326 26.2328 22.0326H23.207C22.6499 22.0326 22.1985 22.4953 22.1985 23.0657C22.1985 23.6364 22.6499 24.0992 23.207 24.0992ZM23.207 19.9662H30.2674C30.8245 19.9662 31.2759 19.5038 31.2759 18.9331C31.2759 18.3624 30.8245 17.8997 30.2674 17.8997H23.207C22.6499 17.8997 22.1985 18.3624 22.1985 18.9331C22.1985 19.5038 22.6499 19.9662 23.207 19.9662ZM14.1294 4.46802C12.2569 4.46802 10.4611 5.2297 9.13699 6.58607C7.8129 7.94245 7.06906 9.78209 7.06906 11.7002C7.06906 13.6184 7.81291 15.458 9.13699 16.8144C10.4611 18.1708 12.2569 18.9328 14.1294 18.9328C16.0019 18.9328 17.7977 18.1708 19.1218 16.8144C20.4455 15.458 21.1894 13.6184 21.1894 11.7002C21.1894 9.78209 20.4455 7.94245 19.1218 6.58607C17.7977 5.22968 16.0019 4.46802 14.1294 4.46802ZM19.0714 12.7335C18.7367 14.4161 17.6075 15.8183 16.0585 16.4749C14.5094 17.1314 12.7434 16.9568 11.3455 16.0086L14.543 12.7334L19.0714 12.7335ZM23.2067 15.833H30.267C30.8242 15.833 31.2756 15.3703 31.2756 14.7996C31.2756 14.2292 30.8242 13.7665 30.267 13.7665H23.2067C22.6496 13.7665 22.1982 14.2292 22.1982 14.7996C22.1982 15.3703 22.6496 15.833 23.2067 15.833ZM13.1209 6.63734V11.2763L9.92368 14.5515C8.99806 13.1198 8.82757 11.3106 9.46855 9.72376C10.1095 8.13695 11.4784 6.98023 13.1209 6.63734ZM15.1381 10.6668V6.63734C16.1072 6.83985 16.9968 7.3298 17.6962 8.04631C18.3957 8.76248 18.8739 9.67413 19.0716 10.6668H15.1381ZM32.8794 8.60034L27.2415 2.82485V7.56724C27.2415 7.84121 27.3475 8.10397 27.5367 8.29783C27.726 8.49137 27.9825 8.60032 28.2499 8.60032L32.8794 8.60034Z" fill="#3793AE"/>
</g>
</svg>
