<svg width="40" height="41" viewBox="0 0 40 41" fill="none" xmlns="http://www.w3.org/2000/svg">
<path d="M20.0021 40.783C8.96868 40.783 0 31.6332 0 20.3915C0 9.14987 8.97513 0 20.0021 0C31.0291 0 40.0042 9.14987 40.0042 20.3915C40.0042 31.6332 31.0291 40.783 20.0021 40.783ZM20.0021 2.16412C10.143 2.16412 2.12281 10.3405 2.12281 20.3915C2.12281 30.4426 10.143 38.6189 20.0021 38.6189C29.8612 38.6189 37.8814 30.4426 37.8814 20.3915C37.8814 10.3405 29.8612 2.16412 20.0021 2.16412Z" fill="url(#paint0_linear_2443_25727)"/>
<path d="M29.0998 22.0683H19.5375C18.9504 22.0683 18.4729 21.5815 18.4729 20.9829V7.71521C18.4729 7.11662 18.9504 6.62988 19.5375 6.62988C20.1247 6.62988 20.6021 7.11662 20.6021 7.71521V19.9041H29.0998C29.687 19.9041 30.1644 20.3909 30.1644 20.9895C30.1644 21.5881 29.687 22.0748 29.0998 22.0748V22.0683Z" fill="url(#paint1_linear_2443_25727)"/>
<defs>
<linearGradient id="paint0_linear_2443_25727" x1="-0.00645229" y1="20.3915" x2="40.0042" y2="20.3915" gradientUnits="userSpaceOnUse">
<stop stop-color="#0094B0"/>
<stop offset="0.81" stop-color="#00448B"/>
</linearGradient>
<linearGradient id="paint1_linear_2443_25727" x1="18.4794" y1="14.3524" x2="30.158" y2="14.3524" gradientUnits="userSpaceOnUse">
<stop stop-color="#0094B0"/>
<stop offset="0.81" stop-color="#00448B"/>
</linearGradient>
</defs>
</svg>
