<svg width="27" height="21" viewBox="0 0 27 21" fill="none" xmlns="http://www.w3.org/2000/svg">
<path d="M25.9501 3.31977C25.8301 3.15977 25.6401 3.05977 25.4401 3.05977H6.73999L5.93005 0.00976562H1.17004C0.820044 0.00976562 0.540039 0.289771 0.540039 0.639771C0.540039 0.989771 0.820044 1.26977 1.17004 1.26977H4.96008L8.93005 16.2298H22.09C22.44 16.2298 22.72 15.9498 22.72 15.5998C22.72 15.2498 22.44 14.9698 22.09 14.9698H9.91003L9.53003 13.5498L19.97 12.2698C20.16 12.2698 23.24 11.6498 23.24 11.6498C23.48 11.6198 23.69 11.4498 23.76 11.2098L26.05 3.87977C26.11 3.68977 26.0801 3.47977 25.9601 3.30977L25.9501 3.31977ZM23.8201 6.73977L20.4401 6.98977L20.36 4.32977H24.5701L23.8201 6.73977ZM15.25 8.64977L15.3301 11.4598L11.78 11.9498C11.84 11.8498 11.87 11.7398 11.87 11.6098L11.79 8.90977L15.25 8.64977ZM11.76 7.63977L11.66 4.32977H15.12L15.2101 7.38977L11.75 7.64977L11.76 7.63977ZM16.52 8.55977L19.2101 8.35977L19.28 10.9198L16.59 11.2898L16.51 8.55977H16.52ZM16.48 7.28976L16.39 4.32977H19.09L19.17 7.08977L16.48 7.28976ZM10.39 4.32977L10.49 7.73977L8.02002 7.91977L7.07007 4.32977H10.39ZM8.35999 9.16977L10.53 9.00977L10.61 11.6498C10.61 11.8198 10.69 11.9798 10.8 12.0898L9.19006 12.3098L8.35999 9.16977ZM22.66 10.4498L20.55 10.7398L20.48 8.25977L23.42 8.03976L22.67 10.4498H22.66Z" fill="white"/>
<path d="M11.01 17.8896C10.29 17.8896 9.71008 18.4696 9.71008 19.1896C9.71008 19.9096 10.29 20.4896 11.01 20.4896C11.73 20.4896 12.3101 19.9096 12.3101 19.1896C12.3101 18.4696 11.73 17.8896 11.01 17.8896Z" fill="white"/>
<path d="M20.7101 17.8896C19.9901 17.8896 19.41 18.4696 19.41 19.1896C19.41 19.9096 19.9901 20.4896 20.7101 20.4896C21.4301 20.4896 22.01 19.9096 22.01 19.1896C22.01 18.4696 21.4301 17.8896 20.7101 17.8896Z" fill="white"/>
</svg>
