<svg width="359" height="99" viewBox="0 0 359 99" fill="none" xmlns="http://www.w3.org/2000/svg">
<g clip-path="url(#clip0_353_1305)">
<rect width="359" height="99" rx="10" fill="url(#paint0_linear_353_1305)"/>
<g opacity="0.2">
<g opacity="0.2" filter="url(#filter0_d_353_1305)">
<path d="M146.167 -133C188.563 -133 229.222 -117.003 259.2 -88.5278C289.178 -60.0526 306.02 -21.4321 306.02 18.8378C306.02 59.1076 289.178 97.7282 259.2 126.203C229.222 154.678 188.563 170.676 146.167 170.676H6.29604C1.00635 170.676 -4.06751 168.683 -7.81317 165.135C-11.5588 161.588 -13.6706 156.774 -13.6855 151.749L-13.6855 18.8378C-13.6855 -21.4321 3.15602 -60.0526 33.1342 -88.5278C63.1124 -117.003 103.772 -133 146.167 -133Z" fill="white"/>
</g>
<g style="mix-blend-mode:soft-light">
<path d="M212.834 -70.5657C255.23 -70.5657 295.889 -54.5685 325.867 -26.0934C355.845 2.38168 372.687 41.0022 372.687 81.2721V214.184C372.687 219.217 370.581 224.045 366.834 227.604C363.087 231.164 358.005 233.163 352.705 233.163H212.834C170.431 233.163 129.765 217.163 99.7811 188.683C69.7977 160.203 52.9531 121.576 52.9531 81.2989C52.9531 41.0219 69.7977 2.39455 99.7811 -26.0856C129.765 -54.5657 170.431 -70.5657 212.834 -70.5657Z" fill="white"/>
</g>
<g style="mix-blend-mode:exclusion" opacity="0.2">
<path d="M82.8333 169.925C65.738 147.307 55.5415 120.648 53.3655 92.8816C51.1896 65.1149 57.1184 37.316 70.5 12.543C83.8815 -12.2301 104.197 -33.0174 129.212 -47.5324C154.227 -62.0474 182.972 -69.7277 212.286 -69.7284H213.339C239.19 -69.7644 264.658 -63.8009 287.529 -52.3563C300.393 -29.2884 306.76 -3.45308 306.011 22.6416C305.263 48.7362 297.424 74.2037 283.256 96.5718C269.088 118.94 249.072 137.449 225.152 150.301C201.232 163.154 174.219 169.914 146.737 169.925H82.8333Z" fill="#0A1C8F"/>
</g>
</g>
</g>
<defs>
<filter id="filter0_d_353_1305" x="-29.6855" y="-137" width="351.705" height="335.676" filterUnits="userSpaceOnUse" color-interpolation-filters="sRGB">
<feFlood flood-opacity="0" result="BackgroundImageFix"/>
<feColorMatrix in="SourceAlpha" type="matrix" values="0 0 0 0 0 0 0 0 0 0 0 0 0 0 0 0 0 0 127 0" result="hardAlpha"/>
<feOffset dy="12"/>
<feGaussianBlur stdDeviation="8"/>
<feColorMatrix type="matrix" values="0 0 0 0 0.137255 0 0 0 0 0.0431373 0 0 0 0 0.627451 0 0 0 0.239 0"/>
<feBlend mode="normal" in2="BackgroundImageFix" result="effect1_dropShadow_353_1305"/>
<feBlend mode="normal" in="SourceGraphic" in2="effect1_dropShadow_353_1305" result="shape"/>
</filter>
<linearGradient id="paint0_linear_353_1305" x1="2.52225" y1="49.5" x2="359" y2="49.5" gradientUnits="userSpaceOnUse">
<stop stop-color="#3793AE"/>
<stop offset="1" stop-color="#074287"/>
</linearGradient>
<clipPath id="clip0_353_1305">
<rect width="359" height="99" rx="10" fill="white"/>
</clipPath>
</defs>
</svg>
