<svg width="30" height="31" viewBox="0 0 30 31" fill="none" xmlns="http://www.w3.org/2000/svg">
<g clip-path="url(#clip0_2530_3775)">
<path d="M15 9.6875C13.5082 9.6875 12.0774 10.2999 11.0225 11.3899C9.96763 12.48 9.375 13.9584 9.375 15.5C9.375 17.0416 9.96763 18.52 11.0225 19.6101C12.0774 20.7001 13.5082 21.3125 15 21.3125C16.4918 21.3125 17.9226 20.7001 18.9775 19.6101C20.0324 18.52 20.625 17.0416 20.625 15.5C20.625 13.9584 20.0324 12.48 18.9775 11.3899C17.9226 10.2999 16.4918 9.6875 15 9.6875ZM11.25 15.5C11.25 14.4723 11.6451 13.4867 12.3483 12.76C13.0516 12.0333 14.0054 11.625 15 11.625C15.9946 11.625 16.9484 12.0333 17.6516 12.76C18.3549 13.4867 18.75 14.4723 18.75 15.5C18.75 16.5277 18.3549 17.5133 17.6516 18.24C16.9484 18.9667 15.9946 19.375 15 19.375C14.0054 19.375 13.0516 18.9667 12.3483 18.24C11.6451 17.5133 11.25 16.5277 11.25 15.5ZM10.3125 23.25C10.0639 23.25 9.8254 23.3521 9.64959 23.5337C9.47377 23.7154 9.375 23.9618 9.375 24.2188C9.375 24.4757 9.47377 24.7221 9.64959 24.9038C9.8254 25.0854 10.0639 25.1875 10.3125 25.1875H19.6875C19.9361 25.1875 20.1746 25.0854 20.3504 24.9038C20.5262 24.7221 20.625 24.4757 20.625 24.2188C20.625 23.9618 20.5262 23.7154 20.3504 23.5337C20.1746 23.3521 19.9361 23.25 19.6875 23.25H10.3125Z" fill="#AFAFAF"/>
<path d="M6.06 3.44102C5.41179 3.56265 4.82548 3.91556 4.40332 4.43819C3.98116 4.96082 3.74994 5.62 3.75 6.30077V27.5164C3.75 28.3786 4.10813 29.14 4.66875 29.667C5.35688 30.4846 6.37125 31 7.5 31H22.5C23.4946 31 24.4484 30.5918 25.1516 29.8651C25.8549 29.1384 26.25 28.1527 26.25 27.125V7.75002C26.25 7.06983 26.0767 6.40163 25.7476 5.81258C25.4184 5.22352 24.9451 4.73436 24.375 4.39427V3.48365C24.3753 3.05783 24.2851 2.63714 24.1107 2.25135C23.9362 1.86556 23.6819 1.52408 23.3657 1.25108C23.0494 0.978078 22.679 0.780222 22.2806 0.671508C21.8821 0.562794 21.4655 0.545879 21.06 0.621958L6.06 3.43908V3.44102ZM7.5 5.81252H22.5C22.9973 5.81252 23.4742 6.01665 23.8258 6.38C24.1775 6.74335 24.375 7.23616 24.375 7.75002V27.125C24.375 27.6389 24.1775 28.1317 23.8258 28.495C23.4742 28.8584 22.9973 29.0625 22.5 29.0625H7.5C7.00272 29.0625 6.52581 28.8584 6.17417 28.495C5.82254 28.1317 5.625 27.6389 5.625 27.125V7.75002C5.625 7.23616 5.82254 6.74335 6.17417 6.38C6.52581 6.01665 7.00272 5.81252 7.5 5.81252Z" fill="#AFAFAF"/>
</g>
<defs>
<clipPath id="clip0_2530_3775">
<rect width="30" height="31" fill="white"/>
</clipPath>
</defs>
</svg>
