<svg width="33" height="33" viewBox="0 0 33 33" fill="none" xmlns="http://www.w3.org/2000/svg">
<path d="M5.46907 26.7486L9.69861 25.3381L10.4389 25.7083C12.1395 26.5566 14.0302 27.0087 16.0129 27.0087C22.6353 27.0087 28.0173 21.7948 28.0173 16.0047C28.0173 10.2146 22.6353 5.00073 16.0129 5.00073C9.3905 5.00073 4.00854 10.2146 4.00854 16.0047C4.00854 18.1655 4.78882 20.3583 6.22335 22.233L6.9136 23.1333L5.46707 26.7466L5.46907 26.7486ZM4.05456 29.3296C3.8735 29.3902 3.67887 29.3978 3.49365 29.3514C3.30843 29.305 3.14036 29.2066 3.00929 29.0677C2.87822 28.9289 2.78963 28.7554 2.75398 28.5678C2.71833 28.3802 2.73711 28.1864 2.8081 28.0091L4.63277 23.4474C2.96816 21.2666 2.00781 18.6577 2.00781 16.0047C2.00781 9.37432 8.01 3 16.0129 3C24.0158 3 30.018 9.37432 30.018 16.0047C30.018 22.6351 24.0158 29.0095 16.0129 29.0095C13.7684 29.0158 11.5535 28.4979 9.54456 27.4969L4.05456 29.3276V29.3296Z" fill="white"/>
<path d="M16.0129 17.6055C15.8027 17.6055 15.5946 17.5641 15.4004 17.4836C15.2062 17.4032 15.0298 17.2853 14.8811 17.1367C14.7325 16.988 14.6146 16.8116 14.5342 16.6174C14.4537 16.4232 14.4123 16.2151 14.4123 16.0049C14.4123 15.7947 14.4537 15.5866 14.5342 15.3924C14.6146 15.1982 14.7325 15.0217 14.8811 14.8731C15.0298 14.7245 15.2062 14.6066 15.4004 14.5261C15.5946 14.4457 15.8027 14.4043 16.0129 14.4043C16.4374 14.4043 16.8445 14.5729 17.1447 14.8731C17.4449 15.1733 17.6135 15.5804 17.6135 16.0049C17.6135 16.4294 17.4449 16.8365 17.1447 17.1367C16.8445 17.4368 16.4374 17.6055 16.0129 17.6055ZM22.0151 17.6055C21.8049 17.6055 21.5968 17.5641 21.4026 17.4836C21.2084 17.4032 21.032 17.2853 20.8833 17.1367C20.7347 16.988 20.6168 16.8116 20.5364 16.6174C20.4559 16.4232 20.4145 16.2151 20.4145 16.0049C20.4145 15.7947 20.4559 15.5866 20.5364 15.3924C20.6168 15.1982 20.7347 15.0217 20.8833 14.8731C21.032 14.7245 21.2084 14.6066 21.4026 14.5261C21.5968 14.4457 21.8049 14.4043 22.0151 14.4043C22.4396 14.4043 22.8467 14.5729 23.1469 14.8731C23.4471 15.1733 23.6157 15.5804 23.6157 16.0049C23.6157 16.4294 23.4471 16.8365 23.1469 17.1367C22.8467 17.4368 22.4396 17.6055 22.0151 17.6055ZM10.0107 17.6055C9.80055 17.6055 9.59241 17.5641 9.39822 17.4836C9.20403 17.4032 9.02758 17.2853 8.87896 17.1367C8.73033 16.988 8.61243 16.8116 8.53199 16.6174C8.45156 16.4232 8.41016 16.2151 8.41016 16.0049C8.41016 15.7947 8.45156 15.5866 8.53199 15.3924C8.61243 15.1982 8.73033 15.0217 8.87896 14.8731C9.02758 14.7245 9.20403 14.6066 9.39822 14.5261C9.59241 14.4457 9.80055 14.4043 10.0107 14.4043C10.4352 14.4043 10.8424 14.5729 11.1425 14.8731C11.4427 15.1733 11.6113 15.5804 11.6113 16.0049C11.6113 16.4294 11.4427 16.8365 11.1425 17.1367C10.8424 17.4368 10.4352 17.6055 10.0107 17.6055Z" fill="white"/>
</svg>
