<svg width="119" height="59" viewBox="0 0 119 59" fill="none" xmlns="http://www.w3.org/2000/svg">
<path d="M23.5565 2.44199C23.4141 3.48677 23.0816 4.86399 22.7967 5.52885L22.3693 6.7161L19.2349 5.57634C17.4778 4.91148 16.1481 4.57905 16.2431 4.8165C16.338 5.05395 17.5728 6.28869 19.045 7.6659C21.562 9.89793 21.8944 10.0879 24.1739 10.0879C26.4059 10.0879 26.7859 9.89793 29.3028 7.61841C32.1047 5.14893 32.9596 4.05665 31.7723 4.53156C31.3924 4.67403 29.9677 5.19642 28.5905 5.62383C25.5986 6.62112 25.3612 6.43116 24.8863 2.82191C24.5063 0.114981 23.9839 -0.0749788 23.5565 2.44199Z" fill="url(#paint0_linear_1176_2871)"/>
<path d="M23.5565 2.44199C23.4141 3.48677 23.0816 4.86399 22.7967 5.52885L22.3693 6.7161L19.2349 5.57634C17.4778 4.91148 16.1481 4.57905 16.2431 4.8165C16.338 5.05395 17.5728 6.28869 19.045 7.6659C21.562 9.89793 21.8944 10.0879 24.1739 10.0879C26.4059 10.0879 26.7859 9.89793 29.3028 7.61841C32.1047 5.14893 32.9596 4.05665 31.7723 4.53156C31.3924 4.67403 29.9677 5.19642 28.5905 5.62383C25.5986 6.62112 25.3612 6.43116 24.8863 2.82191C24.5063 0.114981 23.9839 -0.0749788 23.5565 2.44199Z" fill="#E6EEF1" fill-opacity="0.45"/>
<path d="M12.2049 12.984C8.45323 13.4114 5.60383 14.8836 3.22932 17.638C0.474901 20.8674 0 23.0519 0 32.0275V40.0059H2.13705H4.2741V32.0275C4.2741 22.9569 4.70152 20.9149 7.40845 17.7805C9.35554 15.501 12.1575 14.0288 15.5767 13.6014C17.2389 13.4114 17.9037 13.1265 17.4763 12.889C16.8115 12.4141 16.764 12.4141 12.2049 12.984Z" fill="url(#paint1_linear_1176_2871)"/>
<path d="M12.2049 12.984C8.45323 13.4114 5.60383 14.8836 3.22932 17.638C0.474901 20.8674 0 23.0519 0 32.0275V40.0059H2.13705H4.2741V32.0275C4.2741 22.9569 4.70152 20.9149 7.40845 17.7805C9.35554 15.501 12.1575 14.0288 15.5767 13.6014C17.2389 13.4114 17.9037 13.1265 17.4763 12.889C16.8115 12.4141 16.764 12.4141 12.2049 12.984Z" fill="#E6EEF1" fill-opacity="0.45"/>
<path d="M59.125 22.5773V27.4688H60.6922C62.2119 27.4688 62.6393 27.0413 61.737 26.4715C61.2146 26.139 61.0721 20.1553 61.547 18.9205C61.9269 17.9233 63.5891 17.9707 64.6813 18.968C65.6786 19.8703 66.1535 19.6329 65.7261 18.4456C65.4887 17.8283 64.7763 17.6858 62.2593 17.6858H59.125V22.5773Z" fill="url(#paint2_linear_1176_2871)"/>
<path d="M59.125 22.5773V27.4688H60.6922C62.2119 27.4688 62.6393 27.0413 61.737 26.4715C61.2146 26.139 61.0721 20.1553 61.547 18.9205C61.9269 17.9233 63.5891 17.9707 64.6813 18.968C65.6786 19.8703 66.1535 19.6329 65.7261 18.4456C65.4887 17.8283 64.7763 17.6858 62.2593 17.6858H59.125V22.5773Z" fill="#E6EEF1" fill-opacity="0.45"/>
<path d="M27.5901 19.1577C23.6959 20.3449 20.799 23.4318 19.7543 27.4209C19.2319 29.5105 19.0894 29.653 16.6199 30.5078C10.6362 32.5024 7.40685 39.4834 9.92383 44.9922C12.3458 50.2636 17.9022 52.5907 25.2631 51.4034L28.8249 50.8335L28.5874 47.6042C28.3975 44.6598 28.4449 44.3274 29.3948 43.8525C31.3418 42.8077 30.392 42.3803 26.1179 42.3803C22.6987 42.3803 21.8438 42.5228 21.8438 43.0452C21.8438 43.4726 22.4137 43.805 23.411 43.9L24.9307 44.0424V46.8918V49.7413L23.2685 50.1687C19.2319 51.1185 14.5304 48.0791 13.2956 43.6625C12.4883 40.7181 12.8682 36.539 14.103 34.8769C15.2902 33.2622 17.9971 31.3626 18.9469 31.5526C19.3269 31.6475 19.8492 32.4074 20.1342 33.2622C21.6539 37.7738 26.023 40.4807 31.8642 40.4807C36.8032 40.4807 38.2279 39.9108 39.1302 37.5838C39.5576 36.539 39.8901 35.4942 39.8901 35.2568C39.8901 34.3545 38.5603 34.7819 37.8005 35.9691C36.0434 38.6761 32.2916 39.7683 29.1098 38.5336C26.6878 37.6313 23.7434 34.1645 23.7434 32.1699C23.7434 30.9827 25.5481 32.1699 26.6878 34.117C27.8751 36.1591 28.7774 35.9691 28.5874 33.7846C28.3025 30.9352 28.065 30.6028 25.643 30.0329C23.0311 29.4155 22.9836 29.273 23.7909 25.9962C25.3106 19.87 34.5237 17.8754 37.2781 23.0044C37.8005 24.0016 38.4653 24.714 38.7028 24.6665C39.2727 24.4765 39.0352 20.0125 38.4653 19.3951C37.848 18.7777 29.4422 18.5878 27.5901 19.1577Z" fill="url(#paint3_linear_1176_2871)"/>
<path d="M27.5901 19.1577C23.6959 20.3449 20.799 23.4318 19.7543 27.4209C19.2319 29.5105 19.0894 29.653 16.6199 30.5078C10.6362 32.5024 7.40685 39.4834 9.92383 44.9922C12.3458 50.2636 17.9022 52.5907 25.2631 51.4034L28.8249 50.8335L28.5874 47.6042C28.3975 44.6598 28.4449 44.3274 29.3948 43.8525C31.3418 42.8077 30.392 42.3803 26.1179 42.3803C22.6987 42.3803 21.8438 42.5228 21.8438 43.0452C21.8438 43.4726 22.4137 43.805 23.411 43.9L24.9307 44.0424V46.8918V49.7413L23.2685 50.1687C19.2319 51.1185 14.5304 48.0791 13.2956 43.6625C12.4883 40.7181 12.8682 36.539 14.103 34.8769C15.2902 33.2622 17.9971 31.3626 18.9469 31.5526C19.3269 31.6475 19.8492 32.4074 20.1342 33.2622C21.6539 37.7738 26.023 40.4807 31.8642 40.4807C36.8032 40.4807 38.2279 39.9108 39.1302 37.5838C39.5576 36.539 39.8901 35.4942 39.8901 35.2568C39.8901 34.3545 38.5603 34.7819 37.8005 35.9691C36.0434 38.6761 32.2916 39.7683 29.1098 38.5336C26.6878 37.6313 23.7434 34.1645 23.7434 32.1699C23.7434 30.9827 25.5481 32.1699 26.6878 34.117C27.8751 36.1591 28.7774 35.9691 28.5874 33.7846C28.3025 30.9352 28.065 30.6028 25.643 30.0329C23.0311 29.4155 22.9836 29.273 23.7909 25.9962C25.3106 19.87 34.5237 17.8754 37.2781 23.0044C37.8005 24.0016 38.4653 24.714 38.7028 24.6665C39.2727 24.4765 39.0352 20.0125 38.4653 19.3951C37.848 18.7777 29.4422 18.5878 27.5901 19.1577Z" fill="#E6EEF1" fill-opacity="0.45"/>
<path d="M70.3339 20.9626C69.954 21.2001 68.9567 21.2951 68.0544 21.1526C66.5347 20.9151 65.8698 21.5325 66.9621 22.1974C67.6744 22.6248 67.5795 29.8908 66.8671 30.3657C66.4872 30.5556 66.8671 30.8406 67.9119 31.0305C69.764 31.4104 70.2389 31.2205 69.4316 30.4131C69.0991 30.0807 68.8617 29.3684 68.8617 28.751C68.8617 27.8487 69.0991 27.6587 70.2864 27.6587C72.3285 27.6587 74.0856 25.8066 74.0856 23.717C74.0856 22.8147 73.8007 21.8649 73.5157 21.58C72.5184 20.8202 71.0462 20.5352 70.3339 20.9626ZM72.281 23.1472C73.0408 24.9043 71.996 26.8039 70.3339 26.6139C69.0042 26.4715 68.5293 25.1892 69.0516 23.0997C69.4791 21.485 71.5211 21.5325 72.281 23.1472Z" fill="url(#paint4_linear_1176_2871)"/>
<path d="M70.3339 20.9626C69.954 21.2001 68.9567 21.2951 68.0544 21.1526C66.5347 20.9151 65.8698 21.5325 66.9621 22.1974C67.6744 22.6248 67.5795 29.8908 66.8671 30.3657C66.4872 30.5556 66.8671 30.8406 67.9119 31.0305C69.764 31.4104 70.2389 31.2205 69.4316 30.4131C69.0991 30.0807 68.8617 29.3684 68.8617 28.751C68.8617 27.8487 69.0991 27.6587 70.2864 27.6587C72.3285 27.6587 74.0856 25.8066 74.0856 23.717C74.0856 22.8147 73.8007 21.8649 73.5157 21.58C72.5184 20.8202 71.0462 20.5352 70.3339 20.9626ZM72.281 23.1472C73.0408 24.9043 71.996 26.8039 70.3339 26.6139C69.0042 26.4715 68.5293 25.1892 69.0516 23.0997C69.4791 21.485 71.5211 21.5325 72.281 23.1472Z" fill="#E6EEF1" fill-opacity="0.45"/>
<path d="M76.8875 21.4363L75.7477 22.3387L77.4099 22.2912L79.072 22.1962V24.3332C79.072 26.1853 78.9771 26.4703 78.1222 26.3278C76.745 26.0904 76.6975 25.8529 77.6473 24.8081C78.1697 24.2383 78.3122 23.8583 77.9323 23.8583C75.5103 23.8583 74.513 26.8977 76.745 27.4676C77.4099 27.6575 78.1697 27.5626 78.4547 27.2776C78.8346 26.8977 79.262 26.8977 79.8794 27.2301C81.1616 27.9425 81.3991 27.5151 81.2566 24.6657C81.2091 22.861 80.9242 21.9587 80.1643 21.3414C78.9296 20.2966 78.2647 20.2966 76.8875 21.4363Z" fill="url(#paint5_linear_1176_2871)"/>
<path d="M76.8875 21.4363L75.7477 22.3387L77.4099 22.2912L79.072 22.1962V24.3332C79.072 26.1853 78.9771 26.4703 78.1222 26.3278C76.745 26.0904 76.6975 25.8529 77.6473 24.8081C78.1697 24.2383 78.3122 23.8583 77.9323 23.8583C75.5103 23.8583 74.513 26.8977 76.745 27.4676C77.4099 27.6575 78.1697 27.5626 78.4547 27.2776C78.8346 26.8977 79.262 26.8977 79.8794 27.2301C81.1616 27.9425 81.3991 27.5151 81.2566 24.6657C81.2091 22.861 80.9242 21.9587 80.1643 21.3414C78.9296 20.2966 78.2647 20.2966 76.8875 21.4363Z" fill="#E6EEF1" fill-opacity="0.45"/>
<path d="M83.4868 21.5804C83.8193 21.9128 84.0567 23.0051 84.0567 24.0974C84.0567 25.1896 83.8193 26.2819 83.4868 26.6144C82.822 27.2792 82.822 27.2317 84.9115 27.4217C86.6212 27.5642 86.6212 27.5167 85.9563 26.1869C85.6239 25.5696 85.6239 24.9997 85.9088 24.4298C86.2413 23.8124 86.2413 23.385 85.9088 23.0526C85.5289 22.6727 85.5764 22.4352 85.9088 22.2453C86.9536 21.5804 86.3837 21.0105 84.6741 21.0105C83.2969 21.0105 83.0594 21.153 83.4868 21.5804Z" fill="url(#paint6_linear_1176_2871)"/>
<path d="M83.4868 21.5804C83.8193 21.9128 84.0567 23.0051 84.0567 24.0974C84.0567 25.1896 83.8193 26.2819 83.4868 26.6144C82.822 27.2792 82.822 27.2317 84.9115 27.4217C86.6212 27.5642 86.6212 27.5167 85.9563 26.1869C85.6239 25.5696 85.6239 24.9997 85.9088 24.4298C86.2413 23.8124 86.2413 23.385 85.9088 23.0526C85.5289 22.6727 85.5764 22.4352 85.9088 22.2453C86.9536 21.5804 86.3837 21.0105 84.6741 21.0105C83.2969 21.0105 83.0594 21.153 83.4868 21.5804Z" fill="#E6EEF1" fill-opacity="0.45"/>
<path d="M88.332 21.4379C88.332 21.7229 88.5695 22.0553 88.8544 22.2453C89.1869 22.4352 89.2343 22.6727 88.8544 23.0526C88.522 23.385 88.522 23.8124 88.8544 24.4298C89.1394 24.9997 89.1394 25.5696 88.8069 26.1869C88.1421 27.5167 88.1421 27.5642 89.8992 27.4217C91.9413 27.2317 91.9413 27.2792 91.2764 26.6144C90.944 26.2819 90.7065 25.1896 90.7065 24.0974C90.7065 23.0051 90.944 21.9128 91.2764 21.5804C91.7038 21.153 91.4664 21.0105 90.0892 21.0105C89.1394 21.0105 88.332 21.2005 88.332 21.4379Z" fill="url(#paint7_linear_1176_2871)"/>
<path d="M88.332 21.4379C88.332 21.7229 88.5695 22.0553 88.8544 22.2453C89.1869 22.4352 89.2343 22.6727 88.8544 23.0526C88.522 23.385 88.522 23.8124 88.8544 24.4298C89.1394 24.9997 89.1394 25.5696 88.8069 26.1869C88.1421 27.5167 88.1421 27.5642 89.8992 27.4217C91.9413 27.2317 91.9413 27.2792 91.2764 26.6144C90.944 26.2819 90.7065 25.1896 90.7065 24.0974C90.7065 23.0051 90.944 21.9128 91.2764 21.5804C91.7038 21.153 91.4664 21.0105 90.0892 21.0105C89.1394 21.0105 88.332 21.2005 88.332 21.4379Z" fill="#E6EEF1" fill-opacity="0.45"/>
<path d="M96.2164 21.723C96.4063 22.1029 96.8337 22.4354 97.2137 22.4354C97.7361 22.4354 97.831 22.9578 97.7361 24.43C97.5936 26.2821 97.4511 26.472 96.3114 26.6145C94.7917 26.8045 94.6017 26.0446 95.7415 24.7624C96.1689 24.2875 96.4063 23.6701 96.3114 23.3377C96.0264 22.4829 93.082 26.7095 93.082 27.9917C93.082 28.6091 93.3195 29.084 93.5569 29.084C93.8419 29.084 94.0318 28.799 94.0318 28.4191C94.0318 27.9917 94.7442 27.7068 96.0739 27.5643C98.4484 27.3269 99.2557 27.5168 99.2557 28.4191C99.2557 28.799 99.4932 29.084 99.7306 29.084C100.016 29.084 100.206 28.5616 100.206 27.8967C100.206 27.2319 100.016 26.7095 99.7306 26.7095C99.4457 26.7095 99.2557 25.4273 99.2557 23.8601V21.0107H97.5936C96.3588 21.0107 96.0264 21.1531 96.2164 21.723Z" fill="url(#paint8_linear_1176_2871)"/>
<path d="M96.2164 21.723C96.4063 22.1029 96.8337 22.4354 97.2137 22.4354C97.7361 22.4354 97.831 22.9578 97.7361 24.43C97.5936 26.2821 97.4511 26.472 96.3114 26.6145C94.7917 26.8045 94.6017 26.0446 95.7415 24.7624C96.1689 24.2875 96.4063 23.6701 96.3114 23.3377C96.0264 22.4829 93.082 26.7095 93.082 27.9917C93.082 28.6091 93.3195 29.084 93.5569 29.084C93.8419 29.084 94.0318 28.799 94.0318 28.4191C94.0318 27.9917 94.7442 27.7068 96.0739 27.5643C98.4484 27.3269 99.2557 27.5168 99.2557 28.4191C99.2557 28.799 99.4932 29.084 99.7306 29.084C100.016 29.084 100.206 28.5616 100.206 27.8967C100.206 27.2319 100.016 26.7095 99.7306 26.7095C99.4457 26.7095 99.2557 25.4273 99.2557 23.8601V21.0107H97.5936C96.3588 21.0107 96.0264 21.1531 96.2164 21.723Z" fill="#E6EEF1" fill-opacity="0.45"/>
<path d="M44.0687 39.1511C43.9263 48.3167 43.3089 50.4537 40.222 53.683C37.2776 56.7699 35.663 57.2923 27.7796 57.5772C18.8515 57.9571 19.3739 58.0996 29.6792 58.0996H37.7051L40.8394 56.5324C43.3089 55.2977 44.3062 54.4429 45.6834 52.3533C47.8204 49.219 48.0104 48.0792 48.1054 38.4387L48.2004 30.9828H46.2058H44.2587L44.0687 39.1511Z" fill="url(#paint9_linear_1176_2871)"/>
<path d="M44.0687 39.1511C43.9263 48.3167 43.3089 50.4537 40.222 53.683C37.2776 56.7699 35.663 57.2923 27.7796 57.5772C18.8515 57.9571 19.3739 58.0996 29.6792 58.0996H37.7051L40.8394 56.5324C43.3089 55.2977 44.3062 54.4429 45.6834 52.3533C47.8204 49.219 48.0104 48.0792 48.1054 38.4387L48.2004 30.9828H46.2058H44.2587L44.0687 39.1511Z" fill="#E6EEF1" fill-opacity="0.45"/>
<path d="M58.8877 33.1201C59.2676 33.595 59.4101 35.1621 59.3151 37.9641L59.1252 42.1432L60.6923 42.1907C62.1645 42.1907 62.6869 41.7633 61.7371 41.1934C61.1197 40.8135 61.1197 38.1065 61.6896 38.1065C61.9271 38.1065 62.8294 38.9139 63.7317 39.9111C65.1089 41.5733 67.9108 42.9505 67.9108 42.0482C67.9108 41.8582 66.7711 40.576 65.4413 39.1513L62.9244 36.5868L65.2039 34.4973C67.246 32.6452 67.3884 32.4077 66.3911 32.4077C65.6788 32.4552 64.824 33.1201 63.7317 34.5448C62.8769 35.732 61.9746 36.6818 61.7371 36.6818C61.1197 36.6818 61.1197 33.9749 61.7371 33.595C62.7819 32.9301 62.117 32.4077 60.2649 32.4077C58.6028 32.4077 58.3653 32.5027 58.8877 33.1201Z" fill="url(#paint10_linear_1176_2871)"/>
<path d="M58.8877 33.1201C59.2676 33.595 59.4101 35.1621 59.3151 37.9641L59.1252 42.1432L60.6923 42.1907C62.1645 42.1907 62.6869 41.7633 61.7371 41.1934C61.1197 40.8135 61.1197 38.1065 61.6896 38.1065C61.9271 38.1065 62.8294 38.9139 63.7317 39.9111C65.1089 41.5733 67.9108 42.9505 67.9108 42.0482C67.9108 41.8582 66.7711 40.576 65.4413 39.1513L62.9244 36.5868L65.2039 34.4973C67.246 32.6452 67.3884 32.4077 66.3911 32.4077C65.6788 32.4552 64.824 33.1201 63.7317 34.5448C62.8769 35.732 61.9746 36.6818 61.7371 36.6818C61.1197 36.6818 61.1197 33.9749 61.7371 33.595C62.7819 32.9301 62.117 32.4077 60.2649 32.4077C58.6028 32.4077 58.3653 32.5027 58.8877 33.1201Z" fill="#E6EEF1" fill-opacity="0.45"/>
<path d="M71.139 35.9223C69.9043 36.8246 70.0942 37.0621 71.8514 36.9671L73.371 36.9196L73.3235 39.3891C73.2761 40.7663 73.4185 41.9061 73.6085 41.9061C73.8459 41.9061 74.3208 42.0486 74.7008 42.191C75.3181 42.4285 75.3656 42.0011 75.1757 39.4366C74.8432 35.5424 73.3235 34.2602 71.139 35.9223Z" fill="url(#paint11_linear_1176_2871)"/>
<path d="M71.139 35.9223C69.9043 36.8246 70.0942 37.0621 71.8514 36.9671L73.371 36.9196L73.3235 39.3891C73.2761 40.7663 73.4185 41.9061 73.6085 41.9061C73.8459 41.9061 74.3208 42.0486 74.7008 42.191C75.3181 42.4285 75.3656 42.0011 75.1757 39.4366C74.8432 35.5424 73.3235 34.2602 71.139 35.9223Z" fill="#E6EEF1" fill-opacity="0.45"/>
<path d="M96.7842 36.1121C96.1194 36.8719 96.7367 37.4893 97.4491 36.7769C97.7815 36.4445 98.3039 36.207 98.6838 36.207C99.2062 36.207 99.3012 36.8244 99.1587 39.1989C98.9688 42.1908 99.0163 42.2383 100.204 42.2383C101.391 42.2383 101.438 42.1433 101.248 39.5313C101.058 36.7294 101.628 35.5422 102.72 36.6345C103.005 36.9194 103.433 37.1568 103.623 37.1568C104.098 37.1568 104.145 35.7321 103.67 35.6847C99.8711 35.4472 97.2116 35.5897 96.7842 36.1121Z" fill="url(#paint12_linear_1176_2871)"/>
<path d="M96.7842 36.1121C96.1194 36.8719 96.7367 37.4893 97.4491 36.7769C97.7815 36.4445 98.3039 36.207 98.6838 36.207C99.2062 36.207 99.3012 36.8244 99.1587 39.1989C98.9688 42.1908 99.0163 42.2383 100.204 42.2383C101.391 42.2383 101.438 42.1433 101.248 39.5313C101.058 36.7294 101.628 35.5422 102.72 36.6345C103.005 36.9194 103.433 37.1568 103.623 37.1568C104.098 37.1568 104.145 35.7321 103.67 35.6847C99.8711 35.4472 97.2116 35.5897 96.7842 36.1121Z" fill="#E6EEF1" fill-opacity="0.45"/>
<path d="M106.284 35.9212C105.049 36.8235 105.239 37.1559 106.854 36.8235C108.088 36.586 108.278 36.7285 108.278 37.5358C108.278 38.0582 108.373 38.7706 108.516 39.1505C108.658 39.4829 108.468 40.1953 108.088 40.7176C107.518 41.525 107.329 41.525 106.616 40.9551C105.856 40.3377 105.856 40.2427 106.854 39.4354C107.851 38.6281 107.851 38.5806 106.996 38.5806C106.474 38.5806 105.714 38.8655 105.239 39.198C103.529 40.4327 105.429 43.1871 107.234 42.0949C107.708 41.7624 108.468 41.7149 109.133 41.9524C110.32 42.3798 110.273 42.4748 110.178 39.2929C110.083 35.8262 108.373 34.3065 106.284 35.9212Z" fill="url(#paint13_linear_1176_2871)"/>
<path d="M106.284 35.9212C105.049 36.8235 105.239 37.1559 106.854 36.8235C108.088 36.586 108.278 36.7285 108.278 37.5358C108.278 38.0582 108.373 38.7706 108.516 39.1505C108.658 39.4829 108.468 40.1953 108.088 40.7176C107.518 41.525 107.329 41.525 106.616 40.9551C105.856 40.3377 105.856 40.2427 106.854 39.4354C107.851 38.6281 107.851 38.5806 106.996 38.5806C106.474 38.5806 105.714 38.8655 105.239 39.198C103.529 40.4327 105.429 43.1871 107.234 42.0949C107.708 41.7624 108.468 41.7149 109.133 41.9524C110.32 42.3798 110.273 42.4748 110.178 39.2929C110.083 35.8262 108.373 34.3065 106.284 35.9212Z" fill="#E6EEF1" fill-opacity="0.45"/>
<path d="M77.4102 36.1593C77.4102 36.4443 77.6001 36.7292 77.8376 36.8717C78.075 37.0141 78.2175 37.5365 78.1225 38.0114C78.0275 38.4388 77.8376 39.5786 77.6951 40.5284C77.5051 42.1431 77.5526 42.238 78.7874 42.1906C80.0696 42.1431 80.1171 42.0956 80.0696 39.2937L80.0221 36.4443H81.4468H82.8715L82.824 39.2937C82.7765 42.0956 82.824 42.1431 84.1537 42.1906C85.4835 42.238 85.9109 41.7631 85.0086 41.1933C84.7711 41.0508 84.5337 40.0535 84.5337 39.0562C84.5337 38.0589 84.7711 37.0616 85.0086 36.9192C86.2908 36.1118 85.1035 35.7319 81.4468 35.7319C79.2148 35.7319 77.4102 35.9219 77.4102 36.1593Z" fill="url(#paint14_linear_1176_2871)"/>
<path d="M77.4102 36.1593C77.4102 36.4443 77.6001 36.7292 77.8376 36.8717C78.075 37.0141 78.2175 37.5365 78.1225 38.0114C78.0275 38.4388 77.8376 39.5786 77.6951 40.5284C77.5051 42.1431 77.5526 42.238 78.7874 42.1906C80.0696 42.1431 80.1171 42.0956 80.0696 39.2937L80.0221 36.4443H81.4468H82.8715L82.824 39.2937C82.7765 42.0956 82.824 42.1431 84.1537 42.1906C85.4835 42.238 85.9109 41.7631 85.0086 41.1933C84.7711 41.0508 84.5337 40.0535 84.5337 39.0562C84.5337 38.0589 84.7711 37.0616 85.0086 36.9192C86.2908 36.1118 85.1035 35.7319 81.4468 35.7319C79.2148 35.7319 77.4102 35.9219 77.4102 36.1593Z" fill="#E6EEF1" fill-opacity="0.45"/>
<path d="M87.6172 39.0557C87.6172 41.6202 87.7597 42.3326 88.2346 42.1426C88.6145 42.0001 89.0894 41.9051 89.2793 41.9051C89.5168 41.9051 90.2766 40.9553 90.989 39.7681C91.6538 38.5808 92.4137 37.631 92.6511 37.631C93.221 37.631 93.1735 40.8129 92.6036 41.1928C91.7013 41.7627 92.1287 42.2376 93.506 42.1901C94.8832 42.1426 94.8832 42.1426 94.6457 39.6731C94.4558 38.011 94.5982 36.9187 94.9781 36.4438C95.5005 35.8264 95.3581 35.7314 94.2183 35.7314C93.0785 35.7314 92.6036 36.1114 91.6538 37.8685C90.989 39.0557 90.2766 40.0055 90.0392 40.0055C89.8017 40.0055 89.7542 39.0557 89.8492 37.8685C90.0867 35.8264 90.0392 35.7314 88.8519 35.7314C87.6172 35.7314 87.6172 35.7789 87.6172 39.0557Z" fill="url(#paint15_linear_1176_2871)"/>
<path d="M87.6172 39.0557C87.6172 41.6202 87.7597 42.3326 88.2346 42.1426C88.6145 42.0001 89.0894 41.9051 89.2793 41.9051C89.5168 41.9051 90.2766 40.9553 90.989 39.7681C91.6538 38.5808 92.4137 37.631 92.6511 37.631C93.221 37.631 93.1735 40.8129 92.6036 41.1928C91.7013 41.7627 92.1287 42.2376 93.506 42.1901C94.8832 42.1426 94.8832 42.1426 94.6457 39.6731C94.4558 38.011 94.5982 36.9187 94.9781 36.4438C95.5005 35.8264 95.3581 35.7314 94.2183 35.7314C93.0785 35.7314 92.6036 36.1114 91.6538 37.8685C90.989 39.0557 90.2766 40.0055 90.0392 40.0055C89.8017 40.0055 89.7542 39.0557 89.8492 37.8685C90.0867 35.8264 90.0392 35.7314 88.8519 35.7314C87.6172 35.7314 87.6172 35.7789 87.6172 39.0557Z" fill="#E6EEF1" fill-opacity="0.45"/>
<path d="M115.686 36.4445C115.876 36.8244 116.209 37.1568 116.446 37.1568C116.731 37.1568 116.873 38.1541 116.731 39.6738C116.541 42.1908 116.541 42.2383 117.871 42.2383C118.916 42.2383 119.153 42.0483 118.916 41.4784C118.773 41.051 118.631 39.5788 118.678 38.2016L118.773 35.7321H117.111C115.829 35.7321 115.496 35.8746 115.686 36.4445Z" fill="url(#paint16_linear_1176_2871)"/>
<path d="M115.686 36.4445C115.876 36.8244 116.209 37.1568 116.446 37.1568C116.731 37.1568 116.873 38.1541 116.731 39.6738C116.541 42.1908 116.541 42.2383 117.871 42.2383C118.916 42.2383 119.153 42.0483 118.916 41.4784C118.773 41.051 118.631 39.5788 118.678 38.2016L118.773 35.7321H117.111C115.829 35.7321 115.496 35.8746 115.686 36.4445Z" fill="#E6EEF1" fill-opacity="0.45"/>
<path d="M113.881 39.5789C112.219 41.9059 112.171 43.1881 113.738 42.0009C114.261 41.621 115.591 38.1542 115.306 37.8693C115.258 37.8218 114.593 38.5816 113.881 39.5789Z" fill="url(#paint17_linear_1176_2871)"/>
<path d="M113.881 39.5789C112.219 41.9059 112.171 43.1881 113.738 42.0009C114.261 41.621 115.591 38.1542 115.306 37.8693C115.258 37.8218 114.593 38.5816 113.881 39.5789Z" fill="#E6EEF1" fill-opacity="0.45"/>
<path d="M70.6671 38.9133C69.6223 39.1983 69.0999 40.8129 69.8123 41.6678C70.4771 42.4751 71.9968 42.6176 72.4242 41.9052C72.5667 41.6203 72.4717 41.4303 72.1868 41.4303C71.237 41.4303 71.0945 39.9581 71.9968 39.2933C72.9466 38.5809 72.4242 38.4384 70.6671 38.9133Z" fill="url(#paint18_linear_1176_2871)"/>
<path d="M70.6671 38.9133C69.6223 39.1983 69.0999 40.8129 69.8123 41.6678C70.4771 42.4751 71.9968 42.6176 72.4242 41.9052C72.5667 41.6203 72.4717 41.4303 72.1868 41.4303C71.237 41.4303 71.0945 39.9581 71.9968 39.2933C72.9466 38.5809 72.4242 38.4384 70.6671 38.9133Z" fill="#E6EEF1" fill-opacity="0.45"/>
<path d="M59.3633 49.1245C59.3633 50.8341 59.5532 50.7866 60.0281 48.887C60.2181 48.1272 60.1231 47.6048 59.8382 47.6048C59.6007 47.6048 59.3633 48.2697 59.3633 49.1245Z" fill="url(#paint19_linear_1176_2871)"/>
<path d="M59.3633 49.1245C59.3633 50.8341 59.5532 50.7866 60.0281 48.887C60.2181 48.1272 60.1231 47.6048 59.8382 47.6048C59.6007 47.6048 59.3633 48.2697 59.3633 49.1245Z" fill="#E6EEF1" fill-opacity="0.45"/>
<path d="M62.0232 47.9368C61.8808 48.1268 61.7383 48.7442 61.7383 49.3615C61.7383 50.3588 61.8808 50.4063 62.6881 49.9789C63.2105 49.694 63.6379 49.1716 63.6379 48.8391C63.6379 48.1268 62.4981 47.5094 62.0232 47.9368Z" fill="url(#paint20_linear_1176_2871)"/>
<path d="M62.0232 47.9368C61.8808 48.1268 61.7383 48.7442 61.7383 49.3615C61.7383 50.3588 61.8808 50.4063 62.6881 49.9789C63.2105 49.694 63.6379 49.1716 63.6379 48.8391C63.6379 48.1268 62.4981 47.5094 62.0232 47.9368Z" fill="#E6EEF1" fill-opacity="0.45"/>
<path d="M67.7674 47.9377C67.1975 48.5076 67.435 48.9825 68.1473 48.7451C68.6222 48.5551 68.8597 48.7451 68.8597 49.5049C68.8597 50.0273 69.0496 50.4072 69.2871 50.2647C69.857 49.8848 69.3346 47.6053 68.6697 47.6053C68.3373 47.6053 67.9099 47.7478 67.7674 47.9377Z" fill="url(#paint21_linear_1176_2871)"/>
<path d="M67.7674 47.9377C67.1975 48.5076 67.435 48.9825 68.1473 48.7451C68.6222 48.5551 68.8597 48.7451 68.8597 49.5049C68.8597 50.0273 69.0496 50.4072 69.2871 50.2647C69.857 49.8848 69.3346 47.6053 68.6697 47.6053C68.3373 47.6053 67.9099 47.7478 67.7674 47.9377Z" fill="#E6EEF1" fill-opacity="0.45"/>
<path d="M71.0444 48.0317C70.9019 48.2692 71.1868 48.5541 71.7092 48.6966C72.3266 48.839 72.659 48.6966 72.659 48.2692C72.659 47.5568 71.4243 47.3669 71.0444 48.0317Z" fill="url(#paint22_linear_1176_2871)"/>
<path d="M71.0444 48.0317C70.9019 48.2692 71.1868 48.5541 71.7092 48.6966C72.3266 48.839 72.659 48.6966 72.659 48.2692C72.659 47.5568 71.4243 47.3669 71.0444 48.0317Z" fill="#E6EEF1" fill-opacity="0.45"/>
<path d="M80.7807 48.5065C80.4482 49.1239 80.4957 49.6463 80.9231 50.2636C81.493 50.976 81.683 51.0235 82.3478 50.5011C82.7752 50.1686 83.1077 49.5988 83.0602 49.3138C83.0602 48.9814 82.9652 49.0289 82.7752 49.3613C82.4428 50.2161 81.2081 50.1212 81.2081 49.2663C81.2081 48.8864 81.5405 48.554 81.9679 48.554C82.3478 48.554 82.5378 48.3165 82.3953 48.0791C81.9204 47.3667 81.303 47.5092 80.7807 48.5065Z" fill="url(#paint23_linear_1176_2871)"/>
<path d="M80.7807 48.5065C80.4482 49.1239 80.4957 49.6463 80.9231 50.2636C81.493 50.976 81.683 51.0235 82.3478 50.5011C82.7752 50.1686 83.1077 49.5988 83.0602 49.3138C83.0602 48.9814 82.9652 49.0289 82.7752 49.3613C82.4428 50.2161 81.2081 50.1212 81.2081 49.2663C81.2081 48.8864 81.5405 48.554 81.9679 48.554C82.3478 48.554 82.5378 48.3165 82.3953 48.0791C81.9204 47.3667 81.303 47.5092 80.7807 48.5065Z" fill="#E6EEF1" fill-opacity="0.45"/>
<path d="M88.1898 47.9362C87.5725 48.5061 87.8574 48.791 88.9972 48.791C89.7095 48.791 90.0419 48.5536 89.8995 48.1736C89.6145 47.5563 88.7122 47.4138 88.1898 47.9362Z" fill="url(#paint24_linear_1176_2871)"/>
<path d="M88.1898 47.9362C87.5725 48.5061 87.8574 48.791 88.9972 48.791C89.7095 48.791 90.0419 48.5536 89.8995 48.1736C89.6145 47.5563 88.7122 47.4138 88.1898 47.9362Z" fill="#E6EEF1" fill-opacity="0.45"/>
<path d="M64.9643 49.4576C65.2017 50.5498 65.2492 50.5498 65.8191 49.7425C66.6739 48.5553 66.6739 48.2703 65.6291 48.2703C64.9643 48.2703 64.8218 48.5553 64.9643 49.4576Z" fill="url(#paint25_linear_1176_2871)"/>
<path d="M64.9643 49.4576C65.2017 50.5498 65.2492 50.5498 65.8191 49.7425C66.6739 48.5553 66.6739 48.2703 65.6291 48.2703C64.9643 48.2703 64.8218 48.5553 64.9643 49.4576Z" fill="#E6EEF1" fill-opacity="0.45"/>
<path d="M74.0859 49.2678C74.0859 50.1226 74.3234 50.4551 74.9882 50.4551C75.6531 50.4551 75.7956 50.1701 75.6056 49.2678C75.5106 48.603 75.0832 48.0806 74.7508 48.0806C74.3709 48.0806 74.0859 48.5555 74.0859 49.2678Z" fill="url(#paint26_linear_1176_2871)"/>
<path d="M74.0859 49.2678C74.0859 50.1226 74.3234 50.4551 74.9882 50.4551C75.6531 50.4551 75.7956 50.1701 75.6056 49.2678C75.5106 48.603 75.0832 48.0806 74.7508 48.0806C74.3709 48.0806 74.0859 48.5555 74.0859 49.2678Z" fill="#E6EEF1" fill-opacity="0.45"/>
<path d="M77.8828 49.2191C77.8828 50.074 78.1203 50.3589 78.7851 50.3114C79.45 50.2639 79.5925 50.0265 79.3075 49.3141C78.7851 47.8894 77.8828 47.7944 77.8828 49.2191Z" fill="url(#paint27_linear_1176_2871)"/>
<path d="M77.8828 49.2191C77.8828 50.074 78.1203 50.3589 78.7851 50.3114C79.45 50.2639 79.5925 50.0265 79.3075 49.3141C78.7851 47.8894 77.8828 47.7944 77.8828 49.2191Z" fill="#E6EEF1" fill-opacity="0.45"/>
<path d="M83.582 48.5075C83.582 48.745 83.677 49.2674 83.867 49.6473C84.1994 50.5021 86.289 50.1697 86.6689 49.1724C87.0488 48.1276 86.5739 47.8427 85.7666 48.5075C85.2917 48.8874 85.0067 48.9349 84.7693 48.555C84.3894 47.9851 83.582 47.9376 83.582 48.5075Z" fill="url(#paint28_linear_1176_2871)"/>
<path d="M83.582 48.5075C83.582 48.745 83.677 49.2674 83.867 49.6473C84.1994 50.5021 86.289 50.1697 86.6689 49.1724C87.0488 48.1276 86.5739 47.8427 85.7666 48.5075C85.2917 48.8874 85.0067 48.9349 84.7693 48.555C84.3894 47.9851 83.582 47.9376 83.582 48.5075Z" fill="#E6EEF1" fill-opacity="0.45"/>
<path d="M91.6555 48.508C91.6555 48.7454 91.5131 49.2678 91.3706 49.6952C91.1806 50.2176 91.3706 50.4551 92.0355 50.4551C92.7478 50.4551 92.8903 50.2176 92.7003 49.2678C92.5104 48.1756 91.6555 47.5582 91.6555 48.508Z" fill="url(#paint29_linear_1176_2871)"/>
<path d="M91.6555 48.508C91.6555 48.7454 91.5131 49.2678 91.3706 49.6952C91.1806 50.2176 91.3706 50.4551 92.0355 50.4551C92.7478 50.4551 92.8903 50.2176 92.7003 49.2678C92.5104 48.1756 91.6555 47.5582 91.6555 48.508Z" fill="#E6EEF1" fill-opacity="0.45"/>
<path d="M94.0312 49.4093C94.0312 50.3116 94.1737 50.5016 94.5536 50.1217C94.8386 49.8367 95.4085 49.6942 95.7409 49.8367C96.1208 49.9792 96.4058 49.7892 96.4058 49.3618C96.4058 48.9819 95.8834 48.5545 95.2185 48.4595C94.2212 48.2221 94.0312 48.3645 94.0312 49.4093Z" fill="url(#paint30_linear_1176_2871)"/>
<path d="M94.0312 49.4093C94.0312 50.3116 94.1737 50.5016 94.5536 50.1217C94.8386 49.8367 95.4085 49.6942 95.7409 49.8367C96.1208 49.9792 96.4058 49.7892 96.4058 49.3618C96.4058 48.9819 95.8834 48.5545 95.2185 48.4595C94.2212 48.2221 94.0312 48.3645 94.0312 49.4093Z" fill="#E6EEF1" fill-opacity="0.45"/>
<path d="M98.6843 48.4121C97.9244 48.6021 97.1171 49.9318 97.5445 50.3117C97.8769 50.6916 99.729 49.3144 99.729 48.6971C99.729 48.3646 99.6815 48.1272 99.6341 48.1272C99.5391 48.1747 99.1592 48.2697 98.6843 48.4121Z" fill="url(#paint31_linear_1176_2871)"/>
<path d="M98.6843 48.4121C97.9244 48.6021 97.1171 49.9318 97.5445 50.3117C97.8769 50.6916 99.729 49.3144 99.729 48.6971C99.729 48.3646 99.6815 48.1272 99.6341 48.1272C99.5391 48.1747 99.1592 48.2697 98.6843 48.4121Z" fill="#E6EEF1" fill-opacity="0.45"/>
<path d="M101.77 48.8871C100.345 49.8369 100.393 50.3593 101.865 50.2643C102.767 50.2169 103.052 49.9319 103.052 49.1246C103.052 47.8898 103.1 47.9373 101.77 48.8871Z" fill="url(#paint32_linear_1176_2871)"/>
<path d="M101.77 48.8871C100.345 49.8369 100.393 50.3593 101.865 50.2643C102.767 50.2169 103.052 49.9319 103.052 49.1246C103.052 47.8898 103.1 47.9373 101.77 48.8871Z" fill="#E6EEF1" fill-opacity="0.45"/>
<defs>
<linearGradient id="paint0_linear_1176_2871" x1="16.3511" y1="5.37753" x2="32.2924" y2="5.37753" gradientUnits="userSpaceOnUse">
<stop stop-color="#3793AE"/>
<stop offset="1" stop-color="#074287"/>
</linearGradient>
<linearGradient id="paint1_linear_1176_2871" x1="0.123671" y1="26.2749" x2="17.6025" y2="26.2749" gradientUnits="userSpaceOnUse">
<stop stop-color="#3793AE"/>
<stop offset="1" stop-color="#074287"/>
</linearGradient>
<linearGradient id="paint2_linear_1176_2871" x1="59.1725" y1="22.5773" x2="65.8834" y2="22.5773" gradientUnits="userSpaceOnUse">
<stop stop-color="#3793AE"/>
<stop offset="1" stop-color="#074287"/>
</linearGradient>
<linearGradient id="paint3_linear_1176_2871" x1="9.27909" y1="35.262" x2="39.8901" y2="35.262" gradientUnits="userSpaceOnUse">
<stop stop-color="#3793AE"/>
<stop offset="1" stop-color="#074287"/>
</linearGradient>
<linearGradient id="paint4_linear_1176_2871" x1="66.4757" y1="25.991" x2="74.0856" y2="25.991" gradientUnits="userSpaceOnUse">
<stop stop-color="#3793AE"/>
<stop offset="1" stop-color="#074287"/>
</linearGradient>
<linearGradient id="paint5_linear_1176_2871" x1="75.5407" y1="24.0678" x2="81.2931" y2="24.0678" gradientUnits="userSpaceOnUse">
<stop stop-color="#3793AE"/>
<stop offset="1" stop-color="#074287"/>
</linearGradient>
<linearGradient id="paint6_linear_1176_2871" x1="83.1172" y1="24.2435" x2="86.4332" y2="24.2435" gradientUnits="userSpaceOnUse">
<stop stop-color="#3793AE"/>
<stop offset="1" stop-color="#074287"/>
</linearGradient>
<linearGradient id="paint7_linear_1176_2871" x1="88.3555" y1="24.2435" x2="91.6717" y2="24.2435" gradientUnits="userSpaceOnUse">
<stop stop-color="#3793AE"/>
<stop offset="1" stop-color="#074287"/>
</linearGradient>
<linearGradient id="paint8_linear_1176_2871" x1="93.1321" y1="25.0473" x2="100.206" y2="25.0473" gradientUnits="userSpaceOnUse">
<stop stop-color="#3793AE"/>
<stop offset="1" stop-color="#074287"/>
</linearGradient>
<linearGradient id="paint9_linear_1176_2871" x1="21.676" y1="44.5412" x2="48.2004" y2="44.5412" gradientUnits="userSpaceOnUse">
<stop stop-color="#3793AE"/>
<stop offset="1" stop-color="#074287"/>
</linearGradient>
<linearGradient id="paint10_linear_1176_2871" x1="58.7058" y1="37.3709" x2="67.9108" y2="37.3709" gradientUnits="userSpaceOnUse">
<stop stop-color="#3793AE"/>
<stop offset="1" stop-color="#074287"/>
</linearGradient>
<linearGradient id="paint11_linear_1176_2871" x1="70.3823" y1="38.7295" x2="75.2742" y2="38.7295" gradientUnits="userSpaceOnUse">
<stop stop-color="#3793AE"/>
<stop offset="1" stop-color="#074287"/>
</linearGradient>
<linearGradient id="paint12_linear_1176_2871" x1="96.5527" y1="38.9058" x2="104.004" y2="38.9058" gradientUnits="userSpaceOnUse">
<stop stop-color="#3793AE"/>
<stop offset="1" stop-color="#074287"/>
</linearGradient>
<linearGradient id="paint13_linear_1176_2871" x1="104.61" y1="38.8105" x2="110.222" y2="38.8105" gradientUnits="userSpaceOnUse">
<stop stop-color="#3793AE"/>
<stop offset="1" stop-color="#074287"/>
</linearGradient>
<linearGradient id="paint14_linear_1176_2871" x1="77.467" y1="38.9656" x2="85.5079" y2="38.9656" gradientUnits="userSpaceOnUse">
<stop stop-color="#3793AE"/>
<stop offset="1" stop-color="#074287"/>
</linearGradient>
<linearGradient id="paint15_linear_1176_2871" x1="87.6709" y1="38.9624" x2="95.2683" y2="38.9624" gradientUnits="userSpaceOnUse">
<stop stop-color="#3793AE"/>
<stop offset="1" stop-color="#074287"/>
</linearGradient>
<linearGradient id="paint16_linear_1176_2871" x1="115.66" y1="38.9852" x2="119" y2="38.9852" gradientUnits="userSpaceOnUse">
<stop stop-color="#3793AE"/>
<stop offset="1" stop-color="#074287"/>
</linearGradient>
<linearGradient id="paint17_linear_1176_2871" x1="112.617" y1="40.1592" x2="115.345" y2="40.1592" gradientUnits="userSpaceOnUse">
<stop stop-color="#3793AE"/>
<stop offset="1" stop-color="#074287"/>
</linearGradient>
<linearGradient id="paint18_linear_1176_2871" x1="69.5055" y1="40.5009" x2="72.4897" y2="40.5009" gradientUnits="userSpaceOnUse">
<stop stop-color="#3793AE"/>
<stop offset="1" stop-color="#074287"/>
</linearGradient>
<linearGradient id="paint19_linear_1176_2871" x1="59.3686" y1="48.9831" x2="60.127" y2="48.9831" gradientUnits="userSpaceOnUse">
<stop stop-color="#3793AE"/>
<stop offset="1" stop-color="#074287"/>
</linearGradient>
<linearGradient id="paint20_linear_1176_2871" x1="61.7516" y1="49.0153" x2="63.6379" y2="49.0153" gradientUnits="userSpaceOnUse">
<stop stop-color="#3793AE"/>
<stop offset="1" stop-color="#074287"/>
</linearGradient>
<linearGradient id="paint21_linear_1176_2871" x1="67.4638" y1="48.9501" x2="69.5307" y2="48.9501" gradientUnits="userSpaceOnUse">
<stop stop-color="#3793AE"/>
<stop offset="1" stop-color="#074287"/>
</linearGradient>
<linearGradient id="paint22_linear_1176_2871" x1="71.0194" y1="48.1858" x2="72.659" y2="48.1858" gradientUnits="userSpaceOnUse">
<stop stop-color="#3793AE"/>
<stop offset="1" stop-color="#074287"/>
</linearGradient>
<linearGradient id="paint23_linear_1176_2871" x1="80.5801" y1="49.2427" x2="83.0647" y2="49.2427" gradientUnits="userSpaceOnUse">
<stop stop-color="#3793AE"/>
<stop offset="1" stop-color="#074287"/>
</linearGradient>
<linearGradient id="paint24_linear_1176_2871" x1="87.8856" y1="48.2034" x2="89.9319" y2="48.2034" gradientUnits="userSpaceOnUse">
<stop stop-color="#3793AE"/>
<stop offset="1" stop-color="#074287"/>
</linearGradient>
<linearGradient id="paint25_linear_1176_2871" x1="64.9248" y1="49.2934" x2="66.4382" y2="49.2934" gradientUnits="userSpaceOnUse">
<stop stop-color="#3793AE"/>
<stop offset="1" stop-color="#074287"/>
</linearGradient>
<linearGradient id="paint26_linear_1176_2871" x1="74.0972" y1="49.2678" x2="75.6831" y2="49.2678" gradientUnits="userSpaceOnUse">
<stop stop-color="#3793AE"/>
<stop offset="1" stop-color="#074287"/>
</linearGradient>
<linearGradient id="paint27_linear_1176_2871" x1="77.8938" y1="49.2567" x2="79.4466" y2="49.2567" gradientUnits="userSpaceOnUse">
<stop stop-color="#3793AE"/>
<stop offset="1" stop-color="#074287"/>
</linearGradient>
<linearGradient id="paint28_linear_1176_2871" x1="83.6047" y1="49.1199" x2="86.8019" y2="49.1199" gradientUnits="userSpaceOnUse">
<stop stop-color="#3793AE"/>
<stop offset="1" stop-color="#074287"/>
</linearGradient>
<linearGradient id="paint29_linear_1176_2871" x1="91.3112" y1="49.2474" x2="92.7769" y2="49.2474" gradientUnits="userSpaceOnUse">
<stop stop-color="#3793AE"/>
<stop offset="1" stop-color="#074287"/>
</linearGradient>
<linearGradient id="paint30_linear_1176_2871" x1="94.0479" y1="49.3336" x2="96.4058" y2="49.3336" gradientUnits="userSpaceOnUse">
<stop stop-color="#3793AE"/>
<stop offset="1" stop-color="#074287"/>
</linearGradient>
<linearGradient id="paint31_linear_1176_2871" x1="97.442" y1="49.2521" x2="99.729" y2="49.2521" gradientUnits="userSpaceOnUse">
<stop stop-color="#3793AE"/>
<stop offset="1" stop-color="#074287"/>
</linearGradient>
<linearGradient id="paint32_linear_1176_2871" x1="100.747" y1="49.2302" x2="103.052" y2="49.2302" gradientUnits="userSpaceOnUse">
<stop stop-color="#3793AE"/>
<stop offset="1" stop-color="#074287"/>
</linearGradient>
</defs>
</svg>
