<svg width="111" height="20" viewBox="0 0 111 20" fill="none" xmlns="http://www.w3.org/2000/svg">
<path d="M67.2746 1.62965C66.8624 2.16313 66.5957 2.59961 66.7169 2.59961C66.9594 2.59961 71.7122 0.902185 71.8577 0.756692C71.9062 0.708194 71.0817 0.659696 70.0148 0.659696H68.0506L67.2746 1.62965Z" fill="url(#paint0_linear_1176_2853)"/>
<path d="M67.2746 1.62965C66.8624 2.16313 66.5957 2.59961 66.7169 2.59961C66.9594 2.59961 71.7122 0.902185 71.8577 0.756692C71.9062 0.708194 71.0817 0.659696 70.0148 0.659696H68.0506L67.2746 1.62965Z" fill="#E6EEF1" fill-opacity="0.45"/>
<path d="M25.5665 1.07102C23.2144 1.43475 20.1348 3.13218 18.8011 4.7811C13.3936 11.498 18.9951 20.5429 28.2339 19.9852C34.0294 19.6457 38.1517 15.7416 38.2002 10.5281C38.2245 8.12745 37.5455 6.38153 35.8723 4.56286C33.3505 1.84698 29.3009 0.464794 25.5665 1.07102ZM31.265 4.02938C38.564 7.61822 35.9693 17.8998 27.749 17.9725C25.0573 17.9968 23.6024 17.4148 21.7837 15.5961C20.159 13.9472 19.5043 12.5408 19.5043 10.5766C19.5043 7.32724 22.099 4.17488 25.4938 3.32617C27.2155 2.91393 29.5434 3.18067 31.265 4.02938Z" fill="url(#paint1_linear_1176_2853)"/>
<path d="M25.5665 1.07102C23.2144 1.43475 20.1348 3.13218 18.8011 4.7811C13.3936 11.498 18.9951 20.5429 28.2339 19.9852C34.0294 19.6457 38.1517 15.7416 38.2002 10.5281C38.2245 8.12745 37.5455 6.38153 35.8723 4.56286C33.3505 1.84698 29.3009 0.464794 25.5665 1.07102ZM31.265 4.02938C38.564 7.61822 35.9693 17.8998 27.749 17.9725C25.0573 17.9968 23.6024 17.4148 21.7837 15.5961C20.159 13.9472 19.5043 12.5408 19.5043 10.5766C19.5043 7.32724 22.099 4.17488 25.4938 3.32617C27.2155 2.91393 29.5434 3.18067 31.265 4.02938Z" fill="#E6EEF1" fill-opacity="0.45"/>
<path d="M0.347656 10.9648V18.8457H7.62233H14.897V17.6333V16.4208H8.95602H3.01504V9.75236V3.08391H1.68135H0.347656V10.9648Z" fill="url(#paint2_linear_1176_2853)"/>
<path d="M0.347656 10.9648V18.8457H7.62233H14.897V17.6333V16.4208H8.95602H3.01504V9.75236V3.08391H1.68135H0.347656V10.9648Z" fill="#E6EEF1" fill-opacity="0.45"/>
<path d="M41.0859 10.9406V18.8457H42.2984H43.5108V15.6933V12.541H46.7602H50.0338L52.5314 15.6933L55.0291 18.8457H56.4355C57.1872 18.8457 57.8177 18.773 57.8177 18.6517C57.7934 18.5547 56.7265 17.124 55.3928 15.4509C53.0649 12.5167 52.9922 12.4197 53.5741 12.25C55.2231 11.8135 56.6295 10.4313 56.969 8.95215C57.4297 6.84249 56.4113 4.85408 54.3258 3.73863C53.3801 3.2294 52.9679 3.20515 47.2209 3.13241L41.0859 3.03541V10.9406ZM53.7196 6.21202C54.6411 7.15773 54.7138 8.63691 53.8409 9.50987C53.0892 10.2616 51.9737 10.4071 47.3907 10.3101L43.6321 10.2373L43.5593 8.20043C43.5108 7.08498 43.5351 6.01803 43.6078 5.82403C43.7048 5.58155 44.7233 5.5088 48.3606 5.5088H53.0164L53.7196 6.21202Z" fill="url(#paint3_linear_1176_2853)"/>
<path d="M41.0859 10.9406V18.8457H42.2984H43.5108V15.6933V12.541H46.7602H50.0338L52.5314 15.6933L55.0291 18.8457H56.4355C57.1872 18.8457 57.8177 18.773 57.8177 18.6517C57.7934 18.5547 56.7265 17.124 55.3928 15.4509C53.0649 12.5167 52.9922 12.4197 53.5741 12.25C55.2231 11.8135 56.6295 10.4313 56.969 8.95215C57.4297 6.84249 56.4113 4.85408 54.3258 3.73863C53.3801 3.2294 52.9679 3.20515 47.2209 3.13241L41.0859 3.03541V10.9406ZM53.7196 6.21202C54.6411 7.15773 54.7138 8.63691 53.8409 9.50987C53.0892 10.2616 51.9737 10.4071 47.3907 10.3101L43.6321 10.2373L43.5593 8.20043C43.5108 7.08498 43.5351 6.01803 43.6078 5.82403C43.7048 5.58155 44.7233 5.5088 48.3606 5.5088H53.0164L53.7196 6.21202Z" fill="#E6EEF1" fill-opacity="0.45"/>
<path d="M60.2383 10.9648V18.8457H67.4887H74.7391L74.8119 18.1667C74.8604 17.803 74.8846 17.2695 74.8361 16.9543L74.7634 16.4208H68.8224H62.9057V14.2384V12.056H67.3917H71.8778V10.9648V9.8736H67.3917H62.9057V7.6912V5.5088H68.8466H74.7876V4.29635V3.08391H67.513H60.2383V10.9648Z" fill="url(#paint4_linear_1176_2853)"/>
<path d="M60.2383 10.9648V18.8457H67.4887H74.7391L74.8119 18.1667C74.8604 17.803 74.8846 17.2695 74.8361 16.9543L74.7634 16.4208H68.8224H62.9057V14.2384V12.056H67.3917H71.8778V10.9648V9.8736H67.3917H62.9057V7.6912V5.5088H68.8466H74.7876V4.29635V3.08391H67.513H60.2383V10.9648Z" fill="#E6EEF1" fill-opacity="0.45"/>
<path d="M83.1348 3.85987C82.9166 4.29635 81.2191 7.49721 79.4005 10.9648C77.5818 14.4324 75.8844 17.6333 75.6661 18.0455L75.2539 18.8457H76.5876H77.9213L78.964 16.93C79.5945 15.7418 80.2007 14.9416 80.4917 14.8689C80.7584 14.7961 82.9166 14.7234 85.2687 14.7234H89.5365L90.6035 16.7118L91.6704 18.7245L92.9314 18.7972C93.6346 18.8457 94.1923 18.773 94.1923 18.6275C94.1923 18.5062 92.3979 14.9901 90.2155 10.7951L86.2144 3.20515L84.8807 3.13241C83.5955 3.05966 83.5228 3.08391 83.1348 3.85987ZM86.7721 9.41287C87.6451 11.0861 88.3726 12.541 88.3726 12.6137C88.3726 12.7107 86.7236 12.7835 84.711 12.7835H81.0494L81.5344 11.9833C81.8011 11.571 82.4073 10.3828 82.9166 9.38863C84.2988 6.697 84.7837 5.94528 84.9777 6.16352C85.099 6.26052 85.8992 7.7397 86.7721 9.41287Z" fill="url(#paint5_linear_1176_2853)"/>
<path d="M83.1348 3.85987C82.9166 4.29635 81.2191 7.49721 79.4005 10.9648C77.5818 14.4324 75.8844 17.6333 75.6661 18.0455L75.2539 18.8457H76.5876H77.9213L78.964 16.93C79.5945 15.7418 80.2007 14.9416 80.4917 14.8689C80.7584 14.7961 82.9166 14.7234 85.2687 14.7234H89.5365L90.6035 16.7118L91.6704 18.7245L92.9314 18.7972C93.6346 18.8457 94.1923 18.773 94.1923 18.6275C94.1923 18.5062 92.3979 14.9901 90.2155 10.7951L86.2144 3.20515L84.8807 3.13241C83.5955 3.05966 83.5228 3.08391 83.1348 3.85987ZM86.7721 9.41287C87.6451 11.0861 88.3726 12.541 88.3726 12.6137C88.3726 12.7107 86.7236 12.7835 84.711 12.7835H81.0494L81.5344 11.9833C81.8011 11.571 82.4073 10.3828 82.9166 9.38863C84.2988 6.697 84.7837 5.94528 84.9777 6.16352C85.099 6.26052 85.8992 7.7397 86.7721 9.41287Z" fill="#E6EEF1" fill-opacity="0.45"/>
<path d="M95.6445 10.9648V18.8457H102.919H110.194V17.6333V16.4208H104.253H98.3119V9.75236V3.08391H96.9782H95.6445V10.9648Z" fill="url(#paint6_linear_1176_2853)"/>
<path d="M95.6445 10.9648V18.8457H102.919H110.194V17.6333V16.4208H104.253H98.3119V9.75236V3.08391H96.9782H95.6445V10.9648Z" fill="#E6EEF1" fill-opacity="0.45"/>
<path d="M107.019 3.44699C106.243 3.85922 105.71 5.04742 105.928 5.87188C106.34 7.49656 108.692 8.05428 109.832 6.81759C110.851 5.72639 110.56 4.15021 109.226 3.44699C108.353 3.01051 107.844 3.01051 107.019 3.44699ZM109.468 4.15021C109.759 4.48969 110.026 5.04742 110.026 5.3869C110.026 6.23561 109.056 7.20557 108.256 7.20557C107.213 7.20557 106.316 6.35686 106.316 5.3869C106.316 3.78647 108.353 2.98626 109.468 4.15021Z" fill="url(#paint7_linear_1176_2853)"/>
<path d="M107.019 3.44699C106.243 3.85922 105.71 5.04742 105.928 5.87188C106.34 7.49656 108.692 8.05428 109.832 6.81759C110.851 5.72639 110.56 4.15021 109.226 3.44699C108.353 3.01051 107.844 3.01051 107.019 3.44699ZM109.468 4.15021C109.759 4.48969 110.026 5.04742 110.026 5.3869C110.026 6.23561 109.056 7.20557 108.256 7.20557C107.213 7.20557 106.316 6.35686 106.316 5.3869C106.316 3.78647 108.353 2.98626 109.468 4.15021Z" fill="#E6EEF1" fill-opacity="0.45"/>
<path d="M107.043 5.38701C107.043 6.11448 107.164 6.7207 107.285 6.7207C107.431 6.7207 107.528 6.50246 107.528 6.25997C107.528 5.99324 107.625 5.7265 107.746 5.65375C108.134 5.41126 108.74 5.775 108.74 6.25997C108.74 6.50246 108.837 6.7207 108.983 6.7207C109.153 6.7207 109.177 5.24152 109.007 4.22306C109.007 4.12607 108.546 4.05332 108.013 4.05332H107.043V5.38701ZM108.692 4.82929C108.522 5.31427 107.528 5.38701 107.528 4.92628C107.528 4.65955 107.746 4.5383 108.158 4.5383C108.546 4.5383 108.74 4.65955 108.692 4.82929Z" fill="url(#paint8_linear_1176_2853)"/>
<path d="M107.043 5.38701C107.043 6.11448 107.164 6.7207 107.285 6.7207C107.431 6.7207 107.528 6.50246 107.528 6.25997C107.528 5.99324 107.625 5.7265 107.746 5.65375C108.134 5.41126 108.74 5.775 108.74 6.25997C108.74 6.50246 108.837 6.7207 108.983 6.7207C109.153 6.7207 109.177 5.24152 109.007 4.22306C109.007 4.12607 108.546 4.05332 108.013 4.05332H107.043V5.38701ZM108.692 4.82929C108.522 5.31427 107.528 5.38701 107.528 4.92628C107.528 4.65955 107.746 4.5383 108.158 4.5383C108.546 4.5383 108.74 4.65955 108.692 4.82929Z" fill="#E6EEF1" fill-opacity="0.45"/>
<path d="M12.0098 5.97072C11.4764 7.30441 11.0156 8.51686 11.0156 8.66235C11.0156 8.8321 11.4036 8.90484 12.0098 8.85634L13.004 8.7836L14.4105 6.16471L15.8169 3.57008H14.4105H13.004L12.0098 5.97072Z" fill="url(#paint9_linear_1176_2853)"/>
<path d="M12.0098 5.97072C11.4764 7.30441 11.0156 8.51686 11.0156 8.66235C11.0156 8.8321 11.4036 8.90484 12.0098 8.85634L13.004 8.7836L14.4105 6.16471L15.8169 3.57008H14.4105H13.004L12.0098 5.97072Z" fill="#E6EEF1" fill-opacity="0.45"/>
<defs>
<linearGradient id="paint0_linear_1176_2853" x1="66.7238" y1="1.62965" x2="71.8597" y2="1.62965" gradientUnits="userSpaceOnUse">
<stop stop-color="#3793AE"/>
<stop offset="1" stop-color="#074287"/>
</linearGradient>
<linearGradient id="paint1_linear_1176_2853" x1="16.8348" y1="10.4699" x2="38.2009" y2="10.4699" gradientUnits="userSpaceOnUse">
<stop stop-color="#3793AE"/>
<stop offset="1" stop-color="#074287"/>
</linearGradient>
<linearGradient id="paint2_linear_1176_2853" x1="0.449876" y1="10.9648" x2="14.897" y2="10.9648" gradientUnits="userSpaceOnUse">
<stop stop-color="#3793AE"/>
<stop offset="1" stop-color="#074287"/>
</linearGradient>
<linearGradient id="paint3_linear_1176_2853" x1="41.2035" y1="10.9406" x2="57.8177" y2="10.9406" gradientUnits="userSpaceOnUse">
<stop stop-color="#3793AE"/>
<stop offset="1" stop-color="#074287"/>
</linearGradient>
<linearGradient id="paint4_linear_1176_2853" x1="60.341" y1="10.9648" x2="74.8626" y2="10.9648" gradientUnits="userSpaceOnUse">
<stop stop-color="#3793AE"/>
<stop offset="1" stop-color="#074287"/>
</linearGradient>
<linearGradient id="paint5_linear_1176_2853" x1="75.387" y1="10.9756" x2="94.1923" y2="10.9756" gradientUnits="userSpaceOnUse">
<stop stop-color="#3793AE"/>
<stop offset="1" stop-color="#074287"/>
</linearGradient>
<linearGradient id="paint6_linear_1176_2853" x1="95.7468" y1="10.9648" x2="110.194" y2="10.9648" gradientUnits="userSpaceOnUse">
<stop stop-color="#3793AE"/>
<stop offset="1" stop-color="#074287"/>
</linearGradient>
<linearGradient id="paint7_linear_1176_2853" x1="105.911" y1="5.30493" x2="110.443" y2="5.30493" gradientUnits="userSpaceOnUse">
<stop stop-color="#3793AE"/>
<stop offset="1" stop-color="#074287"/>
</linearGradient>
<linearGradient id="paint8_linear_1176_2853" x1="107.058" y1="5.38701" x2="109.123" y2="5.38701" gradientUnits="userSpaceOnUse">
<stop stop-color="#3793AE"/>
<stop offset="1" stop-color="#074287"/>
</linearGradient>
<linearGradient id="paint9_linear_1176_2853" x1="11.0494" y1="6.22059" x2="15.8169" y2="6.22059" gradientUnits="userSpaceOnUse">
<stop stop-color="#3793AE"/>
<stop offset="1" stop-color="#074287"/>
</linearGradient>
</defs>
</svg>
