<svg width="146" height="17" viewBox="0 0 146 17" fill="none" xmlns="http://www.w3.org/2000/svg">
<path fill-rule="evenodd" clip-rule="evenodd" d="M4.93898 1.14757C5.3059 1.26949 5.74508 1.2543 5.91404 1.11424C6.083 0.974178 5.78274 0.874618 5.24636 0.892759C4.65349 0.913009 4.53288 1.01299 4.93898 1.14757ZM7.44685 1.15685C8.07433 1.25684 8.93285 1.7479 9.35524 2.24782C9.77762 2.74774 10.1232 2.95403 10.1232 2.70597C10.1232 1.97697 8.34252 0.85479 7.284 0.916805C6.49063 0.963633 6.52116 1.00877 7.44685 1.15685ZM62.1787 2.12505C62.0291 2.59839 61.4846 2.9688 60.9375 2.9688C59.0424 2.9688 56.4429 4.20109 55.4287 5.5802C52.703 9.28593 55.7478 14.7813 60.5269 14.7813C61.1894 14.7813 61.7218 15.1124 61.8836 15.625C62.0902 16.2802 62.5777 16.4688 64.0668 16.4688C65.5558 16.4688 66.0434 16.2802 66.25 15.625C66.4118 15.1124 66.9441 14.7813 67.6067 14.7813C72.3858 14.7813 75.4306 9.28593 72.7049 5.5802C71.6784 4.18422 69.0866 2.9688 67.1365 2.9688C66.4418 2.9688 66.1024 2.69205 66.1024 2.12505C66.1024 1.43782 65.7629 1.2813 64.2734 1.2813C62.8729 1.2813 62.3823 1.47874 62.1787 2.12505ZM110.556 1.74199C107.078 2.5773 104.361 6.78211 105.004 10.3351C105.708 14.2252 108.788 16.4645 113.438 16.4671C118.78 16.47 122.082 13.6599 122.082 9.10917C122.082 3.60034 116.821 0.237589 110.556 1.74199ZM140.572 2.3845C139.79 3.37253 139.778 3.60414 140.448 4.59934C140.977 5.3836 141.69 5.75063 142.869 5.84513C145.011 6.01726 146 5.31863 146 3.63452C146 1.92719 145.207 1.2813 143.111 1.2813C141.874 1.2813 141.218 1.56649 140.572 2.3845ZM1.98074 2.54692C1.68099 3.01098 1.55071 3.39067 1.69066 3.39067C1.83061 3.39067 2.1899 3.01098 2.48964 2.54692C2.78938 2.08286 2.91966 1.70318 2.77971 1.70318C2.63977 1.70318 2.28048 2.08286 1.98074 2.54692ZM21.434 8.94379L21.5735 16.2578L25.7683 16.3802C32.9892 16.5911 36.0772 15.3242 36.0772 12.1513C36.0772 10.9679 35.722 10.2297 34.7744 9.44413C33.5235 8.40717 33.5072 8.33208 34.3673 7.54402C35.641 6.37754 35.5215 4.00829 34.1306 2.85405C33.1154 2.01114 32.3937 1.89935 27.1464 1.77194L21.2946 1.63019L21.434 8.94379ZM37.7189 8.9805L37.8583 16.2578L39.9 16.3827L41.9423 16.5076L45.2435 11.4324C47.0598 8.64089 48.729 6.35391 48.9539 6.35054C49.1783 6.34674 49.3213 8.57423 49.271 11.3008L49.1799 16.2578L51.0252 16.3886L52.8709 16.5198V9.11128V1.70318H50.6572H48.444L45.0679 6.87113C43.2115 9.71329 41.6756 11.8492 41.6547 11.6172C41.6344 11.3852 41.6425 9.05981 41.6731 6.44925L41.729 1.70318H39.6542H37.58L37.7189 8.9805ZM75.2626 9.08597V16.4688H81.8783H88.4941L88.4946 15.0977L88.4956 13.7266H83.7872H79.0794L78.9231 11.9336L78.7664 10.1406H83.1216H87.4763V8.8919V7.64358L83.2778 7.52081L79.0794 7.39847V5.92191V4.44535L83.7867 4.32385L88.4941 4.20278V2.95277V1.70318H81.8783H75.2626V9.08597ZM90.5297 9.04757V16.4688H92.3108H94.092V13.7266V10.9844H97.1943C102.052 10.9844 104.27 9.45975 104.27 6.11977C104.27 5.11403 103.815 4.2475 102.786 3.29195C101.311 1.92297 101.268 1.91327 95.9159 1.77025L90.5297 1.6264V9.04757ZM123.723 8.9805L123.863 16.2578H125.644H127.425L127.575 13.1992L127.724 10.1406H131.242H134.759L134.909 13.1992L135.059 16.2578H136.713C137.622 16.2578 138.366 16.1152 138.366 15.9414C138.366 15.7676 138.366 12.4926 138.366 8.66409V1.70318H136.585H134.804V4.44535V7.18753H131.242H127.68V4.44535V1.70318H125.632H123.584L123.723 8.9805ZM144.88 2.20942C146.308 3.39278 145.233 5.50004 143.201 5.50004C141.837 5.50004 140.911 4.73223 140.911 3.60161C140.911 2.47099 141.837 1.70318 143.201 1.70318C143.789 1.70318 144.545 1.93099 144.88 2.20942ZM141.988 3.67755C142.02 4.5639 142.152 4.95709 142.279 4.55082C142.565 3.64422 142.918 3.61933 143.654 4.45295C144.11 4.97059 144.219 4.82884 144.219 3.71467C144.219 2.60599 143.994 2.30941 143.074 2.20099C142.05 2.08075 141.935 2.23643 141.988 3.67755ZM143.964 2.9688C143.964 3.20083 143.621 3.39067 143.201 3.39067C142.781 3.39067 142.438 3.20083 142.438 2.9688C142.438 2.73677 142.781 2.54692 143.201 2.54692C143.621 2.54692 143.964 2.73677 143.964 2.9688ZM6.46569 3.67881C6.83261 3.80073 7.27179 3.78554 7.44075 3.64548C7.6097 3.50542 7.30945 3.40586 6.77307 3.424C6.1802 3.44425 6.05959 3.54423 6.46569 3.67881ZM9.33539 5.07226C9.32114 6.0354 9.48043 6.52899 9.70943 6.23072C10.2194 5.56543 10.2438 3.39025 9.74149 3.39194C9.53131 3.39278 9.34862 4.14878 9.33539 5.07226ZM3.84077 4.12895C3.711 4.30276 4.13339 4.44535 4.7797 4.44535C5.426 4.44535 5.84839 4.30276 5.71862 4.12895C5.58936 3.95514 5.16646 3.81254 4.7797 3.81254C4.39293 3.81254 3.97003 3.95514 3.84077 4.12895ZM116.948 5.27181C118.797 6.80363 119.023 10.2685 117.403 12.25C116.352 13.535 115.888 13.743 113.822 13.8544C111.989 13.9527 111.217 13.7899 110.43 13.1381C109.341 12.2348 108.191 9.33614 108.548 8.39283C108.667 8.07811 108.905 7.29258 109.076 6.64711C109.492 5.07268 112.162 3.70117 114.194 4.01715C115.033 4.14793 116.273 4.7124 116.948 5.27181ZM31.4971 5.07817C31.8838 5.67765 31.8838 6.16618 31.4971 6.76566C31.0543 7.4512 30.4314 7.60941 28.1714 7.60941H25.3902V5.92191V4.23442H28.1714C30.4314 4.23442 31.0543 4.39262 31.4971 5.07817ZM100.181 5.05032C101.582 7.21959 100.499 8.36372 96.6905 8.7375L94.092 8.99273V6.61336V4.23442H96.8731C99.1016 4.23442 99.7586 4.39642 100.181 5.05032ZM62.0312 8.87503C62.0312 13.1073 61.5508 13.5777 59.2093 11.6362C57.4734 10.1972 57.4734 7.55288 59.2093 6.11387C61.5508 4.1724 62.0312 4.64279 62.0312 8.87503ZM68.9242 6.11387C70.6601 7.55288 70.6601 10.1972 68.9242 11.6362C66.5828 13.5777 66.1024 13.1073 66.1024 8.87503C66.1024 4.64279 66.5828 4.1724 68.9242 6.11387ZM12.0483 6.22566C11.8254 6.93314 12.0071 7.17024 12.8499 7.2698C15.3526 7.56553 14.0351 11.8092 10.7817 13.9308C10.0641 14.3986 9.67941 14.7754 9.92724 14.7678C11.5115 14.7205 14.7033 10.8739 14.7033 9.01214C14.7033 8.17683 14.344 7.44572 13.7659 7.10611C13.2504 6.80278 12.7181 6.27502 12.5827 5.93288C12.4071 5.4878 12.255 5.57091 12.0483 6.22566ZM8.32827 7.62797C8.16288 7.84987 8.49926 8.03128 9.07534 8.03128C10.3043 8.03128 10.428 7.79672 9.3761 7.46217C8.96542 7.33139 8.49366 7.40606 8.32827 7.62797ZM10.6321 8.19075C10.6321 8.27808 11.0331 8.61051 11.5226 8.92903C12.3298 9.45342 12.3476 9.43865 11.715 8.76956C11.0499 8.06672 10.6321 7.84355 10.6321 8.19075ZM5.98681 9.19143C5.35425 9.86052 5.37206 9.87529 6.17918 9.3509C6.66874 9.03239 7.06976 8.69995 7.06976 8.61262C7.06976 8.26542 6.65195 8.48859 5.98681 9.19143ZM31.7154 10.3815C32.1551 10.7465 32.5149 11.3974 32.5149 11.8281C32.5149 13.252 31.0976 13.9375 28.1531 13.9375H25.3902V11.8281V9.71877H28.1531C29.9856 9.71877 31.1846 9.94195 31.7154 10.3815ZM10.6321 11.0093C10.6321 11.4868 10.8509 11.7657 11.1186 11.6286C11.3863 11.4915 11.4763 11.1004 11.3186 10.76C10.915 9.88795 10.6321 9.99046 10.6321 11.0093ZM2.32017 11.2658C1.23367 12.1661 2.66368 16.0469 4.08148 16.0469C4.36545 16.0469 4.23823 15.749 3.79904 15.3845C2.81686 14.5703 2.28608 12.9402 2.63926 11.8214C2.92119 10.9274 2.8591 10.819 2.32017 11.2658ZM0.271335 12.3386C0.0993263 12.8702 -0.0212834 13.6844 0.00314388 14.1484C0.0275712 14.6125 0.257086 14.2518 0.513064 13.3465C1.00924 11.5936 0.797031 10.7106 0.271335 12.3386ZM6.52218 12.3555C7.94151 13.6899 9.19798 13.8354 10.1634 12.7774C10.7369 12.1492 10.7308 12.118 10.1242 12.5664C9.08145 13.3372 8.06619 13.2157 6.59342 12.1445L5.2886 11.1953L6.52218 12.3555ZM15.4992 13.6392C15.6906 14.0552 15.975 14.2894 16.1318 14.1594C16.2885 14.0299 16.1323 13.6894 15.7842 13.403C15.2814 12.9896 15.2234 13.0381 15.4992 13.6392ZM5.86773 14.1484C6.02905 14.4965 6.39343 14.7813 6.67739 14.7813C6.97561 14.7813 6.92625 14.5134 6.56085 14.1484C6.21226 13.8004 5.84788 13.5156 5.75119 13.5156C5.6545 13.5156 5.70692 13.8004 5.86773 14.1484ZM16.23 15.1027C16.23 15.3567 15.8702 15.8629 15.4305 16.2279C14.9903 16.5924 14.8677 16.8906 15.1577 16.8906C15.802 16.8906 16.9374 15.2268 16.5257 14.8859C16.3628 14.7509 16.23 14.8488 16.23 15.1027ZM5.41582 16.3262C5.76595 16.4434 6.33846 16.4434 6.68808 16.3262C7.0382 16.2093 6.75169 16.1135 6.05195 16.1135C5.35221 16.1135 5.06621 16.2093 5.41582 16.3262ZM12.0636 16.7569C12.4305 16.8788 12.8697 16.8636 13.0387 16.7236C13.2076 16.5835 12.9074 16.4839 12.371 16.5021C11.7781 16.5223 11.6575 16.6223 12.0636 16.7569Z" fill="url(#paint0_linear_1176_3009)"/>
<path fill-rule="evenodd" clip-rule="evenodd" d="M4.93898 1.14757C5.3059 1.26949 5.74508 1.2543 5.91404 1.11424C6.083 0.974178 5.78274 0.874618 5.24636 0.892759C4.65349 0.913009 4.53288 1.01299 4.93898 1.14757ZM7.44685 1.15685C8.07433 1.25684 8.93285 1.7479 9.35524 2.24782C9.77762 2.74774 10.1232 2.95403 10.1232 2.70597C10.1232 1.97697 8.34252 0.85479 7.284 0.916805C6.49063 0.963633 6.52116 1.00877 7.44685 1.15685ZM62.1787 2.12505C62.0291 2.59839 61.4846 2.9688 60.9375 2.9688C59.0424 2.9688 56.4429 4.20109 55.4287 5.5802C52.703 9.28593 55.7478 14.7813 60.5269 14.7813C61.1894 14.7813 61.7218 15.1124 61.8836 15.625C62.0902 16.2802 62.5777 16.4688 64.0668 16.4688C65.5558 16.4688 66.0434 16.2802 66.25 15.625C66.4118 15.1124 66.9441 14.7813 67.6067 14.7813C72.3858 14.7813 75.4306 9.28593 72.7049 5.5802C71.6784 4.18422 69.0866 2.9688 67.1365 2.9688C66.4418 2.9688 66.1024 2.69205 66.1024 2.12505C66.1024 1.43782 65.7629 1.2813 64.2734 1.2813C62.8729 1.2813 62.3823 1.47874 62.1787 2.12505ZM110.556 1.74199C107.078 2.5773 104.361 6.78211 105.004 10.3351C105.708 14.2252 108.788 16.4645 113.438 16.4671C118.78 16.47 122.082 13.6599 122.082 9.10917C122.082 3.60034 116.821 0.237589 110.556 1.74199ZM140.572 2.3845C139.79 3.37253 139.778 3.60414 140.448 4.59934C140.977 5.3836 141.69 5.75063 142.869 5.84513C145.011 6.01726 146 5.31863 146 3.63452C146 1.92719 145.207 1.2813 143.111 1.2813C141.874 1.2813 141.218 1.56649 140.572 2.3845ZM1.98074 2.54692C1.68099 3.01098 1.55071 3.39067 1.69066 3.39067C1.83061 3.39067 2.1899 3.01098 2.48964 2.54692C2.78938 2.08286 2.91966 1.70318 2.77971 1.70318C2.63977 1.70318 2.28048 2.08286 1.98074 2.54692ZM21.434 8.94379L21.5735 16.2578L25.7683 16.3802C32.9892 16.5911 36.0772 15.3242 36.0772 12.1513C36.0772 10.9679 35.722 10.2297 34.7744 9.44413C33.5235 8.40717 33.5072 8.33208 34.3673 7.54402C35.641 6.37754 35.5215 4.00829 34.1306 2.85405C33.1154 2.01114 32.3937 1.89935 27.1464 1.77194L21.2946 1.63019L21.434 8.94379ZM37.7189 8.9805L37.8583 16.2578L39.9 16.3827L41.9423 16.5076L45.2435 11.4324C47.0598 8.64089 48.729 6.35391 48.9539 6.35054C49.1783 6.34674 49.3213 8.57423 49.271 11.3008L49.1799 16.2578L51.0252 16.3886L52.8709 16.5198V9.11128V1.70318H50.6572H48.444L45.0679 6.87113C43.2115 9.71329 41.6756 11.8492 41.6547 11.6172C41.6344 11.3852 41.6425 9.05981 41.6731 6.44925L41.729 1.70318H39.6542H37.58L37.7189 8.9805ZM75.2626 9.08597V16.4688H81.8783H88.4941L88.4946 15.0977L88.4956 13.7266H83.7872H79.0794L78.9231 11.9336L78.7664 10.1406H83.1216H87.4763V8.8919V7.64358L83.2778 7.52081L79.0794 7.39847V5.92191V4.44535L83.7867 4.32385L88.4941 4.20278V2.95277V1.70318H81.8783H75.2626V9.08597ZM90.5297 9.04757V16.4688H92.3108H94.092V13.7266V10.9844H97.1943C102.052 10.9844 104.27 9.45975 104.27 6.11977C104.27 5.11403 103.815 4.2475 102.786 3.29195C101.311 1.92297 101.268 1.91327 95.9159 1.77025L90.5297 1.6264V9.04757ZM123.723 8.9805L123.863 16.2578H125.644H127.425L127.575 13.1992L127.724 10.1406H131.242H134.759L134.909 13.1992L135.059 16.2578H136.713C137.622 16.2578 138.366 16.1152 138.366 15.9414C138.366 15.7676 138.366 12.4926 138.366 8.66409V1.70318H136.585H134.804V4.44535V7.18753H131.242H127.68V4.44535V1.70318H125.632H123.584L123.723 8.9805ZM144.88 2.20942C146.308 3.39278 145.233 5.50004 143.201 5.50004C141.837 5.50004 140.911 4.73223 140.911 3.60161C140.911 2.47099 141.837 1.70318 143.201 1.70318C143.789 1.70318 144.545 1.93099 144.88 2.20942ZM141.988 3.67755C142.02 4.5639 142.152 4.95709 142.279 4.55082C142.565 3.64422 142.918 3.61933 143.654 4.45295C144.11 4.97059 144.219 4.82884 144.219 3.71467C144.219 2.60599 143.994 2.30941 143.074 2.20099C142.05 2.08075 141.935 2.23643 141.988 3.67755ZM143.964 2.9688C143.964 3.20083 143.621 3.39067 143.201 3.39067C142.781 3.39067 142.438 3.20083 142.438 2.9688C142.438 2.73677 142.781 2.54692 143.201 2.54692C143.621 2.54692 143.964 2.73677 143.964 2.9688ZM6.46569 3.67881C6.83261 3.80073 7.27179 3.78554 7.44075 3.64548C7.6097 3.50542 7.30945 3.40586 6.77307 3.424C6.1802 3.44425 6.05959 3.54423 6.46569 3.67881ZM9.33539 5.07226C9.32114 6.0354 9.48043 6.52899 9.70943 6.23072C10.2194 5.56543 10.2438 3.39025 9.74149 3.39194C9.53131 3.39278 9.34862 4.14878 9.33539 5.07226ZM3.84077 4.12895C3.711 4.30276 4.13339 4.44535 4.7797 4.44535C5.426 4.44535 5.84839 4.30276 5.71862 4.12895C5.58936 3.95514 5.16646 3.81254 4.7797 3.81254C4.39293 3.81254 3.97003 3.95514 3.84077 4.12895ZM116.948 5.27181C118.797 6.80363 119.023 10.2685 117.403 12.25C116.352 13.535 115.888 13.743 113.822 13.8544C111.989 13.9527 111.217 13.7899 110.43 13.1381C109.341 12.2348 108.191 9.33614 108.548 8.39283C108.667 8.07811 108.905 7.29258 109.076 6.64711C109.492 5.07268 112.162 3.70117 114.194 4.01715C115.033 4.14793 116.273 4.7124 116.948 5.27181ZM31.4971 5.07817C31.8838 5.67765 31.8838 6.16618 31.4971 6.76566C31.0543 7.4512 30.4314 7.60941 28.1714 7.60941H25.3902V5.92191V4.23442H28.1714C30.4314 4.23442 31.0543 4.39262 31.4971 5.07817ZM100.181 5.05032C101.582 7.21959 100.499 8.36372 96.6905 8.7375L94.092 8.99273V6.61336V4.23442H96.8731C99.1016 4.23442 99.7586 4.39642 100.181 5.05032ZM62.0312 8.87503C62.0312 13.1073 61.5508 13.5777 59.2093 11.6362C57.4734 10.1972 57.4734 7.55288 59.2093 6.11387C61.5508 4.1724 62.0312 4.64279 62.0312 8.87503ZM68.9242 6.11387C70.6601 7.55288 70.6601 10.1972 68.9242 11.6362C66.5828 13.5777 66.1024 13.1073 66.1024 8.87503C66.1024 4.64279 66.5828 4.1724 68.9242 6.11387ZM12.0483 6.22566C11.8254 6.93314 12.0071 7.17024 12.8499 7.2698C15.3526 7.56553 14.0351 11.8092 10.7817 13.9308C10.0641 14.3986 9.67941 14.7754 9.92724 14.7678C11.5115 14.7205 14.7033 10.8739 14.7033 9.01214C14.7033 8.17683 14.344 7.44572 13.7659 7.10611C13.2504 6.80278 12.7181 6.27502 12.5827 5.93288C12.4071 5.4878 12.255 5.57091 12.0483 6.22566ZM8.32827 7.62797C8.16288 7.84987 8.49926 8.03128 9.07534 8.03128C10.3043 8.03128 10.428 7.79672 9.3761 7.46217C8.96542 7.33139 8.49366 7.40606 8.32827 7.62797ZM10.6321 8.19075C10.6321 8.27808 11.0331 8.61051 11.5226 8.92903C12.3298 9.45342 12.3476 9.43865 11.715 8.76956C11.0499 8.06672 10.6321 7.84355 10.6321 8.19075ZM5.98681 9.19143C5.35425 9.86052 5.37206 9.87529 6.17918 9.3509C6.66874 9.03239 7.06976 8.69995 7.06976 8.61262C7.06976 8.26542 6.65195 8.48859 5.98681 9.19143ZM31.7154 10.3815C32.1551 10.7465 32.5149 11.3974 32.5149 11.8281C32.5149 13.252 31.0976 13.9375 28.1531 13.9375H25.3902V11.8281V9.71877H28.1531C29.9856 9.71877 31.1846 9.94195 31.7154 10.3815ZM10.6321 11.0093C10.6321 11.4868 10.8509 11.7657 11.1186 11.6286C11.3863 11.4915 11.4763 11.1004 11.3186 10.76C10.915 9.88795 10.6321 9.99046 10.6321 11.0093ZM2.32017 11.2658C1.23367 12.1661 2.66368 16.0469 4.08148 16.0469C4.36545 16.0469 4.23823 15.749 3.79904 15.3845C2.81686 14.5703 2.28608 12.9402 2.63926 11.8214C2.92119 10.9274 2.8591 10.819 2.32017 11.2658ZM0.271335 12.3386C0.0993263 12.8702 -0.0212834 13.6844 0.00314388 14.1484C0.0275712 14.6125 0.257086 14.2518 0.513064 13.3465C1.00924 11.5936 0.797031 10.7106 0.271335 12.3386ZM6.52218 12.3555C7.94151 13.6899 9.19798 13.8354 10.1634 12.7774C10.7369 12.1492 10.7308 12.118 10.1242 12.5664C9.08145 13.3372 8.06619 13.2157 6.59342 12.1445L5.2886 11.1953L6.52218 12.3555ZM15.4992 13.6392C15.6906 14.0552 15.975 14.2894 16.1318 14.1594C16.2885 14.0299 16.1323 13.6894 15.7842 13.403C15.2814 12.9896 15.2234 13.0381 15.4992 13.6392ZM5.86773 14.1484C6.02905 14.4965 6.39343 14.7813 6.67739 14.7813C6.97561 14.7813 6.92625 14.5134 6.56085 14.1484C6.21226 13.8004 5.84788 13.5156 5.75119 13.5156C5.6545 13.5156 5.70692 13.8004 5.86773 14.1484ZM16.23 15.1027C16.23 15.3567 15.8702 15.8629 15.4305 16.2279C14.9903 16.5924 14.8677 16.8906 15.1577 16.8906C15.802 16.8906 16.9374 15.2268 16.5257 14.8859C16.3628 14.7509 16.23 14.8488 16.23 15.1027ZM5.41582 16.3262C5.76595 16.4434 6.33846 16.4434 6.68808 16.3262C7.0382 16.2093 6.75169 16.1135 6.05195 16.1135C5.35221 16.1135 5.06621 16.2093 5.41582 16.3262ZM12.0636 16.7569C12.4305 16.8788 12.8697 16.8636 13.0387 16.7236C13.2076 16.5835 12.9074 16.4839 12.371 16.5021C11.7781 16.5223 11.6575 16.6223 12.0636 16.7569Z" fill="#E6EEF1" fill-opacity="0.45"/>
<defs>
<linearGradient id="paint0_linear_1176_3009" x1="1.02576" y1="8.89062" x2="146" y2="8.89063" gradientUnits="userSpaceOnUse">
<stop stop-color="#3793AE"/>
<stop offset="1" stop-color="#074287"/>
</linearGradient>
</defs>
</svg>
