<svg width="65" height="70" viewBox="0 0 65 70" fill="none" xmlns="http://www.w3.org/2000/svg">
<path d="M27.4772 0.780552C21.501 2.14099 15.6705 6.31947 12.7067 11.3725C10.9576 14.3849 9.5 19.6323 9.5 22.9362C9.5 28.9124 12.561 35.7632 17.031 39.7959C19.266 41.8365 23.3959 44.3145 24.562 44.3145C24.8535 44.3145 25.0478 42.9054 25.0478 40.7676L24.9992 37.2693L22.8128 35.666C15.8163 30.4672 14.3101 21.1871 19.3146 13.8019C20.675 11.8584 24.1733 8.84599 25.145 8.84599C25.3393 8.84599 25.5337 12.8787 25.5337 17.8346V26.8232H28.9348H32.3359V13.4617V0.100334L31.267 0.148922C30.6353 0.19751 28.9348 0.489033 27.4772 0.780552Z" fill="#F5F5F5" fill-opacity="0.55"/>
<path d="M41.2484 3.56548V6.96657L43.3862 8.47276C45.5726 9.93037 46.9817 11.6309 48.7794 14.7891C50.237 17.4128 50.1398 25.3324 48.6336 28.4906C47.4675 31.0171 44.358 34.321 42.1716 35.4871L40.7625 36.2159V27.1787V18.1902H37.6044H34.4462V31.3086C34.4462 46.1762 33.9604 44.913 39.0134 43.6983C49.6539 41.026 56.7476 32.1832 56.7476 21.5912C56.7476 17.9958 55.7273 13.9631 54.0754 10.8535C51.5974 6.23777 46.4958 1.76777 42.3659 0.504505C41.297 0.164394 41.2484 0.26157 41.2484 3.56548Z" fill="#406B96"/>
<path d="M41.2484 3.56548V6.96657L43.3862 8.47276C45.5726 9.93037 46.9817 11.6309 48.7794 14.7891C50.237 17.4128 50.1398 25.3324 48.6336 28.4906C47.4675 31.0171 44.358 34.321 42.1716 35.4871L40.7625 36.2159V27.1787V18.1902H37.6044H34.4462V31.3086C34.4462 46.1762 33.9604 44.913 39.0134 43.6983C49.6539 41.026 56.7476 32.1832 56.7476 21.5912C56.7476 17.9958 55.7273 13.9631 54.0754 10.8535C51.5974 6.23777 46.4958 1.76777 42.3659 0.504505C41.297 0.164394 41.2484 0.26157 41.2484 3.56548Z" fill="url(#paint0_linear_1176_2905)"/>
<path d="M41.2484 3.56548V6.96657L43.3862 8.47276C45.5726 9.93037 46.9817 11.6309 48.7794 14.7891C50.237 17.4128 50.1398 25.3324 48.6336 28.4906C47.4675 31.0171 44.358 34.321 42.1716 35.4871L40.7625 36.2159V27.1787V18.1902H37.6044H34.4462V31.3086C34.4462 46.1762 33.9604 44.913 39.0134 43.6983C49.6539 41.026 56.7476 32.1832 56.7476 21.5912C56.7476 17.9958 55.7273 13.9631 54.0754 10.8535C51.5974 6.23777 46.4958 1.76777 42.3659 0.504505C41.297 0.164394 41.2484 0.26157 41.2484 3.56548Z" fill="#E6EEF1" fill-opacity="0.45"/>
<path d="M0.433594 53.4157C0.433594 54.0474 4.32055 54.1445 32.501 54.1445C60.6814 54.1445 64.5684 54.0474 64.5684 53.4157C64.5684 52.7841 60.6814 52.6869 32.501 52.6869C4.32055 52.6869 0.433594 52.7841 0.433594 53.4157Z" fill="url(#paint1_linear_1176_2905)"/>
<path d="M0.433594 53.4157C0.433594 54.0474 4.32055 54.1445 32.501 54.1445C60.6814 54.1445 64.5684 54.0474 64.5684 53.4157C64.5684 52.7841 60.6814 52.6869 32.501 52.6869C4.32055 52.6869 0.433594 52.7841 0.433594 53.4157Z" fill="#E6EEF1" fill-opacity="0.45"/>
<path d="M4.32055 57.5458C4.32055 57.7887 3.93185 58.0317 3.44598 58.0317C1.74544 58.0317 0.433594 59.4407 0.433594 61.2384C0.433594 62.7932 0.627942 63.0361 2.57142 63.8621C4.32055 64.6881 4.95218 64.7367 6.31261 64.2994C8.2075 63.6678 9.66511 62.2102 9.66511 60.9469C9.66511 59.878 7.4787 58.0317 6.21544 58.0317C5.68098 58.0317 5.29229 57.7887 5.29229 57.5458C5.29229 57.2543 5.09794 57.0599 4.80642 57.0599C4.56348 57.0599 4.32055 57.2543 4.32055 57.5458ZM4.22338 61.1412C4.36914 62.7932 4.27196 62.939 3.25164 62.7932C1.93979 62.5989 1.45392 60.8011 2.42566 59.6836C3.34881 58.5661 4.07761 59.1492 4.22338 61.1412ZM7.13859 59.4407C7.52729 59.6836 7.72163 60.461 7.62446 61.2384C7.52729 62.2587 7.18718 62.696 6.40979 62.7932C5.43805 62.939 5.29229 62.7446 5.29229 61.287C5.29229 59.1006 5.82674 58.5661 7.13859 59.4407Z" fill="url(#paint2_linear_1176_2905)"/>
<path d="M4.32055 57.5458C4.32055 57.7887 3.93185 58.0317 3.44598 58.0317C1.74544 58.0317 0.433594 59.4407 0.433594 61.2384C0.433594 62.7932 0.627942 63.0361 2.57142 63.8621C4.32055 64.6881 4.95218 64.7367 6.31261 64.2994C8.2075 63.6678 9.66511 62.2102 9.66511 60.9469C9.66511 59.878 7.4787 58.0317 6.21544 58.0317C5.68098 58.0317 5.29229 57.7887 5.29229 57.5458C5.29229 57.2543 5.09794 57.0599 4.80642 57.0599C4.56348 57.0599 4.32055 57.2543 4.32055 57.5458ZM4.22338 61.1412C4.36914 62.7932 4.27196 62.939 3.25164 62.7932C1.93979 62.5989 1.45392 60.8011 2.42566 59.6836C3.34881 58.5661 4.07761 59.1492 4.22338 61.1412ZM7.13859 59.4407C7.52729 59.6836 7.72163 60.461 7.62446 61.2384C7.52729 62.2587 7.18718 62.696 6.40979 62.7932C5.43805 62.939 5.29229 62.7446 5.29229 61.287C5.29229 59.1006 5.82674 58.5661 7.13859 59.4407Z" fill="#E6EEF1" fill-opacity="0.45"/>
<path d="M12.0448 58.3719C10.3443 62.7447 9.66406 64.591 9.66406 64.6882C9.66406 64.7854 9.95558 64.834 10.3443 64.834C10.733 64.834 11.2188 64.3967 11.3646 63.8622C11.6075 63.1334 12.0934 62.8905 13.3567 62.8905C14.6685 62.8905 15.0086 63.0849 15.0086 63.8622C15.0086 64.5425 15.3487 64.834 16.029 64.834C16.5634 64.834 16.9521 64.6396 16.8549 64.4453C13.5996 56.5256 13.0651 55.7968 12.0448 58.3719ZM13.7454 60.7041C13.8911 61.1414 13.7454 61.4329 13.3081 61.4329C12.9194 61.4329 12.5793 61.0928 12.5793 60.7041C12.5793 60.3154 12.7736 59.9753 13.0166 59.9753C13.2595 59.9753 13.551 60.3154 13.7454 60.7041Z" fill="url(#paint3_linear_1176_2905)"/>
<path d="M12.0448 58.3719C10.3443 62.7447 9.66406 64.591 9.66406 64.6882C9.66406 64.7854 9.95558 64.834 10.3443 64.834C10.733 64.834 11.2188 64.3967 11.3646 63.8622C11.6075 63.1334 12.0934 62.8905 13.3567 62.8905C14.6685 62.8905 15.0086 63.0849 15.0086 63.8622C15.0086 64.5425 15.3487 64.834 16.029 64.834C16.5634 64.834 16.9521 64.6396 16.8549 64.4453C13.5996 56.5256 13.0651 55.7968 12.0448 58.3719ZM13.7454 60.7041C13.8911 61.1414 13.7454 61.4329 13.3081 61.4329C12.9194 61.4329 12.5793 61.0928 12.5793 60.7041C12.5793 60.3154 12.7736 59.9753 13.0166 59.9753C13.2595 59.9753 13.551 60.3154 13.7454 60.7041Z" fill="#E6EEF1" fill-opacity="0.45"/>
<path d="M17.9258 60.947C17.9258 64.0566 18.0715 64.834 18.6546 64.834C19.1405 64.834 19.3834 64.3481 19.3834 63.3764C19.3834 62.0159 19.5292 61.9188 21.0353 61.9188C23.902 61.9188 25.2138 59.538 23.3675 57.8861C22.7845 57.3516 21.6184 57.0601 20.2094 57.0601H17.9258V60.947ZM22.5415 59.0036C23.0274 59.7809 21.8127 60.947 20.5495 60.947C19.6263 60.947 19.3834 60.7041 19.3834 59.7324C19.3834 58.712 19.6263 58.5177 20.7924 58.5177C21.6184 58.5177 22.3958 58.7606 22.5415 59.0036Z" fill="url(#paint4_linear_1176_2905)"/>
<path d="M17.9258 60.947C17.9258 64.0566 18.0715 64.834 18.6546 64.834C19.1405 64.834 19.3834 64.3481 19.3834 63.3764C19.3834 62.0159 19.5292 61.9188 21.0353 61.9188C23.902 61.9188 25.2138 59.538 23.3675 57.8861C22.7845 57.3516 21.6184 57.0601 20.2094 57.0601H17.9258V60.947ZM22.5415 59.0036C23.0274 59.7809 21.8127 60.947 20.5495 60.947C19.6263 60.947 19.3834 60.7041 19.3834 59.7324C19.3834 58.712 19.6263 58.5177 20.7924 58.5177C21.6184 58.5177 22.3958 58.7606 22.5415 59.0036Z" fill="#E6EEF1" fill-opacity="0.45"/>
<path d="M25.2148 60.947C25.2148 64.0566 25.3606 64.834 25.9436 64.834C26.4295 64.834 26.6725 64.2995 26.6725 63.1334C26.6725 62.2103 26.8668 61.4329 27.1097 61.4329C27.3527 61.4329 27.8385 62.2103 28.1301 63.1334C28.8589 65.3684 29.9764 65.2713 30.8995 62.8905C31.3368 61.8216 31.8713 60.947 32.1142 60.947C32.3085 60.947 32.5029 61.8216 32.5029 62.8905C32.5029 63.9594 32.7458 64.834 32.9888 64.834C33.2803 64.834 33.4746 63.2306 33.4746 60.947C33.4746 56.0883 32.6001 55.7482 30.7538 59.8295L29.4905 62.6476L28.2758 59.8295C27.4013 57.8861 26.7696 57.0601 26.138 57.0601C25.312 57.0601 25.2148 57.4488 25.2148 60.947Z" fill="url(#paint5_linear_1176_2905)"/>
<path d="M25.2148 60.947C25.2148 64.0566 25.3606 64.834 25.9436 64.834C26.4295 64.834 26.6725 64.2995 26.6725 63.1334C26.6725 62.2103 26.8668 61.4329 27.1097 61.4329C27.3527 61.4329 27.8385 62.2103 28.1301 63.1334C28.8589 65.3684 29.9764 65.2713 30.8995 62.8905C31.3368 61.8216 31.8713 60.947 32.1142 60.947C32.3085 60.947 32.5029 61.8216 32.5029 62.8905C32.5029 63.9594 32.7458 64.834 32.9888 64.834C33.2803 64.834 33.4746 63.2306 33.4746 60.947C33.4746 56.0883 32.6001 55.7482 30.7538 59.8295L29.4905 62.6476L28.2758 59.8295C27.4013 57.8861 26.7696 57.0601 26.138 57.0601C25.312 57.0601 25.2148 57.4488 25.2148 60.947Z" fill="#E6EEF1" fill-opacity="0.45"/>
<path d="M35.9003 58.3717C34.6856 59.9264 34.7828 62.9388 36.0946 64.2993C37.2607 65.4168 40.5646 65.3196 41.4392 64.1049C41.8765 63.5705 42.2166 62.9874 42.2166 62.7445C42.2166 62.1129 40.8562 62.4044 40.5646 63.1332C40.1759 64.2021 37.5037 64.0563 36.872 62.9388C36.1918 61.6756 36.2404 59.8293 36.9692 59.1005C37.7952 58.2745 40.2245 58.3717 40.5646 59.2462C40.9048 60.0722 42.2166 60.2666 42.2166 59.4892C42.2166 58.4203 40.2245 57.0598 38.6212 57.0598C37.3579 57.0598 36.6777 57.3999 35.9003 58.3717Z" fill="url(#paint6_linear_1176_2905)"/>
<path d="M35.9003 58.3717C34.6856 59.9264 34.7828 62.9388 36.0946 64.2993C37.2607 65.4168 40.5646 65.3196 41.4392 64.1049C41.8765 63.5705 42.2166 62.9874 42.2166 62.7445C42.2166 62.1129 40.8562 62.4044 40.5646 63.1332C40.1759 64.2021 37.5037 64.0563 36.872 62.9388C36.1918 61.6756 36.2404 59.8293 36.9692 59.1005C37.7952 58.2745 40.2245 58.3717 40.5646 59.2462C40.9048 60.0722 42.2166 60.2666 42.2166 59.4892C42.2166 58.4203 40.2245 57.0598 38.6212 57.0598C37.3579 57.0598 36.6777 57.3999 35.9003 58.3717Z" fill="#E6EEF1" fill-opacity="0.45"/>
<path d="M42.7031 57.7889C42.7031 58.2262 43.1404 58.5177 43.9178 58.5177C45.0839 58.5177 45.1325 58.6149 45.1325 61.6758C45.1325 64.1538 45.2782 64.834 45.8613 64.834C46.4443 64.834 46.5901 64.1538 46.5901 61.6758C46.5901 58.6149 46.6387 58.5177 47.8048 58.5177C48.5821 58.5177 49.0194 58.2262 49.0194 57.7889C49.0194 57.2058 48.3392 57.0601 45.8613 57.0601C43.3833 57.0601 42.7031 57.2058 42.7031 57.7889Z" fill="url(#paint7_linear_1176_2905)"/>
<path d="M42.7031 57.7889C42.7031 58.2262 43.1404 58.5177 43.9178 58.5177C45.0839 58.5177 45.1325 58.6149 45.1325 61.6758C45.1325 64.1538 45.2782 64.834 45.8613 64.834C46.4443 64.834 46.5901 64.1538 46.5901 61.6758C46.5901 58.6149 46.6387 58.5177 47.8048 58.5177C48.5821 58.5177 49.0194 58.2262 49.0194 57.7889C49.0194 57.2058 48.3392 57.0601 45.8613 57.0601C43.3833 57.0601 42.7031 57.2058 42.7031 57.7889Z" fill="#E6EEF1" fill-opacity="0.45"/>
<path d="M50.5767 58.1768C49.8479 58.9542 49.5078 59.926 49.5078 61.2864C49.5078 63.7643 50.8197 65.0762 53.3948 65.0762C55.6784 65.0762 57.2331 63.4242 57.2817 61.0435C57.2817 57.5938 52.9089 55.6989 50.5767 58.1768ZM55.3382 59.683C56.067 61.5779 55.2411 63.57 53.6863 63.7643C51.9372 64.0073 50.9654 63.0841 50.9654 61.2378C50.9654 59.3429 51.6942 58.5169 53.4919 58.5169C54.5123 58.5169 54.9981 58.8085 55.3382 59.683Z" fill="url(#paint8_linear_1176_2905)"/>
<path d="M50.5767 58.1768C49.8479 58.9542 49.5078 59.926 49.5078 61.2864C49.5078 63.7643 50.8197 65.0762 53.3948 65.0762C55.6784 65.0762 57.2331 63.4242 57.2817 61.0435C57.2817 57.5938 52.9089 55.6989 50.5767 58.1768ZM55.3382 59.683C56.067 61.5779 55.2411 63.57 53.6863 63.7643C51.9372 64.0073 50.9654 63.0841 50.9654 61.2378C50.9654 59.3429 51.6942 58.5169 53.4919 58.5169C54.5123 58.5169 54.9981 58.8085 55.3382 59.683Z" fill="#E6EEF1" fill-opacity="0.45"/>
<path d="M58.25 60.947C58.25 64.0566 58.3958 64.834 58.9788 64.834C59.4647 64.834 59.7076 64.3481 59.7076 63.3764C59.7076 62.0645 59.8534 61.9188 61.311 61.9188C63.0601 61.9188 64.5663 60.7041 64.5663 59.3437C64.5663 58.129 62.6228 57.0601 60.3392 57.0601H58.25V60.947ZM62.7686 59.1979C63.1087 60.1211 62.1855 60.947 60.8251 60.947C59.9505 60.947 59.7076 60.6555 59.7076 59.7324C59.7076 58.712 59.9505 58.5177 61.1166 58.5177C61.894 58.5177 62.6228 58.8092 62.7686 59.1979Z" fill="url(#paint9_linear_1176_2905)"/>
<path d="M58.25 60.947C58.25 64.0566 58.3958 64.834 58.9788 64.834C59.4647 64.834 59.7076 64.3481 59.7076 63.3764C59.7076 62.0645 59.8534 61.9188 61.311 61.9188C63.0601 61.9188 64.5663 60.7041 64.5663 59.3437C64.5663 58.129 62.6228 57.0601 60.3392 57.0601H58.25V60.947ZM62.7686 59.1979C63.1087 60.1211 62.1855 60.947 60.8251 60.947C59.9505 60.947 59.7076 60.6555 59.7076 59.7324C59.7076 58.712 59.9505 58.5177 61.1166 58.5177C61.894 58.5177 62.6228 58.8092 62.7686 59.1979Z" fill="#E6EEF1" fill-opacity="0.45"/>
<path d="M0.773702 68.0895C0.579355 68.2353 0.433594 68.5754 0.433594 68.8183C0.433594 69.0127 14.8639 69.207 32.5496 69.207C58.0091 69.207 64.6169 69.0613 64.4712 68.624C64.2768 68.1381 57.4261 67.9438 32.6467 67.8466C15.3012 67.798 0.919463 67.8952 0.773702 68.0895Z" fill="url(#paint10_linear_1176_2905)"/>
<path d="M0.773702 68.0895C0.579355 68.2353 0.433594 68.5754 0.433594 68.8183C0.433594 69.0127 14.8639 69.207 32.5496 69.207C58.0091 69.207 64.6169 69.0613 64.4712 68.624C64.2768 68.1381 57.4261 67.9438 32.6467 67.8466C15.3012 67.798 0.919463 67.8952 0.773702 68.0895Z" fill="#E6EEF1" fill-opacity="0.45"/>
<defs>
<linearGradient id="paint0_linear_1176_2905" x1="34.5904" y1="22.3739" x2="56.7476" y2="22.3739" gradientUnits="userSpaceOnUse">
<stop stop-color="#3793AE"/>
<stop offset="1" stop-color="#074287"/>
</linearGradient>
<linearGradient id="paint1_linear_1176_2905" x1="0.884189" y1="53.4157" x2="64.5684" y2="53.4157" gradientUnits="userSpaceOnUse">
<stop stop-color="#3793AE"/>
<stop offset="1" stop-color="#074287"/>
</linearGradient>
<linearGradient id="paint2_linear_1176_2905" x1="0.498452" y1="60.8161" x2="9.66511" y2="60.8161" gradientUnits="userSpaceOnUse">
<stop stop-color="#3793AE"/>
<stop offset="1" stop-color="#074287"/>
</linearGradient>
<linearGradient id="paint3_linear_1176_2905" x1="9.71469" y1="60.9377" x2="16.8699" y2="60.9377" gradientUnits="userSpaceOnUse">
<stop stop-color="#3793AE"/>
<stop offset="1" stop-color="#074287"/>
</linearGradient>
<linearGradient id="paint4_linear_1176_2905" x1="17.97" y1="60.947" x2="24.2224" y2="60.947" gradientUnits="userSpaceOnUse">
<stop stop-color="#3793AE"/>
<stop offset="1" stop-color="#074287"/>
</linearGradient>
<linearGradient id="paint5_linear_1176_2905" x1="25.2729" y1="60.9237" x2="33.4746" y2="60.9237" gradientUnits="userSpaceOnUse">
<stop stop-color="#3793AE"/>
<stop offset="1" stop-color="#074287"/>
</linearGradient>
<linearGradient id="paint6_linear_1176_2905" x1="35.0972" y1="61.0699" x2="42.2166" y2="61.0699" gradientUnits="userSpaceOnUse">
<stop stop-color="#3793AE"/>
<stop offset="1" stop-color="#074287"/>
</linearGradient>
<linearGradient id="paint7_linear_1176_2905" x1="42.7475" y1="60.947" x2="49.0194" y2="60.947" gradientUnits="userSpaceOnUse">
<stop stop-color="#3793AE"/>
<stop offset="1" stop-color="#074287"/>
</linearGradient>
<linearGradient id="paint8_linear_1176_2905" x1="49.5624" y1="61.0625" x2="57.2817" y2="61.0625" gradientUnits="userSpaceOnUse">
<stop stop-color="#3793AE"/>
<stop offset="1" stop-color="#074287"/>
</linearGradient>
<linearGradient id="paint9_linear_1176_2905" x1="58.2944" y1="60.947" x2="64.5663" y2="60.947" gradientUnits="userSpaceOnUse">
<stop stop-color="#3793AE"/>
<stop offset="1" stop-color="#074287"/>
</linearGradient>
<linearGradient id="paint10_linear_1176_2905" x1="0.883523" y1="68.5206" x2="64.4735" y2="68.5206" gradientUnits="userSpaceOnUse">
<stop stop-color="#3793AE"/>
<stop offset="1" stop-color="#074287"/>
</linearGradient>
</defs>
</svg>
