<svg width="115" height="49" viewBox="0 0 115 49" fill="none" xmlns="http://www.w3.org/2000/svg">
<path d="M56.3005 0.0106201C56.2774 0.022171 55.1454 0.0799408 53.7824 0.114601C51.2643 0.195477 50.0052 0.253242 48.7577 0.345673C48.3766 0.380333 47.568 0.426548 46.9673 0.461208C46.3667 0.495869 45.6852 0.553635 45.4657 0.588299C45.2462 0.622959 44.8304 0.680725 44.5416 0.703835C43.479 0.784706 41.573 1.00423 40.9031 1.13131C40.5219 1.18908 40.0252 1.26996 39.8057 1.29306C39.5863 1.31617 39.2744 1.36238 39.1127 1.39705C38.951 1.42015 38.4889 1.47792 38.0847 1.52414C37.6804 1.5588 37.2299 1.62812 37.0913 1.68589C36.9527 1.7321 36.5368 1.81298 36.1556 1.85919C35.3355 1.95162 32.3554 2.54085 31.1425 2.84124C30.6689 2.96833 29.8142 3.1763 29.2366 3.30339C28.6706 3.44203 27.839 3.66154 27.3885 3.78864C26.9495 3.91573 26.3951 4.06592 26.1756 4.12369C24.7664 4.48185 21.4975 5.54478 20.6889 5.90294C20.5041 5.98381 20.2153 6.0878 20.0536 6.13401C19.8919 6.18023 19.6147 6.28421 19.4183 6.36508C19.2335 6.44596 18.4711 6.7579 17.7434 7.0583C14.4861 8.41006 10.2007 10.7439 8.53731 12.0725C8.34095 12.2458 7.92511 12.5578 7.62479 12.7773C6.34263 13.7363 4.42517 15.6542 3.42024 16.9944C2.71563 17.9302 1.47968 20.2987 1.24866 21.1537C1.17936 21.4078 1.04074 21.9162 0.925234 22.2975C0.63646 23.3257 0.740419 25.7751 1.15625 27.1615C2.05723 30.1885 4.40207 33.2618 7.79805 35.8729C8.83764 36.6701 10.6627 37.9179 11.4482 38.3569C12.9729 39.2234 13.5389 39.5238 14.3936 39.9398C16.4613 40.9218 16.9695 41.1529 18.8408 41.9501C19.1526 42.0887 20.8391 42.6895 23.2301 43.5098C25.4248 44.2723 29.8373 45.4508 32.0666 45.8783C32.5402 45.9707 33.5105 46.1787 34.2151 46.3289C34.9197 46.4906 35.6012 46.6177 35.7167 46.6062C35.9015 46.6062 36.7563 46.7448 38.8239 47.1376C39.0434 47.1723 40.1754 47.3109 40.8453 47.3803C41.007 47.3918 41.215 47.438 41.3074 47.4727C41.3998 47.5073 42.1044 47.5998 42.8667 47.6806C43.6291 47.75 44.4146 47.8308 44.5994 47.8424C44.7958 47.8655 45.4657 47.9117 46.101 47.9579C47.3601 48.0273 48.0993 48.0966 48.9888 48.189C49.5085 48.2468 50.398 48.293 52.9738 48.4201C54.5332 48.4894 60.8516 48.4894 62.5034 48.4085C63.3928 48.3623 64.3053 48.3392 64.5132 48.3508C64.7327 48.3623 65.2063 48.3161 65.5528 48.2468C65.9109 48.1774 66.9274 48.0966 67.8168 48.0619C68.7062 48.0273 69.5957 47.9579 69.7805 47.9002C69.9768 47.8424 70.3696 47.7962 70.6583 47.7962C71.0973 47.7962 73.3382 47.5536 74.5741 47.3803C74.7358 47.3571 75.2787 47.2763 75.787 47.2069C76.9767 47.0336 76.9998 47.0336 77.3463 46.9528C77.5081 46.9066 78.1087 46.8141 78.6747 46.7448C79.2523 46.6639 79.772 46.5599 79.8298 46.5022C79.8991 46.456 80.0608 46.4098 80.1763 46.4098C80.3727 46.4213 80.7654 46.352 82.371 46.0054C82.4981 45.9823 83.0756 45.8783 83.6416 45.7743C84.2192 45.6588 84.8891 45.5086 85.1432 45.4161C85.3974 45.3353 86.2059 45.1273 86.9336 44.954C87.6613 44.7923 88.4699 44.5843 88.724 44.5034C88.9782 44.4225 89.5788 44.2261 90.0524 44.0875C92.6745 43.2903 94.153 42.7819 95.8279 42.1003C96.3015 41.9154 96.7982 41.7074 96.9252 41.6612C101.13 40.0091 106.097 37.0976 108.58 34.8446C111.387 32.2913 112.912 30.1308 113.859 27.3348C114.217 26.2719 114.229 26.1679 114.24 24.3309C114.24 22.3206 114.182 21.9855 113.57 20.368C112.715 18.1035 111.11 15.9661 108.592 13.7594C107.506 12.7889 106.836 12.2574 106.074 11.7606C105.773 11.5642 105.461 11.3447 105.381 11.2753C105.011 10.9634 103.324 9.95824 101.892 9.19571C101.384 8.92997 100.841 8.62958 100.679 8.54871C100.402 8.39851 99.2239 7.85549 97.7915 7.20849C97.445 7.04674 97.0292 6.88499 96.8675 6.83878C96.7057 6.79256 96.3477 6.64237 96.0589 6.51528C95.4352 6.22644 91.9352 5.00176 90.8725 4.68982C90.4567 4.57428 89.7521 4.36631 89.3016 4.22767C88.0425 3.85796 86.4947 3.43047 85.6053 3.23407C85.1663 3.13008 84.7505 3.03765 84.6812 3.0261C83.5261 2.73726 82.4634 2.49464 81.5162 2.32133C80.9849 2.2289 80.5113 2.12492 80.4767 2.10181C80.4305 2.06715 80.0839 2.02094 79.7143 1.97472C79.3331 1.92851 78.6978 1.82453 78.2935 1.7321C77.6236 1.58191 75.0708 1.20064 74.6896 1.20064C74.5972 1.20064 74.2622 1.15442 73.9388 1.09665C73.6269 1.03889 73.0378 0.969566 72.6336 0.934902C72.2408 0.911797 71.8596 0.854031 71.8134 0.830921C71.7557 0.796261 71.3861 0.738495 70.9818 0.703835C70.5775 0.66917 69.8844 0.611404 69.4339 0.576744C68.995 0.542084 68.3366 0.495869 67.9901 0.472763C67.6435 0.449654 67.0429 0.403439 66.6617 0.368778C65.4258 0.253242 64.0396 0.183922 62.2724 0.126156C59.5694 0.0337257 56.3467 -0.024044 56.3005 0.0106201ZM64.236 1.68589C74.4933 2.15958 84.6466 3.95039 92.9401 6.73479C97.341 8.21365 102.158 10.5013 104.895 12.4076C105.219 12.6387 105.635 12.9275 105.819 13.0546C107.344 14.1175 109.504 16.2087 110.521 17.6529C111.965 19.6517 112.588 21.2114 112.819 23.3488C112.946 24.458 112.935 24.7699 112.762 25.7751C112.069 29.8073 109.111 33.4698 103.81 36.8434C102.631 37.5828 99.6743 39.131 98.3691 39.6856C97.8955 39.8935 97.4219 40.1015 97.3064 40.1593C97.0869 40.2864 94.846 41.1298 93.2289 41.7074C91.1844 42.4238 88.2967 43.2672 86.0673 43.7986C85.3743 43.9604 84.4848 44.1684 84.1037 44.2608C82.6136 44.6189 79.1483 45.2659 76.9998 45.5894C72.8415 46.2133 68.3713 46.6408 63.8317 46.8719C60.8285 47.0221 51.2412 46.9412 48.8155 46.7564C43.0054 46.2942 39.286 45.8436 35.3124 45.1273C22.0404 42.7126 11.9102 38.484 6.539 33.1116C4.96807 31.5403 4.30966 30.6853 3.5011 29.1834C2.69253 27.6583 2.3691 26.4914 2.2998 24.8508C2.18429 22.1473 2.77339 20.1831 4.42517 17.8262C5.26839 16.6131 7.56703 14.3139 8.9416 13.2972C13.7352 9.78494 20.2038 6.97742 28.2548 4.94399C31.8702 4.03126 34.3652 3.5229 38.7662 2.84124C41.9311 2.35599 47.8568 1.78987 51.4722 1.65123C53.5745 1.57035 62.2377 1.59346 64.236 1.68589Z" fill="url(#paint0_linear_1176_2922)"/>
<path d="M56.3005 0.0106201C56.2774 0.022171 55.1454 0.0799408 53.7824 0.114601C51.2643 0.195477 50.0052 0.253242 48.7577 0.345673C48.3766 0.380333 47.568 0.426548 46.9673 0.461208C46.3667 0.495869 45.6852 0.553635 45.4657 0.588299C45.2462 0.622959 44.8304 0.680725 44.5416 0.703835C43.479 0.784706 41.573 1.00423 40.9031 1.13131C40.5219 1.18908 40.0252 1.26996 39.8057 1.29306C39.5863 1.31617 39.2744 1.36238 39.1127 1.39705C38.951 1.42015 38.4889 1.47792 38.0847 1.52414C37.6804 1.5588 37.2299 1.62812 37.0913 1.68589C36.9527 1.7321 36.5368 1.81298 36.1556 1.85919C35.3355 1.95162 32.3554 2.54085 31.1425 2.84124C30.6689 2.96833 29.8142 3.1763 29.2366 3.30339C28.6706 3.44203 27.839 3.66154 27.3885 3.78864C26.9495 3.91573 26.3951 4.06592 26.1756 4.12369C24.7664 4.48185 21.4975 5.54478 20.6889 5.90294C20.5041 5.98381 20.2153 6.0878 20.0536 6.13401C19.8919 6.18023 19.6147 6.28421 19.4183 6.36508C19.2335 6.44596 18.4711 6.7579 17.7434 7.0583C14.4861 8.41006 10.2007 10.7439 8.53731 12.0725C8.34095 12.2458 7.92511 12.5578 7.62479 12.7773C6.34263 13.7363 4.42517 15.6542 3.42024 16.9944C2.71563 17.9302 1.47968 20.2987 1.24866 21.1537C1.17936 21.4078 1.04074 21.9162 0.925234 22.2975C0.63646 23.3257 0.740419 25.7751 1.15625 27.1615C2.05723 30.1885 4.40207 33.2618 7.79805 35.8729C8.83764 36.6701 10.6627 37.9179 11.4482 38.3569C12.9729 39.2234 13.5389 39.5238 14.3936 39.9398C16.4613 40.9218 16.9695 41.1529 18.8408 41.9501C19.1526 42.0887 20.8391 42.6895 23.2301 43.5098C25.4248 44.2723 29.8373 45.4508 32.0666 45.8783C32.5402 45.9707 33.5105 46.1787 34.2151 46.3289C34.9197 46.4906 35.6012 46.6177 35.7167 46.6062C35.9015 46.6062 36.7563 46.7448 38.8239 47.1376C39.0434 47.1723 40.1754 47.3109 40.8453 47.3803C41.007 47.3918 41.215 47.438 41.3074 47.4727C41.3998 47.5073 42.1044 47.5998 42.8667 47.6806C43.6291 47.75 44.4146 47.8308 44.5994 47.8424C44.7958 47.8655 45.4657 47.9117 46.101 47.9579C47.3601 48.0273 48.0993 48.0966 48.9888 48.189C49.5085 48.2468 50.398 48.293 52.9738 48.4201C54.5332 48.4894 60.8516 48.4894 62.5034 48.4085C63.3928 48.3623 64.3053 48.3392 64.5132 48.3508C64.7327 48.3623 65.2063 48.3161 65.5528 48.2468C65.9109 48.1774 66.9274 48.0966 67.8168 48.0619C68.7062 48.0273 69.5957 47.9579 69.7805 47.9002C69.9768 47.8424 70.3696 47.7962 70.6583 47.7962C71.0973 47.7962 73.3382 47.5536 74.5741 47.3803C74.7358 47.3571 75.2787 47.2763 75.787 47.2069C76.9767 47.0336 76.9998 47.0336 77.3463 46.9528C77.5081 46.9066 78.1087 46.8141 78.6747 46.7448C79.2523 46.6639 79.772 46.5599 79.8298 46.5022C79.8991 46.456 80.0608 46.4098 80.1763 46.4098C80.3727 46.4213 80.7654 46.352 82.371 46.0054C82.4981 45.9823 83.0756 45.8783 83.6416 45.7743C84.2192 45.6588 84.8891 45.5086 85.1432 45.4161C85.3974 45.3353 86.2059 45.1273 86.9336 44.954C87.6613 44.7923 88.4699 44.5843 88.724 44.5034C88.9782 44.4225 89.5788 44.2261 90.0524 44.0875C92.6745 43.2903 94.153 42.7819 95.8279 42.1003C96.3015 41.9154 96.7982 41.7074 96.9252 41.6612C101.13 40.0091 106.097 37.0976 108.58 34.8446C111.387 32.2913 112.912 30.1308 113.859 27.3348C114.217 26.2719 114.229 26.1679 114.24 24.3309C114.24 22.3206 114.182 21.9855 113.57 20.368C112.715 18.1035 111.11 15.9661 108.592 13.7594C107.506 12.7889 106.836 12.2574 106.074 11.7606C105.773 11.5642 105.461 11.3447 105.381 11.2753C105.011 10.9634 103.324 9.95824 101.892 9.19571C101.384 8.92997 100.841 8.62958 100.679 8.54871C100.402 8.39851 99.2239 7.85549 97.7915 7.20849C97.445 7.04674 97.0292 6.88499 96.8675 6.83878C96.7057 6.79256 96.3477 6.64237 96.0589 6.51528C95.4352 6.22644 91.9352 5.00176 90.8725 4.68982C90.4567 4.57428 89.7521 4.36631 89.3016 4.22767C88.0425 3.85796 86.4947 3.43047 85.6053 3.23407C85.1663 3.13008 84.7505 3.03765 84.6812 3.0261C83.5261 2.73726 82.4634 2.49464 81.5162 2.32133C80.9849 2.2289 80.5113 2.12492 80.4767 2.10181C80.4305 2.06715 80.0839 2.02094 79.7143 1.97472C79.3331 1.92851 78.6978 1.82453 78.2935 1.7321C77.6236 1.58191 75.0708 1.20064 74.6896 1.20064C74.5972 1.20064 74.2622 1.15442 73.9388 1.09665C73.6269 1.03889 73.0378 0.969566 72.6336 0.934902C72.2408 0.911797 71.8596 0.854031 71.8134 0.830921C71.7557 0.796261 71.3861 0.738495 70.9818 0.703835C70.5775 0.66917 69.8844 0.611404 69.4339 0.576744C68.995 0.542084 68.3366 0.495869 67.9901 0.472763C67.6435 0.449654 67.0429 0.403439 66.6617 0.368778C65.4258 0.253242 64.0396 0.183922 62.2724 0.126156C59.5694 0.0337257 56.3467 -0.024044 56.3005 0.0106201ZM64.236 1.68589C74.4933 2.15958 84.6466 3.95039 92.9401 6.73479C97.341 8.21365 102.158 10.5013 104.895 12.4076C105.219 12.6387 105.635 12.9275 105.819 13.0546C107.344 14.1175 109.504 16.2087 110.521 17.6529C111.965 19.6517 112.588 21.2114 112.819 23.3488C112.946 24.458 112.935 24.7699 112.762 25.7751C112.069 29.8073 109.111 33.4698 103.81 36.8434C102.631 37.5828 99.6743 39.131 98.3691 39.6856C97.8955 39.8935 97.4219 40.1015 97.3064 40.1593C97.0869 40.2864 94.846 41.1298 93.2289 41.7074C91.1844 42.4238 88.2967 43.2672 86.0673 43.7986C85.3743 43.9604 84.4848 44.1684 84.1037 44.2608C82.6136 44.6189 79.1483 45.2659 76.9998 45.5894C72.8415 46.2133 68.3713 46.6408 63.8317 46.8719C60.8285 47.0221 51.2412 46.9412 48.8155 46.7564C43.0054 46.2942 39.286 45.8436 35.3124 45.1273C22.0404 42.7126 11.9102 38.484 6.539 33.1116C4.96807 31.5403 4.30966 30.6853 3.5011 29.1834C2.69253 27.6583 2.3691 26.4914 2.2998 24.8508C2.18429 22.1473 2.77339 20.1831 4.42517 17.8262C5.26839 16.6131 7.56703 14.3139 8.9416 13.2972C13.7352 9.78494 20.2038 6.97742 28.2548 4.94399C31.8702 4.03126 34.3652 3.5229 38.7662 2.84124C41.9311 2.35599 47.8568 1.78987 51.4722 1.65123C53.5745 1.57035 62.2377 1.59346 64.236 1.68589Z" fill="#E6EEF1" fill-opacity="0.45"/>
<path d="M58.7264 2.89933C58.7033 2.92244 57.0978 2.9571 55.1688 2.96865C43.1211 3.04953 30.5537 5.11762 21.0357 8.59524C16.7503 10.1665 13.516 11.7956 10.1893 14.0832C9.45008 14.5915 7.62503 16.1859 6.98973 16.8792C6.29667 17.6417 5.38415 18.7508 5.38415 18.8548C5.38415 18.901 5.31484 19.0281 5.22243 19.1205C4.89901 19.4787 4.13664 21.154 3.87097 22.0783C3.50134 23.3723 3.50134 25.1746 3.87097 26.4686C4.1944 27.5893 4.87591 28.9757 5.59206 29.9925C6.28512 30.9745 8.42205 33.1119 9.60024 33.99C16.1034 38.8887 26.6148 42.5281 39.5634 44.3882C40.6839 44.5499 42.07 44.7233 42.636 44.781C43.2135 44.8388 44.4264 44.9543 45.3504 45.0583C49.22 45.4511 51.2068 45.532 57.6522 45.5204C63.9937 45.5204 67.1933 45.3934 70.416 45.0005C70.9589 44.9428 71.8945 44.8388 72.4952 44.781C73.0958 44.7233 73.9622 44.6193 74.4011 44.5499C74.8516 44.4922 75.5793 44.3882 76.0298 44.3189C78.0974 44.0416 82.094 43.2906 84.6468 42.6898C89.5213 41.5576 93.9337 40.1134 97.6763 38.4612C102.285 36.4047 105.427 34.3713 107.98 31.7601C109.62 30.0849 110.671 28.3634 111.226 26.4224C111.572 25.1746 111.572 23.2336 111.202 22.0205C109.863 17.5493 105.577 13.7019 98.1498 10.2821C96.3941 9.47332 96.1977 9.39244 93.9222 8.56058C92.0047 7.85582 88.3546 6.71201 87.5114 6.53871C87.2919 6.49249 86.5065 6.29608 85.7788 6.09967C84.5428 5.77617 83.099 5.46423 80.2921 4.92121C75.0479 3.9045 68.1174 3.16507 62.3881 3.01487C61.1868 2.98021 59.87 2.93399 59.4888 2.89933C59.0961 2.87623 58.7611 2.87623 58.7264 2.89933ZM77 5.79928C77.0694 5.96103 77.1156 6.21521 77.1156 6.36541C77.1156 6.67735 77.3119 6.85065 77.4736 6.6889C77.5314 6.63114 77.6238 6.35385 77.67 6.06501C77.7393 5.62598 77.7971 5.55666 78.0743 5.522C78.4901 5.47578 78.5825 5.72996 78.3977 6.41162C78.1205 7.42833 77.3812 7.77494 76.6997 7.19726C76.4341 6.96619 76.3763 6.80444 76.3301 6.21521C76.2839 5.51044 76.2839 5.49889 76.5842 5.49889C76.8037 5.49889 76.9192 5.57976 77 5.79928ZM55.3767 7.9598L55.6885 8.27174L55.7232 12.5466C55.7347 14.8919 55.7116 16.9831 55.6539 17.1911C55.4229 18.0923 53.9906 18.4158 53.2051 17.7572L52.8008 17.4222V12.8585C52.8008 8.4566 52.8124 8.2833 53.0318 8.04067C53.3668 7.6594 53.644 7.57853 54.3948 7.61319C54.9377 7.64785 55.1225 7.70562 55.3767 7.9598ZM38.5123 7.83271C38.6047 7.92514 38.6509 8.6068 38.6509 10.1434V12.3155H38.9974C39.1938 12.3155 39.3439 12.2577 39.3555 12.1653C39.3555 12.096 39.3555 11.137 39.3439 10.051C39.3208 7.83271 39.3786 7.64785 40.0832 7.71717L40.4413 7.75183V12.8354V17.919L40.0948 17.9536C39.4132 18.0114 39.4017 17.9652 39.3786 15.5852C39.367 14.3951 39.3555 13.3784 39.3439 13.3207C39.3439 13.2744 39.1938 13.2398 38.9974 13.2398H38.6509V15.4696C38.6509 17.0525 38.6162 17.7341 38.5123 17.8381C38.3506 17.9998 37.773 18.023 37.6691 17.8728C37.6229 17.7919 37.5766 10.8944 37.6113 7.83271C37.6113 7.64785 38.3275 7.64785 38.5123 7.83271ZM44.8537 8.73389C44.9231 9.27691 45.0732 10.6749 45.1656 11.8534C45.2696 13.0318 45.4197 14.8342 45.5237 15.874C45.6161 16.9138 45.6739 17.815 45.6392 17.8728C45.593 17.9305 45.3851 17.9767 45.1656 17.9767C44.692 17.9767 44.5419 17.6995 44.5419 16.8098V16.2437H44.1491C43.8026 16.2437 43.7564 16.2899 43.6871 16.6019C43.6525 16.7983 43.6178 17.1333 43.6178 17.3297C43.6178 17.8034 43.433 17.9767 42.9363 17.9767H42.5436L42.6129 16.7867C42.6591 16.1282 42.763 14.8688 42.8554 13.9908C42.9478 13.1011 43.1096 11.3797 43.2251 10.1781C43.329 8.96496 43.4676 7.91358 43.5369 7.83271C43.6062 7.74028 43.8488 7.69407 44.1838 7.71717L44.7151 7.75183L44.8537 8.73389ZM50.1672 7.92514C50.3982 8.06378 50.5715 8.2833 50.6292 8.52592C50.687 8.73389 50.7216 9.91235 50.7216 11.137L50.7101 13.3669L50.3636 13.7019C50.1441 13.9214 49.8553 14.0601 49.5088 14.1063C49.22 14.1525 48.9659 14.1987 48.9428 14.2334C48.9197 14.2565 48.9081 15.019 48.9197 15.9318C48.9543 17.815 48.8735 18.023 48.192 17.9536L47.8339 17.919L47.7992 12.9509C47.7877 10.2127 47.7992 7.91358 47.8339 7.83271C47.8685 7.74028 48.1804 7.69407 48.8388 7.69407C49.5896 7.69407 49.8784 7.74028 50.1672 7.92514ZM61.6142 12.096L61.6373 16.4401L61.9261 16.5672C62.1686 16.6827 62.2148 16.7752 62.2148 17.2142C62.2148 17.9652 62.134 18.0923 61.6835 18.0923C61.3601 18.0923 61.2677 18.0345 61.1752 17.8034C61.0828 17.5724 60.9789 17.5146 60.6324 17.503C60.3898 17.503 59.9162 17.4799 59.5812 17.4568C59.0152 17.4222 58.969 17.4337 58.8073 17.7572C58.6571 18.023 58.5532 18.0923 58.2413 18.0923C57.8948 18.0923 57.837 18.0461 57.7677 17.7341C57.6291 17.1333 57.7793 16.6596 58.1604 16.521C58.5416 16.3708 58.5301 16.4632 58.8073 11.2295C58.9113 9.39244 59.0152 7.84426 59.0499 7.7865C59.0845 7.72873 59.6736 7.70562 60.3436 7.71717L61.5795 7.75183L61.6142 12.096ZM65.1488 7.76339C65.3105 7.82116 65.3336 8.1331 65.3336 10.0741V12.3155H65.7379H66.1422V10.1319C66.1422 7.75183 66.1768 7.64785 66.8006 7.71717L67.124 7.75183V12.8354V17.919L66.7659 17.9536C66.5695 17.9767 66.3501 17.919 66.2808 17.8265C66.1884 17.7226 66.1422 16.8907 66.1191 15.4234C66.0844 13.2513 66.0728 13.182 65.8534 13.2167C65.322 13.2975 65.3336 13.2398 65.3336 15.5967V17.8612L65.0564 17.9305C64.8946 17.9652 64.6752 17.9767 64.5597 17.9536C64.3633 17.919 64.3518 17.6532 64.3171 12.9509C64.3056 10.2127 64.3171 7.91358 64.3518 7.83271C64.4095 7.68251 64.8369 7.64785 65.1488 7.76339ZM70.416 7.91358C70.4738 8.04067 70.5315 8.88408 70.5315 9.81992V11.5067H70.8203C71.2708 11.5067 71.9869 11.8418 72.1371 12.1306C72.3104 12.4426 72.3912 16.5672 72.2411 17.1449C72.0793 17.7688 71.5826 17.9883 70.416 17.9536L69.4342 17.919L69.3995 12.9509C69.388 10.2127 69.3995 7.91358 69.4342 7.83271C69.5266 7.60163 70.2774 7.6594 70.416 7.91358ZM73.812 7.87892C73.8466 7.9829 73.8813 10.2243 73.8813 12.8816C73.8813 16.4748 73.8466 17.7341 73.7427 17.8381C73.6618 17.919 73.4655 17.9767 73.3037 17.9767C73.142 17.9767 72.9457 17.919 72.8648 17.8381C72.68 17.6532 72.6684 8.26019 72.8417 7.91358C72.9919 7.6363 73.708 7.60163 73.812 7.87892ZM76.7575 7.84426C76.8268 7.94824 76.8961 8.81476 76.9076 10.1896L76.9423 12.3733L77.3119 10.1896C77.5198 8.98806 77.7509 7.93669 77.8317 7.84426C77.901 7.75183 78.1089 7.69407 78.3169 7.71717L78.6749 7.75183V12.8354V17.919L78.3515 17.9536C77.7162 18.023 77.6931 17.9305 77.6816 15.4465L77.67 13.182L77.2888 15.4118C77.0694 16.6481 76.8383 17.7226 76.7575 17.815C76.6766 17.919 76.4687 17.9767 76.2608 17.9536L75.9027 17.919L75.8681 12.9509C75.8565 10.2127 75.8681 7.91358 75.9027 7.83271C75.972 7.64785 76.5958 7.64785 76.7575 7.84426ZM32.8754 15.7238C33.3028 15.9433 33.6955 16.1744 33.7417 16.2437C33.8341 16.3939 33.0718 17.6995 32.2748 18.7624C30.623 20.9576 28.2781 22.5982 26.3029 22.9679C25.4713 23.1296 25.4597 23.1527 25.6099 24.6547C25.8062 26.665 26.2336 27.8781 26.8689 28.2016C27.1923 28.375 27.2617 28.3634 28.1395 28.0283C29.156 27.6355 30.4382 26.8268 30.519 26.5379C30.5537 26.434 30.7385 26.0296 30.9349 25.6252C31.5355 24.389 32.7137 23.2683 34.2153 22.4942C35.3127 21.9281 36.2367 21.5583 36.5255 21.5583C36.7681 21.5583 36.8027 21.6161 36.8027 21.9743C36.8027 22.6559 36.4447 23.0719 35.3358 23.7304C33.7995 24.6316 32.9678 25.579 32.5866 26.9076C32.4018 27.5431 32.4942 28.2016 32.783 28.3981C33.2566 28.6869 34.2846 28.3172 34.8737 27.624C35.4513 26.9539 35.5899 26.5148 35.5668 25.3826L35.5321 24.2965L35.9249 23.9268C36.5486 23.3492 37.3803 22.8986 37.5304 23.0488C37.6229 23.1412 37.6691 23.7189 37.6691 24.7125C37.6691 26.1913 37.6575 26.2607 37.2994 27.0001C36.8143 27.9821 35.6592 29.1375 34.6427 29.6574C33.8341 30.0618 32.7599 30.2235 31.8936 30.0618C31.3853 29.9578 30.7616 29.4263 30.5652 28.9295C30.4728 28.7216 30.392 28.5252 30.3804 28.502C30.3573 28.4789 29.9646 28.6985 29.5025 28.9873C28.2088 29.796 27.4234 30.108 26.6841 30.108C25.9102 30.108 25.5637 29.9347 24.9168 29.2415C24.0043 28.2479 23.5538 26.8845 23.4152 24.7356L23.3459 23.4647L21.6248 26.873C20.6892 28.7447 19.9037 30.3044 19.8806 30.3275C19.7535 30.443 18.945 30.1658 18.7024 29.9116C18.4252 29.6458 18.4136 29.565 18.4714 28.8718C18.5176 28.2132 18.6677 27.8435 19.8113 25.5674C20.5043 24.1579 21.2898 22.6328 21.5324 22.1938C21.7749 21.7432 22.1792 21.0153 22.4218 20.5763C22.803 19.86 23.5884 18.4504 23.8657 17.9767C23.9234 17.8843 24.1544 17.4337 24.3855 16.9947C24.9861 15.8509 25.0323 15.8162 25.5059 16.082C25.9679 16.3592 26.2914 16.96 26.2914 17.5377C26.2914 17.9767 25.7138 19.2014 24.7551 20.8074C24.5356 21.1886 24.3739 21.5352 24.4086 21.5815C24.501 21.7432 26.0141 21.6854 26.5108 21.5006C28.2204 20.8998 30.75 18.2771 31.4431 16.4055C31.6279 15.9318 31.9398 15.3194 32.0206 15.3194C32.0437 15.3194 32.4365 15.5043 32.8754 15.7238ZM78.6518 19.1205C79.2525 19.3747 79.4604 19.6751 79.4026 20.2066L79.368 20.5763L78.0974 20.5878C76.6766 20.5994 75.9836 20.7149 74.2278 21.2695C72.6915 21.7548 72.0678 21.8472 71.6866 21.6392C71.5249 21.5583 71.3978 21.4197 71.3978 21.3388C71.3978 21.1309 74.5397 19.5018 75.5562 19.1783C76.6189 18.8317 77.9357 18.8202 78.6518 19.1205ZM91.3694 20.2412C91.4734 20.2759 91.5542 20.3799 91.5542 20.4723C91.5542 20.5647 91.2308 21.2695 90.8381 22.0552C90.4454 22.8292 89.9833 23.7651 89.7985 24.1348L89.4751 24.8049L90.249 24.1117C91.5196 22.9679 93.0443 22.3093 93.7836 22.5866C93.9337 22.6444 94.1301 22.8639 94.211 23.0719C94.5459 23.8806 94.338 24.6085 93.1714 26.6419C92.5938 27.6471 92.4783 28.0283 92.7209 28.0283C92.7902 28.0283 93.1598 27.8897 93.541 27.7164C94.3958 27.3351 94.5806 27.4391 94.2687 28.1439C93.7951 29.1953 92.4321 30.108 91.3348 30.108C91.046 30.108 90.7457 30.0618 90.6764 30.0156C90.4107 29.8307 90.1681 29.3455 90.1681 28.9757C90.1681 28.4789 90.6764 27.2889 91.4272 26.0758C92.0625 25.0244 92.0971 24.932 91.8546 24.8396C91.4156 24.6663 90.4569 25.4635 89.348 26.9308C87.9619 28.7562 87.2111 30.1195 85.952 33.0888C85.4322 34.3135 84.9933 35.18 84.924 35.1569C84.8547 35.1222 84.4966 35.0414 84.1385 34.9605C83.4224 34.7987 83.2953 34.6716 83.5148 34.2557C83.5841 34.1055 83.792 33.5856 83.9768 33.1119C84.1616 32.6382 84.3811 32.0836 84.462 31.8988C84.9702 30.7319 85.7557 28.7793 85.721 28.7447C85.6979 28.7216 85.2821 28.9064 84.7854 29.1606C83.099 30.004 81.0429 30.3506 80.0842 29.9462C79.6683 29.7845 78.9637 29.0335 78.9637 28.7793C78.9637 28.4905 78.7327 28.4674 78.3169 28.7216C77.5198 29.2184 75.6139 30.108 75.1172 30.2235C73.5925 30.5586 73.1882 29.3108 74.2278 27.5431C74.4935 27.081 74.8054 26.561 74.9093 26.3877C75.175 25.9256 74.9902 25.8678 74.4473 26.2491C73.7773 26.7112 71.883 28.6407 71.3747 29.3801C70.9127 30.0502 70.6008 30.1542 69.9655 29.8191C69.2725 29.461 69.3187 29.1721 70.4276 27.0347C70.9473 26.0527 71.3401 25.2093 71.2939 25.1746C71.1322 25.0013 69.2378 26.873 67.9672 28.4674C67.586 28.9526 67.1586 29.4263 67.02 29.5419C66.4425 29.9925 64.9871 30.108 64.9871 29.6921C64.9871 29.5996 65.1488 29.2068 65.3451 28.8024L65.7148 28.0861L65.1488 28.5483C64.8369 28.8024 64.4904 29.0913 64.3749 29.1953C64.2478 29.3108 63.8551 29.5534 63.4854 29.7498C62.9656 30.0271 62.6769 30.108 62.1571 30.108C61.5911 30.108 61.464 30.0618 61.1637 29.7729C60.6901 29.2992 60.7132 28.7678 61.2445 27.7511L61.6488 26.9423L61.0944 27.4507C60.7941 27.728 60.332 28.1554 60.0779 28.3865C58.8882 29.4956 57.8832 30.108 57.271 30.108C56.6473 30.108 56.4625 30.0271 56.2661 29.6343C56.0235 29.1837 56.0466 28.7447 56.3469 27.9475C56.7743 26.8152 58.7495 23.0257 59.1307 22.6328C59.4888 22.2516 59.8584 22.0898 60.6092 21.9858C61.2445 21.8934 61.3716 22.032 61.0944 22.4942C60.5861 23.326 58.5185 27.5315 58.5185 27.7164C58.5185 28.0283 58.6571 27.959 59.5466 27.2196C60.5861 26.3415 61.3716 25.475 63.0003 23.3838C63.6125 22.5982 64.398 22.136 65.1488 22.136C65.5531 22.136 65.6801 22.1822 65.6801 22.3093C65.6801 22.4711 65.3567 23.1643 63.6125 26.769C62.9194 28.2132 62.9425 28.4905 63.7511 28.0746C64.2131 27.8319 66.096 26.4802 66.5233 26.0758C66.7081 25.914 67.2395 25.0244 67.7015 24.1001C68.5448 22.4364 68.7296 22.2053 69.388 22.0205C69.7691 21.905 70.647 22.1014 70.647 22.2978C70.647 22.3671 70.5777 22.5288 70.4969 22.6559C70.2312 23.0488 69.0183 25.371 69.0876 25.371C69.1107 25.371 69.619 24.932 70.2081 24.389C71.7675 22.9563 72.3566 22.5751 73.1189 22.5057C73.6734 22.4595 73.7773 22.4942 74.043 22.7484C74.5397 23.2452 74.378 24.1117 73.5579 25.2555C73.3037 25.6136 73.4655 25.5212 74.5166 24.6778C75.6486 23.7651 76.1453 23.4993 76.7459 23.4993C77.439 23.4993 77.7278 23.7882 77.7278 24.4814C77.7278 25.0129 77.1849 26.1567 76.3416 27.3813C76.1222 27.7048 75.9951 27.9937 76.0529 28.0515C76.1106 28.1092 76.5727 27.9821 77.1271 27.7626C78.906 27.0347 78.8944 27.0463 79.3795 26.0989C80.3152 24.2503 82.4636 22.4364 84.2425 21.9743C86.0098 21.5121 87.1649 22.0205 87.1649 23.2683C87.1649 24.4467 86.1137 25.6483 84.3349 26.4802C83.3184 26.9539 81.5511 27.5662 81.2046 27.5662C80.9043 27.5662 81.0544 28.1785 81.3894 28.3403C82.1518 28.7216 83.7574 28.3287 85.6055 27.3236C86.4487 26.8614 86.6797 26.6766 86.8415 26.3184C86.957 26.0873 87.3613 25.2093 87.754 24.389C88.1467 23.5571 88.6319 22.5173 88.8398 22.0783C89.4173 20.8074 90.6071 19.9524 91.3694 20.2412ZM55.0994 22.1822L55.4922 22.4711L55.9311 22.2516C56.3932 22.0089 57.1902 21.9512 57.4674 22.1245C57.606 22.2169 57.5251 22.5057 56.9591 23.7766C55.6539 26.7575 55.1341 27.8666 54.4064 29.3339L53.6671 30.8012L55.2496 30.7319C58.2182 30.5932 61.1059 31.0669 65.2758 32.3609C69.4111 33.6549 69.5843 33.7011 72.2642 34.3944C74.6437 35.0067 77.3466 35.5728 78.7558 35.7692C82.4867 36.2891 86.7144 36.0234 88.886 35.1453C91.4272 34.1171 94.107 31.6677 95.6433 28.9873C96.14 28.1092 96.3479 27.9706 96.5096 28.3981C96.9947 29.7036 96.6136 31.3211 95.5047 32.7191C93.9106 34.7179 91.4272 36.3816 88.9322 37.0979C86.2408 37.8835 81.4703 37.976 77.3466 37.3174C73.7427 36.7513 69.9309 35.7923 64.756 34.1864C62.3881 33.447 60.8287 33.031 59.5581 32.8115C58.1373 32.5573 54.8338 32.5227 53.3553 32.7538L52.281 32.9271L51.8652 33.6203C50.2711 36.2429 47.1755 40.3213 45.7432 41.6731C43.5485 43.7412 41.6541 44.1687 40.3373 42.8978C39.367 41.962 39.3555 40.5871 40.2796 38.6923C41.0073 37.1903 42.4858 35.492 43.9643 34.4521C44.7729 33.8745 46.3554 33.0079 47.4181 32.5342C48.2497 32.1761 50.9296 31.2633 51.1837 31.2633C51.2068 31.2633 51.3916 30.963 51.5995 30.5932C51.8074 30.2351 52.0384 29.8538 52.1077 29.7614C52.3272 29.4841 52.9856 28.2363 52.9394 28.1901C52.9163 28.1554 52.6737 28.3403 52.3965 28.5714C52.1308 28.814 51.7035 29.149 51.4493 29.3223C50.3289 30.0849 48.7926 30.3391 48.0303 29.8769C47.626 29.6343 47.1986 29.022 47.1986 28.6985C47.1986 28.5367 46.9098 28.6522 45.7432 29.2415C44.565 29.8538 44.1838 29.9925 43.7564 29.9925C43.0749 29.9925 42.5089 29.6574 42.2779 29.1259C42.0815 28.6522 42.1393 28.3865 42.6013 27.3582C42.9825 26.4917 42.9825 26.5264 42.7168 26.5264C42.4974 26.5264 40.3951 27.0578 40.3258 27.1272C40.3142 27.1503 40.0717 27.5778 39.7944 28.0861C39.5172 28.5945 39.1476 29.149 38.9743 29.3223C38.6278 29.6458 37.542 29.9693 37.2186 29.8423C36.9413 29.7267 36.9876 29.4841 37.4727 28.6291C37.7153 28.2016 38.1311 27.3813 38.4083 26.8152C40.1641 23.1643 40.1872 23.1412 40.7416 22.783C41.0997 22.552 42.0584 22.4942 42.2548 22.6906C42.3587 22.7946 42.2548 23.095 41.7812 24.0539C41.4578 24.7356 41.2036 25.3017 41.2267 25.3248C41.2499 25.3479 41.631 25.2901 42.07 25.2093C42.5089 25.1168 43.0287 25.0129 43.2366 24.9898C43.7564 24.9089 43.7795 24.8858 44.23 23.9615C44.6689 23.0372 44.9924 22.6444 45.4313 22.4711C45.824 22.3209 46.4247 22.344 46.6557 22.5057C46.8174 22.6444 46.7135 22.9217 45.5815 25.1977C44.8884 26.5957 44.3224 27.855 44.3109 28.0052C44.3109 28.2248 44.3571 28.2594 44.6343 28.1901C44.8075 28.1439 45.5122 27.8204 46.1937 27.4853C47.2563 26.9539 47.4643 26.8037 47.6029 26.4686C48.3306 24.7471 50.9527 22.5057 52.8701 21.9627C53.7364 21.7201 54.6143 21.8125 55.0994 22.1822Z" fill="url(#paint1_linear_1176_2922)"/>
<path d="M58.7264 2.89933C58.7033 2.92244 57.0978 2.9571 55.1688 2.96865C43.1211 3.04953 30.5537 5.11762 21.0357 8.59524C16.7503 10.1665 13.516 11.7956 10.1893 14.0832C9.45008 14.5915 7.62503 16.1859 6.98973 16.8792C6.29667 17.6417 5.38415 18.7508 5.38415 18.8548C5.38415 18.901 5.31484 19.0281 5.22243 19.1205C4.89901 19.4787 4.13664 21.154 3.87097 22.0783C3.50134 23.3723 3.50134 25.1746 3.87097 26.4686C4.1944 27.5893 4.87591 28.9757 5.59206 29.9925C6.28512 30.9745 8.42205 33.1119 9.60024 33.99C16.1034 38.8887 26.6148 42.5281 39.5634 44.3882C40.6839 44.5499 42.07 44.7233 42.636 44.781C43.2135 44.8388 44.4264 44.9543 45.3504 45.0583C49.22 45.4511 51.2068 45.532 57.6522 45.5204C63.9937 45.5204 67.1933 45.3934 70.416 45.0005C70.9589 44.9428 71.8945 44.8388 72.4952 44.781C73.0958 44.7233 73.9622 44.6193 74.4011 44.5499C74.8516 44.4922 75.5793 44.3882 76.0298 44.3189C78.0974 44.0416 82.094 43.2906 84.6468 42.6898C89.5213 41.5576 93.9337 40.1134 97.6763 38.4612C102.285 36.4047 105.427 34.3713 107.98 31.7601C109.62 30.0849 110.671 28.3634 111.226 26.4224C111.572 25.1746 111.572 23.2336 111.202 22.0205C109.863 17.5493 105.577 13.7019 98.1498 10.2821C96.3941 9.47332 96.1977 9.39244 93.9222 8.56058C92.0047 7.85582 88.3546 6.71201 87.5114 6.53871C87.2919 6.49249 86.5065 6.29608 85.7788 6.09967C84.5428 5.77617 83.099 5.46423 80.2921 4.92121C75.0479 3.9045 68.1174 3.16507 62.3881 3.01487C61.1868 2.98021 59.87 2.93399 59.4888 2.89933C59.0961 2.87623 58.7611 2.87623 58.7264 2.89933ZM77 5.79928C77.0694 5.96103 77.1156 6.21521 77.1156 6.36541C77.1156 6.67735 77.3119 6.85065 77.4736 6.6889C77.5314 6.63114 77.6238 6.35385 77.67 6.06501C77.7393 5.62598 77.7971 5.55666 78.0743 5.522C78.4901 5.47578 78.5825 5.72996 78.3977 6.41162C78.1205 7.42833 77.3812 7.77494 76.6997 7.19726C76.4341 6.96619 76.3763 6.80444 76.3301 6.21521C76.2839 5.51044 76.2839 5.49889 76.5842 5.49889C76.8037 5.49889 76.9192 5.57976 77 5.79928ZM55.3767 7.9598L55.6885 8.27174L55.7232 12.5466C55.7347 14.8919 55.7116 16.9831 55.6539 17.1911C55.4229 18.0923 53.9906 18.4158 53.2051 17.7572L52.8008 17.4222V12.8585C52.8008 8.4566 52.8124 8.2833 53.0318 8.04067C53.3668 7.6594 53.644 7.57853 54.3948 7.61319C54.9377 7.64785 55.1225 7.70562 55.3767 7.9598ZM38.5123 7.83271C38.6047 7.92514 38.6509 8.6068 38.6509 10.1434V12.3155H38.9974C39.1938 12.3155 39.3439 12.2577 39.3555 12.1653C39.3555 12.096 39.3555 11.137 39.3439 10.051C39.3208 7.83271 39.3786 7.64785 40.0832 7.71717L40.4413 7.75183V12.8354V17.919L40.0948 17.9536C39.4132 18.0114 39.4017 17.9652 39.3786 15.5852C39.367 14.3951 39.3555 13.3784 39.3439 13.3207C39.3439 13.2744 39.1938 13.2398 38.9974 13.2398H38.6509V15.4696C38.6509 17.0525 38.6162 17.7341 38.5123 17.8381C38.3506 17.9998 37.773 18.023 37.6691 17.8728C37.6229 17.7919 37.5766 10.8944 37.6113 7.83271C37.6113 7.64785 38.3275 7.64785 38.5123 7.83271ZM44.8537 8.73389C44.9231 9.27691 45.0732 10.6749 45.1656 11.8534C45.2696 13.0318 45.4197 14.8342 45.5237 15.874C45.6161 16.9138 45.6739 17.815 45.6392 17.8728C45.593 17.9305 45.3851 17.9767 45.1656 17.9767C44.692 17.9767 44.5419 17.6995 44.5419 16.8098V16.2437H44.1491C43.8026 16.2437 43.7564 16.2899 43.6871 16.6019C43.6525 16.7983 43.6178 17.1333 43.6178 17.3297C43.6178 17.8034 43.433 17.9767 42.9363 17.9767H42.5436L42.6129 16.7867C42.6591 16.1282 42.763 14.8688 42.8554 13.9908C42.9478 13.1011 43.1096 11.3797 43.2251 10.1781C43.329 8.96496 43.4676 7.91358 43.5369 7.83271C43.6062 7.74028 43.8488 7.69407 44.1838 7.71717L44.7151 7.75183L44.8537 8.73389ZM50.1672 7.92514C50.3982 8.06378 50.5715 8.2833 50.6292 8.52592C50.687 8.73389 50.7216 9.91235 50.7216 11.137L50.7101 13.3669L50.3636 13.7019C50.1441 13.9214 49.8553 14.0601 49.5088 14.1063C49.22 14.1525 48.9659 14.1987 48.9428 14.2334C48.9197 14.2565 48.9081 15.019 48.9197 15.9318C48.9543 17.815 48.8735 18.023 48.192 17.9536L47.8339 17.919L47.7992 12.9509C47.7877 10.2127 47.7992 7.91358 47.8339 7.83271C47.8685 7.74028 48.1804 7.69407 48.8388 7.69407C49.5896 7.69407 49.8784 7.74028 50.1672 7.92514ZM61.6142 12.096L61.6373 16.4401L61.9261 16.5672C62.1686 16.6827 62.2148 16.7752 62.2148 17.2142C62.2148 17.9652 62.134 18.0923 61.6835 18.0923C61.3601 18.0923 61.2677 18.0345 61.1752 17.8034C61.0828 17.5724 60.9789 17.5146 60.6324 17.503C60.3898 17.503 59.9162 17.4799 59.5812 17.4568C59.0152 17.4222 58.969 17.4337 58.8073 17.7572C58.6571 18.023 58.5532 18.0923 58.2413 18.0923C57.8948 18.0923 57.837 18.0461 57.7677 17.7341C57.6291 17.1333 57.7793 16.6596 58.1604 16.521C58.5416 16.3708 58.5301 16.4632 58.8073 11.2295C58.9113 9.39244 59.0152 7.84426 59.0499 7.7865C59.0845 7.72873 59.6736 7.70562 60.3436 7.71717L61.5795 7.75183L61.6142 12.096ZM65.1488 7.76339C65.3105 7.82116 65.3336 8.1331 65.3336 10.0741V12.3155H65.7379H66.1422V10.1319C66.1422 7.75183 66.1768 7.64785 66.8006 7.71717L67.124 7.75183V12.8354V17.919L66.7659 17.9536C66.5695 17.9767 66.3501 17.919 66.2808 17.8265C66.1884 17.7226 66.1422 16.8907 66.1191 15.4234C66.0844 13.2513 66.0728 13.182 65.8534 13.2167C65.322 13.2975 65.3336 13.2398 65.3336 15.5967V17.8612L65.0564 17.9305C64.8946 17.9652 64.6752 17.9767 64.5597 17.9536C64.3633 17.919 64.3518 17.6532 64.3171 12.9509C64.3056 10.2127 64.3171 7.91358 64.3518 7.83271C64.4095 7.68251 64.8369 7.64785 65.1488 7.76339ZM70.416 7.91358C70.4738 8.04067 70.5315 8.88408 70.5315 9.81992V11.5067H70.8203C71.2708 11.5067 71.9869 11.8418 72.1371 12.1306C72.3104 12.4426 72.3912 16.5672 72.2411 17.1449C72.0793 17.7688 71.5826 17.9883 70.416 17.9536L69.4342 17.919L69.3995 12.9509C69.388 10.2127 69.3995 7.91358 69.4342 7.83271C69.5266 7.60163 70.2774 7.6594 70.416 7.91358ZM73.812 7.87892C73.8466 7.9829 73.8813 10.2243 73.8813 12.8816C73.8813 16.4748 73.8466 17.7341 73.7427 17.8381C73.6618 17.919 73.4655 17.9767 73.3037 17.9767C73.142 17.9767 72.9457 17.919 72.8648 17.8381C72.68 17.6532 72.6684 8.26019 72.8417 7.91358C72.9919 7.6363 73.708 7.60163 73.812 7.87892ZM76.7575 7.84426C76.8268 7.94824 76.8961 8.81476 76.9076 10.1896L76.9423 12.3733L77.3119 10.1896C77.5198 8.98806 77.7509 7.93669 77.8317 7.84426C77.901 7.75183 78.1089 7.69407 78.3169 7.71717L78.6749 7.75183V12.8354V17.919L78.3515 17.9536C77.7162 18.023 77.6931 17.9305 77.6816 15.4465L77.67 13.182L77.2888 15.4118C77.0694 16.6481 76.8383 17.7226 76.7575 17.815C76.6766 17.919 76.4687 17.9767 76.2608 17.9536L75.9027 17.919L75.8681 12.9509C75.8565 10.2127 75.8681 7.91358 75.9027 7.83271C75.972 7.64785 76.5958 7.64785 76.7575 7.84426ZM32.8754 15.7238C33.3028 15.9433 33.6955 16.1744 33.7417 16.2437C33.8341 16.3939 33.0718 17.6995 32.2748 18.7624C30.623 20.9576 28.2781 22.5982 26.3029 22.9679C25.4713 23.1296 25.4597 23.1527 25.6099 24.6547C25.8062 26.665 26.2336 27.8781 26.8689 28.2016C27.1923 28.375 27.2617 28.3634 28.1395 28.0283C29.156 27.6355 30.4382 26.8268 30.519 26.5379C30.5537 26.434 30.7385 26.0296 30.9349 25.6252C31.5355 24.389 32.7137 23.2683 34.2153 22.4942C35.3127 21.9281 36.2367 21.5583 36.5255 21.5583C36.7681 21.5583 36.8027 21.6161 36.8027 21.9743C36.8027 22.6559 36.4447 23.0719 35.3358 23.7304C33.7995 24.6316 32.9678 25.579 32.5866 26.9076C32.4018 27.5431 32.4942 28.2016 32.783 28.3981C33.2566 28.6869 34.2846 28.3172 34.8737 27.624C35.4513 26.9539 35.5899 26.5148 35.5668 25.3826L35.5321 24.2965L35.9249 23.9268C36.5486 23.3492 37.3803 22.8986 37.5304 23.0488C37.6229 23.1412 37.6691 23.7189 37.6691 24.7125C37.6691 26.1913 37.6575 26.2607 37.2994 27.0001C36.8143 27.9821 35.6592 29.1375 34.6427 29.6574C33.8341 30.0618 32.7599 30.2235 31.8936 30.0618C31.3853 29.9578 30.7616 29.4263 30.5652 28.9295C30.4728 28.7216 30.392 28.5252 30.3804 28.502C30.3573 28.4789 29.9646 28.6985 29.5025 28.9873C28.2088 29.796 27.4234 30.108 26.6841 30.108C25.9102 30.108 25.5637 29.9347 24.9168 29.2415C24.0043 28.2479 23.5538 26.8845 23.4152 24.7356L23.3459 23.4647L21.6248 26.873C20.6892 28.7447 19.9037 30.3044 19.8806 30.3275C19.7535 30.443 18.945 30.1658 18.7024 29.9116C18.4252 29.6458 18.4136 29.565 18.4714 28.8718C18.5176 28.2132 18.6677 27.8435 19.8113 25.5674C20.5043 24.1579 21.2898 22.6328 21.5324 22.1938C21.7749 21.7432 22.1792 21.0153 22.4218 20.5763C22.803 19.86 23.5884 18.4504 23.8657 17.9767C23.9234 17.8843 24.1544 17.4337 24.3855 16.9947C24.9861 15.8509 25.0323 15.8162 25.5059 16.082C25.9679 16.3592 26.2914 16.96 26.2914 17.5377C26.2914 17.9767 25.7138 19.2014 24.7551 20.8074C24.5356 21.1886 24.3739 21.5352 24.4086 21.5815C24.501 21.7432 26.0141 21.6854 26.5108 21.5006C28.2204 20.8998 30.75 18.2771 31.4431 16.4055C31.6279 15.9318 31.9398 15.3194 32.0206 15.3194C32.0437 15.3194 32.4365 15.5043 32.8754 15.7238ZM78.6518 19.1205C79.2525 19.3747 79.4604 19.6751 79.4026 20.2066L79.368 20.5763L78.0974 20.5878C76.6766 20.5994 75.9836 20.7149 74.2278 21.2695C72.6915 21.7548 72.0678 21.8472 71.6866 21.6392C71.5249 21.5583 71.3978 21.4197 71.3978 21.3388C71.3978 21.1309 74.5397 19.5018 75.5562 19.1783C76.6189 18.8317 77.9357 18.8202 78.6518 19.1205ZM91.3694 20.2412C91.4734 20.2759 91.5542 20.3799 91.5542 20.4723C91.5542 20.5647 91.2308 21.2695 90.8381 22.0552C90.4454 22.8292 89.9833 23.7651 89.7985 24.1348L89.4751 24.8049L90.249 24.1117C91.5196 22.9679 93.0443 22.3093 93.7836 22.5866C93.9337 22.6444 94.1301 22.8639 94.211 23.0719C94.5459 23.8806 94.338 24.6085 93.1714 26.6419C92.5938 27.6471 92.4783 28.0283 92.7209 28.0283C92.7902 28.0283 93.1598 27.8897 93.541 27.7164C94.3958 27.3351 94.5806 27.4391 94.2687 28.1439C93.7951 29.1953 92.4321 30.108 91.3348 30.108C91.046 30.108 90.7457 30.0618 90.6764 30.0156C90.4107 29.8307 90.1681 29.3455 90.1681 28.9757C90.1681 28.4789 90.6764 27.2889 91.4272 26.0758C92.0625 25.0244 92.0971 24.932 91.8546 24.8396C91.4156 24.6663 90.4569 25.4635 89.348 26.9308C87.9619 28.7562 87.2111 30.1195 85.952 33.0888C85.4322 34.3135 84.9933 35.18 84.924 35.1569C84.8547 35.1222 84.4966 35.0414 84.1385 34.9605C83.4224 34.7987 83.2953 34.6716 83.5148 34.2557C83.5841 34.1055 83.792 33.5856 83.9768 33.1119C84.1616 32.6382 84.3811 32.0836 84.462 31.8988C84.9702 30.7319 85.7557 28.7793 85.721 28.7447C85.6979 28.7216 85.2821 28.9064 84.7854 29.1606C83.099 30.004 81.0429 30.3506 80.0842 29.9462C79.6683 29.7845 78.9637 29.0335 78.9637 28.7793C78.9637 28.4905 78.7327 28.4674 78.3169 28.7216C77.5198 29.2184 75.6139 30.108 75.1172 30.2235C73.5925 30.5586 73.1882 29.3108 74.2278 27.5431C74.4935 27.081 74.8054 26.561 74.9093 26.3877C75.175 25.9256 74.9902 25.8678 74.4473 26.2491C73.7773 26.7112 71.883 28.6407 71.3747 29.3801C70.9127 30.0502 70.6008 30.1542 69.9655 29.8191C69.2725 29.461 69.3187 29.1721 70.4276 27.0347C70.9473 26.0527 71.3401 25.2093 71.2939 25.1746C71.1322 25.0013 69.2378 26.873 67.9672 28.4674C67.586 28.9526 67.1586 29.4263 67.02 29.5419C66.4425 29.9925 64.9871 30.108 64.9871 29.6921C64.9871 29.5996 65.1488 29.2068 65.3451 28.8024L65.7148 28.0861L65.1488 28.5483C64.8369 28.8024 64.4904 29.0913 64.3749 29.1953C64.2478 29.3108 63.8551 29.5534 63.4854 29.7498C62.9656 30.0271 62.6769 30.108 62.1571 30.108C61.5911 30.108 61.464 30.0618 61.1637 29.7729C60.6901 29.2992 60.7132 28.7678 61.2445 27.7511L61.6488 26.9423L61.0944 27.4507C60.7941 27.728 60.332 28.1554 60.0779 28.3865C58.8882 29.4956 57.8832 30.108 57.271 30.108C56.6473 30.108 56.4625 30.0271 56.2661 29.6343C56.0235 29.1837 56.0466 28.7447 56.3469 27.9475C56.7743 26.8152 58.7495 23.0257 59.1307 22.6328C59.4888 22.2516 59.8584 22.0898 60.6092 21.9858C61.2445 21.8934 61.3716 22.032 61.0944 22.4942C60.5861 23.326 58.5185 27.5315 58.5185 27.7164C58.5185 28.0283 58.6571 27.959 59.5466 27.2196C60.5861 26.3415 61.3716 25.475 63.0003 23.3838C63.6125 22.5982 64.398 22.136 65.1488 22.136C65.5531 22.136 65.6801 22.1822 65.6801 22.3093C65.6801 22.4711 65.3567 23.1643 63.6125 26.769C62.9194 28.2132 62.9425 28.4905 63.7511 28.0746C64.2131 27.8319 66.096 26.4802 66.5233 26.0758C66.7081 25.914 67.2395 25.0244 67.7015 24.1001C68.5448 22.4364 68.7296 22.2053 69.388 22.0205C69.7691 21.905 70.647 22.1014 70.647 22.2978C70.647 22.3671 70.5777 22.5288 70.4969 22.6559C70.2312 23.0488 69.0183 25.371 69.0876 25.371C69.1107 25.371 69.619 24.932 70.2081 24.389C71.7675 22.9563 72.3566 22.5751 73.1189 22.5057C73.6734 22.4595 73.7773 22.4942 74.043 22.7484C74.5397 23.2452 74.378 24.1117 73.5579 25.2555C73.3037 25.6136 73.4655 25.5212 74.5166 24.6778C75.6486 23.7651 76.1453 23.4993 76.7459 23.4993C77.439 23.4993 77.7278 23.7882 77.7278 24.4814C77.7278 25.0129 77.1849 26.1567 76.3416 27.3813C76.1222 27.7048 75.9951 27.9937 76.0529 28.0515C76.1106 28.1092 76.5727 27.9821 77.1271 27.7626C78.906 27.0347 78.8944 27.0463 79.3795 26.0989C80.3152 24.2503 82.4636 22.4364 84.2425 21.9743C86.0098 21.5121 87.1649 22.0205 87.1649 23.2683C87.1649 24.4467 86.1137 25.6483 84.3349 26.4802C83.3184 26.9539 81.5511 27.5662 81.2046 27.5662C80.9043 27.5662 81.0544 28.1785 81.3894 28.3403C82.1518 28.7216 83.7574 28.3287 85.6055 27.3236C86.4487 26.8614 86.6797 26.6766 86.8415 26.3184C86.957 26.0873 87.3613 25.2093 87.754 24.389C88.1467 23.5571 88.6319 22.5173 88.8398 22.0783C89.4173 20.8074 90.6071 19.9524 91.3694 20.2412ZM55.0994 22.1822L55.4922 22.4711L55.9311 22.2516C56.3932 22.0089 57.1902 21.9512 57.4674 22.1245C57.606 22.2169 57.5251 22.5057 56.9591 23.7766C55.6539 26.7575 55.1341 27.8666 54.4064 29.3339L53.6671 30.8012L55.2496 30.7319C58.2182 30.5932 61.1059 31.0669 65.2758 32.3609C69.4111 33.6549 69.5843 33.7011 72.2642 34.3944C74.6437 35.0067 77.3466 35.5728 78.7558 35.7692C82.4867 36.2891 86.7144 36.0234 88.886 35.1453C91.4272 34.1171 94.107 31.6677 95.6433 28.9873C96.14 28.1092 96.3479 27.9706 96.5096 28.3981C96.9947 29.7036 96.6136 31.3211 95.5047 32.7191C93.9106 34.7179 91.4272 36.3816 88.9322 37.0979C86.2408 37.8835 81.4703 37.976 77.3466 37.3174C73.7427 36.7513 69.9309 35.7923 64.756 34.1864C62.3881 33.447 60.8287 33.031 59.5581 32.8115C58.1373 32.5573 54.8338 32.5227 53.3553 32.7538L52.281 32.9271L51.8652 33.6203C50.2711 36.2429 47.1755 40.3213 45.7432 41.6731C43.5485 43.7412 41.6541 44.1687 40.3373 42.8978C39.367 41.962 39.3555 40.5871 40.2796 38.6923C41.0073 37.1903 42.4858 35.492 43.9643 34.4521C44.7729 33.8745 46.3554 33.0079 47.4181 32.5342C48.2497 32.1761 50.9296 31.2633 51.1837 31.2633C51.2068 31.2633 51.3916 30.963 51.5995 30.5932C51.8074 30.2351 52.0384 29.8538 52.1077 29.7614C52.3272 29.4841 52.9856 28.2363 52.9394 28.1901C52.9163 28.1554 52.6737 28.3403 52.3965 28.5714C52.1308 28.814 51.7035 29.149 51.4493 29.3223C50.3289 30.0849 48.7926 30.3391 48.0303 29.8769C47.626 29.6343 47.1986 29.022 47.1986 28.6985C47.1986 28.5367 46.9098 28.6522 45.7432 29.2415C44.565 29.8538 44.1838 29.9925 43.7564 29.9925C43.0749 29.9925 42.5089 29.6574 42.2779 29.1259C42.0815 28.6522 42.1393 28.3865 42.6013 27.3582C42.9825 26.4917 42.9825 26.5264 42.7168 26.5264C42.4974 26.5264 40.3951 27.0578 40.3258 27.1272C40.3142 27.1503 40.0717 27.5778 39.7944 28.0861C39.5172 28.5945 39.1476 29.149 38.9743 29.3223C38.6278 29.6458 37.542 29.9693 37.2186 29.8423C36.9413 29.7267 36.9876 29.4841 37.4727 28.6291C37.7153 28.2016 38.1311 27.3813 38.4083 26.8152C40.1641 23.1643 40.1872 23.1412 40.7416 22.783C41.0997 22.552 42.0584 22.4942 42.2548 22.6906C42.3587 22.7946 42.2548 23.095 41.7812 24.0539C41.4578 24.7356 41.2036 25.3017 41.2267 25.3248C41.2499 25.3479 41.631 25.2901 42.07 25.2093C42.5089 25.1168 43.0287 25.0129 43.2366 24.9898C43.7564 24.9089 43.7795 24.8858 44.23 23.9615C44.6689 23.0372 44.9924 22.6444 45.4313 22.4711C45.824 22.3209 46.4247 22.344 46.6557 22.5057C46.8174 22.6444 46.7135 22.9217 45.5815 25.1977C44.8884 26.5957 44.3224 27.855 44.3109 28.0052C44.3109 28.2248 44.3571 28.2594 44.6343 28.1901C44.8075 28.1439 45.5122 27.8204 46.1937 27.4853C47.2563 26.9539 47.4643 26.8037 47.6029 26.4686C48.3306 24.7471 50.9527 22.5057 52.8701 21.9627C53.7364 21.7201 54.6143 21.8125 55.0994 22.1822Z" fill="#E6EEF1" fill-opacity="0.45"/>
<path d="M53.953 8.64355C53.9184 8.72443 53.9068 10.6654 53.9184 12.953L53.953 17.1123L54.2765 17.147L54.5883 17.1816L54.5652 12.8722L54.5306 8.56268L54.2649 8.52802C54.1263 8.50491 53.9877 8.56268 53.953 8.64355Z" fill="url(#paint2_linear_1176_2922)"/>
<path d="M53.953 8.64355C53.9184 8.72443 53.9068 10.6654 53.9184 12.953L53.953 17.1123L54.2765 17.147L54.5883 17.1816L54.5652 12.8722L54.5306 8.56268L54.2649 8.52802C54.1263 8.50491 53.9877 8.56268 53.953 8.64355Z" fill="#E6EEF1" fill-opacity="0.45"/>
<path d="M44.0435 11.7387C43.9973 12.0853 43.928 13.0327 43.8818 13.8415L43.8125 15.3203H44.1128C44.4131 15.3203 44.4247 15.2857 44.4131 14.7657C44.4131 14.4653 44.3438 13.518 44.263 12.663C44.1359 11.2072 44.1244 11.1495 44.0435 11.7387Z" fill="url(#paint3_linear_1176_2922)"/>
<path d="M44.0435 11.7387C43.9973 12.0853 43.928 13.0327 43.8818 13.8415L43.8125 15.3203H44.1128C44.4131 15.3203 44.4247 15.2857 44.4131 14.7657C44.4131 14.4653 44.3438 13.518 44.263 12.663C44.1359 11.2072 44.1244 11.1495 44.0435 11.7387Z" fill="#E6EEF1" fill-opacity="0.45"/>
<path d="M48.9227 8.87337C48.9112 9.30086 48.9112 12.5705 48.9227 12.9287C48.9343 13.2175 48.9689 13.2522 49.2577 13.2175L49.5696 13.1829V10.9299V8.67696L49.2577 8.6423C48.992 8.60764 48.9343 8.65386 48.9227 8.87337Z" fill="url(#paint4_linear_1176_2922)"/>
<path d="M48.9227 8.87337C48.9112 9.30086 48.9112 12.5705 48.9227 12.9287C48.9343 13.2175 48.9689 13.2522 49.2577 13.2175L49.5696 13.1829V10.9299V8.67696L49.2577 8.6423C48.992 8.60764 48.9343 8.65386 48.9227 8.87337Z" fill="#E6EEF1" fill-opacity="0.45"/>
<path d="M60.0164 8.9876C60.0164 9.49595 59.693 14.6951 59.6006 15.7464L59.5312 16.5898H60.0626H60.5939V12.6039V8.61788H60.3052C60.051 8.61788 60.0164 8.67565 60.0164 8.9876Z" fill="url(#paint5_linear_1176_2922)"/>
<path d="M60.0164 8.9876C60.0164 9.49595 59.693 14.6951 59.6006 15.7464L59.5312 16.5898H60.0626H60.5939V12.6039V8.61788H60.3052C60.051 8.61788 60.0164 8.67565 60.0164 8.9876Z" fill="#E6EEF1" fill-opacity="0.45"/>
<path d="M70.5312 14.7518V17.0625L70.8547 17.0278L71.1666 16.9932L71.2012 14.8096C71.2359 12.5219 71.2128 12.4411 70.7392 12.4295C70.5428 12.4295 70.5312 12.6144 70.5312 14.7518Z" fill="url(#paint6_linear_1176_2922)"/>
<path d="M70.5312 14.7518V17.0625L70.8547 17.0278L71.1666 16.9932L71.2012 14.8096C71.2359 12.5219 71.2128 12.4411 70.7392 12.4295C70.5428 12.4295 70.5312 12.6144 70.5312 14.7518Z" fill="#E6EEF1" fill-opacity="0.45"/>
<path d="M83.8833 23.697C83.0632 24.1938 81.5731 25.8228 81.7579 26.0192C81.7926 26.0539 82.2661 25.8691 82.809 25.6264C83.9757 25.0834 84.9691 24.2053 84.9691 23.7201C84.9691 23.4544 84.9229 23.4081 84.6572 23.4081C84.4724 23.4081 84.1258 23.5352 83.8833 23.697Z" fill="url(#paint7_linear_1176_2922)"/>
<path d="M83.8833 23.697C83.0632 24.1938 81.5731 25.8228 81.7579 26.0192C81.7926 26.0539 82.2661 25.8691 82.809 25.6264C83.9757 25.0834 84.9691 24.2053 84.9691 23.7201C84.9691 23.4544 84.9229 23.4081 84.6572 23.4081C84.4724 23.4081 84.1258 23.5352 83.8833 23.697Z" fill="#E6EEF1" fill-opacity="0.45"/>
<path d="M53.2873 23.4194C52.3632 23.7313 51.7857 24.1242 50.8962 25.0138C49.6718 26.25 49.0365 27.8098 49.5679 28.2603C50.2725 28.838 53.5992 26.0652 54.6387 24.0202C54.8236 23.662 54.812 23.6274 54.5925 23.4078C54.3038 23.119 54.1305 23.119 53.2873 23.4194Z" fill="url(#paint8_linear_1176_2922)"/>
<path d="M53.2873 23.4194C52.3632 23.7313 51.7857 24.1242 50.8962 25.0138C49.6718 26.25 49.0365 27.8098 49.5679 28.2603C50.2725 28.838 53.5992 26.0652 54.6387 24.0202C54.8236 23.662 54.812 23.6274 54.5925 23.4078C54.3038 23.119 54.1305 23.119 53.2873 23.4194Z" fill="#E6EEF1" fill-opacity="0.45"/>
<path d="M48.2849 34.1281C45.4549 35.3065 43.6183 36.7623 42.417 38.761C41.3081 40.5981 41.6546 41.5339 43.2833 41.0833C44.1728 40.8291 46.4829 38.322 48.6545 35.2256C49.4284 34.1281 49.6595 33.689 49.4862 33.689C49.4053 33.689 48.8624 33.897 48.2849 34.1281Z" fill="url(#paint9_linear_1176_2922)"/>
<path d="M48.2849 34.1281C45.4549 35.3065 43.6183 36.7623 42.417 38.761C41.3081 40.5981 41.6546 41.5339 43.2833 41.0833C44.1728 40.8291 46.4829 38.322 48.6545 35.2256C49.4284 34.1281 49.6595 33.689 49.4862 33.689C49.4053 33.689 48.8624 33.897 48.2849 34.1281Z" fill="#E6EEF1" fill-opacity="0.45"/>
<defs>
<linearGradient id="paint0_linear_1176_2922" x1="1.55899" y1="24.2356" x2="114.24" y2="24.2356" gradientUnits="userSpaceOnUse">
<stop stop-color="#3793AE"/>
<stop offset="1" stop-color="#074287"/>
</linearGradient>
<linearGradient id="paint1_linear_1176_2922" x1="4.35175" y1="24.2017" x2="111.483" y2="24.2017" gradientUnits="userSpaceOnUse">
<stop stop-color="#3793AE"/>
<stop offset="1" stop-color="#074287"/>
</linearGradient>
<linearGradient id="paint2_linear_1176_2922" x1="53.9188" y1="12.8523" x2="54.5883" y2="12.8523" gradientUnits="userSpaceOnUse">
<stop stop-color="#3793AE"/>
<stop offset="1" stop-color="#074287"/>
</linearGradient>
<linearGradient id="paint3_linear_1176_2922" x1="43.8167" y1="13.3543" x2="44.4159" y2="13.3543" gradientUnits="userSpaceOnUse">
<stop stop-color="#3793AE"/>
<stop offset="1" stop-color="#074287"/>
</linearGradient>
<linearGradient id="paint4_linear_1176_2922" x1="48.9187" y1="10.9302" x2="49.5696" y2="10.9302" gradientUnits="userSpaceOnUse">
<stop stop-color="#3793AE"/>
<stop offset="1" stop-color="#074287"/>
</linearGradient>
<linearGradient id="paint5_linear_1176_2922" x1="59.5387" y1="12.6039" x2="60.5939" y2="12.6039" gradientUnits="userSpaceOnUse">
<stop stop-color="#3793AE"/>
<stop offset="1" stop-color="#074287"/>
</linearGradient>
<linearGradient id="paint6_linear_1176_2922" x1="70.536" y1="14.746" x2="71.212" y2="14.746" gradientUnits="userSpaceOnUse">
<stop stop-color="#3793AE"/>
<stop offset="1" stop-color="#074287"/>
</linearGradient>
<linearGradient id="paint7_linear_1176_2922" x1="81.7649" y1="24.7158" x2="84.9691" y2="24.7158" gradientUnits="userSpaceOnUse">
<stop stop-color="#3793AE"/>
<stop offset="1" stop-color="#074287"/>
</linearGradient>
<linearGradient id="paint8_linear_1176_2922" x1="49.4168" y1="25.7653" x2="54.768" y2="25.7653" gradientUnits="userSpaceOnUse">
<stop stop-color="#3793AE"/>
<stop offset="1" stop-color="#074287"/>
</linearGradient>
<linearGradient id="paint9_linear_1176_2922" x1="41.828" y1="37.4422" x2="49.5406" y2="37.4422" gradientUnits="userSpaceOnUse">
<stop stop-color="#3793AE"/>
<stop offset="1" stop-color="#074287"/>
</linearGradient>
</defs>
</svg>
