<svg width="111" height="42" viewBox="0 0 111 42" fill="none" xmlns="http://www.w3.org/2000/svg">
<path fill-rule="evenodd" clip-rule="evenodd" d="M48.3155 1.51077C40.0366 3.07031 33.6437 6.18389 28.76 11.0355C26.25 13.5292 26.2387 14.0482 28.6767 14.8791C28.9802 14.983 29.2288 15.8358 29.2288 16.7748C29.2288 18.217 29.437 18.4273 30.5696 18.1333C31.3072 17.9413 33.1881 17.7695 34.7498 17.7518L37.5891 17.7188L35.854 16.8066C34.7453 16.224 34.1283 15.4048 34.1453 14.5385C34.1857 12.4532 37.5481 7.19322 39.5899 6.02066C43.0009 4.06191 49.2601 2.90524 56.5181 2.8918C66.9379 2.87345 72.9219 5.05413 75.7291 9.89293C77.1671 12.3719 77.458 16.2931 76.2358 16.7162C75.1139 17.1044 75.7588 17.5586 78.1287 18.0507C79.8708 18.412 80.1793 18.3032 80.1793 17.3269C80.1793 15.7019 81.4084 14.7109 83.4231 14.7109C86.2215 14.7109 86.1085 13.6784 82.9896 10.7415C74.8092 3.03852 60.4705 -0.778725 48.3155 1.51077ZM85.5425 16.9894C83.4326 17.2804 81.8066 18.379 83.4862 18.379C85.1942 18.379 85.2586 19.1817 84.068 25.6418L82.9278 31.8286H85.0239C86.6694 31.8286 87.1199 31.5768 87.1199 30.6561C87.1199 29.1289 87.7566 27.5492 88.3718 27.5492C88.6387 27.5492 89.4917 28.9932 90.2666 30.7588C92.102 34.9398 93.229 36.108 95.4266 36.108H97.228L94.3855 30.6237L91.5424 25.1399L93.4977 22.9818L95.4531 20.8244H93.8296C92.7564 20.8244 91.7304 21.4468 90.806 22.6584C90.0363 23.6672 89.1441 24.4925 88.8242 24.4925C88.2916 24.4925 88.3964 23.4617 89.4602 18.2262C89.8255 16.4258 89.7662 16.4068 85.5425 16.9894ZM6.00611 18.0941C7.16267 18.9421 7.18728 19.2636 6.43895 23.7301C5.99727 26.3669 5.09562 29.2115 4.40472 30.1474L3.16361 31.8286H4.69244C6.44021 31.8286 6.77715 31.2099 7.36332 26.9317C7.7501 24.1061 8.51167 22.7092 9.26631 23.4404C9.43288 23.6011 10.0569 25.4859 10.6538 27.6281C11.2501 29.7702 11.9593 31.4618 12.2287 31.3872C12.4981 31.3127 13.9134 29.5373 15.3741 27.4422C16.8341 25.3471 18.3131 23.7576 18.6601 23.9099C19.3567 24.2155 19.3548 24.0835 18.7321 28.66L18.2898 31.9099L20.3682 31.7168L22.4459 31.523L23.3924 25.1515C23.964 21.3055 24.6512 18.6804 25.1275 18.5288C26.8791 17.97 25.7522 17.1569 23.2346 17.1631C20.6092 17.1692 20.4931 17.259 17.7137 21.4351C16.152 23.7815 14.5942 25.6137 14.2522 25.5073C13.9102 25.4003 13.0887 23.4783 12.4262 21.2346L11.2229 17.1563L8.00059 17.1759C5.02811 17.1936 4.87352 17.2645 6.00611 18.0941ZM55.8871 19.6017C55.6726 19.938 55.7811 20.2131 56.1282 20.2131C56.4752 20.2131 56.9345 19.938 57.1491 19.6017C57.3636 19.2655 57.2551 18.9904 56.908 18.9904C56.561 18.9904 56.1017 19.2655 55.8871 19.6017ZM42.1636 20.0394C40.3578 20.3048 39.7186 21.4357 41.3749 21.4357C42.5845 21.4357 42.5845 24.0554 41.3749 29.3832C40.007 35.4074 40.0966 36.108 42.2299 36.108C43.7221 36.108 44.1322 35.7663 44.6174 34.1212C45.0478 32.6594 45.6144 32.0866 46.7589 31.9527C51.1473 31.4423 53.6857 29.0085 53.8441 25.1619C53.9848 21.7335 52.7884 20.6086 49.4702 21.0494C47.2732 21.3416 46.8542 21.2426 47.147 20.5034C47.5142 19.5754 46.1753 19.4507 42.1636 20.0394ZM29.5481 21.8973C27.6798 23.0191 25.9162 26.0318 25.9162 28.1C25.9162 32.8966 35.3593 33.0746 37.9816 28.3274C39.0283 26.4311 39.0145 23.0369 37.9538 21.7983C36.8288 20.4857 31.7994 20.5444 29.5481 21.8973ZM59.5556 22.0165C57.0159 23.5168 56.2026 24.9926 56.2026 28.0988C56.2026 31.1953 57.65 32.0842 62.0296 31.6764C65.9807 31.309 68.1417 29.3857 68.6383 25.7946C68.9071 23.8555 68.7203 22.9519 67.8629 22.0336C66.3744 20.4399 62.2384 20.4313 59.5556 22.0165ZM71.5035 21.2291C71.0701 21.3991 70.7148 21.8826 70.7148 22.3039C70.7148 22.8046 71.6354 23.0515 73.3769 23.0167C76.75 22.9501 77.4314 24.5389 74.5296 25.7036C72.25 26.6181 72.1389 27.0522 73.9757 27.8628C77.5286 29.4297 76.4875 32.9462 71.9206 34.8041C69.0642 35.9656 68.8371 36.5464 71.0303 37.0795C74.4299 37.9066 78.5893 35.795 79.9982 32.5286C80.8343 30.5894 80.8046 30.2874 79.6285 28.7462C78.3621 27.0864 78.3615 27.0614 79.5805 25.9927C82.3675 23.5492 79.9806 20.7908 75.1486 20.8727C73.5775 20.899 71.9376 21.0598 71.5035 21.2291ZM98.8345 22.7049C96.1238 25.0109 95.3256 28.0578 96.8438 30.3027C97.7031 31.5743 98.3726 31.828 100.858 31.8262C104.972 31.8231 107.686 30.1291 108.548 27.0253C109.308 24.2907 108.649 21.8295 106.992 21.2132C104.329 20.2235 101.046 20.8238 98.8345 22.7049ZM34.7498 23.8689C34.7498 26.8663 32.9118 30.6059 31.4385 30.6059C30.2731 30.6059 30.191 30.3321 30.5286 27.5669C30.9943 23.7576 31.918 22.0471 33.5099 22.0471C34.4652 22.0471 34.7498 22.4653 34.7498 23.8689ZM64.4052 24.523C64.4052 28.7102 61.3494 32.5494 60.242 29.7531C59.8458 28.7523 61.0844 23.9178 62.0201 22.8113C63.3596 21.2279 64.4052 21.978 64.4052 24.523ZM104.684 23.8133C105.04 26.244 102.991 30.6059 101.492 30.6059C100.306 30.6059 100.226 30.3431 100.566 27.5669C100.77 25.8949 101.255 23.9527 101.643 23.2502C102.553 21.602 104.41 21.9462 104.684 23.8133ZM49.3554 24.1416C50.5529 26.6884 48.7124 30.6059 46.3185 30.6059C45.5235 30.6059 45.4345 30.0514 45.803 27.3964C46.4561 22.6902 48.0057 21.2707 49.3554 24.1416ZM109.982 30.2324C109.015 32.2871 105.863 34.1346 102.486 34.6249C100.465 34.919 99.9159 35.232 100.194 35.9332C100.703 37.2189 104.792 36.6228 107.291 34.8994C109.298 33.5147 111.336 30.3834 110.953 29.2726C110.832 28.9211 110.395 29.3527 109.982 30.2324ZM68.3733 31.8164C64.7112 35.0449 58.7246 35.6477 55.494 33.1131C54.1059 32.0243 54.0068 32.0249 52.136 33.1302C51.076 33.7568 49.7213 34.2703 49.1263 34.2716C48.2076 34.2734 46.7381 35.9234 46.7381 36.9529C46.7381 37.3998 50.5807 36.0671 52.1941 35.0608C53.3841 34.3186 53.8068 34.3682 55.6644 35.4655C58.806 37.321 66.2981 37.0721 66.2981 35.1122C66.2981 34.6427 67.8597 33.5893 69.7684 32.7713C73.3605 31.2326 74.2905 29.9811 71.819 30.0123C71.0385 30.0221 69.4876 30.834 68.3733 31.8164ZM13.7777 34.2306C12.3498 35.0229 11.828 35.0541 10.7661 34.4116C9.84995 33.8577 9.13633 33.8137 8.27632 34.2599C6.71847 35.0681 2.83172 35.0639 1.26692 34.2526C-0.152751 33.5166 -0.480222 34.7417 0.803794 35.9858C1.6821 36.8368 6.88504 36.9566 8.19114 36.1557C8.7281 35.8262 9.66445 35.869 10.5573 36.2633C11.6305 36.7371 12.4861 36.7163 13.6831 36.1881C14.9065 35.6483 15.5514 35.6379 16.1855 36.1478C16.7231 36.58 18.3945 36.7053 20.6893 36.4852C25.7339 36.0011 25.8298 36.0011 29.4705 36.4559C33.1313 36.9138 36.9506 35.9711 37.5481 34.4629C38.1033 33.0605 37.8301 33.0067 35.0413 33.969C31.889 35.0565 29.2004 35.092 27.1782 34.0717C25.862 33.4071 25.3641 33.4212 24.171 34.1572C22.6087 35.1207 16.6385 34.9031 15.911 33.8565C15.6681 33.5068 14.8131 33.6566 13.7777 34.2306ZM81.3933 35.8617C77.6952 39.7009 71.2032 40.9805 67.9607 38.5088C66.257 37.2109 65.811 37.752 66.924 39.7676C68.9058 43.3549 77.6271 42.0895 81.4166 37.6651C81.9523 37.0397 83.3083 36.7194 85.4163 36.7194C88.2361 36.7194 88.8015 36.9474 90.3006 38.6867C91.8509 40.4865 92.3122 40.6565 95.6941 40.6736C98.4874 40.6883 99.4377 40.4688 99.5809 39.7761C99.7304 39.0498 99.0225 38.8518 96.1812 38.8249C92.8478 38.7931 92.4503 38.6305 90.5783 36.5323C88.816 34.5571 88.2102 34.274 85.7432 34.274C83.5203 34.274 82.5991 34.6103 81.3933 35.8617ZM37.3809 39.2699C37.5689 40.5531 37.9595 40.7115 41.3572 40.8808C44.3651 41.03 45.2882 40.8527 45.9317 39.9993C47.1022 38.4483 46.9205 37.8045 45.5178 38.532C43.9272 39.3567 40.0574 39.3427 38.4441 38.5057C37.3228 37.925 37.1973 38.0148 37.3809 39.2699Z" fill="url(#paint0_linear_1176_2962)"/>
<path fill-rule="evenodd" clip-rule="evenodd" d="M48.3155 1.51077C40.0366 3.07031 33.6437 6.18389 28.76 11.0355C26.25 13.5292 26.2387 14.0482 28.6767 14.8791C28.9802 14.983 29.2288 15.8358 29.2288 16.7748C29.2288 18.217 29.437 18.4273 30.5696 18.1333C31.3072 17.9413 33.1881 17.7695 34.7498 17.7518L37.5891 17.7188L35.854 16.8066C34.7453 16.224 34.1283 15.4048 34.1453 14.5385C34.1857 12.4532 37.5481 7.19322 39.5899 6.02066C43.0009 4.06191 49.2601 2.90524 56.5181 2.8918C66.9379 2.87345 72.9219 5.05413 75.7291 9.89293C77.1671 12.3719 77.458 16.2931 76.2358 16.7162C75.1139 17.1044 75.7588 17.5586 78.1287 18.0507C79.8708 18.412 80.1793 18.3032 80.1793 17.3269C80.1793 15.7019 81.4084 14.7109 83.4231 14.7109C86.2215 14.7109 86.1085 13.6784 82.9896 10.7415C74.8092 3.03852 60.4705 -0.778725 48.3155 1.51077ZM85.5425 16.9894C83.4326 17.2804 81.8066 18.379 83.4862 18.379C85.1942 18.379 85.2586 19.1817 84.068 25.6418L82.9278 31.8286H85.0239C86.6694 31.8286 87.1199 31.5768 87.1199 30.6561C87.1199 29.1289 87.7566 27.5492 88.3718 27.5492C88.6387 27.5492 89.4917 28.9932 90.2666 30.7588C92.102 34.9398 93.229 36.108 95.4266 36.108H97.228L94.3855 30.6237L91.5424 25.1399L93.4977 22.9818L95.4531 20.8244H93.8296C92.7564 20.8244 91.7304 21.4468 90.806 22.6584C90.0363 23.6672 89.1441 24.4925 88.8242 24.4925C88.2916 24.4925 88.3964 23.4617 89.4602 18.2262C89.8255 16.4258 89.7662 16.4068 85.5425 16.9894ZM6.00611 18.0941C7.16267 18.9421 7.18728 19.2636 6.43895 23.7301C5.99727 26.3669 5.09562 29.2115 4.40472 30.1474L3.16361 31.8286H4.69244C6.44021 31.8286 6.77715 31.2099 7.36332 26.9317C7.7501 24.1061 8.51167 22.7092 9.26631 23.4404C9.43288 23.6011 10.0569 25.4859 10.6538 27.6281C11.2501 29.7702 11.9593 31.4618 12.2287 31.3872C12.4981 31.3127 13.9134 29.5373 15.3741 27.4422C16.8341 25.3471 18.3131 23.7576 18.6601 23.9099C19.3567 24.2155 19.3548 24.0835 18.7321 28.66L18.2898 31.9099L20.3682 31.7168L22.4459 31.523L23.3924 25.1515C23.964 21.3055 24.6512 18.6804 25.1275 18.5288C26.8791 17.97 25.7522 17.1569 23.2346 17.1631C20.6092 17.1692 20.4931 17.259 17.7137 21.4351C16.152 23.7815 14.5942 25.6137 14.2522 25.5073C13.9102 25.4003 13.0887 23.4783 12.4262 21.2346L11.2229 17.1563L8.00059 17.1759C5.02811 17.1936 4.87352 17.2645 6.00611 18.0941ZM55.8871 19.6017C55.6726 19.938 55.7811 20.2131 56.1282 20.2131C56.4752 20.2131 56.9345 19.938 57.1491 19.6017C57.3636 19.2655 57.2551 18.9904 56.908 18.9904C56.561 18.9904 56.1017 19.2655 55.8871 19.6017ZM42.1636 20.0394C40.3578 20.3048 39.7186 21.4357 41.3749 21.4357C42.5845 21.4357 42.5845 24.0554 41.3749 29.3832C40.007 35.4074 40.0966 36.108 42.2299 36.108C43.7221 36.108 44.1322 35.7663 44.6174 34.1212C45.0478 32.6594 45.6144 32.0866 46.7589 31.9527C51.1473 31.4423 53.6857 29.0085 53.8441 25.1619C53.9848 21.7335 52.7884 20.6086 49.4702 21.0494C47.2732 21.3416 46.8542 21.2426 47.147 20.5034C47.5142 19.5754 46.1753 19.4507 42.1636 20.0394ZM29.5481 21.8973C27.6798 23.0191 25.9162 26.0318 25.9162 28.1C25.9162 32.8966 35.3593 33.0746 37.9816 28.3274C39.0283 26.4311 39.0145 23.0369 37.9538 21.7983C36.8288 20.4857 31.7994 20.5444 29.5481 21.8973ZM59.5556 22.0165C57.0159 23.5168 56.2026 24.9926 56.2026 28.0988C56.2026 31.1953 57.65 32.0842 62.0296 31.6764C65.9807 31.309 68.1417 29.3857 68.6383 25.7946C68.9071 23.8555 68.7203 22.9519 67.8629 22.0336C66.3744 20.4399 62.2384 20.4313 59.5556 22.0165ZM71.5035 21.2291C71.0701 21.3991 70.7148 21.8826 70.7148 22.3039C70.7148 22.8046 71.6354 23.0515 73.3769 23.0167C76.75 22.9501 77.4314 24.5389 74.5296 25.7036C72.25 26.6181 72.1389 27.0522 73.9757 27.8628C77.5286 29.4297 76.4875 32.9462 71.9206 34.8041C69.0642 35.9656 68.8371 36.5464 71.0303 37.0795C74.4299 37.9066 78.5893 35.795 79.9982 32.5286C80.8343 30.5894 80.8046 30.2874 79.6285 28.7462C78.3621 27.0864 78.3615 27.0614 79.5805 25.9927C82.3675 23.5492 79.9806 20.7908 75.1486 20.8727C73.5775 20.899 71.9376 21.0598 71.5035 21.2291ZM98.8345 22.7049C96.1238 25.0109 95.3256 28.0578 96.8438 30.3027C97.7031 31.5743 98.3726 31.828 100.858 31.8262C104.972 31.8231 107.686 30.1291 108.548 27.0253C109.308 24.2907 108.649 21.8295 106.992 21.2132C104.329 20.2235 101.046 20.8238 98.8345 22.7049ZM34.7498 23.8689C34.7498 26.8663 32.9118 30.6059 31.4385 30.6059C30.2731 30.6059 30.191 30.3321 30.5286 27.5669C30.9943 23.7576 31.918 22.0471 33.5099 22.0471C34.4652 22.0471 34.7498 22.4653 34.7498 23.8689ZM64.4052 24.523C64.4052 28.7102 61.3494 32.5494 60.242 29.7531C59.8458 28.7523 61.0844 23.9178 62.0201 22.8113C63.3596 21.2279 64.4052 21.978 64.4052 24.523ZM104.684 23.8133C105.04 26.244 102.991 30.6059 101.492 30.6059C100.306 30.6059 100.226 30.3431 100.566 27.5669C100.77 25.8949 101.255 23.9527 101.643 23.2502C102.553 21.602 104.41 21.9462 104.684 23.8133ZM49.3554 24.1416C50.5529 26.6884 48.7124 30.6059 46.3185 30.6059C45.5235 30.6059 45.4345 30.0514 45.803 27.3964C46.4561 22.6902 48.0057 21.2707 49.3554 24.1416ZM109.982 30.2324C109.015 32.2871 105.863 34.1346 102.486 34.6249C100.465 34.919 99.9159 35.232 100.194 35.9332C100.703 37.2189 104.792 36.6228 107.291 34.8994C109.298 33.5147 111.336 30.3834 110.953 29.2726C110.832 28.9211 110.395 29.3527 109.982 30.2324ZM68.3733 31.8164C64.7112 35.0449 58.7246 35.6477 55.494 33.1131C54.1059 32.0243 54.0068 32.0249 52.136 33.1302C51.076 33.7568 49.7213 34.2703 49.1263 34.2716C48.2076 34.2734 46.7381 35.9234 46.7381 36.9529C46.7381 37.3998 50.5807 36.0671 52.1941 35.0608C53.3841 34.3186 53.8068 34.3682 55.6644 35.4655C58.806 37.321 66.2981 37.0721 66.2981 35.1122C66.2981 34.6427 67.8597 33.5893 69.7684 32.7713C73.3605 31.2326 74.2905 29.9811 71.819 30.0123C71.0385 30.0221 69.4876 30.834 68.3733 31.8164ZM13.7777 34.2306C12.3498 35.0229 11.828 35.0541 10.7661 34.4116C9.84995 33.8577 9.13633 33.8137 8.27632 34.2599C6.71847 35.0681 2.83172 35.0639 1.26692 34.2526C-0.152751 33.5166 -0.480222 34.7417 0.803794 35.9858C1.6821 36.8368 6.88504 36.9566 8.19114 36.1557C8.7281 35.8262 9.66445 35.869 10.5573 36.2633C11.6305 36.7371 12.4861 36.7163 13.6831 36.1881C14.9065 35.6483 15.5514 35.6379 16.1855 36.1478C16.7231 36.58 18.3945 36.7053 20.6893 36.4852C25.7339 36.0011 25.8298 36.0011 29.4705 36.4559C33.1313 36.9138 36.9506 35.9711 37.5481 34.4629C38.1033 33.0605 37.8301 33.0067 35.0413 33.969C31.889 35.0565 29.2004 35.092 27.1782 34.0717C25.862 33.4071 25.3641 33.4212 24.171 34.1572C22.6087 35.1207 16.6385 34.9031 15.911 33.8565C15.6681 33.5068 14.8131 33.6566 13.7777 34.2306ZM81.3933 35.8617C77.6952 39.7009 71.2032 40.9805 67.9607 38.5088C66.257 37.2109 65.811 37.752 66.924 39.7676C68.9058 43.3549 77.6271 42.0895 81.4166 37.6651C81.9523 37.0397 83.3083 36.7194 85.4163 36.7194C88.2361 36.7194 88.8015 36.9474 90.3006 38.6867C91.8509 40.4865 92.3122 40.6565 95.6941 40.6736C98.4874 40.6883 99.4377 40.4688 99.5809 39.7761C99.7304 39.0498 99.0225 38.8518 96.1812 38.8249C92.8478 38.7931 92.4503 38.6305 90.5783 36.5323C88.816 34.5571 88.2102 34.274 85.7432 34.274C83.5203 34.274 82.5991 34.6103 81.3933 35.8617ZM37.3809 39.2699C37.5689 40.5531 37.9595 40.7115 41.3572 40.8808C44.3651 41.03 45.2882 40.8527 45.9317 39.9993C47.1022 38.4483 46.9205 37.8045 45.5178 38.532C43.9272 39.3567 40.0574 39.3427 38.4441 38.5057C37.3228 37.925 37.1973 38.0148 37.3809 39.2699Z" fill="#E6EEF1" fill-opacity="0.45"/>
<defs>
<linearGradient id="paint0_linear_1176_2962" x1="0.779859" y1="21.3516" x2="111" y2="21.3516" gradientUnits="userSpaceOnUse">
<stop stop-color="#3793AE"/>
<stop offset="1" stop-color="#074287"/>
</linearGradient>
</defs>
</svg>
