<svg width="87" height="19" viewBox="0 0 87 19" fill="none" xmlns="http://www.w3.org/2000/svg">
<path d="M49.7379 1.05017C46.2504 2.7939 44.3517 6.32013 44.7779 10.3501C45.0104 12.7526 45.7467 14.2251 47.4517 15.9301C52.6829 21.2 62.0216 18.4488 63.6491 11.1638C64.0753 9.42011 64.0366 8.76136 63.4941 6.86263C61.7891 1.08891 55.2404 -1.66232 49.7379 1.05017ZM57.4104 4.22764C60.8978 6.82388 61.1303 11.3576 57.8754 14.1088C55.3566 16.2013 51.2879 15.5813 49.2729 12.7913C47.9554 10.9314 47.9554 7.75387 49.2729 5.89388C51.1329 3.29765 55.0854 2.48391 57.4104 4.22764Z" fill="url(#paint0_linear_1176_2866)"/>
<path d="M49.7379 1.05017C46.2504 2.7939 44.3517 6.32013 44.7779 10.3501C45.0104 12.7526 45.7467 14.2251 47.4517 15.9301C52.6829 21.2 62.0216 18.4488 63.6491 11.1638C64.0753 9.42011 64.0366 8.76136 63.4941 6.86263C61.7891 1.08891 55.2404 -1.66232 49.7379 1.05017ZM57.4104 4.22764C60.8978 6.82388 61.1303 11.3576 57.8754 14.1088C55.3566 16.2013 51.2879 15.5813 49.2729 12.7913C47.9554 10.9314 47.9554 7.75387 49.2729 5.89388C51.1329 3.29765 55.0854 2.48391 57.4104 4.22764Z" fill="#E6EEF1" fill-opacity="0.45"/>
<path d="M4.9445 9.34146L0.488281 18.2539H2.15452C4.09201 18.2539 4.90575 17.5564 6.30074 14.8052C7.11449 13.2164 7.19199 13.1389 8.50948 13.3327C10.5632 13.6814 13.0819 15.0377 14.7482 16.7427C16.1432 18.0989 16.4919 18.2539 18.2357 18.2539H20.1732L15.8719 9.34146C11.7645 0.85527 11.532 0.429022 10.4857 0.429022C9.47822 0.429022 9.16822 0.89402 4.9445 9.34146ZM11.7257 8.95397C12.3845 10.2327 12.8107 11.279 12.6945 11.279C12.5395 11.279 11.6095 11.0077 10.5632 10.659L8.66448 10.039L9.51697 8.33397C9.94322 7.40398 10.3695 6.62898 10.447 6.62898C10.4857 6.62898 11.067 7.67523 11.7257 8.95397Z" fill="url(#paint1_linear_1176_2866)"/>
<path d="M4.9445 9.34146L0.488281 18.2539H2.15452C4.09201 18.2539 4.90575 17.5564 6.30074 14.8052C7.11449 13.2164 7.19199 13.1389 8.50948 13.3327C10.5632 13.6814 13.0819 15.0377 14.7482 16.7427C16.1432 18.0989 16.4919 18.2539 18.2357 18.2539H20.1732L15.8719 9.34146C11.7645 0.85527 11.532 0.429022 10.4857 0.429022C9.47822 0.429022 9.16822 0.89402 4.9445 9.34146ZM11.7257 8.95397C12.3845 10.2327 12.8107 11.279 12.6945 11.279C12.5395 11.279 11.6095 11.0077 10.5632 10.659L8.66448 10.039L9.51697 8.33397C9.94322 7.40398 10.3695 6.62898 10.447 6.62898C10.4857 6.62898 11.067 7.67523 11.7257 8.95397Z" fill="#E6EEF1" fill-opacity="0.45"/>
<path d="M21.8379 0.777771C21.9154 0.971519 23.8141 5.00149 26.0616 9.69021C29.8203 17.5564 30.2078 18.2539 31.1378 18.2539C32.0291 18.2539 32.3003 17.9052 33.4241 15.4252C34.1216 13.9139 35.904 10.2715 37.3378 7.36523C40.8253 0.274023 40.7865 0.429022 39.0428 0.429022C38.2678 0.429022 37.3378 0.584023 36.9503 0.777771C36.5628 1.01027 35.1678 3.529 33.8116 6.39648C32.4553 9.30271 31.2541 11.6664 31.1378 11.6664C31.0216 11.6664 29.7041 9.14772 28.1928 6.12524L25.4804 0.622772L23.5816 0.506521C22.4579 0.429022 21.7604 0.545273 21.8379 0.777771Z" fill="url(#paint2_linear_1176_2866)"/>
<path d="M21.8379 0.777771C21.9154 0.971519 23.8141 5.00149 26.0616 9.69021C29.8203 17.5564 30.2078 18.2539 31.1378 18.2539C32.0291 18.2539 32.3003 17.9052 33.4241 15.4252C34.1216 13.9139 35.904 10.2715 37.3378 7.36523C40.8253 0.274023 40.7865 0.429022 39.0428 0.429022C38.2678 0.429022 37.3378 0.584023 36.9503 0.777771C36.5628 1.01027 35.1678 3.529 33.8116 6.39648C32.4553 9.30271 31.2541 11.6664 31.1378 11.6664C31.0216 11.6664 29.7041 9.14772 28.1928 6.12524L25.4804 0.622772L23.5816 0.506521C22.4579 0.429022 21.7604 0.545273 21.8379 0.777771Z" fill="#E6EEF1" fill-opacity="0.45"/>
<path d="M70.625 9.34146V18.2539H71.9037C73.9575 18.2539 74.1125 17.8664 74.1125 12.1702C74.1125 9.34146 74.2287 7.01648 74.4225 7.05523C74.5775 7.05523 76.515 9.30271 78.7624 12.0539C82.7924 17.0139 84.1874 18.2539 85.6987 18.2539C86.5124 18.2539 86.5124 18.1377 86.5124 9.34146V0.429022H85.1949C84.4587 0.429022 83.7224 0.661522 83.5287 0.89402C83.3737 1.16527 83.1412 3.72275 83.0249 6.51273L82.8312 11.6277L78.22 6.04774C73.725 0.584023 73.57 0.429022 72.0975 0.429022H70.625V9.34146Z" fill="url(#paint3_linear_1176_2866)"/>
<path d="M70.625 9.34146V18.2539H71.9037C73.9575 18.2539 74.1125 17.8664 74.1125 12.1702C74.1125 9.34146 74.2287 7.01648 74.4225 7.05523C74.5775 7.05523 76.515 9.30271 78.7624 12.0539C82.7924 17.0139 84.1874 18.2539 85.6987 18.2539C86.5124 18.2539 86.5124 18.1377 86.5124 9.34146V0.429022H85.1949C84.4587 0.429022 83.7224 0.661522 83.5287 0.89402C83.3737 1.16527 83.1412 3.72275 83.0249 6.51273L82.8312 11.6277L78.22 6.04774C73.725 0.584023 73.57 0.429022 72.0975 0.429022H70.625V9.34146Z" fill="#E6EEF1" fill-opacity="0.45"/>
<defs>
<linearGradient id="paint0_linear_1176_2866" x1="44.8538" y1="9.33269" x2="63.9385" y2="9.33269" gradientUnits="userSpaceOnUse">
<stop stop-color="#3793AE"/>
<stop offset="1" stop-color="#074287"/>
</linearGradient>
<linearGradient id="paint1_linear_1176_2866" x1="0.626582" y1="9.34147" x2="20.1732" y2="9.34147" gradientUnits="userSpaceOnUse">
<stop stop-color="#3793AE"/>
<stop offset="1" stop-color="#074287"/>
</linearGradient>
<linearGradient id="paint2_linear_1176_2866" x1="21.9611" y1="9.34133" x2="40.2027" y2="9.34133" gradientUnits="userSpaceOnUse">
<stop stop-color="#3793AE"/>
<stop offset="1" stop-color="#074287"/>
</linearGradient>
<linearGradient id="paint3_linear_1176_2866" x1="70.7366" y1="9.34147" x2="86.5124" y2="9.34147" gradientUnits="userSpaceOnUse">
<stop stop-color="#3793AE"/>
<stop offset="1" stop-color="#074287"/>
</linearGradient>
</defs>
</svg>
