<svg width="110" height="28" viewBox="0 0 110 28" fill="none" xmlns="http://www.w3.org/2000/svg">
<path d="M28.1878 0.130554C26.9299 0.282614 24.4278 1.2088 24.4278 1.52674C24.4278 1.58203 24.3449 1.63733 24.2343 1.63733C23.9163 1.63733 22.8381 3.01969 22.6307 3.68322C22.3681 4.51264 22.3957 5.71529 22.686 6.57235C23.0593 7.66442 24.1099 8.48001 26.0866 9.21266C26.5014 9.36472 26.9714 9.5306 27.1234 9.59972C27.2755 9.65502 27.4828 9.71031 27.5934 9.73796C27.6902 9.75178 27.8422 9.83472 27.9252 9.91767C28.0081 10.0006 28.2155 10.0697 28.3675 10.0697C28.5334 10.0697 29.0311 10.1941 29.4873 10.3462C29.9296 10.5121 30.7037 10.7194 31.2014 10.83C31.699 10.9406 32.2243 11.0927 32.3764 11.1618C32.5284 11.2309 32.9708 11.3691 33.344 11.4659C34.2702 11.7009 35.9152 12.4612 36.2055 12.7792C36.5788 13.2077 36.717 13.9818 36.5373 14.6315C36.247 15.7374 34.9199 16.553 32.6805 16.9815C31.8373 17.1474 28.5196 17.1336 28.1602 16.9677C28.0496 16.9262 27.4137 16.7742 26.764 16.6498C26.1143 16.5253 24.9255 16.2351 24.1375 16C23.3496 15.765 22.6031 15.5715 22.4925 15.5577C22.3266 15.53 22.2852 15.765 22.2852 16.9124V18.2809L22.769 18.3915C23.0316 18.4468 24.3172 18.6542 25.6028 18.8339C28.8375 19.3177 32.169 19.3454 34.2426 18.9168C37.3252 18.2809 39.0947 17.2165 39.9932 15.4333C40.2697 14.8942 40.325 14.5762 40.325 13.5533C40.325 12.5303 40.2835 12.2815 40.0485 12.0327C39.8964 11.8668 39.772 11.6594 39.772 11.5627C39.772 10.9406 37.0764 9.32325 35.542 9.04678C35.2517 8.99148 34.9476 8.89472 34.8646 8.8256C34.7955 8.77031 34.4776 8.68736 34.1735 8.63207C32.957 8.42472 32.7911 8.38325 32.6529 8.27266C32.5837 8.21736 32.1137 8.09295 31.6161 8.01001C30.5793 7.80265 28.9758 7.31883 28.7822 7.15294C28.7131 7.08383 28.5334 7.02853 28.3952 7.02853C27.7455 7.02853 26.3216 6.06088 25.9484 5.3697C25.6305 4.76146 25.8655 3.69704 26.4599 3.18557C27.8975 1.89997 32.0031 1.69262 35.9429 2.6741C37.2838 3.01969 37.3667 2.99204 37.7676 2.10733C38.2652 1.02909 38.1961 0.766439 37.422 0.642027C37.0764 0.586733 36.4543 0.476145 36.0396 0.393202C33.8279 -0.0076828 30.289 -0.118271 28.1878 0.130554Z" fill="url(#paint0_linear_1176_2965)"/>
<path d="M28.1878 0.130554C26.9299 0.282614 24.4278 1.2088 24.4278 1.52674C24.4278 1.58203 24.3449 1.63733 24.2343 1.63733C23.9163 1.63733 22.8381 3.01969 22.6307 3.68322C22.3681 4.51264 22.3957 5.71529 22.686 6.57235C23.0593 7.66442 24.1099 8.48001 26.0866 9.21266C26.5014 9.36472 26.9714 9.5306 27.1234 9.59972C27.2755 9.65502 27.4828 9.71031 27.5934 9.73796C27.6902 9.75178 27.8422 9.83472 27.9252 9.91767C28.0081 10.0006 28.2155 10.0697 28.3675 10.0697C28.5334 10.0697 29.0311 10.1941 29.4873 10.3462C29.9296 10.5121 30.7037 10.7194 31.2014 10.83C31.699 10.9406 32.2243 11.0927 32.3764 11.1618C32.5284 11.2309 32.9708 11.3691 33.344 11.4659C34.2702 11.7009 35.9152 12.4612 36.2055 12.7792C36.5788 13.2077 36.717 13.9818 36.5373 14.6315C36.247 15.7374 34.9199 16.553 32.6805 16.9815C31.8373 17.1474 28.5196 17.1336 28.1602 16.9677C28.0496 16.9262 27.4137 16.7742 26.764 16.6498C26.1143 16.5253 24.9255 16.2351 24.1375 16C23.3496 15.765 22.6031 15.5715 22.4925 15.5577C22.3266 15.53 22.2852 15.765 22.2852 16.9124V18.2809L22.769 18.3915C23.0316 18.4468 24.3172 18.6542 25.6028 18.8339C28.8375 19.3177 32.169 19.3454 34.2426 18.9168C37.3252 18.2809 39.0947 17.2165 39.9932 15.4333C40.2697 14.8942 40.325 14.5762 40.325 13.5533C40.325 12.5303 40.2835 12.2815 40.0485 12.0327C39.8964 11.8668 39.772 11.6594 39.772 11.5627C39.772 10.9406 37.0764 9.32325 35.542 9.04678C35.2517 8.99148 34.9476 8.89472 34.8646 8.8256C34.7955 8.77031 34.4776 8.68736 34.1735 8.63207C32.957 8.42472 32.7911 8.38325 32.6529 8.27266C32.5837 8.21736 32.1137 8.09295 31.6161 8.01001C30.5793 7.80265 28.9758 7.31883 28.7822 7.15294C28.7131 7.08383 28.5334 7.02853 28.3952 7.02853C27.7455 7.02853 26.3216 6.06088 25.9484 5.3697C25.6305 4.76146 25.8655 3.69704 26.4599 3.18557C27.8975 1.89997 32.0031 1.69262 35.9429 2.6741C37.2838 3.01969 37.3667 2.99204 37.7676 2.10733C38.2652 1.02909 38.1961 0.766439 37.422 0.642027C37.0764 0.586733 36.4543 0.476145 36.0396 0.393202C33.8279 -0.0076828 30.289 -0.118271 28.1878 0.130554Z" fill="#E6EEF1" fill-opacity="0.45"/>
<path d="M45.2329 0.364307C45.2191 0.391954 44.5556 0.419601 43.7676 0.433426L42.33 0.461073L42.2885 1.34578C42.2609 1.82961 42.3162 2.29961 42.3853 2.36873C42.4821 2.4655 44.0994 2.50697 47.0024 2.47932C50.7209 2.4655 51.5089 2.49314 51.6471 2.6452C51.7439 2.78344 51.7992 3.36403 51.7715 4.3455C51.7577 5.17492 51.7577 8.75523 51.7715 12.3079L51.7992 18.7773H53.6653H55.5315L55.5592 10.6491L55.6006 2.53461L60.273 2.52079C63.093 2.50697 65.0007 2.45167 65.0836 2.36873C65.1666 2.28579 65.1804 1.8849 65.1113 1.34578L65.0007 0.461073L60.1624 0.433426C57.4945 0.405779 55.1998 0.391954 55.0477 0.378132C54.8956 0.378132 53.8451 0.378132 52.6977 0.378132C51.5642 0.391954 49.4215 0.378132 47.9562 0.364307C46.4771 0.33666 45.2606 0.33666 45.2329 0.364307Z" fill="url(#paint1_linear_1176_2965)"/>
<path d="M45.2329 0.364307C45.2191 0.391954 44.5556 0.419601 43.7676 0.433426L42.33 0.461073L42.2885 1.34578C42.2609 1.82961 42.3162 2.29961 42.3853 2.36873C42.4821 2.4655 44.0994 2.50697 47.0024 2.47932C50.7209 2.4655 51.5089 2.49314 51.6471 2.6452C51.7439 2.78344 51.7992 3.36403 51.7715 4.3455C51.7577 5.17492 51.7577 8.75523 51.7715 12.3079L51.7992 18.7773H53.6653H55.5315L55.5592 10.6491L55.6006 2.53461L60.273 2.52079C63.093 2.50697 65.0007 2.45167 65.0836 2.36873C65.1666 2.28579 65.1804 1.8849 65.1113 1.34578L65.0007 0.461073L60.1624 0.433426C57.4945 0.405779 55.1998 0.391954 55.0477 0.378132C54.8956 0.378132 53.8451 0.378132 52.6977 0.378132C51.5642 0.391954 49.4215 0.378132 47.9562 0.364307C46.4771 0.33666 45.2606 0.33666 45.2329 0.364307Z" fill="#E6EEF1" fill-opacity="0.45"/>
<path d="M0.859224 0.656296C0.762459 0.960415 0.886871 18.6408 0.983636 18.7514C1.09423 18.8482 17.8899 18.8205 18.0696 18.7099C18.2355 18.6132 18.2493 17.134 18.0973 16.8714C18.0143 16.747 16.4661 16.6917 11.2822 16.664L4.5916 16.6364L4.52248 13.5952C4.48101 11.9087 4.50865 10.4711 4.57777 10.3743C4.67454 10.2361 5.79425 10.2084 9.62339 10.2084C12.3328 10.2084 14.7519 10.2084 15.0008 10.2084H15.4569L15.4155 9.19928L15.374 8.20398L9.9828 8.13486L4.5916 8.06575L4.50865 5.50838C4.43954 3.13072 4.45336 2.93719 4.68836 2.71601C4.92336 2.50866 5.50395 2.48101 10.7846 2.48101C13.9916 2.48101 16.7564 2.48101 16.9361 2.46719C17.2264 2.46719 17.2402 2.41189 17.2402 1.43042V0.393646H9.09809C1.23246 0.393646 0.942165 0.407471 0.859224 0.656296Z" fill="url(#paint2_linear_1176_2965)"/>
<path d="M0.859224 0.656296C0.762459 0.960415 0.886871 18.6408 0.983636 18.7514C1.09423 18.8482 17.8899 18.8205 18.0696 18.7099C18.2355 18.6132 18.2493 17.134 18.0973 16.8714C18.0143 16.747 16.4661 16.6917 11.2822 16.664L4.5916 16.6364L4.52248 13.5952C4.48101 11.9087 4.50865 10.4711 4.57777 10.3743C4.67454 10.2361 5.79425 10.2084 9.62339 10.2084C12.3328 10.2084 14.7519 10.2084 15.0008 10.2084H15.4569L15.4155 9.19928L15.374 8.20398L9.9828 8.13486L4.5916 8.06575L4.50865 5.50838C4.43954 3.13072 4.45336 2.93719 4.68836 2.71601C4.92336 2.50866 5.50395 2.48101 10.7846 2.48101C13.9916 2.48101 16.7564 2.48101 16.9361 2.46719C17.2264 2.46719 17.2402 2.41189 17.2402 1.43042V0.393646H9.09809C1.23246 0.393646 0.942165 0.407471 0.859224 0.656296Z" fill="#E6EEF1" fill-opacity="0.45"/>
<path d="M69.6463 0.573307C69.5219 0.739189 69.5219 18.5855 69.6602 18.7099C69.6878 18.7513 73.6414 18.779 78.4243 18.7928L87.1194 18.8066L87.1608 17.7699L87.2023 16.7193H80.4426C76.724 16.7193 73.5722 16.6778 73.4478 16.6225C73.2543 16.5534 73.2266 16.1802 73.2266 13.374C73.2266 10.941 73.2681 10.2084 73.4064 10.1945C73.4893 10.1945 75.9084 10.1945 78.7561 10.1945C81.6038 10.2084 84.0091 10.1669 84.1058 10.0978C84.2164 10.0287 84.2579 9.68306 84.2302 9.10247L84.1888 8.20394L78.7423 8.13482C75.7425 8.09335 73.2819 8.03805 73.2681 8.02423C73.2405 8.01041 73.2266 6.76628 73.2266 5.24568V2.49479H79.5026C82.9585 2.49479 85.9167 2.45332 86.0688 2.39802C86.3176 2.32891 86.3591 2.20449 86.3591 1.51331C86.3591 1.00184 86.29 0.642426 86.1794 0.54566C85.9029 0.324482 69.8399 0.352129 69.6463 0.573307Z" fill="url(#paint3_linear_1176_2965)"/>
<path d="M69.6463 0.573307C69.5219 0.739189 69.5219 18.5855 69.6602 18.7099C69.6878 18.7513 73.6414 18.779 78.4243 18.7928L87.1194 18.8066L87.1608 17.7699L87.2023 16.7193H80.4426C76.724 16.7193 73.5722 16.6778 73.4478 16.6225C73.2543 16.5534 73.2266 16.1802 73.2266 13.374C73.2266 10.941 73.2681 10.2084 73.4064 10.1945C73.4893 10.1945 75.9084 10.1945 78.7561 10.1945C81.6038 10.2084 84.0091 10.1669 84.1058 10.0978C84.2164 10.0287 84.2579 9.68306 84.2302 9.10247L84.1888 8.20394L78.7423 8.13482C75.7425 8.09335 73.2819 8.03805 73.2681 8.02423C73.2405 8.01041 73.2266 6.76628 73.2266 5.24568V2.49479H79.5026C82.9585 2.49479 85.9167 2.45332 86.0688 2.39802C86.3176 2.32891 86.3591 2.20449 86.3591 1.51331C86.3591 1.00184 86.29 0.642426 86.1794 0.54566C85.9029 0.324482 69.8399 0.352129 69.6463 0.573307Z" fill="#E6EEF1" fill-opacity="0.45"/>
<path d="M92.1092 0.504343C91.971 0.739344 92.123 18.5165 92.2613 18.6547C92.3442 18.7377 95.2886 18.793 100.265 18.793H108.131L108.38 18.4888C108.504 18.323 108.656 18.0327 108.711 17.8253C108.753 17.6318 108.877 17.3 108.988 17.0788L109.181 16.7056H104.578C102.048 16.7056 99.0487 16.6918 97.9013 16.6641L95.8278 16.6365L95.8001 12.3512C95.7725 9.98733 95.7448 6.35173 95.731 4.26436L95.6895 0.462872L93.9339 0.421402C92.9801 0.407578 92.1507 0.435225 92.1092 0.504343Z" fill="url(#paint4_linear_1176_2965)"/>
<path d="M92.1092 0.504343C91.971 0.739344 92.123 18.5165 92.2613 18.6547C92.3442 18.7377 95.2886 18.793 100.265 18.793H108.131L108.38 18.4888C108.504 18.323 108.656 18.0327 108.711 17.8253C108.753 17.6318 108.877 17.3 108.988 17.0788L109.181 16.7056H104.578C102.048 16.7056 99.0487 16.6918 97.9013 16.6641L95.8278 16.6365L95.8001 12.3512C95.7725 9.98733 95.7448 6.35173 95.731 4.26436L95.6895 0.462872L93.9339 0.421402C92.9801 0.407578 92.1507 0.435225 92.1092 0.504343Z" fill="#E6EEF1" fill-opacity="0.45"/>
<path d="M61.7959 24.3219C60.6209 24.6537 60.8006 25.7734 62.0448 26.0223C62.6806 26.1328 62.8603 26.2711 62.8603 26.6305C62.8603 26.9761 62.8603 26.9761 61.8789 26.8931C61.0218 26.824 60.9112 26.8378 60.9527 27.0452C60.9942 27.2387 61.1877 27.294 62.1415 27.3217C62.8603 27.3493 63.2751 27.3078 63.2751 27.2111C63.2751 27.142 63.3995 26.9484 63.5515 26.7964C63.7727 26.5752 63.8004 26.4508 63.6898 26.2434C63.5239 25.9393 62.8465 25.6214 62.1 25.4693C61.713 25.4002 61.6162 25.3172 61.6162 25.0684C61.6162 24.6122 61.8374 24.5708 63.0539 24.7505C63.5515 24.8334 63.4271 24.4602 62.9018 24.3219C62.6115 24.239 62.3489 24.1699 62.3074 24.1837C62.2659 24.1837 62.0309 24.2528 61.7959 24.3219Z" fill="url(#paint5_linear_1176_2965)"/>
<path d="M61.7959 24.3219C60.6209 24.6537 60.8006 25.7734 62.0448 26.0223C62.6806 26.1328 62.8603 26.2711 62.8603 26.6305C62.8603 26.9761 62.8603 26.9761 61.8789 26.8931C61.0218 26.824 60.9112 26.8378 60.9527 27.0452C60.9942 27.2387 61.1877 27.294 62.1415 27.3217C62.8603 27.3493 63.2751 27.3078 63.2751 27.2111C63.2751 27.142 63.3995 26.9484 63.5515 26.7964C63.7727 26.5752 63.8004 26.4508 63.6898 26.2434C63.5239 25.9393 62.8465 25.6214 62.1 25.4693C61.713 25.4002 61.6162 25.3172 61.6162 25.0684C61.6162 24.6122 61.8374 24.5708 63.0539 24.7505C63.5515 24.8334 63.4271 24.4602 62.9018 24.3219C62.6115 24.239 62.3489 24.1699 62.3074 24.1837C62.2659 24.1837 62.0309 24.2528 61.7959 24.3219Z" fill="#E6EEF1" fill-opacity="0.45"/>
<path d="M0.955533 25.7879L0.997004 27.2809L2.14436 27.3224C3.05672 27.35 3.34702 27.3085 3.62349 27.115C4.01055 26.8247 4.06584 26.3132 3.76172 25.9676C3.59584 25.7741 3.58202 25.6497 3.70643 25.2765C3.85849 24.8617 3.84467 24.7926 3.55437 24.5576C3.30555 24.3641 3.00143 24.3088 2.08907 24.3088H0.914062L0.955533 25.7879ZM2.93231 24.917C3.38849 25.2488 3.09819 25.5529 2.31025 25.5529C1.59142 25.5529 1.35642 25.3732 1.53612 24.9309C1.63289 24.6682 2.57289 24.6544 2.93231 24.917ZM3.07054 26.2441C3.40231 26.6035 3.25025 26.7418 2.43466 26.8523C1.71583 26.9491 1.39789 26.7279 1.54995 26.2441C1.67436 25.857 2.71113 25.8432 3.07054 26.2441Z" fill="url(#paint6_linear_1176_2965)"/>
<path d="M0.955533 25.7879L0.997004 27.2809L2.14436 27.3224C3.05672 27.35 3.34702 27.3085 3.62349 27.115C4.01055 26.8247 4.06584 26.3132 3.76172 25.9676C3.59584 25.7741 3.58202 25.6497 3.70643 25.2765C3.85849 24.8617 3.84467 24.7926 3.55437 24.5576C3.30555 24.3641 3.00143 24.3088 2.08907 24.3088H0.914062L0.955533 25.7879ZM2.93231 24.917C3.38849 25.2488 3.09819 25.5529 2.31025 25.5529C1.59142 25.5529 1.35642 25.3732 1.53612 24.9309C1.63289 24.6682 2.57289 24.6544 2.93231 24.917ZM3.07054 26.2441C3.40231 26.6035 3.25025 26.7418 2.43466 26.8523C1.71583 26.9491 1.39789 26.7279 1.54995 26.2441C1.67436 25.857 2.71113 25.8432 3.07054 26.2441Z" fill="#E6EEF1" fill-opacity="0.45"/>
<path d="M7.78627 24.4055C7.7448 24.4608 7.70333 25.0967 7.70333 25.8431C7.70333 27.4328 7.64803 27.3914 9.36216 27.3223C10.1639 27.2946 10.3989 27.2393 10.3989 27.0734C10.3989 26.9214 10.1778 26.8661 9.38981 26.8522C8.82304 26.8384 8.33921 26.7831 8.29774 26.7417C8.25627 26.7002 8.25627 26.5067 8.31157 26.3131C8.39451 25.9952 8.4498 25.9675 9.23775 25.9675C10.3022 25.9675 10.316 25.6496 9.26539 25.5805C8.46363 25.539 8.11804 25.2764 8.39451 24.9308C8.51892 24.7925 8.83686 24.7234 9.4451 24.7234C10.1225 24.7234 10.3298 24.6819 10.3298 24.5299C10.3298 24.364 10.081 24.3225 9.09951 24.3225C8.42216 24.3225 7.84156 24.364 7.78627 24.4055Z" fill="url(#paint7_linear_1176_2965)"/>
<path d="M7.78627 24.4055C7.7448 24.4608 7.70333 25.0967 7.70333 25.8431C7.70333 27.4328 7.64803 27.3914 9.36216 27.3223C10.1639 27.2946 10.3989 27.2393 10.3989 27.0734C10.3989 26.9214 10.1778 26.8661 9.38981 26.8522C8.82304 26.8384 8.33921 26.7831 8.29774 26.7417C8.25627 26.7002 8.25627 26.5067 8.31157 26.3131C8.39451 25.9952 8.4498 25.9675 9.23775 25.9675C10.3022 25.9675 10.316 25.6496 9.26539 25.5805C8.46363 25.539 8.11804 25.2764 8.39451 24.9308C8.51892 24.7925 8.83686 24.7234 9.4451 24.7234C10.1225 24.7234 10.3298 24.6819 10.3298 24.5299C10.3298 24.364 10.081 24.3225 9.09951 24.3225C8.42216 24.3225 7.84156 24.364 7.78627 24.4055Z" fill="#E6EEF1" fill-opacity="0.45"/>
<path d="M15.5405 24.558C15.4022 24.6962 15.3055 24.8621 15.3055 24.9312C15.3055 25.028 14.8493 25.9542 14.3931 26.7974C14.1305 27.2951 14.4622 27.3365 14.9599 26.8804C15.264 26.6039 15.4852 26.521 15.9828 26.521C16.5496 26.521 16.6602 26.5762 16.8675 26.9357C17.1302 27.378 17.4758 27.4748 17.6002 27.1568C17.6416 27.0601 17.5172 26.7007 17.3375 26.3689C17.144 26.0371 16.8261 25.4289 16.6049 25.028C16.1902 24.2677 15.9137 24.1433 15.5405 24.558ZM16.2731 25.6362C16.4666 26.1201 16.4666 26.1062 16.0105 26.1062C15.5128 26.1062 15.3746 25.9265 15.5819 25.5533C15.7893 25.1662 16.1211 25.2077 16.2731 25.6362Z" fill="url(#paint8_linear_1176_2965)"/>
<path d="M15.5405 24.558C15.4022 24.6962 15.3055 24.8621 15.3055 24.9312C15.3055 25.028 14.8493 25.9542 14.3931 26.7974C14.1305 27.2951 14.4622 27.3365 14.9599 26.8804C15.264 26.6039 15.4852 26.521 15.9828 26.521C16.5496 26.521 16.6602 26.5762 16.8675 26.9357C17.1302 27.378 17.4758 27.4748 17.6002 27.1568C17.6416 27.0601 17.5172 26.7007 17.3375 26.3689C17.144 26.0371 16.8261 25.4289 16.6049 25.028C16.1902 24.2677 15.9137 24.1433 15.5405 24.558ZM16.2731 25.6362C16.4666 26.1201 16.4666 26.1062 16.0105 26.1062C15.5128 26.1062 15.3746 25.9265 15.5819 25.5533C15.7893 25.1662 16.1211 25.2077 16.2731 25.6362Z" fill="#E6EEF1" fill-opacity="0.45"/>
<path d="M21.3322 24.5296C21.1801 24.9305 21.2492 26.064 21.4566 26.5617C21.7192 27.1975 22.0095 27.3496 22.9495 27.3496C23.6407 27.3496 23.7513 27.3081 24.083 26.9211C24.4148 26.5202 24.4425 26.3958 24.401 25.4281C24.3733 24.5987 24.318 24.3775 24.1522 24.3775C23.9863 24.3775 23.931 24.6264 23.8757 25.4558C23.8204 26.3267 23.7513 26.5893 23.5439 26.7414C23.1845 26.9902 22.6316 26.9902 22.2445 26.7137C21.968 26.534 21.9404 26.382 21.9404 25.4005C21.9404 24.419 21.9127 24.3084 21.6777 24.3084C21.5395 24.3084 21.3736 24.4052 21.3322 24.5296Z" fill="url(#paint9_linear_1176_2965)"/>
<path d="M21.3322 24.5296C21.1801 24.9305 21.2492 26.064 21.4566 26.5617C21.7192 27.1975 22.0095 27.3496 22.9495 27.3496C23.6407 27.3496 23.7513 27.3081 24.083 26.9211C24.4148 26.5202 24.4425 26.3958 24.401 25.4281C24.3733 24.5987 24.318 24.3775 24.1522 24.3775C23.9863 24.3775 23.931 24.6264 23.8757 25.4558C23.8204 26.3267 23.7513 26.5893 23.5439 26.7414C23.1845 26.9902 22.6316 26.9902 22.2445 26.7137C21.968 26.534 21.9404 26.382 21.9404 25.4005C21.9404 24.419 21.9127 24.3084 21.6777 24.3084C21.5395 24.3084 21.3736 24.4052 21.3322 24.5296Z" fill="#E6EEF1" fill-opacity="0.45"/>
<path d="M28.1602 24.4328C28.1602 24.5987 28.5057 24.7231 28.9896 24.7231C29.4734 24.7231 29.5425 24.9028 29.5425 26.2575C29.5425 27.1008 29.584 27.3496 29.736 27.3496C29.9987 27.3496 30.054 27.1561 30.0816 25.9811C30.0955 25.4143 30.1369 24.9028 30.1784 24.8337C30.2199 24.7784 30.524 24.7231 30.8696 24.7231C31.2981 24.7231 31.4778 24.6678 31.4778 24.5296C31.4778 24.3637 31.1599 24.3222 29.819 24.3222C28.9066 24.3084 28.1602 24.3637 28.1602 24.4328Z" fill="url(#paint10_linear_1176_2965)"/>
<path d="M28.1602 24.4328C28.1602 24.5987 28.5057 24.7231 28.9896 24.7231C29.4734 24.7231 29.5425 24.9028 29.5425 26.2575C29.5425 27.1008 29.584 27.3496 29.736 27.3496C29.9987 27.3496 30.054 27.1561 30.0816 25.9811C30.0955 25.4143 30.1369 24.9028 30.1784 24.8337C30.2199 24.7784 30.524 24.7231 30.8696 24.7231C31.2981 24.7231 31.4778 24.6678 31.4778 24.5296C31.4778 24.3637 31.1599 24.3222 29.819 24.3222C28.9066 24.3084 28.1602 24.3637 28.1602 24.4328Z" fill="#E6EEF1" fill-opacity="0.45"/>
<path d="M35.448 24.39C35.3927 24.4453 35.5033 24.6526 35.6692 24.8738C36.3742 25.7585 36.5262 26.0626 36.5953 26.657C36.6921 27.4865 37.0515 27.5141 37.1483 26.6985C37.2036 26.2562 37.3695 25.952 37.8809 25.3991C38.5445 24.6664 38.6274 24.5144 38.4062 24.39C38.1851 24.2517 37.9224 24.4314 37.5768 24.9291C37.3971 25.1917 37.1345 25.4129 37.01 25.4129C36.8718 25.4129 36.5539 25.1641 36.3189 24.86C35.9042 24.3347 35.6415 24.1964 35.448 24.39Z" fill="url(#paint11_linear_1176_2965)"/>
<path d="M35.448 24.39C35.3927 24.4453 35.5033 24.6526 35.6692 24.8738C36.3742 25.7585 36.5262 26.0626 36.5953 26.657C36.6921 27.4865 37.0515 27.5141 37.1483 26.6985C37.2036 26.2562 37.3695 25.952 37.8809 25.3991C38.5445 24.6664 38.6274 24.5144 38.4062 24.39C38.1851 24.2517 37.9224 24.4314 37.5768 24.9291C37.3971 25.1917 37.1345 25.4129 37.01 25.4129C36.8718 25.4129 36.5539 25.1641 36.3189 24.86C35.9042 24.3347 35.6415 24.1964 35.448 24.39Z" fill="#E6EEF1" fill-opacity="0.45"/>
<path d="M46.6836 25.7606C46.6836 26.9495 46.7251 27.2398 46.8909 27.3089C47.1951 27.4195 47.2642 27.3089 47.3333 26.5901L47.4162 25.968H48.2042C49.1027 25.968 49.2686 26.0924 49.3377 26.7974C49.3654 27.1153 49.4483 27.2812 49.5865 27.2812C49.7524 27.2812 49.8077 27.0462 49.8354 26.1062C49.8768 24.7515 49.8077 24.3092 49.5174 24.3092C49.3792 24.3092 49.3101 24.4474 49.3101 24.71C49.3101 25.4842 49.2133 25.5533 48.2595 25.5533C47.4577 25.5533 47.3748 25.5256 47.3057 25.2353C47.2504 25.0556 47.2365 24.8621 47.2504 24.7792C47.3057 24.4612 47.2089 24.3092 46.9601 24.3092C46.6974 24.3092 46.6836 24.4059 46.6836 25.7606Z" fill="url(#paint12_linear_1176_2965)"/>
<path d="M46.6836 25.7606C46.6836 26.9495 46.7251 27.2398 46.8909 27.3089C47.1951 27.4195 47.2642 27.3089 47.3333 26.5901L47.4162 25.968H48.2042C49.1027 25.968 49.2686 26.0924 49.3377 26.7974C49.3654 27.1153 49.4483 27.2812 49.5865 27.2812C49.7524 27.2812 49.8077 27.0462 49.8354 26.1062C49.8768 24.7515 49.8077 24.3092 49.5174 24.3092C49.3792 24.3092 49.3101 24.4474 49.3101 24.71C49.3101 25.4842 49.2133 25.5533 48.2595 25.5533C47.4577 25.5533 47.3748 25.5256 47.3057 25.2353C47.2504 25.0556 47.2365 24.8621 47.2504 24.7792C47.3057 24.4612 47.2089 24.3092 46.9601 24.3092C46.6974 24.3092 46.6836 24.4059 46.6836 25.7606Z" fill="#E6EEF1" fill-opacity="0.45"/>
<path d="M54.892 24.5434C54.8505 24.6817 54.7399 24.9167 54.657 25.0687C54.574 25.2208 54.3943 25.5525 54.2699 25.8014C54.1317 26.0502 53.9658 26.3267 53.8967 26.4234C53.8276 26.5202 53.717 26.7275 53.6755 26.8934C53.5511 27.3081 53.8137 27.3081 54.2423 26.9073C54.4773 26.6999 54.7676 26.6031 55.2514 26.5755C55.8596 26.5478 55.9979 26.6031 56.3296 26.9487C56.537 27.1699 56.7444 27.3496 56.7996 27.3496C57.0346 27.3496 56.8964 26.6308 56.5646 26.0778C56.3711 25.7461 56.1776 25.3728 56.1223 25.2346C56.0808 25.1102 55.9979 24.9996 55.9288 24.9996C55.8596 24.9996 55.8043 24.889 55.8043 24.7369C55.8043 24.5849 55.6799 24.4467 55.5002 24.3914C55.0302 24.2669 54.9749 24.2808 54.892 24.5434ZM55.8043 25.9258C55.8043 26.1055 54.9611 26.1884 54.7952 26.0225C54.7123 25.9258 54.9611 25.4005 55.1823 25.2484C55.3343 25.1378 55.7905 25.6493 55.8043 25.9258Z" fill="url(#paint13_linear_1176_2965)"/>
<path d="M54.892 24.5434C54.8505 24.6817 54.7399 24.9167 54.657 25.0687C54.574 25.2208 54.3943 25.5525 54.2699 25.8014C54.1317 26.0502 53.9658 26.3267 53.8967 26.4234C53.8276 26.5202 53.717 26.7275 53.6755 26.8934C53.5511 27.3081 53.8137 27.3081 54.2423 26.9073C54.4773 26.6999 54.7676 26.6031 55.2514 26.5755C55.8596 26.5478 55.9979 26.6031 56.3296 26.9487C56.537 27.1699 56.7444 27.3496 56.7996 27.3496C57.0346 27.3496 56.8964 26.6308 56.5646 26.0778C56.3711 25.7461 56.1776 25.3728 56.1223 25.2346C56.0808 25.1102 55.9979 24.9996 55.9288 24.9996C55.8596 24.9996 55.8043 24.889 55.8043 24.7369C55.8043 24.5849 55.6799 24.4467 55.5002 24.3914C55.0302 24.2669 54.9749 24.2808 54.892 24.5434ZM55.8043 25.9258C55.8043 26.1055 54.9611 26.1884 54.7952 26.0225C54.7123 25.9258 54.9611 25.4005 55.1823 25.2484C55.3343 25.1378 55.7905 25.6493 55.8043 25.9258Z" fill="#E6EEF1" fill-opacity="0.45"/>
<path d="M73.1983 24.6122C73.0878 24.7919 72.9357 25.0546 72.8528 25.2066C72.2445 26.2296 71.8575 27.1419 71.968 27.2525C72.1339 27.4184 72.5348 27.1281 72.5348 26.8516C72.5348 26.6443 72.5625 26.6304 73.5025 26.589C74.2904 26.5475 74.6084 26.6304 74.6084 26.8516C74.6084 27.1281 74.9954 27.3907 75.2442 27.294C75.4516 27.211 75.4516 27.1696 75.2166 26.824C75.0784 26.6166 74.8434 26.2019 74.7051 25.8978C74.2351 24.944 73.7789 24.3081 73.5716 24.3081C73.461 24.3081 73.2951 24.4463 73.1983 24.6122ZM73.9172 25.566C74.1522 25.9807 74.0692 26.1051 73.5716 26.1051C73.1707 26.1051 73.0878 26.0499 73.0878 25.8287C73.0878 25.2066 73.6407 25.0269 73.9172 25.566Z" fill="url(#paint14_linear_1176_2965)"/>
<path d="M73.1983 24.6122C73.0878 24.7919 72.9357 25.0546 72.8528 25.2066C72.2445 26.2296 71.8575 27.1419 71.968 27.2525C72.1339 27.4184 72.5348 27.1281 72.5348 26.8516C72.5348 26.6443 72.5625 26.6304 73.5025 26.589C74.2904 26.5475 74.6084 26.6304 74.6084 26.8516C74.6084 27.1281 74.9954 27.3907 75.2442 27.294C75.4516 27.211 75.4516 27.1696 75.2166 26.824C75.0784 26.6166 74.8434 26.2019 74.7051 25.8978C74.2351 24.944 73.7789 24.3081 73.5716 24.3081C73.461 24.3081 73.2951 24.4463 73.1983 24.6122ZM73.9172 25.566C74.1522 25.9807 74.0692 26.1051 73.5716 26.1051C73.1707 26.1051 73.0878 26.0499 73.0878 25.8287C73.0878 25.2066 73.6407 25.0269 73.9172 25.566Z" fill="#E6EEF1" fill-opacity="0.45"/>
<path d="M83.457 25.7446C83.457 26.6293 83.5123 27.2237 83.6091 27.279C83.8579 27.4449 83.9409 27.2237 83.9547 26.3666C83.9547 25.9243 83.9962 25.5096 84.0514 25.4543C84.1067 25.399 84.6044 25.8137 85.1573 26.3528C86.512 27.6937 86.6365 27.6522 86.6365 25.8275C86.6365 24.9704 86.5812 24.4313 86.4844 24.3622C86.2218 24.2101 86.0697 24.6249 86.1388 25.2884C86.2494 26.4081 86.0697 26.4081 84.9362 25.3022C84.3694 24.7493 83.8026 24.3069 83.6782 24.3069C83.4847 24.3069 83.457 24.5143 83.457 25.7446Z" fill="url(#paint15_linear_1176_2965)"/>
<path d="M83.457 25.7446C83.457 26.6293 83.5123 27.2237 83.6091 27.279C83.8579 27.4449 83.9409 27.2237 83.9547 26.3666C83.9547 25.9243 83.9962 25.5096 84.0514 25.4543C84.1067 25.399 84.6044 25.8137 85.1573 26.3528C86.512 27.6937 86.6365 27.6522 86.6365 25.8275C86.6365 24.9704 86.5812 24.4313 86.4844 24.3622C86.2218 24.2101 86.0697 24.6249 86.1388 25.2884C86.2494 26.4081 86.0697 26.4081 84.9362 25.3022C84.3694 24.7493 83.8026 24.3069 83.6782 24.3069C83.4847 24.3069 83.457 24.5143 83.457 25.7446Z" fill="#E6EEF1" fill-opacity="0.45"/>
<path d="M91.7787 24.4741C91.4331 24.9026 90.4931 26.9624 90.5622 27.1421C90.6452 27.3771 91.0599 27.2665 91.0599 27.0038C91.0599 26.7688 91.8063 26.4785 92.3455 26.4924C92.6634 26.4924 92.8984 26.6306 93.161 26.9485C93.4375 27.2803 93.5896 27.3632 93.7002 27.2526C93.8108 27.1421 93.6725 26.7412 93.1887 25.815C92.8293 25.0962 92.4699 24.4741 92.3869 24.4188C92.1657 24.2668 91.9446 24.2806 91.7787 24.4741ZM92.5528 25.7597C92.6219 26.0638 92.3731 26.2159 91.9446 26.1329C91.5852 26.0638 91.5299 25.8288 91.7787 25.4141C91.9307 25.1791 91.986 25.1653 92.2349 25.3312C92.3869 25.4279 92.539 25.6215 92.5528 25.7597Z" fill="url(#paint16_linear_1176_2965)"/>
<path d="M91.7787 24.4741C91.4331 24.9026 90.4931 26.9624 90.5622 27.1421C90.6452 27.3771 91.0599 27.2665 91.0599 27.0038C91.0599 26.7688 91.8063 26.4785 92.3455 26.4924C92.6634 26.4924 92.8984 26.6306 93.161 26.9485C93.4375 27.2803 93.5896 27.3632 93.7002 27.2526C93.8108 27.1421 93.6725 26.7412 93.1887 25.815C92.8293 25.0962 92.4699 24.4741 92.3869 24.4188C92.1657 24.2668 91.9446 24.2806 91.7787 24.4741ZM92.5528 25.7597C92.6219 26.0638 92.3731 26.2159 91.9446 26.1329C91.5852 26.0638 91.5299 25.8288 91.7787 25.4141C91.9307 25.1791 91.986 25.1653 92.2349 25.3312C92.3869 25.4279 92.539 25.6215 92.5528 25.7597Z" fill="#E6EEF1" fill-opacity="0.45"/>
<path d="M97.7516 24.4867C97.6272 24.8184 97.7655 27.279 97.9037 27.279C97.9866 27.279 98.0696 26.809 98.1111 26.2423L98.1802 25.2055L98.4566 25.5925C99.134 26.5325 99.2446 26.657 99.4796 26.657C99.6869 26.657 100.115 26.1178 100.35 25.5096C100.544 25.0396 100.738 25.4267 100.738 26.3114C100.738 27.1823 100.931 27.5693 101.166 27.1961C101.304 26.9611 101.332 25.9796 101.208 25.0811C101.125 24.542 101.069 24.4452 100.793 24.4452C100.475 24.4452 100.019 24.9428 99.8528 25.5096C99.6869 26.0349 99.3137 25.869 98.8022 25.0672C98.3322 24.3208 97.9037 24.0996 97.7516 24.4867Z" fill="url(#paint17_linear_1176_2965)"/>
<path d="M97.7516 24.4867C97.6272 24.8184 97.7655 27.279 97.9037 27.279C97.9866 27.279 98.0696 26.809 98.1111 26.2423L98.1802 25.2055L98.4566 25.5925C99.134 26.5325 99.2446 26.657 99.4796 26.657C99.6869 26.657 100.115 26.1178 100.35 25.5096C100.544 25.0396 100.738 25.4267 100.738 26.3114C100.738 27.1823 100.931 27.5693 101.166 27.1961C101.304 26.9611 101.332 25.9796 101.208 25.0811C101.125 24.542 101.069 24.4452 100.793 24.4452C100.475 24.4452 100.019 24.9428 99.8528 25.5096C99.6869 26.0349 99.3137 25.869 98.8022 25.0672C98.3322 24.3208 97.9037 24.0996 97.7516 24.4867Z" fill="#E6EEF1" fill-opacity="0.45"/>
<path d="M104.981 25.6493C104.926 26.5064 104.954 27.0593 105.05 27.1699C105.147 27.2943 105.603 27.3496 106.419 27.3496C107.414 27.3496 107.649 27.3081 107.649 27.1423C107.649 26.9073 107.635 26.9073 106.474 26.8796C105.645 26.8658 105.645 26.8658 105.645 26.4511C105.645 26.0364 105.645 26.0364 106.516 25.9949C107.152 25.9672 107.373 25.8981 107.373 25.7599C107.373 25.594 107.165 25.5525 106.488 25.5525C105.714 25.5525 105.576 25.5111 105.507 25.2761C105.368 24.8199 105.548 24.7231 106.557 24.7231C107.317 24.7231 107.511 24.6817 107.511 24.5158C107.511 24.3499 107.276 24.3084 106.281 24.3084H105.064L104.981 25.6493Z" fill="url(#paint18_linear_1176_2965)"/>
<path d="M104.981 25.6493C104.926 26.5064 104.954 27.0593 105.05 27.1699C105.147 27.2943 105.603 27.3496 106.419 27.3496C107.414 27.3496 107.649 27.3081 107.649 27.1423C107.649 26.9073 107.635 26.9073 106.474 26.8796C105.645 26.8658 105.645 26.8658 105.645 26.4511C105.645 26.0364 105.645 26.0364 106.516 25.9949C107.152 25.9672 107.373 25.8981 107.373 25.7599C107.373 25.594 107.165 25.5525 106.488 25.5525C105.714 25.5525 105.576 25.5111 105.507 25.2761C105.368 24.8199 105.548 24.7231 106.557 24.7231C107.317 24.7231 107.511 24.6817 107.511 24.5158C107.511 24.3499 107.276 24.3084 106.281 24.3084H105.064L104.981 25.6493Z" fill="#E6EEF1" fill-opacity="0.45"/>
<defs>
<linearGradient id="paint0_linear_1176_2965" x1="22.4119" y1="9.60855" x2="40.325" y2="9.60855" gradientUnits="userSpaceOnUse">
<stop stop-color="#3793AE"/>
<stop offset="1" stop-color="#074287"/>
</linearGradient>
<linearGradient id="paint1_linear_1176_2965" x1="42.442" y1="9.56046" x2="65.1555" y2="9.56046" gradientUnits="userSpaceOnUse">
<stop stop-color="#3793AE"/>
<stop offset="1" stop-color="#074287"/>
</linearGradient>
<linearGradient id="paint2_linear_1176_2965" x1="0.946319" y1="9.6021" x2="18.2032" y2="9.6021" gradientUnits="userSpaceOnUse">
<stop stop-color="#3793AE"/>
<stop offset="1" stop-color="#074287"/>
</linearGradient>
<linearGradient id="paint3_linear_1176_2965" x1="69.6787" y1="9.5998" x2="87.2023" y2="9.5998" gradientUnits="userSpaceOnUse">
<stop stop-color="#3793AE"/>
<stop offset="1" stop-color="#074287"/>
</linearGradient>
<linearGradient id="paint4_linear_1176_2965" x1="92.175" y1="9.60546" x2="109.181" y2="9.60546" gradientUnits="userSpaceOnUse">
<stop stop-color="#3793AE"/>
<stop offset="1" stop-color="#074287"/>
</linearGradient>
<linearGradient id="paint5_linear_1176_2965" x1="60.965" y1="25.756" x2="63.7529" y2="25.756" gradientUnits="userSpaceOnUse">
<stop stop-color="#3793AE"/>
<stop offset="1" stop-color="#074287"/>
</linearGradient>
<linearGradient id="paint6_linear_1176_2965" x1="0.935441" y1="25.8194" x2="3.95687" y2="25.8194" gradientUnits="userSpaceOnUse">
<stop stop-color="#3793AE"/>
<stop offset="1" stop-color="#074287"/>
</linearGradient>
<linearGradient id="paint7_linear_1176_2965" x1="7.72207" y1="25.8351" x2="10.3989" y2="25.8351" gradientUnits="userSpaceOnUse">
<stop stop-color="#3793AE"/>
<stop offset="1" stop-color="#074287"/>
</linearGradient>
<linearGradient id="paint8_linear_1176_2965" x1="14.324" y1="25.8339" x2="17.6082" y2="25.8339" gradientUnits="userSpaceOnUse">
<stop stop-color="#3793AE"/>
<stop offset="1" stop-color="#074287"/>
</linearGradient>
<linearGradient id="paint9_linear_1176_2965" x1="21.2722" y1="25.829" x2="24.4158" y2="25.829" gradientUnits="userSpaceOnUse">
<stop stop-color="#3793AE"/>
<stop offset="1" stop-color="#074287"/>
</linearGradient>
<linearGradient id="paint10_linear_1176_2965" x1="28.1835" y1="25.8349" x2="31.4778" y2="25.8349" gradientUnits="userSpaceOnUse">
<stop stop-color="#3793AE"/>
<stop offset="1" stop-color="#074287"/>
</linearGradient>
<linearGradient id="paint11_linear_1176_2965" x1="35.4553" y1="25.8008" x2="38.5161" y2="25.8008" gradientUnits="userSpaceOnUse">
<stop stop-color="#3793AE"/>
<stop offset="1" stop-color="#074287"/>
</linearGradient>
<linearGradient id="paint12_linear_1176_2965" x1="46.7058" y1="25.8274" x2="49.8464" y2="25.8274" gradientUnits="userSpaceOnUse">
<stop stop-color="#3793AE"/>
<stop offset="1" stop-color="#074287"/>
</linearGradient>
<linearGradient id="paint13_linear_1176_2965" x1="53.6675" y1="25.8325" x2="56.917" y2="25.8325" gradientUnits="userSpaceOnUse">
<stop stop-color="#3793AE"/>
<stop offset="1" stop-color="#074287"/>
</linearGradient>
<linearGradient id="paint14_linear_1176_2965" x1="71.9734" y1="25.8113" x2="75.3965" y2="25.8113" gradientUnits="userSpaceOnUse">
<stop stop-color="#3793AE"/>
<stop offset="1" stop-color="#074287"/>
</linearGradient>
<linearGradient id="paint15_linear_1176_2965" x1="83.4794" y1="25.8185" x2="86.6365" y2="25.8185" gradientUnits="userSpaceOnUse">
<stop stop-color="#3793AE"/>
<stop offset="1" stop-color="#074287"/>
</linearGradient>
<linearGradient id="paint16_linear_1176_2965" x1="90.5809" y1="25.8072" x2="93.736" y2="25.8072" gradientUnits="userSpaceOnUse">
<stop stop-color="#3793AE"/>
<stop offset="1" stop-color="#074287"/>
</linearGradient>
<linearGradient id="paint17_linear_1176_2965" x1="97.7283" y1="25.8185" x2="101.287" y2="25.8185" gradientUnits="userSpaceOnUse">
<stop stop-color="#3793AE"/>
<stop offset="1" stop-color="#074287"/>
</linearGradient>
<linearGradient id="paint18_linear_1176_2965" x1="104.972" y1="25.829" x2="107.649" y2="25.829" gradientUnits="userSpaceOnUse">
<stop stop-color="#3793AE"/>
<stop offset="1" stop-color="#074287"/>
</linearGradient>
</defs>
</svg>
