<svg width="118" height="30" viewBox="0 0 118 30" fill="none" xmlns="http://www.w3.org/2000/svg">
<g clip-path="url(#clip0_1176_2832)">
<path d="M9.65709 1.63543C5.75709 3.35395 1.42969 9.04654 1.42969 12.591V13.8262L2.81873 12.7521C3.94065 11.8391 5.00914 11.6243 7.9475 11.6243C11.2064 11.6243 11.7406 11.5169 11.9543 10.5502C12.1146 9.95951 12.4886 9.47617 12.8626 9.47617C13.2365 9.47617 13.1831 9.26136 12.7557 8.99284C12.3283 8.72432 12.1146 7.86506 12.2215 7.0058C12.3817 5.5558 12.542 5.44839 14.9461 5.28728C16.3352 5.17988 17.4571 4.85765 17.4571 4.58913C17.4571 4.26691 16.7626 3.30025 15.9078 2.44099C14.1448 0.722467 12.3283 0.453949 9.65709 1.63543Z" fill="url(#paint0_linear_1176_2832)"/>
<path d="M9.65709 1.63543C5.75709 3.35395 1.42969 9.04654 1.42969 12.591V13.8262L2.81873 12.7521C3.94065 11.8391 5.00914 11.6243 7.9475 11.6243C11.2064 11.6243 11.7406 11.5169 11.9543 10.5502C12.1146 9.95951 12.4886 9.47617 12.8626 9.47617C13.2365 9.47617 13.1831 9.26136 12.7557 8.99284C12.3283 8.72432 12.1146 7.86506 12.2215 7.0058C12.3817 5.5558 12.542 5.44839 14.9461 5.28728C16.3352 5.17988 17.4571 4.85765 17.4571 4.58913C17.4571 4.26691 16.7626 3.30025 15.9078 2.44099C14.1448 0.722467 12.3283 0.453949 9.65709 1.63543Z" fill="#E6EEF1" fill-opacity="0.45"/>
<path d="M17.7236 2.54724C18.2044 3.46021 18.4715 4.53428 18.3112 4.96391C18.151 5.44724 18.2578 5.60835 18.5249 5.44724C18.8455 5.23243 19.0592 6.2528 19.0592 8.07872V11.0861H21.3564C24.2414 11.0861 24.9359 11.7843 24.9359 14.6306C24.9359 15.9195 25.203 17.1009 25.577 17.3158C25.951 17.5306 26.0044 17.4769 25.7907 17.1009C25.577 16.725 25.7373 16.4565 26.1647 16.4565C27.1797 16.4565 28.5154 14.8991 28.9427 13.1269C29.3701 11.4084 27.6606 7.16576 25.577 5.01761C23.9208 3.24539 19.5934 0.882427 17.9907 0.882427C16.9222 0.882427 16.9222 0.936131 17.7236 2.54724Z" fill="url(#paint1_linear_1176_2832)"/>
<path d="M17.7236 2.54724C18.2044 3.46021 18.4715 4.53428 18.3112 4.96391C18.151 5.44724 18.2578 5.60835 18.5249 5.44724C18.8455 5.23243 19.0592 6.2528 19.0592 8.07872V11.0861H21.3564C24.2414 11.0861 24.9359 11.7843 24.9359 14.6306C24.9359 15.9195 25.203 17.1009 25.577 17.3158C25.951 17.5306 26.0044 17.4769 25.7907 17.1009C25.577 16.725 25.7373 16.4565 26.1647 16.4565C27.1797 16.4565 28.5154 14.8991 28.9427 13.1269C29.3701 11.4084 27.6606 7.16576 25.577 5.01761C23.9208 3.24539 19.5934 0.882427 17.9907 0.882427C16.9222 0.882427 16.9222 0.936131 17.7236 2.54724Z" fill="#E6EEF1" fill-opacity="0.45"/>
<path d="M75.155 8.93924C75.155 9.69109 74.781 10.0133 74.033 10.0133C72.3769 10.0133 69.8125 12.8596 69.8125 14.7392C69.8125 16.78 71.5755 18.9818 73.5522 19.4115C74.6741 19.68 75.155 20.1096 75.155 20.8078C75.155 21.5596 75.5289 21.8281 76.7577 21.8281C77.9865 21.8281 78.3604 21.5596 78.3604 20.8078C78.3604 20.1633 78.8413 19.7337 79.8563 19.5189C82.5276 18.9818 83.97 17.3707 83.97 14.8466C83.97 13.0207 83.6495 12.3226 82.4741 11.3022C81.6193 10.6041 80.3906 10.0133 79.6426 10.0133C78.7344 10.0133 78.3604 9.74479 78.3604 8.93924C78.3604 8.07998 77.9865 7.86516 76.7577 7.86516C75.5289 7.86516 75.155 8.07998 75.155 8.93924ZM80.818 14.0411C81.192 15.0615 80.1235 16.9948 79.1618 16.9948C78.5741 16.9948 78.3604 16.3503 78.3604 14.5781C78.3604 12.2689 78.4139 12.1615 79.4824 12.6985C80.07 13.0207 80.6577 13.6115 80.818 14.0411ZM75.155 14.8466C75.155 17.0485 74.781 17.4781 73.6591 16.3503C72.5372 15.2226 73.2851 12.6985 74.7276 12.6985C74.9413 12.6985 75.155 13.6652 75.155 14.8466Z" fill="url(#paint2_linear_1176_2832)"/>
<path d="M75.155 8.93924C75.155 9.69109 74.781 10.0133 74.033 10.0133C72.3769 10.0133 69.8125 12.8596 69.8125 14.7392C69.8125 16.78 71.5755 18.9818 73.5522 19.4115C74.6741 19.68 75.155 20.1096 75.155 20.8078C75.155 21.5596 75.5289 21.8281 76.7577 21.8281C77.9865 21.8281 78.3604 21.5596 78.3604 20.8078C78.3604 20.1633 78.8413 19.7337 79.8563 19.5189C82.5276 18.9818 83.97 17.3707 83.97 14.8466C83.97 13.0207 83.6495 12.3226 82.4741 11.3022C81.6193 10.6041 80.3906 10.0133 79.6426 10.0133C78.7344 10.0133 78.3604 9.74479 78.3604 8.93924C78.3604 8.07998 77.9865 7.86516 76.7577 7.86516C75.5289 7.86516 75.155 8.07998 75.155 8.93924ZM80.818 14.0411C81.192 15.0615 80.1235 16.9948 79.1618 16.9948C78.5741 16.9948 78.3604 16.3503 78.3604 14.5781C78.3604 12.2689 78.4139 12.1615 79.4824 12.6985C80.07 13.0207 80.6577 13.6115 80.818 14.0411ZM75.155 14.8466C75.155 17.0485 74.781 17.4781 73.6591 16.3503C72.5372 15.2226 73.2851 12.6985 74.7276 12.6985C74.9413 12.6985 75.155 13.6652 75.155 14.8466Z" fill="#E6EEF1" fill-opacity="0.45"/>
<path d="M36.6914 14.8466V21.291H38.5613C40.3777 21.291 40.4311 21.2373 40.4311 19.1429V16.9947H42.8352C45.9339 16.9947 47.3763 15.6521 47.3763 12.8058C47.3763 11.6781 47.0024 10.2281 46.5215 9.58361C45.7736 8.50953 45.2394 8.40213 41.1791 8.40213H36.6914V14.8466ZM44.064 12.3762C44.3311 13.5577 43.3695 14.3095 41.6599 14.3095C40.6448 14.3095 40.4311 14.041 40.4311 12.6447C40.4311 11.141 40.538 11.0336 42.1407 11.1947C43.3695 11.3021 43.9572 11.6781 44.064 12.3762Z" fill="url(#paint3_linear_1176_2832)"/>
<path d="M36.6914 14.8466V21.291H38.5613C40.3777 21.291 40.4311 21.2373 40.4311 19.1429V16.9947H42.8352C45.9339 16.9947 47.3763 15.6521 47.3763 12.8058C47.3763 11.6781 47.0024 10.2281 46.5215 9.58361C45.7736 8.50953 45.2394 8.40213 41.1791 8.40213H36.6914V14.8466ZM44.064 12.3762C44.3311 13.5577 43.3695 14.3095 41.6599 14.3095C40.6448 14.3095 40.4311 14.041 40.4311 12.6447C40.4311 11.141 40.538 11.0336 42.1407 11.1947C43.3695 11.3021 43.9572 11.6781 44.064 12.3762Z" fill="#E6EEF1" fill-opacity="0.45"/>
<path d="M51.3281 11.6232C48.7637 12.6435 47.6952 16.3491 49.0308 19.3028C50.2596 22.0417 55.0678 22.7398 57.2582 20.4843C58.3267 19.4639 58.5938 18.6584 58.5938 16.6176C58.5938 15.2213 58.2733 13.6639 57.8993 13.1806C56.4568 11.2472 53.7322 10.6028 51.3281 11.6232ZM54.7473 14.4158C55.4418 15.1139 55.602 16.9398 55.0678 18.2824C54.6938 19.3028 53.1979 19.4102 52.2897 18.4972C50.9541 17.1546 51.8623 13.7713 53.5185 13.7713C53.839 13.7713 54.3733 14.0398 54.7473 14.4158Z" fill="url(#paint4_linear_1176_2832)"/>
<path d="M51.3281 11.6232C48.7637 12.6435 47.6952 16.3491 49.0308 19.3028C50.2596 22.0417 55.0678 22.7398 57.2582 20.4843C58.3267 19.4639 58.5938 18.6584 58.5938 16.6176C58.5938 15.2213 58.2733 13.6639 57.8993 13.1806C56.4568 11.2472 53.7322 10.6028 51.3281 11.6232ZM54.7473 14.4158C55.4418 15.1139 55.602 16.9398 55.0678 18.2824C54.6938 19.3028 53.1979 19.4102 52.2897 18.4972C50.9541 17.1546 51.8623 13.7713 53.5185 13.7713C53.839 13.7713 54.3733 14.0398 54.7473 14.4158Z" fill="#E6EEF1" fill-opacity="0.45"/>
<path d="M62.0119 11.73C59.3941 12.9652 58.753 18.2818 60.9968 20.4837C63.4544 23.0078 68.7434 21.6652 68.7434 18.6041C68.7434 17.2615 66.8201 17.1541 65.4311 18.3892C64.6831 19.1411 64.3626 19.1411 63.6681 18.6041C62.5996 17.7448 62.653 15.167 63.7215 14.2541C64.4694 13.6633 64.6831 13.6633 65.2708 14.4689C66.2324 15.7578 68.7434 15.7041 68.7434 14.3615C68.7434 11.9448 64.6831 10.3874 62.0119 11.73Z" fill="url(#paint5_linear_1176_2832)"/>
<path d="M62.0119 11.73C59.3941 12.9652 58.753 18.2818 60.9968 20.4837C63.4544 23.0078 68.7434 21.6652 68.7434 18.6041C68.7434 17.2615 66.8201 17.1541 65.4311 18.3892C64.6831 19.1411 64.3626 19.1411 63.6681 18.6041C62.5996 17.7448 62.653 15.167 63.7215 14.2541C64.4694 13.6633 64.6831 13.6633 65.2708 14.4689C66.2324 15.7578 68.7434 15.7041 68.7434 14.3615C68.7434 11.9448 64.6831 10.3874 62.0119 11.73Z" fill="#E6EEF1" fill-opacity="0.45"/>
<path d="M86.6403 12.4284C85.8924 13.1266 85.3047 13.9859 85.3047 14.3081C85.3047 15.0599 87.7622 15.0062 89.0444 14.2007C89.8458 13.6636 90.2198 13.6636 90.7006 14.147C91.1814 14.6303 90.9677 14.8451 89.7924 15.1136C85.7855 15.9192 85.5718 16.0803 85.4115 18.3896C85.1978 21.5044 85.9458 21.934 90.8074 21.5044C94.8143 21.1284 94.8143 21.1284 94.3335 19.8396C94.0663 19.1414 93.8526 17.1544 93.8526 15.4359C93.8526 12.6433 93.7458 12.2673 92.517 11.7303C90.2732 10.7099 88.0828 10.9784 86.6403 12.4284ZM90.8609 18.2821C90.6472 18.8192 90.0595 19.1414 89.365 19.034C87.9225 18.8192 88.0828 17.9062 89.6855 17.4766C91.1814 17.1007 91.2882 17.1544 90.8609 18.2821Z" fill="url(#paint6_linear_1176_2832)"/>
<path d="M86.6403 12.4284C85.8924 13.1266 85.3047 13.9859 85.3047 14.3081C85.3047 15.0599 87.7622 15.0062 89.0444 14.2007C89.8458 13.6636 90.2198 13.6636 90.7006 14.147C91.1814 14.6303 90.9677 14.8451 89.7924 15.1136C85.7855 15.9192 85.5718 16.0803 85.4115 18.3896C85.1978 21.5044 85.9458 21.934 90.8074 21.5044C94.8143 21.1284 94.8143 21.1284 94.3335 19.8396C94.0663 19.1414 93.8526 17.1544 93.8526 15.4359C93.8526 12.6433 93.7458 12.2673 92.517 11.7303C90.2732 10.7099 88.0828 10.9784 86.6403 12.4284ZM90.8609 18.2821C90.6472 18.8192 90.0595 19.1414 89.365 19.034C87.9225 18.8192 88.0828 17.9062 89.6855 17.4766C91.1814 17.1007 91.2882 17.1544 90.8609 18.2821Z" fill="#E6EEF1" fill-opacity="0.45"/>
<path d="M98.2894 11.4619L95.9922 11.6767V18.6582V25.5859H97.5949C99.0908 25.5859 99.1977 25.4785 99.1977 23.5452V21.5045L101.281 21.7193C102.991 21.8804 103.525 21.6656 104.487 20.4841C106.143 18.3359 106.036 14.2008 104.273 12.4285C103.578 11.6767 102.457 11.1396 101.762 11.1933C101.068 11.247 99.5182 11.3545 98.2894 11.4619ZM102.136 15.06C103.632 17.3156 101.655 20.323 99.8388 18.497C98.61 17.2619 99.3579 13.7711 100.907 13.7711C101.121 13.7711 101.709 14.3619 102.136 15.06Z" fill="url(#paint7_linear_1176_2832)"/>
<path d="M98.2894 11.4619L95.9922 11.6767V18.6582V25.5859H97.5949C99.0908 25.5859 99.1977 25.4785 99.1977 23.5452V21.5045L101.281 21.7193C102.991 21.8804 103.525 21.6656 104.487 20.4841C106.143 18.3359 106.036 14.2008 104.273 12.4285C103.578 11.6767 102.457 11.1396 101.762 11.1933C101.068 11.247 99.5182 11.3545 98.2894 11.4619ZM102.136 15.06C103.632 17.3156 101.655 20.323 99.8388 18.497C98.61 17.2619 99.3579 13.7711 100.907 13.7711C101.121 13.7711 101.709 14.3619 102.136 15.06Z" fill="#E6EEF1" fill-opacity="0.45"/>
<path d="M107.211 16.4577C107.211 21.2373 107.211 21.291 108.547 21.291C109.775 21.291 109.882 21.0762 109.936 18.9818L109.989 16.7262L110.63 18.8743C111.164 20.754 111.431 21.0225 112.821 21.0225C114.21 21.0225 114.423 20.754 115.011 18.6058L115.652 16.1892L115.705 18.7132C115.759 20.9151 115.919 21.291 116.827 21.291C117.842 21.291 117.896 20.9151 117.896 16.404V11.5706L115.919 11.7318C113.996 11.8929 113.942 12.0003 113.355 14.5781L112.767 17.2632L112.073 14.4169C111.378 11.6243 111.378 11.6243 109.294 11.6243H107.211V16.4577Z" fill="url(#paint8_linear_1176_2832)"/>
<path d="M107.211 16.4577C107.211 21.2373 107.211 21.291 108.547 21.291C109.775 21.291 109.882 21.0762 109.936 18.9818L109.989 16.7262L110.63 18.8743C111.164 20.754 111.431 21.0225 112.821 21.0225C114.21 21.0225 114.423 20.754 115.011 18.6058L115.652 16.1892L115.705 18.7132C115.759 20.9151 115.919 21.291 116.827 21.291C117.842 21.291 117.896 20.9151 117.896 16.404V11.5706L115.919 11.7318C113.996 11.8929 113.942 12.0003 113.355 14.5781L112.767 17.2632L112.073 14.4169C111.378 11.6243 111.378 11.6243 109.294 11.6243H107.211V16.4577Z" fill="#E6EEF1" fill-opacity="0.45"/>
<path d="M3.08514 14.3624C1.58925 15.9735 1.32212 17.7994 2.23034 20.0012C2.65774 21.0753 2.87144 22.1494 2.71117 22.4179C2.55089 22.6864 2.65774 22.8475 2.92486 22.7938C3.19199 22.6864 4.04678 23.4383 4.90158 24.4049C6.50432 26.3383 9.76322 28.2179 12.5413 28.8624L14.2509 29.2383L13.129 27.4124C12.4879 26.392 12.1139 25.0494 12.2742 24.5124C12.4345 23.9216 12.3276 23.5457 12.0605 23.7605C11.7934 23.9216 11.5797 22.7938 11.5797 21.3438V18.6049H9.65637C6.66459 18.6049 5.70295 17.7994 5.70295 15.3827C5.70295 12.9124 4.79473 12.5364 3.08514 14.3624Z" fill="url(#paint9_linear_1176_2832)"/>
<path d="M3.08514 14.3624C1.58925 15.9735 1.32212 17.7994 2.23034 20.0012C2.65774 21.0753 2.87144 22.1494 2.71117 22.4179C2.55089 22.6864 2.65774 22.8475 2.92486 22.7938C3.19199 22.6864 4.04678 23.4383 4.90158 24.4049C6.50432 26.3383 9.76322 28.2179 12.5413 28.8624L14.2509 29.2383L13.129 27.4124C12.4879 26.392 12.1139 25.0494 12.2742 24.5124C12.4345 23.9216 12.3276 23.5457 12.0605 23.7605C11.7934 23.9216 11.5797 22.7938 11.5797 21.3438V18.6049H9.65637C6.66459 18.6049 5.70295 17.7994 5.70295 15.3827C5.70295 12.9124 4.79473 12.5364 3.08514 14.3624Z" fill="#E6EEF1" fill-opacity="0.45"/>
<path d="M27.9822 16.779C26.7 17.853 25.8987 18.0679 22.7466 18.0679H19.0603V20.6456C19.0603 23.8141 18.4192 24.5123 15.4809 24.5123C14.1987 24.5123 13.1836 24.7808 13.1836 25.103C13.1836 26.2845 16.2822 28.8086 17.8315 28.8086C22.1055 28.7549 27.5014 23.8679 28.9973 18.766C29.4781 17.1549 29.7452 15.7586 29.6384 15.6512C29.585 15.5438 28.7836 16.0808 27.9822 16.779Z" fill="url(#paint10_linear_1176_2832)"/>
<path d="M27.9822 16.779C26.7 17.853 25.8987 18.0679 22.7466 18.0679H19.0603V20.6456C19.0603 23.8141 18.4192 24.5123 15.4809 24.5123C14.1987 24.5123 13.1836 24.7808 13.1836 25.103C13.1836 26.2845 16.2822 28.8086 17.8315 28.8086C22.1055 28.7549 27.5014 23.8679 28.9973 18.766C29.4781 17.1549 29.7452 15.7586 29.6384 15.6512C29.585 15.5438 28.7836 16.0808 27.9822 16.779Z" fill="#E6EEF1" fill-opacity="0.45"/>
</g>
<defs>
<linearGradient id="paint0_linear_1176_2832" x1="1.54229" y1="7.36979" x2="17.4571" y2="7.36979" gradientUnits="userSpaceOnUse">
<stop stop-color="#3793AE"/>
<stop offset="1" stop-color="#074287"/>
</linearGradient>
<linearGradient id="paint1_linear_1176_2832" x1="17.2356" y1="9.16192" x2="29.0087" y2="9.16192" gradientUnits="userSpaceOnUse">
<stop stop-color="#3793AE"/>
<stop offset="1" stop-color="#074287"/>
</linearGradient>
<linearGradient id="paint2_linear_1176_2832" x1="69.912" y1="14.8466" x2="83.97" y2="14.8466" gradientUnits="userSpaceOnUse">
<stop stop-color="#3793AE"/>
<stop offset="1" stop-color="#074287"/>
</linearGradient>
<linearGradient id="paint3_linear_1176_2832" x1="36.7665" y1="14.8466" x2="47.3763" y2="14.8466" gradientUnits="userSpaceOnUse">
<stop stop-color="#3793AE"/>
<stop offset="1" stop-color="#074287"/>
</linearGradient>
<linearGradient id="paint4_linear_1176_2832" x1="48.5244" y1="16.4874" x2="58.5938" y2="16.4874" gradientUnits="userSpaceOnUse">
<stop stop-color="#3793AE"/>
<stop offset="1" stop-color="#074287"/>
</linearGradient>
<linearGradient id="paint5_linear_1176_2832" x1="59.6929" y1="16.5207" x2="68.7434" y2="16.5207" gradientUnits="userSpaceOnUse">
<stop stop-color="#3793AE"/>
<stop offset="1" stop-color="#074287"/>
</linearGradient>
<linearGradient id="paint6_linear_1176_2832" x1="85.3696" y1="16.3811" x2="94.549" y2="16.3811" gradientUnits="userSpaceOnUse">
<stop stop-color="#3793AE"/>
<stop offset="1" stop-color="#074287"/>
</linearGradient>
<linearGradient id="paint7_linear_1176_2832" x1="96.0601" y1="18.3878" x2="105.665" y2="18.3878" gradientUnits="userSpaceOnUse">
<stop stop-color="#3793AE"/>
<stop offset="1" stop-color="#074287"/>
</linearGradient>
<linearGradient id="paint8_linear_1176_2832" x1="107.286" y1="16.4308" x2="117.896" y2="16.4308" gradientUnits="userSpaceOnUse">
<stop stop-color="#3793AE"/>
<stop offset="1" stop-color="#074287"/>
</linearGradient>
<linearGradient id="paint9_linear_1176_2832" x1="1.79516" y1="21.2286" x2="14.2509" y2="21.2286" gradientUnits="userSpaceOnUse">
<stop stop-color="#3793AE"/>
<stop offset="1" stop-color="#074287"/>
</linearGradient>
<linearGradient id="paint10_linear_1176_2832" x1="13.2994" y1="22.223" x2="29.6618" y2="22.223" gradientUnits="userSpaceOnUse">
<stop stop-color="#3793AE"/>
<stop offset="1" stop-color="#074287"/>
</linearGradient>
<clipPath id="clip0_1176_2832">
<rect width="117" height="29" fill="white" transform="translate(0.894531 0.345703)"/>
</clipPath>
</defs>
</svg>
