<svg width="114" height="40" viewBox="0 0 114 40" fill="none" xmlns="http://www.w3.org/2000/svg">
<path d="M52.4637 1.1354C51.5988 2.16241 51.9231 4.70289 53.0042 5.40557C54.4096 6.27042 56.6798 5.40557 57.0581 3.83804C57.7068 1.29756 54.0852 -0.864549 52.4637 1.1354Z" fill="url(#paint0_linear_1176_2985)"/>
<path d="M52.4637 1.1354C51.5988 2.16241 51.9231 4.70289 53.0042 5.40557C54.4096 6.27042 56.6798 5.40557 57.0581 3.83804C57.7068 1.29756 54.0852 -0.864549 52.4637 1.1354Z" fill="#E6EEF1" fill-opacity="0.45"/>
<path d="M43.2206 2.53887C41.9233 3.83614 41.9233 4.1064 43.0044 5.67393C44.4097 7.67388 48.0853 6.75499 48.0853 4.37666C48.0853 3.34966 46.1394 1.45781 45.1124 1.45781C44.68 1.45781 43.8152 1.94429 43.2206 2.53887Z" fill="url(#paint1_linear_1176_2985)"/>
<path d="M43.2206 2.53887C41.9233 3.83614 41.9233 4.1064 43.0044 5.67393C44.4097 7.67388 48.0853 6.75499 48.0853 4.37666C48.0853 3.34966 46.1394 1.45781 45.1124 1.45781C44.68 1.45781 43.8152 1.94429 43.2206 2.53887Z" fill="#E6EEF1" fill-opacity="0.45"/>
<path d="M62.0834 2.48723C61.0024 3.35208 60.8943 3.73045 61.3267 5.02771C62.2997 7.83846 66.4617 7.29793 66.4617 4.37908C66.4617 3.29802 64.732 1.46023 63.705 1.46023C63.4888 1.46023 62.7861 1.94671 62.0834 2.48723Z" fill="url(#paint2_linear_1176_2985)"/>
<path d="M62.0834 2.48723C61.0024 3.35208 60.8943 3.73045 61.3267 5.02771C62.2997 7.83846 66.4617 7.29793 66.4617 4.37908C66.4617 3.29802 64.732 1.46023 63.705 1.46023C63.4888 1.46023 62.7861 1.94671 62.0834 2.48723Z" fill="#E6EEF1" fill-opacity="0.45"/>
<path d="M34.7338 5.89129C33.7068 7.24261 33.5987 8.37772 34.3555 9.51283C35.2744 10.756 37.2203 11.0263 38.2473 9.9993C39.058 9.18851 39.058 6.70208 38.2473 5.89129C37.3824 5.02644 35.3825 5.0805 34.7338 5.89129Z" fill="url(#paint3_linear_1176_2985)"/>
<path d="M34.7338 5.89129C33.7068 7.24261 33.5987 8.37772 34.3555 9.51283C35.2744 10.756 37.2203 11.0263 38.2473 9.9993C39.058 9.18851 39.058 6.70208 38.2473 5.89129C37.3824 5.02644 35.3825 5.0805 34.7338 5.89129Z" fill="#E6EEF1" fill-opacity="0.45"/>
<path d="M70.5136 6.3221C69.2164 7.78152 69.8109 9.99769 71.7028 10.4301C73.4325 10.8625 74.7838 10.1058 75 8.59232C75.4324 5.67346 72.4595 4.15999 70.5136 6.3221Z" fill="url(#paint4_linear_1176_2985)"/>
<path d="M70.5136 6.3221C69.2164 7.78152 69.8109 9.99769 71.7028 10.4301C73.4325 10.8625 74.7838 10.1058 75 8.59232C75.4324 5.67346 72.4595 4.15999 70.5136 6.3221Z" fill="#E6EEF1" fill-opacity="0.45"/>
<path d="M52.7353 8.10732C51.5461 8.97216 51.7624 11.6207 53.0056 12.4315C55.546 13.9991 58.4649 10.7018 56.4649 8.48568C55.3298 7.24247 54.0866 7.13436 52.7353 8.10732Z" fill="url(#paint5_linear_1176_2985)"/>
<path d="M52.7353 8.10732C51.5461 8.97216 51.7624 11.6207 53.0056 12.4315C55.546 13.9991 58.4649 10.7018 56.4649 8.48568C55.3298 7.24247 54.0866 7.13436 52.7353 8.10732Z" fill="#E6EEF1" fill-opacity="0.45"/>
<path d="M44.841 9.62185C43.3275 12.4326 46.3544 15.1352 48.6247 13.0812C49.2192 12.5407 49.7057 11.6759 49.7057 11.1353C49.7057 8.70295 45.922 7.51379 44.841 9.62185Z" fill="url(#paint6_linear_1176_2985)"/>
<path d="M44.841 9.62185C43.3275 12.4326 46.3544 15.1352 48.6247 13.0812C49.2192 12.5407 49.7057 11.6759 49.7057 11.1353C49.7057 8.70295 45.922 7.51379 44.841 9.62185Z" fill="#E6EEF1" fill-opacity="0.45"/>
<path d="M59.7078 9.78172C58.7349 11.2411 59.1132 12.5925 60.6267 13.4033C63.0591 14.7005 65.5455 12.106 64.032 9.78172C62.951 8.10608 60.8429 8.05203 59.7078 9.78172Z" fill="url(#paint7_linear_1176_2985)"/>
<path d="M59.7078 9.78172C58.7349 11.2411 59.1132 12.5925 60.6267 13.4033C63.0591 14.7005 65.5455 12.106 64.032 9.78172C62.951 8.10608 60.8429 8.05203 59.7078 9.78172Z" fill="#E6EEF1" fill-opacity="0.45"/>
<path d="M38.1942 12.1614C36.3564 14.1614 37.3834 16.5938 39.978 16.5938C41.7077 16.5938 42.6806 15.6749 42.6806 14.1073C42.6806 11.5128 39.8699 10.3236 38.1942 12.1614Z" fill="url(#paint8_linear_1176_2985)"/>
<path d="M38.1942 12.1614C36.3564 14.1614 37.3834 16.5938 39.978 16.5938C41.7077 16.5938 42.6806 15.6749 42.6806 14.1073C42.6806 11.5128 39.8699 10.3236 38.1942 12.1614Z" fill="#E6EEF1" fill-opacity="0.45"/>
<path d="M67.1674 11.8374C66.1404 13.1888 66.0323 14.3239 66.789 15.459C67.8701 16.9184 69.9782 16.9184 71.0052 15.4049C72.0862 13.8374 72.0862 13.5671 70.789 12.2699C69.5457 11.0266 67.9242 10.8645 67.1674 11.8374Z" fill="url(#paint9_linear_1176_2985)"/>
<path d="M67.1674 11.8374C66.1404 13.1888 66.0323 14.3239 66.789 15.459C67.8701 16.9184 69.9782 16.9184 71.0052 15.4049C72.0862 13.8374 72.0862 13.5671 70.789 12.2699C69.5457 11.0266 67.9242 10.8645 67.1674 11.8374Z" fill="#E6EEF1" fill-opacity="0.45"/>
<path d="M51.6005 14.8097C46.3573 15.2962 39.8169 18.5934 41.0602 20.1069C41.5466 20.7015 42.3034 20.4853 44.952 19.134C48.087 17.5124 48.5735 17.4043 54.249 17.4043C60.4111 17.4043 62.4651 17.8907 65.492 19.9448C67.0596 21.0258 68.0866 20.8637 68.0866 19.5123C68.0866 17.0259 58.2489 14.2152 51.6005 14.8097Z" fill="url(#paint10_linear_1176_2985)"/>
<path d="M51.6005 14.8097C46.3573 15.2962 39.8169 18.5934 41.0602 20.1069C41.5466 20.7015 42.3034 20.4853 44.952 19.134C48.087 17.5124 48.5735 17.4043 54.249 17.4043C60.4111 17.4043 62.4651 17.8907 65.492 19.9448C67.0596 21.0258 68.0866 20.8637 68.0866 19.5123C68.0866 17.0259 58.2489 14.2152 51.6005 14.8097Z" fill="#E6EEF1" fill-opacity="0.45"/>
<path d="M48.626 18.4837C45.2206 19.4567 42.6261 20.8621 42.2477 21.9431C41.9234 22.862 42.6261 22.6458 47.2746 20.6999C49.7611 19.6189 51.4367 19.2945 54.5718 19.2945C58.4636 19.2945 59.4906 19.6189 65.8147 22.3755C66.1391 22.5377 66.4634 22.3215 66.4634 21.835C66.4634 21.4026 65.058 20.4296 63.1662 19.5648C59.0041 17.727 53.0042 17.2946 48.626 18.4837Z" fill="url(#paint11_linear_1176_2985)"/>
<path d="M48.626 18.4837C45.2206 19.4567 42.6261 20.8621 42.2477 21.9431C41.9234 22.862 42.6261 22.6458 47.2746 20.6999C49.7611 19.6189 51.4367 19.2945 54.5718 19.2945C58.4636 19.2945 59.4906 19.6189 65.8147 22.3755C66.1391 22.5377 66.4634 22.3215 66.4634 21.835C66.4634 21.4026 65.058 20.4296 63.1662 19.5648C59.0041 17.727 53.0042 17.2946 48.626 18.4837Z" fill="#E6EEF1" fill-opacity="0.45"/>
<path d="M14.5708 26.3772C10.679 27.188 8.30067 31.8906 9.92225 35.6743C12.2465 41.3499 20.5707 41.0256 22.6247 35.1879C23.5436 32.5393 23.1652 30.6474 21.1652 28.4853C19.4355 26.5394 17.1653 25.8367 14.5708 26.3772ZM18.5707 30.1609C21.4355 32.3771 19.7058 36.5932 15.9762 36.5932C12.5708 36.5932 11.2736 32.8636 13.76 30.3772C15.3816 28.7556 16.6789 28.7015 18.5707 30.1609Z" fill="url(#paint12_linear_1176_2985)"/>
<path d="M14.5708 26.3772C10.679 27.188 8.30067 31.8906 9.92225 35.6743C12.2465 41.3499 20.5707 41.0256 22.6247 35.1879C23.5436 32.5393 23.1652 30.6474 21.1652 28.4853C19.4355 26.5394 17.1653 25.8367 14.5708 26.3772ZM18.5707 30.1609C21.4355 32.3771 19.7058 36.5932 15.9762 36.5932C12.5708 36.5932 11.2736 32.8636 13.76 30.3772C15.3816 28.7556 16.6789 28.7015 18.5707 30.1609Z" fill="#E6EEF1" fill-opacity="0.45"/>
<path d="M22.842 26.1606C21.5988 26.593 22.0853 27.9984 24.3015 30.647C26.1393 32.8091 26.4636 33.6199 26.4636 35.6739C26.4636 38.8089 26.896 39.8359 28.0852 39.8359C29.2743 39.8359 29.7068 38.8089 29.7068 35.6739C29.7068 33.6199 30.0311 32.8091 31.8689 30.647C33.058 29.2416 34.031 27.6741 34.031 27.2416C34.031 25.6201 32.6256 25.9444 30.4094 28.1065L28.0852 30.3226L25.8149 28.1065C24.5177 26.9173 23.1664 25.9984 22.842 26.1606Z" fill="url(#paint13_linear_1176_2985)"/>
<path d="M22.842 26.1606C21.5988 26.593 22.0853 27.9984 24.3015 30.647C26.1393 32.8091 26.4636 33.6199 26.4636 35.6739C26.4636 38.8089 26.896 39.8359 28.0852 39.8359C29.2743 39.8359 29.7068 38.8089 29.7068 35.6739C29.7068 33.6199 30.0311 32.8091 31.8689 30.647C33.058 29.2416 34.031 27.6741 34.031 27.2416C34.031 25.6201 32.6256 25.9444 30.4094 28.1065L28.0852 30.3226L25.8149 28.1065C24.5177 26.9173 23.1664 25.9984 22.842 26.1606Z" fill="#E6EEF1" fill-opacity="0.45"/>
<path d="M38.5712 26.9722C35.3821 30.5938 30.193 38.3233 30.4633 39.026C30.8957 40.2152 32.0308 39.999 33.4902 38.4855C35.274 36.5936 38.0847 36.5936 38.5712 38.5395C38.8415 39.5665 39.2198 39.8909 40.1387 39.7287C41.2738 39.5665 41.3279 39.2963 41.49 33.1343C41.5982 28.3236 41.436 26.5939 40.9495 26.2155C39.9225 25.6209 39.7604 25.675 38.5712 26.9722ZM38.355 33.3505C38.355 33.945 37.9766 34.4315 37.5442 34.4315C36.8415 34.4315 36.7875 34.2153 37.2739 33.3505C37.5982 32.7559 37.9766 32.2694 38.0847 32.2694C38.2469 32.2694 38.355 32.7559 38.355 33.3505Z" fill="url(#paint14_linear_1176_2985)"/>
<path d="M38.5712 26.9722C35.3821 30.5938 30.193 38.3233 30.4633 39.026C30.8957 40.2152 32.0308 39.999 33.4902 38.4855C35.274 36.5936 38.0847 36.5936 38.5712 38.5395C38.8415 39.5665 39.2198 39.8909 40.1387 39.7287C41.2738 39.5665 41.3279 39.2963 41.49 33.1343C41.5982 28.3236 41.436 26.5939 40.9495 26.2155C39.9225 25.6209 39.7604 25.675 38.5712 26.9722ZM38.355 33.3505C38.355 33.945 37.9766 34.4315 37.5442 34.4315C36.8415 34.4315 36.7875 34.2153 37.2739 33.3505C37.5982 32.7559 37.9766 32.2694 38.0847 32.2694C38.2469 32.2694 38.355 32.7559 38.355 33.3505Z" fill="#E6EEF1" fill-opacity="0.45"/>
<path d="M44.4605 26.1612C43.92 26.3234 43.7578 28.2693 43.7578 33.134V39.8906L47.4334 39.7285C50.6225 39.5663 51.0549 39.4582 51.0549 38.4853C51.0549 37.6204 50.6225 37.3501 48.7847 37.242L46.5145 37.0799L46.3523 31.6205C46.1902 26.3234 45.9199 25.5666 44.4605 26.1612Z" fill="url(#paint15_linear_1176_2985)"/>
<path d="M44.4605 26.1612C43.92 26.3234 43.7578 28.2693 43.7578 33.134V39.8906L47.4334 39.7285C50.6225 39.5663 51.0549 39.4582 51.0549 38.4853C51.0549 37.6204 50.6225 37.3501 48.7847 37.242L46.5145 37.0799L46.3523 31.6205C46.1902 26.3234 45.9199 25.5666 44.4605 26.1612Z" fill="#E6EEF1" fill-opacity="0.45"/>
<path d="M68.8934 26.431C68.7312 26.8634 68.6772 29.9985 68.7312 33.4038C68.8934 39.2956 68.9474 39.5658 70.0825 39.728C71.0014 39.8901 71.3798 39.5658 71.6501 38.5388C72.1365 36.5929 74.7851 36.5929 76.7851 38.5388C78.2986 39.9983 79.9742 39.9983 79.9742 38.6469C79.9201 37.5118 71.1095 26.0526 70.0825 25.8905C69.5961 25.7824 69.0555 26.0526 68.8934 26.431ZM72.9473 33.3498C73.4338 34.2146 73.3797 34.4308 72.6771 34.4308C72.2446 34.4308 71.8663 33.9443 71.8663 33.3498C71.8663 32.7552 71.9744 32.2687 72.1365 32.2687C72.2446 32.2687 72.623 32.7552 72.9473 33.3498Z" fill="url(#paint16_linear_1176_2985)"/>
<path d="M68.8934 26.431C68.7312 26.8634 68.6772 29.9985 68.7312 33.4038C68.8934 39.2956 68.9474 39.5658 70.0825 39.728C71.0014 39.8901 71.3798 39.5658 71.6501 38.5388C72.1365 36.5929 74.7851 36.5929 76.7851 38.5388C78.2986 39.9983 79.9742 39.9983 79.9742 38.6469C79.9201 37.5118 71.1095 26.0526 70.0825 25.8905C69.5961 25.7824 69.0555 26.0526 68.8934 26.431ZM72.9473 33.3498C73.4338 34.2146 73.3797 34.4308 72.6771 34.4308C72.2446 34.4308 71.8663 33.9443 71.8663 33.3498C71.8663 32.7552 71.9744 32.2687 72.1365 32.2687C72.2446 32.2687 72.623 32.7552 72.9473 33.3498Z" fill="#E6EEF1" fill-opacity="0.45"/>
<path d="M81.7072 26.4316C81.2748 26.864 81.0586 29.2423 81.0586 33.5125C81.0586 39.8367 81.0586 39.8907 82.3018 39.7286C83.3829 39.5664 83.545 39.1881 83.7612 35.8908L84.0315 32.2152L86.2477 35.8908C87.9774 38.8097 88.68 39.5664 89.7611 39.5664H91.0584V32.8098C91.0584 26.4316 91.0043 26.0532 89.9773 26.0532C89.0044 26.0532 88.8422 26.4857 88.626 29.8369L88.3557 33.6206L86.5179 30.3775C84.8423 27.4045 83.491 25.783 82.6802 25.783C82.518 25.783 82.0856 26.0532 81.7072 26.4316Z" fill="url(#paint17_linear_1176_2985)"/>
<path d="M81.7072 26.4316C81.2748 26.864 81.0586 29.2423 81.0586 33.5125C81.0586 39.8367 81.0586 39.8907 82.3018 39.7286C83.3829 39.5664 83.545 39.1881 83.7612 35.8908L84.0315 32.2152L86.2477 35.8908C87.9774 38.8097 88.68 39.5664 89.7611 39.5664H91.0584V32.8098C91.0584 26.4316 91.0043 26.0532 89.9773 26.0532C89.0044 26.0532 88.8422 26.4857 88.626 29.8369L88.3557 33.6206L86.5179 30.3775C84.8423 27.4045 83.491 25.783 82.6802 25.783C82.518 25.783 82.0856 26.0532 81.7072 26.4316Z" fill="#E6EEF1" fill-opacity="0.45"/>
<path d="M93.8667 26.1065C93.6504 26.3227 93.4883 29.5119 93.4883 33.1874V39.8359H94.8396H96.245L96.0828 32.9712C95.9207 27.2416 95.7585 26.0525 95.1099 25.8903C94.6234 25.8363 94.0829 25.8903 93.8667 26.1065Z" fill="url(#paint18_linear_1176_2985)"/>
<path d="M93.8667 26.1065C93.6504 26.3227 93.4883 29.5119 93.4883 33.1874V39.8359H94.8396H96.245L96.0828 32.9712C95.9207 27.2416 95.7585 26.0525 95.1099 25.8903C94.6234 25.8363 94.0829 25.8903 93.8667 26.1065Z" fill="#E6EEF1" fill-opacity="0.45"/>
<path d="M99.2705 26.3768C98.4597 26.8633 98.3516 27.8362 98.3516 33.4037C98.3516 39.8359 98.3516 39.89 99.5948 39.7278C100.676 39.5657 100.784 39.1873 101.054 35.782L101.324 31.9983L102.892 34.7009C105.703 39.5116 105.919 39.8359 106.946 39.8359C108.838 39.8359 109.216 38.5927 109.054 32.2145C108.892 26.3227 108.838 26.0525 107.703 25.8903C106.351 25.6741 106.027 26.5389 105.811 30.9172L105.649 33.6199L103.865 30.2145C101.919 26.5389 100.73 25.566 99.2705 26.3768Z" fill="url(#paint19_linear_1176_2985)"/>
<path d="M99.2705 26.3768C98.4597 26.8633 98.3516 27.8362 98.3516 33.4037C98.3516 39.8359 98.3516 39.89 99.5948 39.7278C100.676 39.5657 100.784 39.1873 101.054 35.782L101.324 31.9983L102.892 34.7009C105.703 39.5116 105.919 39.8359 106.946 39.8359C108.838 39.8359 109.216 38.5927 109.054 32.2145C108.892 26.3227 108.838 26.0525 107.703 25.8903C106.351 25.6741 106.027 26.5389 105.811 30.9172L105.649 33.6199L103.865 30.2145C101.919 26.5389 100.73 25.566 99.2705 26.3768Z" fill="#E6EEF1" fill-opacity="0.45"/>
<path d="M110.947 26.5412C110.784 26.8655 110.784 26.9736 111.055 26.7574C111.271 26.5412 111.92 26.9195 112.406 27.5682C113.325 28.6492 113.433 28.7033 113.757 27.7844C113.974 27.2439 114.028 26.6493 113.811 26.4871C113.217 25.8925 111.271 25.9466 110.947 26.5412Z" fill="url(#paint20_linear_1176_2985)"/>
<path d="M110.947 26.5412C110.784 26.8655 110.784 26.9736 111.055 26.7574C111.271 26.5412 111.92 26.9195 112.406 27.5682C113.325 28.6492 113.433 28.7033 113.757 27.7844C113.974 27.2439 114.028 26.6493 113.811 26.4871C113.217 25.8925 111.271 25.9466 110.947 26.5412Z" fill="#E6EEF1" fill-opacity="0.45"/>
<path d="M0.843025 27.3517C0.0862861 28.1625 -0.0218195 29.2976 0.0862861 33.9462C0.248444 39.1352 0.302497 39.5677 1.3295 39.5677C2.2484 39.5677 2.46461 39.1352 2.68082 36.9731L2.95108 34.3786L5.00509 37.0812C7.00504 39.8379 8.41042 40.5406 8.95095 39.0812C9.1131 38.7028 8.68068 37.5136 8.0861 36.4326C7.00504 34.5948 7.00504 34.3786 7.76178 33.2435C8.95095 31.5678 8.84284 29.4598 7.49152 27.7301C6.62668 26.595 5.92399 26.3247 4.08619 26.3247C2.51866 26.3247 1.49166 26.649 0.843025 27.3517ZM5.38346 29.8381C5.92399 30.4868 5.92399 30.8111 5.38346 31.4597C4.03214 33.0813 2.08624 31.8381 2.89703 29.8381C3.05919 29.4057 3.54567 29.0274 3.92403 29.0274C4.35646 29.0274 5.00509 29.4057 5.38346 29.8381Z" fill="url(#paint21_linear_1176_2985)"/>
<path d="M0.843025 27.3517C0.0862861 28.1625 -0.0218195 29.2976 0.0862861 33.9462C0.248444 39.1352 0.302497 39.5677 1.3295 39.5677C2.2484 39.5677 2.46461 39.1352 2.68082 36.9731L2.95108 34.3786L5.00509 37.0812C7.00504 39.8379 8.41042 40.5406 8.95095 39.0812C9.1131 38.7028 8.68068 37.5136 8.0861 36.4326C7.00504 34.5948 7.00504 34.3786 7.76178 33.2435C8.95095 31.5678 8.84284 29.4598 7.49152 27.7301C6.62668 26.595 5.92399 26.3247 4.08619 26.3247C2.51866 26.3247 1.49166 26.649 0.843025 27.3517ZM5.38346 29.8381C5.92399 30.4868 5.92399 30.8111 5.38346 31.4597C4.03214 33.0813 2.08624 31.8381 2.89703 29.8381C3.05919 29.4057 3.54567 29.0274 3.92403 29.0274C4.35646 29.0274 5.00509 29.4057 5.38346 29.8381Z" fill="#E6EEF1" fill-opacity="0.45"/>
<path d="M58.6794 27.4592C55.5443 29.8915 54.8416 33.6212 56.8956 36.6481C58.5172 39.0805 60.301 39.9454 63.1117 39.6751C65.6522 39.4048 67.544 38.0535 67.544 36.486C67.544 35.2968 66.4089 35.2428 64.2468 36.3779C61.4901 37.7833 58.8956 36.2157 58.8956 33.0807C58.8956 29.7294 62.0847 27.9997 64.7333 29.8915C67.3278 31.6753 68.6251 29.4051 66.1387 27.4592C64.1928 25.9457 60.6253 25.9457 58.6794 27.4592Z" fill="url(#paint22_linear_1176_2985)"/>
<path d="M58.6794 27.4592C55.5443 29.8915 54.8416 33.6212 56.8956 36.6481C58.5172 39.0805 60.301 39.9454 63.1117 39.6751C65.6522 39.4048 67.544 38.0535 67.544 36.486C67.544 35.2968 66.4089 35.2428 64.2468 36.3779C61.4901 37.7833 58.8956 36.2157 58.8956 33.0807C58.8956 29.7294 62.0847 27.9997 64.7333 29.8915C67.3278 31.6753 68.6251 29.4051 66.1387 27.4592C64.1928 25.9457 60.6253 25.9457 58.6794 27.4592Z" fill="#E6EEF1" fill-opacity="0.45"/>
<defs>
<linearGradient id="paint0_linear_1176_2985" x1="52.005" y1="3.04953" x2="57.1351" y2="3.04953" gradientUnits="userSpaceOnUse">
<stop stop-color="#3793AE"/>
<stop offset="1" stop-color="#074287"/>
</linearGradient>
<linearGradient id="paint1_linear_1176_2985" x1="42.26" y1="4.11367" x2="48.0853" y2="4.11367" gradientUnits="userSpaceOnUse">
<stop stop-color="#3793AE"/>
<stop offset="1" stop-color="#074287"/>
</linearGradient>
<linearGradient id="paint2_linear_1176_2985" x1="61.1276" y1="4.16762" x2="66.4617" y2="4.16762" gradientUnits="userSpaceOnUse">
<stop stop-color="#3793AE"/>
<stop offset="1" stop-color="#074287"/>
</linearGradient>
<linearGradient id="paint3_linear_1176_2985" x1="33.8984" y1="7.94681" x2="38.8554" y2="7.94681" gradientUnits="userSpaceOnUse">
<stop stop-color="#3793AE"/>
<stop offset="1" stop-color="#074287"/>
</linearGradient>
<linearGradient id="paint4_linear_1176_2985" x1="69.857" y1="7.92578" x2="75.0424" y2="7.92578" gradientUnits="userSpaceOnUse">
<stop stop-color="#3793AE"/>
<stop offset="1" stop-color="#074287"/>
</linearGradient>
<linearGradient id="paint5_linear_1176_2985" x1="51.9856" y1="10.1476" x2="57.1288" y2="10.1476" gradientUnits="userSpaceOnUse">
<stop stop-color="#3793AE"/>
<stop offset="1" stop-color="#074287"/>
</linearGradient>
<linearGradient id="paint6_linear_1176_2985" x1="44.4706" y1="11.167" x2="49.7057" y2="11.167" gradientUnits="userSpaceOnUse">
<stop stop-color="#3793AE"/>
<stop offset="1" stop-color="#074287"/>
</linearGradient>
<linearGradient id="paint7_linear_1176_2985" x1="59.2093" y1="11.1273" x2="64.4939" y2="11.1273" gradientUnits="userSpaceOnUse">
<stop stop-color="#3793AE"/>
<stop offset="1" stop-color="#074287"/>
</linearGradient>
<linearGradient id="paint8_linear_1176_2985" x1="37.2998" y1="13.9332" x2="42.6806" y2="13.9332" gradientUnits="userSpaceOnUse">
<stop stop-color="#3793AE"/>
<stop offset="1" stop-color="#074287"/>
</linearGradient>
<linearGradient id="paint9_linear_1176_2985" x1="66.3355" y1="13.8773" x2="71.7908" y2="13.8773" gradientUnits="userSpaceOnUse">
<stop stop-color="#3793AE"/>
<stop offset="1" stop-color="#074287"/>
</linearGradient>
<linearGradient id="paint10_linear_1176_2985" x1="41.0972" y1="17.6917" x2="68.0866" y2="17.6917" gradientUnits="userSpaceOnUse">
<stop stop-color="#3793AE"/>
<stop offset="1" stop-color="#074287"/>
</linearGradient>
<linearGradient id="paint11_linear_1176_2985" x1="42.3503" y1="20.1427" x2="66.4634" y2="20.1427" gradientUnits="userSpaceOnUse">
<stop stop-color="#3793AE"/>
<stop offset="1" stop-color="#074287"/>
</linearGradient>
<linearGradient id="paint12_linear_1176_2985" x1="9.50245" y1="32.9774" x2="23.0993" y2="32.9774" gradientUnits="userSpaceOnUse">
<stop stop-color="#3793AE"/>
<stop offset="1" stop-color="#074287"/>
</linearGradient>
<linearGradient id="paint13_linear_1176_2985" x1="22.2552" y1="32.989" x2="34.031" y2="32.989" gradientUnits="userSpaceOnUse">
<stop stop-color="#3793AE"/>
<stop offset="1" stop-color="#074287"/>
</linearGradient>
<linearGradient id="paint14_linear_1176_2985" x1="30.5309" y1="32.8201" x2="41.5221" y2="32.8201" gradientUnits="userSpaceOnUse">
<stop stop-color="#3793AE"/>
<stop offset="1" stop-color="#074287"/>
</linearGradient>
<linearGradient id="paint15_linear_1176_2985" x1="43.8091" y1="32.9404" x2="51.0549" y2="32.9404" gradientUnits="userSpaceOnUse">
<stop stop-color="#3793AE"/>
<stop offset="1" stop-color="#074287"/>
</linearGradient>
<linearGradient id="paint16_linear_1176_2985" x1="68.7901" y1="32.817" x2="79.9742" y2="32.817" gradientUnits="userSpaceOnUse">
<stop stop-color="#3793AE"/>
<stop offset="1" stop-color="#074287"/>
</linearGradient>
<linearGradient id="paint17_linear_1176_2985" x1="81.1288" y1="32.7753" x2="91.0584" y2="32.7753" gradientUnits="userSpaceOnUse">
<stop stop-color="#3793AE"/>
<stop offset="1" stop-color="#074287"/>
</linearGradient>
<linearGradient id="paint18_linear_1176_2985" x1="93.5076" y1="32.8534" x2="96.245" y2="32.8534" gradientUnits="userSpaceOnUse">
<stop stop-color="#3793AE"/>
<stop offset="1" stop-color="#074287"/>
</linearGradient>
<linearGradient id="paint19_linear_1176_2985" x1="98.427" y1="32.848" x2="109.088" y2="32.848" gradientUnits="userSpaceOnUse">
<stop stop-color="#3793AE"/>
<stop offset="1" stop-color="#074287"/>
</linearGradient>
<linearGradient id="paint20_linear_1176_2985" x1="110.858" y1="27.2485" x2="113.949" y2="27.2485" gradientUnits="userSpaceOnUse">
<stop stop-color="#3793AE"/>
<stop offset="1" stop-color="#074287"/>
</linearGradient>
<linearGradient id="paint21_linear_1176_2985" x1="0.113553" y1="33.0745" x2="8.9853" y2="33.0745" gradientUnits="userSpaceOnUse">
<stop stop-color="#3793AE"/>
<stop offset="1" stop-color="#074287"/>
</linearGradient>
<linearGradient id="paint22_linear_1176_2985" x1="55.8135" y1="33.0234" x2="67.544" y2="33.0234" gradientUnits="userSpaceOnUse">
<stop stop-color="#3793AE"/>
<stop offset="1" stop-color="#074287"/>
</linearGradient>
</defs>
</svg>
