<svg width="119" height="26" viewBox="0 0 119 26" fill="none" xmlns="http://www.w3.org/2000/svg">
<path d="M6.73372 1.8803C5.39283 2.6328 3.62093 4.04373 2.8547 5.03139C1.08281 7.33591 -0.353866 11.8039 0.0771356 13.9203C0.556026 16.507 1.03492 15.7545 1.08281 12.3212C1.1307 8.88794 1.70536 7.6181 4.33926 4.79623C6.8295 2.11545 9.17606 1.17483 13.2466 1.22186C16.5031 1.22186 17.0299 1.36295 19.137 2.77389C22.1061 4.79623 23.5428 6.67748 24.5006 9.96966C25.2189 12.4623 25.2189 12.9326 24.5485 15.1901C23.5907 18.4823 22.1061 20.5046 19.3764 22.3389C15.8805 24.6904 11.4269 24.9726 7.45206 22.9973C5.53649 22.0567 2.51948 18.9526 1.9927 17.4476C1.84903 16.8832 1.51381 16.46 1.27436 16.46C0.172914 16.46 0.556027 17.4476 2.47159 19.8462C6.01538 24.3142 11.5705 26.0073 17.1735 24.3612C19.3286 23.7498 23.016 20.7398 24.0217 18.8115C24.5485 17.8239 24.9795 17.5417 25.6978 17.7298C26.2246 17.8709 26.6556 17.7298 26.6556 17.4476C26.6556 17.2125 26.3682 17.0714 25.9851 17.2125C25.4584 17.4006 25.3147 16.6481 25.3626 13.3089C25.4105 9.96966 25.2189 8.79388 24.3569 7.24185C21.9625 2.6328 18.1313 0.469362 12.6241 0.469362C9.70284 0.469362 8.79295 0.704517 6.73372 1.8803Z" fill="url(#paint0_linear_1176_2934)"/>
<path d="M6.73372 1.8803C5.39283 2.6328 3.62093 4.04373 2.8547 5.03139C1.08281 7.33591 -0.353866 11.8039 0.0771356 13.9203C0.556026 16.507 1.03492 15.7545 1.08281 12.3212C1.1307 8.88794 1.70536 7.6181 4.33926 4.79623C6.8295 2.11545 9.17606 1.17483 13.2466 1.22186C16.5031 1.22186 17.0299 1.36295 19.137 2.77389C22.1061 4.79623 23.5428 6.67748 24.5006 9.96966C25.2189 12.4623 25.2189 12.9326 24.5485 15.1901C23.5907 18.4823 22.1061 20.5046 19.3764 22.3389C15.8805 24.6904 11.4269 24.9726 7.45206 22.9973C5.53649 22.0567 2.51948 18.9526 1.9927 17.4476C1.84903 16.8832 1.51381 16.46 1.27436 16.46C0.172914 16.46 0.556027 17.4476 2.47159 19.8462C6.01538 24.3142 11.5705 26.0073 17.1735 24.3612C19.3286 23.7498 23.016 20.7398 24.0217 18.8115C24.5485 17.8239 24.9795 17.5417 25.6978 17.7298C26.2246 17.8709 26.6556 17.7298 26.6556 17.4476C26.6556 17.2125 26.3682 17.0714 25.9851 17.2125C25.4584 17.4006 25.3147 16.6481 25.3626 13.3089C25.4105 9.96966 25.2189 8.79388 24.3569 7.24185C21.9625 2.6328 18.1313 0.469362 12.6241 0.469362C9.70284 0.469362 8.79295 0.704517 6.73372 1.8803Z" fill="#E6EEF1" fill-opacity="0.45"/>
<path d="M110.462 1.88231C105.625 2.72887 102.177 6.77355 102.129 11.7118C102.129 13.7812 102.368 14.6748 103.278 15.8976C106.152 19.6601 113.143 18.7195 116.639 14.0634C117.645 12.6995 117.693 12.5584 116.975 11.8529C116.256 11.1474 116.065 11.2415 114.389 13.0287C111.563 16.1798 108.259 16.8853 105.96 14.8159C102.32 11.5237 106.583 3.76355 112.042 3.76355C113.574 3.76355 115.634 5.36261 115.825 6.72652C115.921 7.29089 116.352 7.80823 116.783 7.9023C117.741 8.09042 118.315 7.00871 118.842 3.85762C119.13 2.07043 119.082 1.88231 118.22 1.88231C117.693 1.88231 117.118 2.21152 116.975 2.63481C116.687 3.34027 116.591 3.34027 115.825 2.72887C114.82 1.83528 112.712 1.50606 110.462 1.88231Z" fill="url(#paint1_linear_1176_2934)"/>
<path d="M110.462 1.88231C105.625 2.72887 102.177 6.77355 102.129 11.7118C102.129 13.7812 102.368 14.6748 103.278 15.8976C106.152 19.6601 113.143 18.7195 116.639 14.0634C117.645 12.6995 117.693 12.5584 116.975 11.8529C116.256 11.1474 116.065 11.2415 114.389 13.0287C111.563 16.1798 108.259 16.8853 105.96 14.8159C102.32 11.5237 106.583 3.76355 112.042 3.76355C113.574 3.76355 115.634 5.36261 115.825 6.72652C115.921 7.29089 116.352 7.80823 116.783 7.9023C117.741 8.09042 118.315 7.00871 118.842 3.85762C119.13 2.07043 119.082 1.88231 118.22 1.88231C117.693 1.88231 117.118 2.21152 116.975 2.63481C116.687 3.34027 116.591 3.34027 115.825 2.72887C114.82 1.83528 112.712 1.50606 110.462 1.88231Z" fill="#E6EEF1" fill-opacity="0.45"/>
<path d="M36.9994 2.63383C36.5684 3.71555 36.6163 3.76258 37.6699 3.76258C38.1966 3.76258 38.6276 3.90367 38.6276 4.09179C38.6276 4.32695 38.053 6.9607 37.3346 9.97069C36.2332 14.6738 35.898 15.5204 35.0838 15.6144C34.4613 15.7085 34.0303 16.1788 33.9345 16.8372C33.7908 17.8719 33.8866 17.919 36.8079 17.7779C39.5375 17.6368 39.8249 17.5427 39.9685 16.5551C40.0643 15.8496 39.8728 15.5204 39.3939 15.5204C38.9629 15.5204 38.6276 15.4263 38.6276 15.3793C38.6276 14.7208 40.639 5.92601 41.0221 4.93836C41.4531 3.85664 41.6925 3.76258 44.3264 3.76258C45.9068 3.76258 47.2956 3.9507 47.4392 4.13883C47.5829 4.37398 47.3913 5.69086 47.0082 7.10179C46.673 8.51273 46.0983 10.8643 45.811 12.3693C45.38 14.5797 45.0448 15.1912 44.087 15.5204C43.3687 15.8026 42.9377 16.3669 42.9377 16.9313C42.9377 17.8249 43.1771 17.919 45.9547 17.7779C48.6365 17.6368 48.9238 17.5427 49.0675 16.5551C49.1632 15.8496 48.9717 15.5204 48.4928 15.5204C48.0618 15.5204 47.7266 15.2852 47.7266 15.003C47.7266 14.5327 49.5464 6.11414 49.9295 4.79726C50.0252 4.46804 50.6478 3.99773 51.3182 3.76258C51.9887 3.52742 52.5155 3.01008 52.5155 2.5868C52.5155 1.50508 37.4304 1.50508 36.9994 2.63383Z" fill="url(#paint2_linear_1176_2934)"/>
<path d="M36.9994 2.63383C36.5684 3.71555 36.6163 3.76258 37.6699 3.76258C38.1966 3.76258 38.6276 3.90367 38.6276 4.09179C38.6276 4.32695 38.053 6.9607 37.3346 9.97069C36.2332 14.6738 35.898 15.5204 35.0838 15.6144C34.4613 15.7085 34.0303 16.1788 33.9345 16.8372C33.7908 17.8719 33.8866 17.919 36.8079 17.7779C39.5375 17.6368 39.8249 17.5427 39.9685 16.5551C40.0643 15.8496 39.8728 15.5204 39.3939 15.5204C38.9629 15.5204 38.6276 15.4263 38.6276 15.3793C38.6276 14.7208 40.639 5.92601 41.0221 4.93836C41.4531 3.85664 41.6925 3.76258 44.3264 3.76258C45.9068 3.76258 47.2956 3.9507 47.4392 4.13883C47.5829 4.37398 47.3913 5.69086 47.0082 7.10179C46.673 8.51273 46.0983 10.8643 45.811 12.3693C45.38 14.5797 45.0448 15.1912 44.087 15.5204C43.3687 15.8026 42.9377 16.3669 42.9377 16.9313C42.9377 17.8249 43.1771 17.919 45.9547 17.7779C48.6365 17.6368 48.9238 17.5427 49.0675 16.5551C49.1632 15.8496 48.9717 15.5204 48.4928 15.5204C48.0618 15.5204 47.7266 15.2852 47.7266 15.003C47.7266 14.5327 49.5464 6.11414 49.9295 4.79726C50.0252 4.46804 50.6478 3.99773 51.3182 3.76258C51.9887 3.52742 52.5155 3.01008 52.5155 2.5868C52.5155 1.50508 37.4304 1.50508 36.9994 2.63383Z" fill="#E6EEF1" fill-opacity="0.45"/>
<path d="M54.9083 2.86979C54.9083 3.43417 55.2914 3.95151 55.8661 4.0926C56.3929 4.2337 56.8239 4.56291 56.8239 4.89213C56.8717 5.17432 57.1591 7.43182 57.4943 9.87744C58.2605 15.0038 57.9732 15.9915 55.8182 15.9915C54.5731 15.9915 54.3815 16.1326 54.5252 17.0262C54.7646 18.6723 57.638 18.3901 59.2183 16.5559C60.0803 15.5212 66.5453 6.67932 68.1257 4.32776C68.1736 4.2337 68.5088 4.13963 68.8919 4.04557C69.9455 3.90448 70.7117 3.29307 70.7117 2.54057C70.7117 1.41183 64.2946 1.78808 64.103 2.91682C64.0072 3.4812 64.2467 3.76338 64.7256 3.76338C65.2523 3.76338 65.4439 3.99854 65.3002 4.42182C64.9171 5.36244 60.9423 10.771 60.6071 10.771C60.4155 10.8181 60.0324 9.40712 59.6972 7.714C59.1225 4.79807 59.1225 4.60995 60.1282 3.95151C62.0917 2.58761 61.3733 1.88214 58.0211 1.88214C55.1956 1.88214 54.9083 1.9762 54.9083 2.86979Z" fill="url(#paint3_linear_1176_2934)"/>
<path d="M54.9083 2.86979C54.9083 3.43417 55.2914 3.95151 55.8661 4.0926C56.3929 4.2337 56.8239 4.56291 56.8239 4.89213C56.8717 5.17432 57.1591 7.43182 57.4943 9.87744C58.2605 15.0038 57.9732 15.9915 55.8182 15.9915C54.5731 15.9915 54.3815 16.1326 54.5252 17.0262C54.7646 18.6723 57.638 18.3901 59.2183 16.5559C60.0803 15.5212 66.5453 6.67932 68.1257 4.32776C68.1736 4.2337 68.5088 4.13963 68.8919 4.04557C69.9455 3.90448 70.7117 3.29307 70.7117 2.54057C70.7117 1.41183 64.2946 1.78808 64.103 2.91682C64.0072 3.4812 64.2467 3.76338 64.7256 3.76338C65.2523 3.76338 65.4439 3.99854 65.3002 4.42182C64.9171 5.36244 60.9423 10.771 60.6071 10.771C60.4155 10.8181 60.0324 9.40712 59.6972 7.714C59.1225 4.79807 59.1225 4.60995 60.1282 3.95151C62.0917 2.58761 61.3733 1.88214 58.0211 1.88214C55.1956 1.88214 54.9083 1.9762 54.9083 2.86979Z" fill="#E6EEF1" fill-opacity="0.45"/>
<path d="M72.8211 2.58825C72.4858 3.43482 72.9647 4.23434 73.8746 4.23434C74.3535 4.23434 74.4972 4.51653 74.3535 5.03387C74.2098 5.50419 73.7788 7.29137 73.3478 8.98449C72.9168 10.6776 72.0548 12.8881 71.4802 13.9228C70.6182 15.4278 70.1872 15.757 69.0378 15.71C67.6011 15.6629 66.8828 16.1803 66.8828 17.262C66.8828 18.814 71.0971 18.2496 72.4858 16.5565C73.6831 15.0515 75.3113 11.0539 75.9817 7.99684C76.317 6.30372 76.7959 4.70466 77.0353 4.37544C77.5142 3.76403 81.1059 3.66997 81.489 4.23434C81.6805 4.51653 80.9622 8.18496 79.4776 14.346C79.3819 14.9104 78.8072 15.5218 78.2325 15.757C77.6579 16.0392 77.1311 16.6035 77.0353 17.0739C76.8916 17.7793 77.2747 17.8734 79.9565 17.8734C82.351 17.8734 83.1172 17.6853 83.3567 17.1209C83.7398 16.1803 83.3088 15.5218 82.3989 15.5218C81.5848 15.5218 81.5848 15.3337 82.3989 12.4178C82.782 11.1479 83.3567 8.79637 83.6919 7.19731C84.1229 4.79872 84.4102 4.28138 85.2722 4.14028C85.8948 4.04622 86.3258 3.62294 86.4216 2.91747C86.5652 1.88279 86.5652 1.88279 79.8129 1.88279C74.3535 1.88279 73.0126 2.02388 72.8211 2.58825Z" fill="url(#paint4_linear_1176_2934)"/>
<path d="M72.8211 2.58825C72.4858 3.43482 72.9647 4.23434 73.8746 4.23434C74.3535 4.23434 74.4972 4.51653 74.3535 5.03387C74.2098 5.50419 73.7788 7.29137 73.3478 8.98449C72.9168 10.6776 72.0548 12.8881 71.4802 13.9228C70.6182 15.4278 70.1872 15.757 69.0378 15.71C67.6011 15.6629 66.8828 16.1803 66.8828 17.262C66.8828 18.814 71.0971 18.2496 72.4858 16.5565C73.6831 15.0515 75.3113 11.0539 75.9817 7.99684C76.317 6.30372 76.7959 4.70466 77.0353 4.37544C77.5142 3.76403 81.1059 3.66997 81.489 4.23434C81.6805 4.51653 80.9622 8.18496 79.4776 14.346C79.3819 14.9104 78.8072 15.5218 78.2325 15.757C77.6579 16.0392 77.1311 16.6035 77.0353 17.0739C76.8916 17.7793 77.2747 17.8734 79.9565 17.8734C82.351 17.8734 83.1172 17.6853 83.3567 17.1209C83.7398 16.1803 83.3088 15.5218 82.3989 15.5218C81.5848 15.5218 81.5848 15.3337 82.3989 12.4178C82.782 11.1479 83.3567 8.79637 83.6919 7.19731C84.1229 4.79872 84.4102 4.28138 85.2722 4.14028C85.8948 4.04622 86.3258 3.62294 86.4216 2.91747C86.5652 1.88279 86.5652 1.88279 79.8129 1.88279C74.3535 1.88279 73.0126 2.02388 72.8211 2.58825Z" fill="#E6EEF1" fill-opacity="0.45"/>
<path d="M89.8729 2.63495C89.8729 3.05823 90.2081 3.66963 90.6391 3.99885C91.3095 4.46916 91.3574 4.84541 90.9743 6.16228C90.687 7.05588 90.0644 9.5015 89.5855 11.6179C88.8672 14.769 88.532 15.5215 87.7179 15.6156C87.1432 15.7096 86.7122 16.1799 86.6164 16.7913C86.4727 17.873 86.5685 17.873 91.2616 17.873C95.9548 17.873 96.0984 17.826 97.7267 16.4151C100.408 14.1106 100.696 10.1129 98.2535 9.03119C97.583 8.70197 96.1942 8.46681 95.1407 8.46681C94.135 8.46681 93.1772 8.27869 93.0335 8.09056C92.6983 7.57322 93.7519 4.23401 94.2308 4.23401C94.7575 4.23401 96.0984 2.82307 96.0984 2.30573C96.0984 2.07057 94.7097 1.88245 92.9857 1.88245C90.3996 1.88245 89.8729 2.02354 89.8729 2.63495ZM96.6252 10.8184C97.8225 11.4768 97.7746 12.7466 96.5294 14.2987C95.7153 15.2863 95.1407 15.5215 93.3688 15.5215H91.2138L91.549 13.7813C92.0758 11.0535 92.6025 10.3481 94.2308 10.3481C95.0449 10.3481 96.0984 10.5832 96.6252 10.8184Z" fill="url(#paint5_linear_1176_2934)"/>
<path d="M89.8729 2.63495C89.8729 3.05823 90.2081 3.66963 90.6391 3.99885C91.3095 4.46916 91.3574 4.84541 90.9743 6.16228C90.687 7.05588 90.0644 9.5015 89.5855 11.6179C88.8672 14.769 88.532 15.5215 87.7179 15.6156C87.1432 15.7096 86.7122 16.1799 86.6164 16.7913C86.4727 17.873 86.5685 17.873 91.2616 17.873C95.9548 17.873 96.0984 17.826 97.7267 16.4151C100.408 14.1106 100.696 10.1129 98.2535 9.03119C97.583 8.70197 96.1942 8.46681 95.1407 8.46681C94.135 8.46681 93.1772 8.27869 93.0335 8.09056C92.6983 7.57322 93.7519 4.23401 94.2308 4.23401C94.7575 4.23401 96.0984 2.82307 96.0984 2.30573C96.0984 2.07057 94.7097 1.88245 92.9857 1.88245C90.3996 1.88245 89.8729 2.02354 89.8729 2.63495ZM96.6252 10.8184C97.8225 11.4768 97.7746 12.7466 96.5294 14.2987C95.7153 15.2863 95.1407 15.5215 93.3688 15.5215H91.2138L91.549 13.7813C92.0758 11.0535 92.6025 10.3481 94.2308 10.3481C95.0449 10.3481 96.0984 10.5832 96.6252 10.8184Z" fill="#E6EEF1" fill-opacity="0.45"/>
<path d="M14.0591 7.47822C11.8083 12.0402 10.7068 13.216 9.70117 12.2284C8.93494 11.4759 8.59972 11.664 7.97716 13.169C7.54616 14.2037 7.06727 14.5799 6.34893 14.4859C5.05593 14.3918 2.23047 15.4735 2.23047 16.0849C2.23047 16.3671 2.66147 16.4141 3.33192 16.226C3.90659 16.0379 5.10381 15.8498 5.96582 15.8027C7.21093 15.7557 7.73771 15.4265 8.26449 14.4388C8.79127 13.4512 9.22228 13.216 10.0364 13.4042C11.4252 13.7804 12.7182 12.4165 14.6816 8.55994C15.4957 6.91385 16.3099 5.64401 16.4535 5.7851C16.5493 5.92619 16.7888 8.23072 16.8845 10.9115C17.2676 19.7063 17.4592 21.3524 17.9381 21.5405C18.2254 21.6346 18.5606 21.0702 18.7522 20.2707C18.8959 19.5182 19.3748 18.6246 19.7579 18.2954C20.141 18.0132 20.4283 17.3548 20.4283 16.8845C20.4283 16.179 20.7635 15.9909 22.2002 15.9909C24.2595 15.9909 23.9721 15.4265 21.7213 15.1913C20.4283 15.0973 20.0931 15.2854 19.6142 16.3201C19.279 17.0256 18.9917 17.8721 18.9917 18.2013C18.9917 18.5305 18.7043 18.8127 18.3691 18.8127C17.8902 18.8127 17.6986 17.3077 17.555 12.3224C17.3634 3.90385 17.3155 3.15136 16.7888 2.96323C16.5493 2.9162 15.3042 4.93854 14.0591 7.47822Z" fill="url(#paint6_linear_1176_2934)"/>
<path d="M14.0591 7.47822C11.8083 12.0402 10.7068 13.216 9.70117 12.2284C8.93494 11.4759 8.59972 11.664 7.97716 13.169C7.54616 14.2037 7.06727 14.5799 6.34893 14.4859C5.05593 14.3918 2.23047 15.4735 2.23047 16.0849C2.23047 16.3671 2.66147 16.4141 3.33192 16.226C3.90659 16.0379 5.10381 15.8498 5.96582 15.8027C7.21093 15.7557 7.73771 15.4265 8.26449 14.4388C8.79127 13.4512 9.22228 13.216 10.0364 13.4042C11.4252 13.7804 12.7182 12.4165 14.6816 8.55994C15.4957 6.91385 16.3099 5.64401 16.4535 5.7851C16.5493 5.92619 16.7888 8.23072 16.8845 10.9115C17.2676 19.7063 17.4592 21.3524 17.9381 21.5405C18.2254 21.6346 18.5606 21.0702 18.7522 20.2707C18.8959 19.5182 19.3748 18.6246 19.7579 18.2954C20.141 18.0132 20.4283 17.3548 20.4283 16.8845C20.4283 16.179 20.7635 15.9909 22.2002 15.9909C24.2595 15.9909 23.9721 15.4265 21.7213 15.1913C20.4283 15.0973 20.0931 15.2854 19.6142 16.3201C19.279 17.0256 18.9917 17.8721 18.9917 18.2013C18.9917 18.5305 18.7043 18.8127 18.3691 18.8127C17.8902 18.8127 17.6986 17.3077 17.555 12.3224C17.3634 3.90385 17.3155 3.15136 16.7888 2.96323C16.5493 2.9162 15.3042 4.93854 14.0591 7.47822Z" fill="#E6EEF1" fill-opacity="0.45"/>
<path d="M32.9315 23.2332L31.9258 24.2679L32.9315 24.9263C34.0808 25.7729 34.8949 25.8199 35.1822 25.0204C35.278 24.6912 34.8949 24.456 34.1287 24.456C33.4582 24.456 32.8836 24.2209 32.8836 23.9387C32.8836 23.6095 33.4582 23.4684 34.2723 23.6095C35.2301 23.7506 35.5654 23.6095 35.4217 23.2332C35.0386 22.1515 33.9371 22.1515 32.9315 23.2332Z" fill="url(#paint7_linear_1176_2934)"/>
<path d="M32.9315 23.2332L31.9258 24.2679L32.9315 24.9263C34.0808 25.7729 34.8949 25.8199 35.1822 25.0204C35.278 24.6912 34.8949 24.456 34.1287 24.456C33.4582 24.456 32.8836 24.2209 32.8836 23.9387C32.8836 23.6095 33.4582 23.4684 34.2723 23.6095C35.2301 23.7506 35.5654 23.6095 35.4217 23.2332C35.0386 22.1515 33.9371 22.1515 32.9315 23.2332Z" fill="#E6EEF1" fill-opacity="0.45"/>
<path d="M37.2876 23.7514C36.5214 25.3504 36.5214 25.3034 37.9581 25.0212C38.7722 24.8801 39.0595 24.5979 38.9159 24.1276C38.7722 23.7514 38.6285 23.234 38.6285 22.9989C38.6285 22.1523 37.8144 22.6226 37.2876 23.7514Z" fill="url(#paint8_linear_1176_2934)"/>
<path d="M37.2876 23.7514C36.5214 25.3504 36.5214 25.3034 37.9581 25.0212C38.7722 24.8801 39.0595 24.5979 38.9159 24.1276C38.7722 23.7514 38.6285 23.234 38.6285 22.9989C38.6285 22.1523 37.8144 22.6226 37.2876 23.7514Z" fill="#E6EEF1" fill-opacity="0.45"/>
<path d="M40.543 23.8462C40.543 24.8339 40.6387 24.975 41.2613 24.4576C41.6444 24.1284 41.9796 23.7051 41.9796 23.517C41.9796 23.3289 41.6444 23.0467 41.2613 22.8586C40.7345 22.6704 40.543 22.9526 40.543 23.8462Z" fill="url(#paint9_linear_1176_2934)"/>
<path d="M40.543 23.8462C40.543 24.8339 40.6387 24.975 41.2613 24.4576C41.6444 24.1284 41.9796 23.7051 41.9796 23.517C41.9796 23.3289 41.6444 23.0467 41.2613 22.8586C40.7345 22.6704 40.543 22.9526 40.543 23.8462Z" fill="#E6EEF1" fill-opacity="0.45"/>
<path d="M42.9375 23.2826C42.9375 23.7059 43.1769 23.988 43.4643 23.894C43.7516 23.7999 43.9911 23.5177 43.9911 23.2826C43.9911 23.0474 43.7516 22.7652 43.4643 22.6712C43.1769 22.5771 42.9375 22.8593 42.9375 23.2826Z" fill="url(#paint10_linear_1176_2934)"/>
<path d="M42.9375 23.2826C42.9375 23.7059 43.1769 23.988 43.4643 23.894C43.7516 23.7999 43.9911 23.5177 43.9911 23.2826C43.9911 23.0474 43.7516 22.7652 43.4643 22.6712C43.1769 22.5771 42.9375 22.8593 42.9375 23.2826Z" fill="#E6EEF1" fill-opacity="0.45"/>
<path d="M45.4791 23.8449C45.1439 24.5503 44.9523 25.1617 45.0481 25.2558C45.3833 25.585 46.7721 23.9389 46.7721 23.2335C46.7721 22.1518 46.1017 22.481 45.4791 23.8449Z" fill="url(#paint11_linear_1176_2934)"/>
<path d="M45.4791 23.8449C45.1439 24.5503 44.9523 25.1617 45.0481 25.2558C45.3833 25.585 46.7721 23.9389 46.7721 23.2335C46.7721 22.1518 46.1017 22.481 45.4791 23.8449Z" fill="#E6EEF1" fill-opacity="0.45"/>
<path d="M48.2055 23.7963C47.9181 24.4547 47.7266 25.0191 47.7266 25.0661C47.7266 25.1131 48.2533 25.1602 48.9238 25.1602C49.7379 25.1602 50.0731 24.972 49.8816 24.5488C49.7379 24.1725 49.6421 23.6081 49.6421 23.2319C49.6421 22.1502 48.6843 22.4794 48.2055 23.7963Z" fill="url(#paint12_linear_1176_2934)"/>
<path d="M48.2055 23.7963C47.9181 24.4547 47.7266 25.0191 47.7266 25.0661C47.7266 25.1131 48.2533 25.1602 48.9238 25.1602C49.7379 25.1602 50.0731 24.972 49.8816 24.5488C49.7379 24.1725 49.6421 23.6081 49.6421 23.2319C49.6421 22.1502 48.6843 22.4794 48.2055 23.7963Z" fill="#E6EEF1" fill-opacity="0.45"/>
<path d="M55.4844 23.9851C55.4844 24.8787 55.5802 25.2549 55.7238 24.7846C55.8196 24.3613 55.8196 23.6088 55.7238 23.1385C55.5802 22.7152 55.4844 23.0915 55.4844 23.9851Z" fill="url(#paint13_linear_1176_2934)"/>
<path d="M55.4844 23.9851C55.4844 24.8787 55.5802 25.2549 55.7238 24.7846C55.8196 24.3613 55.8196 23.6088 55.7238 23.1385C55.5802 22.7152 55.4844 23.0915 55.4844 23.9851Z" fill="#E6EEF1" fill-opacity="0.45"/>
<path d="M57.9748 23.0936C57.8311 23.3757 57.9269 23.799 58.2621 23.9872C58.5974 24.1753 58.6931 24.5986 58.5016 24.9278C58.2621 25.3511 58.31 25.4451 58.6453 25.21C59.3157 24.7867 59.4115 23.2347 58.7889 22.8114C58.5495 22.6703 58.1664 22.8114 57.9748 23.0936Z" fill="url(#paint14_linear_1176_2934)"/>
<path d="M57.9748 23.0936C57.8311 23.3757 57.9269 23.799 58.2621 23.9872C58.5974 24.1753 58.6931 24.5986 58.5016 24.9278C58.2621 25.3511 58.31 25.4451 58.6453 25.21C59.3157 24.7867 59.4115 23.2347 58.7889 22.8114C58.5495 22.6703 58.1664 22.8114 57.9748 23.0936Z" fill="#E6EEF1" fill-opacity="0.45"/>
<path d="M63.5772 23.7968C62.3321 25.0196 62.5236 25.9602 63.8166 24.9255C64.3913 24.4082 64.6308 24.4082 64.9181 24.8785C65.1575 25.2077 65.3012 24.8785 65.3491 24.0319C65.397 22.3388 65.1096 22.2918 63.5772 23.7968Z" fill="url(#paint15_linear_1176_2934)"/>
<path d="M63.5772 23.7968C62.3321 25.0196 62.5236 25.9602 63.8166 24.9255C64.3913 24.4082 64.6308 24.4082 64.9181 24.8785C65.1575 25.2077 65.3012 24.8785 65.3491 24.0319C65.397 22.3388 65.1096 22.2918 63.5772 23.7968Z" fill="#E6EEF1" fill-opacity="0.45"/>
<path d="M79.9113 23.7019C79.4803 24.6896 79.5282 24.8307 80.5818 25.0658C81.8269 25.301 81.8748 25.2069 81.4438 23.6079C81.0607 22.291 80.5818 22.291 79.9113 23.7019Z" fill="url(#paint16_linear_1176_2934)"/>
<path d="M79.9113 23.7019C79.4803 24.6896 79.5282 24.8307 80.5818 25.0658C81.8269 25.301 81.8748 25.2069 81.4438 23.6079C81.0607 22.291 80.5818 22.291 79.9113 23.7019Z" fill="#E6EEF1" fill-opacity="0.45"/>
<path d="M94.5131 22.8548C94.13 23.2311 95.5667 25.3945 96.2371 25.3945C96.5724 25.3945 96.5724 25.2064 96.1892 24.8302C95.854 24.5009 95.6146 23.8895 95.6146 23.4192C95.6146 22.5727 95.0878 22.2905 94.5131 22.8548Z" fill="url(#paint17_linear_1176_2934)"/>
<path d="M94.5131 22.8548C94.13 23.2311 95.5667 25.3945 96.2371 25.3945C96.5724 25.3945 96.5724 25.2064 96.1892 24.8302C95.854 24.5009 95.6146 23.8895 95.6146 23.4192C95.6146 22.5727 95.0878 22.2905 94.5131 22.8548Z" fill="#E6EEF1" fill-opacity="0.45"/>
<path d="M97.0547 23.7978C97.0547 24.4563 97.2462 24.8796 97.5336 24.6914C97.8209 24.5503 98.0125 23.986 98.0125 23.4686C98.0125 22.9983 97.8209 22.575 97.5336 22.575C97.2941 22.575 97.0547 23.1394 97.0547 23.7978Z" fill="url(#paint18_linear_1176_2934)"/>
<path d="M97.0547 23.7978C97.0547 24.4563 97.2462 24.8796 97.5336 24.6914C97.8209 24.5503 98.0125 23.986 98.0125 23.4686C98.0125 22.9983 97.8209 22.575 97.5336 22.575C97.2941 22.575 97.0547 23.1394 97.0547 23.7978Z" fill="#E6EEF1" fill-opacity="0.45"/>
<path d="M103.09 23.3292C102.563 24.7402 102.755 25.3045 103.76 25.0694C104.287 24.9283 104.718 24.6461 104.718 24.458C104.718 23.7055 104.143 22.5767 103.76 22.5767C103.569 22.5767 103.234 22.9059 103.09 23.3292Z" fill="url(#paint19_linear_1176_2934)"/>
<path d="M103.09 23.3292C102.563 24.7402 102.755 25.3045 103.76 25.0694C104.287 24.9283 104.718 24.6461 104.718 24.458C104.718 23.7055 104.143 22.5767 103.76 22.5767C103.569 22.5767 103.234 22.9059 103.09 23.3292Z" fill="#E6EEF1" fill-opacity="0.45"/>
<path d="M114.101 23.6073C113.67 25.2064 113.718 25.3945 114.532 25.3945C115.011 25.3945 115.25 24.9242 115.25 23.9836C115.25 22.3375 114.532 22.1023 114.101 23.6073Z" fill="url(#paint20_linear_1176_2934)"/>
<path d="M114.101 23.6073C113.67 25.2064 113.718 25.3945 114.532 25.3945C115.011 25.3945 115.25 24.9242 115.25 23.9836C115.25 22.3375 114.532 22.1023 114.101 23.6073Z" fill="#E6EEF1" fill-opacity="0.45"/>
<path d="M51.6055 24.033C51.6055 24.7855 51.8449 25.3969 52.3238 25.585C53.4253 26.0083 53.952 25.9142 53.952 25.3969C53.952 25.1147 53.521 24.9266 53.0421 24.9266C52.4675 24.9266 52.0365 24.5503 51.8928 23.8448C51.7012 22.9042 51.7012 22.9512 51.6055 24.033Z" fill="url(#paint21_linear_1176_2934)"/>
<path d="M51.6055 24.033C51.6055 24.7855 51.8449 25.3969 52.3238 25.585C53.4253 26.0083 53.952 25.9142 53.952 25.3969C53.952 25.1147 53.521 24.9266 53.0421 24.9266C52.4675 24.9266 52.0365 24.5503 51.8928 23.8448C51.7012 22.9042 51.7012 22.9512 51.6055 24.033Z" fill="#E6EEF1" fill-opacity="0.45"/>
<path d="M66.4062 23.4678C66.4062 23.6088 66.8373 24.0321 67.364 24.3613C68.1303 24.8317 68.3218 24.8317 68.3218 24.2673C68.3218 23.9381 67.8908 23.5148 67.364 23.3737C66.8373 23.2326 66.4062 23.2796 66.4062 23.4678Z" fill="url(#paint22_linear_1176_2934)"/>
<path d="M66.4062 23.4678C66.4062 23.6088 66.8373 24.0321 67.364 24.3613C68.1303 24.8317 68.3218 24.8317 68.3218 24.2673C68.3218 23.9381 67.8908 23.5148 67.364 23.3737C66.8373 23.2326 66.4062 23.2796 66.4062 23.4678Z" fill="#E6EEF1" fill-opacity="0.45"/>
<path d="M76.3182 23.703C76.0308 24.4084 76.366 24.9258 77.0365 24.9258C77.228 24.9258 77.4196 24.5025 77.4196 23.9852C77.4196 22.9034 76.7013 22.7153 76.3182 23.703Z" fill="url(#paint23_linear_1176_2934)"/>
<path d="M76.3182 23.703C76.0308 24.4084 76.366 24.9258 77.0365 24.9258C77.228 24.9258 77.4196 24.5025 77.4196 23.9852C77.4196 22.9034 76.7013 22.7153 76.3182 23.703Z" fill="#E6EEF1" fill-opacity="0.45"/>
<path d="M87.4766 23.9381C87.4766 24.5025 87.7639 24.9258 88.2428 24.9258C88.6738 24.9258 88.9132 24.5966 88.8175 24.1263C88.578 22.9505 87.4766 22.8094 87.4766 23.9381Z" fill="url(#paint24_linear_1176_2934)"/>
<path d="M87.4766 23.9381C87.4766 24.5025 87.7639 24.9258 88.2428 24.9258C88.6738 24.9258 88.9132 24.5966 88.8175 24.1263C88.578 22.9505 87.4766 22.8094 87.4766 23.9381Z" fill="#E6EEF1" fill-opacity="0.45"/>
<path d="M106.633 23.9369C106.633 24.1721 106.968 24.4543 107.351 24.6424C107.782 24.7835 108.069 24.6424 108.069 24.2191C108.069 23.8429 107.734 23.5137 107.351 23.5137C106.968 23.5137 106.633 23.7018 106.633 23.9369Z" fill="url(#paint25_linear_1176_2934)"/>
<path d="M106.633 23.9369C106.633 24.1721 106.968 24.4543 107.351 24.6424C107.782 24.7835 108.069 24.6424 108.069 24.2191C108.069 23.8429 107.734 23.5137 107.351 23.5137C106.968 23.5137 106.633 23.7018 106.633 23.9369Z" fill="#E6EEF1" fill-opacity="0.45"/>
<path d="M83.7372 24.5023C83.833 24.7845 84.1203 24.9727 84.3598 24.9727C84.5992 24.9727 84.8865 24.7845 84.9823 24.5023C85.0781 24.2202 84.7908 23.985 84.3598 23.985C83.9288 23.985 83.6414 24.2202 83.7372 24.5023Z" fill="url(#paint26_linear_1176_2934)"/>
<path d="M83.7372 24.5023C83.833 24.7845 84.1203 24.9727 84.3598 24.9727C84.5992 24.9727 84.8865 24.7845 84.9823 24.5023C85.0781 24.2202 84.7908 23.985 84.3598 23.985C83.9288 23.985 83.6414 24.2202 83.7372 24.5023Z" fill="#E6EEF1" fill-opacity="0.45"/>
<defs>
<linearGradient id="paint0_linear_1176_2934" x1="0.187276" y1="12.7239" x2="26.6556" y2="12.7239" gradientUnits="userSpaceOnUse">
<stop stop-color="#3793AE"/>
<stop offset="1" stop-color="#074287"/>
</linearGradient>
<linearGradient id="paint1_linear_1176_2934" x1="102.247" y1="9.97584" x2="119" y2="9.97584" gradientUnits="userSpaceOnUse">
<stop stop-color="#3793AE"/>
<stop offset="1" stop-color="#074287"/>
</linearGradient>
<linearGradient id="paint2_linear_1176_2934" x1="34.0254" y1="9.80862" x2="52.5155" y2="9.80862" gradientUnits="userSpaceOnUse">
<stop stop-color="#3793AE"/>
<stop offset="1" stop-color="#074287"/>
</linearGradient>
<linearGradient id="paint3_linear_1176_2934" x1="54.5984" y1="9.98519" x2="70.7117" y2="9.98519" gradientUnits="userSpaceOnUse">
<stop stop-color="#3793AE"/>
<stop offset="1" stop-color="#074287"/>
</linearGradient>
<linearGradient id="paint4_linear_1176_2934" x1="67.0203" y1="10.0273" x2="86.4558" y2="10.0273" gradientUnits="userSpaceOnUse">
<stop stop-color="#3793AE"/>
<stop offset="1" stop-color="#074287"/>
</linearGradient>
<linearGradient id="paint5_linear_1176_2934" x1="86.6758" y1="9.87775" x2="99.9237" y2="9.87775" gradientUnits="userSpaceOnUse">
<stop stop-color="#3793AE"/>
<stop offset="1" stop-color="#074287"/>
</linearGradient>
<linearGradient id="paint6_linear_1176_2934" x1="2.38053" y1="12.2566" x2="23.5898" y2="12.2566" gradientUnits="userSpaceOnUse">
<stop stop-color="#3793AE"/>
<stop offset="1" stop-color="#074287"/>
</linearGradient>
<linearGradient id="paint7_linear_1176_2934" x1="31.9506" y1="24.0069" x2="35.4535" y2="24.0069" gradientUnits="userSpaceOnUse">
<stop stop-color="#3793AE"/>
<stop offset="1" stop-color="#074287"/>
</linearGradient>
<linearGradient id="paint8_linear_1176_2934" x1="36.7926" y1="23.8698" x2="38.9514" y2="23.8698" gradientUnits="userSpaceOnUse">
<stop stop-color="#3793AE"/>
<stop offset="1" stop-color="#074287"/>
</linearGradient>
<linearGradient id="paint9_linear_1176_2934" x1="40.5531" y1="23.7776" x2="41.9796" y2="23.7776" gradientUnits="userSpaceOnUse">
<stop stop-color="#3793AE"/>
<stop offset="1" stop-color="#074287"/>
</linearGradient>
<linearGradient id="paint10_linear_1176_2934" x1="42.9449" y1="23.2826" x2="43.9911" y2="23.2826" gradientUnits="userSpaceOnUse">
<stop stop-color="#3793AE"/>
<stop offset="1" stop-color="#074287"/>
</linearGradient>
<linearGradient id="paint11_linear_1176_2934" x1="45.0357" y1="23.9437" x2="46.7721" y2="23.9437" gradientUnits="userSpaceOnUse">
<stop stop-color="#3793AE"/>
<stop offset="1" stop-color="#074287"/>
</linearGradient>
<linearGradient id="paint12_linear_1176_2934" x1="47.7421" y1="23.8719" x2="49.9341" y2="23.8719" gradientUnits="userSpaceOnUse">
<stop stop-color="#3793AE"/>
<stop offset="1" stop-color="#074287"/>
</linearGradient>
<linearGradient id="paint13_linear_1176_2934" x1="55.4866" y1="23.9766" x2="55.7957" y2="23.9766" gradientUnits="userSpaceOnUse">
<stop stop-color="#3793AE"/>
<stop offset="1" stop-color="#074287"/>
</linearGradient>
<linearGradient id="paint14_linear_1176_2934" x1="57.9193" y1="24.046" x2="59.2061" y2="24.046" gradientUnits="userSpaceOnUse">
<stop stop-color="#3793AE"/>
<stop offset="1" stop-color="#074287"/>
</linearGradient>
<linearGradient id="paint15_linear_1176_2934" x1="62.7567" y1="24.0409" x2="65.3539" y2="24.0409" gradientUnits="userSpaceOnUse">
<stop stop-color="#3793AE"/>
<stop offset="1" stop-color="#074287"/>
</linearGradient>
<linearGradient id="paint16_linear_1176_2934" x1="79.6705" y1="23.8969" x2="81.6896" y2="23.8969" gradientUnits="userSpaceOnUse">
<stop stop-color="#3793AE"/>
<stop offset="1" stop-color="#074287"/>
</linearGradient>
<linearGradient id="paint17_linear_1176_2934" x1="94.4635" y1="23.9779" x2="96.4829" y2="23.9779" gradientUnits="userSpaceOnUse">
<stop stop-color="#3793AE"/>
<stop offset="1" stop-color="#074287"/>
</linearGradient>
<linearGradient id="paint18_linear_1176_2934" x1="97.0614" y1="23.6557" x2="98.0125" y2="23.6557" gradientUnits="userSpaceOnUse">
<stop stop-color="#3793AE"/>
<stop offset="1" stop-color="#074287"/>
</linearGradient>
<linearGradient id="paint19_linear_1176_2934" x1="102.818" y1="23.8489" x2="104.718" y2="23.8489" gradientUnits="userSpaceOnUse">
<stop stop-color="#3793AE"/>
<stop offset="1" stop-color="#074287"/>
</linearGradient>
<linearGradient id="paint20_linear_1176_2934" x1="113.842" y1="23.9986" x2="115.25" y2="23.9986" gradientUnits="userSpaceOnUse">
<stop stop-color="#3793AE"/>
<stop offset="1" stop-color="#074287"/>
</linearGradient>
<linearGradient id="paint21_linear_1176_2934" x1="51.622" y1="24.5148" x2="53.952" y2="24.5148" gradientUnits="userSpaceOnUse">
<stop stop-color="#3793AE"/>
<stop offset="1" stop-color="#074287"/>
</linearGradient>
<linearGradient id="paint22_linear_1176_2934" x1="66.4197" y1="23.9974" x2="68.3218" y2="23.9974" gradientUnits="userSpaceOnUse">
<stop stop-color="#3793AE"/>
<stop offset="1" stop-color="#074287"/>
</linearGradient>
<linearGradient id="paint23_linear_1176_2934" x1="76.2233" y1="23.9919" x2="77.4196" y2="23.9919" gradientUnits="userSpaceOnUse">
<stop stop-color="#3793AE"/>
<stop offset="1" stop-color="#074287"/>
</linearGradient>
<linearGradient id="paint24_linear_1176_2934" x1="87.4861" y1="24.0447" x2="88.8384" y2="24.0447" gradientUnits="userSpaceOnUse">
<stop stop-color="#3793AE"/>
<stop offset="1" stop-color="#074287"/>
</linearGradient>
<linearGradient id="paint25_linear_1176_2934" x1="106.643" y1="24.1045" x2="108.069" y2="24.1045" gradientUnits="userSpaceOnUse">
<stop stop-color="#3793AE"/>
<stop offset="1" stop-color="#074287"/>
</linearGradient>
<linearGradient id="paint26_linear_1176_2934" x1="83.7278" y1="24.4788" x2="85.0008" y2="24.4788" gradientUnits="userSpaceOnUse">
<stop stop-color="#3793AE"/>
<stop offset="1" stop-color="#074287"/>
</linearGradient>
</defs>
</svg>
