<svg width="99" height="26" viewBox="0 0 99 26" fill="none" xmlns="http://www.w3.org/2000/svg">
<path d="M4.21837 0.446293C3.23856 0.535327 2.41908 0.695589 2.38345 0.784623C2.34782 0.891463 2.11623 0.962691 1.86682 0.962691C1.56397 0.962691 1.45708 1.03392 1.51053 1.21199C1.58179 1.37225 1.51053 1.42567 1.27893 1.37225C1.10079 1.31883 0.904825 1.39005 0.815751 1.5147C0.726677 1.65716 0.780122 1.71058 0.958269 1.62154C1.17205 1.55032 1.20768 1.60374 1.15423 1.87084C1.10079 2.06671 1.15423 2.42285 1.27893 2.65434C1.40364 2.88583 1.45708 3.18854 1.40364 3.3488C1.33238 3.52687 1.38582 3.58029 1.56397 3.50907C1.70649 3.45565 1.81338 3.52687 1.81338 3.70494C1.81338 3.91862 1.93808 3.95424 2.40126 3.8652C2.70411 3.81178 3.00697 3.70494 3.06041 3.63371C3.14948 3.52687 5.23381 3.24196 5.64355 3.27758C5.75044 3.29538 6.39177 3.331 7.06873 3.38442C7.7635 3.43784 8.47609 3.52687 8.67206 3.61591C8.86802 3.70494 9.49153 3.90082 10.0616 4.07888C10.6139 4.25695 11.077 4.47063 11.077 4.54186C11.077 4.61309 11.273 4.71993 11.5224 4.77335C11.7718 4.84458 11.9678 4.96923 11.9678 5.05826C11.9678 5.1651 12.0925 5.23633 12.235 5.23633C12.3775 5.23633 12.5022 5.1651 12.5022 5.05826C12.5022 4.96923 12.6804 4.84458 12.912 4.79116C13.1436 4.71993 13.4642 4.48844 13.6424 4.23915C13.8383 4.00766 14.0521 3.81178 14.1412 3.81178C14.2303 3.81178 14.4262 3.70494 14.5687 3.56249C14.7825 3.331 14.7825 3.25977 14.5331 3.02828C14.3906 2.86802 14.1412 2.74337 13.9987 2.74337C13.8561 2.74337 13.7493 2.67215 13.7493 2.5653C13.7493 2.47627 13.5533 2.35162 13.3039 2.2804C13.0545 2.22698 12.8585 2.12013 12.8585 2.04891C12.8585 1.92426 12.3241 1.67496 11.077 1.22979C10.6317 1.06953 10.1507 0.873657 9.99035 0.784623C9.72313 0.642168 8.88583 0.535327 6.71243 0.357259C6.32051 0.321645 5.19818 0.375066 4.21837 0.446293Z" fill="url(#paint0_linear_1176_2845)"/>
<path d="M4.21837 0.446293C3.23856 0.535327 2.41908 0.695589 2.38345 0.784623C2.34782 0.891463 2.11623 0.962691 1.86682 0.962691C1.56397 0.962691 1.45708 1.03392 1.51053 1.21199C1.58179 1.37225 1.51053 1.42567 1.27893 1.37225C1.10079 1.31883 0.904825 1.39005 0.815751 1.5147C0.726677 1.65716 0.780122 1.71058 0.958269 1.62154C1.17205 1.55032 1.20768 1.60374 1.15423 1.87084C1.10079 2.06671 1.15423 2.42285 1.27893 2.65434C1.40364 2.88583 1.45708 3.18854 1.40364 3.3488C1.33238 3.52687 1.38582 3.58029 1.56397 3.50907C1.70649 3.45565 1.81338 3.52687 1.81338 3.70494C1.81338 3.91862 1.93808 3.95424 2.40126 3.8652C2.70411 3.81178 3.00697 3.70494 3.06041 3.63371C3.14948 3.52687 5.23381 3.24196 5.64355 3.27758C5.75044 3.29538 6.39177 3.331 7.06873 3.38442C7.7635 3.43784 8.47609 3.52687 8.67206 3.61591C8.86802 3.70494 9.49153 3.90082 10.0616 4.07888C10.6139 4.25695 11.077 4.47063 11.077 4.54186C11.077 4.61309 11.273 4.71993 11.5224 4.77335C11.7718 4.84458 11.9678 4.96923 11.9678 5.05826C11.9678 5.1651 12.0925 5.23633 12.235 5.23633C12.3775 5.23633 12.5022 5.1651 12.5022 5.05826C12.5022 4.96923 12.6804 4.84458 12.912 4.79116C13.1436 4.71993 13.4642 4.48844 13.6424 4.23915C13.8383 4.00766 14.0521 3.81178 14.1412 3.81178C14.2303 3.81178 14.4262 3.70494 14.5687 3.56249C14.7825 3.331 14.7825 3.25977 14.5331 3.02828C14.3906 2.86802 14.1412 2.74337 13.9987 2.74337C13.8561 2.74337 13.7493 2.67215 13.7493 2.5653C13.7493 2.47627 13.5533 2.35162 13.3039 2.2804C13.0545 2.22698 12.8585 2.12013 12.8585 2.04891C12.8585 1.92426 12.3241 1.67496 11.077 1.22979C10.6317 1.06953 10.1507 0.873657 9.99035 0.784623C9.72313 0.642168 8.88583 0.535327 6.71243 0.357259C6.32051 0.321645 5.19818 0.375066 4.21837 0.446293Z" fill="#E6EEF1" fill-opacity="0.45"/>
<path d="M36.5532 6.12778C36.4107 6.21681 36.1257 6.30584 35.9475 6.30584C35.7516 6.30584 35.0746 6.57294 34.4333 6.87566C33.115 7.53451 31.1197 9.38642 30.9238 10.1165C30.8703 10.3658 30.7456 10.5795 30.6565 10.5795C30.5675 10.5795 30.4962 10.7397 30.4962 10.9356C30.4962 11.1315 30.4249 11.2918 30.3181 11.2918C30.229 11.2918 30.1043 11.7725 30.033 12.3602C29.9618 12.9478 29.8371 13.4286 29.7658 13.4286C29.552 13.4286 29.552 15.512 29.7658 15.6366C29.8371 15.69 29.9618 16.2242 30.033 16.8119C30.1043 17.3995 30.229 17.8803 30.3181 17.8803C30.4249 17.8803 30.4962 18.0227 30.4962 18.2186C30.4962 18.3967 30.6209 18.646 30.7634 18.7706C30.9059 18.8953 31.0306 19.0911 31.0306 19.2336C31.0306 19.3582 31.2088 19.661 31.4404 19.8924C31.6542 20.1239 31.957 20.4801 32.0995 20.6938C32.2421 20.9074 32.438 21.0855 32.5449 21.0855C32.634 21.0855 32.9903 21.3348 33.3288 21.6197C33.6494 21.9224 34.0413 22.1539 34.166 22.1539C34.3086 22.1539 34.4155 22.2251 34.4155 22.332C34.4155 22.421 34.5758 22.51 34.7717 22.51C34.9677 22.51 35.128 22.5813 35.128 22.6881C35.128 22.7772 35.5378 22.9018 36.0188 22.973C36.5176 23.0443 36.9095 23.1511 36.9095 23.2401C36.9095 23.4538 40.5972 23.4538 40.7219 23.2401C40.7753 23.1511 41.2741 23.0264 41.8086 22.9552C42.343 22.9018 42.7884 22.7593 42.7884 22.6703C42.7884 22.5813 42.9131 22.51 43.0556 22.51C43.1981 22.51 43.3228 22.421 43.3228 22.332C43.3228 22.2251 43.4297 22.1539 43.5544 22.1539C43.6791 22.1539 44.071 21.9046 44.4273 21.6019L45.0687 21.0321L44.552 20.5335C44.267 20.2486 43.9642 20.0171 43.8751 20.0171C43.786 20.0171 43.6257 19.8924 43.4832 19.7322C43.2694 19.4651 42.4855 19.5185 42.2539 19.8034C42.2005 19.8746 41.9333 20.0527 41.6482 20.1952C40.9713 20.5513 36.7136 20.5869 36.6067 20.2308C36.5532 20.1239 36.4107 20.0171 36.2682 20.0171C36.1257 20.0171 36.0188 19.9281 36.0188 19.839C36.0188 19.7322 35.8584 19.661 35.6625 19.661C35.4665 19.661 35.2527 19.5363 35.1993 19.3939C35.128 19.2514 34.9855 19.1268 34.843 19.1268C34.7005 19.1268 34.5936 19.0555 34.5936 18.9843C34.5936 18.8953 34.4511 18.6816 34.2729 18.4857C33.6672 17.8447 33.3466 17.257 33.3466 16.8653C33.3466 16.6338 33.2753 16.4557 33.1684 16.4557C33.0615 16.4557 32.9903 15.7435 32.9903 14.675C32.9903 13.6957 33.0615 12.8944 33.1506 12.8944C33.2397 12.8944 33.3466 12.5738 33.4178 12.1999C33.4713 11.8082 33.6672 11.3808 33.8632 11.2561C34.0413 11.1315 34.2373 10.8644 34.3086 10.6685C34.362 10.4548 34.6827 10.1521 34.9855 9.95624C35.3062 9.77817 35.609 9.5823 35.6625 9.52888C36.0544 9.0659 36.8204 8.88783 38.691 8.83441C40.4012 8.78099 40.8822 8.8166 41.5057 9.08371C41.9155 9.26178 42.2539 9.47546 42.2539 9.54668C42.2539 9.8494 42.7706 9.67133 42.8775 9.35081C42.9309 9.15493 43.1447 8.94125 43.3406 8.88783C43.5544 8.8166 43.9285 8.5495 44.2136 8.30021L44.7124 7.81942L43.6613 7.16057C43.0734 6.78663 42.2718 6.43049 41.8798 6.37707C41.5057 6.30584 41.1316 6.18119 41.0782 6.10997C40.9535 5.89629 36.8917 5.91409 36.5532 6.12778Z" fill="url(#paint1_linear_1176_2845)"/>
<path d="M36.5532 6.12778C36.4107 6.21681 36.1257 6.30584 35.9475 6.30584C35.7516 6.30584 35.0746 6.57294 34.4333 6.87566C33.115 7.53451 31.1197 9.38642 30.9238 10.1165C30.8703 10.3658 30.7456 10.5795 30.6565 10.5795C30.5675 10.5795 30.4962 10.7397 30.4962 10.9356C30.4962 11.1315 30.4249 11.2918 30.3181 11.2918C30.229 11.2918 30.1043 11.7725 30.033 12.3602C29.9618 12.9478 29.8371 13.4286 29.7658 13.4286C29.552 13.4286 29.552 15.512 29.7658 15.6366C29.8371 15.69 29.9618 16.2242 30.033 16.8119C30.1043 17.3995 30.229 17.8803 30.3181 17.8803C30.4249 17.8803 30.4962 18.0227 30.4962 18.2186C30.4962 18.3967 30.6209 18.646 30.7634 18.7706C30.9059 18.8953 31.0306 19.0911 31.0306 19.2336C31.0306 19.3582 31.2088 19.661 31.4404 19.8924C31.6542 20.1239 31.957 20.4801 32.0995 20.6938C32.2421 20.9074 32.438 21.0855 32.5449 21.0855C32.634 21.0855 32.9903 21.3348 33.3288 21.6197C33.6494 21.9224 34.0413 22.1539 34.166 22.1539C34.3086 22.1539 34.4155 22.2251 34.4155 22.332C34.4155 22.421 34.5758 22.51 34.7717 22.51C34.9677 22.51 35.128 22.5813 35.128 22.6881C35.128 22.7772 35.5378 22.9018 36.0188 22.973C36.5176 23.0443 36.9095 23.1511 36.9095 23.2401C36.9095 23.4538 40.5972 23.4538 40.7219 23.2401C40.7753 23.1511 41.2741 23.0264 41.8086 22.9552C42.343 22.9018 42.7884 22.7593 42.7884 22.6703C42.7884 22.5813 42.9131 22.51 43.0556 22.51C43.1981 22.51 43.3228 22.421 43.3228 22.332C43.3228 22.2251 43.4297 22.1539 43.5544 22.1539C43.6791 22.1539 44.071 21.9046 44.4273 21.6019L45.0687 21.0321L44.552 20.5335C44.267 20.2486 43.9642 20.0171 43.8751 20.0171C43.786 20.0171 43.6257 19.8924 43.4832 19.7322C43.2694 19.4651 42.4855 19.5185 42.2539 19.8034C42.2005 19.8746 41.9333 20.0527 41.6482 20.1952C40.9713 20.5513 36.7136 20.5869 36.6067 20.2308C36.5532 20.1239 36.4107 20.0171 36.2682 20.0171C36.1257 20.0171 36.0188 19.9281 36.0188 19.839C36.0188 19.7322 35.8584 19.661 35.6625 19.661C35.4665 19.661 35.2527 19.5363 35.1993 19.3939C35.128 19.2514 34.9855 19.1268 34.843 19.1268C34.7005 19.1268 34.5936 19.0555 34.5936 18.9843C34.5936 18.8953 34.4511 18.6816 34.2729 18.4857C33.6672 17.8447 33.3466 17.257 33.3466 16.8653C33.3466 16.6338 33.2753 16.4557 33.1684 16.4557C33.0615 16.4557 32.9903 15.7435 32.9903 14.675C32.9903 13.6957 33.0615 12.8944 33.1506 12.8944C33.2397 12.8944 33.3466 12.5738 33.4178 12.1999C33.4713 11.8082 33.6672 11.3808 33.8632 11.2561C34.0413 11.1315 34.2373 10.8644 34.3086 10.6685C34.362 10.4548 34.6827 10.1521 34.9855 9.95624C35.3062 9.77817 35.609 9.5823 35.6625 9.52888C36.0544 9.0659 36.8204 8.88783 38.691 8.83441C40.4012 8.78099 40.8822 8.8166 41.5057 9.08371C41.9155 9.26178 42.2539 9.47546 42.2539 9.54668C42.2539 9.8494 42.7706 9.67133 42.8775 9.35081C42.9309 9.15493 43.1447 8.94125 43.3406 8.88783C43.5544 8.8166 43.9285 8.5495 44.2136 8.30021L44.7124 7.81942L43.6613 7.16057C43.0734 6.78663 42.2718 6.43049 41.8798 6.37707C41.5057 6.30584 41.1316 6.18119 41.0782 6.10997C40.9535 5.89629 36.8917 5.91409 36.5532 6.12778Z" fill="#E6EEF1" fill-opacity="0.45"/>
<path d="M49.0234 14.513V23.0781L54.3322 23.0069L59.6232 22.9535L60.514 22.4371C61.6185 21.796 62.6874 20.7276 62.8477 20.1222C62.9011 19.8729 63.0258 19.6592 63.1149 19.6592C63.3287 19.6592 63.3287 16.3293 63.1149 16.2047C63.0258 16.1513 62.9011 15.902 62.8477 15.6527C62.6874 15.0116 61.4047 13.8008 60.7812 13.6583C60.4783 13.6049 60.2467 13.4981 60.2467 13.409C60.2467 13.32 60.0151 13.2488 59.7123 13.2488C59.4273 13.2488 59.1778 13.1597 59.1778 13.0707C59.1778 12.9639 57.9308 12.8926 55.793 12.8926H52.4082V10.6668V8.44092H56.2384C58.4831 8.44092 60.0686 8.36969 60.0686 8.28066C60.0686 8.19162 60.2467 8.04917 60.4783 7.97794C60.6921 7.90672 60.995 7.71084 61.1553 7.53277C61.3156 7.3369 61.5294 7.19444 61.6363 7.19444C61.7432 7.19444 61.9035 7.0876 61.9748 6.96295C62.046 6.83831 62.4023 6.5534 62.7408 6.33972L63.3643 5.94797H56.2028H49.0234V14.513ZM58.9641 15.8486C59.0353 15.9554 59.2313 16.08 59.4094 16.1513C59.8726 16.3293 60.1042 17.1306 60.033 18.3593C59.9795 19.2675 59.8904 19.5346 59.5341 19.8551C58.8037 20.4783 58.394 20.5496 55.3299 20.5496H52.4082V18.0388V15.5458L55.6149 15.5993C57.6458 15.6349 58.875 15.7239 58.9641 15.8486Z" fill="url(#paint2_linear_1176_2845)"/>
<path d="M49.0234 14.513V23.0781L54.3322 23.0069L59.6232 22.9535L60.514 22.4371C61.6185 21.796 62.6874 20.7276 62.8477 20.1222C62.9011 19.8729 63.0258 19.6592 63.1149 19.6592C63.3287 19.6592 63.3287 16.3293 63.1149 16.2047C63.0258 16.1513 62.9011 15.902 62.8477 15.6527C62.6874 15.0116 61.4047 13.8008 60.7812 13.6583C60.4783 13.6049 60.2467 13.4981 60.2467 13.409C60.2467 13.32 60.0151 13.2488 59.7123 13.2488C59.4273 13.2488 59.1778 13.1597 59.1778 13.0707C59.1778 12.9639 57.9308 12.8926 55.793 12.8926H52.4082V10.6668V8.44092H56.2384C58.4831 8.44092 60.0686 8.36969 60.0686 8.28066C60.0686 8.19162 60.2467 8.04917 60.4783 7.97794C60.6921 7.90672 60.995 7.71084 61.1553 7.53277C61.3156 7.3369 61.5294 7.19444 61.6363 7.19444C61.7432 7.19444 61.9035 7.0876 61.9748 6.96295C62.046 6.83831 62.4023 6.5534 62.7408 6.33972L63.3643 5.94797H56.2028H49.0234V14.513ZM58.9641 15.8486C59.0353 15.9554 59.2313 16.08 59.4094 16.1513C59.8726 16.3293 60.1042 17.1306 60.033 18.3593C59.9795 19.2675 59.8904 19.5346 59.5341 19.8551C58.8037 20.4783 58.394 20.5496 55.3299 20.5496H52.4082V18.0388V15.5458L55.6149 15.5993C57.6458 15.6349 58.875 15.7239 58.9641 15.8486Z" fill="#E6EEF1" fill-opacity="0.45"/>
<path d="M67.1953 14.4957V23.043H73.6977H80.2001V21.7965V20.55H75.3901H70.5801V18.1461V15.7422H74.6775H78.7749V14.4957V13.2492H74.6775H70.5801V11.059C70.5801 9.59882 70.6514 8.79751 70.7939 8.65506C70.9364 8.5126 71.8806 8.44138 73.8224 8.44138C76.6193 8.44138 76.6549 8.44138 77.0647 7.99621C77.2963 7.74691 77.5279 7.55104 77.5991 7.55104C77.6704 7.55104 77.8485 7.4442 77.9732 7.31955C78.5611 6.80315 78.7749 6.6607 78.953 6.6607C79.0421 6.6607 79.1312 6.57166 79.1312 6.48263C79.1312 6.37579 79.3093 6.21552 79.5409 6.12649C79.7903 6.03746 77.5457 5.96623 73.573 5.96623L67.1953 5.94842V14.4957Z" fill="url(#paint3_linear_1176_2845)"/>
<path d="M67.1953 14.4957V23.043H73.6977H80.2001V21.7965V20.55H75.3901H70.5801V18.1461V15.7422H74.6775H78.7749V14.4957V13.2492H74.6775H70.5801V11.059C70.5801 9.59882 70.6514 8.79751 70.7939 8.65506C70.9364 8.5126 71.8806 8.44138 73.8224 8.44138C76.6193 8.44138 76.6549 8.44138 77.0647 7.99621C77.2963 7.74691 77.5279 7.55104 77.5991 7.55104C77.6704 7.55104 77.8485 7.4442 77.9732 7.31955C78.5611 6.80315 78.7749 6.6607 78.953 6.6607C79.0421 6.6607 79.1312 6.57166 79.1312 6.48263C79.1312 6.37579 79.3093 6.21552 79.5409 6.12649C79.7903 6.03746 77.5457 5.96623 73.573 5.96623L67.1953 5.94842V14.4957Z" fill="#E6EEF1" fill-opacity="0.45"/>
<path d="M84.1172 14.4957V23.043H85.8096H87.4842L87.5376 20.5856L87.5911 18.1461L90.869 18.0571C93.2205 17.9858 94.1825 17.8968 94.236 17.7365C94.2716 17.6119 94.4141 17.5229 94.5388 17.5229C95.2336 17.5229 97.1398 15.9915 97.3714 15.2436C97.4426 15.0299 97.5851 14.8518 97.6742 14.8518C97.7633 14.8518 97.8345 14.6916 97.8345 14.5135C97.8345 14.3176 97.9236 14.1396 98.0305 14.1039C98.1552 14.0683 98.2265 13.4095 98.2265 12.2698C98.2265 10.7563 98.1552 10.3645 97.7989 9.68785C97.3892 8.88655 97.0863 8.45918 96.6231 8.03182C96.4984 7.90717 96.249 7.67568 96.0887 7.49761C95.9284 7.33735 95.6611 7.1949 95.483 7.1949C95.3049 7.1949 95.1623 7.10586 95.1623 7.01683C95.1623 6.90999 95.0554 6.83876 94.9129 6.83876C94.7704 6.83876 94.6279 6.76753 94.5923 6.6785C94.4854 6.37578 91.5638 6.09088 87.8227 6.00184L84.1172 5.93061V14.4957ZM91.4212 8.60164C91.4212 8.69067 91.8488 8.79751 92.3832 8.83313C93.2205 8.90435 93.4343 9.01119 93.9866 9.59882C94.3429 9.97276 94.717 10.596 94.8239 11.0056C95.0376 11.8069 94.8951 13.6588 94.6279 13.7478C94.521 13.7834 94.4497 13.9259 94.4497 14.0683C94.4497 14.4601 93.4165 15.3326 92.8108 15.4573C92.5079 15.5107 91.1896 15.5641 89.8892 15.5641H87.502V12.1274C87.502 10.2221 87.5554 8.61944 87.6267 8.56602C87.8048 8.38796 91.4212 8.42357 91.4212 8.60164Z" fill="url(#paint4_linear_1176_2845)"/>
<path d="M84.1172 14.4957V23.043H85.8096H87.4842L87.5376 20.5856L87.5911 18.1461L90.869 18.0571C93.2205 17.9858 94.1825 17.8968 94.236 17.7365C94.2716 17.6119 94.4141 17.5229 94.5388 17.5229C95.2336 17.5229 97.1398 15.9915 97.3714 15.2436C97.4426 15.0299 97.5851 14.8518 97.6742 14.8518C97.7633 14.8518 97.8345 14.6916 97.8345 14.5135C97.8345 14.3176 97.9236 14.1396 98.0305 14.1039C98.1552 14.0683 98.2265 13.4095 98.2265 12.2698C98.2265 10.7563 98.1552 10.3645 97.7989 9.68785C97.3892 8.88655 97.0863 8.45918 96.6231 8.03182C96.4984 7.90717 96.249 7.67568 96.0887 7.49761C95.9284 7.33735 95.6611 7.1949 95.483 7.1949C95.3049 7.1949 95.1623 7.10586 95.1623 7.01683C95.1623 6.90999 95.0554 6.83876 94.9129 6.83876C94.7704 6.83876 94.6279 6.76753 94.5923 6.6785C94.4854 6.37578 91.5638 6.09088 87.8227 6.00184L84.1172 5.93061V14.4957ZM91.4212 8.60164C91.4212 8.69067 91.8488 8.79751 92.3832 8.83313C93.2205 8.90435 93.4343 9.01119 93.9866 9.59882C94.3429 9.97276 94.717 10.596 94.8239 11.0056C95.0376 11.8069 94.8951 13.6588 94.6279 13.7478C94.521 13.7834 94.4497 13.9259 94.4497 14.0683C94.4497 14.4601 93.4165 15.3326 92.8108 15.4573C92.5079 15.5107 91.1896 15.5641 89.8892 15.5641H87.502V12.1274C87.502 10.2221 87.5554 8.61944 87.6267 8.56602C87.8048 8.38796 91.4212 8.42357 91.4212 8.60164Z" fill="#E6EEF1" fill-opacity="0.45"/>
<path d="M16.7244 6.73245C16.475 6.98175 16.2256 7.1242 16.1721 7.07078C16.1187 6.99956 16.0652 7.05298 16.0652 7.15982C16.0652 7.28447 15.9584 7.3735 15.8158 7.3735C15.6733 7.3735 15.5308 7.49815 15.4595 7.6406C15.4061 7.78306 15.2101 7.9077 15.0142 7.9077C14.8182 7.9077 14.6222 8.06797 14.551 8.24603C14.4975 8.44191 14.266 8.65559 14.07 8.72682C13.8562 8.78024 13.4999 9.02953 13.2683 9.26102C13.0367 9.49251 12.7695 9.68839 12.6626 9.68839C12.5735 9.68839 12.2885 9.88426 12.0391 10.1336C11.7897 10.3829 11.5047 10.5787 11.3978 10.5787C11.3087 10.5787 11.0593 10.7746 10.8633 11.0239C10.6674 11.2732 10.4001 11.4691 10.2576 11.4691C10.1151 11.4691 10.0082 11.5403 10.0082 11.6115C10.0082 11.6827 9.741 11.8964 9.43815 12.0923C9.11749 12.2704 8.77901 12.5197 8.70775 12.6621C8.63649 12.7868 8.42271 12.8936 8.22675 12.8936C8.0486 12.8936 7.85264 13.0539 7.78138 13.2319C7.72794 13.4278 7.49634 13.6415 7.28257 13.7127C7.06879 13.784 6.76594 13.9798 6.60561 14.1579C6.2315 14.5853 5.71487 14.5853 5.25169 14.1401C5.03791 13.962 4.6638 13.7483 4.41439 13.6771C4.16499 13.6237 3.91558 13.41 3.86214 13.2319C3.79088 13.0539 3.59491 12.8936 3.39895 12.8936C3.20299 12.8936 3.00703 12.769 2.95358 12.6265C2.88232 12.4841 2.72199 12.3594 2.59729 12.3594C2.34788 12.3594 1.47496 11.8786 1.279 11.6471C1.22555 11.5759 1.0474 11.4869 0.887072 11.4156C0.602036 11.3088 0.566406 11.4513 0.566406 13.0005C0.566406 14.6743 0.726739 15.2085 1.26118 15.2085C1.36807 15.2085 1.45714 15.2797 1.45714 15.3688C1.45714 15.4578 1.63529 15.6002 1.84907 15.6715C2.06285 15.7249 2.34788 15.903 2.4904 16.0276C2.6151 16.1701 2.84669 16.2769 2.98921 16.2769C3.13173 16.2769 3.23862 16.3481 3.23862 16.455C3.23862 16.544 3.36332 16.633 3.50584 16.633C3.64836 16.633 3.77306 16.7043 3.77306 16.7933C3.77306 16.8823 3.95121 17.0248 4.1828 17.096C4.39658 17.1672 4.69943 17.3453 4.84195 17.5056C5.30513 18.022 5.98209 18.2179 6.32057 17.9686C6.49872 17.8439 6.8372 17.5946 7.08661 17.4165C7.35383 17.2207 7.65668 16.9714 7.78138 16.8467C7.9239 16.7399 8.06642 16.633 8.13768 16.633C8.20893 16.633 8.35145 16.5262 8.47616 16.4016C8.61867 16.2947 8.90371 16.0632 9.11749 15.9208C9.33126 15.7783 9.72319 15.4756 9.9726 15.2441C10.2398 15.0304 10.5961 14.7989 10.7743 14.7455C10.9346 14.6921 11.0771 14.5675 11.0771 14.4784C11.0771 14.3894 11.1662 14.3182 11.2731 14.3182C11.38 14.3182 11.5759 14.2113 11.7006 14.0867C12.2351 13.6237 12.4845 13.4278 12.5914 13.4278C12.6448 13.4278 12.8764 13.2319 13.108 12.9826C13.3396 12.7334 13.5712 12.5375 13.6424 12.5375C13.7137 12.5375 13.9809 12.3416 14.2481 12.0923C14.5154 11.843 14.8182 11.6471 14.9429 11.6471C15.0676 11.6471 15.1745 11.5759 15.1745 11.4869C15.1745 11.3978 15.4774 11.1307 15.8515 10.9171C16.2078 10.6856 16.6175 10.4007 16.7422 10.276C16.8847 10.1514 17.1519 9.95549 17.3479 9.84865C17.5439 9.74181 17.8289 9.54593 17.9892 9.40348C18.1496 9.27883 18.4346 9.04734 18.6127 8.92269C18.8622 8.76243 18.9156 8.56656 18.8265 8.21042C18.7553 7.94332 18.6306 7.72964 18.5415 7.72964C18.4524 7.72964 18.3812 7.60499 18.3812 7.46253C18.3812 7.32008 18.3099 7.19543 18.203 7.19543C18.1139 7.19543 17.9892 6.99956 17.918 6.75026C17.7755 6.18044 17.2766 6.18044 16.7244 6.73245Z" fill="url(#paint5_linear_1176_2845)"/>
<path d="M16.7244 6.73245C16.475 6.98175 16.2256 7.1242 16.1721 7.07078C16.1187 6.99956 16.0652 7.05298 16.0652 7.15982C16.0652 7.28447 15.9584 7.3735 15.8158 7.3735C15.6733 7.3735 15.5308 7.49815 15.4595 7.6406C15.4061 7.78306 15.2101 7.9077 15.0142 7.9077C14.8182 7.9077 14.6222 8.06797 14.551 8.24603C14.4975 8.44191 14.266 8.65559 14.07 8.72682C13.8562 8.78024 13.4999 9.02953 13.2683 9.26102C13.0367 9.49251 12.7695 9.68839 12.6626 9.68839C12.5735 9.68839 12.2885 9.88426 12.0391 10.1336C11.7897 10.3829 11.5047 10.5787 11.3978 10.5787C11.3087 10.5787 11.0593 10.7746 10.8633 11.0239C10.6674 11.2732 10.4001 11.4691 10.2576 11.4691C10.1151 11.4691 10.0082 11.5403 10.0082 11.6115C10.0082 11.6827 9.741 11.8964 9.43815 12.0923C9.11749 12.2704 8.77901 12.5197 8.70775 12.6621C8.63649 12.7868 8.42271 12.8936 8.22675 12.8936C8.0486 12.8936 7.85264 13.0539 7.78138 13.2319C7.72794 13.4278 7.49634 13.6415 7.28257 13.7127C7.06879 13.784 6.76594 13.9798 6.60561 14.1579C6.2315 14.5853 5.71487 14.5853 5.25169 14.1401C5.03791 13.962 4.6638 13.7483 4.41439 13.6771C4.16499 13.6237 3.91558 13.41 3.86214 13.2319C3.79088 13.0539 3.59491 12.8936 3.39895 12.8936C3.20299 12.8936 3.00703 12.769 2.95358 12.6265C2.88232 12.4841 2.72199 12.3594 2.59729 12.3594C2.34788 12.3594 1.47496 11.8786 1.279 11.6471C1.22555 11.5759 1.0474 11.4869 0.887072 11.4156C0.602036 11.3088 0.566406 11.4513 0.566406 13.0005C0.566406 14.6743 0.726739 15.2085 1.26118 15.2085C1.36807 15.2085 1.45714 15.2797 1.45714 15.3688C1.45714 15.4578 1.63529 15.6002 1.84907 15.6715C2.06285 15.7249 2.34788 15.903 2.4904 16.0276C2.6151 16.1701 2.84669 16.2769 2.98921 16.2769C3.13173 16.2769 3.23862 16.3481 3.23862 16.455C3.23862 16.544 3.36332 16.633 3.50584 16.633C3.64836 16.633 3.77306 16.7043 3.77306 16.7933C3.77306 16.8823 3.95121 17.0248 4.1828 17.096C4.39658 17.1672 4.69943 17.3453 4.84195 17.5056C5.30513 18.022 5.98209 18.2179 6.32057 17.9686C6.49872 17.8439 6.8372 17.5946 7.08661 17.4165C7.35383 17.2207 7.65668 16.9714 7.78138 16.8467C7.9239 16.7399 8.06642 16.633 8.13768 16.633C8.20893 16.633 8.35145 16.5262 8.47616 16.4016C8.61867 16.2947 8.90371 16.0632 9.11749 15.9208C9.33126 15.7783 9.72319 15.4756 9.9726 15.2441C10.2398 15.0304 10.5961 14.7989 10.7743 14.7455C10.9346 14.6921 11.0771 14.5675 11.0771 14.4784C11.0771 14.3894 11.1662 14.3182 11.2731 14.3182C11.38 14.3182 11.5759 14.2113 11.7006 14.0867C12.2351 13.6237 12.4845 13.4278 12.5914 13.4278C12.6448 13.4278 12.8764 13.2319 13.108 12.9826C13.3396 12.7334 13.5712 12.5375 13.6424 12.5375C13.7137 12.5375 13.9809 12.3416 14.2481 12.0923C14.5154 11.843 14.8182 11.6471 14.9429 11.6471C15.0676 11.6471 15.1745 11.5759 15.1745 11.4869C15.1745 11.3978 15.4774 11.1307 15.8515 10.9171C16.2078 10.6856 16.6175 10.4007 16.7422 10.276C16.8847 10.1514 17.1519 9.95549 17.3479 9.84865C17.5439 9.74181 17.8289 9.54593 17.9892 9.40348C18.1496 9.27883 18.4346 9.04734 18.6127 8.92269C18.8622 8.76243 18.9156 8.56656 18.8265 8.21042C18.7553 7.94332 18.6306 7.72964 18.5415 7.72964C18.4524 7.72964 18.3812 7.60499 18.3812 7.46253C18.3812 7.32008 18.3099 7.19543 18.203 7.19543C18.1139 7.19543 17.9892 6.99956 17.918 6.75026C17.7755 6.18044 17.2766 6.18044 16.7244 6.73245Z" fill="#E6EEF1" fill-opacity="0.45"/>
<path d="M19.2365 13.2491C18.9693 13.5518 18.6308 13.7833 18.5061 13.7833C18.3814 13.7833 18.1676 13.9436 18.0251 14.1395C17.8826 14.3353 17.6688 14.4956 17.5441 14.4956C17.3838 14.4956 17.3125 14.8695 17.3125 15.8133C17.3125 16.5434 17.2413 17.1844 17.1522 17.2379C17.0097 17.3269 16.689 18.698 16.7603 18.9829C16.7603 19.072 16.7068 19.1254 16.5999 19.1254C16.5109 19.1254 16.4218 19.25 16.4218 19.3925C16.4218 19.5349 16.3505 19.6596 16.2615 19.6596C16.1724 19.6596 16.0477 19.9445 15.9942 20.2828C15.923 20.6212 15.7983 20.9061 15.7092 20.9061C15.6201 20.9061 15.5132 21.0485 15.442 21.2444C15.3173 21.6361 14.1593 22.8648 13.9277 22.8648C13.6071 22.8648 13.7496 23.3278 14.195 23.862C14.4444 24.1469 14.6403 24.4852 14.6403 24.5921C14.6403 24.7167 14.7116 24.8236 14.8007 24.8236C14.8897 24.8236 15.0144 24.9482 15.0679 25.1085C15.1213 25.2509 15.1035 25.3221 14.9966 25.2687C14.8897 25.2153 14.8719 25.2865 14.9254 25.4468C14.9966 25.6071 15.157 25.6961 15.2995 25.6427C15.442 25.5893 15.6558 25.5358 15.7448 25.5358C15.8517 25.5358 15.9052 25.4824 15.8339 25.429C15.7805 25.3756 16.1368 24.9126 16.6178 24.414C17.0988 23.9332 17.4907 23.4168 17.4907 23.2744C17.4907 23.1497 17.5619 23.0429 17.6688 23.0429C17.7579 23.0429 17.9717 22.758 18.132 22.4196C18.2924 22.0813 18.4883 21.7964 18.5596 21.7964C18.6486 21.7964 18.7555 21.5471 18.8268 21.2622C18.8981 20.9595 19.0049 20.728 19.0762 20.728C19.1831 20.728 19.3791 20.1048 19.7532 18.5912C19.8066 18.3419 19.9313 18.1104 20.0026 18.057C20.0916 18.0035 20.1985 16.9886 20.2698 15.8133C20.4479 12.6971 20.2342 12.1629 19.2365 13.2491Z" fill="url(#paint6_linear_1176_2845)"/>
<path d="M19.2365 13.2491C18.9693 13.5518 18.6308 13.7833 18.5061 13.7833C18.3814 13.7833 18.1676 13.9436 18.0251 14.1395C17.8826 14.3353 17.6688 14.4956 17.5441 14.4956C17.3838 14.4956 17.3125 14.8695 17.3125 15.8133C17.3125 16.5434 17.2413 17.1844 17.1522 17.2379C17.0097 17.3269 16.689 18.698 16.7603 18.9829C16.7603 19.072 16.7068 19.1254 16.5999 19.1254C16.5109 19.1254 16.4218 19.25 16.4218 19.3925C16.4218 19.5349 16.3505 19.6596 16.2615 19.6596C16.1724 19.6596 16.0477 19.9445 15.9942 20.2828C15.923 20.6212 15.7983 20.9061 15.7092 20.9061C15.6201 20.9061 15.5132 21.0485 15.442 21.2444C15.3173 21.6361 14.1593 22.8648 13.9277 22.8648C13.6071 22.8648 13.7496 23.3278 14.195 23.862C14.4444 24.1469 14.6403 24.4852 14.6403 24.5921C14.6403 24.7167 14.7116 24.8236 14.8007 24.8236C14.8897 24.8236 15.0144 24.9482 15.0679 25.1085C15.1213 25.2509 15.1035 25.3221 14.9966 25.2687C14.8897 25.2153 14.8719 25.2865 14.9254 25.4468C14.9966 25.6071 15.157 25.6961 15.2995 25.6427C15.442 25.5893 15.6558 25.5358 15.7448 25.5358C15.8517 25.5358 15.9052 25.4824 15.8339 25.429C15.7805 25.3756 16.1368 24.9126 16.6178 24.414C17.0988 23.9332 17.4907 23.4168 17.4907 23.2744C17.4907 23.1497 17.5619 23.0429 17.6688 23.0429C17.7579 23.0429 17.9717 22.758 18.132 22.4196C18.2924 22.0813 18.4883 21.7964 18.5596 21.7964C18.6486 21.7964 18.7555 21.5471 18.8268 21.2622C18.8981 20.9595 19.0049 20.728 19.0762 20.728C19.1831 20.728 19.3791 20.1048 19.7532 18.5912C19.8066 18.3419 19.9313 18.1104 20.0026 18.057C20.0916 18.0035 20.1985 16.9886 20.2698 15.8133C20.4479 12.6971 20.2342 12.1629 19.2365 13.2491Z" fill="#E6EEF1" fill-opacity="0.45"/>
<defs>
<linearGradient id="paint0_linear_1176_2845" x1="0.871457" y1="2.79113" x2="14.7249" y2="2.79113" gradientUnits="userSpaceOnUse">
<stop stop-color="#3793AE"/>
<stop offset="1" stop-color="#074287"/>
</linearGradient>
<linearGradient id="paint1_linear_1176_2845" x1="29.7141" y1="14.6794" x2="45.0687" y2="14.6794" gradientUnits="userSpaceOnUse">
<stop stop-color="#3793AE"/>
<stop offset="1" stop-color="#074287"/>
</linearGradient>
<linearGradient id="paint2_linear_1176_2845" x1="49.1242" y1="14.513" x2="63.3643" y2="14.513" gradientUnits="userSpaceOnUse">
<stop stop-color="#3793AE"/>
<stop offset="1" stop-color="#074287"/>
</linearGradient>
<linearGradient id="paint3_linear_1176_2845" x1="67.2867" y1="14.4957" x2="80.2001" y2="14.4957" gradientUnits="userSpaceOnUse">
<stop stop-color="#3793AE"/>
<stop offset="1" stop-color="#074287"/>
</linearGradient>
<linearGradient id="paint4_linear_1176_2845" x1="84.2163" y1="14.4868" x2="98.2265" y2="14.4868" gradientUnits="userSpaceOnUse">
<stop stop-color="#3793AE"/>
<stop offset="1" stop-color="#074287"/>
</linearGradient>
<linearGradient id="paint5_linear_1176_2845" x1="0.69498" y1="12.1984" x2="18.8668" y2="12.1984" gradientUnits="userSpaceOnUse">
<stop stop-color="#3793AE"/>
<stop offset="1" stop-color="#074287"/>
</linearGradient>
<linearGradient id="paint6_linear_1176_2845" x1="13.8001" y1="19.1965" x2="20.3266" y2="19.1965" gradientUnits="userSpaceOnUse">
<stop stop-color="#3793AE"/>
<stop offset="1" stop-color="#074287"/>
</linearGradient>
</defs>
</svg>
