<svg width="57" height="49" viewBox="0 0 57 49" fill="none" xmlns="http://www.w3.org/2000/svg">
<path fill-rule="evenodd" clip-rule="evenodd" d="M19.0996 0.9475C12.9896 2.16688 5.36583 7.96215 2.79663 13.3408C2.15101 14.6921 1.17015 17.7079 0.61758 20.0422C-0.590435 25.1426 -0.0500074 29.6298 2.44868 35.25C4.40751 39.6562 9.44187 44.6725 14.13 46.8902C17.1558 48.3213 18.0991 48.4707 24.1184 48.4707C30.1862 48.4707 31.0677 48.3283 34.2334 46.8383C41.4537 43.4386 47.2926 35.33 48.1169 27.5569C49.8538 11.1886 35.1853 -2.26198 19.0996 0.9475ZM23.426 6.60916C23.4023 7.17043 23.6884 8.39506 24.0612 9.32973C24.934 11.5176 26.0836 10.5514 26.0836 7.63018C26.0836 5.76201 26.2275 5.58815 27.7725 5.58815C29.266 5.58815 29.3718 5.69784 28.6828 6.53565C28.2546 7.05666 27.2471 9.0561 26.4448 10.9785C25.642 12.9009 24.7253 14.5089 24.4074 14.5526C24.0895 14.5958 23.2786 13.531 22.6058 12.1856C21.933 10.8408 20.8359 8.8058 20.1689 7.66402L18.9551 5.58815H21.2122C22.9919 5.58815 23.4595 5.80402 23.426 6.60916ZM56.6655 9.96392C56.6683 11.8893 56.7764 12.6063 56.9053 11.5579C57.0336 10.5094 57.0313 8.93416 56.8995 8.05725C56.7672 7.18035 56.662 8.03858 56.6655 9.96392ZM14.3288 11.0561C14.3491 10.7766 14.5918 11.1127 14.8675 11.8035C15.5548 13.5223 14.9907 15.3385 13.6613 15.6898C12.2608 16.0591 10.1667 15.5258 10.5516 14.8969C10.7117 14.6349 10.5661 14.2475 10.228 14.0363C9.79966 13.7691 9.81873 13.4015 10.2892 12.8292C10.6614 12.3764 10.7389 12.0019 10.4615 11.9972C10.1846 11.9925 10.6077 11.6413 11.4024 11.2171C12.3515 10.7107 13.0954 10.6378 13.5699 11.0054C13.9676 11.3134 14.3092 11.3362 14.3288 11.0561ZM37.6644 11.9464C37.5314 12.0806 37.6753 12.4984 37.9851 12.8747C38.7342 13.786 36.4506 16.2901 35.283 15.838C34.8125 15.6559 34.2195 15.5066 33.9646 15.5066C33.3357 15.5066 32.7936 13.2545 33.1785 12.2417C33.3502 11.7912 33.8525 11.4225 34.2952 11.4225C34.738 11.4225 35.1004 11.1845 35.1004 10.8939C35.1004 10.6034 35.7315 10.6664 36.5032 11.0339C37.2748 11.4015 37.7973 11.8117 37.6644 11.9464ZM9.66845 21.8129C9.66845 22.7143 10.0534 23.9611 10.5245 24.5842C11.2678 25.5673 11.4602 25.6012 11.9862 24.8415C12.3191 24.3602 12.4954 23.2202 12.3781 22.3077C12.1567 20.5836 13.0359 19.7861 14.5231 20.3625C15.1779 20.6157 15.0808 21.1764 14.0173 23.2978C13.2942 24.7394 12.4232 26.7272 12.0822 27.7144C11.7417 28.7016 11.1238 29.5079 10.71 29.5067C10.0632 29.5044 5.62246 21.7102 5.62246 20.5772C5.62246 20.3555 6.53281 20.1741 7.64546 20.1741C9.47713 20.1741 9.66845 20.3287 9.66845 21.8129ZM26.1165 20.7172C26.2998 21.016 26.1847 21.4249 25.8616 21.6268C25.0952 22.1052 25.1027 26.9285 25.8726 28.3807C26.4188 29.411 26.2651 29.509 24.1045 29.509C22.522 29.509 21.8694 29.2949 22.1336 28.8632C22.4977 28.2686 22.6757 22.981 22.3769 21.6326C22.3058 21.3118 22.2781 20.8526 22.3162 20.6116C22.4145 19.9804 25.7218 20.072 26.1165 20.7172ZM41.6988 21.6227C42.149 23.3608 41.2237 23.8579 40.0255 22.5218C37.9042 20.1554 35.6784 21.6151 35.6784 25.3731C35.6784 26.6228 36.1061 27.4314 37.1233 28.1041C38.4655 28.9915 38.6747 28.9892 40.0636 28.0709C42.0415 26.7628 42.7097 27.5183 40.8717 28.9839C39.8492 29.8002 38.8706 30.047 37.4742 29.8428C33.056 29.1951 31.3064 24.7464 34.2871 21.7377C35.5367 20.4757 36.2523 20.2446 38.5926 20.345C40.848 20.4419 41.4578 20.6927 41.6988 21.6227ZM14.2722 34.1765C15.03 34.1765 15.408 36.5278 14.8675 37.8796C14.5918 38.5704 14.3491 38.9064 14.3288 38.627C14.3092 38.3469 13.9676 38.3697 13.5699 38.6777C13.0954 39.0453 12.3515 38.9724 11.4024 38.4659C10.6077 38.0418 10.1846 37.6906 10.4615 37.6859C10.7389 37.6812 10.6424 37.2833 10.2464 36.802C9.68117 36.1147 9.67943 35.9268 10.2378 35.9268C10.6285 35.9268 10.8048 35.5493 10.6291 35.0884C10.2956 34.2109 11.6776 33.561 13.0393 33.9542C13.4624 34.0762 14.0173 34.1765 14.2722 34.1765ZM36.498 33.9472C37.0008 34.1421 37.4123 34.645 37.4123 35.0657C37.4123 35.4858 37.6944 35.9245 38.0395 36.0406C38.3845 36.1567 37.9366 36.9887 37.0447 37.8895C36.1523 38.7897 35.3281 39.2419 35.2131 38.8936C35.098 38.5453 34.6634 38.2606 34.2472 38.2606C32.53 38.2606 32.6994 34.4496 34.4374 33.984C34.9611 33.8434 35.4333 33.6981 35.4865 33.6608C35.5402 33.6234 35.9951 33.7524 36.498 33.9472ZM28.1644 36.802C28.1644 38.5651 27.9274 38.6048 26.4304 37.0937C25.7946 36.4519 25.0328 35.9268 24.7374 35.9268C23.5017 35.9268 22.3844 37.8913 22.3844 40.0651C22.3844 41.9467 22.6451 42.4893 23.8057 43.0232C24.9351 43.543 25.5148 43.4864 26.6292 42.7495C28.354 41.6089 29.0903 42.1562 27.787 43.6101C27.1604 44.3091 26.0235 44.6784 24.4993 44.6784C21.3469 44.6784 19.4944 42.9216 19.4944 39.9321C19.4944 36.7215 21.1758 35.3434 25.0946 35.3434C27.9835 35.3434 28.1644 35.4292 28.1644 36.802Z" fill="url(#paint0_linear_1176_2933)"/>
<path fill-rule="evenodd" clip-rule="evenodd" d="M19.0996 0.9475C12.9896 2.16688 5.36583 7.96215 2.79663 13.3408C2.15101 14.6921 1.17015 17.7079 0.61758 20.0422C-0.590435 25.1426 -0.0500074 29.6298 2.44868 35.25C4.40751 39.6562 9.44187 44.6725 14.13 46.8902C17.1558 48.3213 18.0991 48.4707 24.1184 48.4707C30.1862 48.4707 31.0677 48.3283 34.2334 46.8383C41.4537 43.4386 47.2926 35.33 48.1169 27.5569C49.8538 11.1886 35.1853 -2.26198 19.0996 0.9475ZM23.426 6.60916C23.4023 7.17043 23.6884 8.39506 24.0612 9.32973C24.934 11.5176 26.0836 10.5514 26.0836 7.63018C26.0836 5.76201 26.2275 5.58815 27.7725 5.58815C29.266 5.58815 29.3718 5.69784 28.6828 6.53565C28.2546 7.05666 27.2471 9.0561 26.4448 10.9785C25.642 12.9009 24.7253 14.5089 24.4074 14.5526C24.0895 14.5958 23.2786 13.531 22.6058 12.1856C21.933 10.8408 20.8359 8.8058 20.1689 7.66402L18.9551 5.58815H21.2122C22.9919 5.58815 23.4595 5.80402 23.426 6.60916ZM56.6655 9.96392C56.6683 11.8893 56.7764 12.6063 56.9053 11.5579C57.0336 10.5094 57.0313 8.93416 56.8995 8.05725C56.7672 7.18035 56.662 8.03858 56.6655 9.96392ZM14.3288 11.0561C14.3491 10.7766 14.5918 11.1127 14.8675 11.8035C15.5548 13.5223 14.9907 15.3385 13.6613 15.6898C12.2608 16.0591 10.1667 15.5258 10.5516 14.8969C10.7117 14.6349 10.5661 14.2475 10.228 14.0363C9.79966 13.7691 9.81873 13.4015 10.2892 12.8292C10.6614 12.3764 10.7389 12.0019 10.4615 11.9972C10.1846 11.9925 10.6077 11.6413 11.4024 11.2171C12.3515 10.7107 13.0954 10.6378 13.5699 11.0054C13.9676 11.3134 14.3092 11.3362 14.3288 11.0561ZM37.6644 11.9464C37.5314 12.0806 37.6753 12.4984 37.9851 12.8747C38.7342 13.786 36.4506 16.2901 35.283 15.838C34.8125 15.6559 34.2195 15.5066 33.9646 15.5066C33.3357 15.5066 32.7936 13.2545 33.1785 12.2417C33.3502 11.7912 33.8525 11.4225 34.2952 11.4225C34.738 11.4225 35.1004 11.1845 35.1004 10.8939C35.1004 10.6034 35.7315 10.6664 36.5032 11.0339C37.2748 11.4015 37.7973 11.8117 37.6644 11.9464ZM9.66845 21.8129C9.66845 22.7143 10.0534 23.9611 10.5245 24.5842C11.2678 25.5673 11.4602 25.6012 11.9862 24.8415C12.3191 24.3602 12.4954 23.2202 12.3781 22.3077C12.1567 20.5836 13.0359 19.7861 14.5231 20.3625C15.1779 20.6157 15.0808 21.1764 14.0173 23.2978C13.2942 24.7394 12.4232 26.7272 12.0822 27.7144C11.7417 28.7016 11.1238 29.5079 10.71 29.5067C10.0632 29.5044 5.62246 21.7102 5.62246 20.5772C5.62246 20.3555 6.53281 20.1741 7.64546 20.1741C9.47713 20.1741 9.66845 20.3287 9.66845 21.8129ZM26.1165 20.7172C26.2998 21.016 26.1847 21.4249 25.8616 21.6268C25.0952 22.1052 25.1027 26.9285 25.8726 28.3807C26.4188 29.411 26.2651 29.509 24.1045 29.509C22.522 29.509 21.8694 29.2949 22.1336 28.8632C22.4977 28.2686 22.6757 22.981 22.3769 21.6326C22.3058 21.3118 22.2781 20.8526 22.3162 20.6116C22.4145 19.9804 25.7218 20.072 26.1165 20.7172ZM41.6988 21.6227C42.149 23.3608 41.2237 23.8579 40.0255 22.5218C37.9042 20.1554 35.6784 21.6151 35.6784 25.3731C35.6784 26.6228 36.1061 27.4314 37.1233 28.1041C38.4655 28.9915 38.6747 28.9892 40.0636 28.0709C42.0415 26.7628 42.7097 27.5183 40.8717 28.9839C39.8492 29.8002 38.8706 30.047 37.4742 29.8428C33.056 29.1951 31.3064 24.7464 34.2871 21.7377C35.5367 20.4757 36.2523 20.2446 38.5926 20.345C40.848 20.4419 41.4578 20.6927 41.6988 21.6227ZM14.2722 34.1765C15.03 34.1765 15.408 36.5278 14.8675 37.8796C14.5918 38.5704 14.3491 38.9064 14.3288 38.627C14.3092 38.3469 13.9676 38.3697 13.5699 38.6777C13.0954 39.0453 12.3515 38.9724 11.4024 38.4659C10.6077 38.0418 10.1846 37.6906 10.4615 37.6859C10.7389 37.6812 10.6424 37.2833 10.2464 36.802C9.68117 36.1147 9.67943 35.9268 10.2378 35.9268C10.6285 35.9268 10.8048 35.5493 10.6291 35.0884C10.2956 34.2109 11.6776 33.561 13.0393 33.9542C13.4624 34.0762 14.0173 34.1765 14.2722 34.1765ZM36.498 33.9472C37.0008 34.1421 37.4123 34.645 37.4123 35.0657C37.4123 35.4858 37.6944 35.9245 38.0395 36.0406C38.3845 36.1567 37.9366 36.9887 37.0447 37.8895C36.1523 38.7897 35.3281 39.2419 35.2131 38.8936C35.098 38.5453 34.6634 38.2606 34.2472 38.2606C32.53 38.2606 32.6994 34.4496 34.4374 33.984C34.9611 33.8434 35.4333 33.6981 35.4865 33.6608C35.5402 33.6234 35.9951 33.7524 36.498 33.9472ZM28.1644 36.802C28.1644 38.5651 27.9274 38.6048 26.4304 37.0937C25.7946 36.4519 25.0328 35.9268 24.7374 35.9268C23.5017 35.9268 22.3844 37.8913 22.3844 40.0651C22.3844 41.9467 22.6451 42.4893 23.8057 43.0232C24.9351 43.543 25.5148 43.4864 26.6292 42.7495C28.354 41.6089 29.0903 42.1562 27.787 43.6101C27.1604 44.3091 26.0235 44.6784 24.4993 44.6784C21.3469 44.6784 19.4944 42.9216 19.4944 39.9321C19.4944 36.7215 21.1758 35.3434 25.0946 35.3434C27.9835 35.3434 28.1644 35.4292 28.1644 36.802Z" fill="#E6EEF1" fill-opacity="0.45"/>
<defs>
<linearGradient id="paint0_linear_1176_2933" x1="0.400468" y1="24.4707" x2="57" y2="24.4707" gradientUnits="userSpaceOnUse">
<stop stop-color="#3793AE"/>
<stop offset="1" stop-color="#074287"/>
</linearGradient>
</defs>
</svg>
