<svg width="123" height="22" viewBox="0 0 123 22" fill="none" xmlns="http://www.w3.org/2000/svg">
<path d="M10.5738 2.89895C9.4085 4.46221 8.4137 5.94019 8.32843 6.13915C8.21474 6.48022 10.3464 6.53707 21.7156 6.53707C32.9994 6.53707 35.2448 6.59392 35.2448 6.93499C35.2448 7.13395 34.5343 8.27086 33.6816 9.46462C32.8289 10.63 32.1183 11.7384 32.1183 11.8806C32.1183 12.4206 33.0563 12.5059 38.5987 12.5059L44.198 12.4774L45.8181 10.2889C47.6087 7.84452 48.0351 6.93499 48.0351 5.62754C48.0351 4.34851 47.0403 2.44419 45.9318 1.61993C43.9138 0.0566711 43.2601 -0.000174522 27.3149 -0.000174522L12.6487 0.0282478L10.5738 2.89895Z" fill="url(#paint0_linear_1176_2818)"/>
<path d="M10.5738 2.89895C9.4085 4.46221 8.4137 5.94019 8.32843 6.13915C8.21474 6.48022 10.3464 6.53707 21.7156 6.53707C32.9994 6.53707 35.2448 6.59392 35.2448 6.93499C35.2448 7.13395 34.5343 8.27086 33.6816 9.46462C32.8289 10.63 32.1183 11.7384 32.1183 11.8806C32.1183 12.4206 33.0563 12.5059 38.5987 12.5059L44.198 12.4774L45.8181 10.2889C47.6087 7.84452 48.0351 6.93499 48.0351 5.62754C48.0351 4.34851 47.0403 2.44419 45.9318 1.61993C43.9138 0.0566711 43.2601 -0.000174522 27.3149 -0.000174522L12.6487 0.0282478L10.5738 2.89895Z" fill="#E6EEF1" fill-opacity="0.45"/>
<path d="M55.0824 3.89375C50.8758 9.60673 49.3126 11.7384 49.0568 12.1364C48.8863 12.4206 52.297 12.5059 65.7126 12.5059L82.5673 12.4774L86.9728 6.50865C89.3888 3.2116 91.4352 0.397744 91.4636 0.25563C91.5205 0.113517 88.6213 -0.000174522 84.7843 -0.000174522H77.9912L75.3763 3.55268L72.733 7.10553H69.5781C67.1053 7.10553 66.5084 7.02026 66.7074 6.73603C67.8158 5.28647 71.255 0.65355 71.454 0.340899C71.6245 0.0850935 70.2034 -0.000174522 64.8314 -0.000174522H57.9816L55.0824 3.89375Z" fill="url(#paint1_linear_1176_2818)"/>
<path d="M55.0824 3.89375C50.8758 9.60673 49.3126 11.7384 49.0568 12.1364C48.8863 12.4206 52.297 12.5059 65.7126 12.5059L82.5673 12.4774L86.9728 6.50865C89.3888 3.2116 91.4352 0.397744 91.4636 0.25563C91.5205 0.113517 88.6213 -0.000174522 84.7843 -0.000174522H77.9912L75.3763 3.55268L72.733 7.10553H69.5781C67.1053 7.10553 66.5084 7.02026 66.7074 6.73603C67.8158 5.28647 71.255 0.65355 71.454 0.340899C71.6245 0.0850935 70.2034 -0.000174522 64.8314 -0.000174522H57.9816L55.0824 3.89375Z" fill="#E6EEF1" fill-opacity="0.45"/>
<path d="M95.1295 1.61993C93.481 3.80848 87.7112 11.71 87.427 12.1364C87.2564 12.4206 88.7344 12.5059 94.4474 12.5059H101.695L105.618 7.16237C107.778 4.23482 109.853 1.42097 110.222 0.909355L110.904 -0.000174522H103.656H96.3801L95.1295 1.61993Z" fill="url(#paint2_linear_1176_2818)"/>
<path d="M95.1295 1.61993C93.481 3.80848 87.7112 11.71 87.427 12.1364C87.2564 12.4206 88.7344 12.5059 94.4474 12.5059H101.695L105.618 7.16237C107.778 4.23482 109.853 1.42097 110.222 0.909355L110.904 -0.000174522H103.656H96.3801L95.1295 1.61993Z" fill="#E6EEF1" fill-opacity="0.45"/>
<path d="M10.9704 14.439C8.4692 17.8497 6.39434 20.7772 6.33749 20.9478C6.25223 21.1752 9.66296 21.2888 18.2751 21.3173C28.3936 21.3457 30.6958 21.2604 32.5717 20.8625C35.1298 20.3509 37.6594 19.1856 39.4785 17.6792C40.8996 16.5138 42.605 14.7516 42.6334 14.439C42.6334 14.3253 38.8248 14.1831 34.1918 14.1547C26.4608 14.0695 25.7218 14.041 25.6366 13.5863C25.5797 13.302 26.2619 12.1367 27.1146 10.9429C27.9957 9.77761 28.7062 8.69754 28.7062 8.52701C28.7062 8.35647 26.3471 8.24278 22.1122 8.24278L15.4896 8.2712L10.9704 14.439Z" fill="url(#paint3_linear_1176_2818)"/>
<path d="M10.9704 14.439C8.4692 17.8497 6.39434 20.7772 6.33749 20.9478C6.25223 21.1752 9.66296 21.2888 18.2751 21.3173C28.3936 21.3457 30.6958 21.2604 32.5717 20.8625C35.1298 20.3509 37.6594 19.1856 39.4785 17.6792C40.8996 16.5138 42.605 14.7516 42.6334 14.439C42.6334 14.3253 38.8248 14.1831 34.1918 14.1547C26.4608 14.0695 25.7218 14.041 25.6366 13.5863C25.5797 13.302 26.2619 12.1367 27.1146 10.9429C27.9957 9.77761 28.7062 8.69754 28.7062 8.52701C28.7062 8.35647 26.3471 8.24278 22.1122 8.24278L15.4896 8.2712L10.9704 14.439Z" fill="#E6EEF1" fill-opacity="0.45"/>
<path d="M0 14.9222V15.6328H3.78023C7.44678 15.6044 7.53204 15.6044 8.04365 14.9222L8.55526 14.2117H4.26342H0V14.9222Z" fill="url(#paint4_linear_1176_2818)"/>
<path d="M0 14.9222V15.6328H3.78023C7.44678 15.6044 7.53204 15.6044 8.04365 14.9222L8.55526 14.2117H4.26342H0V14.9222Z" fill="#E6EEF1" fill-opacity="0.45"/>
<path d="M45.2179 17.3372C43.9389 19.0426 42.8304 20.6343 42.7452 20.8901C42.603 21.2596 43.3989 21.3164 49.2824 21.3164H55.9618L58.3493 18.1046C59.6567 16.3708 60.8221 14.7507 60.9358 14.5518C61.1063 14.296 59.6852 14.2107 54.3132 14.2107H47.5202L45.2179 17.3372Z" fill="url(#paint5_linear_1176_2818)"/>
<path d="M45.2179 17.3372C43.9389 19.0426 42.8304 20.6343 42.7452 20.8901C42.603 21.2596 43.3989 21.3164 49.2824 21.3164H55.9618L58.3493 18.1046C59.6567 16.3708 60.8221 14.7507 60.9358 14.5518C61.1063 14.296 59.6852 14.2107 54.3132 14.2107H47.5202L45.2179 17.3372Z" fill="#E6EEF1" fill-opacity="0.45"/>
<path d="M65.0325 17.5939C63.6397 19.4698 62.5312 21.0615 62.5312 21.1467C62.5312 21.4025 75.691 21.3457 76.0605 21.0899C76.43 20.8341 81.0061 14.6379 81.0061 14.3821C81.0061 14.2968 77.9648 14.2116 74.2699 14.2116H67.5052L65.0325 17.5939Z" fill="url(#paint6_linear_1176_2818)"/>
<path d="M65.0325 17.5939C63.6397 19.4698 62.5312 21.0615 62.5312 21.1467C62.5312 21.4025 75.691 21.3457 76.0605 21.0899C76.43 20.8341 81.0061 14.6379 81.0061 14.3821C81.0061 14.2968 77.9648 14.2116 74.2699 14.2116H67.5052L65.0325 17.5939Z" fill="#E6EEF1" fill-opacity="0.45"/>
<path d="M85.2093 15.1211C83.5608 17.2812 83.4187 18.5318 84.6408 19.6688C86.1757 21.1183 86.5167 21.1467 99.6765 21.2604L111.955 21.3457L114.343 18.1339C115.65 16.3717 116.815 14.7516 116.929 14.5527C117.1 14.2968 113.945 14.2116 101.524 14.2116H85.8914L85.2093 15.1211Z" fill="url(#paint7_linear_1176_2818)"/>
<path d="M85.2093 15.1211C83.5608 17.2812 83.4187 18.5318 84.6408 19.6688C86.1757 21.1183 86.5167 21.1467 99.6765 21.2604L111.955 21.3457L114.343 18.1339C115.65 16.3717 116.815 14.7516 116.929 14.5527C117.1 14.2968 113.945 14.2116 101.524 14.2116H85.8914L85.2093 15.1211Z" fill="#E6EEF1" fill-opacity="0.45"/>
<path d="M119.293 14.9222L118.781 15.6328H120.799C122.732 15.6328 122.789 15.6044 122.789 14.9222C122.789 14.2401 122.704 14.2117 121.311 14.2117C120.032 14.2401 119.719 14.3538 119.293 14.9222Z" fill="url(#paint8_linear_1176_2818)"/>
<path d="M119.293 14.9222L118.781 15.6328H120.799C122.732 15.6328 122.789 15.6044 122.789 14.9222C122.789 14.2401 122.704 14.2117 121.311 14.2117C120.032 14.2401 119.719 14.3538 119.293 14.9222Z" fill="#E6EEF1" fill-opacity="0.45"/>
<path d="M0 17.766C0 18.4766 0 18.4766 2.64332 18.4766C4.8603 18.4766 5.40033 18.3913 5.76983 17.965C6.05406 17.6807 6.25302 17.3397 6.25302 17.2544C6.25302 17.1407 4.8603 17.0554 3.12651 17.0554H0V17.766Z" fill="url(#paint9_linear_1176_2818)"/>
<path d="M0 17.766C0 18.4766 0 18.4766 2.64332 18.4766C4.8603 18.4766 5.40033 18.3913 5.76983 17.965C6.05406 17.6807 6.25302 17.3397 6.25302 17.2544C6.25302 17.1407 4.8603 17.0554 3.12651 17.0554H0V17.766Z" fill="#E6EEF1" fill-opacity="0.45"/>
<path d="M117.271 17.766L116.816 18.4766H119.801H122.785V17.766C122.785 17.0554 122.757 17.0554 120.256 17.0554C117.868 17.0554 117.698 17.0838 117.271 17.766Z" fill="url(#paint10_linear_1176_2818)"/>
<path d="M117.271 17.766L116.816 18.4766H119.801H122.785V17.766C122.785 17.0554 122.757 17.0554 120.256 17.0554C117.868 17.0554 117.698 17.0838 117.271 17.766Z" fill="#E6EEF1" fill-opacity="0.45"/>
<path d="M0.0560383 20.5202C0.112884 21.0602 0.340266 21.2023 1.2498 21.2592C2.75621 21.3728 3.4952 21.1739 3.92154 20.4633C4.26261 19.9233 4.20577 19.8949 2.10248 19.8949C0.0560384 19.8949 -0.0292301 19.9233 0.0560383 20.5202Z" fill="url(#paint11_linear_1176_2818)"/>
<path d="M0.0560383 20.5202C0.112884 21.0602 0.340266 21.2023 1.2498 21.2592C2.75621 21.3728 3.4952 21.1739 3.92154 20.4633C4.26261 19.9233 4.20577 19.8949 2.10248 19.8949C0.0560384 19.8949 -0.0292301 19.9233 0.0560383 20.5202Z" fill="#E6EEF1" fill-opacity="0.45"/>
<path d="M115.312 20.4069C115.028 20.6911 114.914 21.0322 115.028 21.1174C115.113 21.2311 116.904 21.3164 119.007 21.3164H122.787V20.6058V19.8953H119.291C116.25 19.8953 115.71 19.9521 115.312 20.4069Z" fill="url(#paint12_linear_1176_2818)"/>
<path d="M115.312 20.4069C115.028 20.6911 114.914 21.0322 115.028 21.1174C115.113 21.2311 116.904 21.3164 119.007 21.3164H122.787V20.6058V19.8953H119.291C116.25 19.8953 115.71 19.9521 115.312 20.4069Z" fill="#E6EEF1" fill-opacity="0.45"/>
<defs>
<linearGradient id="paint0_linear_1176_2818" x1="8.60322" y1="6.25284" x2="48.0351" y2="6.25284" gradientUnits="userSpaceOnUse">
<stop stop-color="#3793AE"/>
<stop offset="1" stop-color="#074287"/>
</linearGradient>
<linearGradient id="paint1_linear_1176_2818" x1="49.3488" y1="6.25284" x2="91.4644" y2="6.25284" gradientUnits="userSpaceOnUse">
<stop stop-color="#3793AE"/>
<stop offset="1" stop-color="#074287"/>
</linearGradient>
<linearGradient id="paint2_linear_1176_2818" x1="87.5791" y1="6.25284" x2="110.904" y2="6.25284" gradientUnits="userSpaceOnUse">
<stop stop-color="#3793AE"/>
<stop offset="1" stop-color="#074287"/>
</linearGradient>
<linearGradient id="paint3_linear_1176_2818" x1="6.59095" y1="14.7825" x2="42.6334" y2="14.7825" gradientUnits="userSpaceOnUse">
<stop stop-color="#3793AE"/>
<stop offset="1" stop-color="#074287"/>
</linearGradient>
<linearGradient id="paint4_linear_1176_2818" x1="0.0601072" y1="14.9222" x2="8.55526" y2="14.9222" gradientUnits="userSpaceOnUse">
<stop stop-color="#3793AE"/>
<stop offset="1" stop-color="#074287"/>
</linearGradient>
<linearGradient id="paint5_linear_1176_2818" x1="42.8585" y1="17.7636" x2="60.9491" y2="17.7636" gradientUnits="userSpaceOnUse">
<stop stop-color="#3793AE"/>
<stop offset="1" stop-color="#074287"/>
</linearGradient>
<linearGradient id="paint6_linear_1176_2818" x1="62.661" y1="17.762" x2="81.0061" y2="17.762" gradientUnits="userSpaceOnUse">
<stop stop-color="#3793AE"/>
<stop offset="1" stop-color="#074287"/>
</linearGradient>
<linearGradient id="paint7_linear_1176_2818" x1="84.0646" y1="17.7786" x2="116.936" y2="17.7786" gradientUnits="userSpaceOnUse">
<stop stop-color="#3793AE"/>
<stop offset="1" stop-color="#074287"/>
</linearGradient>
<linearGradient id="paint8_linear_1176_2818" x1="118.809" y1="14.9222" x2="122.789" y2="14.9222" gradientUnits="userSpaceOnUse">
<stop stop-color="#3793AE"/>
<stop offset="1" stop-color="#074287"/>
</linearGradient>
<linearGradient id="paint9_linear_1176_2818" x1="0.0439322" y1="17.766" x2="6.25302" y2="17.766" gradientUnits="userSpaceOnUse">
<stop stop-color="#3793AE"/>
<stop offset="1" stop-color="#074287"/>
</linearGradient>
<linearGradient id="paint10_linear_1176_2818" x1="116.858" y1="17.766" x2="122.785" y2="17.766" gradientUnits="userSpaceOnUse">
<stop stop-color="#3793AE"/>
<stop offset="1" stop-color="#074287"/>
</linearGradient>
<linearGradient id="paint11_linear_1176_2818" x1="0.0635629" y1="20.592" x2="4.07837" y2="20.592" gradientUnits="userSpaceOnUse">
<stop stop-color="#3793AE"/>
<stop offset="1" stop-color="#074287"/>
</linearGradient>
<linearGradient id="paint12_linear_1176_2818" x1="115.039" y1="20.6058" x2="122.787" y2="20.6058" gradientUnits="userSpaceOnUse">
<stop stop-color="#3793AE"/>
<stop offset="1" stop-color="#074287"/>
</linearGradient>
</defs>
</svg>
