<svg width="26" height="29" viewBox="0 0 26 29" fill="none" xmlns="http://www.w3.org/2000/svg">
<path d="M11.9922 2.08654V1.04327C11.9922 0.766577 12.0943 0.501217 12.2759 0.305567C12.4576 0.109916 12.704 0 12.9609 0C13.2179 0 13.4643 0.109916 13.6459 0.305567C13.8276 0.501217 13.9297 0.766577 13.9297 1.04327V2.08654C13.9297 2.36323 13.8276 2.62859 13.6459 2.82424C13.4643 3.01989 13.2179 3.12981 12.9609 3.12981C12.704 3.12981 12.4576 3.01989 12.2759 2.82424C12.0943 2.62859 11.9922 2.36323 11.9922 2.08654ZM21.6797 6.25962C21.8069 6.25972 21.933 6.23283 22.0506 6.18047C22.1682 6.12811 22.275 6.05131 22.3651 5.95446L23.3338 4.91119C23.5156 4.71543 23.6177 4.44992 23.6177 4.17308C23.6177 3.89623 23.5156 3.63072 23.3338 3.43496C23.1521 3.2392 22.9055 3.12923 22.6484 3.12923C22.3914 3.12923 22.1448 3.2392 21.963 3.43496L20.9943 4.47823C20.8587 4.62414 20.7663 4.81011 20.7288 5.01259C20.6914 5.21507 20.7106 5.42497 20.784 5.6157C20.8573 5.80643 20.9816 5.96943 21.1411 6.08405C21.3005 6.19868 21.488 6.25978 21.6797 6.25962ZM3.5568 5.95446C3.73857 6.15022 3.98512 6.2602 4.24219 6.2602C4.49926 6.2602 4.7458 6.15022 4.92758 5.95446C5.10936 5.7587 5.21148 5.49319 5.21148 5.21635C5.21148 4.9395 5.10936 4.67399 4.92758 4.47823L3.95883 3.43496C3.77705 3.2392 3.53051 3.12923 3.27344 3.12923C3.01637 3.12923 2.76982 3.2392 2.58805 3.43496C2.40627 3.63072 2.30415 3.89623 2.30415 4.17308C2.30415 4.44992 2.40627 4.71543 2.58805 4.91119L3.5568 5.95446ZM25.5547 22.9519V26.0817C25.5547 26.6351 25.3506 27.1658 24.9872 27.5571C24.6239 27.9484 24.131 28.1683 23.6172 28.1683H2.30469C1.79083 28.1683 1.29802 27.9484 0.934668 27.5571C0.571316 27.1658 0.367188 26.6351 0.367188 26.0817V22.9519C0.367188 22.3985 0.571316 21.8678 0.934668 21.4765C1.29802 21.0852 1.79083 20.8654 2.30469 20.8654V16.6923C2.30465 15.1779 2.58294 13.6784 3.12354 12.2804C3.66413 10.8823 4.45633 9.61332 5.45446 8.54653C6.4526 7.47974 7.63693 6.63625 8.93918 6.0647C10.2414 5.49314 11.6359 5.20482 13.0421 5.21635C18.8727 5.26329 23.6172 10.4705 23.6172 16.8227V20.8654C24.131 20.8654 24.6239 21.0852 24.9872 21.4765C25.3506 21.8678 25.5547 22.3985 25.5547 22.9519ZM13.7698 11.4616C16.0694 11.8776 17.8047 14.1259 17.8047 16.6923C17.8047 16.969 17.9068 17.2344 18.0884 17.43C18.2701 17.6257 18.5165 17.7356 18.7734 17.7356C19.0304 17.7356 19.2768 17.6257 19.4584 17.43C19.6401 17.2344 19.7422 16.969 19.7422 16.6923C19.7422 13.1191 17.3118 9.98539 14.0895 9.40377C13.9635 9.37977 13.8343 9.3829 13.7094 9.41297C13.5845 9.44304 13.4664 9.49947 13.3619 9.57898C13.2574 9.6585 13.1685 9.75953 13.1005 9.87624C13.0324 9.99294 12.9865 10.123 12.9654 10.259C12.9442 10.3949 12.9483 10.534 12.9774 10.6682C13.0065 10.8024 13.06 10.9291 13.1348 11.0409C13.2096 11.1527 13.3042 11.2475 13.4132 11.3197C13.5222 11.3919 13.6434 11.4401 13.7698 11.4616ZM23.6172 26.0817V22.9519H2.30469V26.0817H23.6172Z" fill=""/>
<path d="M11.9922 2.08654V1.04327C11.9922 0.766577 12.0943 0.501217 12.2759 0.305567C12.4576 0.109916 12.704 0 12.9609 0C13.2179 0 13.4643 0.109916 13.6459 0.305567C13.8276 0.501217 13.9297 0.766577 13.9297 1.04327V2.08654C13.9297 2.36323 13.8276 2.62859 13.6459 2.82424C13.4643 3.01989 13.2179 3.12981 12.9609 3.12981C12.704 3.12981 12.4576 3.01989 12.2759 2.82424C12.0943 2.62859 11.9922 2.36323 11.9922 2.08654ZM21.6797 6.25962C21.8069 6.25972 21.933 6.23283 22.0506 6.18047C22.1682 6.12811 22.275 6.05131 22.3651 5.95446L23.3338 4.91119C23.5156 4.71543 23.6177 4.44992 23.6177 4.17308C23.6177 3.89623 23.5156 3.63072 23.3338 3.43496C23.1521 3.2392 22.9055 3.12923 22.6484 3.12923C22.3914 3.12923 22.1448 3.2392 21.963 3.43496L20.9943 4.47823C20.8587 4.62414 20.7663 4.81011 20.7288 5.01259C20.6914 5.21507 20.7106 5.42497 20.784 5.6157C20.8573 5.80643 20.9816 5.96943 21.1411 6.08405C21.3005 6.19868 21.488 6.25978 21.6797 6.25962ZM3.5568 5.95446C3.73857 6.15022 3.98512 6.2602 4.24219 6.2602C4.49926 6.2602 4.7458 6.15022 4.92758 5.95446C5.10936 5.7587 5.21148 5.49319 5.21148 5.21635C5.21148 4.9395 5.10936 4.67399 4.92758 4.47823L3.95883 3.43496C3.77705 3.2392 3.53051 3.12923 3.27344 3.12923C3.01637 3.12923 2.76982 3.2392 2.58805 3.43496C2.40627 3.63072 2.30415 3.89623 2.30415 4.17308C2.30415 4.44992 2.40627 4.71543 2.58805 4.91119L3.5568 5.95446ZM25.5547 22.9519V26.0817C25.5547 26.6351 25.3506 27.1658 24.9872 27.5571C24.6239 27.9484 24.131 28.1683 23.6172 28.1683H2.30469C1.79083 28.1683 1.29802 27.9484 0.934668 27.5571C0.571316 27.1658 0.367188 26.6351 0.367188 26.0817V22.9519C0.367188 22.3985 0.571316 21.8678 0.934668 21.4765C1.29802 21.0852 1.79083 20.8654 2.30469 20.8654V16.6923C2.30465 15.1779 2.58294 13.6784 3.12354 12.2804C3.66413 10.8823 4.45633 9.61332 5.45446 8.54653C6.4526 7.47974 7.63693 6.63625 8.93918 6.0647C10.2414 5.49314 11.6359 5.20482 13.0421 5.21635C18.8727 5.26329 23.6172 10.4705 23.6172 16.8227V20.8654C24.131 20.8654 24.6239 21.0852 24.9872 21.4765C25.3506 21.8678 25.5547 22.3985 25.5547 22.9519ZM13.7698 11.4616C16.0694 11.8776 17.8047 14.1259 17.8047 16.6923C17.8047 16.969 17.9068 17.2344 18.0884 17.43C18.2701 17.6257 18.5165 17.7356 18.7734 17.7356C19.0304 17.7356 19.2768 17.6257 19.4584 17.43C19.6401 17.2344 19.7422 16.969 19.7422 16.6923C19.7422 13.1191 17.3118 9.98539 14.0895 9.40377C13.9635 9.37977 13.8343 9.3829 13.7094 9.41297C13.5845 9.44304 13.4664 9.49947 13.3619 9.57898C13.2574 9.6585 13.1685 9.75953 13.1005 9.87624C13.0324 9.99294 12.9865 10.123 12.9654 10.259C12.9442 10.3949 12.9483 10.534 12.9774 10.6682C13.0065 10.8024 13.06 10.9291 13.1348 11.0409C13.2096 11.1527 13.3042 11.2475 13.4132 11.3197C13.5222 11.3919 13.6434 11.4401 13.7698 11.4616ZM23.6172 26.0817V22.9519H2.30469V26.0817H23.6172Z" fill="#3793AE"/>
</svg>
