<svg width="29" height="26" viewBox="0 0 29 26" fill="none" xmlns="http://www.w3.org/2000/svg">
<path fill-rule="evenodd" clip-rule="evenodd" d="M25.4749 0.6135C25.8124 0.462201 26.1819 0.410019 26.5449 0.462385C26.9078 0.514751 27.2509 0.66975 27.5385 0.911251C27.8261 1.15275 28.0477 1.47192 28.1801 1.83555C28.3126 2.19917 28.3511 2.59395 28.2916 2.9788L25.1935 22.9908C24.8929 24.9211 22.904 26.0281 21.2415 25.0666C19.8509 24.2622 17.7855 23.0228 15.9277 21.7296C14.9988 21.0822 12.1534 19.0093 12.5031 17.5343C12.8036 16.2731 17.5847 11.5337 20.3167 8.71604C21.3891 7.60903 20.9 6.97043 19.6337 7.9887C16.4891 10.5169 11.4403 14.3616 9.771 15.4439C8.29842 16.3982 7.53071 16.5611 6.61274 16.3982C4.93799 16.1014 3.38482 15.6418 2.11714 15.0817C0.404143 14.3253 0.48747 11.8174 2.11578 11.0872L25.4749 0.6135Z" fill=""/>
<path fill-rule="evenodd" clip-rule="evenodd" d="M25.4749 0.6135C25.8124 0.462201 26.1819 0.410019 26.5449 0.462385C26.9078 0.514751 27.2509 0.66975 27.5385 0.911251C27.8261 1.15275 28.0477 1.47192 28.1801 1.83555C28.3126 2.19917 28.3511 2.59395 28.2916 2.9788L25.1935 22.9908C24.8929 24.9211 22.904 26.0281 21.2415 25.0666C19.8509 24.2622 17.7855 23.0228 15.9277 21.7296C14.9988 21.0822 12.1534 19.0093 12.5031 17.5343C12.8036 16.2731 17.5847 11.5337 20.3167 8.71604C21.3891 7.60903 20.9 6.97043 19.6337 7.9887C16.4891 10.5169 11.4403 14.3616 9.771 15.4439C8.29842 16.3982 7.53071 16.5611 6.61274 16.3982C4.93799 16.1014 3.38482 15.6418 2.11714 15.0817C0.404143 14.3253 0.48747 11.8174 2.11578 11.0872L25.4749 0.6135Z" fill="#3793AE"/>
</svg>
