<svg width="30" height="22" viewBox="0 0 30 22" fill="none" xmlns="http://www.w3.org/2000/svg">
<path d="M26.25 5.56774L14.9167 12.2653L3.58333 5.56774V2.88873L14.9167 9.58626L26.25 2.88873M26.25 0.209717H3.58333C2.01083 0.209717 0.75 1.40188 0.75 2.88873V18.9628C0.75 19.6733 1.04851 20.3547 1.57986 20.8572C2.11122 21.3596 2.83189 21.6418 3.58333 21.6418H26.25C27.0014 21.6418 27.7221 21.3596 28.2535 20.8572C28.7848 20.3547 29.0833 19.6733 29.0833 18.9628V2.88873C29.0833 2.17821 28.7848 1.49679 28.2535 0.994381C27.7221 0.491969 27.0014 0.209717 26.25 0.209717Z" fill="black"/>
<path d="M26.25 5.56774L14.9167 12.2653L3.58333 5.56774V2.88873L14.9167 9.58626L26.25 2.88873M26.25 0.209717H3.58333C2.01083 0.209717 0.75 1.40188 0.75 2.88873V18.9628C0.75 19.6733 1.04851 20.3547 1.57986 20.8572C2.11122 21.3596 2.83189 21.6418 3.58333 21.6418H26.25C27.0014 21.6418 27.7221 21.3596 28.2535 20.8572C28.7848 20.3547 29.0833 19.6733 29.0833 18.9628V2.88873C29.0833 2.17821 28.7848 1.49679 28.2535 0.994381C27.7221 0.491969 27.0014 0.209717 26.25 0.209717Z" fill="#3793AE"/>
</svg>
