<svg width="27" height="30" viewBox="0 0 27 30" fill="none" xmlns="http://www.w3.org/2000/svg">
<path d="M6.58333 4.08325H3.91667C3.20942 4.08325 2.53115 4.38176 2.03105 4.91312C1.53095 5.44447 1.25 6.16514 1.25 6.91659V23.9166C1.25 24.668 1.53095 25.3887 2.03105 25.9201C2.53115 26.4514 3.20942 26.7499 3.91667 26.7499H11.5127M19.9167 16.8333V22.4999H25.25M19.9167 12.5833V6.91659C19.9167 6.16514 19.6357 5.44447 19.1356 4.91312C18.6355 4.38176 17.9572 4.08325 17.25 4.08325H14.5833" stroke="black" stroke-width="2" stroke-linecap="round" stroke-linejoin="round"/>
<path d="M6.58333 4.08325H3.91667C3.20942 4.08325 2.53115 4.38176 2.03105 4.91312C1.53095 5.44447 1.25 6.16514 1.25 6.91659V23.9166C1.25 24.668 1.53095 25.3887 2.03105 25.9201C2.53115 26.4514 3.20942 26.7499 3.91667 26.7499H11.5127M19.9167 16.8333V22.4999H25.25M19.9167 12.5833V6.91659C19.9167 6.16514 19.6357 5.44447 19.1356 4.91312C18.6355 4.38176 17.9572 4.08325 17.25 4.08325H14.5833" stroke="#3793AE" stroke-width="2" stroke-linecap="round" stroke-linejoin="round"/>
<path d="M6.58203 12.5833H11.9154M6.58203 18.25H10.582M6.58203 4.08333C6.58203 3.33189 6.86298 2.61122 7.36308 2.07986C7.86318 1.54851 8.54145 1.25 9.2487 1.25H11.9154C12.6226 1.25 13.3009 1.54851 13.801 2.07986C14.3011 2.61122 14.582 3.33189 14.582 4.08333C14.582 4.83478 14.3011 5.55545 13.801 6.0868C13.3009 6.61816 12.6226 6.91667 11.9154 6.91667H9.2487C8.54145 6.91667 7.86318 6.61816 7.36308 6.0868C6.86298 5.55545 6.58203 4.83478 6.58203 4.08333ZM14.582 22.5C14.582 24.0029 15.1439 25.4442 16.1441 26.5069C17.1443 27.5696 18.5009 28.1667 19.9154 28.1667C21.3299 28.1667 22.6864 27.5696 23.6866 26.5069C24.6868 25.4442 25.2487 24.0029 25.2487 22.5C25.2487 20.9971 24.6868 19.5558 23.6866 18.4931C22.6864 17.4304 21.3299 16.8333 19.9154 16.8333C18.5009 16.8333 17.1443 17.4304 16.1441 18.4931C15.1439 19.5558 14.582 20.9971 14.582 22.5Z" stroke="black" stroke-width="2" stroke-linecap="round" stroke-linejoin="round"/>
<path d="M6.58203 12.5833H11.9154M6.58203 18.25H10.582M6.58203 4.08333C6.58203 3.33189 6.86298 2.61122 7.36308 2.07986C7.86318 1.54851 8.54145 1.25 9.2487 1.25H11.9154C12.6226 1.25 13.3009 1.54851 13.801 2.07986C14.3011 2.61122 14.582 3.33189 14.582 4.08333C14.582 4.83478 14.3011 5.55545 13.801 6.0868C13.3009 6.61816 12.6226 6.91667 11.9154 6.91667H9.2487C8.54145 6.91667 7.86318 6.61816 7.36308 6.0868C6.86298 5.55545 6.58203 4.83478 6.58203 4.08333ZM14.582 22.5C14.582 24.0029 15.1439 25.4442 16.1441 26.5069C17.1443 27.5696 18.5009 28.1667 19.9154 28.1667C21.3299 28.1667 22.6864 27.5696 23.6866 26.5069C24.6868 25.4442 25.2487 24.0029 25.2487 22.5C25.2487 20.9971 24.6868 19.5558 23.6866 18.4931C22.6864 17.4304 21.3299 16.8333 19.9154 16.8333C18.5009 16.8333 17.1443 17.4304 16.1441 18.4931C15.1439 19.5558 14.582 20.9971 14.582 22.5Z" stroke="#3793AE" stroke-width="2" stroke-linecap="round" stroke-linejoin="round"/>
</svg>
