<svg width="28" height="30" viewBox="0 0 28 30" fill="none" xmlns="http://www.w3.org/2000/svg">
<path d="M2.58936 25.087C2.22884 25.0503 1.50781 24.7358 1.50781 23.7577C1.50781 22.7688 2.35728 22.3358 2.78088 22.3164C4.86736 22.3164 5.32026 20.8384 5.36983 20.0176V12.7593C5.36983 8.0519 9.57885 5.85438 11.6067 5.34594C11.6067 3.5276 13.1344 2.98253 14.0019 2.92651H14.1191C14.9866 2.98253 16.5143 3.5276 16.5143 5.34594C18.5422 5.85438 22.7512 8.0519 22.7512 12.7593V20.0176C22.8007 20.8492 23.2536 22.3164 25.3401 22.3164C25.6999 22.3663 26.0281 22.5405 26.2626 22.8061C26.4972 23.0716 26.6219 23.4102 26.6132 23.7577C26.6132 24.7358 25.8899 25.0503 25.5316 25.087H2.58936ZM14.0582 29.7039C11.6563 29.7039 9.71404 28.0407 9.71404 26.0091H18.407C18.407 28.0407 16.4647 29.7039 14.0582 29.7039Z" fill=""/>
<path d="M2.58936 25.087C2.22884 25.0503 1.50781 24.7358 1.50781 23.7577C1.50781 22.7688 2.35728 22.3358 2.78088 22.3164C4.86736 22.3164 5.32026 20.8384 5.36983 20.0176V12.7593C5.36983 8.0519 9.57885 5.85438 11.6067 5.34594C11.6067 3.5276 13.1344 2.98253 14.0019 2.92651H14.1191C14.9866 2.98253 16.5143 3.5276 16.5143 5.34594C18.5422 5.85438 22.7512 8.0519 22.7512 12.7593V20.0176C22.8007 20.8492 23.2536 22.3164 25.3401 22.3164C25.6999 22.3663 26.0281 22.5405 26.2626 22.8061C26.4972 23.0716 26.6219 23.4102 26.6132 23.7577C26.6132 24.7358 25.8899 25.0503 25.5316 25.087H2.58936ZM14.0582 29.7039C11.6563 29.7039 9.71404 28.0407 9.71404 26.0091H18.407C18.407 28.0407 16.4647 29.7039 14.0582 29.7039Z" fill="#3793AE"/>
<path d="M2.58996 25.087H25.53C25.8883 25.0503 26.6115 24.7358 26.6115 23.7577C26.6233 23.4095 26.4996 23.0694 26.2645 22.8032C26.0294 22.5371 25.6995 22.3636 25.3385 22.3164C23.252 22.3164 22.7991 20.8384 22.7495 20.0176V12.7593C22.7495 8.0519 18.5405 5.85438 16.5126 5.34594C16.5126 3.5276 14.9849 2.98253 14.1174 2.92651H14.0003C13.1305 2.98253 11.6051 3.5276 11.6051 5.34594C9.57719 5.85438 5.36818 8.0519 5.36818 12.7593V20.0176C5.30736 20.7051 4.97286 21.3441 4.43368 21.8027C3.89451 22.2614 3.1918 22.5046 2.47054 22.4823C2.04468 22.5016 1.50391 22.7688 1.50391 23.7577C1.50391 24.7358 2.22944 25.0503 2.58545 25.087M7.47494 3.38756C7.48566 3.41737 7.48986 3.44897 7.4873 3.4804C7.48474 3.51183 7.47547 3.54242 7.46005 3.57028C7.44464 3.59815 7.42341 3.62269 7.39768 3.6424C7.37194 3.66211 7.34226 3.67657 7.31045 3.68487C3.35155 4.82026 2.69586 8.02389 2.86034 9.48028C2.8636 9.5107 2.86056 9.54143 2.85139 9.57072C2.84223 9.60001 2.82712 9.62729 2.80693 9.65099C2.78673 9.6747 2.76186 9.69437 2.73372 9.70889C2.70557 9.7234 2.67472 9.73247 2.64291 9.73558C2.6111 9.7387 2.57896 9.73579 2.54833 9.72702C2.5177 9.71826 2.48917 9.70381 2.46437 9.68451C2.43958 9.6652 2.41901 9.64142 2.40383 9.61451C2.38865 9.5876 2.37916 9.5581 2.3759 9.52768C2.27074 8.10667 2.69494 6.69591 3.57336 5.54528C4.45178 4.39465 5.72774 3.57839 7.17526 3.24106C7.20573 3.23188 7.23782 3.22869 7.26961 3.23169C7.3014 3.23468 7.33223 3.24381 7.36023 3.2585C7.38823 3.2732 7.41283 3.29316 7.43255 3.3172C7.45226 3.34123 7.46668 3.36883 7.47494 3.39833V3.38756Z" fill="#3793AE"/>
<path d="M2.58996 25.087H25.53C25.8883 25.0503 26.6115 24.7358 26.6115 23.7577C26.6233 23.4095 26.4996 23.0694 26.2645 22.8032C26.0294 22.5371 25.6995 22.3636 25.3385 22.3164C23.252 22.3164 22.7991 20.8384 22.7495 20.0176V12.7593C22.7495 8.0519 18.5405 5.85438 16.5126 5.34594C16.5126 3.5276 14.9849 2.98253 14.1174 2.92651H14.0003C13.1305 2.98253 11.6051 3.5276 11.6051 5.34594C9.57719 5.85438 5.36818 8.0519 5.36818 12.7593V20.0176C5.30736 20.7051 4.97286 21.3441 4.43368 21.8027C3.89451 22.2614 3.1918 22.5046 2.47054 22.4823C2.04468 22.5016 1.50391 22.7688 1.50391 23.7577C1.50391 24.7358 2.22944 25.0503 2.58545 25.087M7.47494 3.38756C7.48566 3.41737 7.48986 3.44897 7.4873 3.4804C7.48474 3.51183 7.47547 3.54242 7.46005 3.57028C7.44464 3.59815 7.42341 3.62269 7.39768 3.6424C7.37194 3.66211 7.34226 3.67657 7.31045 3.68487C3.35155 4.82026 2.69586 8.02389 2.86034 9.48028C2.8636 9.5107 2.86056 9.54143 2.85139 9.57072C2.84223 9.60001 2.82712 9.62729 2.80693 9.65099C2.78673 9.6747 2.76186 9.69437 2.73372 9.70889C2.70557 9.7234 2.67472 9.73247 2.64291 9.73558C2.6111 9.7387 2.57896 9.73579 2.54833 9.72702C2.5177 9.71826 2.48917 9.70381 2.46437 9.68451C2.43958 9.6652 2.41901 9.64142 2.40383 9.61451C2.38865 9.5876 2.37916 9.5581 2.3759 9.52768C2.27074 8.10667 2.69494 6.69591 3.57336 5.54528C4.45178 4.39465 5.72774 3.57839 7.17526 3.24106C7.20573 3.23188 7.23782 3.22869 7.26961 3.23169C7.3014 3.23468 7.33223 3.24381 7.36023 3.2585C7.38823 3.2732 7.41283 3.29316 7.43255 3.3172C7.45226 3.34123 7.46668 3.36883 7.47494 3.39833V3.38756Z" fill="#3793AE"/>
<path d="M7.25369 1.01552C7.2691 1.07319 7.26059 1.13432 7.22993 1.18612C7.19927 1.23792 7.14885 1.27638 7.08921 1.29344C1.49672 2.90926 0.579657 7.43356 0.811739 9.48027C0.8182 9.51199 0.817679 9.54465 0.81021 9.57617C0.802741 9.60768 0.788486 9.63737 0.768356 9.66333C0.748226 9.68929 0.722661 9.71095 0.69329 9.72694C0.663919 9.74293 0.631385 9.7529 0.597764 9.7562C0.564143 9.75951 0.530171 9.75608 0.498012 9.74614C0.465853 9.73619 0.436212 9.71996 0.410979 9.69845C0.385745 9.67695 0.365473 9.65066 0.351454 9.62126C0.337434 9.59185 0.329975 9.55998 0.329551 9.52766C0.088456 7.34092 1.07311 2.54732 6.95401 0.858246C7.01553 0.842662 7.08096 0.850301 7.13675 0.879579C7.19254 0.908857 7.23441 0.957531 7.25369 1.01552ZM20.6468 3.38754C20.6371 3.41739 20.6336 3.44878 20.6366 3.47991C20.6396 3.51105 20.6491 3.5413 20.6643 3.56894C20.6796 3.59657 20.7005 3.62104 20.7257 3.64094C20.7509 3.66083 20.78 3.67576 20.8113 3.68486C24.7702 4.82024 25.4259 8.02387 25.2614 9.48027C25.2582 9.51068 25.2612 9.54141 25.2704 9.5707C25.2795 9.59999 25.2946 9.62727 25.3148 9.65098C25.335 9.67468 25.3599 9.69435 25.3881 9.70887C25.4162 9.72338 25.447 9.73245 25.4789 9.73557C25.5107 9.73868 25.5428 9.73577 25.5734 9.72701C25.6041 9.71824 25.6326 9.7038 25.6574 9.68449C25.6822 9.66518 25.7028 9.6414 25.7179 9.61449C25.7331 9.58758 25.7426 9.55808 25.7459 9.52766C25.851 8.10665 25.4268 6.6959 24.5484 5.54526C23.67 4.39463 22.394 3.57837 20.9465 3.24104C20.916 3.23247 20.8841 3.22975 20.8525 3.23302C20.8209 3.23629 20.7903 3.2455 20.7625 3.26012C20.7346 3.27473 20.7101 3.29446 20.6902 3.31818C20.6704 3.3419 20.6556 3.36913 20.6468 3.39832V3.38754Z" fill=""/>
<path d="M7.25369 1.01552C7.2691 1.07319 7.26059 1.13432 7.22993 1.18612C7.19927 1.23792 7.14885 1.27638 7.08921 1.29344C1.49672 2.90926 0.579657 7.43356 0.811739 9.48027C0.8182 9.51199 0.817679 9.54465 0.81021 9.57617C0.802741 9.60768 0.788486 9.63737 0.768356 9.66333C0.748226 9.68929 0.722661 9.71095 0.69329 9.72694C0.663919 9.74293 0.631385 9.7529 0.597764 9.7562C0.564143 9.75951 0.530171 9.75608 0.498012 9.74614C0.465853 9.73619 0.436212 9.71996 0.410979 9.69845C0.385745 9.67695 0.365473 9.65066 0.351454 9.62126C0.337434 9.59185 0.329975 9.55998 0.329551 9.52766C0.088456 7.34092 1.07311 2.54732 6.95401 0.858246C7.01553 0.842662 7.08096 0.850301 7.13675 0.879579C7.19254 0.908857 7.23441 0.957531 7.25369 1.01552ZM20.6468 3.38754C20.6371 3.41739 20.6336 3.44878 20.6366 3.47991C20.6396 3.51105 20.6491 3.5413 20.6643 3.56894C20.6796 3.59657 20.7005 3.62104 20.7257 3.64094C20.7509 3.66083 20.78 3.67576 20.8113 3.68486C24.7702 4.82024 25.4259 8.02387 25.2614 9.48027C25.2582 9.51068 25.2612 9.54141 25.2704 9.5707C25.2795 9.59999 25.2946 9.62727 25.3148 9.65098C25.335 9.67468 25.3599 9.69435 25.3881 9.70887C25.4162 9.72338 25.447 9.73245 25.4789 9.73557C25.5107 9.73868 25.5428 9.73577 25.5734 9.72701C25.6041 9.71824 25.6326 9.7038 25.6574 9.68449C25.6822 9.66518 25.7028 9.6414 25.7179 9.61449C25.7331 9.58758 25.7426 9.55808 25.7459 9.52766C25.851 8.10665 25.4268 6.6959 24.5484 5.54526C23.67 4.39463 22.394 3.57837 20.9465 3.24104C20.916 3.23247 20.8841 3.22975 20.8525 3.23302C20.8209 3.23629 20.7903 3.2455 20.7625 3.26012C20.7346 3.27473 20.7101 3.29446 20.6902 3.31818C20.6704 3.3419 20.6556 3.36913 20.6468 3.39832V3.38754Z" fill="#3793AE"/>
<path d="M20.8708 1.01552C20.8609 1.04407 20.8574 1.07429 20.8604 1.10423C20.8635 1.13417 20.8731 1.16317 20.8886 1.18935C20.9041 1.21553 20.9251 1.23831 20.9504 1.25624C20.9757 1.27417 21.0046 1.28684 21.0353 1.29344C26.6278 2.90926 27.5448 7.43356 27.3127 9.48026C27.3062 9.5414 27.3253 9.60253 27.3658 9.65021C27.4064 9.69789 27.4651 9.7282 27.5291 9.73449C27.593 9.74077 27.6569 9.72251 27.7068 9.68372C27.7567 9.64494 27.7884 9.5888 27.7949 9.52766C28.036 7.34092 27.0514 2.54731 21.1705 0.858244C21.14 0.849673 21.1081 0.846946 21.0765 0.850219C21.0449 0.853492 21.0143 0.862701 20.9864 0.877316C20.9586 0.891931 20.934 0.911664 20.9142 0.935381C20.8943 0.959098 20.8796 0.986332 20.8708 1.01552Z" fill=""/>
<path d="M20.8708 1.01552C20.8609 1.04407 20.8574 1.07429 20.8604 1.10423C20.8635 1.13417 20.8731 1.16317 20.8886 1.18935C20.9041 1.21553 20.9251 1.23831 20.9504 1.25624C20.9757 1.27417 21.0046 1.28684 21.0353 1.29344C26.6278 2.90926 27.5448 7.43356 27.3127 9.48026C27.3062 9.5414 27.3253 9.60253 27.3658 9.65021C27.4064 9.69789 27.4651 9.7282 27.5291 9.73449C27.593 9.74077 27.6569 9.72251 27.7068 9.68372C27.7567 9.64494 27.7884 9.5888 27.7949 9.52766C28.036 7.34092 27.0514 2.54731 21.1705 0.858244C21.14 0.849673 21.1081 0.846946 21.0765 0.850219C21.0449 0.853492 21.0143 0.862701 20.9864 0.877316C20.9586 0.891931 20.934 0.911664 20.9142 0.935381C20.8943 0.959098 20.8796 0.986332 20.8708 1.01552Z" fill="#3793AE"/>
</svg>
