<svg width="201" height="517" viewBox="0 0 201 517" fill="none" xmlns="http://www.w3.org/2000/svg">
<g opacity="0.42">
<g opacity="0.25" filter="url(#filter0_d_4121_10348)">
<ellipse cx="69.0796" cy="131" rx="41.0796" ry="35" fill="white"/>
</g>
<g opacity="0.73" filter="url(#filter1_d_4121_10348)">
<ellipse cx="69.505" cy="130.933" rx="28.3097" ry="23.5988" fill="white"/>
</g>
<g opacity="0.41" filter="url(#filter2_d_4121_10348)">
<ellipse cx="69.2722" cy="131.032" rx="18.7566" ry="15.8631" fill="white"/>
</g>
</g>
<path d="M79.9841 142.42V123.783C79.9841 117.934 75.5329 113.06 69.1053 113.06C62.6778 113.06 58.2266 117.934 58.2266 123.783V142.42C58.2266 143.433 59.0379 144.254 60.0397 144.254H78.171C79.1727 144.254 79.9841 143.434 79.9841 142.42Z" stroke="#3793AE" stroke-width="2" stroke-linecap="round"/>
<path d="M79.9841 142.42V123.783C79.9841 117.934 75.5329 113.06 69.1053 113.06C62.6778 113.06 58.2266 117.934 58.2266 123.783V142.42C58.2266 143.433 59.0379 144.254 60.0397 144.254H78.171C79.1727 144.254 79.9841 143.434 79.9841 142.42Z" stroke="white" stroke-width="2" stroke-linecap="round"/>
<path d="M79.9841 142.42V123.783C79.9841 117.934 75.5329 113.06 69.1053 113.06C62.6778 113.06 58.2266 117.934 58.2266 123.783V142.42C58.2266 143.433 59.0379 144.254 60.0397 144.254H78.171C79.1727 144.254 79.9841 143.434 79.9841 142.42Z" stroke="url(#paint0_linear_4121_10348)" stroke-width="2" stroke-linecap="round"/>
<path d="M69.1067 128.656C71.1094 128.656 72.733 127.013 72.733 124.986C72.733 122.96 71.1094 121.316 69.1067 121.316C67.104 121.316 65.4805 122.96 65.4805 124.986C65.4805 127.013 67.104 128.656 69.1067 128.656Z" stroke="#3793AE" stroke-width="2" stroke-linecap="round"/>
<path d="M69.1067 128.656C71.1094 128.656 72.733 127.013 72.733 124.986C72.733 122.96 71.1094 121.316 69.1067 121.316C67.104 121.316 65.4805 122.96 65.4805 124.986C65.4805 127.013 67.104 128.656 69.1067 128.656Z" stroke="white" stroke-width="2" stroke-linecap="round"/>
<path d="M69.1067 128.656C71.1094 128.656 72.733 127.013 72.733 124.986C72.733 122.96 71.1094 121.316 69.1067 121.316C67.104 121.316 65.4805 122.96 65.4805 124.986C65.4805 127.013 67.104 128.656 69.1067 128.656Z" stroke="url(#paint1_linear_4121_10348)" stroke-width="2" stroke-linecap="round"/>
<path d="M63.6659 135.08H65.4791H63.6659ZM70.9185 138.75H74.5447H70.9185ZM58.2266 122.235V107.555V122.235Z" fill="white"/>
<path d="M63.6659 135.08H65.4791H63.6659ZM70.9185 138.75H74.5447H70.9185ZM58.2266 122.235V107.555V122.235Z" fill="url(#paint2_linear_4121_10348)"/>
<path d="M63.6659 135.08H65.4791M70.9185 138.75H74.5447M58.2266 122.235V107.555" stroke="#3793AE" stroke-width="2" stroke-linecap="round"/>
<path d="M63.6659 135.08H65.4791M70.9185 138.75H74.5447M58.2266 122.235V107.555" stroke="white" stroke-width="2" stroke-linecap="round"/>
<path d="M63.6659 135.08H65.4791M70.9185 138.75H74.5447M58.2266 122.235V107.555" stroke="url(#paint3_linear_4121_10348)" stroke-width="2" stroke-linecap="round"/>
<path d="M68 226.667C69.4728 226.667 70.6667 225.473 70.6667 224C70.6667 222.527 69.4728 221.333 68 221.333C66.5272 221.333 65.3333 222.527 65.3333 224C65.3333 225.473 66.5272 226.667 68 226.667ZM68.5 224L68.5 219L67.5 219L67.5 224L68.5 224ZM68.5 209L68.5 199L67.5 199L67.5 209L68.5 209ZM68.5 189L68.5 179L67.5 179L67.5 189L68.5 189ZM68.5 169L68.5 164L67.5 164L67.5 169L68.5 169Z" fill="url(#paint4_linear_4121_10348)"/>
<path d="M68 226.667C69.4728 226.667 70.6667 225.473 70.6667 224C70.6667 222.527 69.4728 221.333 68 221.333C66.5272 221.333 65.3333 222.527 65.3333 224C65.3333 225.473 66.5272 226.667 68 226.667ZM68.5 224L68.5 219L67.5 219L67.5 224L68.5 224ZM68.5 209L68.5 199L67.5 199L67.5 209L68.5 209ZM68.5 189L68.5 179L67.5 179L67.5 189L68.5 189ZM68.5 169L68.5 164L67.5 164L67.5 169L68.5 169Z" fill="white" fill-opacity="0.15"/>
<path d="M69 352.667C70.4728 352.667 71.6667 351.473 71.6667 350C71.6667 348.527 70.4728 347.333 69 347.333C67.5272 347.333 66.3333 348.527 66.3333 350C66.3333 351.473 67.5272 352.667 69 352.667ZM69.5 350L69.5 344.333L68.5 344.333L68.5 350L69.5 350ZM69.5 333L69.5 321.667L68.5 321.667L68.5 333L69.5 333ZM69.5 310.333L69.5 299L68.5 299L68.5 310.333L69.5 310.333ZM69.5 287.667L69.5 282L68.5 282L68.5 287.667L69.5 287.667Z" fill="url(#paint5_linear_4121_10348)"/>
<path d="M69 352.667C70.4728 352.667 71.6667 351.473 71.6667 350C71.6667 348.527 70.4728 347.333 69 347.333C67.5272 347.333 66.3333 348.527 66.3333 350C66.3333 351.473 67.5272 352.667 69 352.667ZM69.5 350L69.5 344.333L68.5 344.333L68.5 350L69.5 350ZM69.5 333L69.5 321.667L68.5 321.667L68.5 333L69.5 333ZM69.5 310.333L69.5 299L68.5 299L68.5 310.333L69.5 310.333ZM69.5 287.667L69.5 282L68.5 282L68.5 287.667L69.5 287.667Z" fill="white" fill-opacity="0.15"/>
<path d="M69 474.667C70.4728 474.667 71.6667 473.473 71.6667 472C71.6667 470.527 70.4728 469.333 69 469.333C67.5272 469.333 66.3333 470.527 66.3333 472C66.3333 473.473 67.5272 474.667 69 474.667ZM69.5 472L69.5 467.75L68.5 467.75L68.5 472L69.5 472ZM69.5 459.25L69.5 450.75L68.5 450.75L68.5 459.25L69.5 459.25ZM69.5 442.25L69.5 433.75L68.5 433.75L68.5 442.25L69.5 442.25ZM69.5 425.25L69.5 421L68.5 421L68.5 425.25L69.5 425.25Z" fill="url(#paint6_linear_4121_10348)"/>
<path d="M69 474.667C70.4728 474.667 71.6667 473.473 71.6667 472C71.6667 470.527 70.4728 469.333 69 469.333C67.5272 469.333 66.3333 470.527 66.3333 472C66.3333 473.473 67.5272 474.667 69 474.667ZM69.5 472L69.5 467.75L68.5 467.75L68.5 472L69.5 472ZM69.5 459.25L69.5 450.75L68.5 450.75L68.5 459.25L69.5 459.25ZM69.5 442.25L69.5 433.75L68.5 433.75L68.5 442.25L69.5 442.25ZM69.5 425.25L69.5 421L68.5 421L68.5 425.25L69.5 425.25Z" fill="white" fill-opacity="0.15"/>
<path d="M57.1678 241.055C57.0286 241.114 55.9707 242.467 55.6366 243.007C54.5973 244.724 54.0962 246.46 54.022 248.638C53.9756 249.854 53.9941 250.207 54.1612 251.07C54.5509 253.071 55.3119 254.719 56.4904 256.181C56.9915 256.789 57.1585 256.936 57.4091 256.956C57.5761 256.976 57.771 256.936 57.8452 256.868C58.0308 256.711 58.0123 256.132 57.8081 255.926C57.5204 255.622 56.8152 254.69 56.5646 254.268C55.7944 252.993 55.3304 251.561 55.1912 250.03C54.9407 247.176 55.7758 244.439 57.5112 242.428C57.8452 242.036 57.9751 241.81 57.9751 241.604C57.9751 241.143 57.5761 240.878 57.1678 241.055Z" fill="white"/>
<path d="M57.1678 241.055C57.0286 241.114 55.9707 242.467 55.6366 243.007C54.5973 244.724 54.0962 246.46 54.022 248.638C53.9756 249.854 53.9941 250.207 54.1612 251.07C54.5509 253.071 55.3119 254.719 56.4904 256.181C56.9915 256.789 57.1585 256.936 57.4091 256.956C57.5761 256.976 57.771 256.936 57.8452 256.868C58.0308 256.711 58.0123 256.132 57.8081 255.926C57.5204 255.622 56.8152 254.69 56.5646 254.268C55.7944 252.993 55.3304 251.561 55.1912 250.03C54.9407 247.176 55.7758 244.439 57.5112 242.428C57.8452 242.036 57.9751 241.81 57.9751 241.604C57.9751 241.143 57.5761 240.878 57.1678 241.055Z" fill="url(#paint7_linear_4121_10348)"/>
<path d="M70.9761 241.243C70.8648 241.39 70.7812 241.557 70.7812 241.626C70.7812 241.695 71.0318 242.057 71.3288 242.44C72.099 243.411 72.4145 243.921 72.8414 244.873C73.426 246.187 73.6673 247.364 73.6673 248.895C73.6765 250.278 73.6394 250.562 73.361 251.68C73.0084 253.064 72.2939 254.427 71.2916 255.614C71.0132 255.948 70.7812 256.291 70.7812 256.379C70.7812 256.703 71.0596 256.978 71.3844 256.978C71.6443 256.978 71.7649 256.889 72.1732 256.409C74.3354 253.848 75.2819 250.327 74.6788 247.041C74.2612 244.775 73.4631 243.087 72.0897 241.547C71.5236 240.92 71.2731 240.851 70.9761 241.243Z" fill="white"/>
<path d="M70.9761 241.243C70.8648 241.39 70.7812 241.557 70.7812 241.626C70.7812 241.695 71.0318 242.057 71.3288 242.44C72.099 243.411 72.4145 243.921 72.8414 244.873C73.426 246.187 73.6673 247.364 73.6673 248.895C73.6765 250.278 73.6394 250.562 73.361 251.68C73.0084 253.064 72.2939 254.427 71.2916 255.614C71.0132 255.948 70.7812 256.291 70.7812 256.379C70.7812 256.703 71.0596 256.978 71.3844 256.978C71.6443 256.978 71.7649 256.889 72.1732 256.409C74.3354 253.848 75.2819 250.327 74.6788 247.041C74.2612 244.775 73.4631 243.087 72.0897 241.547C71.5236 240.92 71.2731 240.851 70.9761 241.243Z" fill="url(#paint8_linear_4121_10348)"/>
<path d="M59.1169 243.048C58.7736 243.195 57.892 244.431 57.4651 245.353C56.0268 248.453 56.5279 252.121 58.7272 254.593C59.2376 255.172 59.7387 255.133 59.8779 254.515C59.9243 254.309 59.85 254.152 59.4603 253.661C58.8014 252.818 58.3838 252.053 58.0962 251.14C57.8734 250.444 57.8456 250.199 57.8456 248.982C57.8456 247.717 57.8642 247.55 58.1147 246.824C58.4302 245.902 58.8942 245.029 59.3675 244.47C59.7294 244.058 59.9243 243.724 59.9243 243.538C59.9243 243.411 59.5067 242.95 59.3953 242.959C59.3582 242.959 59.2283 242.999 59.1169 243.048Z" fill="white"/>
<path d="M59.1169 243.048C58.7736 243.195 57.892 244.431 57.4651 245.353C56.0268 248.453 56.5279 252.121 58.7272 254.593C59.2376 255.172 59.7387 255.133 59.8779 254.515C59.9243 254.309 59.85 254.152 59.4603 253.661C58.8014 252.818 58.3838 252.053 58.0962 251.14C57.8734 250.444 57.8456 250.199 57.8456 248.982C57.8456 247.717 57.8642 247.55 58.1147 246.824C58.4302 245.902 58.8942 245.029 59.3675 244.47C59.7294 244.058 59.9243 243.724 59.9243 243.538C59.9243 243.411 59.5067 242.95 59.3953 242.959C59.3582 242.959 59.2283 242.999 59.1169 243.048Z" fill="url(#paint9_linear_4121_10348)"/>
<path d="M69.1763 243.155C69.0371 243.263 68.9258 243.45 68.9258 243.577C68.9258 243.695 69.1485 244.077 69.4269 244.43C70.0579 245.235 70.5219 246.118 70.8003 247.069C71.088 248.04 71.0972 249.826 70.8281 250.797C70.5126 251.944 70.095 252.768 69.3712 253.661C68.8887 254.269 68.8237 254.515 69.1114 254.819C69.4362 255.162 69.696 255.074 70.2435 254.436C72.1366 252.219 72.7026 248.855 71.654 245.971C71.2457 244.823 70.0858 243.145 69.6125 243.008C69.4918 242.969 69.3248 243.018 69.1763 243.155Z" fill="white"/>
<path d="M69.1763 243.155C69.0371 243.263 68.9258 243.45 68.9258 243.577C68.9258 243.695 69.1485 244.077 69.4269 244.43C70.0579 245.235 70.5219 246.118 70.8003 247.069C71.088 248.04 71.0972 249.826 70.8281 250.797C70.5126 251.944 70.095 252.768 69.3712 253.661C68.8887 254.269 68.8237 254.515 69.1114 254.819C69.4362 255.162 69.696 255.074 70.2435 254.436C72.1366 252.219 72.7026 248.855 71.654 245.971C71.2457 244.823 70.0858 243.145 69.6125 243.008C69.4918 242.969 69.3248 243.018 69.1763 243.155Z" fill="url(#paint10_linear_4121_10348)"/>
<path d="M60.5391 245.511C59.9359 246.217 59.5647 247.07 59.3884 248.169C59.2492 249.022 59.2492 249.16 59.3977 249.925C59.574 250.876 60.038 251.926 60.5577 252.554C60.8453 252.907 60.9753 252.985 61.2258 252.985C61.8012 252.985 61.9589 252.397 61.5228 251.857C60.7247 250.867 60.4463 250.052 60.502 248.777C60.5298 248.012 60.5762 247.786 60.8361 247.237C61.0031 246.884 61.2815 246.403 61.4578 246.187C61.8197 245.736 61.8476 245.55 61.6341 245.226C61.3836 244.844 61.0217 244.942 60.5391 245.511Z" fill="white"/>
<path d="M60.5391 245.511C59.9359 246.217 59.5647 247.07 59.3884 248.169C59.2492 249.022 59.2492 249.16 59.3977 249.925C59.574 250.876 60.038 251.926 60.5577 252.554C60.8453 252.907 60.9753 252.985 61.2258 252.985C61.8012 252.985 61.9589 252.397 61.5228 251.857C60.7247 250.867 60.4463 250.052 60.502 248.777C60.5298 248.012 60.5762 247.786 60.8361 247.237C61.0031 246.884 61.2815 246.403 61.4578 246.187C61.8197 245.736 61.8476 245.55 61.6341 245.226C61.3836 244.844 61.0217 244.942 60.5391 245.511Z" fill="url(#paint11_linear_4121_10348)"/>
<path d="M67.2281 245.187C66.9868 245.462 67.0425 245.785 67.3765 246.227C68.0911 247.178 68.3695 247.943 68.3695 248.983C68.3695 250.033 67.9148 251.279 67.3116 251.867C66.8662 252.309 67.061 252.985 67.6271 252.985C68.0169 252.985 68.4994 252.426 68.9634 251.435C69.3995 250.513 69.5109 249.886 69.4645 248.699C69.3995 247.306 69.0098 246.305 68.1932 245.373C67.8313 244.961 67.4786 244.893 67.2281 245.187Z" fill="white"/>
<path d="M67.2281 245.187C66.9868 245.462 67.0425 245.785 67.3765 246.227C68.0911 247.178 68.3695 247.943 68.3695 248.983C68.3695 250.033 67.9148 251.279 67.3116 251.867C66.8662 252.309 67.061 252.985 67.6271 252.985C68.0169 252.985 68.4994 252.426 68.9634 251.435C69.3995 250.513 69.5109 249.886 69.4645 248.699C69.3995 247.306 69.0098 246.305 68.1932 245.373C67.8313 244.961 67.4786 244.893 67.2281 245.187Z" fill="url(#paint12_linear_4121_10348)"/>
<path d="M64.0458 248.423C63.7396 248.629 63.7303 248.914 63.7303 255.251V261.578L61.698 261.607C59.4616 261.637 59.4245 261.646 58.9605 262.313C58.7749 262.568 58.7656 262.706 58.7656 265.953C58.7656 269.2 58.7749 269.337 58.9605 269.592C59.0626 269.739 59.2667 269.955 59.4059 270.063C59.6565 270.269 59.7029 270.269 72.2306 270.298C86.3358 270.328 85.1944 270.377 85.7326 269.602L86.0017 269.209V265.953V262.696L85.7233 262.294C85.5749 262.068 85.3522 261.833 85.2408 261.764C85.0738 261.666 83.0044 261.627 75.0516 261.587L65.0759 261.538L65.048 255.123C65.0295 249.316 65.0109 248.688 64.8717 248.521C64.7232 248.345 64.2407 248.286 64.0458 248.423ZM84.7397 262.922C84.8696 263.049 84.8882 263.461 84.8882 265.923C84.8882 268.444 84.8696 268.807 84.7304 268.964C84.5912 269.131 84.0808 269.141 72.379 269.141C61.1505 269.141 60.1576 269.131 59.9998 268.974C59.8421 268.827 59.8328 268.601 59.8328 265.943C59.8328 263.461 59.8514 263.049 59.9813 262.922C60.1112 262.784 61.364 262.765 72.3605 262.765C83.357 262.765 84.6098 262.784 84.7397 262.922Z" fill="white"/>
<path d="M64.0458 248.423C63.7396 248.629 63.7303 248.914 63.7303 255.251V261.578L61.698 261.607C59.4616 261.637 59.4245 261.646 58.9605 262.313C58.7749 262.568 58.7656 262.706 58.7656 265.953C58.7656 269.2 58.7749 269.337 58.9605 269.592C59.0626 269.739 59.2667 269.955 59.4059 270.063C59.6565 270.269 59.7029 270.269 72.2306 270.298C86.3358 270.328 85.1944 270.377 85.7326 269.602L86.0017 269.209V265.953V262.696L85.7233 262.294C85.5749 262.068 85.3522 261.833 85.2408 261.764C85.0738 261.666 83.0044 261.627 75.0516 261.587L65.0759 261.538L65.048 255.123C65.0295 249.316 65.0109 248.688 64.8717 248.521C64.7232 248.345 64.2407 248.286 64.0458 248.423ZM84.7397 262.922C84.8696 263.049 84.8882 263.461 84.8882 265.923C84.8882 268.444 84.8696 268.807 84.7304 268.964C84.5912 269.131 84.0808 269.141 72.379 269.141C61.1505 269.141 60.1576 269.131 59.9998 268.974C59.8421 268.827 59.8328 268.601 59.8328 265.943C59.8328 263.461 59.8514 263.049 59.9813 262.922C60.1112 262.784 61.364 262.765 72.3605 262.765C83.357 262.765 84.6098 262.784 84.7397 262.922Z" fill="url(#paint13_linear_4121_10348)"/>
<g opacity="0.42">
<g opacity="0.25" filter="url(#filter3_d_4121_10348)">
<ellipse cx="67.8155" cy="390.489" rx="28.8155" ry="30.4889" fill="white"/>
</g>
<g opacity="0.73" filter="url(#filter4_d_4121_10348)">
<ellipse cx="68.1158" cy="390.43" rx="19.858" ry="20.5571" fill="white"/>
</g>
<g opacity="0.41" filter="url(#filter5_d_4121_10348)">
<ellipse cx="67.9499" cy="390.518" rx="13.1569" ry="13.8185" fill="white"/>
</g>
</g>
<path d="M63.0045 376.076C59.7345 378.134 57.0329 379.843 57.0002 379.875C56.9447 379.928 56.9414 380.386 56.9414 391.424V402.917L57.0133 403.044C57.2681 403.506 57.7646 404.148 58.3069 404.722C59.8292 406.325 62.2401 407.812 64.1936 408.351C64.8895 408.542 64.9123 408.546 65.7356 408.546H66.5196L71.0996 405.666C73.615 404.084 76.2578 402.424 76.9667 401.977C77.6756 401.53 78.2996 401.122 78.3486 401.065C78.4008 401.012 78.4531 400.906 78.4694 400.828C78.5119 400.643 78.5119 378.495 78.4694 378.311C78.4531 378.233 78.4139 378.134 78.3812 378.084C78.3486 378.038 76.2938 376.725 73.8143 375.165L69.3094 372.331L69.1265 372.334C68.9468 372.334 68.9011 372.362 63.0045 376.076ZM73.1773 376.027C75.3889 377.417 77.1954 378.563 77.1954 378.573C77.1954 378.584 74.6996 380.162 71.6517 382.081L66.1047 385.568L65.7944 385.547C63.2953 385.37 59.6724 383.188 58.0031 380.854L57.8202 380.599L57.9606 380.51C60.3192 379.02 69.1167 373.501 69.1363 373.501C69.1493 373.501 70.9689 374.636 73.1773 376.027ZM77.4665 400.391C77.4339 400.423 66.5457 407.269 66.4902 407.294C66.4575 407.308 66.4477 405.166 66.4477 396.66L66.451 386.004L71.962 382.539L77.4731 379.077L77.4829 389.722C77.4861 395.578 77.4796 400.377 77.4665 400.391ZM58.9831 382.762C60.4434 384.089 62.2695 385.182 63.9323 385.721C64.5955 385.933 64.9156 386.001 65.7878 386.114L65.925 386.132V396.858V407.588L65.7715 407.567C65.0855 407.482 64.5595 407.354 63.8833 407.109C61.5149 406.255 59.0877 404.421 57.9737 402.647L57.8234 402.406V393.833V385.26L58.3723 385.845C59.0093 386.529 59.5973 387.054 60.3062 387.562C61.5966 388.494 62.9425 389.147 64.4256 389.569C65.0169 389.736 65.0855 389.739 65.19 389.622C65.3435 389.459 65.2684 389.211 65.0528 389.158C63.1581 388.7 61.2307 387.707 59.7508 386.43C59.3425 386.075 58.712 385.444 58.4278 385.1C58.1664 384.784 58.0586 384.713 57.9182 384.77L57.8234 384.809V383.177V381.546L58.2579 382.021C58.4931 382.284 58.8231 382.617 58.9831 382.762Z" fill="black"/>
<path d="M63.0045 376.076C59.7345 378.134 57.0329 379.843 57.0002 379.875C56.9447 379.928 56.9414 380.386 56.9414 391.424V402.917L57.0133 403.044C57.2681 403.506 57.7646 404.148 58.3069 404.722C59.8292 406.325 62.2401 407.812 64.1936 408.351C64.8895 408.542 64.9123 408.546 65.7356 408.546H66.5196L71.0996 405.666C73.615 404.084 76.2578 402.424 76.9667 401.977C77.6756 401.53 78.2996 401.122 78.3486 401.065C78.4008 401.012 78.4531 400.906 78.4694 400.828C78.5119 400.643 78.5119 378.495 78.4694 378.311C78.4531 378.233 78.4139 378.134 78.3812 378.084C78.3486 378.038 76.2938 376.725 73.8143 375.165L69.3094 372.331L69.1265 372.334C68.9468 372.334 68.9011 372.362 63.0045 376.076ZM73.1773 376.027C75.3889 377.417 77.1954 378.563 77.1954 378.573C77.1954 378.584 74.6996 380.162 71.6517 382.081L66.1047 385.568L65.7944 385.547C63.2953 385.37 59.6724 383.188 58.0031 380.854L57.8202 380.599L57.9606 380.51C60.3192 379.02 69.1167 373.501 69.1363 373.501C69.1493 373.501 70.9689 374.636 73.1773 376.027ZM77.4665 400.391C77.4339 400.423 66.5457 407.269 66.4902 407.294C66.4575 407.308 66.4477 405.166 66.4477 396.66L66.451 386.004L71.962 382.539L77.4731 379.077L77.4829 389.722C77.4861 395.578 77.4796 400.377 77.4665 400.391ZM58.9831 382.762C60.4434 384.089 62.2695 385.182 63.9323 385.721C64.5955 385.933 64.9156 386.001 65.7878 386.114L65.925 386.132V396.858V407.588L65.7715 407.567C65.0855 407.482 64.5595 407.354 63.8833 407.109C61.5149 406.255 59.0877 404.421 57.9737 402.647L57.8234 402.406V393.833V385.26L58.3723 385.845C59.0093 386.529 59.5973 387.054 60.3062 387.562C61.5966 388.494 62.9425 389.147 64.4256 389.569C65.0169 389.736 65.0855 389.739 65.19 389.622C65.3435 389.459 65.2684 389.211 65.0528 389.158C63.1581 388.7 61.2307 387.707 59.7508 386.43C59.3425 386.075 58.712 385.444 58.4278 385.1C58.1664 384.784 58.0586 384.713 57.9182 384.77L57.8234 384.809V383.177V381.546L58.2579 382.021C58.4931 382.284 58.8231 382.617 58.9831 382.762Z" fill="white"/>
<path d="M63.0045 376.076C59.7345 378.134 57.0329 379.843 57.0002 379.875C56.9447 379.928 56.9414 380.386 56.9414 391.424V402.917L57.0133 403.044C57.2681 403.506 57.7646 404.148 58.3069 404.722C59.8292 406.325 62.2401 407.812 64.1936 408.351C64.8895 408.542 64.9123 408.546 65.7356 408.546H66.5196L71.0996 405.666C73.615 404.084 76.2578 402.424 76.9667 401.977C77.6756 401.53 78.2996 401.122 78.3486 401.065C78.4008 401.012 78.4531 400.906 78.4694 400.828C78.5119 400.643 78.5119 378.495 78.4694 378.311C78.4531 378.233 78.4139 378.134 78.3812 378.084C78.3486 378.038 76.2938 376.725 73.8143 375.165L69.3094 372.331L69.1265 372.334C68.9468 372.334 68.9011 372.362 63.0045 376.076ZM73.1773 376.027C75.3889 377.417 77.1954 378.563 77.1954 378.573C77.1954 378.584 74.6996 380.162 71.6517 382.081L66.1047 385.568L65.7944 385.547C63.2953 385.37 59.6724 383.188 58.0031 380.854L57.8202 380.599L57.9606 380.51C60.3192 379.02 69.1167 373.501 69.1363 373.501C69.1493 373.501 70.9689 374.636 73.1773 376.027ZM77.4665 400.391C77.4339 400.423 66.5457 407.269 66.4902 407.294C66.4575 407.308 66.4477 405.166 66.4477 396.66L66.451 386.004L71.962 382.539L77.4731 379.077L77.4829 389.722C77.4861 395.578 77.4796 400.377 77.4665 400.391ZM58.9831 382.762C60.4434 384.089 62.2695 385.182 63.9323 385.721C64.5955 385.933 64.9156 386.001 65.7878 386.114L65.925 386.132V396.858V407.588L65.7715 407.567C65.0855 407.482 64.5595 407.354 63.8833 407.109C61.5149 406.255 59.0877 404.421 57.9737 402.647L57.8234 402.406V393.833V385.26L58.3723 385.845C59.0093 386.529 59.5973 387.054 60.3062 387.562C61.5966 388.494 62.9425 389.147 64.4256 389.569C65.0169 389.736 65.0855 389.739 65.19 389.622C65.3435 389.459 65.2684 389.211 65.0528 389.158C63.1581 388.7 61.2307 387.707 59.7508 386.43C59.3425 386.075 58.712 385.444 58.4278 385.1C58.1664 384.784 58.0586 384.713 57.9182 384.77L57.8234 384.809V383.177V381.546L58.2579 382.021C58.4931 382.284 58.8231 382.617 58.9831 382.762Z" fill="url(#paint14_linear_4121_10348)"/>
<path d="M57.9625 387.487C57.9168 387.54 57.8906 387.615 57.8906 387.696C57.8906 387.806 57.9298 387.866 58.2434 388.221C59.9324 390.151 62.2028 391.58 64.6496 392.247C64.8979 392.314 65.1331 392.371 65.1723 392.371C65.2768 392.371 65.4042 392.215 65.4042 392.094C65.4042 391.899 65.3291 391.85 64.7835 391.701C62.8431 391.169 60.9679 390.115 59.4913 388.728C59.3019 388.551 58.9458 388.182 58.6943 387.905C58.299 387.469 58.2304 387.405 58.1389 387.405C58.0703 387.405 58.0082 387.434 57.9625 387.487Z" fill="black"/>
<path d="M57.9625 387.487C57.9168 387.54 57.8906 387.615 57.8906 387.696C57.8906 387.806 57.9298 387.866 58.2434 388.221C59.9324 390.151 62.2028 391.58 64.6496 392.247C64.8979 392.314 65.1331 392.371 65.1723 392.371C65.2768 392.371 65.4042 392.215 65.4042 392.094C65.4042 391.899 65.3291 391.85 64.7835 391.701C62.8431 391.169 60.9679 390.115 59.4913 388.728C59.3019 388.551 58.9458 388.182 58.6943 387.905C58.299 387.469 58.2304 387.405 58.1389 387.405C58.0703 387.405 58.0082 387.434 57.9625 387.487Z" fill="white"/>
<path d="M57.9625 387.487C57.9168 387.54 57.8906 387.615 57.8906 387.696C57.8906 387.806 57.9298 387.866 58.2434 388.221C59.9324 390.151 62.2028 391.58 64.6496 392.247C64.8979 392.314 65.1331 392.371 65.1723 392.371C65.2768 392.371 65.4042 392.215 65.4042 392.094C65.4042 391.899 65.3291 391.85 64.7835 391.701C62.8431 391.169 60.9679 390.115 59.4913 388.728C59.3019 388.551 58.9458 388.182 58.6943 387.905C58.299 387.469 58.2304 387.405 58.1389 387.405C58.0703 387.405 58.0082 387.434 57.9625 387.487Z" fill="url(#paint15_linear_4121_10348)"/>
<path d="M59.124 395.177C58.5196 395.28 58.0917 396.017 58.206 396.755C58.2844 397.241 58.5262 397.606 58.8921 397.787C59.0489 397.865 59.1044 397.876 59.3396 397.862C59.6499 397.844 59.8166 397.766 60.0256 397.536C60.6202 396.894 60.4634 395.656 59.7414 395.283C59.516 395.166 59.3527 395.138 59.124 395.177ZM59.4997 395.691C59.993 395.961 60.1008 396.734 59.7055 397.177C59.4572 397.457 59.1697 397.472 58.9051 397.209C58.7157 397.028 58.6307 396.78 58.647 396.471C58.6601 396.188 58.7255 396.021 58.879 395.847C59.0652 395.638 59.2971 395.581 59.4997 395.691Z" fill="black"/>
<path d="M59.124 395.177C58.5196 395.28 58.0917 396.017 58.206 396.755C58.2844 397.241 58.5262 397.606 58.8921 397.787C59.0489 397.865 59.1044 397.876 59.3396 397.862C59.6499 397.844 59.8166 397.766 60.0256 397.536C60.6202 396.894 60.4634 395.656 59.7414 395.283C59.516 395.166 59.3527 395.138 59.124 395.177ZM59.4997 395.691C59.993 395.961 60.1008 396.734 59.7055 397.177C59.4572 397.457 59.1697 397.472 58.9051 397.209C58.7157 397.028 58.6307 396.78 58.647 396.471C58.6601 396.188 58.7255 396.021 58.879 395.847C59.0652 395.638 59.2971 395.581 59.4997 395.691Z" fill="white"/>
<path d="M59.124 395.177C58.5196 395.28 58.0917 396.017 58.206 396.755C58.2844 397.241 58.5262 397.606 58.8921 397.787C59.0489 397.865 59.1044 397.876 59.3396 397.862C59.6499 397.844 59.8166 397.766 60.0256 397.536C60.6202 396.894 60.4634 395.656 59.7414 395.283C59.516 395.166 59.3527 395.138 59.124 395.177ZM59.4997 395.691C59.993 395.961 60.1008 396.734 59.7055 397.177C59.4572 397.457 59.1697 397.472 58.9051 397.209C58.7157 397.028 58.6307 396.78 58.647 396.471C58.6601 396.188 58.7255 396.021 58.879 395.847C59.0652 395.638 59.2971 395.581 59.4997 395.691Z" fill="url(#paint16_linear_4121_10348)"/>
<path d="M58.9614 398.686C58.6935 398.775 58.3963 399.101 58.2787 399.438C58.2166 399.619 58.2003 399.725 58.2035 399.981C58.2068 400.378 58.2885 400.63 58.5008 400.885C58.7295 401.162 58.8928 401.25 59.2162 401.268C59.4514 401.282 59.507 401.272 59.6638 401.194C59.9022 401.077 60.095 400.86 60.2191 400.573C60.3171 400.353 60.3237 400.307 60.3237 399.963C60.3237 399.619 60.3171 399.573 60.2191 399.353C60.0198 398.895 59.6899 398.65 59.2783 398.654C59.1542 398.654 59.0104 398.668 58.9614 398.686ZM59.4514 399.165C59.618 399.243 59.716 399.349 59.8042 399.555C60.01 400.027 59.8108 400.633 59.4057 400.779C59.0594 400.903 58.687 400.548 58.6511 400.059C58.6217 399.661 58.7654 399.335 59.0365 399.19C59.2064 399.097 59.2881 399.094 59.4514 399.165Z" fill="black"/>
<path d="M58.9614 398.686C58.6935 398.775 58.3963 399.101 58.2787 399.438C58.2166 399.619 58.2003 399.725 58.2035 399.981C58.2068 400.378 58.2885 400.63 58.5008 400.885C58.7295 401.162 58.8928 401.25 59.2162 401.268C59.4514 401.282 59.507 401.272 59.6638 401.194C59.9022 401.077 60.095 400.86 60.2191 400.573C60.3171 400.353 60.3237 400.307 60.3237 399.963C60.3237 399.619 60.3171 399.573 60.2191 399.353C60.0198 398.895 59.6899 398.65 59.2783 398.654C59.1542 398.654 59.0104 398.668 58.9614 398.686ZM59.4514 399.165C59.618 399.243 59.716 399.349 59.8042 399.555C60.01 400.027 59.8108 400.633 59.4057 400.779C59.0594 400.903 58.687 400.548 58.6511 400.059C58.6217 399.661 58.7654 399.335 59.0365 399.19C59.2064 399.097 59.2881 399.094 59.4514 399.165Z" fill="white"/>
<path d="M58.9614 398.686C58.6935 398.775 58.3963 399.101 58.2787 399.438C58.2166 399.619 58.2003 399.725 58.2035 399.981C58.2068 400.378 58.2885 400.63 58.5008 400.885C58.7295 401.162 58.8928 401.25 59.2162 401.268C59.4514 401.282 59.507 401.272 59.6638 401.194C59.9022 401.077 60.095 400.86 60.2191 400.573C60.3171 400.353 60.3237 400.307 60.3237 399.963C60.3237 399.619 60.3171 399.573 60.2191 399.353C60.0198 398.895 59.6899 398.65 59.2783 398.654C59.1542 398.654 59.0104 398.668 58.9614 398.686ZM59.4514 399.165C59.618 399.243 59.716 399.349 59.8042 399.555C60.01 400.027 59.8108 400.633 59.4057 400.779C59.0594 400.903 58.687 400.548 58.6511 400.059C58.6217 399.661 58.7654 399.335 59.0365 399.19C59.2064 399.097 59.2881 399.094 59.4514 399.165Z" fill="url(#paint17_linear_4121_10348)"/>
<path d="M85.6667 510C87.4083 510 88.8333 508.2 88.8333 506V486C88.8333 483.8 87.4083 482 85.6667 482H60.3333C58.5917 482 57.1667 483.8 57.1667 486V506C57.1667 508.2 58.5917 510 60.3333 510H54V514H92V510H85.6667ZM60.3333 486H85.6667V506H60.3333V486Z" fill="url(#paint18_linear_4121_10348)"/>
<defs>
<filter id="filter0_d_4121_10348" x="-73.9" y="0.0999985" width="273.96" height="261.8" filterUnits="userSpaceOnUse" color-interpolation-filters="sRGB">
<feFlood flood-opacity="0" result="BackgroundImageFix"/>
<feColorMatrix in="SourceAlpha" type="matrix" values="0 0 0 0 0 0 0 0 0 0 0 0 0 0 0 0 0 0 127 0" result="hardAlpha"/>
<feOffset dx="-6"/>
<feGaussianBlur stdDeviation="47.95"/>
<feComposite in2="hardAlpha" operator="out"/>
<feColorMatrix type="matrix" values="0 0 0 0 0.192157 0 0 0 0 0.466667 0 0 0 0 0.882353 0 0 0 0.39 0"/>
<feBlend mode="normal" in2="BackgroundImageFix" result="effect1_dropShadow_4121_10348"/>
<feBlend mode="normal" in="SourceGraphic" in2="effect1_dropShadow_4121_10348" result="shape"/>
</filter>
<filter id="filter1_d_4121_10348" x="-60.7047" y="11.434" width="248.421" height="238.997" filterUnits="userSpaceOnUse" color-interpolation-filters="sRGB">
<feFlood flood-opacity="0" result="BackgroundImageFix"/>
<feColorMatrix in="SourceAlpha" type="matrix" values="0 0 0 0 0 0 0 0 0 0 0 0 0 0 0 0 0 0 127 0" result="hardAlpha"/>
<feOffset dx="-6"/>
<feGaussianBlur stdDeviation="47.95"/>
<feComposite in2="hardAlpha" operator="out"/>
<feColorMatrix type="matrix" values="0 0 0 0 0.192157 0 0 0 0 0.466667 0 0 0 0 0.882353 0 0 0 0.2 0"/>
<feBlend mode="normal" in2="BackgroundImageFix" result="effect1_dropShadow_4121_10348"/>
<feBlend mode="normal" in="SourceGraphic" in2="effect1_dropShadow_4121_10348" result="shape"/>
</filter>
<filter id="filter2_d_4121_10348" x="-9.18438" y="55.4689" width="156.912" height="151.127" filterUnits="userSpaceOnUse" color-interpolation-filters="sRGB">
<feFlood flood-opacity="0" result="BackgroundImageFix"/>
<feColorMatrix in="SourceAlpha" type="matrix" values="0 0 0 0 0 0 0 0 0 0 0 0 0 0 0 0 0 0 127 0" result="hardAlpha"/>
<feOffset/>
<feGaussianBlur stdDeviation="29.85"/>
<feComposite in2="hardAlpha" operator="out"/>
<feColorMatrix type="matrix" values="0 0 0 0 0.192157 0 0 0 0 0.466667 0 0 0 0 0.882353 0 0 0 0.47 0"/>
<feBlend mode="normal" in2="BackgroundImageFix" result="effect1_dropShadow_4121_10348"/>
<feBlend mode="normal" in="SourceGraphic" in2="effect1_dropShadow_4121_10348" result="shape"/>
</filter>
<filter id="filter3_d_4121_10348" x="-62.9" y="264.1" width="249.433" height="252.778" filterUnits="userSpaceOnUse" color-interpolation-filters="sRGB">
<feFlood flood-opacity="0" result="BackgroundImageFix"/>
<feColorMatrix in="SourceAlpha" type="matrix" values="0 0 0 0 0 0 0 0 0 0 0 0 0 0 0 0 0 0 127 0" result="hardAlpha"/>
<feOffset dx="-6"/>
<feGaussianBlur stdDeviation="47.95"/>
<feComposite in2="hardAlpha" operator="out"/>
<feColorMatrix type="matrix" values="0 0 0 0 0.192157 0 0 0 0 0.466667 0 0 0 0 0.882353 0 0 0 0.39 0"/>
<feBlend mode="normal" in2="BackgroundImageFix" result="effect1_dropShadow_4121_10348"/>
<feBlend mode="normal" in="SourceGraphic" in2="effect1_dropShadow_4121_10348" result="shape"/>
</filter>
<filter id="filter4_d_4121_10348" x="-53.6422" y="273.973" width="231.515" height="232.914" filterUnits="userSpaceOnUse" color-interpolation-filters="sRGB">
<feFlood flood-opacity="0" result="BackgroundImageFix"/>
<feColorMatrix in="SourceAlpha" type="matrix" values="0 0 0 0 0 0 0 0 0 0 0 0 0 0 0 0 0 0 127 0" result="hardAlpha"/>
<feOffset dx="-6"/>
<feGaussianBlur stdDeviation="47.95"/>
<feComposite in2="hardAlpha" operator="out"/>
<feColorMatrix type="matrix" values="0 0 0 0 0.192157 0 0 0 0 0.466667 0 0 0 0 0.882353 0 0 0 0.2 0"/>
<feBlend mode="normal" in2="BackgroundImageFix" result="effect1_dropShadow_4121_10348"/>
<feBlend mode="normal" in="SourceGraphic" in2="effect1_dropShadow_4121_10348" result="shape"/>
</filter>
<filter id="filter5_d_4121_10348" x="-4.90703" y="316.999" width="145.713" height="147.037" filterUnits="userSpaceOnUse" color-interpolation-filters="sRGB">
<feFlood flood-opacity="0" result="BackgroundImageFix"/>
<feColorMatrix in="SourceAlpha" type="matrix" values="0 0 0 0 0 0 0 0 0 0 0 0 0 0 0 0 0 0 127 0" result="hardAlpha"/>
<feOffset/>
<feGaussianBlur stdDeviation="29.85"/>
<feComposite in2="hardAlpha" operator="out"/>
<feColorMatrix type="matrix" values="0 0 0 0 0.192157 0 0 0 0 0.466667 0 0 0 0 0.882353 0 0 0 0.47 0"/>
<feBlend mode="normal" in2="BackgroundImageFix" result="effect1_dropShadow_4121_10348"/>
<feBlend mode="normal" in="SourceGraphic" in2="effect1_dropShadow_4121_10348" result="shape"/>
</filter>
<linearGradient id="paint0_linear_4121_10348" x1="58.3794" y1="128.657" x2="79.9841" y2="128.657" gradientUnits="userSpaceOnUse">
<stop stop-color="#3793AE"/>
<stop offset="1" stop-color="#074287"/>
</linearGradient>
<linearGradient id="paint1_linear_4121_10348" x1="65.5314" y1="124.986" x2="72.733" y2="124.986" gradientUnits="userSpaceOnUse">
<stop stop-color="#3793AE"/>
<stop offset="1" stop-color="#074287"/>
</linearGradient>
<linearGradient id="paint2_linear_4121_10348" x1="58.3412" y1="123.152" x2="74.5447" y2="123.152" gradientUnits="userSpaceOnUse">
<stop stop-color="#3793AE"/>
<stop offset="1" stop-color="#074287"/>
</linearGradient>
<linearGradient id="paint3_linear_4121_10348" x1="58.3412" y1="123.152" x2="74.5447" y2="123.152" gradientUnits="userSpaceOnUse">
<stop stop-color="#3793AE"/>
<stop offset="1" stop-color="#074287"/>
</linearGradient>
<linearGradient id="paint4_linear_4121_10348" x1="68.5" y1="223.578" x2="68.5" y2="164" gradientUnits="userSpaceOnUse">
<stop stop-color="#3793AE"/>
<stop offset="1" stop-color="#074287"/>
</linearGradient>
<linearGradient id="paint5_linear_4121_10348" x1="69.5" y1="349.522" x2="69.5" y2="282" gradientUnits="userSpaceOnUse">
<stop stop-color="#3793AE"/>
<stop offset="1" stop-color="#074287"/>
</linearGradient>
<linearGradient id="paint6_linear_4121_10348" x1="69.5" y1="471.642" x2="69.5" y2="421" gradientUnits="userSpaceOnUse">
<stop stop-color="#3793AE"/>
<stop offset="1" stop-color="#074287"/>
</linearGradient>
<linearGradient id="paint7_linear_4121_10348" x1="54.0279" y1="248.98" x2="57.9751" y2="248.98" gradientUnits="userSpaceOnUse">
<stop stop-color="#3793AE"/>
<stop offset="1" stop-color="#074287"/>
</linearGradient>
<linearGradient id="paint8_linear_4121_10348" x1="70.8099" y1="248.989" x2="74.8574" y2="248.989" gradientUnits="userSpaceOnUse">
<stop stop-color="#3793AE"/>
<stop offset="1" stop-color="#074287"/>
</linearGradient>
<linearGradient id="paint9_linear_4121_10348" x1="56.6753" y1="248.982" x2="59.9243" y2="248.982" gradientUnits="userSpaceOnUse">
<stop stop-color="#3793AE"/>
<stop offset="1" stop-color="#074287"/>
</linearGradient>
<linearGradient id="paint10_linear_4121_10348" x1="68.9486" y1="249.006" x2="72.1751" y2="249.006" gradientUnits="userSpaceOnUse">
<stop stop-color="#3793AE"/>
<stop offset="1" stop-color="#074287"/>
</linearGradient>
<linearGradient id="paint11_linear_4121_10348" x1="59.3026" y1="248.991" x2="61.7725" y2="248.991" gradientUnits="userSpaceOnUse">
<stop stop-color="#3793AE"/>
<stop offset="1" stop-color="#074287"/>
</linearGradient>
<linearGradient id="paint12_linear_4121_10348" x1="67.0833" y1="248.996" x2="69.4743" y2="248.996" gradientUnits="userSpaceOnUse">
<stop stop-color="#3793AE"/>
<stop offset="1" stop-color="#074287"/>
</linearGradient>
<linearGradient id="paint13_linear_4121_10348" x1="58.957" y1="259.329" x2="86.0017" y2="259.329" gradientUnits="userSpaceOnUse">
<stop stop-color="#3793AE"/>
<stop offset="1" stop-color="#074287"/>
</linearGradient>
<linearGradient id="paint14_linear_4121_10348" x1="57.0929" y1="390.438" x2="78.5013" y2="390.438" gradientUnits="userSpaceOnUse">
<stop stop-color="#3793AE"/>
<stop offset="1" stop-color="#074287"/>
</linearGradient>
<linearGradient id="paint15_linear_4121_10348" x1="57.9434" y1="389.888" x2="65.4042" y2="389.888" gradientUnits="userSpaceOnUse">
<stop stop-color="#3793AE"/>
<stop offset="1" stop-color="#074287"/>
</linearGradient>
<linearGradient id="paint16_linear_4121_10348" x1="58.203" y1="396.514" x2="60.391" y2="396.514" gradientUnits="userSpaceOnUse">
<stop stop-color="#3793AE"/>
<stop offset="1" stop-color="#074287"/>
</linearGradient>
<linearGradient id="paint17_linear_4121_10348" x1="58.218" y1="399.964" x2="60.3237" y2="399.964" gradientUnits="userSpaceOnUse">
<stop stop-color="#3793AE"/>
<stop offset="1" stop-color="#074287"/>
</linearGradient>
<linearGradient id="paint18_linear_4121_10348" x1="54.267" y1="498" x2="92" y2="498" gradientUnits="userSpaceOnUse">
<stop stop-color="#3793AE"/>
<stop offset="1" stop-color="#074287"/>
</linearGradient>
</defs>
</svg>
