<svg width="200" height="513" viewBox="0 0 200 513" fill="none" xmlns="http://www.w3.org/2000/svg">
<g opacity="0.42">
<g opacity="0.25" filter="url(#filter0_d_4001_7106)">
<ellipse cx="68.0796" cy="131" rx="41.0796" ry="35" fill="white"/>
</g>
<g opacity="0.73" filter="url(#filter1_d_4001_7106)">
<ellipse cx="68.505" cy="130.933" rx="28.3097" ry="23.5988" fill="white"/>
</g>
<g opacity="0.41" filter="url(#filter2_d_4001_7106)">
<ellipse cx="68.2722" cy="131.032" rx="18.7566" ry="15.8631" fill="white"/>
</g>
</g>
<path d="M78.9841 142.42V123.783C78.9841 117.934 74.5329 113.06 68.1053 113.06C61.6778 113.06 57.2266 117.934 57.2266 123.783V142.42C57.2266 143.433 58.0379 144.254 59.0397 144.254H77.171C78.1727 144.254 78.9841 143.434 78.9841 142.42Z" stroke="#3793AE" stroke-width="2" stroke-linecap="round"/>
<path d="M78.9841 142.42V123.783C78.9841 117.934 74.5329 113.06 68.1053 113.06C61.6778 113.06 57.2266 117.934 57.2266 123.783V142.42C57.2266 143.433 58.0379 144.254 59.0397 144.254H77.171C78.1727 144.254 78.9841 143.434 78.9841 142.42Z" stroke="white" stroke-width="2" stroke-linecap="round"/>
<path d="M78.9841 142.42V123.783C78.9841 117.934 74.5329 113.06 68.1053 113.06C61.6778 113.06 57.2266 117.934 57.2266 123.783V142.42C57.2266 143.433 58.0379 144.254 59.0397 144.254H77.171C78.1727 144.254 78.9841 143.434 78.9841 142.42Z" stroke="url(#paint0_linear_4001_7106)" stroke-width="2" stroke-linecap="round"/>
<path d="M68.1067 128.656C70.1094 128.656 71.733 127.013 71.733 124.986C71.733 122.96 70.1094 121.316 68.1067 121.316C66.104 121.316 64.4805 122.96 64.4805 124.986C64.4805 127.013 66.104 128.656 68.1067 128.656Z" stroke="#3793AE" stroke-width="2" stroke-linecap="round"/>
<path d="M68.1067 128.656C70.1094 128.656 71.733 127.013 71.733 124.986C71.733 122.96 70.1094 121.316 68.1067 121.316C66.104 121.316 64.4805 122.96 64.4805 124.986C64.4805 127.013 66.104 128.656 68.1067 128.656Z" stroke="white" stroke-width="2" stroke-linecap="round"/>
<path d="M68.1067 128.656C70.1094 128.656 71.733 127.013 71.733 124.986C71.733 122.96 70.1094 121.316 68.1067 121.316C66.104 121.316 64.4805 122.96 64.4805 124.986C64.4805 127.013 66.104 128.656 68.1067 128.656Z" stroke="url(#paint1_linear_4001_7106)" stroke-width="2" stroke-linecap="round"/>
<path d="M62.6659 135.08H64.4791H62.6659ZM69.9185 138.75H73.5447H69.9185ZM57.2266 122.235V107.555V122.235Z" fill="white"/>
<path d="M62.6659 135.08H64.4791H62.6659ZM69.9185 138.75H73.5447H69.9185ZM57.2266 122.235V107.555V122.235Z" fill="url(#paint2_linear_4001_7106)"/>
<path d="M62.6659 135.08H64.4791M69.9185 138.75H73.5447M57.2266 122.235V107.555" stroke="#3793AE" stroke-width="2" stroke-linecap="round"/>
<path d="M62.6659 135.08H64.4791M69.9185 138.75H73.5447M57.2266 122.235V107.555" stroke="white" stroke-width="2" stroke-linecap="round"/>
<path d="M62.6659 135.08H64.4791M69.9185 138.75H73.5447M57.2266 122.235V107.555" stroke="url(#paint3_linear_4001_7106)" stroke-width="2" stroke-linecap="round"/>
<path d="M68 228.667C69.4728 228.667 70.6667 227.473 70.6667 226C70.6667 224.527 69.4728 223.333 68 223.333C66.5272 223.333 65.3333 224.527 65.3333 226C65.3333 227.473 66.5272 228.667 68 228.667ZM68.5 226L68.5 221L67.5 221L67.5 226L68.5 226ZM68.5 211L68.5 201L67.5 201L67.5 211L68.5 211ZM68.5 191L68.5 181L67.5 181L67.5 191L68.5 191ZM68.5 171L68.5 166L67.5 166L67.5 171L68.5 171Z" fill="url(#paint4_linear_4001_7106)"/>
<path d="M68 228.667C69.4728 228.667 70.6667 227.473 70.6667 226C70.6667 224.527 69.4728 223.333 68 223.333C66.5272 223.333 65.3333 224.527 65.3333 226C65.3333 227.473 66.5272 228.667 68 228.667ZM68.5 226L68.5 221L67.5 221L67.5 226L68.5 226ZM68.5 211L68.5 201L67.5 201L67.5 211L68.5 211ZM68.5 191L68.5 181L67.5 181L67.5 191L68.5 191ZM68.5 171L68.5 166L67.5 166L67.5 171L68.5 171Z" fill="white" fill-opacity="0.15"/>
<path d="M68 351.667C69.4728 351.667 70.6667 350.473 70.6667 349C70.6667 347.527 69.4728 346.333 68 346.333C66.5272 346.333 65.3333 347.527 65.3333 349C65.3333 350.473 66.5272 351.667 68 351.667ZM68.5 349L68.5 343.333L67.5 343.333L67.5 349L68.5 349ZM68.5 332L68.5 320.667L67.5 320.667L67.5 332L68.5 332ZM68.5 309.333L68.5 298L67.5 298L67.5 309.333L68.5 309.333ZM68.5 286.667L68.5 281L67.5 281L67.5 286.667L68.5 286.667Z" fill="url(#paint5_linear_4001_7106)"/>
<path d="M68 351.667C69.4728 351.667 70.6667 350.473 70.6667 349C70.6667 347.527 69.4728 346.333 68 346.333C66.5272 346.333 65.3333 347.527 65.3333 349C65.3333 350.473 66.5272 351.667 68 351.667ZM68.5 349L68.5 343.333L67.5 343.333L67.5 349L68.5 349ZM68.5 332L68.5 320.667L67.5 320.667L67.5 332L68.5 332ZM68.5 309.333L68.5 298L67.5 298L67.5 309.333L68.5 309.333ZM68.5 286.667L68.5 281L67.5 281L67.5 286.667L68.5 286.667Z" fill="white" fill-opacity="0.15"/>
<path d="M68 473.667C69.4728 473.667 70.6667 472.473 70.6667 471C70.6667 469.527 69.4728 468.333 68 468.333C66.5272 468.333 65.3333 469.527 65.3333 471C65.3333 472.473 66.5272 473.667 68 473.667ZM68.5 471L68.5 466.75L67.5 466.75L67.5 471L68.5 471ZM68.5 458.25L68.5 449.75L67.5 449.75L67.5 458.25L68.5 458.25ZM68.5 441.25L68.5 432.75L67.5 432.75L67.5 441.25L68.5 441.25ZM68.5 424.25L68.5 420L67.5 420L67.5 424.25L68.5 424.25Z" fill="url(#paint6_linear_4001_7106)"/>
<path d="M68 473.667C69.4728 473.667 70.6667 472.473 70.6667 471C70.6667 469.527 69.4728 468.333 68 468.333C66.5272 468.333 65.3333 469.527 65.3333 471C65.3333 472.473 66.5272 473.667 68 473.667ZM68.5 471L68.5 466.75L67.5 466.75L67.5 471L68.5 471ZM68.5 458.25L68.5 449.75L67.5 449.75L67.5 458.25L68.5 458.25ZM68.5 441.25L68.5 432.75L67.5 432.75L67.5 441.25L68.5 441.25ZM68.5 424.25L68.5 420L67.5 420L67.5 424.25L68.5 424.25Z" fill="white" fill-opacity="0.15"/>
<path d="M55.1678 240.055C55.0286 240.114 53.9707 241.467 53.6366 242.007C52.5973 243.724 52.0962 245.46 52.022 247.638C51.9756 248.854 51.9941 249.207 52.1612 250.07C52.5509 252.071 53.3119 253.719 54.4904 255.181C54.9915 255.789 55.1585 255.936 55.4091 255.956C55.5761 255.976 55.771 255.936 55.8452 255.868C56.0308 255.711 56.0123 255.132 55.8081 254.926C55.5204 254.622 54.8152 253.69 54.5646 253.268C53.7944 251.993 53.3304 250.561 53.1912 249.03C52.9407 246.176 53.7758 243.439 55.5112 241.428C55.8452 241.036 55.9751 240.81 55.9751 240.604C55.9751 240.143 55.5761 239.878 55.1678 240.055Z" fill="white"/>
<path d="M55.1678 240.055C55.0286 240.114 53.9707 241.467 53.6366 242.007C52.5973 243.724 52.0962 245.46 52.022 247.638C51.9756 248.854 51.9941 249.207 52.1612 250.07C52.5509 252.071 53.3119 253.719 54.4904 255.181C54.9915 255.789 55.1585 255.936 55.4091 255.956C55.5761 255.976 55.771 255.936 55.8452 255.868C56.0308 255.711 56.0123 255.132 55.8081 254.926C55.5204 254.622 54.8152 253.69 54.5646 253.268C53.7944 251.993 53.3304 250.561 53.1912 249.03C52.9407 246.176 53.7758 243.439 55.5112 241.428C55.8452 241.036 55.9751 240.81 55.9751 240.604C55.9751 240.143 55.5761 239.878 55.1678 240.055Z" fill="url(#paint7_linear_4001_7106)"/>
<path d="M68.9761 240.243C68.8648 240.39 68.7812 240.557 68.7812 240.626C68.7812 240.695 69.0318 241.057 69.3288 241.44C70.099 242.411 70.4145 242.921 70.8414 243.873C71.426 245.187 71.6673 246.364 71.6673 247.895C71.6765 249.278 71.6394 249.562 71.361 250.68C71.0084 252.064 70.2939 253.427 69.2916 254.614C69.0132 254.948 68.7812 255.291 68.7812 255.379C68.7812 255.703 69.0596 255.978 69.3844 255.978C69.6443 255.978 69.7649 255.889 70.1732 255.409C72.3354 252.848 73.2819 249.327 72.6788 246.041C72.2612 243.775 71.4631 242.087 70.0897 240.547C69.5236 239.92 69.2731 239.851 68.9761 240.243Z" fill="white"/>
<path d="M68.9761 240.243C68.8648 240.39 68.7812 240.557 68.7812 240.626C68.7812 240.695 69.0318 241.057 69.3288 241.44C70.099 242.411 70.4145 242.921 70.8414 243.873C71.426 245.187 71.6673 246.364 71.6673 247.895C71.6765 249.278 71.6394 249.562 71.361 250.68C71.0084 252.064 70.2939 253.427 69.2916 254.614C69.0132 254.948 68.7812 255.291 68.7812 255.379C68.7812 255.703 69.0596 255.978 69.3844 255.978C69.6443 255.978 69.7649 255.889 70.1732 255.409C72.3354 252.848 73.2819 249.327 72.6788 246.041C72.2612 243.775 71.4631 242.087 70.0897 240.547C69.5236 239.92 69.2731 239.851 68.9761 240.243Z" fill="url(#paint8_linear_4001_7106)"/>
<path d="M57.1169 242.048C56.7736 242.195 55.892 243.431 55.4651 244.353C54.0268 247.453 54.5279 251.121 56.7272 253.593C57.2376 254.172 57.7387 254.133 57.8779 253.515C57.9243 253.309 57.85 253.152 57.4603 252.661C56.8014 251.818 56.3838 251.053 56.0962 250.14C55.8734 249.444 55.8456 249.199 55.8456 247.982C55.8456 246.717 55.8642 246.55 56.1147 245.824C56.4302 244.902 56.8942 244.029 57.3675 243.47C57.7294 243.058 57.9243 242.724 57.9243 242.538C57.9243 242.411 57.5067 241.95 57.3953 241.959C57.3582 241.959 57.2283 241.999 57.1169 242.048Z" fill="white"/>
<path d="M57.1169 242.048C56.7736 242.195 55.892 243.431 55.4651 244.353C54.0268 247.453 54.5279 251.121 56.7272 253.593C57.2376 254.172 57.7387 254.133 57.8779 253.515C57.9243 253.309 57.85 253.152 57.4603 252.661C56.8014 251.818 56.3838 251.053 56.0962 250.14C55.8734 249.444 55.8456 249.199 55.8456 247.982C55.8456 246.717 55.8642 246.55 56.1147 245.824C56.4302 244.902 56.8942 244.029 57.3675 243.47C57.7294 243.058 57.9243 242.724 57.9243 242.538C57.9243 242.411 57.5067 241.95 57.3953 241.959C57.3582 241.959 57.2283 241.999 57.1169 242.048Z" fill="url(#paint9_linear_4001_7106)"/>
<path d="M67.1763 242.155C67.0371 242.263 66.9258 242.45 66.9258 242.577C66.9258 242.695 67.1485 243.077 67.4269 243.43C68.0579 244.235 68.5219 245.118 68.8003 246.069C69.088 247.04 69.0972 248.826 68.8281 249.797C68.5126 250.944 68.095 251.768 67.3712 252.661C66.8887 253.269 66.8237 253.515 67.1114 253.819C67.4362 254.162 67.696 254.074 68.2435 253.436C70.1366 251.219 70.7026 247.855 69.654 244.971C69.2457 243.823 68.0858 242.145 67.6125 242.008C67.4918 241.969 67.3248 242.018 67.1763 242.155Z" fill="white"/>
<path d="M67.1763 242.155C67.0371 242.263 66.9258 242.45 66.9258 242.577C66.9258 242.695 67.1485 243.077 67.4269 243.43C68.0579 244.235 68.5219 245.118 68.8003 246.069C69.088 247.04 69.0972 248.826 68.8281 249.797C68.5126 250.944 68.095 251.768 67.3712 252.661C66.8887 253.269 66.8237 253.515 67.1114 253.819C67.4362 254.162 67.696 254.074 68.2435 253.436C70.1366 251.219 70.7026 247.855 69.654 244.971C69.2457 243.823 68.0858 242.145 67.6125 242.008C67.4918 241.969 67.3248 242.018 67.1763 242.155Z" fill="url(#paint10_linear_4001_7106)"/>
<path d="M58.5391 244.511C57.9359 245.217 57.5647 246.07 57.3884 247.169C57.2492 248.022 57.2492 248.16 57.3977 248.925C57.574 249.876 58.038 250.926 58.5577 251.554C58.8453 251.907 58.9753 251.985 59.2258 251.985C59.8012 251.985 59.9589 251.397 59.5228 250.857C58.7247 249.867 58.4463 249.052 58.502 247.777C58.5298 247.012 58.5762 246.786 58.8361 246.237C59.0031 245.884 59.2815 245.403 59.4578 245.187C59.8197 244.736 59.8476 244.55 59.6341 244.226C59.3836 243.844 59.0217 243.942 58.5391 244.511Z" fill="white"/>
<path d="M58.5391 244.511C57.9359 245.217 57.5647 246.07 57.3884 247.169C57.2492 248.022 57.2492 248.16 57.3977 248.925C57.574 249.876 58.038 250.926 58.5577 251.554C58.8453 251.907 58.9753 251.985 59.2258 251.985C59.8012 251.985 59.9589 251.397 59.5228 250.857C58.7247 249.867 58.4463 249.052 58.502 247.777C58.5298 247.012 58.5762 246.786 58.8361 246.237C59.0031 245.884 59.2815 245.403 59.4578 245.187C59.8197 244.736 59.8476 244.55 59.6341 244.226C59.3836 243.844 59.0217 243.942 58.5391 244.511Z" fill="url(#paint11_linear_4001_7106)"/>
<path d="M65.2281 244.187C64.9868 244.462 65.0425 244.785 65.3765 245.227C66.0911 246.178 66.3695 246.943 66.3695 247.983C66.3695 249.033 65.9148 250.279 65.3116 250.867C64.8662 251.309 65.061 251.985 65.6271 251.985C66.0169 251.985 66.4994 251.426 66.9634 250.435C67.3995 249.513 67.5109 248.886 67.4645 247.699C67.3995 246.306 67.0098 245.305 66.1932 244.373C65.8313 243.961 65.4786 243.893 65.2281 244.187Z" fill="white"/>
<path d="M65.2281 244.187C64.9868 244.462 65.0425 244.785 65.3765 245.227C66.0911 246.178 66.3695 246.943 66.3695 247.983C66.3695 249.033 65.9148 250.279 65.3116 250.867C64.8662 251.309 65.061 251.985 65.6271 251.985C66.0169 251.985 66.4994 251.426 66.9634 250.435C67.3995 249.513 67.5109 248.886 67.4645 247.699C67.3995 246.306 67.0098 245.305 66.1932 244.373C65.8313 243.961 65.4786 243.893 65.2281 244.187Z" fill="url(#paint12_linear_4001_7106)"/>
<path d="M62.0458 247.423C61.7396 247.629 61.7303 247.914 61.7303 254.251V260.578L59.698 260.607C57.4616 260.637 57.4245 260.646 56.9605 261.313C56.7749 261.568 56.7656 261.706 56.7656 264.953C56.7656 268.2 56.7749 268.337 56.9605 268.592C57.0626 268.739 57.2667 268.955 57.4059 269.063C57.6565 269.269 57.7029 269.269 70.2306 269.298C84.3358 269.328 83.1944 269.377 83.7326 268.602L84.0017 268.209V264.953V261.696L83.7233 261.294C83.5749 261.068 83.3522 260.833 83.2408 260.764C83.0738 260.666 81.0044 260.627 73.0516 260.587L63.0759 260.538L63.048 254.123C63.0295 248.316 63.0109 247.688 62.8717 247.521C62.7232 247.345 62.2407 247.286 62.0458 247.423ZM82.7397 261.922C82.8696 262.049 82.8882 262.461 82.8882 264.923C82.8882 267.444 82.8696 267.807 82.7304 267.964C82.5912 268.131 82.0808 268.141 70.379 268.141C59.1505 268.141 58.1576 268.131 57.9998 267.974C57.8421 267.827 57.8328 267.601 57.8328 264.943C57.8328 262.461 57.8514 262.049 57.9813 261.922C58.1112 261.784 59.364 261.765 70.3605 261.765C81.357 261.765 82.6098 261.784 82.7397 261.922Z" fill="white"/>
<path d="M62.0458 247.423C61.7396 247.629 61.7303 247.914 61.7303 254.251V260.578L59.698 260.607C57.4616 260.637 57.4245 260.646 56.9605 261.313C56.7749 261.568 56.7656 261.706 56.7656 264.953C56.7656 268.2 56.7749 268.337 56.9605 268.592C57.0626 268.739 57.2667 268.955 57.4059 269.063C57.6565 269.269 57.7029 269.269 70.2306 269.298C84.3358 269.328 83.1944 269.377 83.7326 268.602L84.0017 268.209V264.953V261.696L83.7233 261.294C83.5749 261.068 83.3522 260.833 83.2408 260.764C83.0738 260.666 81.0044 260.627 73.0516 260.587L63.0759 260.538L63.048 254.123C63.0295 248.316 63.0109 247.688 62.8717 247.521C62.7232 247.345 62.2407 247.286 62.0458 247.423ZM82.7397 261.922C82.8696 262.049 82.8882 262.461 82.8882 264.923C82.8882 267.444 82.8696 267.807 82.7304 267.964C82.5912 268.131 82.0808 268.141 70.379 268.141C59.1505 268.141 58.1576 268.131 57.9998 267.974C57.8421 267.827 57.8328 267.601 57.8328 264.943C57.8328 262.461 57.8514 262.049 57.9813 261.922C58.1112 261.784 59.364 261.765 70.3605 261.765C81.357 261.765 82.6098 261.784 82.7397 261.922Z" fill="url(#paint13_linear_4001_7106)"/>
<g opacity="0.42">
<g opacity="0.25" filter="url(#filter3_d_4001_7106)">
<ellipse cx="67.8155" cy="386.489" rx="28.8155" ry="30.4889" fill="white"/>
</g>
<g opacity="0.73" filter="url(#filter4_d_4001_7106)">
<ellipse cx="68.1158" cy="386.43" rx="19.858" ry="20.5571" fill="white"/>
</g>
<g opacity="0.41" filter="url(#filter5_d_4001_7106)">
<ellipse cx="67.9499" cy="386.518" rx="13.1569" ry="13.8185" fill="white"/>
</g>
</g>
<path d="M63.0045 372.076C59.7345 374.134 57.0329 375.843 57.0002 375.875C56.9447 375.928 56.9414 376.386 56.9414 387.424V398.917L57.0133 399.044C57.2681 399.506 57.7646 400.148 58.3069 400.722C59.8292 402.325 62.2401 403.812 64.1936 404.351C64.8895 404.542 64.9123 404.546 65.7356 404.546H66.5196L71.0996 401.666C73.615 400.084 76.2578 398.424 76.9667 397.977C77.6756 397.53 78.2996 397.122 78.3486 397.065C78.4008 397.012 78.4531 396.906 78.4694 396.828C78.5119 396.643 78.5119 374.495 78.4694 374.311C78.4531 374.233 78.4139 374.134 78.3812 374.084C78.3486 374.038 76.2938 372.725 73.8143 371.165L69.3094 368.331L69.1265 368.334C68.9468 368.334 68.9011 368.362 63.0045 372.076ZM73.1773 372.027C75.3889 373.417 77.1954 374.563 77.1954 374.573C77.1954 374.584 74.6996 376.162 71.6517 378.081L66.1047 381.568L65.7944 381.547C63.2953 381.37 59.6724 379.188 58.0031 376.854L57.8202 376.599L57.9606 376.51C60.3192 375.02 69.1167 369.501 69.1363 369.501C69.1493 369.501 70.9689 370.636 73.1773 372.027ZM77.4665 396.391C77.4339 396.423 66.5457 403.269 66.4902 403.294C66.4575 403.308 66.4477 401.166 66.4477 392.66L66.451 382.004L71.962 378.539L77.4731 375.077L77.4829 385.722C77.4861 391.578 77.4796 396.377 77.4665 396.391ZM58.9831 378.762C60.4434 380.089 62.2695 381.182 63.9323 381.721C64.5955 381.933 64.9156 382.001 65.7878 382.114L65.925 382.132V392.858V403.588L65.7715 403.567C65.0855 403.482 64.5595 403.354 63.8833 403.109C61.5149 402.255 59.0877 400.421 57.9737 398.647L57.8234 398.406V389.833V381.26L58.3723 381.845C59.0093 382.529 59.5973 383.054 60.3062 383.562C61.5966 384.494 62.9425 385.147 64.4256 385.569C65.0169 385.736 65.0855 385.739 65.19 385.622C65.3435 385.459 65.2684 385.211 65.0528 385.158C63.1581 384.7 61.2307 383.707 59.7508 382.43C59.3425 382.075 58.712 381.444 58.4278 381.1C58.1664 380.784 58.0586 380.713 57.9182 380.77L57.8234 380.809V379.177V377.546L58.2579 378.021C58.4931 378.284 58.8231 378.617 58.9831 378.762Z" fill="black"/>
<path d="M63.0045 372.076C59.7345 374.134 57.0329 375.843 57.0002 375.875C56.9447 375.928 56.9414 376.386 56.9414 387.424V398.917L57.0133 399.044C57.2681 399.506 57.7646 400.148 58.3069 400.722C59.8292 402.325 62.2401 403.812 64.1936 404.351C64.8895 404.542 64.9123 404.546 65.7356 404.546H66.5196L71.0996 401.666C73.615 400.084 76.2578 398.424 76.9667 397.977C77.6756 397.53 78.2996 397.122 78.3486 397.065C78.4008 397.012 78.4531 396.906 78.4694 396.828C78.5119 396.643 78.5119 374.495 78.4694 374.311C78.4531 374.233 78.4139 374.134 78.3812 374.084C78.3486 374.038 76.2938 372.725 73.8143 371.165L69.3094 368.331L69.1265 368.334C68.9468 368.334 68.9011 368.362 63.0045 372.076ZM73.1773 372.027C75.3889 373.417 77.1954 374.563 77.1954 374.573C77.1954 374.584 74.6996 376.162 71.6517 378.081L66.1047 381.568L65.7944 381.547C63.2953 381.37 59.6724 379.188 58.0031 376.854L57.8202 376.599L57.9606 376.51C60.3192 375.02 69.1167 369.501 69.1363 369.501C69.1493 369.501 70.9689 370.636 73.1773 372.027ZM77.4665 396.391C77.4339 396.423 66.5457 403.269 66.4902 403.294C66.4575 403.308 66.4477 401.166 66.4477 392.66L66.451 382.004L71.962 378.539L77.4731 375.077L77.4829 385.722C77.4861 391.578 77.4796 396.377 77.4665 396.391ZM58.9831 378.762C60.4434 380.089 62.2695 381.182 63.9323 381.721C64.5955 381.933 64.9156 382.001 65.7878 382.114L65.925 382.132V392.858V403.588L65.7715 403.567C65.0855 403.482 64.5595 403.354 63.8833 403.109C61.5149 402.255 59.0877 400.421 57.9737 398.647L57.8234 398.406V389.833V381.26L58.3723 381.845C59.0093 382.529 59.5973 383.054 60.3062 383.562C61.5966 384.494 62.9425 385.147 64.4256 385.569C65.0169 385.736 65.0855 385.739 65.19 385.622C65.3435 385.459 65.2684 385.211 65.0528 385.158C63.1581 384.7 61.2307 383.707 59.7508 382.43C59.3425 382.075 58.712 381.444 58.4278 381.1C58.1664 380.784 58.0586 380.713 57.9182 380.77L57.8234 380.809V379.177V377.546L58.2579 378.021C58.4931 378.284 58.8231 378.617 58.9831 378.762Z" fill="white"/>
<path d="M63.0045 372.076C59.7345 374.134 57.0329 375.843 57.0002 375.875C56.9447 375.928 56.9414 376.386 56.9414 387.424V398.917L57.0133 399.044C57.2681 399.506 57.7646 400.148 58.3069 400.722C59.8292 402.325 62.2401 403.812 64.1936 404.351C64.8895 404.542 64.9123 404.546 65.7356 404.546H66.5196L71.0996 401.666C73.615 400.084 76.2578 398.424 76.9667 397.977C77.6756 397.53 78.2996 397.122 78.3486 397.065C78.4008 397.012 78.4531 396.906 78.4694 396.828C78.5119 396.643 78.5119 374.495 78.4694 374.311C78.4531 374.233 78.4139 374.134 78.3812 374.084C78.3486 374.038 76.2938 372.725 73.8143 371.165L69.3094 368.331L69.1265 368.334C68.9468 368.334 68.9011 368.362 63.0045 372.076ZM73.1773 372.027C75.3889 373.417 77.1954 374.563 77.1954 374.573C77.1954 374.584 74.6996 376.162 71.6517 378.081L66.1047 381.568L65.7944 381.547C63.2953 381.37 59.6724 379.188 58.0031 376.854L57.8202 376.599L57.9606 376.51C60.3192 375.02 69.1167 369.501 69.1363 369.501C69.1493 369.501 70.9689 370.636 73.1773 372.027ZM77.4665 396.391C77.4339 396.423 66.5457 403.269 66.4902 403.294C66.4575 403.308 66.4477 401.166 66.4477 392.66L66.451 382.004L71.962 378.539L77.4731 375.077L77.4829 385.722C77.4861 391.578 77.4796 396.377 77.4665 396.391ZM58.9831 378.762C60.4434 380.089 62.2695 381.182 63.9323 381.721C64.5955 381.933 64.9156 382.001 65.7878 382.114L65.925 382.132V392.858V403.588L65.7715 403.567C65.0855 403.482 64.5595 403.354 63.8833 403.109C61.5149 402.255 59.0877 400.421 57.9737 398.647L57.8234 398.406V389.833V381.26L58.3723 381.845C59.0093 382.529 59.5973 383.054 60.3062 383.562C61.5966 384.494 62.9425 385.147 64.4256 385.569C65.0169 385.736 65.0855 385.739 65.19 385.622C65.3435 385.459 65.2684 385.211 65.0528 385.158C63.1581 384.7 61.2307 383.707 59.7508 382.43C59.3425 382.075 58.712 381.444 58.4278 381.1C58.1664 380.784 58.0586 380.713 57.9182 380.77L57.8234 380.809V379.177V377.546L58.2579 378.021C58.4931 378.284 58.8231 378.617 58.9831 378.762Z" fill="url(#paint14_linear_4001_7106)"/>
<path d="M57.9625 383.487C57.9168 383.54 57.8906 383.615 57.8906 383.696C57.8906 383.806 57.9298 383.866 58.2434 384.221C59.9324 386.151 62.2028 387.58 64.6496 388.247C64.8979 388.314 65.1331 388.371 65.1723 388.371C65.2768 388.371 65.4042 388.215 65.4042 388.094C65.4042 387.899 65.3291 387.85 64.7835 387.701C62.8431 387.169 60.9679 386.115 59.4913 384.728C59.3019 384.551 58.9458 384.182 58.6943 383.905C58.299 383.469 58.2304 383.405 58.1389 383.405C58.0703 383.405 58.0082 383.434 57.9625 383.487Z" fill="black"/>
<path d="M57.9625 383.487C57.9168 383.54 57.8906 383.615 57.8906 383.696C57.8906 383.806 57.9298 383.866 58.2434 384.221C59.9324 386.151 62.2028 387.58 64.6496 388.247C64.8979 388.314 65.1331 388.371 65.1723 388.371C65.2768 388.371 65.4042 388.215 65.4042 388.094C65.4042 387.899 65.3291 387.85 64.7835 387.701C62.8431 387.169 60.9679 386.115 59.4913 384.728C59.3019 384.551 58.9458 384.182 58.6943 383.905C58.299 383.469 58.2304 383.405 58.1389 383.405C58.0703 383.405 58.0082 383.434 57.9625 383.487Z" fill="white"/>
<path d="M57.9625 383.487C57.9168 383.54 57.8906 383.615 57.8906 383.696C57.8906 383.806 57.9298 383.866 58.2434 384.221C59.9324 386.151 62.2028 387.58 64.6496 388.247C64.8979 388.314 65.1331 388.371 65.1723 388.371C65.2768 388.371 65.4042 388.215 65.4042 388.094C65.4042 387.899 65.3291 387.85 64.7835 387.701C62.8431 387.169 60.9679 386.115 59.4913 384.728C59.3019 384.551 58.9458 384.182 58.6943 383.905C58.299 383.469 58.2304 383.405 58.1389 383.405C58.0703 383.405 58.0082 383.434 57.9625 383.487Z" fill="url(#paint15_linear_4001_7106)"/>
<path d="M59.124 391.177C58.5196 391.28 58.0917 392.017 58.206 392.755C58.2844 393.241 58.5262 393.606 58.8921 393.787C59.0489 393.865 59.1044 393.876 59.3396 393.862C59.6499 393.844 59.8166 393.766 60.0256 393.536C60.6202 392.894 60.4634 391.656 59.7414 391.283C59.516 391.166 59.3527 391.138 59.124 391.177ZM59.4997 391.691C59.993 391.961 60.1008 392.734 59.7055 393.177C59.4572 393.457 59.1697 393.472 58.9051 393.209C58.7157 393.028 58.6307 392.78 58.647 392.471C58.6601 392.188 58.7255 392.021 58.879 391.847C59.0652 391.638 59.2971 391.581 59.4997 391.691Z" fill="black"/>
<path d="M59.124 391.177C58.5196 391.28 58.0917 392.017 58.206 392.755C58.2844 393.241 58.5262 393.606 58.8921 393.787C59.0489 393.865 59.1044 393.876 59.3396 393.862C59.6499 393.844 59.8166 393.766 60.0256 393.536C60.6202 392.894 60.4634 391.656 59.7414 391.283C59.516 391.166 59.3527 391.138 59.124 391.177ZM59.4997 391.691C59.993 391.961 60.1008 392.734 59.7055 393.177C59.4572 393.457 59.1697 393.472 58.9051 393.209C58.7157 393.028 58.6307 392.78 58.647 392.471C58.6601 392.188 58.7255 392.021 58.879 391.847C59.0652 391.638 59.2971 391.581 59.4997 391.691Z" fill="white"/>
<path d="M59.124 391.177C58.5196 391.28 58.0917 392.017 58.206 392.755C58.2844 393.241 58.5262 393.606 58.8921 393.787C59.0489 393.865 59.1044 393.876 59.3396 393.862C59.6499 393.844 59.8166 393.766 60.0256 393.536C60.6202 392.894 60.4634 391.656 59.7414 391.283C59.516 391.166 59.3527 391.138 59.124 391.177ZM59.4997 391.691C59.993 391.961 60.1008 392.734 59.7055 393.177C59.4572 393.457 59.1697 393.472 58.9051 393.209C58.7157 393.028 58.6307 392.78 58.647 392.471C58.6601 392.188 58.7255 392.021 58.879 391.847C59.0652 391.638 59.2971 391.581 59.4997 391.691Z" fill="url(#paint16_linear_4001_7106)"/>
<path d="M58.9614 394.686C58.6935 394.775 58.3963 395.101 58.2787 395.438C58.2166 395.619 58.2003 395.725 58.2035 395.981C58.2068 396.378 58.2885 396.63 58.5008 396.885C58.7295 397.162 58.8928 397.25 59.2162 397.268C59.4514 397.282 59.507 397.272 59.6638 397.194C59.9022 397.077 60.095 396.86 60.2191 396.573C60.3171 396.353 60.3237 396.307 60.3237 395.963C60.3237 395.619 60.3171 395.573 60.2191 395.353C60.0198 394.895 59.6899 394.65 59.2783 394.654C59.1542 394.654 59.0104 394.668 58.9614 394.686ZM59.4514 395.165C59.618 395.243 59.716 395.349 59.8042 395.555C60.01 396.027 59.8108 396.633 59.4057 396.779C59.0594 396.903 58.687 396.548 58.6511 396.059C58.6217 395.661 58.7654 395.335 59.0365 395.19C59.2064 395.097 59.2881 395.094 59.4514 395.165Z" fill="black"/>
<path d="M58.9614 394.686C58.6935 394.775 58.3963 395.101 58.2787 395.438C58.2166 395.619 58.2003 395.725 58.2035 395.981C58.2068 396.378 58.2885 396.63 58.5008 396.885C58.7295 397.162 58.8928 397.25 59.2162 397.268C59.4514 397.282 59.507 397.272 59.6638 397.194C59.9022 397.077 60.095 396.86 60.2191 396.573C60.3171 396.353 60.3237 396.307 60.3237 395.963C60.3237 395.619 60.3171 395.573 60.2191 395.353C60.0198 394.895 59.6899 394.65 59.2783 394.654C59.1542 394.654 59.0104 394.668 58.9614 394.686ZM59.4514 395.165C59.618 395.243 59.716 395.349 59.8042 395.555C60.01 396.027 59.8108 396.633 59.4057 396.779C59.0594 396.903 58.687 396.548 58.6511 396.059C58.6217 395.661 58.7654 395.335 59.0365 395.19C59.2064 395.097 59.2881 395.094 59.4514 395.165Z" fill="white"/>
<path d="M58.9614 394.686C58.6935 394.775 58.3963 395.101 58.2787 395.438C58.2166 395.619 58.2003 395.725 58.2035 395.981C58.2068 396.378 58.2885 396.63 58.5008 396.885C58.7295 397.162 58.8928 397.25 59.2162 397.268C59.4514 397.282 59.507 397.272 59.6638 397.194C59.9022 397.077 60.095 396.86 60.2191 396.573C60.3171 396.353 60.3237 396.307 60.3237 395.963C60.3237 395.619 60.3171 395.573 60.2191 395.353C60.0198 394.895 59.6899 394.65 59.2783 394.654C59.1542 394.654 59.0104 394.668 58.9614 394.686ZM59.4514 395.165C59.618 395.243 59.716 395.349 59.8042 395.555C60.01 396.027 59.8108 396.633 59.4057 396.779C59.0594 396.903 58.687 396.548 58.6511 396.059C58.6217 395.661 58.7654 395.335 59.0365 395.19C59.2064 395.097 59.2881 395.094 59.4514 395.165Z" fill="url(#paint17_linear_4001_7106)"/>
<path d="M80.6667 509C82.4083 509 83.8333 507.2 83.8333 505V485C83.8333 482.8 82.4083 481 80.6667 481H55.3333C53.5917 481 52.1667 482.8 52.1667 485V505C52.1667 507.2 53.5917 509 55.3333 509H49V513H87V509H80.6667ZM55.3333 485H80.6667V505H55.3333V485Z" fill="url(#paint18_linear_4001_7106)"/>
<defs>
<filter id="filter0_d_4001_7106" x="-74.9" y="0.0999985" width="273.96" height="261.8" filterUnits="userSpaceOnUse" color-interpolation-filters="sRGB">
<feFlood flood-opacity="0" result="BackgroundImageFix"/>
<feColorMatrix in="SourceAlpha" type="matrix" values="0 0 0 0 0 0 0 0 0 0 0 0 0 0 0 0 0 0 127 0" result="hardAlpha"/>
<feOffset dx="-6"/>
<feGaussianBlur stdDeviation="47.95"/>
<feComposite in2="hardAlpha" operator="out"/>
<feColorMatrix type="matrix" values="0 0 0 0 0.192157 0 0 0 0 0.466667 0 0 0 0 0.882353 0 0 0 0.39 0"/>
<feBlend mode="normal" in2="BackgroundImageFix" result="effect1_dropShadow_4001_7106"/>
<feBlend mode="normal" in="SourceGraphic" in2="effect1_dropShadow_4001_7106" result="shape"/>
</filter>
<filter id="filter1_d_4001_7106" x="-61.7047" y="11.434" width="248.421" height="238.997" filterUnits="userSpaceOnUse" color-interpolation-filters="sRGB">
<feFlood flood-opacity="0" result="BackgroundImageFix"/>
<feColorMatrix in="SourceAlpha" type="matrix" values="0 0 0 0 0 0 0 0 0 0 0 0 0 0 0 0 0 0 127 0" result="hardAlpha"/>
<feOffset dx="-6"/>
<feGaussianBlur stdDeviation="47.95"/>
<feComposite in2="hardAlpha" operator="out"/>
<feColorMatrix type="matrix" values="0 0 0 0 0.192157 0 0 0 0 0.466667 0 0 0 0 0.882353 0 0 0 0.2 0"/>
<feBlend mode="normal" in2="BackgroundImageFix" result="effect1_dropShadow_4001_7106"/>
<feBlend mode="normal" in="SourceGraphic" in2="effect1_dropShadow_4001_7106" result="shape"/>
</filter>
<filter id="filter2_d_4001_7106" x="-10.1844" y="55.4689" width="156.912" height="151.127" filterUnits="userSpaceOnUse" color-interpolation-filters="sRGB">
<feFlood flood-opacity="0" result="BackgroundImageFix"/>
<feColorMatrix in="SourceAlpha" type="matrix" values="0 0 0 0 0 0 0 0 0 0 0 0 0 0 0 0 0 0 127 0" result="hardAlpha"/>
<feOffset/>
<feGaussianBlur stdDeviation="29.85"/>
<feComposite in2="hardAlpha" operator="out"/>
<feColorMatrix type="matrix" values="0 0 0 0 0.192157 0 0 0 0 0.466667 0 0 0 0 0.882353 0 0 0 0.47 0"/>
<feBlend mode="normal" in2="BackgroundImageFix" result="effect1_dropShadow_4001_7106"/>
<feBlend mode="normal" in="SourceGraphic" in2="effect1_dropShadow_4001_7106" result="shape"/>
</filter>
<filter id="filter3_d_4001_7106" x="-62.9" y="260.1" width="249.433" height="252.778" filterUnits="userSpaceOnUse" color-interpolation-filters="sRGB">
<feFlood flood-opacity="0" result="BackgroundImageFix"/>
<feColorMatrix in="SourceAlpha" type="matrix" values="0 0 0 0 0 0 0 0 0 0 0 0 0 0 0 0 0 0 127 0" result="hardAlpha"/>
<feOffset dx="-6"/>
<feGaussianBlur stdDeviation="47.95"/>
<feComposite in2="hardAlpha" operator="out"/>
<feColorMatrix type="matrix" values="0 0 0 0 0.192157 0 0 0 0 0.466667 0 0 0 0 0.882353 0 0 0 0.39 0"/>
<feBlend mode="normal" in2="BackgroundImageFix" result="effect1_dropShadow_4001_7106"/>
<feBlend mode="normal" in="SourceGraphic" in2="effect1_dropShadow_4001_7106" result="shape"/>
</filter>
<filter id="filter4_d_4001_7106" x="-53.6422" y="269.973" width="231.515" height="232.914" filterUnits="userSpaceOnUse" color-interpolation-filters="sRGB">
<feFlood flood-opacity="0" result="BackgroundImageFix"/>
<feColorMatrix in="SourceAlpha" type="matrix" values="0 0 0 0 0 0 0 0 0 0 0 0 0 0 0 0 0 0 127 0" result="hardAlpha"/>
<feOffset dx="-6"/>
<feGaussianBlur stdDeviation="47.95"/>
<feComposite in2="hardAlpha" operator="out"/>
<feColorMatrix type="matrix" values="0 0 0 0 0.192157 0 0 0 0 0.466667 0 0 0 0 0.882353 0 0 0 0.2 0"/>
<feBlend mode="normal" in2="BackgroundImageFix" result="effect1_dropShadow_4001_7106"/>
<feBlend mode="normal" in="SourceGraphic" in2="effect1_dropShadow_4001_7106" result="shape"/>
</filter>
<filter id="filter5_d_4001_7106" x="-4.90703" y="312.999" width="145.713" height="147.037" filterUnits="userSpaceOnUse" color-interpolation-filters="sRGB">
<feFlood flood-opacity="0" result="BackgroundImageFix"/>
<feColorMatrix in="SourceAlpha" type="matrix" values="0 0 0 0 0 0 0 0 0 0 0 0 0 0 0 0 0 0 127 0" result="hardAlpha"/>
<feOffset/>
<feGaussianBlur stdDeviation="29.85"/>
<feComposite in2="hardAlpha" operator="out"/>
<feColorMatrix type="matrix" values="0 0 0 0 0.192157 0 0 0 0 0.466667 0 0 0 0 0.882353 0 0 0 0.47 0"/>
<feBlend mode="normal" in2="BackgroundImageFix" result="effect1_dropShadow_4001_7106"/>
<feBlend mode="normal" in="SourceGraphic" in2="effect1_dropShadow_4001_7106" result="shape"/>
</filter>
<linearGradient id="paint0_linear_4001_7106" x1="57.3794" y1="128.657" x2="78.9841" y2="128.657" gradientUnits="userSpaceOnUse">
<stop stop-color="#3793AE"/>
<stop offset="1" stop-color="#074287"/>
</linearGradient>
<linearGradient id="paint1_linear_4001_7106" x1="64.5314" y1="124.986" x2="71.733" y2="124.986" gradientUnits="userSpaceOnUse">
<stop stop-color="#3793AE"/>
<stop offset="1" stop-color="#074287"/>
</linearGradient>
<linearGradient id="paint2_linear_4001_7106" x1="57.3412" y1="123.152" x2="73.5447" y2="123.152" gradientUnits="userSpaceOnUse">
<stop stop-color="#3793AE"/>
<stop offset="1" stop-color="#074287"/>
</linearGradient>
<linearGradient id="paint3_linear_4001_7106" x1="57.3412" y1="123.152" x2="73.5447" y2="123.152" gradientUnits="userSpaceOnUse">
<stop stop-color="#3793AE"/>
<stop offset="1" stop-color="#074287"/>
</linearGradient>
<linearGradient id="paint4_linear_4001_7106" x1="68.5" y1="225.578" x2="68.5" y2="166" gradientUnits="userSpaceOnUse">
<stop stop-color="#3793AE"/>
<stop offset="1" stop-color="#074287"/>
</linearGradient>
<linearGradient id="paint5_linear_4001_7106" x1="68.5" y1="348.522" x2="68.5" y2="281" gradientUnits="userSpaceOnUse">
<stop stop-color="#3793AE"/>
<stop offset="1" stop-color="#074287"/>
</linearGradient>
<linearGradient id="paint6_linear_4001_7106" x1="68.5" y1="470.642" x2="68.5" y2="420" gradientUnits="userSpaceOnUse">
<stop stop-color="#3793AE"/>
<stop offset="1" stop-color="#074287"/>
</linearGradient>
<linearGradient id="paint7_linear_4001_7106" x1="52.0279" y1="247.98" x2="55.9751" y2="247.98" gradientUnits="userSpaceOnUse">
<stop stop-color="#3793AE"/>
<stop offset="1" stop-color="#074287"/>
</linearGradient>
<linearGradient id="paint8_linear_4001_7106" x1="68.8099" y1="247.989" x2="72.8574" y2="247.989" gradientUnits="userSpaceOnUse">
<stop stop-color="#3793AE"/>
<stop offset="1" stop-color="#074287"/>
</linearGradient>
<linearGradient id="paint9_linear_4001_7106" x1="54.6753" y1="247.982" x2="57.9243" y2="247.982" gradientUnits="userSpaceOnUse">
<stop stop-color="#3793AE"/>
<stop offset="1" stop-color="#074287"/>
</linearGradient>
<linearGradient id="paint10_linear_4001_7106" x1="66.9486" y1="248.006" x2="70.1751" y2="248.006" gradientUnits="userSpaceOnUse">
<stop stop-color="#3793AE"/>
<stop offset="1" stop-color="#074287"/>
</linearGradient>
<linearGradient id="paint11_linear_4001_7106" x1="57.3026" y1="247.991" x2="59.7725" y2="247.991" gradientUnits="userSpaceOnUse">
<stop stop-color="#3793AE"/>
<stop offset="1" stop-color="#074287"/>
</linearGradient>
<linearGradient id="paint12_linear_4001_7106" x1="65.0833" y1="247.996" x2="67.4743" y2="247.996" gradientUnits="userSpaceOnUse">
<stop stop-color="#3793AE"/>
<stop offset="1" stop-color="#074287"/>
</linearGradient>
<linearGradient id="paint13_linear_4001_7106" x1="56.957" y1="258.329" x2="84.0017" y2="258.329" gradientUnits="userSpaceOnUse">
<stop stop-color="#3793AE"/>
<stop offset="1" stop-color="#074287"/>
</linearGradient>
<linearGradient id="paint14_linear_4001_7106" x1="57.0929" y1="386.438" x2="78.5013" y2="386.438" gradientUnits="userSpaceOnUse">
<stop stop-color="#3793AE"/>
<stop offset="1" stop-color="#074287"/>
</linearGradient>
<linearGradient id="paint15_linear_4001_7106" x1="57.9434" y1="385.888" x2="65.4042" y2="385.888" gradientUnits="userSpaceOnUse">
<stop stop-color="#3793AE"/>
<stop offset="1" stop-color="#074287"/>
</linearGradient>
<linearGradient id="paint16_linear_4001_7106" x1="58.203" y1="392.514" x2="60.391" y2="392.514" gradientUnits="userSpaceOnUse">
<stop stop-color="#3793AE"/>
<stop offset="1" stop-color="#074287"/>
</linearGradient>
<linearGradient id="paint17_linear_4001_7106" x1="58.218" y1="395.964" x2="60.3237" y2="395.964" gradientUnits="userSpaceOnUse">
<stop stop-color="#3793AE"/>
<stop offset="1" stop-color="#074287"/>
</linearGradient>
<linearGradient id="paint18_linear_4001_7106" x1="49.267" y1="497" x2="87" y2="497" gradientUnits="userSpaceOnUse">
<stop stop-color="#3793AE"/>
<stop offset="1" stop-color="#074287"/>
</linearGradient>
</defs>
</svg>
