<svg width="1471" height="391" viewBox="0 0 1471 391" fill="none" xmlns="http://www.w3.org/2000/svg">
<path d="M463.667 195C463.667 197.946 466.054 200.333 469 200.333C471.946 200.333 474.333 197.946 474.333 195C474.333 192.055 471.946 189.667 469 189.667C466.054 189.667 463.667 192.055 463.667 195ZM203 196L208.115 196L208.115 194L203 194L203 196ZM218.346 196L228.577 196L228.577 194L218.346 194L218.346 196ZM238.808 196L249.038 196L249.038 194L238.808 194L238.808 196ZM259.269 196L269.5 196L269.5 194L259.269 194L259.269 196ZM279.731 196L289.962 196L289.962 194L279.731 194L279.731 196ZM300.192 196L310.423 196L310.423 194L300.192 194L300.192 196ZM320.654 196L330.885 196L330.885 194L320.654 194L320.654 196ZM341.115 196L351.346 196L351.346 194L341.115 194L341.115 196ZM361.577 196L371.808 196L371.808 194L361.577 194L361.577 196ZM382.038 196L392.269 196L392.269 194L382.038 194L382.038 196ZM402.5 196L412.731 196L412.731 194L402.5 194L402.5 196ZM422.962 196L433.192 196L433.192 194L422.962 194L422.962 196ZM443.423 196L453.654 196L453.654 194L443.423 194L443.423 196ZM463.885 196L469 196L469 194L463.885 194L463.885 196Z" fill="url(#paint0_linear_4087_10351)"/>
<path d="M463.667 195C463.667 197.946 466.054 200.333 469 200.333C471.946 200.333 474.333 197.946 474.333 195C474.333 192.055 471.946 189.667 469 189.667C466.054 189.667 463.667 192.055 463.667 195ZM203 196L208.115 196L208.115 194L203 194L203 196ZM218.346 196L228.577 196L228.577 194L218.346 194L218.346 196ZM238.808 196L249.038 196L249.038 194L238.808 194L238.808 196ZM259.269 196L269.5 196L269.5 194L259.269 194L259.269 196ZM279.731 196L289.962 196L289.962 194L279.731 194L279.731 196ZM300.192 196L310.423 196L310.423 194L300.192 194L300.192 196ZM320.654 196L330.885 196L330.885 194L320.654 194L320.654 196ZM341.115 196L351.346 196L351.346 194L341.115 194L341.115 196ZM361.577 196L371.808 196L371.808 194L361.577 194L361.577 196ZM382.038 196L392.269 196L392.269 194L382.038 194L382.038 196ZM402.5 196L412.731 196L412.731 194L402.5 194L402.5 196ZM422.962 196L433.192 196L433.192 194L422.962 194L422.962 196ZM443.423 196L453.654 196L453.654 194L443.423 194L443.423 196ZM463.885 196L469 196L469 194L463.885 194L463.885 196Z" fill="white" fill-opacity="0.15"/>
<path d="M598 191L817 191" stroke="url(#paint1_linear_4087_10351)" stroke-width="2" stroke-dasharray="10 10"/>
<path d="M598 191L817 191" stroke="white" stroke-opacity="0.15" stroke-width="2" stroke-dasharray="10 10"/>
<path d="M1208.67 185C1208.67 187.946 1211.05 190.333 1214 190.333C1216.95 190.333 1219.33 187.946 1219.33 185C1219.33 182.054 1216.95 179.667 1214 179.667C1211.05 179.667 1208.67 182.054 1208.67 185ZM979 186H983.896V184H979V186ZM993.688 186H1003.48V184H993.688V186ZM1013.27 186H1023.06V184H1013.27V186ZM1032.85 186H1042.65V184H1032.85V186ZM1052.44 186H1062.23V184H1052.44V186ZM1072.02 186H1081.81V184H1072.02V186ZM1091.6 186H1101.4V184H1091.6V186ZM1111.19 186H1120.98V184H1111.19V186ZM1130.77 186H1140.56V184H1130.77V186ZM1150.35 186H1160.15V184H1150.35V186ZM1169.94 186H1179.73V184H1169.94V186ZM1189.52 186H1199.31V184H1189.52V186ZM1209.1 186H1214V184H1209.1V186Z" fill="url(#paint2_linear_4087_10351)"/>
<path d="M1208.67 185C1208.67 187.946 1211.05 190.333 1214 190.333C1216.95 190.333 1219.33 187.946 1219.33 185C1219.33 182.054 1216.95 179.667 1214 179.667C1211.05 179.667 1208.67 182.054 1208.67 185ZM979 186H983.896V184H979V186ZM993.688 186H1003.48V184H993.688V186ZM1013.27 186H1023.06V184H1013.27V186ZM1032.85 186H1042.65V184H1032.85V186ZM1052.44 186H1062.23V184H1052.44V186ZM1072.02 186H1081.81V184H1072.02V186ZM1091.6 186H1101.4V184H1091.6V186ZM1111.19 186H1120.98V184H1111.19V186ZM1130.77 186H1140.56V184H1130.77V186ZM1150.35 186H1160.15V184H1150.35V186ZM1169.94 186H1179.73V184H1169.94V186ZM1189.52 186H1199.31V184H1189.52V186ZM1209.1 186H1214V184H1209.1V186Z" fill="white" fill-opacity="0.15"/>
<g opacity="0.42">
<g opacity="0.25" filter="url(#filter0_d_4087_10351)">
<ellipse cx="540.631" cy="195" rx="57.6311" ry="56" fill="white"/>
</g>
<g opacity="0.73" filter="url(#filter1_d_4087_10351)">
<ellipse cx="541.228" cy="194.894" rx="39.716" ry="37.758" fill="white"/>
</g>
<g opacity="0.41" filter="url(#filter2_d_4087_10351)">
<ellipse cx="540.9" cy="195.052" rx="26.3139" ry="25.3809" fill="white"/>
</g>
</g>
<g opacity="0.42">
<g opacity="0.25" filter="url(#filter3_d_4087_10351)">
<ellipse cx="1307.99" cy="185.922" rx="72.9878" ry="70.9221" fill="white"/>
</g>
<g opacity="0.73" filter="url(#filter4_d_4087_10351)">
<ellipse cx="1308.74" cy="185.788" rx="50.299" ry="47.8193" fill="white"/>
</g>
<g opacity="0.41" filter="url(#filter5_d_4087_10351)">
<ellipse cx="1308.33" cy="185.987" rx="33.3257" ry="32.1441" fill="white"/>
</g>
</g>
<g opacity="0.42">
<g opacity="0.25" filter="url(#filter6_d_4087_10351)">
<ellipse cx="927.381" cy="247.988" rx="48.3807" ry="47.0115" fill="white"/>
</g>
<g opacity="0.73" filter="url(#filter7_d_4087_10351)">
<ellipse cx="927.88" cy="247.899" rx="33.3412" ry="31.6975" fill="white"/>
</g>
<g opacity="0.41" filter="url(#filter8_d_4087_10351)">
<ellipse cx="927.606" cy="248.032" rx="22.0903" ry="21.307" fill="white"/>
</g>
</g>
<g opacity="0.42">
<g opacity="0.25" filter="url(#filter9_d_4087_10351)">
<ellipse cx="158.602" cy="195" rx="56.6019" ry="55" fill="white"/>
</g>
<g opacity="0.73" filter="url(#filter10_d_4087_10351)">
<ellipse cx="159.186" cy="194.895" rx="39.0068" ry="37.0838" fill="white"/>
</g>
<g opacity="0.41" filter="url(#filter11_d_4087_10351)">
<ellipse cx="158.867" cy="195.051" rx="25.844" ry="24.9277" fill="white"/>
</g>
</g>
<path d="M173.631 212.946V183.659C173.631 174.468 167.498 166.808 158.642 166.808C149.786 166.808 143.652 174.468 143.652 183.659V212.945C143.652 214.538 144.77 215.827 146.151 215.827H171.133C172.513 215.827 173.631 214.539 173.631 212.946Z" stroke="#3793AE" stroke-width="2" stroke-linecap="round"/>
<path d="M173.631 212.946V183.659C173.631 174.468 167.498 166.808 158.642 166.808C149.786 166.808 143.652 174.468 143.652 183.659V212.945C143.652 214.538 144.77 215.827 146.151 215.827H171.133C172.513 215.827 173.631 214.539 173.631 212.946Z" stroke="white" stroke-width="2" stroke-linecap="round"/>
<path d="M173.631 212.946V183.659C173.631 174.468 167.498 166.808 158.642 166.808C149.786 166.808 143.652 174.468 143.652 183.659V212.945C143.652 214.538 144.77 215.827 146.151 215.827H171.133C172.513 215.827 173.631 214.539 173.631 212.946Z" stroke="url(#paint3_linear_4087_10351)" stroke-width="2" stroke-linecap="round"/>
<path d="M158.641 191.317C161.4 191.317 163.637 188.735 163.637 185.55C163.637 182.365 161.4 179.783 158.641 179.783C155.882 179.783 153.645 182.365 153.645 185.55C153.645 188.735 155.882 191.317 158.641 191.317Z" stroke="#3793AE" stroke-width="2" stroke-linecap="round"/>
<path d="M158.641 191.317C161.4 191.317 163.637 188.735 163.637 185.55C163.637 182.365 161.4 179.783 158.641 179.783C155.882 179.783 153.645 182.365 153.645 185.55C153.645 188.735 155.882 191.317 158.641 191.317Z" stroke="white" stroke-width="2" stroke-linecap="round"/>
<path d="M158.641 191.317C161.4 191.317 163.637 188.735 163.637 185.55C163.637 182.365 161.4 179.783 158.641 179.783C155.882 179.783 153.645 182.365 153.645 185.55C153.645 188.735 155.882 191.317 158.641 191.317Z" stroke="url(#paint4_linear_4087_10351)" stroke-width="2" stroke-linecap="round"/>
<path d="M151.147 201.411H153.645H151.147ZM161.14 207.178H166.136H161.14ZM143.652 181.226V158.157V181.226Z" fill="white"/>
<path d="M151.147 201.411H153.645H151.147ZM161.14 207.178H166.136H161.14ZM143.652 181.226V158.157V181.226Z" fill="url(#paint5_linear_4087_10351)"/>
<path d="M151.147 201.411H153.645M161.14 207.178H166.136M143.652 181.226V158.157" stroke="#3793AE" stroke-width="2" stroke-linecap="round"/>
<path d="M151.147 201.411H153.645M161.14 207.178H166.136M143.652 181.226V158.157" stroke="white" stroke-width="2" stroke-linecap="round"/>
<path d="M151.147 201.411H153.645M161.14 207.178H166.136M143.652 181.226V158.157" stroke="url(#paint6_linear_4087_10351)" stroke-width="2" stroke-linecap="round"/>
<path d="M520.445 164.107C520.205 164.218 518.387 166.758 517.813 167.771C516.027 170.992 515.165 174.251 515.038 178.338C514.958 180.621 514.99 181.284 515.277 182.904C515.947 186.659 517.255 189.752 519.28 192.495C520.142 193.637 520.429 193.913 520.859 193.95C521.147 193.986 521.481 193.913 521.609 193.784C521.928 193.489 521.896 192.403 521.545 192.016C521.051 191.446 519.839 189.697 519.408 188.905C518.084 186.512 517.287 183.824 517.047 180.952C516.617 175.595 518.052 170.459 521.035 166.685C521.609 165.948 521.832 165.525 521.832 165.138C521.832 164.273 521.147 163.776 520.445 164.107Z" fill="white"/>
<path d="M520.445 164.107C520.205 164.218 518.387 166.758 517.813 167.771C516.027 170.992 515.165 174.251 515.038 178.338C514.958 180.621 514.99 181.284 515.277 182.904C515.947 186.659 517.255 189.752 519.28 192.495C520.142 193.637 520.429 193.913 520.859 193.95C521.147 193.986 521.481 193.913 521.609 193.784C521.928 193.489 521.896 192.403 521.545 192.016C521.051 191.446 519.839 189.697 519.408 188.905C518.084 186.512 517.287 183.824 517.047 180.952C516.617 175.595 518.052 170.459 521.035 166.685C521.609 165.948 521.832 165.525 521.832 165.138C521.832 164.273 521.147 163.776 520.445 164.107Z" fill="url(#paint7_linear_4087_10351)"/>
<path d="M544.179 164.457C543.987 164.733 543.844 165.046 543.844 165.175C543.844 165.304 544.274 165.985 544.785 166.703C546.109 168.526 546.651 169.483 547.385 171.269C548.389 173.735 548.804 175.945 548.804 178.817C548.82 181.412 548.756 181.946 548.278 184.045C547.672 186.641 546.444 189.2 544.721 191.427C544.242 192.053 543.844 192.698 543.844 192.863C543.844 193.471 544.322 193.986 544.88 193.986C545.327 193.986 545.534 193.821 546.236 192.919C549.952 188.114 551.579 181.504 550.543 175.337C549.825 171.084 548.453 167.918 546.093 165.028C545.12 163.849 544.689 163.721 544.179 164.457Z" fill="white"/>
<path d="M544.179 164.457C543.987 164.733 543.844 165.046 543.844 165.175C543.844 165.304 544.274 165.985 544.785 166.703C546.109 168.526 546.651 169.483 547.385 171.269C548.389 173.735 548.804 175.945 548.804 178.817C548.82 181.412 548.756 181.946 548.278 184.045C547.672 186.641 546.444 189.2 544.721 191.427C544.242 192.053 543.844 192.698 543.844 192.863C543.844 193.471 544.322 193.986 544.88 193.986C545.327 193.986 545.534 193.821 546.236 192.919C549.952 188.114 551.579 181.504 550.543 175.337C549.825 171.084 548.453 167.918 546.093 165.028C545.12 163.849 544.689 163.721 544.179 164.457Z" fill="url(#paint8_linear_4087_10351)"/>
<path d="M523.795 167.843C523.205 168.119 521.689 170.439 520.956 172.17C518.483 177.987 519.345 184.872 523.125 189.512C524.002 190.598 524.863 190.524 525.103 189.364C525.182 188.978 525.055 188.683 524.385 187.763C523.252 186.179 522.535 184.743 522.04 183.031C521.657 181.724 521.61 181.264 521.61 178.981C521.61 176.606 521.641 176.293 522.072 174.931C522.614 173.2 523.412 171.562 524.225 170.513C524.847 169.739 525.182 169.113 525.182 168.764C525.182 168.524 524.465 167.659 524.273 167.677C524.209 167.677 523.986 167.751 523.795 167.843Z" fill="white"/>
<path d="M523.795 167.843C523.205 168.119 521.689 170.439 520.956 172.17C518.483 177.987 519.345 184.872 523.125 189.512C524.002 190.598 524.863 190.524 525.103 189.364C525.182 188.978 525.055 188.683 524.385 187.763C523.252 186.179 522.535 184.743 522.04 183.031C521.657 181.724 521.61 181.264 521.61 178.981C521.61 176.606 521.641 176.293 522.072 174.931C522.614 173.2 523.412 171.562 524.225 170.513C524.847 169.739 525.182 169.113 525.182 168.764C525.182 168.524 524.465 167.659 524.273 167.677C524.209 167.677 523.986 167.751 523.795 167.843Z" fill="url(#paint9_linear_4087_10351)"/>
<path d="M541.083 168.047C540.844 168.249 540.652 168.599 540.652 168.838C540.652 169.059 541.035 169.777 541.514 170.44C542.598 171.95 543.396 173.607 543.874 175.392C544.369 177.215 544.385 180.565 543.922 182.388C543.38 184.542 542.662 186.088 541.418 187.764C540.589 188.905 540.477 189.365 540.971 189.936C541.53 190.58 541.976 190.415 542.917 189.218C546.171 185.057 547.144 178.743 545.342 173.33C544.64 171.176 542.646 168.028 541.833 167.771C541.625 167.697 541.338 167.789 541.083 168.047Z" fill="white"/>
<path d="M541.083 168.047C540.844 168.249 540.652 168.599 540.652 168.838C540.652 169.059 541.035 169.777 541.514 170.44C542.598 171.95 543.396 173.607 543.874 175.392C544.369 177.215 544.385 180.565 543.922 182.388C543.38 184.542 542.662 186.088 541.418 187.764C540.589 188.905 540.477 189.365 540.971 189.936C541.53 190.58 541.976 190.415 542.917 189.218C546.171 185.057 547.144 178.743 545.342 173.33C544.64 171.176 542.646 168.028 541.833 167.771C541.625 167.697 541.338 167.789 541.083 168.047Z" fill="url(#paint10_linear_4087_10351)"/>
<path d="M526.237 172.465C525.201 173.79 524.563 175.392 524.26 177.454C524.02 179.056 524.02 179.313 524.275 180.749C524.579 182.535 525.376 184.505 526.269 185.683C526.764 186.346 526.987 186.493 527.418 186.493C528.406 186.493 528.678 185.389 527.928 184.376C526.556 182.517 526.078 180.989 526.173 178.595C526.221 177.159 526.301 176.736 526.748 175.705C527.035 175.042 527.513 174.14 527.816 173.735C528.438 172.888 528.486 172.538 528.119 171.931C527.689 171.213 527.067 171.397 526.237 172.465Z" fill="white"/>
<path d="M526.237 172.465C525.201 173.79 524.563 175.392 524.26 177.454C524.02 179.056 524.02 179.313 524.275 180.749C524.579 182.535 525.376 184.505 526.269 185.683C526.764 186.346 526.987 186.493 527.418 186.493C528.406 186.493 528.678 185.389 527.928 184.376C526.556 182.517 526.078 180.989 526.173 178.595C526.221 177.159 526.301 176.736 526.748 175.705C527.035 175.042 527.513 174.14 527.816 173.735C528.438 172.888 528.486 172.538 528.119 171.931C527.689 171.213 527.067 171.397 526.237 172.465Z" fill="url(#paint11_linear_4087_10351)"/>
<path d="M537.735 171.857C537.32 172.373 537.416 172.98 537.99 173.809C539.218 175.595 539.697 177.031 539.697 178.982C539.697 180.952 538.915 183.29 537.878 184.394C537.113 185.223 537.448 186.493 538.421 186.493C539.091 186.493 539.92 185.444 540.717 183.584C541.467 181.854 541.659 180.676 541.579 178.448C541.467 175.834 540.797 173.956 539.394 172.207C538.772 171.434 538.166 171.305 537.735 171.857Z" fill="white"/>
<path d="M537.735 171.857C537.32 172.373 537.416 172.98 537.99 173.809C539.218 175.595 539.697 177.031 539.697 178.982C539.697 180.952 538.915 183.29 537.878 184.394C537.113 185.223 537.448 186.493 538.421 186.493C539.091 186.493 539.92 185.444 540.717 183.584C541.467 181.854 541.659 180.676 541.579 178.448C541.467 175.834 540.797 173.956 539.394 172.207C538.772 171.434 538.166 171.305 537.735 171.857Z" fill="url(#paint12_linear_4087_10351)"/>
<path d="M532.263 177.933C531.737 178.319 531.721 178.853 531.721 190.746V202.62L528.228 202.676C524.384 202.731 524.32 202.749 523.522 204.001C523.203 204.48 523.188 204.737 523.188 210.831C523.188 216.925 523.203 217.183 523.522 217.661C523.698 217.937 524.049 218.342 524.288 218.545C524.719 218.931 524.798 218.931 546.331 218.987C570.574 219.042 568.612 219.134 569.537 217.68L570 216.943V210.831V204.719L569.521 203.964C569.266 203.541 568.883 203.099 568.692 202.97C568.405 202.786 564.848 202.712 551.179 202.639L534.033 202.547L533.985 190.507C533.954 179.608 533.922 178.43 533.682 178.117C533.427 177.785 532.598 177.675 532.263 177.933ZM567.831 205.143C568.054 205.382 568.086 206.155 568.086 210.776C568.086 215.507 568.054 216.188 567.815 216.483C567.576 216.796 566.698 216.814 546.586 216.814C527.287 216.814 525.58 216.796 525.309 216.501C525.038 216.225 525.022 215.802 525.022 210.813C525.022 206.155 525.054 205.382 525.277 205.143C525.5 204.885 527.653 204.848 546.554 204.848C565.454 204.848 567.608 204.885 567.831 205.143Z" fill="white"/>
<path d="M532.263 177.933C531.737 178.319 531.721 178.853 531.721 190.746V202.62L528.228 202.676C524.384 202.731 524.32 202.749 523.522 204.001C523.203 204.48 523.188 204.737 523.188 210.831C523.188 216.925 523.203 217.183 523.522 217.661C523.698 217.937 524.049 218.342 524.288 218.545C524.719 218.931 524.798 218.931 546.331 218.987C570.574 219.042 568.612 219.134 569.537 217.68L570 216.943V210.831V204.719L569.521 203.964C569.266 203.541 568.883 203.099 568.692 202.97C568.405 202.786 564.848 202.712 551.179 202.639L534.033 202.547L533.985 190.507C533.954 179.608 533.922 178.43 533.682 178.117C533.427 177.785 532.598 177.675 532.263 177.933ZM567.831 205.143C568.054 205.382 568.086 206.155 568.086 210.776C568.086 215.507 568.054 216.188 567.815 216.483C567.576 216.796 566.698 216.814 546.586 216.814C527.287 216.814 525.58 216.796 525.309 216.501C525.038 216.225 525.022 215.802 525.022 210.813C525.022 206.155 525.054 205.382 525.277 205.143C525.5 204.885 527.653 204.848 546.554 204.848C565.454 204.848 567.608 204.885 567.831 205.143Z" fill="url(#paint13_linear_4087_10351)"/>
<path d="M918.736 225.923C913.06 229.095 908.37 231.731 908.313 231.78C908.217 231.862 908.211 232.568 908.211 249.588V267.309L908.336 267.505C908.778 268.216 909.64 269.206 910.581 270.092C913.224 272.565 917.409 274.856 920.8 275.687C922.008 275.983 922.048 275.988 923.477 275.988H924.838L932.789 271.547C937.155 269.108 941.743 266.548 942.974 265.859C944.204 265.17 945.287 264.541 945.372 264.454C945.463 264.372 945.554 264.207 945.582 264.087C945.656 263.803 945.656 229.653 945.582 229.368C945.554 229.248 945.486 229.095 945.429 229.018C945.372 228.947 941.805 226.924 937.501 224.517L929.681 220.147L929.363 220.153C929.052 220.153 928.972 220.196 918.736 225.923ZM936.395 225.846C940.235 227.99 943.371 229.757 943.371 229.773C943.371 229.789 939.038 232.223 933.747 235.182L924.118 240.558L923.579 240.526C919.241 240.252 912.952 236.889 910.054 233.29L909.736 232.896L909.98 232.759C914.075 230.462 929.346 221.952 929.38 221.952C929.403 221.952 932.562 223.702 936.395 225.846ZM943.841 263.414C943.785 263.464 924.883 274.019 924.787 274.058C924.73 274.08 924.713 270.776 924.713 257.661L924.719 241.231L934.286 235.888L943.853 230.55L943.87 246.963C943.875 255.993 943.864 263.393 943.841 263.414ZM911.755 236.232C914.29 238.278 917.46 239.962 920.347 240.794C921.498 241.122 922.054 241.226 923.568 241.401L923.806 241.428V257.967V274.512L923.539 274.479C922.349 274.348 921.436 274.151 920.262 273.773C916.15 272.455 911.937 269.628 910.003 266.893L909.742 266.521V253.302V240.083L910.695 240.985C911.801 242.041 912.821 242.85 914.052 243.632C916.292 245.071 918.628 246.077 921.203 246.728C922.229 246.985 922.349 246.99 922.53 246.81C922.797 246.558 922.666 246.175 922.292 246.093C919.003 245.388 915.657 243.856 913.088 241.887C912.379 241.34 911.285 240.367 910.791 239.836C910.338 239.35 910.15 239.24 909.907 239.328L909.742 239.388V236.872V234.356L910.496 235.089C910.905 235.494 911.477 236.008 911.755 236.232Z" fill="black"/>
<path d="M918.736 225.923C913.06 229.095 908.37 231.731 908.313 231.78C908.217 231.862 908.211 232.568 908.211 249.588V267.309L908.336 267.505C908.778 268.216 909.64 269.206 910.581 270.092C913.224 272.565 917.409 274.856 920.8 275.687C922.008 275.983 922.048 275.988 923.477 275.988H924.838L932.789 271.547C937.155 269.108 941.743 266.548 942.974 265.859C944.204 265.17 945.287 264.541 945.372 264.454C945.463 264.372 945.554 264.207 945.582 264.087C945.656 263.803 945.656 229.653 945.582 229.368C945.554 229.248 945.486 229.095 945.429 229.018C945.372 228.947 941.805 226.924 937.501 224.517L929.681 220.147L929.363 220.153C929.052 220.153 928.972 220.196 918.736 225.923ZM936.395 225.846C940.235 227.99 943.371 229.757 943.371 229.773C943.371 229.789 939.038 232.223 933.747 235.182L924.118 240.558L923.579 240.526C919.241 240.252 912.952 236.889 910.054 233.29L909.736 232.896L909.98 232.759C914.075 230.462 929.346 221.952 929.38 221.952C929.403 221.952 932.562 223.702 936.395 225.846ZM943.841 263.414C943.785 263.464 924.883 274.019 924.787 274.058C924.73 274.08 924.713 270.776 924.713 257.661L924.719 241.231L934.286 235.888L943.853 230.55L943.87 246.963C943.875 255.993 943.864 263.393 943.841 263.414ZM911.755 236.232C914.29 238.278 917.46 239.962 920.347 240.794C921.498 241.122 922.054 241.226 923.568 241.401L923.806 241.428V257.967V274.512L923.539 274.479C922.349 274.348 921.436 274.151 920.262 273.773C916.15 272.455 911.937 269.628 910.003 266.893L909.742 266.521V253.302V240.083L910.695 240.985C911.801 242.041 912.821 242.85 914.052 243.632C916.292 245.071 918.628 246.077 921.203 246.728C922.229 246.985 922.349 246.99 922.53 246.81C922.797 246.558 922.666 246.175 922.292 246.093C919.003 245.388 915.657 243.856 913.088 241.887C912.379 241.34 911.285 240.367 910.791 239.836C910.338 239.35 910.15 239.24 909.907 239.328L909.742 239.388V236.872V234.356L910.496 235.089C910.905 235.494 911.477 236.008 911.755 236.232Z" fill="white"/>
<path d="M918.736 225.923C913.06 229.095 908.37 231.731 908.313 231.78C908.217 231.862 908.211 232.568 908.211 249.588V267.309L908.336 267.505C908.778 268.216 909.64 269.206 910.581 270.092C913.224 272.565 917.409 274.856 920.8 275.687C922.008 275.983 922.048 275.988 923.477 275.988H924.838L932.789 271.547C937.155 269.108 941.743 266.548 942.974 265.859C944.204 265.17 945.287 264.541 945.372 264.454C945.463 264.372 945.554 264.207 945.582 264.087C945.656 263.803 945.656 229.653 945.582 229.368C945.554 229.248 945.486 229.095 945.429 229.018C945.372 228.947 941.805 226.924 937.501 224.517L929.681 220.147L929.363 220.153C929.052 220.153 928.972 220.196 918.736 225.923ZM936.395 225.846C940.235 227.99 943.371 229.757 943.371 229.773C943.371 229.789 939.038 232.223 933.747 235.182L924.118 240.558L923.579 240.526C919.241 240.252 912.952 236.889 910.054 233.29L909.736 232.896L909.98 232.759C914.075 230.462 929.346 221.952 929.38 221.952C929.403 221.952 932.562 223.702 936.395 225.846ZM943.841 263.414C943.785 263.464 924.883 274.019 924.787 274.058C924.73 274.08 924.713 270.776 924.713 257.661L924.719 241.231L934.286 235.888L943.853 230.55L943.87 246.963C943.875 255.993 943.864 263.393 943.841 263.414ZM911.755 236.232C914.29 238.278 917.46 239.962 920.347 240.794C921.498 241.122 922.054 241.226 923.568 241.401L923.806 241.428V257.967V274.512L923.539 274.479C922.349 274.348 921.436 274.151 920.262 273.773C916.15 272.455 911.937 269.628 910.003 266.893L909.742 266.521V253.302V240.083L910.695 240.985C911.801 242.041 912.821 242.85 914.052 243.632C916.292 245.071 918.628 246.077 921.203 246.728C922.229 246.985 922.349 246.99 922.53 246.81C922.797 246.558 922.666 246.175 922.292 246.093C919.003 245.388 915.657 243.856 913.088 241.887C912.379 241.34 911.285 240.367 910.791 239.836C910.338 239.35 910.15 239.24 909.907 239.328L909.742 239.388V236.872V234.356L910.496 235.089C910.905 235.494 911.477 236.008 911.755 236.232Z" fill="url(#paint14_linear_4087_10351)"/>
<path d="M909.98 243.516C909.901 243.598 909.855 243.713 909.855 243.838C909.855 244.008 909.924 244.101 910.468 244.648C913.4 247.623 917.341 249.827 921.589 250.855C922.02 250.959 922.428 251.047 922.496 251.047C922.677 251.047 922.899 250.806 922.899 250.62C922.899 250.319 922.768 250.243 921.821 250.013C918.453 249.193 915.197 247.568 912.634 245.43C912.305 245.156 911.687 244.588 911.251 244.161C910.564 243.488 910.445 243.39 910.286 243.39C910.167 243.39 910.06 243.434 909.98 243.516Z" fill="black"/>
<path d="M909.98 243.516C909.901 243.598 909.855 243.713 909.855 243.838C909.855 244.008 909.924 244.101 910.468 244.648C913.4 247.623 917.341 249.827 921.589 250.855C922.02 250.959 922.428 251.047 922.496 251.047C922.677 251.047 922.899 250.806 922.899 250.62C922.899 250.319 922.768 250.243 921.821 250.013C918.453 249.193 915.197 247.568 912.634 245.43C912.305 245.156 911.687 244.588 911.251 244.161C910.564 243.488 910.445 243.39 910.286 243.39C910.167 243.39 910.06 243.434 909.98 243.516Z" fill="white"/>
<path d="M909.98 243.516C909.901 243.598 909.855 243.713 909.855 243.838C909.855 244.008 909.924 244.101 910.468 244.648C913.4 247.623 917.341 249.827 921.589 250.855C922.02 250.959 922.428 251.047 922.496 251.047C922.677 251.047 922.899 250.806 922.899 250.62C922.899 250.319 922.768 250.243 921.821 250.013C918.453 249.193 915.197 247.568 912.634 245.43C912.305 245.156 911.687 244.588 911.251 244.161C910.564 243.488 910.445 243.39 910.286 243.39C910.167 243.39 910.06 243.434 909.98 243.516Z" fill="url(#paint15_linear_4087_10351)"/>
<path d="M911.997 255.375C910.948 255.534 910.205 256.671 910.403 257.809C910.539 258.558 910.959 259.121 911.594 259.4C911.866 259.521 911.963 259.537 912.371 259.515C912.91 259.488 913.199 259.368 913.562 259.012C914.594 258.022 914.322 256.113 913.069 255.539C912.677 255.359 912.394 255.315 911.997 255.375ZM912.649 256.168C913.505 256.584 913.692 257.776 913.006 258.46C912.575 258.892 912.076 258.914 911.617 258.509C911.288 258.23 911.14 257.847 911.169 257.371C911.192 256.934 911.305 256.677 911.571 256.409C911.895 256.086 912.297 255.998 912.649 256.168Z" fill="black"/>
<path d="M911.997 255.375C910.948 255.534 910.205 256.671 910.403 257.809C910.539 258.558 910.959 259.121 911.594 259.4C911.866 259.521 911.963 259.537 912.371 259.515C912.91 259.488 913.199 259.368 913.562 259.012C914.594 258.022 914.322 256.113 913.069 255.539C912.677 255.359 912.394 255.315 911.997 255.375ZM912.649 256.168C913.505 256.584 913.692 257.776 913.006 258.46C912.575 258.892 912.076 258.914 911.617 258.509C911.288 258.23 911.14 257.847 911.169 257.371C911.192 256.934 911.305 256.677 911.571 256.409C911.895 256.086 912.297 255.998 912.649 256.168Z" fill="white"/>
<path d="M911.997 255.375C910.948 255.534 910.205 256.671 910.403 257.809C910.539 258.558 910.959 259.121 911.594 259.4C911.866 259.521 911.963 259.537 912.371 259.515C912.91 259.488 913.199 259.368 913.562 259.012C914.594 258.022 914.322 256.113 913.069 255.539C912.677 255.359 912.394 255.315 911.997 255.375ZM912.649 256.168C913.505 256.584 913.692 257.776 913.006 258.46C912.575 258.892 912.076 258.914 911.617 258.509C911.288 258.23 911.14 257.847 911.169 257.371C911.192 256.934 911.305 256.677 911.571 256.409C911.895 256.086 912.297 255.998 912.649 256.168Z" fill="url(#paint16_linear_4087_10351)"/>
<path d="M911.715 260.785C911.25 260.921 910.734 261.424 910.53 261.944C910.422 262.223 910.393 262.387 910.399 262.781C910.405 263.393 910.547 263.782 910.915 264.176C911.312 264.602 911.596 264.739 912.157 264.766C912.565 264.788 912.662 264.772 912.934 264.651C913.348 264.471 913.683 264.137 913.898 263.694C914.068 263.355 914.08 263.284 914.08 262.753C914.08 262.223 914.068 262.152 913.898 261.813C913.552 261.107 912.979 260.73 912.265 260.735C912.049 260.735 911.8 260.757 911.715 260.785ZM912.565 261.523C912.855 261.643 913.025 261.807 913.178 262.125C913.535 262.852 913.189 263.787 912.486 264.011C911.885 264.203 911.238 263.656 911.176 262.901C911.125 262.289 911.375 261.785 911.845 261.561C912.14 261.419 912.282 261.414 912.565 261.523Z" fill="black"/>
<path d="M911.715 260.785C911.25 260.921 910.734 261.424 910.53 261.944C910.422 262.223 910.393 262.387 910.399 262.781C910.405 263.393 910.547 263.782 910.915 264.176C911.312 264.602 911.596 264.739 912.157 264.766C912.565 264.788 912.662 264.772 912.934 264.651C913.348 264.471 913.683 264.137 913.898 263.694C914.068 263.355 914.08 263.284 914.08 262.753C914.08 262.223 914.068 262.152 913.898 261.813C913.552 261.107 912.979 260.73 912.265 260.735C912.049 260.735 911.8 260.757 911.715 260.785ZM912.565 261.523C912.855 261.643 913.025 261.807 913.178 262.125C913.535 262.852 913.189 263.787 912.486 264.011C911.885 264.203 911.238 263.656 911.176 262.901C911.125 262.289 911.375 261.785 911.845 261.561C912.14 261.419 912.282 261.414 912.565 261.523Z" fill="white"/>
<path d="M911.715 260.785C911.25 260.921 910.734 261.424 910.53 261.944C910.422 262.223 910.393 262.387 910.399 262.781C910.405 263.393 910.547 263.782 910.915 264.176C911.312 264.602 911.596 264.739 912.157 264.766C912.565 264.788 912.662 264.772 912.934 264.651C913.348 264.471 913.683 264.137 913.898 263.694C914.068 263.355 914.08 263.284 914.08 262.753C914.08 262.223 914.068 262.152 913.898 261.813C913.552 261.107 912.979 260.73 912.265 260.735C912.049 260.735 911.8 260.757 911.715 260.785ZM912.565 261.523C912.855 261.643 913.025 261.807 913.178 262.125C913.535 262.852 913.189 263.787 912.486 264.011C911.885 264.203 911.238 263.656 911.176 262.901C911.125 262.289 911.375 261.785 911.845 261.561C912.14 261.419 912.282 261.414 912.565 261.523Z" fill="url(#paint17_linear_4087_10351)"/>
<g opacity="0.42">
<g opacity="0.25" filter="url(#filter12_d_4087_10351)">
<ellipse cx="927.381" cy="143.011" rx="48.3807" ry="47.0115" fill="white"/>
</g>
<g opacity="0.73" filter="url(#filter13_d_4087_10351)">
<ellipse cx="927.88" cy="142.922" rx="33.3412" ry="31.6975" fill="white"/>
</g>
<g opacity="0.41" filter="url(#filter14_d_4087_10351)">
<ellipse cx="927.606" cy="143.055" rx="22.0903" ry="21.307" fill="white"/>
</g>
</g>
<path d="M919.305 120.787C913.815 123.959 909.279 126.595 909.224 126.644C909.13 126.727 909.125 127.432 909.125 144.452V162.173L909.246 162.37C909.673 163.081 910.507 164.071 911.418 164.957C913.974 167.429 918.021 169.72 921.301 170.552C922.47 170.847 922.508 170.853 923.89 170.853H925.207L932.896 166.411C937.12 163.972 941.557 161.413 942.747 160.723C943.937 160.034 944.985 159.405 945.067 159.318C945.155 159.236 945.243 159.072 945.27 158.951C945.341 158.667 945.341 124.517 945.27 124.233C945.243 124.112 945.177 123.959 945.122 123.883C945.067 123.811 941.617 121.788 937.454 119.381L929.891 115.011L929.583 115.017C929.282 115.017 929.205 115.061 919.305 120.787ZM936.385 120.71C940.098 122.854 943.131 124.621 943.131 124.637C943.131 124.654 938.941 127.087 933.823 130.046L924.51 135.423L923.989 135.39C919.793 135.116 913.71 131.753 910.908 128.154L910.6 127.76L910.836 127.623C914.796 125.326 929.567 116.816 929.6 116.816C929.622 116.816 932.677 118.566 936.385 120.71ZM943.586 158.279C943.531 158.328 925.25 168.884 925.157 168.922C925.102 168.944 925.086 165.64 925.086 152.525L925.091 136.095L934.344 130.752L943.597 125.414L943.614 141.827C943.619 150.857 943.608 158.257 943.586 158.279ZM912.553 131.096C915.005 133.142 918.071 134.827 920.863 135.658C921.976 135.986 922.514 136.09 923.978 136.265L924.208 136.292V152.831V169.376L923.951 169.343C922.799 169.212 921.916 169.015 920.78 168.637C916.804 167.319 912.729 164.492 910.858 161.757L910.606 161.385V148.166V134.947L911.527 135.849C912.597 136.905 913.584 137.714 914.774 138.496C916.941 139.935 919.201 140.941 921.691 141.592C922.684 141.849 922.799 141.855 922.974 141.674C923.232 141.422 923.106 141.04 922.744 140.958C919.563 140.252 916.327 138.721 913.842 136.752C913.156 136.205 912.098 135.231 911.621 134.701C911.182 134.214 911.001 134.105 910.765 134.192L910.606 134.252V131.736V129.221L911.335 129.953C911.73 130.358 912.284 130.872 912.553 131.096Z" fill="black"/>
<path d="M919.305 120.787C913.815 123.959 909.279 126.595 909.224 126.644C909.13 126.727 909.125 127.432 909.125 144.452V162.173L909.246 162.37C909.673 163.081 910.507 164.071 911.418 164.957C913.974 167.429 918.021 169.72 921.301 170.552C922.47 170.847 922.508 170.853 923.89 170.853H925.207L932.896 166.411C937.12 163.972 941.557 161.413 942.747 160.723C943.937 160.034 944.985 159.405 945.067 159.318C945.155 159.236 945.243 159.072 945.27 158.951C945.341 158.667 945.341 124.517 945.27 124.233C945.243 124.112 945.177 123.959 945.122 123.883C945.067 123.811 941.617 121.788 937.454 119.381L929.891 115.011L929.583 115.017C929.282 115.017 929.205 115.061 919.305 120.787ZM936.385 120.71C940.098 122.854 943.131 124.621 943.131 124.637C943.131 124.654 938.941 127.087 933.823 130.046L924.51 135.423L923.989 135.39C919.793 135.116 913.71 131.753 910.908 128.154L910.6 127.76L910.836 127.623C914.796 125.326 929.567 116.816 929.6 116.816C929.622 116.816 932.677 118.566 936.385 120.71ZM943.586 158.279C943.531 158.328 925.25 168.884 925.157 168.922C925.102 168.944 925.086 165.64 925.086 152.525L925.091 136.095L934.344 130.752L943.597 125.414L943.614 141.827C943.619 150.857 943.608 158.257 943.586 158.279ZM912.553 131.096C915.005 133.142 918.071 134.827 920.863 135.658C921.976 135.986 922.514 136.09 923.978 136.265L924.208 136.292V152.831V169.376L923.951 169.343C922.799 169.212 921.916 169.015 920.78 168.637C916.804 167.319 912.729 164.492 910.858 161.757L910.606 161.385V148.166V134.947L911.527 135.849C912.597 136.905 913.584 137.714 914.774 138.496C916.941 139.935 919.201 140.941 921.691 141.592C922.684 141.849 922.799 141.855 922.974 141.674C923.232 141.422 923.106 141.04 922.744 140.958C919.563 140.252 916.327 138.721 913.842 136.752C913.156 136.205 912.098 135.231 911.621 134.701C911.182 134.214 911.001 134.105 910.765 134.192L910.606 134.252V131.736V129.221L911.335 129.953C911.73 130.358 912.284 130.872 912.553 131.096Z" fill="white"/>
<path d="M919.305 120.787C913.815 123.959 909.279 126.595 909.224 126.644C909.13 126.727 909.125 127.432 909.125 144.452V162.173L909.246 162.37C909.673 163.081 910.507 164.071 911.418 164.957C913.974 167.429 918.021 169.72 921.301 170.552C922.47 170.847 922.508 170.853 923.89 170.853H925.207L932.896 166.411C937.12 163.972 941.557 161.413 942.747 160.723C943.937 160.034 944.985 159.405 945.067 159.318C945.155 159.236 945.243 159.072 945.27 158.951C945.341 158.667 945.341 124.517 945.27 124.233C945.243 124.112 945.177 123.959 945.122 123.883C945.067 123.811 941.617 121.788 937.454 119.381L929.891 115.011L929.583 115.017C929.282 115.017 929.205 115.061 919.305 120.787ZM936.385 120.71C940.098 122.854 943.131 124.621 943.131 124.637C943.131 124.654 938.941 127.087 933.823 130.046L924.51 135.423L923.989 135.39C919.793 135.116 913.71 131.753 910.908 128.154L910.6 127.76L910.836 127.623C914.796 125.326 929.567 116.816 929.6 116.816C929.622 116.816 932.677 118.566 936.385 120.71ZM943.586 158.279C943.531 158.328 925.25 168.884 925.157 168.922C925.102 168.944 925.086 165.64 925.086 152.525L925.091 136.095L934.344 130.752L943.597 125.414L943.614 141.827C943.619 150.857 943.608 158.257 943.586 158.279ZM912.553 131.096C915.005 133.142 918.071 134.827 920.863 135.658C921.976 135.986 922.514 136.09 923.978 136.265L924.208 136.292V152.831V169.376L923.951 169.343C922.799 169.212 921.916 169.015 920.78 168.637C916.804 167.319 912.729 164.492 910.858 161.757L910.606 161.385V148.166V134.947L911.527 135.849C912.597 136.905 913.584 137.714 914.774 138.496C916.941 139.935 919.201 140.941 921.691 141.592C922.684 141.849 922.799 141.855 922.974 141.674C923.232 141.422 923.106 141.04 922.744 140.958C919.563 140.252 916.327 138.721 913.842 136.752C913.156 136.205 912.098 135.231 911.621 134.701C911.182 134.214 911.001 134.105 910.765 134.192L910.606 134.252V131.736V129.221L911.335 129.953C911.73 130.358 912.284 130.872 912.553 131.096Z" fill="url(#paint18_linear_4087_10351)"/>
<path d="M910.836 138.38C910.759 138.462 910.715 138.577 910.715 138.703C910.715 138.872 910.781 138.965 911.307 139.512C914.143 142.487 917.955 144.691 922.063 145.72C922.48 145.824 922.875 145.911 922.941 145.911C923.116 145.911 923.33 145.67 923.33 145.485C923.33 145.184 923.204 145.107 922.288 144.877C919.03 144.057 915.882 142.433 913.402 140.294C913.084 140.021 912.486 139.452 912.064 139.025C911.4 138.353 911.285 138.254 911.132 138.254C911.017 138.254 910.912 138.298 910.836 138.38Z" fill="black"/>
<path d="M910.836 138.38C910.759 138.462 910.715 138.577 910.715 138.703C910.715 138.872 910.781 138.965 911.307 139.512C914.143 142.487 917.955 144.691 922.063 145.72C922.48 145.824 922.875 145.911 922.941 145.911C923.116 145.911 923.33 145.67 923.33 145.485C923.33 145.184 923.204 145.107 922.288 144.877C919.03 144.057 915.882 142.433 913.402 140.294C913.084 140.021 912.486 139.452 912.064 139.025C911.4 138.353 911.285 138.254 911.132 138.254C911.017 138.254 910.912 138.298 910.836 138.38Z" fill="white"/>
<path d="M910.836 138.38C910.759 138.462 910.715 138.577 910.715 138.703C910.715 138.872 910.781 138.965 911.307 139.512C914.143 142.487 917.955 144.691 922.063 145.72C922.48 145.824 922.875 145.911 922.941 145.911C923.116 145.911 923.33 145.67 923.33 145.485C923.33 145.184 923.204 145.107 922.288 144.877C919.03 144.057 915.882 142.433 913.402 140.294C913.084 140.021 912.486 139.452 912.064 139.025C911.4 138.353 911.285 138.254 911.132 138.254C911.017 138.254 910.912 138.298 910.836 138.38Z" fill="url(#paint19_linear_4087_10351)"/>
<path d="M912.787 150.239C911.773 150.398 911.054 151.535 911.246 152.673C911.378 153.422 911.783 153.986 912.398 154.265C912.661 154.385 912.754 154.401 913.149 154.379C913.67 154.352 913.95 154.232 914.301 153.876C915.299 152.886 915.036 150.978 913.824 150.403C913.445 150.223 913.171 150.179 912.787 150.239ZM913.418 151.032C914.246 151.448 914.427 152.64 913.764 153.324C913.347 153.756 912.864 153.778 912.42 153.373C912.102 153.094 911.959 152.711 911.986 152.236C912.008 151.798 912.118 151.541 912.376 151.273C912.688 150.95 913.078 150.863 913.418 151.032Z" fill="black"/>
<path d="M912.787 150.239C911.773 150.398 911.054 151.535 911.246 152.673C911.378 153.422 911.783 153.986 912.398 154.265C912.661 154.385 912.754 154.401 913.149 154.379C913.67 154.352 913.95 154.232 914.301 153.876C915.299 152.886 915.036 150.978 913.824 150.403C913.445 150.223 913.171 150.179 912.787 150.239ZM913.418 151.032C914.246 151.448 914.427 152.64 913.764 153.324C913.347 153.756 912.864 153.778 912.42 153.373C912.102 153.094 911.959 152.711 911.986 152.236C912.008 151.798 912.118 151.541 912.376 151.273C912.688 150.95 913.078 150.863 913.418 151.032Z" fill="white"/>
<path d="M912.787 150.239C911.773 150.398 911.054 151.535 911.246 152.673C911.378 153.422 911.783 153.986 912.398 154.265C912.661 154.385 912.754 154.401 913.149 154.379C913.67 154.352 913.95 154.232 914.301 153.876C915.299 152.886 915.036 150.978 913.824 150.403C913.445 150.223 913.171 150.179 912.787 150.239ZM913.418 151.032C914.246 151.448 914.427 152.64 913.764 153.324C913.347 153.756 912.864 153.778 912.42 153.373C912.102 153.094 911.959 152.711 911.986 152.236C912.008 151.798 912.118 151.541 912.376 151.273C912.688 150.95 913.078 150.863 913.418 151.032Z" fill="url(#paint20_linear_4087_10351)"/>
<path d="M912.515 155.649C912.066 155.786 911.566 156.289 911.369 156.808C911.265 157.087 911.237 157.251 911.243 157.645C911.248 158.258 911.385 158.646 911.742 159.04C912.126 159.466 912.4 159.603 912.943 159.63C913.338 159.652 913.431 159.636 913.695 159.516C914.095 159.335 914.419 159.001 914.627 158.558C914.792 158.219 914.803 158.148 914.803 157.618C914.803 157.087 914.792 157.016 914.627 156.677C914.292 155.972 913.738 155.594 913.047 155.6C912.839 155.6 912.598 155.621 912.515 155.649ZM913.338 156.387C913.618 156.507 913.782 156.672 913.93 156.989C914.276 157.716 913.941 158.651 913.261 158.876C912.68 159.067 912.055 158.52 911.994 157.765C911.945 157.153 912.186 156.65 912.641 156.425C912.927 156.283 913.064 156.278 913.338 156.387Z" fill="black"/>
<path d="M912.515 155.649C912.066 155.786 911.566 156.289 911.369 156.808C911.265 157.087 911.237 157.251 911.243 157.645C911.248 158.258 911.385 158.646 911.742 159.04C912.126 159.466 912.4 159.603 912.943 159.63C913.338 159.652 913.431 159.636 913.695 159.516C914.095 159.335 914.419 159.001 914.627 158.558C914.792 158.219 914.803 158.148 914.803 157.618C914.803 157.087 914.792 157.016 914.627 156.677C914.292 155.972 913.738 155.594 913.047 155.6C912.839 155.6 912.598 155.621 912.515 155.649ZM913.338 156.387C913.618 156.507 913.782 156.672 913.93 156.989C914.276 157.716 913.941 158.651 913.261 158.876C912.68 159.067 912.055 158.52 911.994 157.765C911.945 157.153 912.186 156.65 912.641 156.425C912.927 156.283 913.064 156.278 913.338 156.387Z" fill="white"/>
<path d="M912.515 155.649C912.066 155.786 911.566 156.289 911.369 156.808C911.265 157.087 911.237 157.251 911.243 157.645C911.248 158.258 911.385 158.646 911.742 159.04C912.126 159.466 912.4 159.603 912.943 159.63C913.338 159.652 913.431 159.636 913.695 159.516C914.095 159.335 914.419 159.001 914.627 158.558C914.792 158.219 914.803 158.148 914.803 157.618C914.803 157.087 914.792 157.016 914.627 156.677C914.292 155.972 913.738 155.594 913.047 155.6C912.839 155.6 912.598 155.621 912.515 155.649ZM913.338 156.387C913.618 156.507 913.782 156.672 913.93 156.989C914.276 157.716 913.941 158.651 913.261 158.876C912.68 159.067 912.055 158.52 911.994 157.765C911.945 157.153 912.186 156.65 912.641 156.425C912.927 156.283 913.064 156.278 913.338 156.387Z" fill="url(#paint21_linear_4087_10351)"/>
<ellipse cx="315.5" cy="159" rx="9.5" ry="9" fill="white"/>
<path d="M326.5 159C326.5 164.778 321.596 169.5 315.5 169.5C309.404 169.5 304.5 164.778 304.5 159C304.5 153.222 309.404 148.5 315.5 148.5C321.596 148.5 326.5 153.222 326.5 159Z" fill="white" stroke="#4283AB"/>
<path d="M320.032 160.124H316.601V163.874H315.458V160.124H312.027V158.874H315.458V155.124H316.601V158.874H320.032V160.124Z" fill="#074287"/>
<path d="M1100.5 157C1100.5 162.778 1095.6 167.5 1089.5 167.5C1083.4 167.5 1078.5 162.778 1078.5 157C1078.5 151.222 1083.4 146.5 1089.5 146.5C1095.6 146.5 1100.5 151.222 1100.5 157Z" fill="white" stroke="#4283AB"/>
<path d="M1094.03 158.124H1090.6V161.874H1089.46V158.124H1086.03V156.874H1089.46V153.124H1090.6V156.874H1094.03V158.124Z" fill="#074287"/>
<path d="M714.5 157C714.5 162.778 709.596 167.5 703.5 167.5C697.404 167.5 692.5 162.778 692.5 157C692.5 151.222 697.404 146.5 703.5 146.5C709.596 146.5 714.5 151.222 714.5 157Z" fill="white" stroke="#4283AB"/>
<path d="M708.032 158.124H704.601V161.874H703.458V158.124H700.027V156.874H703.458V153.124H704.601V156.874H708.032V158.124Z" fill="#074287"/>
<path d="M1332.24 198.451C1334.9 198.451 1337.07 195.722 1337.07 192.387V162.064C1337.07 158.729 1334.9 156 1332.24 156H1293.65C1291 156 1288.82 158.729 1288.82 162.064V192.387C1288.82 195.722 1291 198.451 1293.65 198.451H1284V204.516H1341.89V198.451H1332.24ZM1293.65 162.064H1332.24V192.387H1293.65V162.064Z" fill="url(#paint22_linear_4087_10351)"/>
<path d="M887.176 151.274C888.432 153.939 891.61 155.08 894.274 153.824C896.939 152.568 898.08 149.39 896.824 146.726C895.568 144.061 892.39 142.92 889.726 144.176C887.061 145.432 885.92 148.61 887.176 151.274ZM822.426 182.905L826.801 180.842L825.949 179.033L821.574 181.095L822.426 182.905ZM835.551 176.717L844.301 172.592L843.449 170.783L834.699 174.908L835.551 176.717ZM853.051 168.467L861.801 164.342L860.949 162.533L852.199 166.658L853.051 168.467ZM870.551 160.217L879.301 156.092L878.449 154.283L869.699 158.408L870.551 160.217ZM888.051 151.967L892.426 149.905L891.574 148.095L887.199 150.158L888.051 151.967ZM887.176 151.274C888.432 153.939 891.61 155.08 894.274 153.824C896.939 152.568 898.08 149.39 896.824 146.726C895.568 144.061 892.39 142.92 889.726 144.176C887.061 145.432 885.92 148.61 887.176 151.274ZM822.426 182.905L826.801 180.842L825.949 179.033L821.574 181.095L822.426 182.905ZM835.551 176.717L844.301 172.592L843.449 170.783L834.699 174.908L835.551 176.717ZM853.051 168.467L861.801 164.342L860.949 162.533L852.199 166.658L853.051 168.467ZM870.551 160.217L879.301 156.092L878.449 154.283L869.699 158.408L870.551 160.217ZM888.051 151.967L892.426 149.905L891.574 148.095L887.199 150.158L888.051 151.967Z" fill="url(#paint23_linear_4087_10351)"/>
<path d="M887.176 151.274C888.432 153.939 891.61 155.08 894.274 153.824C896.939 152.568 898.08 149.39 896.824 146.726C895.568 144.061 892.39 142.92 889.726 144.176C887.061 145.432 885.92 148.61 887.176 151.274ZM822.426 182.905L826.801 180.842L825.949 179.033L821.574 181.095L822.426 182.905ZM835.551 176.717L844.301 172.592L843.449 170.783L834.699 174.908L835.551 176.717ZM853.051 168.467L861.801 164.342L860.949 162.533L852.199 166.658L853.051 168.467ZM870.551 160.217L879.301 156.092L878.449 154.283L869.699 158.408L870.551 160.217ZM888.051 151.967L892.426 149.905L891.574 148.095L887.199 150.158L888.051 151.967ZM887.176 151.274C888.432 153.939 891.61 155.08 894.274 153.824C896.939 152.568 898.08 149.39 896.824 146.726C895.568 144.061 892.39 142.92 889.726 144.176C887.061 145.432 885.92 148.61 887.176 151.274ZM822.426 182.905L826.801 180.842L825.949 179.033L821.574 181.095L822.426 182.905ZM835.551 176.717L844.301 172.592L843.449 170.783L834.699 174.908L835.551 176.717ZM853.051 168.467L861.801 164.342L860.949 162.533L852.199 166.658L853.051 168.467ZM870.551 160.217L879.301 156.092L878.449 154.283L869.699 158.408L870.551 160.217ZM888.051 151.967L892.426 149.905L891.574 148.095L887.199 150.158L888.051 151.967Z" fill="white" fill-opacity="0.15"/>
<path d="M881.783 243.735C879.98 246.064 880.406 249.414 882.735 251.217C885.064 253.02 888.414 252.594 890.217 250.265C892.02 247.936 891.594 244.586 889.265 242.783C886.936 240.98 883.586 241.406 881.783 243.735ZM823.388 199.791L827.263 202.791L828.487 201.209L824.612 198.209L823.388 199.791ZM835.013 208.791L842.763 214.791L843.987 213.209L836.237 207.209L835.013 208.791ZM850.513 220.791L858.263 226.791L859.487 225.209L851.737 219.209L850.513 220.791ZM866.013 232.791L873.763 238.791L874.987 237.209L867.237 231.209L866.013 232.791ZM881.513 244.791L885.388 247.791L886.612 246.209L882.737 243.209L881.513 244.791ZM881.783 243.735C879.98 246.064 880.406 249.414 882.735 251.217C885.064 253.02 888.414 252.594 890.217 250.265C892.02 247.936 891.594 244.586 889.265 242.783C886.936 240.98 883.586 241.406 881.783 243.735ZM823.388 199.791L827.263 202.791L828.487 201.209L824.612 198.209L823.388 199.791ZM835.013 208.791L842.763 214.791L843.987 213.209L836.237 207.209L835.013 208.791ZM850.513 220.791L858.263 226.791L859.487 225.209L851.737 219.209L850.513 220.791ZM866.013 232.791L873.763 238.791L874.987 237.209L867.237 231.209L866.013 232.791ZM881.513 244.791L885.388 247.791L886.612 246.209L882.737 243.209L881.513 244.791Z" fill="url(#paint24_linear_4087_10351)"/>
<path d="M881.783 243.735C879.98 246.064 880.406 249.414 882.735 251.217C885.064 253.02 888.414 252.594 890.217 250.265C892.02 247.936 891.594 244.586 889.265 242.783C886.936 240.98 883.586 241.406 881.783 243.735ZM823.388 199.791L827.263 202.791L828.487 201.209L824.612 198.209L823.388 199.791ZM835.013 208.791L842.763 214.791L843.987 213.209L836.237 207.209L835.013 208.791ZM850.513 220.791L858.263 226.791L859.487 225.209L851.737 219.209L850.513 220.791ZM866.013 232.791L873.763 238.791L874.987 237.209L867.237 231.209L866.013 232.791ZM881.513 244.791L885.388 247.791L886.612 246.209L882.737 243.209L881.513 244.791ZM881.783 243.735C879.98 246.064 880.406 249.414 882.735 251.217C885.064 253.02 888.414 252.594 890.217 250.265C892.02 247.936 891.594 244.586 889.265 242.783C886.936 240.98 883.586 241.406 881.783 243.735ZM823.388 199.791L827.263 202.791L828.487 201.209L824.612 198.209L823.388 199.791ZM835.013 208.791L842.763 214.791L843.987 213.209L836.237 207.209L835.013 208.791ZM850.513 220.791L858.263 226.791L859.487 225.209L851.737 219.209L850.513 220.791ZM866.013 232.791L873.763 238.791L874.987 237.209L867.237 231.209L866.013 232.791ZM881.513 244.791L885.388 247.791L886.612 246.209L882.737 243.209L881.513 244.791Z" fill="white" fill-opacity="0.15"/>
<defs>
<filter id="filter0_d_4087_10351" x="381.1" y="43.1" width="307.062" height="303.8" filterUnits="userSpaceOnUse" color-interpolation-filters="sRGB">
<feFlood flood-opacity="0" result="BackgroundImageFix"/>
<feColorMatrix in="SourceAlpha" type="matrix" values="0 0 0 0 0 0 0 0 0 0 0 0 0 0 0 0 0 0 127 0" result="hardAlpha"/>
<feOffset dx="-6"/>
<feGaussianBlur stdDeviation="47.95"/>
<feComposite in2="hardAlpha" operator="out"/>
<feColorMatrix type="matrix" values="0 0 0 0 0.192157 0 0 0 0 0.466667 0 0 0 0 0.882353 0 0 0 0.39 0"/>
<feBlend mode="normal" in2="BackgroundImageFix" result="effect1_dropShadow_4087_10351"/>
<feBlend mode="normal" in="SourceGraphic" in2="effect1_dropShadow_4087_10351" result="shape"/>
</filter>
<filter id="filter1_d_4087_10351" x="399.612" y="61.2357" width="271.234" height="267.316" filterUnits="userSpaceOnUse" color-interpolation-filters="sRGB">
<feFlood flood-opacity="0" result="BackgroundImageFix"/>
<feColorMatrix in="SourceAlpha" type="matrix" values="0 0 0 0 0 0 0 0 0 0 0 0 0 0 0 0 0 0 127 0" result="hardAlpha"/>
<feOffset dx="-6"/>
<feGaussianBlur stdDeviation="47.95"/>
<feComposite in2="hardAlpha" operator="out"/>
<feColorMatrix type="matrix" values="0 0 0 0 0.192157 0 0 0 0 0.466667 0 0 0 0 0.882353 0 0 0 0.2 0"/>
<feBlend mode="normal" in2="BackgroundImageFix" result="effect1_dropShadow_4087_10351"/>
<feBlend mode="normal" in="SourceGraphic" in2="effect1_dropShadow_4087_10351" result="shape"/>
</filter>
<filter id="filter2_d_4087_10351" x="454.886" y="109.971" width="172.029" height="170.162" filterUnits="userSpaceOnUse" color-interpolation-filters="sRGB">
<feFlood flood-opacity="0" result="BackgroundImageFix"/>
<feColorMatrix in="SourceAlpha" type="matrix" values="0 0 0 0 0 0 0 0 0 0 0 0 0 0 0 0 0 0 127 0" result="hardAlpha"/>
<feOffset/>
<feGaussianBlur stdDeviation="29.85"/>
<feComposite in2="hardAlpha" operator="out"/>
<feColorMatrix type="matrix" values="0 0 0 0 0.192157 0 0 0 0 0.466667 0 0 0 0 0.882353 0 0 0 0.47 0"/>
<feBlend mode="normal" in2="BackgroundImageFix" result="effect1_dropShadow_4087_10351"/>
<feBlend mode="normal" in="SourceGraphic" in2="effect1_dropShadow_4087_10351" result="shape"/>
</filter>
<filter id="filter3_d_4087_10351" x="1133.1" y="19.1" width="337.777" height="333.644" filterUnits="userSpaceOnUse" color-interpolation-filters="sRGB">
<feFlood flood-opacity="0" result="BackgroundImageFix"/>
<feColorMatrix in="SourceAlpha" type="matrix" values="0 0 0 0 0 0 0 0 0 0 0 0 0 0 0 0 0 0 127 0" result="hardAlpha"/>
<feOffset dx="-6"/>
<feGaussianBlur stdDeviation="47.95"/>
<feComposite in2="hardAlpha" operator="out"/>
<feColorMatrix type="matrix" values="0 0 0 0 0.192157 0 0 0 0 0.466667 0 0 0 0 0.882353 0 0 0 0.39 0"/>
<feBlend mode="normal" in2="BackgroundImageFix" result="effect1_dropShadow_4087_10351"/>
<feBlend mode="normal" in="SourceGraphic" in2="effect1_dropShadow_4087_10351" result="shape"/>
</filter>
<filter id="filter4_d_4087_10351" x="1156.55" y="42.0687" width="292.398" height="287.439" filterUnits="userSpaceOnUse" color-interpolation-filters="sRGB">
<feFlood flood-opacity="0" result="BackgroundImageFix"/>
<feColorMatrix in="SourceAlpha" type="matrix" values="0 0 0 0 0 0 0 0 0 0 0 0 0 0 0 0 0 0 127 0" result="hardAlpha"/>
<feOffset dx="-6"/>
<feGaussianBlur stdDeviation="47.95"/>
<feComposite in2="hardAlpha" operator="out"/>
<feColorMatrix type="matrix" values="0 0 0 0 0.192157 0 0 0 0 0.466667 0 0 0 0 0.882353 0 0 0 0.2 0"/>
<feBlend mode="normal" in2="BackgroundImageFix" result="effect1_dropShadow_4087_10351"/>
<feBlend mode="normal" in="SourceGraphic" in2="effect1_dropShadow_4087_10351" result="shape"/>
</filter>
<filter id="filter5_d_4087_10351" x="1215.3" y="94.1428" width="186.052" height="183.688" filterUnits="userSpaceOnUse" color-interpolation-filters="sRGB">
<feFlood flood-opacity="0" result="BackgroundImageFix"/>
<feColorMatrix in="SourceAlpha" type="matrix" values="0 0 0 0 0 0 0 0 0 0 0 0 0 0 0 0 0 0 127 0" result="hardAlpha"/>
<feOffset/>
<feGaussianBlur stdDeviation="29.85"/>
<feComposite in2="hardAlpha" operator="out"/>
<feColorMatrix type="matrix" values="0 0 0 0 0.192157 0 0 0 0 0.466667 0 0 0 0 0.882353 0 0 0 0.47 0"/>
<feBlend mode="normal" in2="BackgroundImageFix" result="effect1_dropShadow_4087_10351"/>
<feBlend mode="normal" in="SourceGraphic" in2="effect1_dropShadow_4087_10351" result="shape"/>
</filter>
<filter id="filter6_d_4087_10351" x="777.1" y="105.077" width="288.562" height="285.822" filterUnits="userSpaceOnUse" color-interpolation-filters="sRGB">
<feFlood flood-opacity="0" result="BackgroundImageFix"/>
<feColorMatrix in="SourceAlpha" type="matrix" values="0 0 0 0 0 0 0 0 0 0 0 0 0 0 0 0 0 0 127 0" result="hardAlpha"/>
<feOffset dx="-6"/>
<feGaussianBlur stdDeviation="47.95"/>
<feComposite in2="hardAlpha" operator="out"/>
<feColorMatrix type="matrix" values="0 0 0 0 0.192157 0 0 0 0 0.466667 0 0 0 0 0.882353 0 0 0 0.39 0"/>
<feBlend mode="normal" in2="BackgroundImageFix" result="effect1_dropShadow_4087_10351"/>
<feBlend mode="normal" in="SourceGraphic" in2="effect1_dropShadow_4087_10351" result="shape"/>
</filter>
<filter id="filter7_d_4087_10351" x="792.639" y="120.301" width="258.484" height="255.195" filterUnits="userSpaceOnUse" color-interpolation-filters="sRGB">
<feFlood flood-opacity="0" result="BackgroundImageFix"/>
<feColorMatrix in="SourceAlpha" type="matrix" values="0 0 0 0 0 0 0 0 0 0 0 0 0 0 0 0 0 0 127 0" result="hardAlpha"/>
<feOffset dx="-6"/>
<feGaussianBlur stdDeviation="47.95"/>
<feComposite in2="hardAlpha" operator="out"/>
<feColorMatrix type="matrix" values="0 0 0 0 0.192157 0 0 0 0 0.466667 0 0 0 0 0.882353 0 0 0 0.2 0"/>
<feBlend mode="normal" in2="BackgroundImageFix" result="effect1_dropShadow_4087_10351"/>
<feBlend mode="normal" in="SourceGraphic" in2="effect1_dropShadow_4087_10351" result="shape"/>
</filter>
<filter id="filter8_d_4087_10351" x="845.816" y="167.025" width="163.58" height="162.014" filterUnits="userSpaceOnUse" color-interpolation-filters="sRGB">
<feFlood flood-opacity="0" result="BackgroundImageFix"/>
<feColorMatrix in="SourceAlpha" type="matrix" values="0 0 0 0 0 0 0 0 0 0 0 0 0 0 0 0 0 0 127 0" result="hardAlpha"/>
<feOffset/>
<feGaussianBlur stdDeviation="29.85"/>
<feComposite in2="hardAlpha" operator="out"/>
<feColorMatrix type="matrix" values="0 0 0 0 0.192157 0 0 0 0 0.466667 0 0 0 0 0.882353 0 0 0 0.47 0"/>
<feBlend mode="normal" in2="BackgroundImageFix" result="effect1_dropShadow_4087_10351"/>
<feBlend mode="normal" in="SourceGraphic" in2="effect1_dropShadow_4087_10351" result="shape"/>
</filter>
<filter id="filter9_d_4087_10351" x="0.0999985" y="44.1" width="305.003" height="301.8" filterUnits="userSpaceOnUse" color-interpolation-filters="sRGB">
<feFlood flood-opacity="0" result="BackgroundImageFix"/>
<feColorMatrix in="SourceAlpha" type="matrix" values="0 0 0 0 0 0 0 0 0 0 0 0 0 0 0 0 0 0 127 0" result="hardAlpha"/>
<feOffset dx="-6"/>
<feGaussianBlur stdDeviation="47.95"/>
<feComposite in2="hardAlpha" operator="out"/>
<feColorMatrix type="matrix" values="0 0 0 0 0.192157 0 0 0 0 0.466667 0 0 0 0 0.882353 0 0 0 0.39 0"/>
<feBlend mode="normal" in2="BackgroundImageFix" result="effect1_dropShadow_4087_10351"/>
<feBlend mode="normal" in="SourceGraphic" in2="effect1_dropShadow_4087_10351" result="shape"/>
</filter>
<filter id="filter10_d_4087_10351" x="18.2797" y="61.9115" width="269.812" height="265.968" filterUnits="userSpaceOnUse" color-interpolation-filters="sRGB">
<feFlood flood-opacity="0" result="BackgroundImageFix"/>
<feColorMatrix in="SourceAlpha" type="matrix" values="0 0 0 0 0 0 0 0 0 0 0 0 0 0 0 0 0 0 127 0" result="hardAlpha"/>
<feOffset dx="-6"/>
<feGaussianBlur stdDeviation="47.95"/>
<feComposite in2="hardAlpha" operator="out"/>
<feColorMatrix type="matrix" values="0 0 0 0 0.192157 0 0 0 0 0.466667 0 0 0 0 0.882353 0 0 0 0.2 0"/>
<feBlend mode="normal" in2="BackgroundImageFix" result="effect1_dropShadow_4087_10351"/>
<feBlend mode="normal" in="SourceGraphic" in2="effect1_dropShadow_4087_10351" result="shape"/>
</filter>
<filter id="filter11_d_4087_10351" x="73.3234" y="110.423" width="171.088" height="169.255" filterUnits="userSpaceOnUse" color-interpolation-filters="sRGB">
<feFlood flood-opacity="0" result="BackgroundImageFix"/>
<feColorMatrix in="SourceAlpha" type="matrix" values="0 0 0 0 0 0 0 0 0 0 0 0 0 0 0 0 0 0 127 0" result="hardAlpha"/>
<feOffset/>
<feGaussianBlur stdDeviation="29.85"/>
<feComposite in2="hardAlpha" operator="out"/>
<feColorMatrix type="matrix" values="0 0 0 0 0.192157 0 0 0 0 0.466667 0 0 0 0 0.882353 0 0 0 0.47 0"/>
<feBlend mode="normal" in2="BackgroundImageFix" result="effect1_dropShadow_4087_10351"/>
<feBlend mode="normal" in="SourceGraphic" in2="effect1_dropShadow_4087_10351" result="shape"/>
</filter>
<filter id="filter12_d_4087_10351" x="777.1" y="0.0999985" width="288.562" height="285.822" filterUnits="userSpaceOnUse" color-interpolation-filters="sRGB">
<feFlood flood-opacity="0" result="BackgroundImageFix"/>
<feColorMatrix in="SourceAlpha" type="matrix" values="0 0 0 0 0 0 0 0 0 0 0 0 0 0 0 0 0 0 127 0" result="hardAlpha"/>
<feOffset dx="-6"/>
<feGaussianBlur stdDeviation="47.95"/>
<feComposite in2="hardAlpha" operator="out"/>
<feColorMatrix type="matrix" values="0 0 0 0 0.192157 0 0 0 0 0.466667 0 0 0 0 0.882353 0 0 0 0.39 0"/>
<feBlend mode="normal" in2="BackgroundImageFix" result="effect1_dropShadow_4087_10351"/>
<feBlend mode="normal" in="SourceGraphic" in2="effect1_dropShadow_4087_10351" result="shape"/>
</filter>
<filter id="filter13_d_4087_10351" x="792.639" y="15.3246" width="258.484" height="255.195" filterUnits="userSpaceOnUse" color-interpolation-filters="sRGB">
<feFlood flood-opacity="0" result="BackgroundImageFix"/>
<feColorMatrix in="SourceAlpha" type="matrix" values="0 0 0 0 0 0 0 0 0 0 0 0 0 0 0 0 0 0 127 0" result="hardAlpha"/>
<feOffset dx="-6"/>
<feGaussianBlur stdDeviation="47.95"/>
<feComposite in2="hardAlpha" operator="out"/>
<feColorMatrix type="matrix" values="0 0 0 0 0.192157 0 0 0 0 0.466667 0 0 0 0 0.882353 0 0 0 0.2 0"/>
<feBlend mode="normal" in2="BackgroundImageFix" result="effect1_dropShadow_4087_10351"/>
<feBlend mode="normal" in="SourceGraphic" in2="effect1_dropShadow_4087_10351" result="shape"/>
</filter>
<filter id="filter14_d_4087_10351" x="845.816" y="62.048" width="163.58" height="162.014" filterUnits="userSpaceOnUse" color-interpolation-filters="sRGB">
<feFlood flood-opacity="0" result="BackgroundImageFix"/>
<feColorMatrix in="SourceAlpha" type="matrix" values="0 0 0 0 0 0 0 0 0 0 0 0 0 0 0 0 0 0 127 0" result="hardAlpha"/>
<feOffset/>
<feGaussianBlur stdDeviation="29.85"/>
<feComposite in2="hardAlpha" operator="out"/>
<feColorMatrix type="matrix" values="0 0 0 0 0.192157 0 0 0 0 0.466667 0 0 0 0 0.882353 0 0 0 0.47 0"/>
<feBlend mode="normal" in2="BackgroundImageFix" result="effect1_dropShadow_4087_10351"/>
<feBlend mode="normal" in="SourceGraphic" in2="effect1_dropShadow_4087_10351" result="shape"/>
</filter>
<linearGradient id="paint0_linear_4087_10351" x1="204.869" y1="195.5" x2="469" y2="195.501" gradientUnits="userSpaceOnUse">
<stop stop-color="#3793AE"/>
<stop offset="1" stop-color="#074287"/>
</linearGradient>
<linearGradient id="paint1_linear_4087_10351" x1="599.539" y1="191.5" x2="817" y2="191.5" gradientUnits="userSpaceOnUse">
<stop stop-color="#3793AE"/>
<stop offset="1" stop-color="#074287"/>
</linearGradient>
<linearGradient id="paint2_linear_4087_10351" x1="980.651" y1="185.5" x2="1214" y2="185.5" gradientUnits="userSpaceOnUse">
<stop stop-color="#3793AE"/>
<stop offset="1" stop-color="#074287"/>
</linearGradient>
<linearGradient id="paint3_linear_4087_10351" x1="143.863" y1="191.317" x2="173.631" y2="191.317" gradientUnits="userSpaceOnUse">
<stop stop-color="#3793AE"/>
<stop offset="1" stop-color="#074287"/>
</linearGradient>
<linearGradient id="paint4_linear_4087_10351" x1="153.715" y1="185.55" x2="163.637" y2="185.55" gradientUnits="userSpaceOnUse">
<stop stop-color="#3793AE"/>
<stop offset="1" stop-color="#074287"/>
</linearGradient>
<linearGradient id="paint5_linear_4087_10351" x1="143.81" y1="182.668" x2="166.136" y2="182.668" gradientUnits="userSpaceOnUse">
<stop stop-color="#3793AE"/>
<stop offset="1" stop-color="#074287"/>
</linearGradient>
<linearGradient id="paint6_linear_4087_10351" x1="143.81" y1="182.668" x2="166.136" y2="182.668" gradientUnits="userSpaceOnUse">
<stop stop-color="#3793AE"/>
<stop offset="1" stop-color="#074287"/>
</linearGradient>
<linearGradient id="paint7_linear_4087_10351" x1="515.048" y1="178.981" x2="521.832" y2="178.981" gradientUnits="userSpaceOnUse">
<stop stop-color="#3793AE"/>
<stop offset="1" stop-color="#074287"/>
</linearGradient>
<linearGradient id="paint8_linear_4087_10351" x1="543.893" y1="178.993" x2="550.85" y2="178.993" gradientUnits="userSpaceOnUse">
<stop stop-color="#3793AE"/>
<stop offset="1" stop-color="#074287"/>
</linearGradient>
<linearGradient id="paint9_linear_4087_10351" x1="519.598" y1="178.98" x2="525.182" y2="178.98" gradientUnits="userSpaceOnUse">
<stop stop-color="#3793AE"/>
<stop offset="1" stop-color="#074287"/>
</linearGradient>
<linearGradient id="paint10_linear_4087_10351" x1="540.692" y1="179.027" x2="546.237" y2="179.027" gradientUnits="userSpaceOnUse">
<stop stop-color="#3793AE"/>
<stop offset="1" stop-color="#074287"/>
</linearGradient>
<linearGradient id="paint11_linear_4087_10351" x1="524.112" y1="178.997" x2="528.357" y2="178.997" gradientUnits="userSpaceOnUse">
<stop stop-color="#3793AE"/>
<stop offset="1" stop-color="#074287"/>
</linearGradient>
<linearGradient id="paint12_linear_4087_10351" x1="537.486" y1="179.006" x2="541.596" y2="179.006" gradientUnits="userSpaceOnUse">
<stop stop-color="#3793AE"/>
<stop offset="1" stop-color="#074287"/>
</linearGradient>
<linearGradient id="paint13_linear_4087_10351" x1="523.516" y1="198.401" x2="570" y2="198.401" gradientUnits="userSpaceOnUse">
<stop stop-color="#3793AE"/>
<stop offset="1" stop-color="#074287"/>
</linearGradient>
<linearGradient id="paint14_linear_4087_10351" x1="908.474" y1="248.068" x2="945.638" y2="248.068" gradientUnits="userSpaceOnUse">
<stop stop-color="#3793AE"/>
<stop offset="1" stop-color="#074287"/>
</linearGradient>
<linearGradient id="paint15_linear_4087_10351" x1="909.947" y1="247.218" x2="922.899" y2="247.218" gradientUnits="userSpaceOnUse">
<stop stop-color="#3793AE"/>
<stop offset="1" stop-color="#074287"/>
</linearGradient>
<linearGradient id="paint16_linear_4087_10351" x1="910.398" y1="257.437" x2="914.196" y2="257.437" gradientUnits="userSpaceOnUse">
<stop stop-color="#3793AE"/>
<stop offset="1" stop-color="#074287"/>
</linearGradient>
<linearGradient id="paint17_linear_4087_10351" x1="910.424" y1="262.755" x2="914.08" y2="262.755" gradientUnits="userSpaceOnUse">
<stop stop-color="#3793AE"/>
<stop offset="1" stop-color="#074287"/>
</linearGradient>
<linearGradient id="paint18_linear_4087_10351" x1="909.379" y1="142.932" x2="945.324" y2="142.932" gradientUnits="userSpaceOnUse">
<stop stop-color="#3793AE"/>
<stop offset="1" stop-color="#074287"/>
</linearGradient>
<linearGradient id="paint19_linear_4087_10351" x1="910.803" y1="142.083" x2="923.33" y2="142.083" gradientUnits="userSpaceOnUse">
<stop stop-color="#3793AE"/>
<stop offset="1" stop-color="#074287"/>
</linearGradient>
<linearGradient id="paint20_linear_4087_10351" x1="911.241" y1="152.301" x2="914.914" y2="152.301" gradientUnits="userSpaceOnUse">
<stop stop-color="#3793AE"/>
<stop offset="1" stop-color="#074287"/>
</linearGradient>
<linearGradient id="paint21_linear_4087_10351" x1="911.267" y1="157.619" x2="914.803" y2="157.619" gradientUnits="userSpaceOnUse">
<stop stop-color="#3793AE"/>
<stop offset="1" stop-color="#074287"/>
</linearGradient>
<linearGradient id="paint22_linear_4087_10351" x1="1284.41" y1="180.258" x2="1341.89" y2="180.258" gradientUnits="userSpaceOnUse">
<stop stop-color="#3793AE"/>
<stop offset="1" stop-color="#074287"/>
</linearGradient>
<linearGradient id="paint23_linear_4087_10351" x1="822.705" y1="182.22" x2="892.213" y2="149.452" gradientUnits="userSpaceOnUse">
<stop stop-color="#3793AE"/>
<stop offset="1" stop-color="#074287"/>
</linearGradient>
<linearGradient id="paint24_linear_4087_10351" x1="824.13" y1="199.733" x2="885.694" y2="247.395" gradientUnits="userSpaceOnUse">
<stop stop-color="#3793AE"/>
<stop offset="1" stop-color="#074287"/>
</linearGradient>
</defs>
</svg>
