<svg width="59" height="24" viewBox="0 0 59 24" fill="none" xmlns="http://www.w3.org/2000/svg">
<path d="M12.4617 0.75C7.58672 0.75 3.42422 3.9 1.88672 8.25H23.1117C21.5367 3.9 17.3742 0.75 12.4617 0.75Z" fill="#F9F9F9"/>
<path d="M12.4617 23.25C17.3742 23.25 21.5367 20.1 23.0742 15.75H1.88672C3.42422 20.1375 7.58672 23.25 12.4617 23.25Z" fill="#ED4C5C"/>
<path d="M1.8875 8.25C1.475 9.4125 1.25 10.6875 1.25 12C1.25 13.3125 1.475 14.5875 1.8875 15.75H23.1125C23.525 14.5875 23.75 13.3125 23.75 12C23.75 10.6875 23.525 9.4125 23.1125 8.25H1.8875Z" fill="#428BC1"/>
<path d="M18.7016 9.975V10.35H18.9266V10.725H19.1516V10.35H19.3766V9.975H19.6016V9.6H19.8266V9.225H20.0516V8.85H20.2766V8.475H19.9766V8.1H19.7891V7.725H19.1141V8.1H19.5641V8.475H19.3391V8.85H19.1141V9.225H18.8891V8.85H18.7016C18.6266 9.15 18.5516 9.4875 18.4766 9.7875V9.9375H18.7016V9.975ZM21.2891 4.3125L21.1766 4.425H21.2891V4.3125Z" fill="white" fill-opacity="0.37"/>
<path d="M23.05 2.9626H22.825V3.3376H22.6V3.7126H22.375V4.0876H22.15V4.4626H21.925V4.0876H21.7V3.9001L21.475 4.1251V4.4626H21.7V4.8376H21.925V5.2126H21.7V5.5876H21.475V5.9626H21.25V5.5876H21.0625V5.2126H20.875V4.8376C20.8 4.9126 20.725 5.0251 20.65 5.1001V5.2126H20.575C20.5 5.2501 20.4625 5.2876 20.425 5.3626V5.5501H20.275C20.2375 5.5876 20.2375 5.6251 20.2 5.6626V5.8876H20.05C19.975 6.0001 19.9 6.1501 19.825 6.2626H20.0125V6.6376H20.2375V7.0126H20.4625V7.3876H20.6875V7.7626H20.875V7.3876H21.1V7.0126H21.325V6.6376H21.55V6.2626H21.775V5.8876H22V5.5126H22.225V5.8876H22.375V6.2626H22.6V6.6376H22.825V7.0126H23.05V7.3876H23.275V6.6376H23.05V6.2626H23.275V5.1751H23.05V5.5501H22.825V5.9251H22.6V5.5501H22.375V5.1751H22.15V4.8001H22.375V4.4251H22.6V4.0501H22.825V4.4251H23.05V4.8001H23.275V3.6751H23.05V3.3001H23.275V2.6626C23.2 2.7001 23.125 2.7751 23.05 2.8126V2.9626ZM20.875 6.6376H20.65V5.8876H20.875V6.6376ZM18.475 13.2751V12.9001H18.7V12.5251H18.925V12.1501H19.15V11.7751H18.8875V11.4001H18.7V11.0251H18.475V10.6501H18.325C18.2875 11.1376 18.25 11.5501 18.25 12.0001C18.25 12.4501 18.2875 12.8626 18.325 13.2751H18.475ZM23.05 11.0626H22.825V11.4376H22.6V11.8126H22.375V12.1876H22.6V12.5626H22.825V12.9376H23.05V13.2751H23.2375V10.7251H23.05V11.0626Z" fill="white" fill-opacity="0.37"/>
<path d="M21.0609 4.5376C20.9859 4.6126 20.9109 4.7251 20.8359 4.8001H21.0609V4.5376ZM21.1734 19.5751L21.2859 19.6876V19.5751H21.1734ZM20.8734 19.2001C20.9484 19.2751 21.0234 19.3876 21.0984 19.4626V19.2001H20.8734Z" fill="white" fill-opacity="0.37"/>
<path d="M23.0516 20.6627V20.2877H23.2766V19.1627H23.0516V19.5377H22.8266V19.9127H22.6016V19.5377H22.3766V19.1627H22.1516V18.7877H22.3766V18.4127H22.6016V18.0377H22.8266V18.4127H23.0516V18.7877H23.2766V17.6627H23.0516V17.2877H23.2766V16.5377H23.0516V16.9127H22.8266V17.2877H22.6016V17.6627H22.3766V18.0377H22.1516V18.4127H21.9266V18.0377H21.7016V17.6627H21.4766V17.2877H21.2516V16.9127H21.0641V16.5377H20.8766V16.1627H20.6516V16.5377H20.4266V16.9127H20.2016V17.2877H19.9766V17.6627H19.8266C19.9016 17.7752 19.9766 17.9252 20.0516 18.0377H20.2016V18.2627C20.2391 18.3002 20.2391 18.3377 20.2766 18.3752H20.4266V18.5627C20.4641 18.7127 20.5016 18.7502 20.5766 18.8252H20.6516V18.9377C20.7266 19.0127 20.8016 19.1252 20.8766 19.2002V18.8252H21.1016V18.4502H21.3266V18.0752H21.5516V18.4502H21.7766V18.8252H22.0016V19.2002H21.7766V19.5752H21.5516V19.9127L21.7766 20.1377V19.9502H22.0016V19.5752H22.2266V19.9502H22.3766V20.3252H22.6016V20.7002H22.8266V21.0752H23.0516V21.2252C23.1266 21.2627 23.2016 21.3377 23.2766 21.3752V20.7002L23.0516 20.6627ZM20.8766 18.0752H20.6516V17.3252H20.8766V18.0752ZM23.0516 14.0252H22.8266V13.6502H22.6016V13.2752H22.3766V13.6502H22.1516V14.0252H21.9641V14.4002H21.7391V14.7752H21.5141V15.1502H21.2891V15.4877H21.5141V15.8627H21.7391V16.2377H22.3766V15.8627H21.9641V15.4877H22.1516V15.1502H22.3766V14.7752H22.6016V15.1502H22.8266V15.4877H23.0516V15.8627H23.2391V15.1502H23.0516V14.7752H23.2391V14.4002H23.0516V14.0252ZM23.0516 8.5127H22.8266V8.8502H22.6016V9.2252H22.3766V8.8502H22.1516V8.5127H21.9641V8.1377H22.3766V7.7627H21.7391V8.1377H21.5141V8.5127H21.2891V8.8502H21.5141V9.2252H21.7391V9.6002H21.9641V9.9752H22.1516V10.3502H22.3766V10.7252H22.6016V10.3502H22.8266V9.9752H23.0516V9.6002H23.2391V9.2252H23.0516V8.8502H23.2391V8.1377H23.0516V8.5127ZM18.8891 14.7752H19.1141V15.1502H19.3391V15.5252H19.5641V15.9002H19.1141V16.2752H19.7516V15.9002H19.9766V15.5252H20.2016V15.1502H19.9766V14.7752H19.7891V14.4002H19.5641V14.0252H19.3391V13.6502H19.1141V13.2752H18.8891V13.6502H18.7016V14.0252H18.4766V14.1752C18.5516 14.5127 18.6266 14.8127 18.7016 15.1127H18.8891V14.7752ZM21.2891 9.9752H21.0641V9.6002H20.8766V9.2252H20.6516V9.6002H20.4266V9.9752H20.2016V10.3502H19.9766V10.7252H19.7891V11.1002H19.5641V12.9752H19.7891V13.3502H20.0141V13.7252H20.2391V14.1002H20.4641V14.4752H20.6891V14.8502H20.8766V14.4752H21.1016V14.1002H21.3266V13.7252H21.5516V13.3502H21.7766V12.9752H22.0016V11.1002H21.7766V10.7252H21.5516V10.3502H21.3266L21.2891 9.9752ZM19.9766 11.9627V12.1877H19.7891V11.8127H20.0141V11.9627H19.9766ZM21.5141 12.0377V11.8127H21.7391V12.1877H21.5141V12.0377ZM20.6516 9.9752H20.8766V10.3502H20.6516V9.9752ZM20.8766 14.0252H20.6516V13.6502H20.8766V14.0252ZM21.2891 11.4377H21.0641V11.8127H20.8766V12.1877H21.1016V12.5627H21.3266V13.3127H21.0641V12.9377H20.8766V12.5627H20.6516V12.9377H20.4266V13.3127H20.2016V12.5627H20.4266V12.1877H20.6516V11.8127H20.4266V11.4377H20.2016V10.6877H20.4266V11.0627H20.6516V11.4377H20.8766V11.0627H21.1016V10.6877H21.3266L21.2891 11.4377Z" fill="white" fill-opacity="0.37"/>
<path d="M20.1977 5.6625C20.1602 5.7375 20.0852 5.8125 20.0477 5.8875H20.1977V5.6625ZM20.4227 5.55V5.3625C20.3852 5.4375 20.3477 5.475 20.2727 5.55H20.4227ZM20.6477 5.175V5.0625C20.6102 5.1 20.6102 5.1375 20.5727 5.175H20.6477ZM19.7852 11.9625V12.1875H19.9727V11.8125H19.7852V11.9625ZM23.0477 6.3H23.2727V6.675H23.0477V6.3ZM21.0602 5.175V5.55H21.2852V5.925H21.5102V5.55H21.7352V5.175H21.9602V4.8H21.7352V4.425H21.5102V4.0875L21.2852 4.3125V4.425H21.1727L21.0602 4.5375V4.8H20.8727V5.175H21.0602ZM23.0477 3.3375H23.2727V3.7125H23.0477V3.3375ZM23.0477 4.425H22.8227V4.0875H22.5977V4.425H22.3727V4.8H22.1477V5.175H22.3727V5.55H22.5977V5.925H22.8227V5.55H23.0477V5.175H23.2352V4.8H23.0477V4.425ZM21.9602 4.0875V4.4625H22.1852V4.0875H22.3727V3.7125H22.5977V3.3375H22.8227V2.9625H23.0477V2.8125C22.6352 3.1125 22.2227 3.4125 21.8852 3.75C21.8477 3.7875 21.8102 3.825 21.7352 3.8625V4.05H21.9602V4.0875ZM20.7227 5.925H20.6477V6.6375H20.8727V5.925H20.7602H20.7227ZM21.0602 11.0625H20.8727V11.4375H20.6477V11.0625H20.4227V10.725H20.1977V11.4375H20.4227V11.8125H20.6477V12.1875H20.4227V12.5625H20.1977V13.275H20.4227V12.9375H20.6477V12.5625H20.8727V12.9375H21.0602V13.275H21.2852V12.5625H21.0602V12.1875H20.8727V11.8125H21.0602V11.4375H21.2852V10.725H21.0602V11.0625ZM23.0477 8.85H23.2727V9.225H23.0477V8.85Z" fill="#C8313E"/>
<path d="M23.0492 7.01245H22.8242V6.63745H22.5992V6.26245H22.3742V5.88745H22.1492V5.51245H21.9242V5.88745H21.6992V6.26245H21.4742V6.63745H21.2492V7.01245H21.0617V7.38745H20.8742V7.76245H20.6492V7.38745H20.4242V7.01245H20.1992V6.63745H19.9742V6.26245H19.8242C19.5992 6.63745 19.3742 7.04995 19.1867 7.46245C18.9992 7.91245 18.8492 8.36245 18.6992 8.81245H18.8867V9.18745H19.1117V8.81245H19.3367V8.43745H19.5617V8.06245H19.1117V7.68745H19.7492V8.06245H19.9742V8.43745H20.1992V8.81245H19.9742V9.18745H19.7867V9.56245H19.5617V9.93745H19.3367V10.3125H19.1117V10.6875H18.8867V10.3125H18.6992V9.93745H18.4742V9.78745C18.3992 10.0875 18.3617 10.3875 18.3242 10.6875H18.4742V11.0625H18.6992V11.4375H18.9242V11.8125H19.1492V12.1875H18.8867V12.5625H18.6992V12.9375H18.4742V13.3125H18.3242C18.3617 13.6125 18.3992 13.9125 18.4742 14.2125V14.0625H18.6992V13.6875H18.9242V13.3125H19.1492V13.6875H19.3742V14.0625H19.5992V14.4375H19.8242V14.8125H20.0492V15.1875H20.2742V15.5625H19.9742V15.9375H19.7867V16.3125H19.1117V15.9375H19.5617V15.5625H19.3367V15.1875H19.1117V14.8125H18.8867V15.1875H18.6992C18.8492 15.6 18.9992 16.05 19.1867 16.5C19.3742 16.9125 19.5992 17.325 19.8242 17.7H20.0117V17.325H20.2367V16.95H20.4617V16.575H20.6867V16.2H20.8742V16.575H21.0992V16.95H21.3242V17.325H21.5492V17.7H21.7742V18.075H21.9992V18.45H22.2242V18.075H22.3742V17.7H22.5992V17.325H22.8242V16.95H23.0492V16.575H23.2742V15.825H23.0492V15.45H22.8242V15.075H22.5992V14.7H22.3742V15.075H22.1492V15.45H21.9242V15.825H22.3742V16.2H21.7367V15.825H21.5117V15.45H21.2867V15.075H21.5117V14.7H21.7367V14.325H21.9617V13.95H22.1867V13.575H22.3742V13.2H22.5992V13.575H22.8242V13.95H23.0492V14.325H23.2742V13.2H23.0492V12.825H22.8242V12.45H22.5992V12.075H22.3742V11.7H22.5992V11.325H22.8242V10.95H23.0492V10.575H23.2742V9.44995H23.0492V9.82495H22.8242V10.2H22.5992V10.575H22.3742V10.2H22.1492V9.82495H21.9242V9.44995H21.6992V9.07495H21.4742V8.69995H21.2492V8.32495H21.4742V7.94995H21.6992V7.57495H22.3742V7.94995H21.9242V8.32495H22.1492V8.69995H22.3742V9.07495H22.5992V8.69995H22.8242V8.32495H23.0492V7.94995H23.2742V7.19995H23.0492V7.01245ZM21.5117 10.35V10.725H21.7367V11.1H21.9617V12.975H21.7367V13.35H21.5117V13.725H21.2867V14.1H21.0617V14.475H20.8742V14.85H20.6492V14.475H20.4242V14.1H20.1992V13.725H19.9742V13.35H19.7867V12.975H19.5617V11.1H19.7867V10.725H20.0117V10.35H20.2367V9.97495H20.4617V9.59995H20.6867V9.22495H20.8742V9.59995H21.0992V9.97495H21.3242V10.35H21.5117Z" fill="#C8313E"/>
<path d="M20.7633 10.3501H20.8758V9.9751H20.6508V10.3501H20.7258H20.7633ZM20.2008 18.0751H20.0508C20.0883 18.1501 20.1633 18.2251 20.2008 18.3001V18.0751ZM20.4258 18.4501H20.2758C20.3133 18.5251 20.3508 18.5626 20.4258 18.6376V18.4501ZM20.6508 18.8251H20.5758C20.6133 18.8626 20.6133 18.9001 20.6508 18.9376V18.8251ZM23.0508 17.3626H23.2758V17.7376H23.0508V17.3626ZM23.0508 18.4501H22.8258V18.0751H22.6008V18.4501H22.3758V18.8251H22.1508V19.2001H22.3758V19.5751H22.6008V19.9126H22.8258V19.5751H23.0508V19.2001H23.2383V18.8251H23.0508V18.4501ZM21.0633 19.2001V19.4626L21.1758 19.5751H21.2883V19.6876L21.5133 19.9126V19.5751H21.7383V19.2001H21.9633V18.8251H21.7383V18.4501H21.5133V18.0751H21.2883V18.4501H21.0633V18.8251H20.8758V19.2001H21.0633ZM23.0508 20.2876H23.2758V20.6626H23.0508V20.2876ZM21.8508 20.2501C22.2258 20.5876 22.6008 20.9251 23.0133 21.1876V21.0376H22.7883V20.6626H22.5633V20.2876H22.3758V19.9126H22.1508V19.5376H21.9258V19.9126H21.7008V20.1001L21.8508 20.2501ZM20.7258 17.3626H20.6508V18.0751H20.8758V17.3626H20.7633H20.7258ZM23.0508 14.7751H23.2758V15.1501H23.0508V14.7751ZM21.7383 12.0376V11.8126H21.5133V12.1876H21.7383V12.0376ZM20.7258 13.6501H20.6508V14.0251H20.8758V13.6501H20.7633H20.7258Z" fill="#C8313E"/>
<path d="M23.2383 16.5V21.3375C25.0383 22.5375 27.1758 23.25 29.5008 23.25C32.4633 23.25 35.1258 22.125 37.1508 20.25C38.2758 19.2 39.2133 17.925 39.8133 16.5H23.2383Z" fill="#83BF4F"/>
<path d="M39.8133 16.5C40.4133 15.1125 40.7508 13.6125 40.7508 12C40.7508 10.3875 40.4133 8.8875 39.8133 7.5C39.1758 6.075 38.2758 4.8 37.1508 3.75C35.1258 1.875 32.4633 0.75 29.5008 0.75C27.1758 0.75 25.0383 1.4625 23.2383 2.6625V16.5H39.8133Z" fill="#C94747"/>
<path d="M46.5 23.25C52.7132 23.25 57.75 18.2132 57.75 12C57.75 5.7868 52.7132 0.75 46.5 0.75C40.2868 0.75 35.25 5.7868 35.25 12C35.25 18.2132 40.2868 23.25 46.5 23.25Z" fill="#00AFCA"/>
<path d="M55.7611 12.4127C55.4986 12.2627 55.1986 12.4502 55.1986 12.7127C55.0861 14.5502 51.8611 15.0377 50.3236 15.0377C48.7861 15.0752 45.4861 14.5127 45.3736 12.7127C45.3736 12.4502 45.0736 12.3002 44.8111 12.4127C44.0236 12.8252 43.7611 13.6127 43.9486 14.4002C44.2861 15.8252 46.0486 16.8377 47.5486 17.2877C47.4361 17.5502 47.3986 17.8127 47.3611 18.0752C47.3236 18.3752 47.7736 18.4877 47.9986 18.3002C48.8611 17.6627 50.2111 17.4002 51.3361 17.4002C51.8236 17.4002 51.8236 16.7252 51.3361 16.7252C50.3236 16.7252 49.2361 16.9127 48.3361 17.3252C48.6736 16.5377 49.4611 15.7502 50.3236 15.7127H50.3611C52.1611 15.7502 55.0486 15.1127 55.7986 13.4252C55.9111 13.7252 55.9111 14.0627 55.7986 14.3627C55.4236 15.5627 54.1111 16.0502 52.8736 16.3877C52.4236 16.5002 52.6111 17.1752 53.0611 17.0252C54.6361 16.6127 55.8736 15.9752 56.5111 14.5502C56.8111 13.8002 56.5111 12.9002 55.7611 12.4127ZM47.8486 16.6502C46.6111 16.3127 45.6736 15.7127 44.9236 14.7377C44.6236 14.3252 44.5111 13.7627 44.7736 13.3502C45.3361 14.6627 47.1736 15.3377 48.8236 15.5627C48.4486 15.8627 48.1111 16.2377 47.8486 16.6502Z" fill="#FFE62E"/>
<path d="M50.2469 13.0125C51.8416 13.0125 53.1344 11.7198 53.1344 10.125C53.1344 8.53033 51.8416 7.23755 50.2469 7.23755C48.6522 7.23755 47.3594 8.53033 47.3594 10.125C47.3594 11.7198 48.6522 13.0125 50.2469 13.0125Z" fill="#FFE62E"/>
<path d="M50.2484 6.8626C50.4359 6.8626 50.4734 6.7501 50.4734 6.6376C50.4734 6.4501 50.2484 5.6626 50.2484 5.6626C50.2484 5.6626 50.0234 6.4876 50.0234 6.6376C50.0234 6.7501 50.0609 6.8626 50.2484 6.8626Z" fill="#FFE62E"/>
<path d="M51.4867 7.08755C51.6367 7.16255 51.7492 7.08755 51.7867 6.97505C51.8617 6.82505 51.9367 5.96255 51.9367 5.96255C51.9367 5.96255 51.4117 6.63755 51.3367 6.78755C51.3367 6.90005 51.3367 7.05005 51.4867 7.08755ZM53.2867 11.3625C53.2117 11.5125 53.2867 11.625 53.3992 11.6625C53.5492 11.7375 54.4117 11.8125 54.4117 11.8125C54.4117 11.8125 53.7367 11.2875 53.5867 11.2125C53.4742 11.2125 53.3242 11.2125 53.2867 11.3625ZM49.0117 13.1625C48.8617 13.0875 48.7492 13.1626 48.7117 13.2751C48.6367 13.4251 48.5617 14.2875 48.5617 14.2875C48.5617 14.2875 49.0867 13.6126 49.1617 13.4626C49.1617 13.3501 49.1617 13.2 49.0117 13.1625ZM47.2117 8.88755C47.2867 8.73755 47.2117 8.62505 47.0992 8.58755C46.9492 8.51255 46.0867 8.43755 46.0867 8.43755C46.0867 8.43755 46.7617 8.96255 46.9117 9.03755C47.0242 9.03755 47.1742 9.03755 47.2117 8.88755ZM52.5742 7.80005C52.6867 7.91255 52.8367 7.87505 52.9117 7.80005C53.0242 7.68755 53.4367 6.93755 53.4367 6.93755C53.4367 6.93755 52.6867 7.35005 52.5742 7.46255C52.4617 7.57505 52.4617 7.68755 52.5742 7.80005ZM52.5742 12.4501C52.4617 12.5626 52.4992 12.675 52.5742 12.7875C52.6867 12.9 53.4367 13.3125 53.4367 13.3125C53.4367 13.3125 53.0242 12.5626 52.9117 12.4501C52.7992 12.3376 52.6867 12.3376 52.5742 12.4501ZM47.9242 12.4501C47.8117 12.3376 47.6617 12.3751 47.5867 12.4501C47.4742 12.5626 47.0617 13.3125 47.0617 13.3125C47.0617 13.3125 47.8117 12.9 47.9242 12.7875C48.0367 12.675 48.0367 12.5626 47.9242 12.4501ZM47.9242 7.80005C48.0367 7.68755 47.9992 7.53755 47.9242 7.46255C47.8117 7.35005 47.0617 6.93755 47.0617 6.93755C47.0617 6.93755 47.4742 7.68755 47.5867 7.80005C47.6992 7.91255 47.8117 7.91255 47.9242 7.80005ZM53.2867 8.88755C53.3617 9.03755 53.4742 9.07505 53.5867 9.00005C53.7367 8.92505 54.4117 8.40005 54.4117 8.40005C54.4117 8.40005 53.5492 8.51255 53.3992 8.55005C53.2867 8.62505 53.2117 8.70005 53.2867 8.88755ZM51.4867 13.1625C51.3367 13.2375 51.2992 13.3501 51.3742 13.4626C51.4492 13.6126 51.9742 14.2875 51.9742 14.2875C51.9742 14.2875 51.8617 13.4251 51.8242 13.2751C51.7492 13.1626 51.6742 13.0875 51.4867 13.1625ZM47.2117 11.3625C47.1367 11.2125 47.0242 11.175 46.9117 11.25C46.7617 11.325 46.0867 11.85 46.0867 11.85C46.0867 11.85 46.9492 11.7375 47.0992 11.7001C47.2117 11.6251 47.2867 11.55 47.2117 11.3625ZM49.0117 7.08755C49.1617 7.01255 49.1992 6.90005 49.1242 6.78755C49.0492 6.63755 48.5242 5.96255 48.5242 5.96255C48.5242 5.96255 48.6367 6.78755 48.6742 6.97505C48.7492 7.08755 48.8242 7.16255 49.0117 7.08755ZM50.8867 6.90005C51.0367 6.93755 51.1492 6.82505 51.1492 6.71255C51.1867 6.56255 51.1117 5.70005 51.1117 5.70005C51.1117 5.70005 50.7367 6.45005 50.6992 6.63755C50.6617 6.75005 50.7367 6.86255 50.8867 6.90005ZM53.4742 10.7626C53.4367 10.9125 53.5492 11.025 53.6617 11.025C53.8117 11.0625 54.6742 10.9875 54.6742 10.9875C54.6742 10.9875 53.9242 10.6125 53.7367 10.5751C53.6242 10.5375 53.5117 10.6125 53.4742 10.7626ZM49.6117 13.35C49.4617 13.3125 49.3492 13.425 49.3492 13.5375C49.3117 13.6875 49.3867 14.55 49.3867 14.55C49.3867 14.55 49.7617 13.8 49.7992 13.6125C49.8367 13.5 49.7617 13.3875 49.6117 13.35ZM47.0242 9.48755C47.0617 9.30005 46.9492 9.22505 46.8367 9.22505C46.6867 9.18755 45.8242 9.26255 45.8242 9.26255C45.8242 9.26255 46.5742 9.63755 46.7617 9.67505C46.8742 9.71255 46.9867 9.63755 47.0242 9.48755ZM52.0867 7.38755C52.2367 7.46255 52.3492 7.42505 52.4242 7.31255C52.5367 7.16255 52.7617 6.37505 52.7617 6.37505C52.7617 6.37505 52.1242 6.93755 52.0117 7.05005C51.9367 7.16255 51.9367 7.31255 52.0867 7.38755ZM52.9867 11.9625C52.9117 12.1125 52.9492 12.225 53.0617 12.3C53.2117 12.4125 53.9992 12.6376 53.9992 12.6376C53.9992 12.6376 53.4367 12.0001 53.3242 11.8876C53.2117 11.8126 53.0617 11.8125 52.9867 11.9625ZM48.4117 12.8625C48.2617 12.7875 48.1492 12.8251 48.0742 12.9375C47.9992 13.05 47.7367 13.875 47.7367 13.875C47.7367 13.875 48.3742 13.3126 48.4867 13.2001C48.5617 13.0876 48.5617 12.9375 48.4117 12.8625ZM47.5117 8.28755C47.5867 8.13755 47.5492 8.02505 47.4367 7.95005C47.3242 7.87505 46.4992 7.61255 46.4992 7.61255C46.4992 7.61255 47.0617 8.25005 47.1742 8.36255C47.2867 8.43755 47.4367 8.43755 47.5117 8.28755ZM52.9867 8.28755C53.0992 8.43755 53.2117 8.43755 53.3242 8.36255C53.4742 8.25005 53.9992 7.61255 53.9992 7.61255C53.9992 7.61255 53.1742 7.87505 53.0617 7.95005C52.9492 8.06255 52.8742 8.17505 52.9867 8.28755ZM52.0867 12.8625C51.9367 12.975 51.9367 13.0876 52.0117 13.2001C52.1242 13.35 52.7617 13.875 52.7617 13.875C52.7617 13.875 52.4992 13.05 52.4242 12.9375C52.3117 12.8251 52.1992 12.75 52.0867 12.8625ZM47.5117 11.9625C47.3992 11.8125 47.2867 11.8126 47.1742 11.8876C47.0242 12.0001 46.4992 12.6376 46.4992 12.6376C46.4992 12.6376 47.3242 12.375 47.4367 12.3C47.5492 12.1875 47.6242 12.075 47.5117 11.9625ZM48.4117 7.38755C48.5617 7.27505 48.5617 7.16255 48.4867 7.05005C48.3742 6.90005 47.7367 6.37505 47.7367 6.37505C47.7367 6.37505 47.9992 7.20005 48.0742 7.31255C48.1867 7.42505 48.2992 7.50005 48.4117 7.38755ZM53.4742 9.48755C53.5117 9.63755 53.6242 9.71255 53.7367 9.67505C53.8867 9.63755 54.6742 9.26255 54.6742 9.26255C54.6742 9.26255 53.8117 9.18755 53.6617 9.22505C53.5117 9.22505 53.4367 9.30005 53.4742 9.48755ZM50.8867 13.35C50.7367 13.3875 50.6617 13.5 50.6992 13.6125C50.7367 13.7625 51.1117 14.55 51.1117 14.55C51.1117 14.55 51.1867 13.6875 51.1492 13.5375C51.1492 13.3875 51.0742 13.3125 50.8867 13.35ZM47.0242 10.7626C46.9867 10.6125 46.8742 10.5375 46.7617 10.5751C46.6117 10.6125 45.8242 10.9875 45.8242 10.9875C45.8242 10.9875 46.6867 11.0625 46.8367 11.025C46.9867 11.025 47.0617 10.9501 47.0242 10.7626ZM49.6117 6.90005C49.7617 6.86255 49.8367 6.75005 49.7992 6.63755C49.7617 6.48755 49.3867 5.70005 49.3867 5.70005C49.3867 5.70005 49.3117 6.56255 49.3492 6.71255C49.3492 6.86255 49.4242 6.93755 49.6117 6.90005ZM40.6867 19.35H40.2742V20.7376H39.4492C39.8617 21.0751 40.2742 21.3376 40.7242 21.6376V19.35H40.6867ZM40.2742 3.26255V4.65005H40.6867V2.36255C40.2367 2.62505 39.8242 2.92505 39.4117 3.26255H40.2742ZM39.3367 3.30005C39.2242 3.37505 39.1117 3.48755 38.9992 3.60005L40.1242 6.03755H39.1867V4.65005H38.7742V6.03755H37.8367L38.9242 3.67505C38.6242 3.93755 38.3242 4.23755 38.0617 4.57505L37.1992 6.41255L38.6617 9.56255H37.7242V8.17505H37.3117V11.85H37.7242V10.3125H38.6992L38.1367 12L38.6992 13.6501H37.7242V12.1125H37.3117V15.7875H37.7242V14.4001H38.6617L37.1992 17.55L38.0617 19.3876C38.3242 19.6876 38.6242 19.9876 38.9242 20.2875L37.8367 17.925H38.7742V19.3125H39.1867V17.925H40.1242L38.9992 20.3626C39.1117 20.475 39.2242 20.5501 39.3367 20.6625L40.7617 17.55L39.2992 14.4001H40.2367V15.7875H40.6492V12.1125H40.2367V13.6501H39.2617L39.8242 12L39.2617 10.35H40.2367V11.8876H40.6492V8.21255H40.2367V9.60005H39.2992L40.7617 6.45005L39.3367 3.30005ZM40.1617 17.2126H39.2242V15.8251H38.8117V17.2126H37.8367L38.9992 14.7375L40.1617 17.2126ZM38.9992 13.2001L38.6992 12.3376H39.2992L38.9992 13.2001ZM39.2992 11.6625H38.6992L38.9992 10.8L39.2992 11.6625ZM38.9992 9.30005L37.8367 6.82505H38.7742V8.21255H39.1867V6.82505H40.1242L38.9992 9.30005Z" fill="#FFE62E"/>
</svg>
