<svg width="420" height="183" viewBox="0 0 420 183" fill="none" xmlns="http://www.w3.org/2000/svg">
<path opacity="0.1" d="M362.5 117.5C362.5 187.627 304.086 244.5 232 244.5C159.914 244.5 101.5 187.627 101.5 117.5C101.5 47.3725 159.914 -9.5 232 -9.5C304.086 -9.5 362.5 47.3725 362.5 117.5Z" stroke="#074287"/>
<path opacity="0.1" d="M419.5 138.5C419.5 251.154 325.716 342.5 210 342.5C94.2838 342.5 0.5 251.154 0.5 138.5C0.5 25.8463 94.2838 -65.5 210 -65.5C325.716 -65.5 419.5 25.8463 419.5 138.5Z" stroke="#074287"/>
<path opacity="0.1" d="M319.5 117.5C319.5 164.431 280.339 202.5 232 202.5C183.661 202.5 144.5 164.431 144.5 117.5C144.5 70.5693 183.661 32.5 232 32.5C280.339 32.5 319.5 70.5693 319.5 117.5Z" stroke="#074287"/>
</svg>
