<svg width="32" height="32" viewBox="0 0 32 32" fill="none" xmlns="http://www.w3.org/2000/svg">
<g clip-path="url(#clip0_1300_2041)">
<path fill-rule="evenodd" clip-rule="evenodd" d="M25.919 25.4134C25.919 25.2934 25.839 24.1467 25.5057 24.0801C25.1723 24.0134 25.079 24.0801 24.879 24.4401C24.7572 24.7976 24.6592 25.1629 24.5857 25.5334C22.639 25.6801 21.919 26.2001 20.399 26.2401C19.8657 26.3601 19.9323 27.0267 20.639 27.0801C21.907 27.2067 23.1844 27.2067 24.4523 27.0801C24.4523 27.9734 24.4523 28.1201 24.679 28.5067C24.7454 28.5907 24.8403 28.6476 24.9457 28.6667C25.1457 28.7467 25.3057 28.6667 25.4657 28.4801C25.5441 28.3108 25.598 28.1312 25.6257 27.9467C25.7426 27.6296 25.8362 27.3042 25.9057 26.9734L29.599 26.6667C30.2257 26.6667 30.3323 25.8667 29.6657 25.7734C28.4282 25.5547 27.1754 25.4343 25.919 25.4134Z" fill="#3793AE"/>
<path fill-rule="evenodd" clip-rule="evenodd" d="M31.8774 24.24C31.8774 23.8534 31.9441 23.28 31.8774 22.8C31.6774 21.24 30.4374 21.2134 29.1041 21.2C29.1395 20.957 29.1617 20.7122 29.1707 20.4667C29.0521 19.8903 28.7598 19.3641 28.3331 18.9588C27.9064 18.5536 27.3658 18.2888 26.7841 18.2C23.9441 17.52 21.4507 19.84 21.9574 21.5867C19.6774 22.2134 19.5174 22.1734 19.2907 22.5867C18.6641 24 18.6641 25.8934 18.6641 29.9867C18.8774 32.04 19.5174 30.96 19.5307 30.8267V28.2934C19.5307 27.8667 19.7174 26.0667 19.7041 26.0667C19.7388 25.1551 19.9189 24.2549 20.2374 23.4C22.9561 22.6188 25.8072 22.4099 28.6107 22.7867H29.6641C29.8907 22.7867 30.3574 22.7867 30.2641 22.8934C30.1707 23 30.2641 28.32 30.2641 29.0934V30.2534C30.2641 30.72 31.2907 30.7067 21.3307 30.5867C20.1841 30.5867 20.1574 30.5067 19.9974 30.5867C19.9431 30.6132 19.8956 30.6517 19.8583 30.6992C19.8211 30.7467 19.795 30.8021 19.7822 30.8611C19.7694 30.9201 19.7701 30.9812 19.7843 31.0399C19.7984 31.0986 19.8257 31.1534 19.8641 31.2C20.0907 31.5334 20.0907 31.4134 23.4907 31.5467C32.2641 31.92 31.3707 32.44 31.6641 29.1467C31.8577 27.5188 31.929 25.8786 31.8774 24.24ZM22.8774 21.4134C22.7041 19.88 26.9974 18.84 28.0507 20.4267C28.1665 20.6526 28.204 20.9105 28.1574 21.16C26.3937 21.022 24.6197 21.1071 22.8774 21.4134Z" fill="#3793AE"/>
<path fill-rule="evenodd" clip-rule="evenodd" d="M14.0783 10.6667C13.4387 10.2536 12.7362 9.94736 11.9983 9.76005C17.3316 7.64004 15.7583 4.49568e-05 10.2249 0.186712C3.07827 0.706712 3.22494 7.57338 6.35827 9.52004C7.42493 10.1734 7.10493 9.37338 5.14493 10.76C2.71688 12.3925 1.02305 14.9093 0.424935 17.7734C0.0581201 19.0161 -0.00136273 20.3293 0.251601 21.6C0.363912 21.973 0.571548 22.3103 0.854015 22.5785C1.13648 22.8468 1.48401 23.0367 1.86231 23.1296C2.2406 23.2225 2.63658 23.2151 3.01116 23.1082C3.38574 23.0013 3.72597 22.7986 3.99827 22.52C3.98485 24.4725 4.20418 26.4195 4.6516 28.32C5.06493 30.1067 6.14494 31.8134 7.99827 31.8C11.1449 31.8 11.7316 32.0267 12.5716 31.0267C13.6344 29.159 14.3441 27.1115 14.6649 24.9867C14.7583 24.28 14.8249 23.4934 14.8916 22.4667C15.152 22.7474 15.4796 22.9572 15.8435 23.0762C16.2074 23.1951 16.5957 23.2194 16.9716 23.1467C18.4916 22.88 18.8116 21.6934 18.8249 20.2267C18.7528 18.3886 18.2926 16.5865 17.4745 14.9388C16.6565 13.2912 15.499 11.8352 14.0783 10.6667ZM10.3183 1.73338C10.7894 1.69424 11.2634 1.75416 11.71 1.90929C12.1565 2.06441 12.5657 2.3113 12.911 2.63407C13.2564 2.95685 13.5304 3.34835 13.7154 3.78339C13.9003 4.21843 13.9921 4.68737 13.9849 5.16004C13.2144 4.86995 12.5306 4.38809 11.9983 3.76004C11.6383 3.38671 11.3983 2.68004 10.6649 2.42671C9.66494 2.10671 9.43827 3.85338 7.11827 4.85338C6.65366 5.06116 6.15826 5.19176 5.6516 5.24004C5.90493 2.86671 7.99827 1.84004 10.3183 1.73338ZM6.91827 8.64004C6.51356 8.34822 6.18238 7.96615 5.95095 7.52412C5.71952 7.08209 5.59421 6.59224 5.58494 6.09338C7.00023 6.17787 8.40449 5.79871 9.58494 5.01338C9.92247 4.78442 10.2275 4.51082 10.4916 4.20004C11.0765 4.87698 11.8054 5.41454 12.6249 5.77338C13.0279 5.95846 13.454 6.08851 13.8916 6.16004C13.1316 9.58671 8.47827 9.72004 6.91827 8.64004ZM17.5849 21.3067C17.5251 21.458 17.4297 21.5927 17.3068 21.6994C17.1838 21.8061 17.037 21.8815 16.8788 21.9195C16.7205 21.9574 16.5555 21.9567 16.3976 21.9173C16.2397 21.8779 16.0935 21.8011 15.9716 21.6934C15.4565 20.3439 15.0114 18.9688 14.6383 17.5734C14.6383 17.4667 13.3049 16.8267 13.3049 18.2934C13.3049 19.0534 13.4916 20.84 13.4516 21.44C13.4389 23.6494 13.0511 25.8405 12.3049 27.92C12.0916 28.5334 11.5449 30.2667 10.9716 30.2667H9.63827C9.9167 27.6088 9.9524 24.9311 9.74494 22.2667C9.74494 22.1465 9.69717 22.0312 9.61216 21.9462C9.52714 21.8611 9.41183 21.8134 9.2916 21.8134C9.17137 21.8134 9.05606 21.8611 8.97105 21.9462C8.88603 22.0312 8.83827 22.1465 8.83827 22.2667C8.2916 26.7734 8.19827 26.6134 8.62494 30.2667H7.99827C6.99827 30.2667 6.43827 29 6.22494 28.0134C4.4916 19.7867 6.74494 16.92 4.8916 17.1867C4.14494 17.28 4.34493 17.9734 3.55827 20.5734C3.44589 20.9531 3.3032 21.3232 3.1316 21.68C3.02112 21.8014 2.87892 21.8894 2.72107 21.9341C2.56321 21.9789 2.39598 21.9786 2.23827 21.9334C1.3316 21.8 1.3316 20.84 1.3316 20C1.40669 17.9986 1.99929 16.0508 3.0516 14.3467C4.14162 12.7033 5.6967 11.4221 7.51827 10.6667C8.85484 10.2461 10.2884 10.2461 11.6249 10.6667C12.2965 10.8384 12.9359 11.1175 13.5183 11.4934C14.4075 12.2106 15.1654 13.0768 15.7583 14.0534C16.6243 15.4289 17.23 16.952 17.5449 18.5467C17.711 19.469 17.702 20.4144 17.5183 21.3334L17.5849 21.3067Z" fill="#3793AE"/>
<path fill-rule="evenodd" clip-rule="evenodd" d="M9.33249 16.0001C9.35104 16.1087 9.4074 16.2072 9.49158 16.2782C9.57576 16.3492 9.68235 16.3882 9.79249 16.3882C9.90263 16.3882 10.0092 16.3492 10.0934 16.2782C10.1776 16.2072 10.2339 16.1087 10.2525 16.0001C10.4685 14.3161 10.4416 12.6098 10.1725 10.9334C10.0525 10.4001 9.46583 10.5601 9.35916 10.9334C8.96241 12.598 8.95329 14.3314 9.33249 16.0001Z" fill="#3793AE"/>
</g>
<defs>
<clipPath id="clip0_1300_2041">
<rect width="32" height="32" fill="white"/>
</clipPath>
</defs>
</svg>
