<svg width="32" height="32" viewBox="0 0 32 32" fill="none" xmlns="http://www.w3.org/2000/svg">
<g clip-path="url(#clip0_1300_2067)">
<path d="M23.4258 26.2533C22.1111 24.9425 21.2353 23.2561 20.9192 21.4266C20.5457 18.2634 20.4386 15.0744 20.5992 11.8933C20.5819 11.7981 20.5317 11.7119 20.4574 11.6499C20.383 11.5879 20.2893 11.5539 20.1925 11.5539C20.0957 11.5539 20.002 11.5879 19.9277 11.6499C19.8534 11.7119 19.8032 11.7981 19.7858 11.8933C19.5258 15.1415 19.5258 18.4052 19.7858 21.6533C19.9449 22.5967 20.1996 23.5215 20.5458 24.4133C20.9619 25.2217 21.4721 25.9781 22.0658 26.6666C19.6658 28 11.8925 27.4133 9.46585 27.2933C7.33252 27.1866 6.65252 27.6 6.27918 25.96C5.73773 22.114 5.58585 18.2232 5.82585 14.3466C6.05379 12.8828 6.12086 11.3984 6.02585 9.91998C5.93252 9.21332 5.23918 9.54665 5.29252 10.08C4.82991 13.0096 4.57151 15.9678 4.51918 18.9333C4.48875 21.5376 4.65365 24.1404 5.01252 26.72C5.11327 27.2165 5.36215 27.6709 5.72632 28.0232C6.0905 28.3755 6.55288 28.6091 7.05252 28.6933C7.80677 28.811 8.56914 28.869 9.33252 28.8666C12.5819 29.1717 15.8512 29.203 19.1058 28.96C21.1059 28.72 24.5458 27.8666 23.4258 26.2533Z" fill="#3793AE"/>
<path d="M7.49231 9.90661C9.77231 9.90661 19.2256 10.3066 21.2256 9.90661C21.4656 9.85643 21.687 9.7411 21.8656 9.57327C22.3535 8.97136 22.6924 8.26272 22.8546 7.50507C23.0168 6.74742 22.9977 5.96217 22.799 5.21327C22.079 2.83994 19.8523 2.85327 17.3323 2.85327C14.8123 2.85327 12.239 3.06661 10.4656 2.98661C8.69231 2.90661 6.17231 2.98661 6.06565 2.98661C4.10565 2.77327 1.86565 4.13327 0.985647 7.79994C0.485697 10.8899 0.16516 14.0062 0.0256472 17.1333C-0.0505047 20.3937 0.0429549 23.6559 0.305647 26.9066C0.349244 27.0109 0.429185 27.0957 0.53063 27.1455C0.632075 27.1953 0.748133 27.2066 0.85726 27.1772C0.966387 27.1479 1.06117 27.08 1.12401 26.9861C1.18686 26.8922 1.2135 26.7787 1.19898 26.6666C1.03596 22.2983 1.2277 17.9239 1.77231 13.5866C2.14565 10.9199 2.07898 7.09327 3.87898 5.18661C4.11613 4.86233 4.43213 4.60396 4.79706 4.43596C5.16199 4.26797 5.56377 4.19591 5.96434 4.22662C6.3649 4.25733 6.751 4.38979 7.08605 4.61145C7.42111 4.83311 7.69404 5.13663 7.87898 5.49327C8.07398 6.06242 8.09571 6.67663 7.94143 7.25814C7.78716 7.83965 7.4638 8.36231 7.01231 8.75994C6.82565 8.87994 6.53231 9.89327 7.49231 9.90661ZM8.82565 4.95994C8.23898 3.87994 7.81231 3.86661 7.99898 3.86661C8.91898 3.86661 9.81231 3.97327 10.319 4.02661C12.8256 4.27994 17.7856 4.10661 20.0523 4.54661C20.4177 4.60823 20.7505 4.79479 20.9936 5.07445C21.2368 5.3541 21.3754 5.70949 21.3856 6.07994C21.679 8.95994 20.2523 8.47994 19.7856 8.53327C16.8656 8.83994 10.8656 8.98661 7.93231 9.05327C8.4565 8.52748 8.81823 7.86189 8.97428 7.13602C9.13033 6.41015 9.0741 5.65471 8.81231 4.95994H8.82565Z" fill="#3793AE"/>
<path d="M11.3853 12.7598C10.8273 13.2163 10.3378 13.7507 9.93194 14.3465C9.07861 15.5732 9.14528 15.9065 8.73194 15.6798C8.66934 15.6281 8.59688 15.5896 8.51896 15.5667C8.44103 15.5437 8.35926 15.5369 8.27861 15.5465C7.37194 15.9198 8.78528 17.4932 9.82528 16.8798C11.3719 15.6665 11.3319 14.3732 11.9986 13.3998C12.0567 13.314 12.0837 13.2108 12.0749 13.1074C12.0662 13.0041 12.0222 12.9069 11.9505 12.8321C11.8788 12.7572 11.7835 12.7092 11.6807 12.696C11.5778 12.6829 11.4735 12.7054 11.3853 12.7598Z" fill="#3793AE"/>
<path d="M14.3471 16.6C15.2392 16.5764 16.1293 16.5052 17.0138 16.3866C17.134 16.3866 17.2493 16.3389 17.3344 16.2539C17.4194 16.1689 17.4671 16.0535 17.4671 15.9333C17.6671 14.68 12.3871 15.04 12.3071 15.7066C12.2271 16.3733 14.1338 16.5733 14.3471 16.6Z" fill="#3793AE"/>
<path d="M10.9342 19.3332C10.1476 20.5332 9.77422 20.8398 8.97422 22.1732C8.85488 22.1513 8.73853 22.1155 8.62756 22.0665C8.6064 22.0167 8.57536 21.9717 8.53632 21.9342C8.49727 21.8967 8.45102 21.8676 8.40038 21.8485C8.34974 21.8294 8.29575 21.8208 8.24169 21.8232C8.18762 21.8256 8.13461 21.839 8.08585 21.8624C8.03709 21.8859 7.9936 21.919 7.95802 21.9598C7.92243 22.0006 7.89549 22.0481 7.87882 22.0996C7.86215 22.1511 7.85611 22.2054 7.86104 22.2593C7.86598 22.3132 7.88181 22.3656 7.90756 22.4132C8.08001 22.7971 8.34587 23.1317 8.68089 23.3865C10.0142 24.3198 11.2676 21.2265 11.7609 19.7332C11.8139 19.6235 11.8213 19.4973 11.7812 19.3823C11.7412 19.2673 11.6572 19.1729 11.5476 19.1198C11.4379 19.0668 11.3117 19.0595 11.1967 19.0995C11.0817 19.1395 10.9873 19.2235 10.9342 19.3332Z" fill="#3793AE"/>
<path d="M17.3327 22.6666C17.4152 22.5778 17.461 22.4611 17.461 22.3399C17.461 22.2187 17.4152 22.1021 17.3327 22.0133C17.0527 21.6133 15.6127 21.4933 15.2927 21.5066C14.3289 21.5678 13.3757 21.7423 12.4527 22.0266C12.3061 22.2266 12.2394 22.3866 12.3727 22.5333C12.5061 22.6799 12.1994 22.6133 14.1594 23.0533C15.2256 23.0073 16.2867 22.878 17.3327 22.6666Z" fill="#3793AE"/>
<path d="M31.8138 4.28003C31.0271 1.90669 27.8938 3.12003 27.0005 4.41336C26.8388 4.65412 26.7508 4.93674 26.7471 5.22669C24.5738 5.52003 24.5205 8.81336 24.4805 10.8534C24.5738 13.8 24.4805 14.6267 25.0538 14.5734C25.6271 14.52 25.4805 14.04 25.8938 10.9334C26.3071 7.82669 26.0271 6.93336 26.7605 6.18669C26.8671 6.18669 26.7605 12.0667 27.0138 12.6534C26.6538 14.0667 26.4138 21.16 26.3205 23.0934C26.2317 23.7472 26.205 24.4079 26.2405 25.0667C26.5422 26.2134 27.2599 27.2068 28.2538 27.8534C29.0805 28.2667 29.5871 27.48 29.8671 26.9067C30.6081 26.0186 30.9971 24.8894 30.9605 23.7334C30.9605 20.6134 30.8805 22.8667 31.2271 12.4267C31.5002 11.6546 31.6531 10.8452 31.6805 10.0267C31.8538 8.28003 32.2271 5.50669 31.8138 4.28003ZM28.1738 5.33336C28.5225 4.99215 28.9547 4.74847 29.4271 4.62669C30.1471 4.49336 30.1738 4.42669 30.3071 4.70669C30.4097 4.94769 30.4684 5.20506 30.4805 5.46669C30.5303 7.61594 30.4546 9.76627 30.2538 11.9067C30.1338 11.9067 29.9071 12.0134 29.8271 12.0134H27.8271C27.7338 11.24 27.7071 13.0134 28.1738 5.33336ZM28.5471 26.1867C28.1865 25.8058 27.9135 25.3508 27.7471 24.8534C27.8538 21.36 27.5071 15.88 27.7471 13C28.5668 13.0801 29.3907 13.1068 30.2138 13.08L29.5871 21.3334C29.4538 24.9867 29.6005 24.52 28.5471 26.1334V26.1867Z" fill="#3793AE"/>
</g>
<defs>
<clipPath id="clip0_1300_2067">
<rect width="32" height="32" fill="white"/>
</clipPath>
</defs>
</svg>
