<svg width="32" height="32" viewBox="0 0 32 32" fill="none" xmlns="http://www.w3.org/2000/svg">
<path fill-rule="evenodd" clip-rule="evenodd" d="M10.6661 26.2401C10.493 25.9146 10.2828 25.6103 10.0395 25.3334C9.70248 24.985 9.3267 24.6763 8.91946 24.4134C9.37277 23.945 9.72039 23.3849 9.93889 22.7708C10.1574 22.1567 10.2417 21.5028 10.1861 20.8534C10.1791 19.7418 9.73163 18.6783 8.94186 17.8961C8.15209 17.1138 7.0844 16.6765 5.97279 16.6801C4.7838 16.6511 3.63105 17.0905 2.76307 17.9036C1.89509 18.7167 1.38141 19.8384 1.33279 21.0267C1.31144 21.7754 1.50798 22.5141 1.89853 23.1532C2.28908 23.7923 2.85683 24.3042 3.53279 24.6267C2.97247 24.9229 2.44124 25.2711 1.94613 25.6667C1.47114 26.0761 1.05796 26.5522 0.71946 27.0801C0.414229 27.5403 0.204953 28.0573 0.104151 28.6003C0.00334849 29.1432 0.0130903 29.701 0.132794 30.2401C0.13268 30.2984 0.144534 30.3562 0.167624 30.4097C0.190714 30.4633 0.224549 30.5116 0.267037 30.5516C0.309526 30.5916 0.359764 30.6224 0.414648 30.6422C0.469532 30.662 0.527894 30.6704 0.586127 30.6667C0.698175 30.6502 0.799516 30.591 0.869055 30.5016C0.938595 30.4122 0.970977 30.2994 0.95946 30.1867C0.953285 29.5676 1.13966 28.9619 1.49279 28.4534C1.8364 27.9242 2.22926 27.4287 2.66613 26.9734C3.31946 26.2534 3.99946 25.5334 4.55946 24.9867C4.9655 25.0882 5.38116 25.1463 5.79946 25.1601C5.88805 25.1434 5.96804 25.0963 6.02559 25.0269C6.08314 24.9575 6.11463 24.8702 6.11463 24.7801C6.11463 24.6899 6.08314 24.6026 6.02559 24.5332C5.96804 24.4638 5.88805 24.4167 5.79946 24.4001C3.43946 24.1601 2.41279 22.6667 2.53279 21.0801C2.62384 20.2394 3.03736 19.4667 3.68637 18.9246C4.33538 18.3825 5.16931 18.1133 6.01279 18.1734C6.78275 18.159 7.5272 18.4494 8.08407 18.9813C8.64095 19.5132 8.96516 20.2436 8.98613 21.0134C9.14487 21.7942 8.9907 22.6062 8.5568 23.2745C8.12291 23.9427 7.44397 24.414 6.66613 24.5867C6.55165 24.6001 6.44701 24.6579 6.3747 24.7477C6.3024 24.8375 6.2682 24.952 6.27946 25.0667C6.29898 25.1774 6.35889 25.2768 6.44758 25.3458C6.53627 25.4148 6.64741 25.4484 6.75946 25.4401C7.22444 25.3885 7.67621 25.253 8.09279 25.0401C8.41162 25.4161 8.70558 25.8125 8.97279 26.2267C9.13279 26.4667 9.27946 26.7201 9.41279 26.9601C9.54613 27.2001 9.70613 27.4534 9.83946 27.7067C10.1677 28.3366 10.4442 28.9921 10.6661 29.6667C10.6917 29.7767 10.7586 29.8726 10.8529 29.9346C10.9472 29.9967 11.0617 30.0201 11.1728 30.0001C11.229 29.9907 11.2826 29.9698 11.3303 29.9388C11.378 29.9077 11.4188 29.8671 11.4501 29.8195C11.4814 29.772 11.5025 29.7184 11.5122 29.6623C11.5218 29.6062 11.5198 29.5487 11.5061 29.4934C11.4611 28.7161 11.3269 27.9467 11.1061 27.2001C10.9873 26.868 10.8401 26.5468 10.6661 26.2401Z" fill="#3793AE"/>
<path fill-rule="evenodd" clip-rule="evenodd" d="M31.5843 27.2C31.4741 26.8688 31.3358 26.5477 31.171 26.24C30.9986 25.9338 30.793 25.6476 30.5576 25.3867C30.2207 25.0383 29.8449 24.7296 29.4376 24.4667C29.9029 24.0041 30.2629 23.4466 30.493 22.8323C30.7231 22.2179 30.8179 21.5611 30.771 20.9067C30.7639 19.7951 30.3165 18.7316 29.5267 17.9494C28.7369 17.1671 27.6692 16.7298 26.5576 16.7334C25.3729 16.6969 24.221 17.1258 23.3487 17.9283C22.4765 18.7308 21.9532 19.843 21.891 21.0267C21.8579 21.7659 22.0392 22.499 22.4129 23.1377C22.7866 23.7763 23.337 24.2934 23.9976 24.6267C23.4355 24.9197 22.904 25.2681 22.411 25.6667C21.9325 26.0726 21.5188 26.5492 21.1843 27.08C20.8791 27.5402 20.6698 28.0573 20.569 28.6002C20.4682 29.1432 20.4779 29.7009 20.5976 30.24C20.6235 30.3421 20.6862 30.4311 20.7737 30.4897C20.8612 30.5483 20.9673 30.5725 21.0716 30.5576C21.1759 30.5427 21.2709 30.4898 21.3385 30.409C21.4061 30.3282 21.4414 30.2253 21.4376 30.12C21.443 29.5007 21.6334 28.8971 21.9843 28.3867C22.3144 27.8828 22.6892 27.4098 23.1043 26.9734C23.7576 26.2534 24.4376 25.5334 24.9976 24.9867C25.4037 25.0881 25.8193 25.1462 26.2376 25.16C26.3262 25.1434 26.4062 25.0963 26.4638 25.0269C26.5213 24.9575 26.5528 24.8702 26.5528 24.78C26.5528 24.6899 26.5213 24.6026 26.4638 24.5332C26.4062 24.4638 26.3262 24.4167 26.2376 24.4C23.9976 24.16 22.931 22.6667 23.051 21.08C23.142 20.2393 23.5555 19.4667 24.2045 18.9246C24.8536 18.3825 25.6875 18.1132 26.531 18.1734C27.3009 18.159 28.0454 18.4494 28.6023 18.9813C29.1591 19.5132 29.4833 20.2436 29.5043 21.0134C29.6616 21.8017 29.5002 22.6203 29.0554 23.29C28.6106 23.9597 27.9187 24.4259 27.131 24.5867C27.0749 24.5928 27.0207 24.6099 26.9712 24.637C26.9218 24.6641 26.8782 24.7007 26.8429 24.7447C26.8077 24.7886 26.7814 24.8391 26.7656 24.8932C26.7498 24.9473 26.7448 25.004 26.751 25.06C26.7571 25.116 26.7742 25.1703 26.8013 25.2197C26.8284 25.2692 26.865 25.3128 26.9089 25.348C26.9529 25.3833 27.0034 25.4096 27.0575 25.4254C27.1116 25.4412 27.1683 25.4461 27.2243 25.44C27.6893 25.3884 28.1411 25.2529 28.5576 25.04C28.8765 25.416 29.1704 25.8124 29.4376 26.2267C29.5976 26.4667 29.7443 26.72 29.8776 26.96C30.011 27.2 30.171 27.4534 30.3043 27.7067C30.628 28.3369 30.9 28.9924 31.1176 29.6667C31.1432 29.7766 31.2101 29.8725 31.3044 29.9346C31.3987 29.9966 31.5132 30.0201 31.6243 30C31.6796 29.9889 31.7321 29.9669 31.7789 29.9354C31.8256 29.9038 31.8657 29.8633 31.8967 29.8162C31.9277 29.7691 31.949 29.7163 31.9595 29.6609C31.9699 29.6055 31.9693 29.5485 31.9576 29.4934C31.9213 28.7171 31.796 27.9477 31.5843 27.2Z" fill="#3793AE"/>
<path fill-rule="evenodd" clip-rule="evenodd" d="M17.2413 8.60006C17.0413 9.00006 16.8679 9.40006 16.6546 9.93339L16.2146 11.0934L15.9079 12.0001L15.7079 12.6667L14.8546 11.9067L13.7879 10.9734L12.0946 9.41339C12.0598 9.37791 12.0184 9.34973 11.9726 9.33049C11.9268 9.31125 11.8776 9.30134 11.8279 9.30134C11.7783 9.30134 11.7291 9.31125 11.6833 9.33049C11.6375 9.34973 11.596 9.37791 11.5613 9.41339C11.5258 9.44815 11.4976 9.48964 11.4784 9.53543C11.4591 9.58122 11.4492 9.63039 11.4492 9.68006C11.4492 9.72972 11.4591 9.77889 11.4784 9.82468C11.4976 9.87047 11.5258 9.91196 11.5613 9.94672L13.1346 11.6801L14.1079 12.6934L15.0679 13.7201C15.2013 13.8534 15.3346 14.2001 15.4546 14.3067C15.585 14.4192 15.7493 14.4849 15.9213 14.4934C16.0318 14.4929 16.1407 14.4675 16.24 14.419C16.3393 14.3705 16.4263 14.3002 16.4946 14.2134C16.6444 14.0329 16.7658 13.8305 16.8546 13.6134C17.0279 13.2267 17.1479 12.7601 17.2546 12.4667L17.5746 11.5601L18.0146 10.4667L19.1346 8.00006C19.6966 6.90551 20.3383 5.85379 21.0546 4.85339C21.768 3.87381 22.5911 2.97909 23.5079 2.18672C23.5963 2.116 23.653 2.01305 23.6655 1.90053C23.678 1.78801 23.6453 1.67513 23.5746 1.58672C23.5039 1.49832 23.4009 1.44163 23.2884 1.42913C23.1759 1.41662 23.063 1.44933 22.9746 1.52006C21.9383 2.29417 20.9983 3.18941 20.1746 4.18672C19.3432 5.18043 18.5899 6.23691 17.9213 7.34672C17.6546 7.81339 17.4413 8.20006 17.2413 8.60006Z" fill="#3793AE"/>
<path fill-rule="evenodd" clip-rule="evenodd" d="M26.411 8.78675C26.1631 8.15256 25.8361 7.55224 25.4377 7.00008C24.8618 6.21124 24.2431 5.45455 23.5843 4.73341C23.5207 4.65738 23.4294 4.60975 23.3307 4.601C23.2319 4.59225 23.1337 4.62309 23.0577 4.68675C22.9816 4.7504 22.934 4.84165 22.9253 4.94041C22.9165 5.03918 22.9474 5.13738 23.011 5.21341C23.6255 5.93682 24.1997 6.69352 24.731 7.48008C25.077 7.98352 25.355 8.53047 25.5577 9.10675C25.9106 9.98657 25.9951 10.9512 25.8005 11.879C25.606 12.8068 25.141 13.6562 24.4643 14.3201C23.3464 15.2743 22.0432 15.9871 20.6367 16.4139C19.2302 16.8407 17.7507 16.9721 16.291 16.8001C12.371 16.6001 9.71768 15.6134 8.11768 14.2267C7.41005 13.6787 6.88398 12.9301 6.60809 12.0786C6.3322 11.2272 6.31927 10.3123 6.57101 9.45341C7.57101 6.06675 12.1843 3.20008 18.891 4.22675C18.947 4.23638 19.0044 4.23488 19.0599 4.22233C19.1153 4.20979 19.1678 4.18644 19.2142 4.15363C19.2606 4.12082 19.3001 4.07919 19.3305 4.03111C19.3608 3.98303 19.3814 3.92944 19.391 3.87341C19.4006 3.81738 19.3991 3.76 19.3866 3.70455C19.374 3.6491 19.3507 3.59666 19.3179 3.55024C19.2851 3.50381 19.2435 3.46429 19.1954 3.43395C19.1473 3.40361 19.0937 3.38304 19.0377 3.37341C11.6377 2.04008 6.54434 5.33341 5.33101 9.06675C4.50434 11.6134 5.33101 14.4001 8.51768 16.2801C10.8877 17.5272 13.5198 18.1943 16.1977 18.2267C17.8531 18.3673 19.5197 18.1625 21.0918 17.6255C22.664 17.0884 24.1075 16.2307 25.331 15.1067C26.1155 14.278 26.6368 13.2353 26.829 12.1104C27.0212 10.9856 26.8758 9.82899 26.411 8.78675Z" fill="#3793AE"/>
</svg>
