<svg width="32" height="32" viewBox="0 0 32 32" fill="none" xmlns="http://www.w3.org/2000/svg">
<g clip-path="url(#clip0_1300_2049)">
<path fill-rule="evenodd" clip-rule="evenodd" d="M8.41502 28.3467C8.27325 28.0607 8.09875 27.7923 7.89502 27.5467C7.48711 27.1354 7.00833 26.8012 6.48169 26.56C6.80317 26.4503 7.0972 26.2726 7.34369 26.0389C7.59018 25.8052 7.78331 25.521 7.9099 25.2058C8.03648 24.8906 8.09354 24.5518 8.07716 24.2125C8.06079 23.8733 7.97137 23.5415 7.81502 23.24C7.52761 22.5683 7.0346 22.0052 6.40689 21.6314C5.77919 21.2577 5.04912 21.0926 4.32169 21.16C3.82897 21.2591 3.36475 21.4674 2.96324 21.7697C2.56173 22.072 2.23314 22.4605 2.00169 22.9067C1.75103 23.3734 1.64507 23.9042 1.69731 24.4313C1.74955 24.9585 1.95764 25.4582 2.29502 25.8667C2.57084 26.1618 2.91391 26.386 3.29502 26.52C2.71168 26.7716 2.1855 27.139 1.74835 27.6C1.54462 27.8456 1.37012 28.1141 1.22835 28.4C1.08817 28.6973 0.98517 29.0108 0.921686 29.3333C0.77056 30.0204 0.703402 30.7234 0.721686 31.4267C0.716561 31.5626 0.761096 31.6958 0.846974 31.8013C0.932852 31.9068 1.0542 31.9774 1.18835 32C1.25848 32.0093 1.32975 32.0046 1.39803 31.9861C1.46631 31.9676 1.53023 31.9357 1.58607 31.8923C1.64191 31.8489 1.68855 31.7948 1.72328 31.7331C1.75801 31.6715 1.78013 31.6036 1.78835 31.5333C2.06724 30.7698 2.41535 30.0334 2.82835 29.3333L3.17502 28.6533C3.29502 28.4133 3.37502 28.1733 3.50835 27.9466C3.68003 27.6599 3.88112 27.3918 4.10835 27.1467C4.17194 27.1023 4.2227 27.042 4.25548 26.9718C4.28825 26.9015 4.3019 26.8239 4.29502 26.7467C4.60175 26.8135 4.91445 26.8492 5.22835 26.8533C5.22835 26.8533 5.29502 26.8533 5.33502 26.7867C5.36231 26.9097 5.43338 27.0187 5.53502 27.0933C5.76225 27.3384 5.96334 27.6065 6.13502 27.8933C6.26835 28.12 6.34835 28.36 6.46835 28.6L6.81502 29.28C7.23172 29.9874 7.57997 30.733 7.85502 31.5066C7.86295 31.5778 7.8855 31.6466 7.92124 31.7086C7.95698 31.7706 8.00515 31.8246 8.06273 31.8672C8.12031 31.9098 8.18606 31.94 8.25586 31.9559C8.32565 31.9719 8.398 31.9733 8.46835 31.96C8.61137 31.9401 8.74072 31.8645 8.82815 31.7495C8.91558 31.6346 8.954 31.4898 8.93502 31.3467C8.94933 30.6428 8.87769 29.9398 8.72169 29.2533C8.65612 28.9399 8.55316 28.6355 8.41502 28.3467ZM4.10835 25.6133C3.81839 25.4946 3.57176 25.2898 3.40169 25.0267C3.29793 24.8255 3.25527 24.5984 3.27896 24.3734C3.30265 24.1483 3.39166 23.9351 3.53502 23.76C3.65472 23.5565 3.81661 23.381 4.0098 23.2453C4.20298 23.1096 4.42299 23.0169 4.65502 22.9733C5.02151 22.9113 5.39822 22.9669 5.73116 23.1322C6.0641 23.2975 6.33616 23.5639 6.50835 23.8933C7.09502 24.96 6.10835 26.44 4.10835 25.6133Z" fill="#3793AE"/>
<path fill-rule="evenodd" clip-rule="evenodd" d="M19.4027 28.3467C19.2609 28.0607 19.0864 27.7923 18.8827 27.5467C18.4748 27.1354 17.996 26.8012 17.4694 26.56C17.7967 26.4576 18.0977 26.2851 18.3516 26.0544C18.6054 25.8238 18.806 25.5407 18.9392 25.2246C19.0725 24.9086 19.1353 24.5674 19.1232 24.2246C19.1111 23.8818 19.0245 23.5458 18.8694 23.24C18.5819 22.5683 18.0889 22.0052 17.4612 21.6314C16.8335 21.2577 16.1035 21.0926 15.376 21.16C14.8713 21.2498 14.3938 21.4539 13.9802 21.7566C13.5665 22.0593 13.2276 22.4527 12.9894 22.9067C12.7459 23.3785 12.6488 23.9123 12.7106 24.4396C12.7724 24.9669 12.9901 25.4638 13.336 25.8667C13.6118 26.1618 13.9549 26.386 14.336 26.52C13.7527 26.7716 13.2265 27.139 12.7894 27.6C12.5856 27.8456 12.4111 28.1141 12.2694 28.4C12.1332 28.6804 12.0303 28.9757 11.9627 29.28C11.8116 29.9671 11.7444 30.67 11.7627 31.3733C11.7435 31.518 11.7815 31.6644 11.8687 31.7815C11.9558 31.8985 12.0852 31.9769 12.2294 32C12.2995 32.0093 12.3708 32.0046 12.439 31.9861C12.5073 31.9676 12.5712 31.9357 12.6271 31.8923C12.6829 31.8489 12.7296 31.7948 12.7643 31.7331C12.799 31.6715 12.8211 31.6036 12.8294 31.5333C13.0911 30.7717 13.4214 30.0353 13.816 29.3333L14.1627 28.6533C14.2827 28.4133 14.3627 28.1733 14.496 27.9466C14.6677 27.6599 14.8688 27.3918 15.096 27.1467C15.1596 27.1023 15.2104 27.042 15.2431 26.9718C15.2759 26.9015 15.2896 26.8239 15.2827 26.7467C15.5894 26.8135 15.9021 26.8492 16.216 26.8533C16.216 26.8533 16.2827 26.8533 16.3227 26.7867C16.35 26.9097 16.421 27.0187 16.5227 27.0933C16.7499 27.3384 16.951 27.6065 17.1227 27.8933C17.256 28.12 17.336 28.36 17.456 28.6L17.8027 29.28C18.2194 29.9874 18.5676 30.733 18.8427 31.5066C18.8506 31.5778 18.8732 31.6466 18.9089 31.7086C18.9446 31.7706 18.9928 31.8246 19.0504 31.8672C19.108 31.9098 19.1737 31.94 19.2435 31.9559C19.3133 31.9719 19.3857 31.9733 19.456 31.96C19.599 31.9401 19.7284 31.8645 19.8158 31.7495C19.9033 31.6346 19.9417 31.4898 19.9227 31.3467C19.937 30.6428 19.8654 29.9398 19.7094 29.2533C19.6438 28.9399 19.5408 28.6355 19.4027 28.3467ZM15.096 25.6133C14.8061 25.4946 14.5594 25.2898 14.3894 25.0267C14.2856 24.8255 14.2429 24.5984 14.2666 24.3734C14.2903 24.1483 14.3793 23.9351 14.5227 23.76C14.6424 23.5565 14.8043 23.381 14.9975 23.2453C15.1907 23.1096 15.4107 23.0169 15.6427 22.9733C16.0092 22.9113 16.3859 22.9669 16.7188 23.1322C17.0518 23.2975 17.3238 23.5639 17.496 23.8933C18.0827 24.9733 17.096 26.4266 15.096 25.6133Z" fill="#3793AE"/>
<path fill-rule="evenodd" clip-rule="evenodd" d="M30.3889 28.3467C30.2472 28.0607 30.0727 27.7923 29.8689 27.5467C29.4858 27.1421 29.0345 26.8081 28.5356 26.56C28.8571 26.4503 29.1511 26.2726 29.3976 26.0389C29.6441 25.8052 29.8372 25.521 29.9638 25.2058C30.0904 24.8906 30.1475 24.5518 30.1311 24.2125C30.1147 23.8733 30.0253 23.5415 29.8689 23.24C29.5815 22.5683 29.0885 22.0052 28.4608 21.6314C27.8331 21.2577 27.103 21.0926 26.3756 21.16C25.8733 21.2517 25.3985 21.4566 24.9872 21.7593C24.576 22.0619 24.2391 22.4543 24.0023 22.9067C23.7516 23.3734 23.6456 23.9042 23.6979 24.4313C23.7501 24.9585 23.9582 25.4582 24.2956 25.8667C24.5752 26.1572 24.9172 26.3806 25.2956 26.52C24.7082 26.7713 24.1776 27.1387 23.7356 27.6C23.5319 27.8456 23.3574 28.1141 23.2156 28.4C23.0794 28.6804 22.9765 28.9757 22.9089 29.28C22.7444 29.9654 22.6638 30.6684 22.6689 31.3733C22.6497 31.518 22.6878 31.6644 22.7749 31.7815C22.8621 31.8985 22.9915 31.9769 23.1356 32C23.2057 32.0093 23.277 32.0046 23.3453 31.9861C23.4136 31.9676 23.4775 31.9357 23.5333 31.8923C23.5892 31.8489 23.6358 31.7948 23.6705 31.7331C23.7053 31.6715 23.7274 31.6036 23.7356 31.5333C24.023 30.7689 24.3801 30.0324 24.8023 29.3333L25.1489 28.6533C25.2689 28.4133 25.3489 28.1733 25.4823 27.9466C25.654 27.6599 25.855 27.3918 26.0823 27.1467C26.1459 27.1023 26.1966 27.042 26.2294 26.9718C26.2622 26.9015 26.2758 26.8239 26.2689 26.7467C26.58 26.8143 26.8972 26.8501 27.2156 26.8533C27.2156 26.8533 27.2156 26.8533 27.3089 26.7867C27.3325 26.9113 27.4044 27.0215 27.5089 27.0933C27.7362 27.3384 27.9373 27.6065 28.1089 27.8933C28.2423 28.12 28.3223 28.36 28.4423 28.6L28.7889 29.28C29.2056 29.9874 29.5539 30.733 29.8289 31.5066C29.8369 31.5778 29.8594 31.6466 29.8952 31.7086C29.9309 31.7706 29.9791 31.8246 30.0366 31.8672C30.0942 31.9098 30.16 31.94 30.2298 31.9559C30.2996 31.9719 30.3719 31.9733 30.4423 31.96C30.5853 31.9401 30.7146 31.8645 30.8021 31.7495C30.8895 31.6346 30.9279 31.4898 30.9089 31.3467C30.9167 30.6328 30.8361 29.9207 30.6689 29.2267C30.6099 28.9235 30.5159 28.6282 30.3889 28.3467ZM26.0956 25.6133C25.8056 25.4946 25.559 25.2898 25.3889 25.0267C25.2852 24.8255 25.2425 24.5984 25.2662 24.3734C25.2899 24.1483 25.3789 23.9351 25.5223 23.76C25.642 23.5565 25.8039 23.381 25.997 23.2453C26.1902 23.1096 26.4102 23.0169 26.6423 22.9733C27.0088 22.9113 27.3855 22.9669 27.7184 23.1322C28.0513 23.2975 28.3234 23.5639 28.4956 23.8933C28.5941 24.0476 28.6555 24.2225 28.6752 24.4044C28.6948 24.5863 28.6721 24.7704 28.6089 24.9421C28.5456 25.1138 28.4435 25.2685 28.3105 25.3942C28.1775 25.5199 28.0173 25.6132 27.8423 25.6667C27.4689 25.8133 27.8423 25.8667 27.2156 25.8667C26.8313 25.8413 26.4534 25.7558 26.0956 25.6133Z" fill="#3793AE"/>
<path fill-rule="evenodd" clip-rule="evenodd" d="M21.6696 8.97336C21.514 8.62354 21.3122 8.29617 21.0696 8.00002C20.5117 7.3767 19.8367 6.86928 19.0829 6.50669C19.4903 6.15158 19.7999 5.6979 19.982 5.189C20.1641 4.68011 20.2126 4.13302 20.1229 3.60002C20.0624 2.75545 19.7355 1.95184 19.1892 1.3049C18.6429 0.657968 17.9054 0.201082 17.0829 2.5114e-05C16.2647 -0.0513961 15.4476 0.116791 14.7162 0.487179C13.9848 0.857567 13.3656 1.4167 12.9229 2.10669C12.6708 2.44855 12.4927 2.83925 12.4002 3.25382C12.3077 3.66839 12.3027 4.09771 12.3855 4.51433C12.4683 4.93095 12.6371 5.32571 12.8812 5.67336C13.1253 6.02102 13.4392 6.31393 13.8029 6.53336H13.9362C13.2577 6.99709 12.6357 7.53854 12.0829 8.14669C11.6898 8.57655 11.3619 9.06171 11.1096 9.58669C10.8473 10.0628 10.6849 10.5874 10.6321 11.1284C10.5794 11.6695 10.6375 12.2155 10.8029 12.7334C10.8403 12.8693 10.9301 12.9849 11.0525 13.0549C11.1749 13.1248 11.3201 13.1435 11.4562 13.1067C11.5957 13.0692 11.7146 12.978 11.787 12.8531C11.8595 12.7282 11.8795 12.5797 11.8429 12.44C11.8314 12.097 11.9095 11.7569 12.0696 11.4534C12.2427 11.1047 12.4434 10.7703 12.6696 10.4534C12.8829 10.12 13.1229 9.78669 13.3362 9.42669C13.8562 8.62669 14.2696 7.81336 14.6696 7.20003C14.6696 7.20003 14.6696 7.09336 14.7496 7.02669C15.1827 7.17296 15.6294 7.27569 16.0829 7.33336C16.2064 7.35282 16.3327 7.3233 16.4348 7.25109C16.5369 7.17887 16.6068 7.06966 16.6296 6.94669C16.6411 6.88452 16.6402 6.82067 16.627 6.75883C16.6138 6.69699 16.5885 6.63836 16.5526 6.58633C16.5167 6.53429 16.4708 6.48986 16.4177 6.4556C16.3645 6.42134 16.3051 6.39792 16.2429 6.38669C15.9183 6.31489 15.6013 6.2122 15.2962 6.08003C15.0142 5.95715 14.7532 5.79067 14.5229 5.58669C14.2254 5.35306 14.0133 5.02789 13.9193 4.66152C13.8253 4.29515 13.8547 3.90801 14.0029 3.56002C14.2047 3.13007 14.5177 2.76182 14.9096 2.49336C15.4331 2.02972 16.1178 1.79031 16.8162 1.82669C17.2994 1.91586 17.7408 2.15873 18.0748 2.51911C18.4088 2.8795 18.6174 3.33813 18.6696 3.82669C18.8696 4.82669 18.5896 5.89336 17.4162 5.98669C17.3382 5.97439 17.2584 5.97915 17.1824 6.00063C17.1064 6.02212 17.036 6.05981 16.9759 6.11114C16.9159 6.16246 16.8677 6.22618 16.8346 6.29792C16.8016 6.36966 16.7844 6.4477 16.7844 6.52669C16.7844 6.60568 16.8016 6.68373 16.8346 6.75547C16.8677 6.8272 16.9159 6.89093 16.9759 6.94225C17.036 6.99357 17.1064 7.03127 17.1824 7.05275C17.2584 7.07423 17.3382 7.07899 17.4162 7.06669C17.694 7.05608 17.9684 7.00209 18.2296 6.90669C18.2329 6.97141 18.2502 7.03466 18.2801 7.09216C18.31 7.14966 18.3518 7.20008 18.4029 7.24002C18.8928 7.76292 19.3018 8.35615 19.6162 9.00002L20.0162 9.77336C20.5191 10.6722 20.879 11.6438 21.0829 12.6534C21.1117 12.7862 21.188 12.9041 21.2973 12.9849C21.4067 13.0657 21.5417 13.104 21.6772 13.0925C21.8127 13.0811 21.9394 13.0208 22.0337 12.9228C22.128 12.8248 22.1834 12.6959 22.1896 12.56C22.2382 11.7161 22.18 10.8694 22.0162 10.04C21.9449 9.67159 21.8284 9.31334 21.6696 8.97336Z" fill="#3793AE"/>
<path fill-rule="evenodd" clip-rule="evenodd" d="M19.707 16.2801L17.0403 17.9601L16.8403 18.1201C16.9337 17.5468 17.027 16.9601 17.0803 16.3734C17.1002 16.0804 17.1002 15.7864 17.0803 15.4934C17.1003 15.2004 17.1003 14.9064 17.0803 14.6134C17.0003 13.9201 16.8403 13.2801 16.7737 12.5734C16.7851 12.5045 16.7817 12.4339 16.7637 12.3663C16.7458 12.2988 16.7137 12.2358 16.6695 12.1816C16.6254 12.1274 16.5703 12.0832 16.5078 12.0519C16.4453 12.0206 16.3768 12.0029 16.307 12.0001C16.1818 11.9927 16.0587 12.0346 15.964 12.1169C15.8693 12.1991 15.8106 12.3151 15.8003 12.4401C15.5778 13.1229 15.4128 13.8231 15.307 14.5334C15.2871 14.8353 15.2871 15.1382 15.307 15.4401C15.3092 15.739 15.3314 16.0375 15.3737 16.3334C15.3737 16.8401 15.5203 17.3334 15.6137 17.8401C15.4537 17.7201 15.2803 17.6134 15.107 17.5068C14.347 17.0401 13.5737 16.6401 12.8003 16.1734C12.7513 16.1358 12.6953 16.1082 12.6356 16.0922C12.5759 16.0761 12.5137 16.072 12.4524 16.0801C12.3911 16.0881 12.332 16.1082 12.2785 16.1391C12.2249 16.1699 12.178 16.2111 12.1403 16.2601C12.1027 16.3091 12.0751 16.3651 12.059 16.4248C12.043 16.4845 12.0389 16.5468 12.047 16.6081C12.055 16.6693 12.0751 16.7284 12.106 16.782C12.1368 16.8355 12.178 16.8825 12.227 16.9201L14.8937 19.5201C15.1403 19.7891 15.403 20.0429 15.6803 20.2801C15.8237 20.3972 15.9965 20.4728 16.1798 20.4987C16.3632 20.5245 16.5501 20.4997 16.7203 20.4268C16.94 20.32 17.1423 20.1806 17.3203 20.0134C17.6137 19.7468 17.867 19.3868 18.0937 19.1601L20.3603 17.1068C20.4183 17.0647 20.4672 17.0113 20.504 16.9499C20.5409 16.8885 20.5651 16.8203 20.575 16.7494C20.585 16.6785 20.5805 16.6063 20.562 16.5371C20.5434 16.4679 20.5111 16.4032 20.467 16.3468C20.374 16.2388 20.2425 16.1714 20.1006 16.1589C19.9586 16.1465 19.8174 16.19 19.707 16.2801Z" fill="#3793AE"/>
<path fill-rule="evenodd" clip-rule="evenodd" d="M9.17512 16.6666C8.62845 16.9466 8.09512 17.2266 7.58845 17.5333C7.21437 17.7318 6.85361 17.9545 6.50845 18.1999H6.42845C6.56482 17.635 6.734 17.0785 6.93512 16.5333C7.09512 16.1733 7.25512 15.8133 7.42845 15.4666C7.60265 15.1368 7.79402 14.8164 8.00178 14.5066C8.42222 13.6961 9.0082 12.9829 9.72178 12.4133C9.82841 12.3469 9.90571 12.2424 9.93792 12.121C9.97013 11.9996 9.95482 11.8704 9.89512 11.7599C9.86589 11.7034 9.82542 11.6535 9.77617 11.6131C9.72693 11.5728 9.66996 11.543 9.60876 11.5255C9.54757 11.508 9.48345 11.5033 9.42034 11.5115C9.35723 11.5197 9.29646 11.5407 9.24178 11.5733C8.20322 11.981 7.28553 12.6463 6.57512 13.5066C6.26538 13.8755 6.00539 14.2834 5.80178 14.7199C5.59945 15.1466 5.44301 15.5936 5.33512 16.0533C5.19118 16.6253 5.10629 17.2106 5.08178 17.7999L2.41512 15.6666C2.37052 15.6219 2.31753 15.5864 2.25919 15.5621C2.20085 15.5379 2.13829 15.5254 2.07512 15.5254C2.01194 15.5254 1.94939 15.5379 1.89104 15.5621C1.8327 15.5864 1.77971 15.6219 1.73512 15.6666C1.65173 15.7576 1.60547 15.8765 1.60547 15.9999C1.60547 16.1234 1.65173 16.2423 1.73512 16.3333L4.29512 19.4666L5.01512 20.1599C4.93512 20.2533 5.30845 20.4266 5.41512 20.4799C5.56199 20.5597 5.72829 20.5967 5.89512 20.5866C6.20288 20.5782 6.50251 20.486 6.76178 20.3199C7.08832 20.0674 7.39174 19.7863 7.66845 19.4799C7.89509 19.1973 8.13538 18.9259 8.38845 18.6666L9.72178 17.5599C9.82586 17.474 9.89445 17.3525 9.91434 17.219C9.93423 17.0855 9.90402 16.9494 9.82952 16.8368C9.75502 16.7242 9.64151 16.6432 9.51084 16.6093C9.38018 16.5754 9.24159 16.5911 9.12178 16.6533L9.17512 16.6666Z" fill="#3793AE"/>
<path fill-rule="evenodd" clip-rule="evenodd" d="M31.1353 15.64C31.0918 15.5956 31.04 15.5604 30.9827 15.5364C30.9255 15.5123 30.864 15.4999 30.8019 15.4999C30.7398 15.4999 30.6784 15.5123 30.6211 15.5364C30.5639 15.5604 30.512 15.5956 30.4686 15.64L27.8019 17.7733C27.7708 17.1846 27.6861 16.5999 27.5486 16.0266C27.4358 15.5666 27.275 15.1197 27.0686 14.6933C26.8647 14.2599 26.6096 13.8526 26.3086 13.48C25.5927 12.6255 24.6766 11.9614 23.6419 11.5466C23.5868 11.5151 23.526 11.4948 23.4629 11.4868C23.3999 11.4788 23.3359 11.4832 23.2746 11.5C23.2134 11.5167 23.156 11.5453 23.1057 11.5842C23.0555 11.6231 23.0134 11.6715 22.9819 11.7266C22.9504 11.7818 22.9301 11.8426 22.9221 11.9056C22.914 11.9687 22.9185 12.0326 22.9352 12.0939C22.952 12.1552 22.9806 12.2126 23.0195 12.2628C23.0584 12.3131 23.1068 12.3551 23.1619 12.3866C23.8852 12.9535 24.4804 13.6669 24.9086 14.48C25.0953 14.8133 25.2819 15.1466 25.4553 15.4933C25.6286 15.84 25.7886 16.2 25.9486 16.56C26.1086 16.92 26.2819 17.6666 26.4419 18.2266H26.3753C26.0153 17.9866 25.6686 17.76 25.2953 17.56C24.9219 17.36 24.2419 16.9733 23.6953 16.6933C23.5745 16.6173 23.4289 16.5914 23.2894 16.6213C23.1499 16.6512 23.0276 16.7345 22.9486 16.8533C22.9092 16.9126 22.882 16.9791 22.8688 17.049C22.8555 17.1189 22.8563 17.1908 22.8712 17.2604C22.8861 17.33 22.9148 17.3958 22.9556 17.4542C22.9963 17.5125 23.0484 17.5621 23.1086 17.6L24.4419 18.7066C24.7219 18.9466 24.9886 19.2133 25.2553 19.48C25.5288 19.7895 25.8325 20.0709 26.1619 20.32C26.4165 20.4855 26.7117 20.5778 27.0153 20.5866C27.1821 20.5974 27.3486 20.5604 27.4953 20.48C27.6153 20.48 27.9886 20.2533 27.8953 20.16L28.6286 19.4666L31.1753 16.3333C31.2214 16.2868 31.2572 16.2311 31.2804 16.1699C31.3036 16.1086 31.3137 16.0431 31.3099 15.9777C31.3061 15.9123 31.2886 15.8484 31.2585 15.7903C31.2285 15.7321 31.1864 15.6809 31.1353 15.64Z" fill="#3793AE"/>
</g>
<defs>
<clipPath id="clip0_1300_2049">
<rect width="32" height="32" fill="white"/>
</clipPath>
</defs>
</svg>
