<svg width="32" height="32" viewBox="0 0 32 32" fill="none" xmlns="http://www.w3.org/2000/svg">
<g clip-path="url(#clip0_1300_2061)">
<path fill-rule="evenodd" clip-rule="evenodd" d="M9.7062 25.3335C9.75454 24.338 10.1564 23.3925 10.8395 22.6668C11.2507 22.1151 11.696 21.5896 12.1729 21.0935C12.9329 20.2935 13.6929 19.5335 14.3862 18.9335C14.9192 19.0667 15.4641 19.1471 16.0129 19.1735C16.0687 19.184 16.1262 19.182 16.1812 19.1678C16.2362 19.1536 16.2875 19.1274 16.3312 19.0911C16.3749 19.0548 16.4102 19.0093 16.4343 18.9579C16.4585 18.9064 16.471 18.8503 16.471 18.7935C16.471 18.7366 16.4585 18.6805 16.4343 18.6291C16.4102 18.5776 16.3749 18.5321 16.3312 18.4959C16.2875 18.4596 16.2362 18.4334 16.1812 18.4191C16.1262 18.4049 16.0687 18.403 16.0129 18.4135C13.0662 18.1335 11.6929 16.3068 11.6395 14.4135C12.0554 14.6258 12.5079 14.757 12.9729 14.8001C13.1849 14.8332 13.4008 14.8332 13.6129 14.8001C13.8295 14.7754 14.0409 14.7169 14.2395 14.6268C14.756 14.4472 15.216 14.1344 15.5729 13.7201C15.5729 13.7201 15.5729 13.6268 15.6395 13.5735L16.1462 13.8535C16.6087 14.0586 17.0913 14.215 17.5862 14.3201C18.5147 14.4897 19.4641 14.5122 20.3995 14.3868C20.4968 15.3815 20.2182 16.3765 19.6185 17.176C19.0189 17.9756 18.1416 18.5217 17.1595 18.7068C17.0464 18.721 16.9435 18.7795 16.8734 18.8695C16.8034 18.9595 16.772 19.0736 16.7862 19.1868C16.8003 19.3 16.8589 19.4029 16.9489 19.4729C17.0389 19.5429 17.153 19.5743 17.2662 19.5601C17.9072 19.5014 18.5291 19.3108 19.0929 19.0001C19.542 19.4967 19.9521 20.0272 20.3195 20.5868C20.5329 20.9068 20.7329 21.2135 20.9195 21.5468C21.1062 21.8801 21.2929 22.2001 21.4529 22.5468C21.867 23.3679 22.2061 24.2247 22.4662 25.1068C22.4758 25.1633 22.4966 25.2173 22.5275 25.2655C22.5584 25.3138 22.5987 25.3553 22.6459 25.3877C22.6932 25.42 22.7465 25.4425 22.8027 25.4538C22.8589 25.4651 22.9167 25.465 22.9729 25.4535C23.0828 25.4279 23.1787 25.361 23.2408 25.2667C23.3028 25.1724 23.3262 25.0579 23.3062 24.9468C23.2036 23.9612 22.9889 22.9904 22.6662 22.0535C22.5241 21.6343 22.3456 21.2283 22.1329 20.8401C21.9163 20.4556 21.6617 20.0938 21.3729 19.7601C20.916 19.2569 20.4013 18.8094 19.8395 18.4268C20.4494 17.8395 20.9186 17.1218 21.2118 16.3275C21.505 15.5332 21.6148 14.6829 21.5329 13.8401C21.5311 13.1544 21.3941 12.4757 21.1297 11.843C20.8652 11.2103 20.4785 10.636 19.9918 10.1529C19.505 9.66989 18.9277 9.28762 18.293 9.02803C17.6583 8.76845 16.9786 8.63663 16.2929 8.64014C14.8127 8.58876 13.3709 9.11758 12.275 10.1139C11.1791 11.1101 10.5157 12.4951 10.4262 13.9735C10.3745 14.9588 10.6253 15.9364 11.1448 16.7752C11.6643 17.614 12.4277 18.274 13.3329 18.6668C12.5642 19.097 11.8367 19.5969 11.1595 20.1601C10.5603 20.6778 10.0393 21.2796 9.61286 21.9468C8.92731 22.8349 8.60338 23.9496 8.7062 25.0668C8.87953 25.6268 9.73286 25.7335 9.7062 25.3335ZM16.3729 10.1201C17.3161 10.0883 18.2377 10.4074 18.9594 11.0157C19.681 11.6241 20.1514 12.4784 20.2795 13.4135C19.4781 13.3801 18.6846 13.2411 17.9195 13.0001C17.5277 12.8745 17.1447 12.723 16.7729 12.5468C16.3999 12.3913 16.039 12.2086 15.6929 12.0001C15.1261 11.6293 14.6144 11.1804 14.1729 10.6668C14.8524 10.34 15.5926 10.1583 16.3462 10.1335L16.3729 10.1201ZM13.3329 11.1068C13.702 11.8485 14.2141 12.5101 14.8395 13.0535L14.9195 13.1201C14.7444 13.1954 14.5609 13.2491 14.3729 13.2801C14.1553 13.2939 13.9371 13.2939 13.7195 13.2801L13.0795 13.3735C12.6437 13.4932 12.1971 13.5691 11.7462 13.6001C11.9544 12.6038 12.5185 11.7174 13.3329 11.1068Z" fill="#3793AE"/>
<path fill-rule="evenodd" clip-rule="evenodd" d="M31.5589 15.8534C30.7271 15.7555 29.8889 15.7243 29.0522 15.7601H28.9189C28.9505 12.2867 27.6254 8.93801 25.2255 6.42676C23.1342 4.51997 20.4154 3.44764 17.5855 3.41342H16.4522C16.4585 3.31575 16.4585 3.21777 16.4522 3.12009C16.3855 2.41342 16.2655 1.78676 16.1989 1.02676C16.2026 0.926386 16.167 0.828513 16.0999 0.753856C16.0327 0.679199 15.9391 0.633617 15.8389 0.626758C15.7371 0.62286 15.6376 0.657936 15.5608 0.724832C15.484 0.791729 15.4356 0.885406 15.4255 0.986758C15.2922 1.70676 15.1322 2.40009 15.0655 3.12009V3.52009C13.1537 3.73895 11.2996 4.31325 9.59886 5.21343C6.74656 6.78934 4.50665 9.27812 3.23886 12.2801C2.67367 13.6666 2.36206 15.1434 2.31886 16.6401C1.69219 16.6401 1.09219 16.7468 0.465522 16.8134C0.402254 16.8023 0.337313 16.8051 0.275264 16.8218C0.213214 16.8384 0.15556 16.8684 0.106353 16.9097C0.0571455 16.951 0.0175787 17.0026 -0.00956759 17.0608C-0.0367139 17.1191 -0.0507812 17.1825 -0.0507812 17.2468C-0.0507812 17.311 -0.0367139 17.3745 -0.00956759 17.4327C0.0175787 17.4909 0.0571455 17.5425 0.106353 17.5838C0.15556 17.6251 0.213214 17.6551 0.275264 17.6717C0.337313 17.6884 0.402254 17.6912 0.465522 17.6801C1.10552 17.7601 1.79886 17.8934 2.35886 17.9601C2.4682 19.2666 2.79256 20.546 3.31886 21.7468C4.09247 23.29 5.20379 24.6392 6.57029 25.694C7.93678 26.7489 9.52335 27.4824 11.2122 27.8401C12.5194 28.1725 13.8634 28.3382 15.2122 28.3334V28.9201C15.2922 29.5734 15.3989 30.2534 15.4789 30.8401C15.4771 30.8979 15.4867 30.9555 15.5072 31.0095C15.5277 31.0636 15.5586 31.1131 15.5982 31.1552C15.6379 31.1973 15.6854 31.2312 15.7381 31.2549C15.7908 31.2786 15.8477 31.2917 15.9055 31.2934C15.9627 31.2935 16.0193 31.282 16.0719 31.2597C16.1246 31.2374 16.1722 31.2048 16.212 31.1638C16.2518 31.1227 16.283 31.0741 16.3036 31.0208C16.3243 30.9675 16.334 30.9106 16.3322 30.8534C16.4502 30.2004 16.5348 29.5418 16.5855 28.8801C16.5989 28.6714 16.5989 28.4621 16.5855 28.2534C18.1365 28.1152 19.6429 27.6615 21.0122 26.9201C21.0564 26.8978 21.0955 26.8667 21.1271 26.8286C21.1588 26.7905 21.1822 26.7463 21.1959 26.6987C21.2097 26.6512 21.2135 26.6013 21.2071 26.5522C21.2008 26.5031 21.1843 26.4559 21.1589 26.4134C21.111 26.3269 21.0308 26.2628 20.9359 26.2353C20.8409 26.2078 20.7388 26.2191 20.6522 26.2668C19.3652 26.9036 17.965 27.2797 16.5322 27.3734C16.5388 27.3069 16.5388 27.2399 16.5322 27.1734C16.4191 26.5514 16.2677 25.9369 16.0789 25.3334C16.0736 25.2844 16.0587 25.2369 16.0351 25.1936C16.0115 25.1503 15.9796 25.1121 15.9412 25.0812C15.9028 25.0502 15.8587 25.0271 15.8114 25.0132C15.7641 24.9993 15.7145 24.9948 15.6655 25.0001C15.6165 25.0053 15.569 25.0202 15.5257 25.0438C15.4824 25.0674 15.4442 25.0993 15.4132 25.1377C15.3823 25.1761 15.3592 25.2202 15.3453 25.2675C15.3314 25.3148 15.3269 25.3644 15.3322 25.4134C15.3322 26.0668 15.1989 26.7468 15.1722 27.3468V27.5334C13.9073 27.5268 12.65 27.3382 11.4389 26.9734C10.2426 26.5375 9.09071 25.9883 7.99885 25.3334C7.15865 24.9461 6.40614 24.3916 5.7872 23.7039C5.16827 23.0162 4.69589 22.2097 4.39886 21.3334C3.97507 20.3053 3.7185 19.216 3.63886 18.1068H3.99886C4.81355 18.0171 5.61743 17.8474 6.39886 17.6001C6.48954 17.5722 6.56682 17.512 6.61599 17.4309C6.66516 17.3498 6.68279 17.2534 6.66552 17.1601C6.66066 17.1114 6.64593 17.0642 6.62224 17.0214C6.59854 16.9787 6.56637 16.9411 6.52768 16.9112C6.489 16.8812 6.44462 16.8595 6.39726 16.8473C6.34989 16.835 6.30053 16.8326 6.25219 16.8401C5.55886 16.8401 4.91886 16.7201 4.21219 16.6668H3.58552C3.65615 15.3629 3.95396 14.0815 4.46552 12.8801C5.63806 10.1733 7.68515 7.93844 10.2789 6.53343C11.7729 5.73621 13.3993 5.21669 15.0789 5.00009C15.0789 5.69343 15.2389 6.33343 15.3055 7.08009C15.3018 7.19459 15.343 7.30602 15.4202 7.39067C15.4973 7.47533 15.6045 7.52654 15.7189 7.53343C15.8346 7.53363 15.946 7.48954 16.0303 7.41021C16.1146 7.33088 16.1654 7.22231 16.1722 7.10676C16.2655 6.38676 16.3722 5.69343 16.4255 4.98676C16.419 4.9515 16.419 4.91535 16.4255 4.88009H17.5189C20.0166 4.86493 22.4342 5.76087 24.3189 7.40009C25.435 8.52186 26.3183 9.85333 26.9178 11.3178C27.5174 12.7823 27.8213 14.351 27.8122 15.9334H27.5989C26.8789 16.0401 26.1989 16.2401 25.4655 16.2934C25.3637 16.2895 25.2643 16.3246 25.1875 16.3915C25.1107 16.4584 25.0623 16.5521 25.0522 16.6534C25.0517 16.7529 25.0883 16.8491 25.1549 16.923C25.2214 16.997 25.3132 17.0435 25.4122 17.0534C26.1879 17.2211 26.9786 17.3104 27.7722 17.3201C27.7101 19.0374 27.2533 20.7174 26.437 22.2297C25.6208 23.7419 24.4671 25.0458 23.0655 26.0401C23.0155 26.0689 22.9718 26.1075 22.9371 26.1537C22.9024 26.1999 22.8774 26.2526 22.8637 26.3087C22.85 26.3648 22.8478 26.4231 22.8573 26.48C22.8668 26.537 22.8877 26.5915 22.9189 26.6401C22.9817 26.7362 23.0796 26.804 23.1917 26.8289C23.3038 26.8538 23.4212 26.8339 23.5189 26.7734C25.0878 25.7053 26.3866 24.2866 27.3123 22.6296C28.238 20.9726 28.7652 19.1228 28.8522 17.2268L29.4255 17.1468C30.1589 17.0134 30.8389 16.8268 31.5589 16.7201C31.6159 16.724 31.6731 16.7157 31.7267 16.6957C31.7802 16.6756 31.8289 16.6443 31.8693 16.6039C31.9098 16.5635 31.941 16.5148 31.9611 16.4613C31.9811 16.4077 31.9895 16.3505 31.9855 16.2934C31.9893 16.2358 31.9809 16.178 31.961 16.1238C31.9411 16.0696 31.91 16.0202 31.8698 15.9788C31.8296 15.9373 31.7812 15.9047 31.7276 15.8832C31.674 15.8616 31.6166 15.8514 31.5589 15.8534Z" fill="#3793AE"/>
</g>
<defs>
<clipPath id="clip0_1300_2061">
<rect width="32" height="32" fill="white"/>
</clipPath>
</defs>
</svg>
