<svg width="16" height="16" viewBox="0 0 16 16" fill="none" xmlns="http://www.w3.org/2000/svg">
<path fill-rule="evenodd" clip-rule="evenodd" d="M8.9 5.49785C9.0009 5.08364 8.49222 4.81728 8.23683 5.15061L5.41727 8.83083C5.21794 9.09099 5.39465 9.47725 5.71297 9.47725H7.09207L6.65074 11.5126C6.56173 11.9231 7.06287 12.178 7.31544 11.8506L10.2475 8.05102C10.4642 7.77018 10.2401 7.35643 9.89897 7.40751L8.3794 7.63505L8.9 5.49785ZM5.97663 8.94723L8.26566 5.95947L7.84269 7.6959C7.77585 7.97026 7.99635 8.2278 8.26379 8.18776L9.65199 7.9799L7.26442 11.0739L7.62026 9.43285C7.6742 9.18409 7.49381 8.94723 7.25043 8.94723H5.97663Z" fill="url(#paint0_linear_133_1711)"/>
<path fill-rule="evenodd" clip-rule="evenodd" d="M5.86281 3.58519V2.7286C5.86281 2.51025 5.68614 2.33325 5.46819 2.33325H2.77163C2.55368 2.33325 2.37701 2.51025 2.37701 2.7286V3.58519H1.06161C0.84367 3.58519 0.666992 3.76219 0.666992 3.98054V5.62783C0.666992 5.84618 0.84367 6.02317 1.06161 6.02317H1.39046V13.2712C1.39046 13.4896 1.56713 13.6666 1.78508 13.6666H14.3471C14.5651 13.6666 14.7417 13.4896 14.7417 13.2712V6.02317H14.939C15.157 6.02317 15.3337 5.84618 15.3337 5.62783V3.98054C15.3337 3.76219 15.157 3.58519 14.939 3.58519H13.6236V2.7286C13.6236 2.51025 13.447 2.33325 13.229 2.33325H10.5982C10.3803 2.33325 10.2036 2.51025 10.2036 2.7286V3.58519H5.86281ZM2.90317 2.86038V3.58519H5.33665V2.86038H2.90317ZM1.91662 13.1395V6.02317H2.64009C2.78539 6.02317 2.90317 5.90518 2.90317 5.75961C2.90317 5.61404 2.78539 5.49604 2.64009 5.49604H1.19315V4.11232H14.8075V5.49604H13.3606C13.2152 5.49604 13.0975 5.61404 13.0975 5.75961C13.0975 5.90518 13.2152 6.02317 13.3606 6.02317H14.2156V13.1395H1.91662ZM10.7298 3.58519H13.0975V2.86038H10.7298V3.58519Z" fill="url(#paint1_linear_133_1711)"/>
<defs>
<linearGradient id="paint0_linear_133_1711" x1="5.36814" y1="8.5" x2="10.333" y2="8.5" gradientUnits="userSpaceOnUse">
<stop stop-color="#3793AE"/>
<stop offset="1" stop-color="#074287"/>
</linearGradient>
<linearGradient id="paint1_linear_133_1711" x1="0.770037" y1="7.99992" x2="15.3337" y2="7.99992" gradientUnits="userSpaceOnUse">
<stop stop-color="#3793AE"/>
<stop offset="1" stop-color="#074287"/>
</linearGradient>
</defs>
</svg>
