<svg width="52" height="52" viewBox="0 0 52 52" fill="none" xmlns="http://www.w3.org/2000/svg">
<path d="M42.8574 23.7275H40.2782H37.699H35.125V26.3015H37.699V31.4547H40.2782V26.3015H42.8574V23.7275Z" fill=""/>
<path d="M42.8574 23.7275H40.2782H37.699H35.125V26.3015H37.699V31.4547H40.2782V26.3015H42.8574V23.7275Z" fill="url(#paint0_linear_1211_2127)"/>
<path d="M26.5664 23.998C26.7328 23.894 26.9044 23.79 27.076 23.6912L26.5664 23.998Z" fill=""/>
<path d="M26.5664 23.998C26.7328 23.894 26.9044 23.79 27.076 23.6912L26.5664 23.998Z" fill="url(#paint1_linear_1211_2127)"/>
<path d="M27.076 31.4806C26.9044 31.3818 26.738 31.283 26.5664 31.1738L27.076 31.4806Z" fill=""/>
<path d="M27.076 31.4806C26.9044 31.3818 26.738 31.283 26.5664 31.1738L27.076 31.4806Z" fill="url(#paint2_linear_1211_2127)"/>
<path d="M27.0766 31.4808C30.7686 33.5972 35.251 33.8312 39.1458 32.1152V35.6408C30.8414 40.1804 20.7586 40.0036 12.6154 35.178C12.5374 35.1364 12.4646 35.0896 12.3866 35.0428C8.26818 32.5 6.99418 27.1024 9.53178 22.9892C10.2494 21.8296 11.227 20.852 12.3866 20.1344L12.6154 19.9992C20.7586 15.1736 30.8414 14.9968 39.1458 19.5364V23.062C35.251 21.346 30.7738 21.58 27.0766 23.6964C26.8998 23.7848 26.7334 23.8888 26.567 24.0032C24.5858 25.3864 24.097 28.1164 25.4854 30.1028C25.7818 30.524 26.1458 30.8932 26.567 31.1844C26.7334 31.2884 26.8998 31.3924 27.0766 31.4808Z" fill=""/>
<path d="M27.0766 31.4808C30.7686 33.5972 35.251 33.8312 39.1458 32.1152V35.6408C30.8414 40.1804 20.7586 40.0036 12.6154 35.178C12.5374 35.1364 12.4646 35.0896 12.3866 35.0428C8.26818 32.5 6.99418 27.1024 9.53178 22.9892C10.2494 21.8296 11.227 20.852 12.3866 20.1344L12.6154 19.9992C20.7586 15.1736 30.8414 14.9968 39.1458 19.5364V23.062C35.251 21.346 30.7738 21.58 27.0766 23.6964C26.8998 23.7848 26.7334 23.8888 26.567 24.0032C24.5858 25.3864 24.097 28.1164 25.4854 30.1028C25.7818 30.524 26.1458 30.8932 26.567 31.1844C26.7334 31.2884 26.8998 31.3924 27.0766 31.4808Z" fill="url(#paint3_linear_1211_2127)"/>
<path d="M25.9948 2.42313C30.6228 4.26913 35.0012 6.68713 39.026 9.61473C43.056 12.5423 46.7064 15.9639 49.894 19.7963C49.5664 24.7623 48.6252 29.6711 47.086 34.4031C45.5468 39.1403 43.4252 43.6695 40.768 47.8815C35.9424 49.1035 30.9764 49.7223 25.9948 49.7223C21.0132 49.7223 16.0524 49.1035 11.2216 47.8815C5.8968 39.4263 2.7612 29.7699 2.106 19.7911C8.502 12.1055 16.7128 6.13593 25.9948 2.42313ZM25.9948 0.213135C15.8236 4.12353 6.8588 10.6391 0 19.1047C0.572 29.9883 3.9988 40.5339 9.932 49.6755C15.1684 51.0795 20.5712 51.7919 25.9948 51.7867C31.4236 51.7919 36.8264 51.0795 42.0628 49.6703C45.0216 45.1203 47.3668 40.2011 49.0412 35.0375C50.7208 29.8791 51.714 24.5179 51.9948 19.0995C48.5784 14.8823 44.6264 11.1331 40.2324 7.94553C35.854 4.75793 31.0648 2.15793 25.9948 0.213135Z" fill=""/>
<path d="M25.9948 2.42313C30.6228 4.26913 35.0012 6.68713 39.026 9.61473C43.056 12.5423 46.7064 15.9639 49.894 19.7963C49.5664 24.7623 48.6252 29.6711 47.086 34.4031C45.5468 39.1403 43.4252 43.6695 40.768 47.8815C35.9424 49.1035 30.9764 49.7223 25.9948 49.7223C21.0132 49.7223 16.0524 49.1035 11.2216 47.8815C5.8968 39.4263 2.7612 29.7699 2.106 19.7911C8.502 12.1055 16.7128 6.13593 25.9948 2.42313ZM25.9948 0.213135C15.8236 4.12353 6.8588 10.6391 0 19.1047C0.572 29.9883 3.9988 40.5339 9.932 49.6755C15.1684 51.0795 20.5712 51.7919 25.9948 51.7867C31.4236 51.7919 36.8264 51.0795 42.0628 49.6703C45.0216 45.1203 47.3668 40.2011 49.0412 35.0375C50.7208 29.8791 51.714 24.5179 51.9948 19.0995C48.5784 14.8823 44.6264 11.1331 40.2324 7.94553C35.854 4.75793 31.0648 2.15793 25.9948 0.213135Z" fill="url(#paint4_linear_1211_2127)"/>
<defs>
<linearGradient id="paint0_linear_1211_2127" x1="35.1793" y1="27.5911" x2="42.8574" y2="27.5911" gradientUnits="userSpaceOnUse">
<stop stop-color="#3793AE"/>
<stop offset="1" stop-color="#074287"/>
</linearGradient>
<linearGradient id="paint1_linear_1211_2127" x1="26.57" y1="23.8446" x2="27.076" y2="23.8446" gradientUnits="userSpaceOnUse">
<stop stop-color="#3793AE"/>
<stop offset="1" stop-color="#074287"/>
</linearGradient>
<linearGradient id="paint2_linear_1211_2127" x1="26.57" y1="31.3272" x2="27.076" y2="31.3272" gradientUnits="userSpaceOnUse">
<stop stop-color="#3793AE"/>
<stop offset="1" stop-color="#074287"/>
</linearGradient>
<linearGradient id="paint3_linear_1211_2127" x1="8.44379" y1="27.5886" x2="39.1458" y2="27.5886" gradientUnits="userSpaceOnUse">
<stop stop-color="#3793AE"/>
<stop offset="1" stop-color="#074287"/>
</linearGradient>
<linearGradient id="paint4_linear_1211_2127" x1="0.365303" y1="25.9999" x2="51.9948" y2="25.9999" gradientUnits="userSpaceOnUse">
<stop stop-color="#3793AE"/>
<stop offset="1" stop-color="#074287"/>
</linearGradient>
</defs>
</svg>
