<svg width="23" height="23" viewBox="0 0 23 23" fill="none" xmlns="http://www.w3.org/2000/svg">
<g clip-path="url(#clip0_914_2685)">
<path d="M6.89014 4.59318C6.5856 4.59318 6.29353 4.71416 6.07819 4.92951C5.86284 5.14485 5.74186 5.43692 5.74186 5.74146V8.03801C5.74186 8.34255 5.86284 8.63462 6.07819 8.84996C6.29353 9.06531 6.5856 9.18629 6.89014 9.18629H13.7798C14.0843 9.18629 14.3764 9.06531 14.5917 8.84996C14.8071 8.63462 14.9281 8.34255 14.9281 8.03801V5.74146C14.9281 5.43692 14.8071 5.14485 14.5917 4.92951C14.3764 4.71416 14.0843 4.59318 13.7798 4.59318H6.89014ZM6.89014 5.74146H13.7798V8.03801H6.89014V5.74146ZM9.18669 11.4828C9.18669 11.1783 9.30767 10.8862 9.52301 10.6709C9.73836 10.4555 10.0304 10.3346 10.335 10.3346C10.6395 10.3346 10.9316 10.4555 11.1469 10.6709C11.3623 10.8862 11.4832 11.1783 11.4832 11.4828C11.4832 11.7874 11.3623 12.0794 11.1469 12.2948C10.9316 12.5101 10.6395 12.6311 10.335 12.6311C10.0304 12.6311 9.73836 12.5101 9.52301 12.2948C9.30767 12.0794 9.18669 11.7874 9.18669 11.4828ZM10.335 13.4923C10.0304 13.4923 9.73836 13.6133 9.52301 13.8286C9.30767 14.044 9.18669 14.3361 9.18669 14.6406C9.18669 14.9451 9.30767 15.2372 9.52301 15.4525C9.73836 15.6679 10.0304 15.7889 10.335 15.7889C10.6395 15.7889 10.9316 15.6679 11.1469 15.4525C11.3623 15.2372 11.4832 14.9451 11.4832 14.6406C11.4832 14.3361 11.3623 14.044 11.1469 13.8286C10.9316 13.6133 10.6395 13.4923 10.335 13.4923ZM12.6315 11.4828C12.6315 11.1783 12.7525 10.8862 12.9678 10.6709C13.1832 10.4555 13.4753 10.3346 13.7798 10.3346C14.0843 10.3346 14.3764 10.4555 14.5917 10.6709C14.8071 10.8862 14.9281 11.1783 14.9281 11.4828C14.9281 11.7874 14.8071 12.0794 14.5917 12.2948C14.3764 12.5101 14.0843 12.6311 13.7798 12.6311C13.4753 12.6311 13.1832 12.5101 12.9678 12.2948C12.7525 12.0794 12.6315 11.7874 12.6315 11.4828ZM13.7798 13.4923C13.4753 13.4923 13.1832 13.6133 12.9678 13.8286C12.7525 14.044 12.6315 14.3361 12.6315 14.6406C12.6315 14.9451 12.7525 15.2372 12.9678 15.4525C13.1832 15.6679 13.4753 15.7889 13.7798 15.7889C14.0843 15.7889 14.3764 15.6679 14.5917 15.4525C14.8071 15.2372 14.9281 14.9451 14.9281 14.6406C14.9281 14.3361 14.8071 14.044 14.5917 13.8286C14.3764 13.6133 14.0843 13.4923 13.7798 13.4923ZM5.74186 11.4828C5.74186 11.1783 5.86284 10.8862 6.07819 10.6709C6.29353 10.4555 6.5856 10.3346 6.89014 10.3346C7.19468 10.3346 7.48675 10.4555 7.70209 10.6709C7.91744 10.8862 8.03842 11.1783 8.03842 11.4828C8.03842 11.7874 7.91744 12.0794 7.70209 12.2948C7.48675 12.5101 7.19468 12.6311 6.89014 12.6311C6.5856 12.6311 6.29353 12.5101 6.07819 12.2948C5.86284 12.0794 5.74186 11.7874 5.74186 11.4828ZM6.89014 13.4923C6.5856 13.4923 6.29353 13.6133 6.07819 13.8286C5.86284 14.044 5.74186 14.3361 5.74186 14.6406C5.74186 14.9451 5.86284 15.2372 6.07819 15.4525C6.29353 15.6679 6.5856 15.7889 6.89014 15.7889C7.19468 15.7889 7.48675 15.6679 7.70209 15.4525C7.91744 15.2372 8.03842 14.9451 8.03842 14.6406C8.03842 14.3361 7.91744 14.044 7.70209 13.8286C7.48675 13.6133 7.19468 13.4923 6.89014 13.4923ZM6.316 2.29663C5.55465 2.29663 4.82448 2.59908 4.28612 3.13744C3.74776 3.6758 3.44531 4.40597 3.44531 5.16732V15.5018C3.44531 16.2632 3.74776 16.9933 4.28612 17.5317C4.82448 18.07 5.55465 18.3725 6.316 18.3725H14.3539C15.1153 18.3725 15.8455 18.07 16.3838 17.5317C16.9222 16.9933 17.2246 16.2632 17.2246 15.5018V5.16732C17.2246 4.40597 16.9222 3.6758 16.3838 3.13744C15.8455 2.59908 15.1153 2.29663 14.3539 2.29663H6.316ZM4.59359 5.16732C4.59359 4.71051 4.77506 4.27241 5.09807 3.94939C5.42109 3.62637 5.85919 3.44491 6.316 3.44491H14.3539C14.8107 3.44491 15.2488 3.62637 15.5719 3.94939C15.8949 4.27241 16.0763 4.71051 16.0763 5.16732V15.5018C16.0763 15.9586 15.8949 16.3967 15.5719 16.7197C15.2488 17.0427 14.8107 17.2242 14.3539 17.2242H6.316C5.85919 17.2242 5.42109 17.0427 5.09807 16.7197C4.77506 16.3967 4.59359 15.9586 4.59359 15.5018V5.16732ZM8.61255 20.669C8.16689 20.669 7.72735 20.5653 7.32874 20.366C6.93013 20.1667 6.5834 19.8773 6.316 19.5208H14.3539C15.4198 19.5208 16.4421 19.0973 17.1958 18.3436C17.9495 17.5899 18.3729 16.5677 18.3729 15.5018V5.16732C19.0699 5.69093 19.5212 6.52458 19.5212 7.46387V15.5018C19.5212 16.8722 18.9768 18.1865 18.0077 19.1556C17.0387 20.1246 15.7244 20.669 14.3539 20.669H8.61255Z" fill="#3793AE"/>
<g filter="url(#filter0_d_914_2685)">
<circle cx="18.1807" cy="18.181" r="4.14655" fill="#E4E9EB"/>
<circle cx="18.1807" cy="18.181" r="3.64655" stroke="#CCC4C4"/>
</g>
<path d="M16.4834 18.0405H19.2393V18.3212H16.4834V18.0405Z" fill="#3793AE"/>
<path d="M17.709 16.918H18.0152V19.4442H17.709V16.918Z" fill="#3793AE"/>
</g>
<defs>
<filter id="filter0_d_914_2685" x="9.23418" y="13.2344" width="17.893" height="17.8932" filterUnits="userSpaceOnUse" color-interpolation-filters="sRGB">
<feFlood flood-opacity="0" result="BackgroundImageFix"/>
<feColorMatrix in="SourceAlpha" type="matrix" values="0 0 0 0 0 0 0 0 0 0 0 0 0 0 0 0 0 0 127 0" result="hardAlpha"/>
<feOffset dy="4"/>
<feGaussianBlur stdDeviation="2.4"/>
<feComposite in2="hardAlpha" operator="out"/>
<feColorMatrix type="matrix" values="0 0 0 0 0.790625 0 0 0 0 0.784036 0 0 0 0 0.784036 0 0 0 0.25 0"/>
<feBlend mode="normal" in2="BackgroundImageFix" result="effect1_dropShadow_914_2685"/>
<feBlend mode="normal" in="SourceGraphic" in2="effect1_dropShadow_914_2685" result="shape"/>
</filter>
<clipPath id="clip0_914_2685">
<rect width="22.9655" height="22.9655" fill="white"/>
</clipPath>
</defs>
</svg>
