<svg width="15" height="15" viewBox="0 0 15 15" fill="none" xmlns="http://www.w3.org/2000/svg">
<g clip-path="url(#clip0_914_1673)">
<path d="M3.22424 12.601L5.08775 11.9795L5.41391 12.1426C6.1632 12.5164 6.99623 12.7156 7.86981 12.7156C10.7876 12.7156 13.1589 10.4184 13.1589 7.86728C13.1589 5.31619 10.7876 3.01896 7.86981 3.01896C4.952 3.01896 2.58073 5.31619 2.58073 7.86728C2.58073 8.81932 2.92452 9.78545 3.55657 10.6114L3.86069 11.0081L3.22335 12.6001L3.22424 12.601ZM2.60101 13.7382C2.52124 13.7649 2.43548 13.7682 2.35387 13.7478C2.27227 13.7273 2.19822 13.684 2.14047 13.6228C2.08272 13.5616 2.04368 13.4852 2.02798 13.4025C2.01227 13.3199 2.02054 13.2345 2.05182 13.1564L2.85576 11.1465C2.12234 10.1857 1.69922 9.03617 1.69922 7.86728C1.69922 4.94595 4.34376 2.13745 7.86981 2.13745C11.3959 2.13745 14.0404 4.94595 14.0404 7.86728C14.0404 10.7886 11.3959 13.5971 7.86981 13.5971C6.8809 13.5999 5.90501 13.3717 5.01988 12.9307L2.60101 13.7373V13.7382Z" fill="white"/>
<path d="M7.86928 8.57253C7.77667 8.57253 7.68497 8.55429 7.59941 8.51885C7.51385 8.48341 7.43611 8.43146 7.37062 8.36598C7.30514 8.30049 7.25319 8.22275 7.21775 8.13719C7.18231 8.05163 7.16407 7.95993 7.16407 7.86732C7.16407 7.77471 7.18231 7.68301 7.21775 7.59745C7.25319 7.51189 7.30514 7.43415 7.37062 7.36866C7.43611 7.30318 7.51385 7.25123 7.59941 7.21579C7.68497 7.18035 7.77667 7.16211 7.86928 7.16211C8.05631 7.16211 8.23569 7.23641 8.36794 7.36866C8.50019 7.50091 8.57449 7.68029 8.57449 7.86732C8.57449 8.05435 8.50019 8.23373 8.36794 8.36598C8.23569 8.49823 8.05631 8.57253 7.86928 8.57253ZM10.5138 8.57253C10.4212 8.57253 10.3295 8.55429 10.2439 8.51885C10.1584 8.48341 10.0806 8.43146 10.0152 8.36598C9.94967 8.30049 9.89773 8.22275 9.86229 8.13719C9.82685 8.05163 9.80861 7.95993 9.80861 7.86732C9.80861 7.77471 9.82685 7.68301 9.86229 7.59745C9.89773 7.51189 9.94967 7.43415 10.0152 7.36866C10.0806 7.30318 10.1584 7.25123 10.2439 7.21579C10.3295 7.18035 10.4212 7.16211 10.5138 7.16211C10.7009 7.16211 10.8802 7.23641 11.0125 7.36866C11.1447 7.50091 11.219 7.68029 11.219 7.86732C11.219 8.05435 11.1447 8.23373 11.0125 8.36598C10.8802 8.49823 10.7009 8.57253 10.5138 8.57253ZM5.22474 8.57253C5.13213 8.57253 5.04043 8.55429 4.95487 8.51885C4.86931 8.48341 4.79157 8.43146 4.72608 8.36598C4.6606 8.30049 4.60865 8.22275 4.57321 8.13719C4.53777 8.05163 4.51953 7.95993 4.51953 7.86732C4.51953 7.77471 4.53777 7.68301 4.57321 7.59745C4.60865 7.51189 4.6606 7.43415 4.72608 7.36866C4.79157 7.30318 4.86931 7.25123 4.95487 7.21579C5.04043 7.18035 5.13213 7.16211 5.22474 7.16211C5.41177 7.16211 5.59115 7.23641 5.7234 7.36866C5.85565 7.50091 5.92995 7.68029 5.92995 7.86732C5.92995 8.05435 5.85565 8.23373 5.7234 8.36598C5.59115 8.49823 5.41177 8.57253 5.22474 8.57253Z" fill="white"/>
</g>
<defs>
<clipPath id="clip0_914_1673">
<rect width="14.1042" height="14.1042" fill="white" transform="translate(0.816406 0.815186)"/>
</clipPath>
</defs>
</svg>
