<svg width="57" height="43" viewBox="0 0 57 43" fill="none" xmlns="http://www.w3.org/2000/svg">
<path d="M2.50052 11.2782C2.39064 11.3289 1.55559 12.4957 1.29189 12.9607C0.471489 14.4403 0.0759384 15.9368 0.0173384 17.8137C-0.0192867 18.8621 -0.00463667 19.1665 0.127214 19.9105C0.434864 21.6353 1.03551 23.0557 1.96579 24.3155C2.36134 24.8397 2.49319 24.9665 2.69097 24.9834C2.82282 25.0003 2.97664 24.9665 3.03524 24.9073C3.18174 24.7721 3.16709 24.2732 3.00594 24.0957C2.77887 23.8336 2.22217 23.0304 2.02439 22.6668C1.41642 21.5677 1.05016 20.3333 0.94029 19.0143C0.742514 16.554 1.40177 14.1951 2.77154 12.4618C3.03524 12.1236 3.13779 11.9292 3.13779 11.7516C3.13779 11.3543 2.82282 11.126 2.50052 11.2782Z" fill="white"/>
<path d="M2.50052 11.2782C2.39064 11.3289 1.55559 12.4957 1.29189 12.9607C0.471489 14.4403 0.0759384 15.9368 0.0173384 17.8137C-0.0192867 18.8621 -0.00463667 19.1665 0.127214 19.9105C0.434864 21.6353 1.03551 23.0557 1.96579 24.3155C2.36134 24.8397 2.49319 24.9665 2.69097 24.9834C2.82282 25.0003 2.97664 24.9665 3.03524 24.9073C3.18174 24.7721 3.16709 24.2732 3.00594 24.0957C2.77887 23.8336 2.22217 23.0304 2.02439 22.6668C1.41642 21.5677 1.05016 20.3333 0.94029 19.0143C0.742514 16.554 1.40177 14.1951 2.77154 12.4618C3.03524 12.1236 3.13779 11.9292 3.13779 11.7516C3.13779 11.3543 2.82282 11.126 2.50052 11.2782Z" fill="url(#paint0_linear_1597_2652)"/>
<path d="M13.4077 11.4385C13.3198 11.5653 13.2539 11.709 13.2539 11.7682C13.2539 11.8274 13.4517 12.1402 13.6861 12.4699C14.2941 13.307 14.5431 13.7466 14.8801 14.5667C15.3415 15.6997 15.532 16.7143 15.532 18.0332C15.5393 19.2254 15.51 19.4705 15.2903 20.4344C15.0119 21.6265 14.4479 22.8017 13.6568 23.8248C13.437 24.1122 13.2539 24.4082 13.2539 24.4843C13.2539 24.7633 13.4737 25 13.73 25C13.9351 25 14.0304 24.9239 14.3527 24.5096C16.0594 22.3029 16.8065 19.2676 16.3304 16.4353C16.0008 14.4822 15.3708 13.028 14.2867 11.7006C13.8399 11.1594 13.6421 11.1003 13.4077 11.4385Z" fill="white"/>
<path d="M13.4077 11.4385C13.3198 11.5653 13.2539 11.709 13.2539 11.7682C13.2539 11.8274 13.4517 12.1402 13.6861 12.4699C14.2941 13.307 14.5431 13.7466 14.8801 14.5667C15.3415 15.6997 15.532 16.7143 15.532 18.0332C15.5393 19.2254 15.51 19.4705 15.2903 20.4344C15.0119 21.6265 14.4479 22.8017 13.6568 23.8248C13.437 24.1122 13.2539 24.4082 13.2539 24.4843C13.2539 24.7633 13.4737 25 13.73 25C13.9351 25 14.0304 24.9239 14.3527 24.5096C16.0594 22.3029 16.8065 19.2676 16.3304 16.4353C16.0008 14.4822 15.3708 13.028 14.2867 11.7006C13.8399 11.1594 13.6421 11.1003 13.4077 11.4385Z" fill="url(#paint1_linear_1597_2652)"/>
<path d="M4.03137 12.9941C3.76035 13.1209 3.06447 14.1862 2.72752 14.9809C1.59214 17.6527 1.98769 20.8148 3.72372 22.9454C4.1266 23.4442 4.52215 23.4104 4.63202 22.8778C4.66865 22.7002 4.61005 22.5649 4.3024 22.1422C3.78232 21.4151 3.4527 20.7556 3.22562 19.9693C3.04982 19.369 3.02785 19.1576 3.02785 18.1092C3.02785 17.0186 3.0425 16.8748 3.24027 16.2492C3.48932 15.4544 3.85557 14.7019 4.22915 14.22C4.51482 13.8649 4.66865 13.5774 4.66865 13.4168C4.66865 13.3069 4.33902 12.9095 4.25112 12.918C4.22182 12.918 4.11927 12.9518 4.03137 12.9941Z" fill="white"/>
<path d="M4.03137 12.9941C3.76035 13.1209 3.06447 14.1862 2.72752 14.9809C1.59214 17.6527 1.98769 20.8148 3.72372 22.9454C4.1266 23.4442 4.52215 23.4104 4.63202 22.8778C4.66865 22.7002 4.61005 22.5649 4.3024 22.1422C3.78232 21.4151 3.4527 20.7556 3.22562 19.9693C3.04982 19.369 3.02785 19.1576 3.02785 18.1092C3.02785 17.0186 3.0425 16.8748 3.24027 16.2492C3.48932 15.4544 3.85557 14.7019 4.22915 14.22C4.51482 13.8649 4.66865 13.5774 4.66865 13.4168C4.66865 13.3069 4.33902 12.9095 4.25112 12.918C4.22182 12.918 4.11927 12.9518 4.03137 12.9941Z" fill="url(#paint2_linear_1597_2652)"/>
<path d="M11.9868 13.0876C11.877 13.1806 11.7891 13.3413 11.7891 13.4512C11.7891 13.5526 11.9649 13.8824 12.1846 14.1867C12.6827 14.88 13.049 15.641 13.2687 16.4611C13.4958 17.2981 13.5031 18.8369 13.2907 19.6739C13.0416 20.6631 12.712 21.3733 12.1407 22.1427C11.7598 22.6669 11.7085 22.8783 11.9356 23.1404C12.1919 23.4363 12.397 23.3602 12.8292 22.8107C14.3235 20.8999 14.7703 17.9999 13.9426 15.5141C13.6203 14.5249 12.7047 13.0792 12.3311 12.9608C12.2359 12.927 12.104 12.9692 11.9868 13.0876Z" fill="white"/>
<path d="M11.9868 13.0876C11.877 13.1806 11.7891 13.3413 11.7891 13.4512C11.7891 13.5526 11.9649 13.8824 12.1846 14.1867C12.6827 14.88 13.049 15.641 13.2687 16.4611C13.4958 17.2981 13.5031 18.8369 13.2907 19.6739C13.0416 20.6631 12.712 21.3733 12.1407 22.1427C11.7598 22.6669 11.7085 22.8783 11.9356 23.1404C12.1919 23.4363 12.397 23.3602 12.8292 22.8107C14.3235 20.8999 14.7703 17.9999 13.9426 15.5141C13.6203 14.5249 12.7047 13.0792 12.3311 12.9608C12.2359 12.927 12.104 12.9692 11.9868 13.0876Z" fill="url(#paint3_linear_1597_2652)"/>
<path d="M5.1695 15.1165C4.69338 15.7252 4.40038 16.4608 4.2612 17.4078C4.15133 18.1433 4.15133 18.2617 4.26853 18.9212C4.4077 19.7413 4.77395 20.646 5.18415 21.1871C5.41123 21.4914 5.51378 21.5591 5.71155 21.5591C6.1657 21.5591 6.29023 21.0518 5.94595 20.5868C5.316 19.7328 5.09625 19.0311 5.1402 17.932C5.16218 17.2725 5.1988 17.078 5.4039 16.6046C5.53575 16.3002 5.7555 15.8859 5.89468 15.6999C6.18035 15.311 6.20233 15.1503 6.03385 14.8713C5.83608 14.5416 5.5504 14.6261 5.1695 15.1165Z" fill="white"/>
<path d="M5.1695 15.1165C4.69338 15.7252 4.40038 16.4608 4.2612 17.4078C4.15133 18.1433 4.15133 18.2617 4.26853 18.9212C4.4077 19.7413 4.77395 20.646 5.18415 21.1871C5.41123 21.4914 5.51378 21.5591 5.71155 21.5591C6.1657 21.5591 6.29023 21.0518 5.94595 20.5868C5.316 19.7328 5.09625 19.0311 5.1402 17.932C5.16218 17.2725 5.1988 17.078 5.4039 16.6046C5.53575 16.3002 5.7555 15.8859 5.89468 15.6999C6.18035 15.311 6.20233 15.1503 6.03385 14.8713C5.83608 14.5416 5.5504 14.6261 5.1695 15.1165Z" fill="url(#paint4_linear_1597_2652)"/>
<path d="M10.444 14.8375C10.2536 15.0742 10.2975 15.3532 10.5612 15.7337C11.1252 16.5538 11.345 17.2133 11.345 18.1095C11.345 19.0142 10.9861 20.0879 10.5099 20.5952C10.1583 20.9757 10.3122 21.5591 10.759 21.5591C11.0666 21.5591 11.4475 21.0772 11.8138 20.2232C12.1581 19.4285 12.246 18.8874 12.2093 17.8643C12.1581 16.6637 11.8504 15.8013 11.2058 14.9981C10.9201 14.643 10.6418 14.5838 10.444 14.8375Z" fill="white"/>
<path d="M10.444 14.8375C10.2536 15.0742 10.2975 15.3532 10.5612 15.7337C11.1252 16.5538 11.345 17.2133 11.345 18.1095C11.345 19.0142 10.9861 20.0879 10.5099 20.5952C10.1583 20.9757 10.3122 21.5591 10.759 21.5591C11.0666 21.5591 11.4475 21.0772 11.8138 20.2232C12.1581 19.4285 12.246 18.8874 12.2093 17.8643C12.1581 16.6637 11.8504 15.8013 11.2058 14.9981C10.9201 14.643 10.6418 14.5838 10.444 14.8375Z" fill="url(#paint5_linear_1597_2652)"/>
<path d="M7.92574 17.6284C7.68402 17.8059 7.67669 18.0511 7.67669 23.5129V28.9663L6.07252 28.9917C4.30719 29.017 4.27789 29.0255 3.91164 29.6004C3.76514 29.8202 3.75781 29.9386 3.75781 32.7372C3.75781 35.5357 3.76514 35.6541 3.91164 35.8739C3.99221 36.0007 4.15336 36.1867 4.26324 36.2797C4.46101 36.4573 4.49764 36.4573 14.3864 36.4827C25.5204 36.508 24.6194 36.5503 25.0443 35.8824L25.2567 35.5442V32.7372V29.9302L25.037 29.5835C24.9198 29.3891 24.744 29.1861 24.6561 29.127C24.5242 29.0424 22.8907 29.0086 16.6132 28.9748L8.73882 28.9325L8.71684 23.403C8.70219 18.3978 8.68754 17.8567 8.57767 17.7129C8.46047 17.5607 8.07957 17.51 7.92574 17.6284ZM24.2605 30.1246C24.3631 30.2345 24.3777 30.5896 24.3777 32.7118C24.3777 34.8847 24.3631 35.1975 24.2532 35.3328C24.1433 35.4765 23.7404 35.485 14.5036 35.485C5.64034 35.485 4.85656 35.4765 4.73204 35.3413C4.60751 35.2144 4.60019 35.02 4.60019 32.7287C4.60019 30.5896 4.61484 30.2345 4.71739 30.1246C4.81994 30.0063 5.80882 29.9893 14.489 29.9893C23.1691 29.9893 24.158 30.0063 24.2605 30.1246Z" fill="white"/>
<path d="M7.92574 17.6284C7.68402 17.8059 7.67669 18.0511 7.67669 23.5129V28.9663L6.07252 28.9917C4.30719 29.017 4.27789 29.0255 3.91164 29.6004C3.76514 29.8202 3.75781 29.9386 3.75781 32.7372C3.75781 35.5357 3.76514 35.6541 3.91164 35.8739C3.99221 36.0007 4.15336 36.1867 4.26324 36.2797C4.46101 36.4573 4.49764 36.4573 14.3864 36.4827C25.5204 36.508 24.6194 36.5503 25.0443 35.8824L25.2567 35.5442V32.7372V29.9302L25.037 29.5835C24.9198 29.3891 24.744 29.1861 24.6561 29.127C24.5242 29.0424 22.8907 29.0086 16.6132 28.9748L8.73882 28.9325L8.71684 23.403C8.70219 18.3978 8.68754 17.8567 8.57767 17.7129C8.46047 17.5607 8.07957 17.51 7.92574 17.6284ZM24.2605 30.1246C24.3631 30.2345 24.3777 30.5896 24.3777 32.7118C24.3777 34.8847 24.3631 35.1975 24.2532 35.3328C24.1433 35.4765 23.7404 35.485 14.5036 35.485C5.64034 35.485 4.85656 35.4765 4.73204 35.3413C4.60751 35.2144 4.60019 35.02 4.60019 32.7287C4.60019 30.5896 4.61484 30.2345 4.71739 30.1246C4.81994 30.0063 5.80882 29.9893 14.489 29.9893C23.1691 29.9893 24.158 30.0063 24.2605 30.1246Z" fill="url(#paint6_linear_1597_2652)"/>
<path d="M28.0742 22.458L42.11 11.2294" stroke="url(#paint7_linear_1597_2652)" stroke-linejoin="bevel" stroke-dasharray="1 1"/>
<path d="M28.0742 22.458L42.11 11.2294" stroke="white" stroke-opacity="0.15" stroke-linejoin="bevel" stroke-dasharray="1 1"/>
<path d="M28.0742 28.0723L42.11 36.4937" stroke="url(#paint8_linear_1597_2652)" stroke-linejoin="bevel" stroke-dasharray="1 1"/>
<path d="M28.0742 28.0723L42.11 36.4937" stroke="white" stroke-opacity="0.15" stroke-linejoin="bevel" stroke-dasharray="1 1"/>
<path d="M48.0757 1.79171C46.3726 2.7757 44.9656 3.59343 44.9486 3.6087C44.9197 3.63414 44.918 3.853 44.918 9.13261V14.6294L44.9554 14.6905C45.0881 14.911 45.3467 15.2181 45.6291 15.4929C46.422 16.2597 47.6776 16.9706 48.695 17.2285C49.0574 17.3201 49.0693 17.3218 49.4981 17.3218H49.9064L52.2917 15.9442C53.6018 15.1875 54.9782 14.3936 55.3474 14.1798C55.7166 13.966 56.0415 13.7709 56.067 13.7438C56.0943 13.7183 56.1215 13.6674 56.13 13.6301C56.1521 13.5419 56.1521 2.94874 56.13 2.86052C56.1215 2.8232 56.1011 2.7757 56.0841 2.75195C56.067 2.72989 54.9969 2.10217 53.7055 1.3557L51.3594 0.000167847L51.2641 0.00186348C51.1705 0.00186348 51.1467 0.0154362 48.0757 1.79171ZM53.3738 1.76796C54.5256 2.433 55.4665 2.98098 55.4665 2.98607C55.4665 2.99116 54.1666 3.74611 52.5792 4.66394L49.6903 6.33163L49.5287 6.32145C48.2271 6.23663 46.3403 5.19326 45.4709 4.07694L45.3756 3.95479L45.4488 3.91237C46.6772 3.19983 51.259 0.560024 51.2692 0.560024C51.276 0.560024 52.2236 1.10291 53.3738 1.76796ZM55.6077 13.4214C55.5907 13.4367 49.92 16.711 49.8911 16.7229C49.8741 16.7297 49.869 15.705 49.869 11.6367L49.8707 6.54031L52.7409 4.88279L55.6111 3.22697L55.6162 8.31827C55.6179 11.1192 55.6145 13.4147 55.6077 13.4214ZM45.9813 4.98967C46.7418 5.62418 47.6929 6.14671 48.5589 6.40458C48.9043 6.50637 49.071 6.53861 49.5253 6.5929L49.5967 6.60138V11.7317V16.8637L49.5168 16.8535C49.1595 16.8128 48.8856 16.7517 48.5334 16.6347C47.2999 16.2258 46.0358 15.3487 45.4556 14.5004L45.3773 14.3851V10.2846V6.18403L45.6632 6.46396C45.9949 6.79139 46.3012 7.04248 46.6704 7.28508C47.3424 7.73127 48.0434 8.04343 48.8158 8.24532C49.1238 8.32506 49.1595 8.32676 49.2139 8.27077C49.2939 8.19273 49.2548 8.07397 49.1425 8.04852C48.1557 7.82967 47.1519 7.35464 46.3811 6.74389C46.1685 6.57424 45.8401 6.27225 45.6921 6.10769C45.556 5.9567 45.4998 5.92277 45.4267 5.94991L45.3773 5.96857V5.18817V4.40776L45.6036 4.6351C45.7261 4.76064 45.898 4.92012 45.9813 4.98967Z" fill="black"/>
<path d="M48.0757 1.79171C46.3726 2.7757 44.9656 3.59343 44.9486 3.6087C44.9197 3.63414 44.918 3.853 44.918 9.13261V14.6294L44.9554 14.6905C45.0881 14.911 45.3467 15.2181 45.6291 15.4929C46.422 16.2597 47.6776 16.9706 48.695 17.2285C49.0574 17.3201 49.0693 17.3218 49.4981 17.3218H49.9064L52.2917 15.9442C53.6018 15.1875 54.9782 14.3936 55.3474 14.1798C55.7166 13.966 56.0415 13.7709 56.067 13.7438C56.0943 13.7183 56.1215 13.6674 56.13 13.6301C56.1521 13.5419 56.1521 2.94874 56.13 2.86052C56.1215 2.8232 56.1011 2.7757 56.0841 2.75195C56.067 2.72989 54.9969 2.10217 53.7055 1.3557L51.3594 0.000167847L51.2641 0.00186348C51.1705 0.00186348 51.1467 0.0154362 48.0757 1.79171ZM53.3738 1.76796C54.5256 2.433 55.4665 2.98098 55.4665 2.98607C55.4665 2.99116 54.1666 3.74611 52.5792 4.66394L49.6903 6.33163L49.5287 6.32145C48.2271 6.23663 46.3403 5.19326 45.4709 4.07694L45.3756 3.95479L45.4488 3.91237C46.6772 3.19983 51.259 0.560024 51.2692 0.560024C51.276 0.560024 52.2236 1.10291 53.3738 1.76796ZM55.6077 13.4214C55.5907 13.4367 49.92 16.711 49.8911 16.7229C49.8741 16.7297 49.869 15.705 49.869 11.6367L49.8707 6.54031L52.7409 4.88279L55.6111 3.22697L55.6162 8.31827C55.6179 11.1192 55.6145 13.4147 55.6077 13.4214ZM45.9813 4.98967C46.7418 5.62418 47.6929 6.14671 48.5589 6.40458C48.9043 6.50637 49.071 6.53861 49.5253 6.5929L49.5967 6.60138V11.7317V16.8637L49.5168 16.8535C49.1595 16.8128 48.8856 16.7517 48.5334 16.6347C47.2999 16.2258 46.0358 15.3487 45.4556 14.5004L45.3773 14.3851V10.2846V6.18403L45.6632 6.46396C45.9949 6.79139 46.3012 7.04248 46.6704 7.28508C47.3424 7.73127 48.0434 8.04343 48.8158 8.24532C49.1238 8.32506 49.1595 8.32676 49.2139 8.27077C49.2939 8.19273 49.2548 8.07397 49.1425 8.04852C48.1557 7.82967 47.1519 7.35464 46.3811 6.74389C46.1685 6.57424 45.8401 6.27225 45.6921 6.10769C45.556 5.9567 45.4998 5.92277 45.4267 5.94991L45.3773 5.96857V5.18817V4.40776L45.6036 4.6351C45.7261 4.76064 45.898 4.92012 45.9813 4.98967Z" fill="white"/>
<path d="M48.0757 1.79171C46.3726 2.7757 44.9656 3.59343 44.9486 3.6087C44.9197 3.63414 44.918 3.853 44.918 9.13261V14.6294L44.9554 14.6905C45.0881 14.911 45.3467 15.2181 45.6291 15.4929C46.422 16.2597 47.6776 16.9706 48.695 17.2285C49.0574 17.3201 49.0693 17.3218 49.4981 17.3218H49.9064L52.2917 15.9442C53.6018 15.1875 54.9782 14.3936 55.3474 14.1798C55.7166 13.966 56.0415 13.7709 56.067 13.7438C56.0943 13.7183 56.1215 13.6674 56.13 13.6301C56.1521 13.5419 56.1521 2.94874 56.13 2.86052C56.1215 2.8232 56.1011 2.7757 56.0841 2.75195C56.067 2.72989 54.9969 2.10217 53.7055 1.3557L51.3594 0.000167847L51.2641 0.00186348C51.1705 0.00186348 51.1467 0.0154362 48.0757 1.79171ZM53.3738 1.76796C54.5256 2.433 55.4665 2.98098 55.4665 2.98607C55.4665 2.99116 54.1666 3.74611 52.5792 4.66394L49.6903 6.33163L49.5287 6.32145C48.2271 6.23663 46.3403 5.19326 45.4709 4.07694L45.3756 3.95479L45.4488 3.91237C46.6772 3.19983 51.259 0.560024 51.2692 0.560024C51.276 0.560024 52.2236 1.10291 53.3738 1.76796ZM55.6077 13.4214C55.5907 13.4367 49.92 16.711 49.8911 16.7229C49.8741 16.7297 49.869 15.705 49.869 11.6367L49.8707 6.54031L52.7409 4.88279L55.6111 3.22697L55.6162 8.31827C55.6179 11.1192 55.6145 13.4147 55.6077 13.4214ZM45.9813 4.98967C46.7418 5.62418 47.6929 6.14671 48.5589 6.40458C48.9043 6.50637 49.071 6.53861 49.5253 6.5929L49.5967 6.60138V11.7317V16.8637L49.5168 16.8535C49.1595 16.8128 48.8856 16.7517 48.5334 16.6347C47.2999 16.2258 46.0358 15.3487 45.4556 14.5004L45.3773 14.3851V10.2846V6.18403L45.6632 6.46396C45.9949 6.79139 46.3012 7.04248 46.6704 7.28508C47.3424 7.73127 48.0434 8.04343 48.8158 8.24532C49.1238 8.32506 49.1595 8.32676 49.2139 8.27077C49.2939 8.19273 49.2548 8.07397 49.1425 8.04852C48.1557 7.82967 47.1519 7.35464 46.3811 6.74389C46.1685 6.57424 45.8401 6.27225 45.6921 6.10769C45.556 5.9567 45.4998 5.92277 45.4267 5.94991L45.3773 5.96857V5.18817V4.40776L45.6036 4.6351C45.7261 4.76064 45.898 4.92012 45.9813 4.98967Z" fill="url(#paint9_linear_1597_2652)"/>
<path d="M45.4515 7.24932C45.4277 7.27477 45.4141 7.3104 45.4141 7.34942C45.4141 7.40201 45.4345 7.43085 45.5978 7.6005C46.4774 8.52342 47.6599 9.20712 48.9342 9.52607C49.0635 9.5583 49.186 9.58545 49.2064 9.58545C49.2609 9.58545 49.3272 9.5108 49.3272 9.45312C49.3272 9.35981 49.2881 9.33606 49.004 9.2648C47.9933 9.01032 47.0168 8.50645 46.2477 7.84311C46.1491 7.75828 45.9636 7.58184 45.8326 7.44951C45.6267 7.24084 45.591 7.2103 45.5434 7.2103C45.5076 7.2103 45.4753 7.22387 45.4515 7.24932Z" fill="black"/>
<path d="M45.4515 7.24932C45.4277 7.27477 45.4141 7.3104 45.4141 7.34942C45.4141 7.40201 45.4345 7.43085 45.5978 7.6005C46.4774 8.52342 47.6599 9.20712 48.9342 9.52607C49.0635 9.5583 49.186 9.58545 49.2064 9.58545C49.2609 9.58545 49.3272 9.5108 49.3272 9.45312C49.3272 9.35981 49.2881 9.33606 49.004 9.2648C47.9933 9.01032 47.0168 8.50645 46.2477 7.84311C46.1491 7.75828 45.9636 7.58184 45.8326 7.44951C45.6267 7.24084 45.591 7.2103 45.5434 7.2103C45.5076 7.2103 45.4753 7.22387 45.4515 7.24932Z" fill="white"/>
<path d="M45.4515 7.24932C45.4277 7.27477 45.4141 7.3104 45.4141 7.34942C45.4141 7.40201 45.4345 7.43085 45.5978 7.6005C46.4774 8.52342 47.6599 9.20712 48.9342 9.52607C49.0635 9.5583 49.186 9.58545 49.2064 9.58545C49.2609 9.58545 49.3272 9.5108 49.3272 9.45312C49.3272 9.35981 49.2881 9.33606 49.004 9.2648C47.9933 9.01032 47.0168 8.50645 46.2477 7.84311C46.1491 7.75828 45.9636 7.58184 45.8326 7.44951C45.6267 7.24084 45.591 7.2103 45.5434 7.2103C45.5076 7.2103 45.4753 7.22387 45.4515 7.24932Z" fill="url(#paint10_linear_1597_2652)"/>
<path d="M46.0659 10.929C45.7511 10.9782 45.5282 11.3311 45.5878 11.6839C45.6286 11.9164 45.7545 12.0911 45.9451 12.1776C46.0267 12.215 46.0557 12.2201 46.1782 12.2133C46.3398 12.2048 46.4266 12.1675 46.5354 12.0572C46.8451 11.7501 46.7634 11.158 46.3874 10.9799C46.27 10.9239 46.185 10.9103 46.0659 10.929ZM46.2615 11.175C46.5184 11.3039 46.5746 11.6738 46.3687 11.8858C46.2394 12.0199 46.0897 12.0266 45.9519 11.9011C45.8532 11.8146 45.809 11.6958 45.8175 11.5482C45.8243 11.4125 45.8583 11.3328 45.9383 11.2496C46.0352 11.1495 46.156 11.1224 46.2615 11.175Z" fill="black"/>
<path d="M46.0659 10.929C45.7511 10.9782 45.5282 11.3311 45.5878 11.6839C45.6286 11.9164 45.7545 12.0911 45.9451 12.1776C46.0267 12.215 46.0557 12.2201 46.1782 12.2133C46.3398 12.2048 46.4266 12.1675 46.5354 12.0572C46.8451 11.7501 46.7634 11.158 46.3874 10.9799C46.27 10.9239 46.185 10.9103 46.0659 10.929ZM46.2615 11.175C46.5184 11.3039 46.5746 11.6738 46.3687 11.8858C46.2394 12.0199 46.0897 12.0266 45.9519 11.9011C45.8532 11.8146 45.809 11.6958 45.8175 11.5482C45.8243 11.4125 45.8583 11.3328 45.9383 11.2496C46.0352 11.1495 46.156 11.1224 46.2615 11.175Z" fill="white"/>
<path d="M46.0659 10.929C45.7511 10.9782 45.5282 11.3311 45.5878 11.6839C45.6286 11.9164 45.7545 12.0911 45.9451 12.1776C46.0267 12.215 46.0557 12.2201 46.1782 12.2133C46.3398 12.2048 46.4266 12.1675 46.5354 12.0572C46.8451 11.7501 46.7634 11.158 46.3874 10.9799C46.27 10.9239 46.185 10.9103 46.0659 10.929ZM46.2615 11.175C46.5184 11.3039 46.5746 11.6738 46.3687 11.8858C46.2394 12.0199 46.0897 12.0266 45.9519 11.9011C45.8532 11.8146 45.809 11.6958 45.8175 11.5482C45.8243 11.4125 45.8583 11.3328 45.9383 11.2496C46.0352 11.1495 46.156 11.1224 46.2615 11.175Z" fill="url(#paint11_linear_1597_2652)"/>
<path d="M45.973 12.6056C45.8335 12.648 45.6787 12.8041 45.6175 12.9653C45.5851 13.0518 45.5766 13.1027 45.5783 13.2249C45.58 13.4149 45.6226 13.5353 45.7332 13.6575C45.8523 13.7898 45.9373 13.8322 46.1058 13.8407C46.2283 13.8475 46.2572 13.8424 46.3388 13.8051C46.463 13.7491 46.5634 13.6456 46.6281 13.5082C46.6791 13.403 46.6825 13.3809 46.6825 13.2164C46.6825 13.0518 46.6791 13.0298 46.6281 12.9246C46.5243 12.7057 46.3525 12.5887 46.1381 12.5904C46.0734 12.5904 45.9986 12.5971 45.973 12.6056ZM46.2283 12.8347C46.315 12.872 46.3661 12.9229 46.412 13.0213C46.5192 13.2469 46.4154 13.537 46.2044 13.6066C46.0241 13.666 45.8301 13.4963 45.8114 13.2622C45.7961 13.0722 45.871 12.9161 46.0122 12.8465C46.1007 12.8024 46.1432 12.8007 46.2283 12.8347Z" fill="black"/>
<path d="M45.973 12.6056C45.8335 12.648 45.6787 12.8041 45.6175 12.9653C45.5851 13.0518 45.5766 13.1027 45.5783 13.2249C45.58 13.4149 45.6226 13.5353 45.7332 13.6575C45.8523 13.7898 45.9373 13.8322 46.1058 13.8407C46.2283 13.8475 46.2572 13.8424 46.3388 13.8051C46.463 13.7491 46.5634 13.6456 46.6281 13.5082C46.6791 13.403 46.6825 13.3809 46.6825 13.2164C46.6825 13.0518 46.6791 13.0298 46.6281 12.9246C46.5243 12.7057 46.3525 12.5887 46.1381 12.5904C46.0734 12.5904 45.9986 12.5971 45.973 12.6056ZM46.2283 12.8347C46.315 12.872 46.3661 12.9229 46.412 13.0213C46.5192 13.2469 46.4154 13.537 46.2044 13.6066C46.0241 13.666 45.8301 13.4963 45.8114 13.2622C45.7961 13.0722 45.871 12.9161 46.0122 12.8465C46.1007 12.8024 46.1432 12.8007 46.2283 12.8347Z" fill="white"/>
<path d="M45.973 12.6056C45.8335 12.648 45.6787 12.8041 45.6175 12.9653C45.5851 13.0518 45.5766 13.1027 45.5783 13.2249C45.58 13.4149 45.6226 13.5353 45.7332 13.6575C45.8523 13.7898 45.9373 13.8322 46.1058 13.8407C46.2283 13.8475 46.2572 13.8424 46.3388 13.8051C46.463 13.7491 46.5634 13.6456 46.6281 13.5082C46.6791 13.403 46.6825 13.3809 46.6825 13.2164C46.6825 13.0518 46.6791 13.0298 46.6281 12.9246C46.5243 12.7057 46.3525 12.5887 46.1381 12.5904C46.0734 12.5904 45.9986 12.5971 45.973 12.6056ZM46.2283 12.8347C46.315 12.872 46.3661 12.9229 46.412 13.0213C46.5192 13.2469 46.4154 13.537 46.2044 13.6066C46.0241 13.666 45.8301 13.4963 45.8114 13.2622C45.7961 13.0722 45.871 12.9161 46.0122 12.8465C46.1007 12.8024 46.1432 12.8007 46.2283 12.8347Z" fill="url(#paint12_linear_1597_2652)"/>
<path d="M48.0757 27.0554C46.3726 28.0394 44.9656 28.8571 44.9486 28.8724C44.9197 28.8978 44.918 29.1167 44.918 34.3963V39.8931L44.9554 39.9541C45.0881 40.1747 45.3467 40.4817 45.6291 40.7566C46.422 41.5234 47.6776 42.2343 48.695 42.4921C49.0574 42.5838 49.0693 42.5854 49.4981 42.5854H49.9064L52.2917 41.2079C53.6018 40.4512 54.9782 39.6572 55.3474 39.4435C55.7166 39.2297 56.0415 39.0346 56.067 39.0075C56.0943 38.982 56.1215 38.9311 56.13 38.8938C56.1521 38.8056 56.1521 28.2124 56.13 28.1242C56.1215 28.0869 56.1011 28.0394 56.0841 28.0156C56.067 27.9936 54.9969 27.3658 53.7055 26.6194L51.3594 25.2638L51.2641 25.2655C51.1705 25.2655 51.1467 25.2791 48.0757 27.0554ZM53.3738 27.0316C54.5256 27.6967 55.4665 28.2446 55.4665 28.2497C55.4665 28.2548 54.1666 29.0098 52.5792 29.9276L49.6903 31.5953L49.5287 31.5851C48.2271 31.5003 46.3403 30.4569 45.4709 29.3406L45.3756 29.2185L45.4488 29.176C46.6772 28.4635 51.259 25.8237 51.2692 25.8237C51.276 25.8237 52.2236 26.3666 53.3738 27.0316ZM55.6077 38.6851C55.5907 38.7004 49.92 41.9747 49.8911 41.9866C49.8741 41.9934 49.869 40.9687 49.869 36.9004L49.8707 31.804L52.7409 30.1465L55.6111 28.4906L55.6162 33.5819C55.6179 36.3829 55.6145 38.6783 55.6077 38.6851ZM45.9813 30.2533C46.7418 30.8878 47.6929 31.4104 48.5589 31.6683C48.9043 31.77 49.071 31.8023 49.5253 31.8566L49.5967 31.8651V36.9954V42.1274L49.5168 42.1172C49.1595 42.0765 48.8856 42.0154 48.5334 41.8984C47.2999 41.4895 46.0358 40.6124 45.4556 39.7641L45.3773 39.6487V35.5482V31.4477L45.6632 31.7276C45.9949 32.0551 46.3012 32.3062 46.6704 32.5488C47.3424 32.9949 48.0434 33.3071 48.8158 33.509C49.1238 33.5887 49.1595 33.5904 49.2139 33.5344C49.2939 33.4564 49.2548 33.3376 49.1425 33.3122C48.1557 33.0933 47.1519 32.6183 46.3811 32.0076C46.1685 31.8379 45.8401 31.5359 45.6921 31.3714C45.556 31.2204 45.4998 31.1864 45.4267 31.2136L45.3773 31.2322V30.4518V29.6714L45.6036 29.8988C45.7261 30.0243 45.898 30.1838 45.9813 30.2533Z" fill="black"/>
<path d="M48.0757 27.0554C46.3726 28.0394 44.9656 28.8571 44.9486 28.8724C44.9197 28.8978 44.918 29.1167 44.918 34.3963V39.8931L44.9554 39.9541C45.0881 40.1747 45.3467 40.4817 45.6291 40.7566C46.422 41.5234 47.6776 42.2343 48.695 42.4921C49.0574 42.5838 49.0693 42.5854 49.4981 42.5854H49.9064L52.2917 41.2079C53.6018 40.4512 54.9782 39.6572 55.3474 39.4435C55.7166 39.2297 56.0415 39.0346 56.067 39.0075C56.0943 38.982 56.1215 38.9311 56.13 38.8938C56.1521 38.8056 56.1521 28.2124 56.13 28.1242C56.1215 28.0869 56.1011 28.0394 56.0841 28.0156C56.067 27.9936 54.9969 27.3658 53.7055 26.6194L51.3594 25.2638L51.2641 25.2655C51.1705 25.2655 51.1467 25.2791 48.0757 27.0554ZM53.3738 27.0316C54.5256 27.6967 55.4665 28.2446 55.4665 28.2497C55.4665 28.2548 54.1666 29.0098 52.5792 29.9276L49.6903 31.5953L49.5287 31.5851C48.2271 31.5003 46.3403 30.4569 45.4709 29.3406L45.3756 29.2185L45.4488 29.176C46.6772 28.4635 51.259 25.8237 51.2692 25.8237C51.276 25.8237 52.2236 26.3666 53.3738 27.0316ZM55.6077 38.6851C55.5907 38.7004 49.92 41.9747 49.8911 41.9866C49.8741 41.9934 49.869 40.9687 49.869 36.9004L49.8707 31.804L52.7409 30.1465L55.6111 28.4906L55.6162 33.5819C55.6179 36.3829 55.6145 38.6783 55.6077 38.6851ZM45.9813 30.2533C46.7418 30.8878 47.6929 31.4104 48.5589 31.6683C48.9043 31.77 49.071 31.8023 49.5253 31.8566L49.5967 31.8651V36.9954V42.1274L49.5168 42.1172C49.1595 42.0765 48.8856 42.0154 48.5334 41.8984C47.2999 41.4895 46.0358 40.6124 45.4556 39.7641L45.3773 39.6487V35.5482V31.4477L45.6632 31.7276C45.9949 32.0551 46.3012 32.3062 46.6704 32.5488C47.3424 32.9949 48.0434 33.3071 48.8158 33.509C49.1238 33.5887 49.1595 33.5904 49.2139 33.5344C49.2939 33.4564 49.2548 33.3376 49.1425 33.3122C48.1557 33.0933 47.1519 32.6183 46.3811 32.0076C46.1685 31.8379 45.8401 31.5359 45.6921 31.3714C45.556 31.2204 45.4998 31.1864 45.4267 31.2136L45.3773 31.2322V30.4518V29.6714L45.6036 29.8988C45.7261 30.0243 45.898 30.1838 45.9813 30.2533Z" fill="white"/>
<path d="M48.0757 27.0554C46.3726 28.0394 44.9656 28.8571 44.9486 28.8724C44.9197 28.8978 44.918 29.1167 44.918 34.3963V39.8931L44.9554 39.9541C45.0881 40.1747 45.3467 40.4817 45.6291 40.7566C46.422 41.5234 47.6776 42.2343 48.695 42.4921C49.0574 42.5838 49.0693 42.5854 49.4981 42.5854H49.9064L52.2917 41.2079C53.6018 40.4512 54.9782 39.6572 55.3474 39.4435C55.7166 39.2297 56.0415 39.0346 56.067 39.0075C56.0943 38.982 56.1215 38.9311 56.13 38.8938C56.1521 38.8056 56.1521 28.2124 56.13 28.1242C56.1215 28.0869 56.1011 28.0394 56.0841 28.0156C56.067 27.9936 54.9969 27.3658 53.7055 26.6194L51.3594 25.2638L51.2641 25.2655C51.1705 25.2655 51.1467 25.2791 48.0757 27.0554ZM53.3738 27.0316C54.5256 27.6967 55.4665 28.2446 55.4665 28.2497C55.4665 28.2548 54.1666 29.0098 52.5792 29.9276L49.6903 31.5953L49.5287 31.5851C48.2271 31.5003 46.3403 30.4569 45.4709 29.3406L45.3756 29.2185L45.4488 29.176C46.6772 28.4635 51.259 25.8237 51.2692 25.8237C51.276 25.8237 52.2236 26.3666 53.3738 27.0316ZM55.6077 38.6851C55.5907 38.7004 49.92 41.9747 49.8911 41.9866C49.8741 41.9934 49.869 40.9687 49.869 36.9004L49.8707 31.804L52.7409 30.1465L55.6111 28.4906L55.6162 33.5819C55.6179 36.3829 55.6145 38.6783 55.6077 38.6851ZM45.9813 30.2533C46.7418 30.8878 47.6929 31.4104 48.5589 31.6683C48.9043 31.77 49.071 31.8023 49.5253 31.8566L49.5967 31.8651V36.9954V42.1274L49.5168 42.1172C49.1595 42.0765 48.8856 42.0154 48.5334 41.8984C47.2999 41.4895 46.0358 40.6124 45.4556 39.7641L45.3773 39.6487V35.5482V31.4477L45.6632 31.7276C45.9949 32.0551 46.3012 32.3062 46.6704 32.5488C47.3424 32.9949 48.0434 33.3071 48.8158 33.509C49.1238 33.5887 49.1595 33.5904 49.2139 33.5344C49.2939 33.4564 49.2548 33.3376 49.1425 33.3122C48.1557 33.0933 47.1519 32.6183 46.3811 32.0076C46.1685 31.8379 45.8401 31.5359 45.6921 31.3714C45.556 31.2204 45.4998 31.1864 45.4267 31.2136L45.3773 31.2322V30.4518V29.6714L45.6036 29.8988C45.7261 30.0243 45.898 30.1838 45.9813 30.2533Z" fill="url(#paint13_linear_1597_2652)"/>
<path d="M45.4515 32.513C45.4277 32.5384 45.4141 32.5741 45.4141 32.6131C45.4141 32.6657 45.4345 32.6945 45.5978 32.8642C46.4774 33.7871 47.6599 34.4708 48.9342 34.7897C49.0635 34.822 49.186 34.8491 49.2064 34.8491C49.2609 34.8491 49.3272 34.7745 49.3272 34.7168C49.3272 34.6235 49.2881 34.5997 49.004 34.5285C47.9933 34.274 47.0168 33.7701 46.2477 33.1068C46.1491 33.022 45.9636 32.8455 45.8326 32.7132C45.6267 32.5045 45.591 32.474 45.5434 32.474C45.5076 32.474 45.4753 32.4875 45.4515 32.513Z" fill="black"/>
<path d="M45.4515 32.513C45.4277 32.5384 45.4141 32.5741 45.4141 32.6131C45.4141 32.6657 45.4345 32.6945 45.5978 32.8642C46.4774 33.7871 47.6599 34.4708 48.9342 34.7897C49.0635 34.822 49.186 34.8491 49.2064 34.8491C49.2609 34.8491 49.3272 34.7745 49.3272 34.7168C49.3272 34.6235 49.2881 34.5997 49.004 34.5285C47.9933 34.274 47.0168 33.7701 46.2477 33.1068C46.1491 33.022 45.9636 32.8455 45.8326 32.7132C45.6267 32.5045 45.591 32.474 45.5434 32.474C45.5076 32.474 45.4753 32.4875 45.4515 32.513Z" fill="white"/>
<path d="M45.4515 32.513C45.4277 32.5384 45.4141 32.5741 45.4141 32.6131C45.4141 32.6657 45.4345 32.6945 45.5978 32.8642C46.4774 33.7871 47.6599 34.4708 48.9342 34.7897C49.0635 34.822 49.186 34.8491 49.2064 34.8491C49.2609 34.8491 49.3272 34.7745 49.3272 34.7168C49.3272 34.6235 49.2881 34.5997 49.004 34.5285C47.9933 34.274 47.0168 33.7701 46.2477 33.1068C46.1491 33.022 45.9636 32.8455 45.8326 32.7132C45.6267 32.5045 45.591 32.474 45.5434 32.474C45.5076 32.474 45.4753 32.4875 45.4515 32.513Z" fill="url(#paint14_linear_1597_2652)"/>
<path d="M46.0659 36.1927C45.7511 36.2419 45.5282 36.5947 45.5878 36.9476C45.6286 37.18 45.7545 37.3548 45.9451 37.4413C46.0267 37.4786 46.0557 37.4837 46.1782 37.4769C46.3398 37.4685 46.4266 37.4311 46.5354 37.3209C46.8451 37.0138 46.7634 36.4217 46.3874 36.2436C46.27 36.1876 46.185 36.174 46.0659 36.1927ZM46.2615 36.4387C46.5184 36.5676 46.5746 36.9374 46.3687 37.1495C46.2394 37.2835 46.0897 37.2903 45.9519 37.1648C45.8532 37.0783 45.809 36.9595 45.8175 36.8119C45.8243 36.6762 45.8583 36.5964 45.9383 36.5133C46.0352 36.4132 46.156 36.3861 46.2615 36.4387Z" fill="black"/>
<path d="M46.0659 36.1927C45.7511 36.2419 45.5282 36.5947 45.5878 36.9476C45.6286 37.18 45.7545 37.3548 45.9451 37.4413C46.0267 37.4786 46.0557 37.4837 46.1782 37.4769C46.3398 37.4685 46.4266 37.4311 46.5354 37.3209C46.8451 37.0138 46.7634 36.4217 46.3874 36.2436C46.27 36.1876 46.185 36.174 46.0659 36.1927ZM46.2615 36.4387C46.5184 36.5676 46.5746 36.9374 46.3687 37.1495C46.2394 37.2835 46.0897 37.2903 45.9519 37.1648C45.8532 37.0783 45.809 36.9595 45.8175 36.8119C45.8243 36.6762 45.8583 36.5964 45.9383 36.5133C46.0352 36.4132 46.156 36.3861 46.2615 36.4387Z" fill="white"/>
<path d="M46.0659 36.1927C45.7511 36.2419 45.5282 36.5947 45.5878 36.9476C45.6286 37.18 45.7545 37.3548 45.9451 37.4413C46.0267 37.4786 46.0557 37.4837 46.1782 37.4769C46.3398 37.4685 46.4266 37.4311 46.5354 37.3209C46.8451 37.0138 46.7634 36.4217 46.3874 36.2436C46.27 36.1876 46.185 36.174 46.0659 36.1927ZM46.2615 36.4387C46.5184 36.5676 46.5746 36.9374 46.3687 37.1495C46.2394 37.2835 46.0897 37.2903 45.9519 37.1648C45.8532 37.0783 45.809 36.9595 45.8175 36.8119C45.8243 36.6762 45.8583 36.5964 45.9383 36.5133C46.0352 36.4132 46.156 36.3861 46.2615 36.4387Z" fill="url(#paint15_linear_1597_2652)"/>
<path d="M45.973 37.8693C45.8335 37.9117 45.6787 38.0678 45.6175 38.229C45.5851 38.3155 45.5766 38.3664 45.5783 38.4885C45.58 38.6786 45.6226 38.799 45.7332 38.9212C45.8523 39.0535 45.9373 39.0959 46.1058 39.1044C46.2283 39.1112 46.2572 39.1061 46.3388 39.0688C46.463 39.0128 46.5634 38.9093 46.6281 38.7719C46.6791 38.6667 46.6825 38.6446 46.6825 38.4801C46.6825 38.3155 46.6791 38.2934 46.6281 38.1883C46.5243 37.9694 46.3525 37.8523 46.1381 37.854C46.0734 37.854 45.9986 37.8608 45.973 37.8693ZM46.2283 38.0983C46.315 38.1357 46.3661 38.1866 46.412 38.285C46.5192 38.5106 46.4154 38.8007 46.2044 38.8703C46.0241 38.9296 45.8301 38.76 45.8114 38.5259C45.7961 38.3359 45.871 38.1798 46.0122 38.1102C46.1007 38.0661 46.1432 38.0644 46.2283 38.0983Z" fill="black"/>
<path d="M45.973 37.8693C45.8335 37.9117 45.6787 38.0678 45.6175 38.229C45.5851 38.3155 45.5766 38.3664 45.5783 38.4885C45.58 38.6786 45.6226 38.799 45.7332 38.9212C45.8523 39.0535 45.9373 39.0959 46.1058 39.1044C46.2283 39.1112 46.2572 39.1061 46.3388 39.0688C46.463 39.0128 46.5634 38.9093 46.6281 38.7719C46.6791 38.6667 46.6825 38.6446 46.6825 38.4801C46.6825 38.3155 46.6791 38.2934 46.6281 38.1883C46.5243 37.9694 46.3525 37.8523 46.1381 37.854C46.0734 37.854 45.9986 37.8608 45.973 37.8693ZM46.2283 38.0983C46.315 38.1357 46.3661 38.1866 46.412 38.285C46.5192 38.5106 46.4154 38.8007 46.2044 38.8703C46.0241 38.9296 45.8301 38.76 45.8114 38.5259C45.7961 38.3359 45.871 38.1798 46.0122 38.1102C46.1007 38.0661 46.1432 38.0644 46.2283 38.0983Z" fill="white"/>
<path d="M45.973 37.8693C45.8335 37.9117 45.6787 38.0678 45.6175 38.229C45.5851 38.3155 45.5766 38.3664 45.5783 38.4885C45.58 38.6786 45.6226 38.799 45.7332 38.9212C45.8523 39.0535 45.9373 39.0959 46.1058 39.1044C46.2283 39.1112 46.2572 39.1061 46.3388 39.0688C46.463 39.0128 46.5634 38.9093 46.6281 38.7719C46.6791 38.6667 46.6825 38.6446 46.6825 38.4801C46.6825 38.3155 46.6791 38.2934 46.6281 38.1883C46.5243 37.9694 46.3525 37.8523 46.1381 37.854C46.0734 37.854 45.9986 37.8608 45.973 37.8693ZM46.2283 38.0983C46.315 38.1357 46.3661 38.1866 46.412 38.285C46.5192 38.5106 46.4154 38.8007 46.2044 38.8703C46.0241 38.9296 45.8301 38.76 45.8114 38.5259C45.7961 38.3359 45.871 38.1798 46.0122 38.1102C46.1007 38.0661 46.1432 38.0644 46.2283 38.0983Z" fill="url(#paint16_linear_1597_2652)"/>
<defs>
<linearGradient id="paint0_linear_1597_2652" x1="0.0220454" y1="18.1092" x2="3.13779" y2="18.1092" gradientUnits="userSpaceOnUse">
<stop stop-color="#3793AE"/>
<stop offset="1" stop-color="#074287"/>
</linearGradient>
<linearGradient id="paint1_linear_1597_2652" x1="13.2765" y1="18.1143" x2="16.4714" y2="18.1143" gradientUnits="userSpaceOnUse">
<stop stop-color="#3793AE"/>
<stop offset="1" stop-color="#074287"/>
</linearGradient>
<linearGradient id="paint2_linear_1597_2652" x1="2.10408" y1="18.1086" x2="4.66865" y2="18.1086" gradientUnits="userSpaceOnUse">
<stop stop-color="#3793AE"/>
<stop offset="1" stop-color="#074287"/>
</linearGradient>
<linearGradient id="paint3_linear_1597_2652" x1="11.8071" y1="18.1303" x2="14.3539" y2="18.1303" gradientUnits="userSpaceOnUse">
<stop stop-color="#3793AE"/>
<stop offset="1" stop-color="#074287"/>
</linearGradient>
<linearGradient id="paint4_linear_1597_2652" x1="4.19348" y1="18.1165" x2="6.1431" y2="18.1165" gradientUnits="userSpaceOnUse">
<stop stop-color="#3793AE"/>
<stop offset="1" stop-color="#074287"/>
</linearGradient>
<linearGradient id="paint5_linear_1597_2652" x1="10.3298" y1="18.1206" x2="12.217" y2="18.1206" gradientUnits="userSpaceOnUse">
<stop stop-color="#3793AE"/>
<stop offset="1" stop-color="#074287"/>
</linearGradient>
<linearGradient id="paint6_linear_1597_2652" x1="3.90886" y1="27.0286" x2="25.2567" y2="27.0286" gradientUnits="userSpaceOnUse">
<stop stop-color="#3793AE"/>
<stop offset="1" stop-color="#074287"/>
</linearGradient>
<linearGradient id="paint7_linear_1597_2652" x1="28.4852" y1="22.7696" x2="42.4223" y2="11.6198" gradientUnits="userSpaceOnUse">
<stop stop-color="#3793AE"/>
<stop offset="1" stop-color="#074287"/>
</linearGradient>
<linearGradient id="paint8_linear_1597_2652" x1="27.9156" y1="28.5602" x2="41.8527" y2="36.9225" gradientUnits="userSpaceOnUse">
<stop stop-color="#3793AE"/>
<stop offset="1" stop-color="#074287"/>
</linearGradient>
<linearGradient id="paint9_linear_1597_2652" x1="44.9969" y1="8.66097" x2="56.1466" y2="8.66097" gradientUnits="userSpaceOnUse">
<stop stop-color="#3793AE"/>
<stop offset="1" stop-color="#074287"/>
</linearGradient>
<linearGradient id="paint10_linear_1597_2652" x1="45.4416" y1="8.39788" x2="49.3272" y2="8.39788" gradientUnits="userSpaceOnUse">
<stop stop-color="#3793AE"/>
<stop offset="1" stop-color="#074287"/>
</linearGradient>
<linearGradient id="paint11_linear_1597_2652" x1="45.5862" y1="11.5685" x2="46.7257" y2="11.5685" gradientUnits="userSpaceOnUse">
<stop stop-color="#3793AE"/>
<stop offset="1" stop-color="#074287"/>
</linearGradient>
<linearGradient id="paint12_linear_1597_2652" x1="45.5859" y1="13.2168" x2="46.6825" y2="13.2168" gradientUnits="userSpaceOnUse">
<stop stop-color="#3793AE"/>
<stop offset="1" stop-color="#074287"/>
</linearGradient>
<linearGradient id="paint13_linear_1597_2652" x1="44.9969" y1="33.9246" x2="56.1466" y2="33.9246" gradientUnits="userSpaceOnUse">
<stop stop-color="#3793AE"/>
<stop offset="1" stop-color="#074287"/>
</linearGradient>
<linearGradient id="paint14_linear_1597_2652" x1="45.4416" y1="33.6615" x2="49.3272" y2="33.6615" gradientUnits="userSpaceOnUse">
<stop stop-color="#3793AE"/>
<stop offset="1" stop-color="#074287"/>
</linearGradient>
<linearGradient id="paint15_linear_1597_2652" x1="45.5862" y1="36.8321" x2="46.7257" y2="36.8321" gradientUnits="userSpaceOnUse">
<stop stop-color="#3793AE"/>
<stop offset="1" stop-color="#074287"/>
</linearGradient>
<linearGradient id="paint16_linear_1597_2652" x1="45.5859" y1="38.4805" x2="46.6825" y2="38.4805" gradientUnits="userSpaceOnUse">
<stop stop-color="#3793AE"/>
<stop offset="1" stop-color="#074287"/>
</linearGradient>
</defs>
</svg>
