<svg width="32" height="27" viewBox="0 0 32 27" fill="none" xmlns="http://www.w3.org/2000/svg">
<path d="M15.9938 2.26428C16.5009 2.26446 17.0067 2.32135 17.5038 2.4341C19.0748 2.77473 20.5195 3.64068 21.6514 4.92015C22.7833 6.19962 23.5505 7.83386 23.8538 9.61186L24.1138 11.1403L25.4638 11.412C26.8274 11.6775 28.0524 12.515 28.8948 13.7576C29.7371 15.0002 30.1349 16.5566 30.0087 18.1165C29.8825 19.6763 29.2417 21.125 28.214 22.1738C27.1863 23.2225 25.8473 23.7942 24.4638 23.7749H7.49385C6.1104 23.7942 4.77135 23.2225 3.74367 22.1738C2.71599 21.125 2.07518 19.6763 1.94901 18.1165C1.82284 16.5566 2.22057 15.0002 3.06291 13.7576C3.90525 12.515 5.13031 11.6775 6.49385 11.412L7.83385 11.1403L8.09385 9.61186C8.44627 7.53586 9.42901 5.66482 10.8718 4.3229C12.3146 2.98098 14.1266 2.25271 15.9938 2.26428ZM15.9938 3.91156e-06C13.6665 -0.00218546 11.4113 0.914761 9.61693 2.59284C7.82256 4.27092 6.6014 6.60503 6.16385 9.19297C4.32218 9.57047 2.67173 10.7139 1.53667 12.3987C0.401612 14.0835 -0.136028 16.1878 0.0293526 18.2985C0.194733 20.4091 1.05118 22.3735 2.43048 23.8057C3.80978 25.238 5.61224 26.0346 7.48385 26.0392H24.4838C26.3555 26.0346 28.1579 25.238 29.5372 23.8057C30.9165 22.3735 31.773 20.4091 31.9383 18.2985C32.1037 16.1878 31.5661 14.0835 30.431 12.3987C29.296 10.7139 27.6455 9.57047 25.8038 9.19297C25.4272 6.96698 24.4691 4.92021 23.0535 3.31757C21.6379 1.71493 19.83 0.630207 17.8638 0.203789C17.2473 0.0715106 16.6214 0.00329885 15.9938 3.91156e-06Z" fill="url(#paint0_linear_1601_2977)"/>
<path d="M18.8592 12.4303C18.0365 11.5021 16.8395 10.915 15.5 10.915C13.0145 10.915 11 12.9295 11 15.415H12.125C12.125 13.55 13.635 12.04 15.5 12.04C16.5283 12.04 17.4406 12.5059 18.0576 13.2318L16.9994 14.29H20V11.2895L18.8592 12.4303ZM15.5 18.79C14.4717 18.79 13.5594 18.3242 12.9424 17.5982L14.0006 16.54H11V19.5406L12.1408 18.3998C12.9635 19.3279 14.1623 19.915 15.5 19.915C17.9855 19.915 20 17.9006 20 15.415H18.875C18.875 17.2801 17.365 18.79 15.5 18.79Z" fill="url(#paint1_linear_1601_2977)"/>
<defs>
<linearGradient id="paint0_linear_1601_2977" x1="0.224597" y1="13.0196" x2="31.9677" y2="13.0196" gradientUnits="userSpaceOnUse">
<stop stop-color="#3793AE"/>
<stop offset="1" stop-color="#074287"/>
</linearGradient>
<linearGradient id="paint1_linear_1601_2977" x1="11.0632" y1="15.415" x2="20" y2="15.415" gradientUnits="userSpaceOnUse">
<stop stop-color="#3793AE"/>
<stop offset="1" stop-color="#074287"/>
</linearGradient>
</defs>
</svg>
