<svg width="41" height="41" viewBox="0 0 41 41" fill="none" xmlns="http://www.w3.org/2000/svg">
<g clip-path="url(#clip0_1252_2230)">
<path d="M12.3004 8.2001C11.7567 8.2001 11.2353 8.41608 10.8508 8.80053C10.4664 9.18498 10.2504 9.7064 10.2504 10.2501V14.3501C10.2504 14.8938 10.4664 15.4152 10.8508 15.7997C11.2353 16.1841 11.7567 16.4001 12.3004 16.4001H24.6004C25.1441 16.4001 25.6655 16.1841 26.05 15.7997C26.4344 15.4152 26.6504 14.8938 26.6504 14.3501V10.2501C26.6504 9.7064 26.4344 9.18498 26.05 8.80053C25.6655 8.41608 25.1441 8.2001 24.6004 8.2001H12.3004ZM12.3004 10.2501H24.6004V14.3501H12.3004V10.2501ZM16.4004 20.5001C16.4004 19.9564 16.6164 19.435 17.0008 19.0505C17.3853 18.6661 17.9067 18.4501 18.4504 18.4501C18.9941 18.4501 19.5155 18.6661 19.9 19.0505C20.2844 19.435 20.5004 19.9564 20.5004 20.5001C20.5004 21.0438 20.2844 21.5652 19.9 21.9497C19.5155 22.3341 18.9941 22.5501 18.4504 22.5501C17.9067 22.5501 17.3853 22.3341 17.0008 21.9497C16.6164 21.5652 16.4004 21.0438 16.4004 20.5001ZM18.4504 24.0876C17.9067 24.0876 17.3853 24.3036 17.0008 24.688C16.6164 25.0725 16.4004 25.5939 16.4004 26.1376C16.4004 26.6813 16.6164 27.2027 17.0008 27.5872C17.3853 27.9716 17.9067 28.1876 18.4504 28.1876C18.9941 28.1876 19.5155 27.9716 19.9 27.5872C20.2844 27.2027 20.5004 26.6813 20.5004 26.1376C20.5004 25.5939 20.2844 25.0725 19.9 24.688C19.5155 24.3036 18.9941 24.0876 18.4504 24.0876ZM22.5504 20.5001C22.5504 19.9564 22.7664 19.435 23.1508 19.0505C23.5353 18.6661 24.0567 18.4501 24.6004 18.4501C25.1441 18.4501 25.6655 18.6661 26.05 19.0505C26.4344 19.435 26.6504 19.9564 26.6504 20.5001C26.6504 21.0438 26.4344 21.5652 26.05 21.9497C25.6655 22.3341 25.1441 22.5501 24.6004 22.5501C24.0567 22.5501 23.5353 22.3341 23.1508 21.9497C22.7664 21.5652 22.5504 21.0438 22.5504 20.5001ZM24.6004 24.0876C24.0567 24.0876 23.5353 24.3036 23.1508 24.688C22.7664 25.0725 22.5504 25.5939 22.5504 26.1376C22.5504 26.6813 22.7664 27.2027 23.1508 27.5872C23.5353 27.9716 24.0567 28.1876 24.6004 28.1876C25.1441 28.1876 25.6655 27.9716 26.05 27.5872C26.4344 27.2027 26.6504 26.6813 26.6504 26.1376C26.6504 25.5939 26.4344 25.0725 26.05 24.688C25.6655 24.3036 25.1441 24.0876 24.6004 24.0876ZM10.2504 20.5001C10.2504 19.9564 10.4664 19.435 10.8508 19.0505C11.2353 18.6661 11.7567 18.4501 12.3004 18.4501C12.8441 18.4501 13.3655 18.6661 13.75 19.0505C14.1344 19.435 14.3504 19.9564 14.3504 20.5001C14.3504 21.0438 14.1344 21.5652 13.75 21.9497C13.3655 22.3341 12.8441 22.5501 12.3004 22.5501C11.7567 22.5501 11.2353 22.3341 10.8508 21.9497C10.4664 21.5652 10.2504 21.0438 10.2504 20.5001ZM12.3004 24.0876C11.7567 24.0876 11.2353 24.3036 10.8508 24.688C10.4664 25.0725 10.2504 25.5939 10.2504 26.1376C10.2504 26.6813 10.4664 27.2027 10.8508 27.5872C11.2353 27.9716 11.7567 28.1876 12.3004 28.1876C12.8441 28.1876 13.3655 27.9716 13.75 27.5872C14.1344 27.2027 14.3504 26.6813 14.3504 26.1376C14.3504 25.5939 14.1344 25.0725 13.75 24.688C13.3655 24.3036 12.8441 24.0876 12.3004 24.0876ZM11.2754 4.1001C9.91616 4.1001 8.61259 4.64005 7.65147 5.60118C6.69034 6.5623 6.15039 7.86586 6.15039 9.2251V27.6751C6.15039 29.0343 6.69034 30.3379 7.65147 31.299C8.61259 32.2601 9.91616 32.8001 11.2754 32.8001H25.6254C26.9846 32.8001 28.2882 32.2601 29.2493 31.299C30.2104 30.3379 30.7504 29.0343 30.7504 27.6751V9.2251C30.7504 7.86586 30.2104 6.5623 29.2493 5.60118C28.2882 4.64005 26.9846 4.1001 25.6254 4.1001H11.2754ZM8.20039 9.2251C8.20039 8.40956 8.52436 7.62742 9.10104 7.05074C9.67771 6.47407 10.4598 6.1501 11.2754 6.1501H25.6254C26.4409 6.1501 27.2231 6.47407 27.7997 7.05074C28.3764 7.62742 28.7004 8.40956 28.7004 9.2251V27.6751C28.7004 28.4906 28.3764 29.2728 27.7997 29.8495C27.2231 30.4261 26.4409 30.7501 25.6254 30.7501H11.2754C10.4598 30.7501 9.67771 30.4261 9.10104 29.8495C8.52436 29.2728 8.20039 28.4906 8.20039 27.6751V9.2251Z" fill="white"/>
<g filter="url(#filter0_d_1252_2230)">
<circle cx="32.4028" cy="32.4028" r="7.40278" fill="#E4E9EB"/>
</g>
<g clip-path="url(#clip1_1252_2230)">
<path d="M28.9443 32.3057L35.9443 32.3057" stroke="#3793AE" stroke-linecap="round"/>
<path d="M32.4443 28.8057L32.4443 35.8057" stroke="#3793AE" stroke-linecap="round"/>
</g>
</g>
<defs>
<filter id="filter0_d_1252_2230" x="20.2" y="24.2" width="24.4057" height="24.4057" filterUnits="userSpaceOnUse" color-interpolation-filters="sRGB">
<feFlood flood-opacity="0" result="BackgroundImageFix"/>
<feColorMatrix in="SourceAlpha" type="matrix" values="0 0 0 0 0 0 0 0 0 0 0 0 0 0 0 0 0 0 127 0" result="hardAlpha"/>
<feOffset dy="4"/>
<feGaussianBlur stdDeviation="2.4"/>
<feComposite in2="hardAlpha" operator="out"/>
<feColorMatrix type="matrix" values="0 0 0 0 0.790625 0 0 0 0 0.784036 0 0 0 0 0.784036 0 0 0 0.25 0"/>
<feBlend mode="normal" in2="BackgroundImageFix" result="effect1_dropShadow_1252_2230"/>
<feBlend mode="normal" in="SourceGraphic" in2="effect1_dropShadow_1252_2230" result="shape"/>
</filter>
<clipPath id="clip0_1252_2230">
<rect width="41" height="41" fill="white"/>
</clipPath>
<clipPath id="clip1_1252_2230">
<rect width="13.6667" height="12.5278" fill="white" transform="translate(25 26)"/>
</clipPath>
</defs>
</svg>
