<svg width="14" height="14" viewBox="0 0 14 14" fill="none" xmlns="http://www.w3.org/2000/svg">
<path d="M6.36694 5.13167L5.46843 5.9523C5.58721 6.36613 5.75311 6.7644 5.96277 7.139C6.18147 7.51086 6.44498 7.85342 6.7472 8.1587L7.91079 7.79373C8.56267 7.58913 9.2743 7.79926 9.7078 8.3246L10.3705 9.12753C10.6389 9.44986 10.7734 9.86587 10.7456 10.2874C10.7178 10.709 10.5299 11.103 10.2217 11.3859C9.14067 12.3901 7.47621 12.7297 6.23004 11.7332C5.13431 10.8559 4.20753 9.7797 3.49651 8.55906C2.78368 7.34443 2.30643 6.00184 2.09063 4.60412C1.85161 3.03143 2.98262 1.77284 4.39284 1.34373C5.23376 1.08714 6.13117 1.52732 6.43973 2.34795L6.80369 3.31567C7.04271 3.95271 6.87105 4.67159 6.36694 5.13167Z" fill="white"/>
<path d="M6.36694 5.13167L5.46843 5.9523C5.58721 6.36613 5.75311 6.7644 5.96277 7.139C6.18147 7.51086 6.44498 7.85342 6.7472 8.1587L7.91079 7.79373C8.56267 7.58913 9.2743 7.79926 9.7078 8.3246L10.3705 9.12753C10.6389 9.44986 10.7734 9.86587 10.7456 10.2874C10.7178 10.709 10.5299 11.103 10.2217 11.3859C9.14067 12.3901 7.47621 12.7297 6.23004 11.7332C5.13431 10.8559 4.20753 9.7797 3.49651 8.55906C2.78368 7.34443 2.30643 6.00184 2.09063 4.60412C1.85161 3.03143 2.98262 1.77284 4.39284 1.34373C5.23376 1.08714 6.13117 1.52732 6.43973 2.34795L6.80369 3.31567C7.04271 3.95271 6.87105 4.67159 6.36694 5.13167Z" fill="white"/>
</svg>
