<svg width="31" height="37" viewBox="0 0 31 37" fill="none" xmlns="http://www.w3.org/2000/svg">
<path d="M12.3004 4.2001C11.7567 4.2001 11.2353 4.41608 10.8508 4.80053C10.4664 5.18498 10.2504 5.7064 10.2504 6.2501V10.3501C10.2504 10.8938 10.4664 11.4152 10.8508 11.7997C11.2353 12.1841 11.7567 12.4001 12.3004 12.4001H24.6004C25.1441 12.4001 25.6655 12.1841 26.05 11.7997C26.4344 11.4152 26.6504 10.8938 26.6504 10.3501V6.2501C26.6504 5.7064 26.4344 5.18498 26.05 4.80053C25.6655 4.41608 25.1441 4.2001 24.6004 4.2001H12.3004ZM12.3004 6.2501H24.6004V10.3501H12.3004V6.2501ZM16.4004 16.5001C16.4004 15.9564 16.6164 15.435 17.0008 15.0505C17.3853 14.6661 17.9067 14.4501 18.4504 14.4501C18.9941 14.4501 19.5155 14.6661 19.9 15.0505C20.2844 15.435 20.5004 15.9564 20.5004 16.5001C20.5004 17.0438 20.2844 17.5652 19.9 17.9497C19.5155 18.3341 18.9941 18.5501 18.4504 18.5501C17.9067 18.5501 17.3853 18.3341 17.0008 17.9497C16.6164 17.5652 16.4004 17.0438 16.4004 16.5001ZM18.4504 20.0876C17.9067 20.0876 17.3853 20.3036 17.0008 20.688C16.6164 21.0725 16.4004 21.5939 16.4004 22.1376C16.4004 22.6813 16.6164 23.2027 17.0008 23.5872C17.3853 23.9716 17.9067 24.1876 18.4504 24.1876C18.9941 24.1876 19.5155 23.9716 19.9 23.5872C20.2844 23.2027 20.5004 22.6813 20.5004 22.1376C20.5004 21.5939 20.2844 21.0725 19.9 20.688C19.5155 20.3036 18.9941 20.0876 18.4504 20.0876ZM22.5504 16.5001C22.5504 15.9564 22.7664 15.435 23.1508 15.0505C23.5353 14.6661 24.0567 14.4501 24.6004 14.4501C25.1441 14.4501 25.6655 14.6661 26.05 15.0505C26.4344 15.435 26.6504 15.9564 26.6504 16.5001C26.6504 17.0438 26.4344 17.5652 26.05 17.9497C25.6655 18.3341 25.1441 18.5501 24.6004 18.5501C24.0567 18.5501 23.5353 18.3341 23.1508 17.9497C22.7664 17.5652 22.5504 17.0438 22.5504 16.5001ZM24.6004 20.0876C24.0567 20.0876 23.5353 20.3036 23.1508 20.688C22.7664 21.0725 22.5504 21.5939 22.5504 22.1376C22.5504 22.6813 22.7664 23.2027 23.1508 23.5872C23.5353 23.9716 24.0567 24.1876 24.6004 24.1876C25.1441 24.1876 25.6655 23.9716 26.05 23.5872C26.4344 23.2027 26.6504 22.6813 26.6504 22.1376C26.6504 21.5939 26.4344 21.0725 26.05 20.688C25.6655 20.3036 25.1441 20.0876 24.6004 20.0876ZM10.2504 16.5001C10.2504 15.9564 10.4664 15.435 10.8508 15.0505C11.2353 14.6661 11.7567 14.4501 12.3004 14.4501C12.8441 14.4501 13.3655 14.6661 13.75 15.0505C14.1344 15.435 14.3504 15.9564 14.3504 16.5001C14.3504 17.0438 14.1344 17.5652 13.75 17.9497C13.3655 18.3341 12.8441 18.5501 12.3004 18.5501C11.7567 18.5501 11.2353 18.3341 10.8508 17.9497C10.4664 17.5652 10.2504 17.0438 10.2504 16.5001ZM12.3004 20.0876C11.7567 20.0876 11.2353 20.3036 10.8508 20.688C10.4664 21.0725 10.2504 21.5939 10.2504 22.1376C10.2504 22.6813 10.4664 23.2027 10.8508 23.5872C11.2353 23.9716 11.7567 24.1876 12.3004 24.1876C12.8441 24.1876 13.3655 23.9716 13.75 23.5872C14.1344 23.2027 14.3504 22.6813 14.3504 22.1376C14.3504 21.5939 14.1344 21.0725 13.75 20.688C13.3655 20.3036 12.8441 20.0876 12.3004 20.0876ZM11.2754 0.100098C9.91616 0.100098 8.61259 0.640051 7.65147 1.60118C6.69034 2.5623 6.15039 3.86586 6.15039 5.2251V23.6751C6.15039 25.0343 6.69034 26.3379 7.65147 27.299C8.61259 28.2601 9.91616 28.8001 11.2754 28.8001H25.6254C26.9846 28.8001 28.2882 28.2601 29.2493 27.299C30.2104 26.3379 30.7504 25.0343 30.7504 23.6751V5.2251C30.7504 3.86586 30.2104 2.5623 29.2493 1.60118C28.2882 0.640051 26.9846 0.100098 25.6254 0.100098H11.2754ZM8.20039 5.2251C8.20039 4.40956 8.52436 3.62742 9.10104 3.05074C9.67771 2.47407 10.4598 2.1501 11.2754 2.1501H25.6254C26.4409 2.1501 27.2231 2.47407 27.7997 3.05074C28.3764 3.62742 28.7004 4.40956 28.7004 5.2251V23.6751C28.7004 24.4906 28.3764 25.2728 27.7997 25.8495C27.2231 26.4261 26.4409 26.7501 25.6254 26.7501H11.2754C10.4598 26.7501 9.67771 26.4261 9.10104 25.8495C8.52436 25.2728 8.20039 24.4906 8.20039 23.6751V5.2251Z" fill="white"/>
<g filter="url(#filter0_d_4126_12723)">
<circle cx="8.40278" cy="28.4028" r="7.40278" fill="#3793AE"/>
<circle cx="8.40278" cy="28.4028" r="6.90278" stroke="white"/>
</g>
<g clip-path="url(#clip0_4126_12723)">
<path d="M4.94434 28.3057L11.9443 28.3057" stroke="white" stroke-linecap="round"/>
<path d="M8.44434 24.8057L8.44434 31.8057" stroke="white" stroke-linecap="round"/>
</g>
<defs>
<filter id="filter0_d_4126_12723" x="-3.8" y="20.2" width="24.4057" height="24.4057" filterUnits="userSpaceOnUse" color-interpolation-filters="sRGB">
<feFlood flood-opacity="0" result="BackgroundImageFix"/>
<feColorMatrix in="SourceAlpha" type="matrix" values="0 0 0 0 0 0 0 0 0 0 0 0 0 0 0 0 0 0 127 0" result="hardAlpha"/>
<feOffset dy="4"/>
<feGaussianBlur stdDeviation="2.4"/>
<feComposite in2="hardAlpha" operator="out"/>
<feColorMatrix type="matrix" values="0 0 0 0 0.790625 0 0 0 0 0.784036 0 0 0 0 0.784036 0 0 0 0.25 0"/>
<feBlend mode="normal" in2="BackgroundImageFix" result="effect1_dropShadow_4126_12723"/>
<feBlend mode="normal" in="SourceGraphic" in2="effect1_dropShadow_4126_12723" result="shape"/>
</filter>
<clipPath id="clip0_4126_12723">
<rect width="13.6667" height="12.5278" fill="white" transform="translate(1 22)"/>
</clipPath>
</defs>
</svg>
