<svg width="29" height="29" viewBox="0 0 29 29" fill="none" xmlns="http://www.w3.org/2000/svg">
<path d="M21.2727 19.8408V8.91748L17.1946 14.0891L16.7596 14.5966L15.4485 16.2702H22.6563M6.34375 12.5606C6.34375 11.5992 6.72567 10.6772 7.40549 9.99734C8.08531 9.31752 9.00734 8.93561 9.96875 8.93561C10.9302 8.93561 11.8522 9.31752 12.532 9.99734C13.2118 10.6772 13.5938 11.5992 13.5938 12.5606C13.6166 13.0364 13.5336 13.5113 13.3508 13.9511C13.168 14.391 12.8898 14.7848 12.5365 15.1041C11.0744 16.4091 6.34375 19.8348 6.34375 19.8348H13.5515" stroke="black" stroke-linecap="round" stroke-linejoin="round"/>
<path d="M21.2727 19.8408V8.91748L17.1946 14.0891L16.7596 14.5966L15.4485 16.2702H22.6563M6.34375 12.5606C6.34375 11.5992 6.72567 10.6772 7.40549 9.99734C8.08531 9.31752 9.00734 8.93561 9.96875 8.93561C10.9302 8.93561 11.8522 9.31752 12.532 9.99734C13.2118 10.6772 13.5938 11.5992 13.5938 12.5606C13.6166 13.0364 13.5336 13.5113 13.3508 13.9511C13.168 14.391 12.8898 14.7848 12.5365 15.1041C11.0744 16.4091 6.34375 19.8348 6.34375 19.8348H13.5515" stroke="url(#paint0_linear_1614_2498)" stroke-linecap="round" stroke-linejoin="round"/>
<path d="M14.5013 27.4894C21.6752 27.4894 27.4909 21.6738 27.4909 14.4998C27.4909 7.32589 21.6752 1.51025 14.5013 1.51025C7.32735 1.51025 1.51172 7.32589 1.51172 14.4998C1.51172 21.6738 7.32735 27.4894 14.5013 27.4894Z" stroke="black" stroke-linecap="round" stroke-linejoin="round"/>
<path d="M14.5013 27.4894C21.6752 27.4894 27.4909 21.6738 27.4909 14.4998C27.4909 7.32589 21.6752 1.51025 14.5013 1.51025C7.32735 1.51025 1.51172 7.32589 1.51172 14.4998C1.51172 21.6738 7.32735 27.4894 14.5013 27.4894Z" stroke="url(#paint1_linear_1614_2498)" stroke-linecap="round" stroke-linejoin="round"/>
<defs>
<linearGradient id="paint0_linear_1614_2498" x1="6.45836" y1="14.3791" x2="22.6563" y2="14.3791" gradientUnits="userSpaceOnUse">
<stop stop-color="#3793AE"/>
<stop offset="1" stop-color="#074287"/>
</linearGradient>
<linearGradient id="paint1_linear_1614_2498" x1="1.69424" y1="14.4998" x2="27.4909" y2="14.4998" gradientUnits="userSpaceOnUse">
<stop stop-color="#3793AE"/>
<stop offset="1" stop-color="#074287"/>
</linearGradient>
</defs>
</svg>
