<svg width="24" height="24" viewBox="0 0 24 24" fill="none" xmlns="http://www.w3.org/2000/svg">
<g clip-path="url(#clip0_1601_2903)">
<path d="M7.92566 8.98089L1.47416 2.56904L1.49516 6.20354C1.50193 6.50654 1.26156 6.77017 0.958157 6.76342L0.573408 6.76304C0.270033 6.75592 0.0191555 6.57554 0.0127811 6.27254L-0.00296783 0.858293C-0.00296783 0.853066 0.0176582 0.848941 0.0176582 0.843691L-0.0119705 0.569191C-0.0149689 0.416941 0.0206337 0.281191 0.118908 0.18409C0.216009 0.0862148 0.352135 0.0265898 0.503284 0.0307148L0.777409 0.0370898C0.782635 0.0370898 0.78676 0.0389648 0.792408 0.0397383L6.17099 0.0161133C6.47399 0.0228633 6.72486 0.273363 6.73161 0.576738L6.73236 0.961512C6.68626 1.31889 6.40536 1.52776 6.10236 1.52101L2.55749 1.53039L8.98614 7.92001C9.27901 8.21289 9.27901 8.68764 8.98614 8.98089C8.69326 9.27339 8.21851 9.27339 7.92566 8.98089ZM16.0542 15.019L22.5056 21.4109L22.485 17.7963C22.4779 17.4929 22.7187 17.2293 23.0217 17.236L23.43 17.2368C23.7338 17.2443 23.9843 17.4243 23.9907 17.7277L24.0064 23.1419C24.0064 23.1472 23.9858 23.1505 23.9858 23.1565L24.0154 23.4303C24.0188 23.5825 23.9832 23.719 23.8845 23.8154C23.7878 23.9137 23.6513 23.9729 23.5005 23.9692L23.226 23.9624C23.2208 23.9624 23.2171 23.9602 23.211 23.9602L17.8088 23.9838C17.5058 23.9763 17.2553 23.7258 17.2482 23.4228L17.2474 23.0377C17.2935 22.681 17.5744 22.4714 17.8774 22.4782L21.4223 22.4688L14.994 16.0799C14.7012 15.787 14.7012 15.3123 14.994 15.0194C15.2869 14.7265 15.7613 14.7262 16.0542 15.019H16.0542ZM-0.00338936 23.1415L0.0123596 17.7272C0.0191097 17.4239 0.269987 17.2439 0.572987 17.2364L0.957735 17.2356C1.26111 17.2288 1.50111 17.4928 1.49474 17.7958L1.47374 21.4303L7.92561 15.019C8.21849 14.7261 8.69324 14.7261 8.98611 15.019C9.27899 15.3118 9.27899 15.7866 8.98611 16.0795L2.55786 22.4683L6.10236 22.4777C6.40536 22.471 6.68624 22.6806 6.73236 23.0372L6.73161 23.4223C6.72449 23.7257 6.47361 23.9762 6.17099 23.9833L0.791986 23.9597C0.786362 23.9597 0.782236 23.962 0.776985 23.962L0.502861 23.9687C0.351736 23.9725 0.215237 23.9132 0.118486 23.815C0.0202122 23.7182 -0.0150146 23.5821 -0.0123901 23.4298L0.0172119 23.1561C0.0172119 23.1501 -0.00341415 23.1467 -0.00341415 23.1415L-0.00338936 23.1415ZM21.4223 1.53097L17.877 1.52167C17.574 1.52842 17.2931 1.31917 17.247 0.962144L17.2478 0.577043C17.2553 0.273691 17.5058 0.022793 17.8084 0.016418L23.211 0.039668C23.217 0.038918 23.2208 0.037043 23.226 0.037043L23.5005 0.0306445C23.6513 0.026543 23.7881 0.086168 23.8845 0.18402C23.9832 0.281144 24.0188 0.416895 24.0154 0.569144L23.9858 0.843644C23.9858 0.848871 24.0064 0.852644 24.0064 0.858269L23.9907 6.27252C23.9839 6.57552 23.7334 6.75589 23.43 6.76302L23.0216 6.76337C22.7186 6.77012 22.4783 6.5065 22.485 6.2035L22.5057 2.58887L16.0542 8.98075C15.7617 9.27364 15.2865 9.27364 14.9936 8.98075C14.7007 8.68785 14.7007 8.21275 14.9936 7.91987L21.4223 1.53097Z" fill="url(#paint0_linear_1601_2903)"/>
</g>
<defs>
<linearGradient id="paint0_linear_1601_2903" x1="23.8468" y1="11.9999" x2="-0.0125246" y2="11.9999" gradientUnits="userSpaceOnUse">
<stop stop-color="#3793AE"/>
<stop offset="1" stop-color="#074287"/>
</linearGradient>
<clipPath id="clip0_1601_2903">
<rect width="24" height="24" fill="white" transform="matrix(-1 0 0 1 24 0)"/>
</clipPath>
</defs>
</svg>
