<svg width="42" height="42" viewBox="0 0 42 42" fill="none" xmlns="http://www.w3.org/2000/svg">
<path d="M13.1324 21.6126C13.6749 20.5276 14.2658 19.4823 14.9051 18.4766C15.5456 17.4709 16.2515 16.488 17.0226 15.5279L14.3364 14.9801C14.1567 14.9346 13.9829 14.9404 13.8149 14.9976C13.6469 15.0548 13.4952 15.1499 13.3599 15.2829L9.11438 19.5301C9.04671 19.5966 9.02396 19.6748 9.04613 19.7646C9.06829 19.8544 9.12429 19.9221 9.21412 19.9676L13.1324 21.6126ZM33.1769 8.53836C30.4842 8.73086 28.113 9.32295 26.0631 10.3146C24.0133 11.3063 22.0854 12.7051 20.2794 14.5111C18.989 15.8038 17.8626 17.1501 16.9001 18.5501C15.9376 19.9501 15.1443 21.3414 14.5201 22.7239L19.4744 27.6676C20.8569 27.0434 22.2534 26.2501 23.6639 25.2876C25.0744 24.3251 26.4265 23.1975 27.7204 21.9049C29.5264 20.0989 30.9252 18.1785 31.9169 16.1439C32.9085 14.1092 33.5006 11.7455 33.6931 9.05286C33.6931 8.9817 33.6879 8.91578 33.6774 8.85511C33.6669 8.79445 33.6295 8.73145 33.5654 8.66611C33.5012 8.60078 33.4382 8.56345 33.3764 8.55411C33.3145 8.54478 33.2486 8.53895 33.1786 8.53661M23.8231 18.3996C23.3098 17.8851 23.0531 17.2685 23.0531 16.5499C23.0531 15.8312 23.3098 15.2146 23.8231 14.7001C24.3365 14.1856 24.9548 13.9289 25.6781 13.9301C26.4015 13.9313 27.0192 14.1879 27.5314 14.7001C28.0435 15.2123 28.3002 15.8289 28.3014 16.5499C28.3025 17.2709 28.0459 17.8869 27.5314 18.3979C27.0169 18.9089 26.3985 19.1655 25.6764 19.1679C24.9542 19.1702 24.3359 18.9135 23.8214 18.3979M20.5839 29.0869L22.2306 33.0156C22.2761 33.1043 22.3432 33.1544 22.4319 33.1661C22.5205 33.1778 22.5993 33.1498 22.6681 33.0821L26.9154 28.8681C27.0495 28.7339 27.1446 28.5823 27.2006 28.4131C27.2578 28.2451 27.2636 28.0719 27.2181 27.8934L26.6704 25.2071C25.7102 25.9794 24.7273 26.6835 23.7216 27.3194C22.716 27.9552 21.6689 28.5444 20.5839 29.0869ZM35.3679 8.28286C35.3539 11.1995 34.8009 13.8899 33.7089 16.3539C32.6169 18.8179 30.9876 21.1325 28.8211 23.2979C28.7091 23.4099 28.6024 23.5108 28.5009 23.6006C28.3994 23.6904 28.2932 23.7914 28.1824 23.9034L28.9226 27.5294C29.016 28.0007 28.9926 28.4574 28.8526 28.8996C28.7115 29.3406 28.47 29.7314 28.1281 30.0721L23.2544 34.9459C22.9067 35.2935 22.4826 35.4219 21.9821 35.3309C21.4828 35.241 21.1386 34.9604 20.9496 34.4891L18.8531 29.5454L12.6511 23.3084L7.70737 21.2119C7.23604 21.024 6.95896 20.6799 6.87612 20.1794C6.79329 19.6789 6.92571 19.2548 7.27338 18.9071L12.1454 14.0334C12.486 13.6927 12.8792 13.4576 13.3249 13.3281C13.7694 13.1974 14.2273 13.1794 14.6986 13.2739L18.3229 14.0141C18.4349 13.9021 18.5305 13.8012 18.6099 13.7114C18.688 13.6215 18.7831 13.5206 18.8951 13.4086C21.0605 11.2433 23.3751 9.60878 25.8391 8.50511C28.3031 7.40145 30.994 6.84261 33.9119 6.82861C34.0997 6.83561 34.2823 6.87295 34.4596 6.94061C34.637 7.00828 34.802 7.11911 34.9549 7.27311C35.1077 7.42711 35.2127 7.58636 35.2699 7.75086C35.327 7.91536 35.3585 8.0927 35.3644 8.28286M8.95513 28.2924C9.63996 27.6087 10.4718 27.2704 11.4506 27.2774C12.4295 27.2844 13.2613 27.6309 13.9461 28.3169C14.631 29.0029 14.9716 29.8347 14.9681 30.8124C14.9646 31.7924 14.6205 32.6242 13.9356 33.3079C12.9626 34.2809 11.8181 34.8934 10.5021 35.1454C9.18612 35.3962 7.85729 35.5858 6.51562 35.7141C6.64396 34.3491 6.83938 33.0144 7.10188 31.7101C7.36438 30.4058 7.98096 29.2665 8.95513 28.2924ZM10.2046 29.5646C9.68546 30.0838 9.32554 30.6934 9.12488 31.3934C8.92421 32.0934 8.77662 32.819 8.68212 33.5704C9.43462 33.4759 10.1609 33.3242 10.8609 33.1154C11.5609 32.9065 12.1699 32.5431 12.6879 32.0251C13.0379 31.6751 13.2164 31.258 13.2234 30.7739C13.2292 30.2885 13.0571 29.8709 12.7071 29.5209C12.3571 29.1709 11.94 29.0034 11.4559 29.0186C10.9717 29.0326 10.5546 29.2146 10.2046 29.5646Z" fill="url(#paint0_linear_1601_2923)"/>
<defs>
<linearGradient id="paint0_linear_1601_2923" x1="6.71833" y1="21.2714" x2="35.3679" y2="21.2714" gradientUnits="userSpaceOnUse">
<stop stop-color="#3793AE"/>
<stop offset="1" stop-color="#074287"/>
</linearGradient>
</defs>
</svg>
