<svg width="18" height="16" viewBox="0 0 18 16" fill="none" xmlns="http://www.w3.org/2000/svg">
<path d="M2.45455 2.94737C2.45455 2.38902 2.67005 1.85354 3.05365 1.45872C3.43724 1.06391 3.95751 0.842105 4.5 0.842105V0C3.74052 0 3.01214 0.310525 2.4751 0.863264C1.93807 1.416 1.63636 2.16568 1.63636 2.94737H2.45455ZM2.45455 7.57895V2.94737H1.63636V7.57895H2.45455ZM0.818184 11.3684C0.818184 10.2653 1.27637 9.27158 2.00864 8.57853L1.45473 7.95874C0.99569 8.39211 0.629296 8.91905 0.37885 9.50606C0.128404 10.0931 -0.000613541 10.7273 2.19358e-06 11.3684H0.818184ZM4.5 15.1579C3.52352 15.1579 2.58704 14.7586 1.89656 14.048C1.20609 13.3373 0.818184 12.3735 0.818184 11.3684H2.19358e-06C2.19358e-06 12.5968 0.474107 13.7749 1.31802 14.6434C2.16193 15.512 3.30653 16 4.5 16V15.1579ZM8.18182 11.3684C8.18182 12.3735 7.79391 13.3373 7.10344 14.048C6.41296 14.7586 5.47648 15.1579 4.5 15.1579V16C5.69347 16 6.83807 15.512 7.68198 14.6434C8.52589 13.7749 9 12.5968 9 11.3684H8.18182ZM6.99136 8.57853C7.36709 8.93302 7.66698 9.36416 7.87194 9.84449C8.0769 10.3248 8.18243 10.8438 8.18182 11.3684H9C9.00061 10.7273 8.8716 10.0931 8.62115 9.50606C8.3707 8.91905 8.00431 8.39211 7.54527 7.95874L6.99136 8.57853ZM6.54545 2.94737V7.57895H7.36364V2.94737H6.54545ZM4.5 0.842105C5.04249 0.842105 5.56276 1.06391 5.94635 1.45872C6.32995 1.85354 6.54545 2.38902 6.54545 2.94737H7.36364C7.36364 2.16568 7.06193 1.416 6.5249 0.863264C5.98786 0.310525 5.25948 0 4.5 0V0.842105ZM7.54527 7.95874C7.49135 7.91178 7.4474 7.85391 7.41615 7.78871C7.3849 7.72352 7.36702 7.6524 7.36364 7.57979H6.54545C6.54545 7.98316 6.73445 8.33516 6.99136 8.57853L7.54527 7.95874ZM1.63636 7.57979C1.63283 7.65237 1.61489 7.72344 1.58365 7.78861C1.55241 7.85379 1.50854 7.91168 1.45473 7.95874L2.00864 8.57853C2.26555 8.33516 2.45455 7.98316 2.45455 7.57895L1.63636 7.57979Z" fill="url(#paint0_linear_133_1717)"/>
<path d="M4.49956 13.4737C5.62923 13.4737 6.54501 12.5312 6.54501 11.3684C6.54501 10.2057 5.62923 9.26318 4.49956 9.26318C3.36988 9.26318 2.4541 10.2057 2.4541 11.3684C2.4541 12.5312 3.36988 13.4737 4.49956 13.4737Z" stroke="url(#paint1_linear_133_1717)"/>
<path d="M12.9997 11.5416C12.1913 11.5416 11.5031 11.263 10.9351 10.7057C10.367 10.1485 10.083 9.47018 10.083 8.67074C10.083 8.28935 10.1601 7.92435 10.3143 7.57574C10.4684 7.22712 10.675 6.91601 10.9338 6.6424L12.9997 4.61865L15.0655 6.6424C15.3244 6.91601 15.5309 7.22712 15.6851 7.57574C15.8393 7.92435 15.9163 8.29004 15.9163 8.67282C15.9163 9.47337 15.6323 10.1517 15.0643 10.7078C14.4962 11.2639 13.808 11.5418 12.9997 11.5416Z" fill="url(#paint2_linear_133_1717)"/>
<defs>
<linearGradient id="paint0_linear_133_1717" x1="0.0632318" y1="8" x2="9" y2="8" gradientUnits="userSpaceOnUse">
<stop stop-color="#3793AE"/>
<stop offset="1" stop-color="#074287"/>
</linearGradient>
<linearGradient id="paint1_linear_133_1717" x1="2.48284" y1="11.3684" x2="6.54501" y2="11.3684" gradientUnits="userSpaceOnUse">
<stop stop-color="#3793AE"/>
<stop offset="1" stop-color="#074287"/>
</linearGradient>
<linearGradient id="paint2_linear_133_1717" x1="10.124" y1="8.08011" x2="15.9163" y2="8.08011" gradientUnits="userSpaceOnUse">
<stop stop-color="#3793AE"/>
<stop offset="1" stop-color="#074287"/>
</linearGradient>
</defs>
</svg>
