<svg width="17" height="17" viewBox="0 0 17 17" fill="none" xmlns="http://www.w3.org/2000/svg">
<path d="M8.7207 0.055542C4.3047 0.055542 0.720703 3.63954 0.720703 8.05554C0.720703 12.4715 4.3047 16.0555 8.7207 16.0555C13.1367 16.0555 16.7207 12.4715 16.7207 8.05554C16.7207 3.63954 13.1367 0.055542 8.7207 0.055542ZM9.5207 13.6555H7.9207V12.0555H9.5207V13.6555ZM11.1767 7.45554L10.4567 8.19154C9.8807 8.77554 9.5207 9.25554 9.5207 10.4555H7.9207V10.0555C7.9207 9.17554 8.2807 8.37554 8.8567 7.79154L9.8487 6.78354C10.1447 6.49554 10.3207 6.09554 10.3207 5.65554C10.3207 4.77554 9.6007 4.05554 8.7207 4.05554C7.8407 4.05554 7.1207 4.77554 7.1207 5.65554H5.5207C5.5207 3.88754 6.9527 2.45554 8.7207 2.45554C10.4887 2.45554 11.9207 3.88754 11.9207 5.65554C11.9207 6.35954 11.6327 6.99954 11.1767 7.45554Z" fill="#868686"/>
</svg>
