<svg width="26" height="26" viewBox="0 0 26 26" fill="none" xmlns="http://www.w3.org/2000/svg">
<path d="M6.29678 11.9234C5.90628 12.3139 5.90628 12.9495 6.29678 13.3438C6.68729 13.7343 7.32282 13.7343 7.71715 13.3438C10.4201 10.6409 14.819 10.6409 17.5219 13.3438C17.7171 13.539 17.9736 13.6386 18.2301 13.6386C18.4867 13.6386 18.7432 13.539 18.9384 13.3438C19.3289 12.9533 19.3289 12.3178 18.9384 11.9234C15.4545 8.43568 9.7807 8.43568 6.29678 11.9234Z" fill="url(#paint0_linear_1211_2456)"/>
<path d="M9.00772 14.6342C8.61722 15.0247 8.61722 15.6603 9.00772 16.0546C9.39823 16.4451 10.0338 16.4451 10.4281 16.0546C11.6341 14.8448 13.6019 14.8448 14.8079 16.0546C15.0031 16.2498 15.2596 16.3494 15.5161 16.3494C15.7726 16.3494 16.0291 16.2498 16.2244 16.0546C16.6149 15.6641 16.6149 15.0286 16.2244 14.6381C14.2374 12.6434 10.9985 12.6434 9.00772 14.6342Z" fill="url(#paint1_linear_1211_2456)"/>
<path d="M12.6174 19.5766C13.3553 19.5766 13.9535 18.9784 13.9535 18.2404C13.9535 17.5025 13.3553 16.9043 12.6174 16.9043C11.8795 16.9043 11.2812 17.5025 11.2812 18.2404C11.2812 18.9784 11.8795 19.5766 12.6174 19.5766Z" fill="url(#paint2_linear_1211_2456)"/>
<path d="M21.6899 9.16699C16.686 4.16699 8.5467 4.16699 3.54288 9.16699C3.15237 9.55749 3.15237 10.193 3.54288 10.5873C3.93338 10.9779 4.56891 10.9779 4.96324 10.5873C9.18222 6.36454 16.0505 6.36454 20.2733 10.5873C20.4686 10.7826 20.7251 10.8821 20.9816 10.8821C21.2381 10.8821 21.4946 10.7826 21.6899 10.5873C22.0804 10.1968 22.0804 9.56132 21.6899 9.16699Z" fill="url(#paint3_linear_1211_2456)"/>
<defs>
<linearGradient id="paint0_linear_1211_2456" x1="6.09684" y1="11.4731" x2="19.2313" y2="11.4731" gradientUnits="userSpaceOnUse">
<stop stop-color="#3793AE"/>
<stop offset="1" stop-color="#074287"/>
</linearGradient>
<linearGradient id="paint1_linear_1211_2456" x1="8.76966" y1="14.7455" x2="16.5173" y2="14.7455" gradientUnits="userSpaceOnUse">
<stop stop-color="#3793AE"/>
<stop offset="1" stop-color="#074287"/>
</linearGradient>
<linearGradient id="paint2_linear_1211_2456" x1="11.3" y1="18.2404" x2="13.9535" y2="18.2404" gradientUnits="userSpaceOnUse">
<stop stop-color="#3793AE"/>
<stop offset="1" stop-color="#074287"/>
</linearGradient>
<linearGradient id="paint3_linear_1211_2456" x1="3.38161" y1="8.14957" x2="21.9827" y2="8.14957" gradientUnits="userSpaceOnUse">
<stop stop-color="#3793AE"/>
<stop offset="1" stop-color="#074287"/>
</linearGradient>
</defs>
</svg>
