<svg width="115" height="42" viewBox="0 0 115 42" fill="none" xmlns="http://www.w3.org/2000/svg">
<path d="M32.4986 21C32.4986 13.0277 26.5761 6.5625 19.2591 6.5625C11.942 6.5625 6.01953 13.0277 6.01953 21C6.01953 28.9723 11.942 35.4375 19.2591 35.4375C26.5761 35.4157 32.4986 28.9723 32.4986 21Z" fill="url(#paint0_linear_1601_2766)"/>
<path d="M32.4986 21C32.4986 13.0277 26.5761 6.5625 19.2591 6.5625C11.942 6.5625 6.01953 13.0277 6.01953 21C6.01953 28.9723 11.942 35.4375 19.2591 35.4375C26.5761 35.4157 32.4986 28.9723 32.4986 21Z" fill="white" fill-opacity="0.86"/>
<path d="M20.4608 5.25C20.4608 8.13954 18.3148 10.5 15.6464 10.5C12.9966 10.5 10.832 8.15989 10.832 5.25C10.832 2.36047 12.978 0 15.6464 0C18.2962 0 20.4608 2.36047 20.4608 5.25Z" fill="url(#paint1_linear_1601_2766)"/>
<path d="M20.4608 5.25C20.4608 8.13954 18.3148 10.5 15.6464 10.5C12.9966 10.5 10.832 8.15989 10.832 5.25C10.832 2.36047 12.978 0 15.6464 0C18.2962 0 20.4608 2.36047 20.4608 5.25Z" fill="white" fill-opacity="0.84"/>
<path d="M33.6991 9.84375C33.6991 13.0945 31.5531 15.75 28.8847 15.75C26.2349 15.75 24.0703 13.1174 24.0703 9.84375C24.0703 6.59302 26.2163 3.9375 28.8847 3.9375C31.5531 3.9375 33.6991 6.59302 33.6991 9.84375Z" fill="url(#paint2_linear_1601_2766)"/>
<path d="M33.6991 9.84375C33.6991 13.0945 31.5531 15.75 28.8847 15.75C26.2349 15.75 24.0703 13.1174 24.0703 9.84375C24.0703 6.59302 26.2163 3.9375 28.8847 3.9375C31.5531 3.9375 33.6991 6.59302 33.6991 9.84375Z" fill="white" fill-opacity="0.84"/>
<path d="M38.5155 24.9375C38.5155 27.827 36.3695 30.1875 33.7011 30.1875C31.0513 30.1875 28.8867 27.8474 28.8867 24.9375C28.8867 22.048 31.0327 19.6875 33.7011 19.6875C36.3695 19.7078 38.5155 22.048 38.5155 24.9375Z" fill="url(#paint3_linear_1601_2766)"/>
<path d="M38.5155 24.9375C38.5155 27.827 36.3695 30.1875 33.7011 30.1875C31.0513 30.1875 28.8867 27.8474 28.8867 24.9375C28.8867 22.048 31.0327 19.6875 33.7011 19.6875C36.3695 19.7078 38.5155 22.048 38.5155 24.9375Z" fill="white" fill-opacity="0.84"/>
<path d="M28.887 36.0937C28.887 39.3445 26.4728 42 23.4709 42C20.4899 42 18.0547 39.3674 18.0547 36.0937C18.0547 32.843 20.4689 30.1875 23.4709 30.1875C26.4518 30.1875 28.887 32.8201 28.887 36.0937Z" fill="url(#paint4_linear_1601_2766)"/>
<path d="M28.887 36.0937C28.887 39.3445 26.4728 42 23.4709 42C20.4899 42 18.0547 39.3674 18.0547 36.0937C18.0547 32.843 20.4689 30.1875 23.4709 30.1875C26.4518 30.1875 28.887 32.8201 28.887 36.0937Z" fill="white" fill-opacity="0.84"/>
<path d="M14.4412 32.1562C14.4412 35.407 12.2953 38.0625 9.62687 38.0625C6.9771 38.0625 4.8125 35.4299 4.8125 32.1562C4.8125 28.9055 6.95844 26.25 9.62687 26.25C12.2766 26.25 14.4412 28.9055 14.4412 32.1562Z" fill="url(#paint5_linear_1601_2766)"/>
<path d="M14.4412 32.1562C14.4412 35.407 12.2953 38.0625 9.62687 38.0625C6.9771 38.0625 4.8125 35.4299 4.8125 32.1562C4.8125 28.9055 6.95844 26.25 9.62687 26.25C12.2766 26.25 14.4412 28.9055 14.4412 32.1562Z" fill="white" fill-opacity="0.84"/>
<path d="M9.62874 16.4063C9.62874 19.657 7.4828 22.3125 4.81437 22.3125C2.1646 22.3125 0 19.6799 0 16.4063C0 13.1555 2.14594 10.5 4.81437 10.5C7.46414 10.5 9.62874 13.1555 9.62874 16.4063Z" fill="url(#paint6_linear_1601_2766)"/>
<path d="M9.62874 16.4063C9.62874 19.657 7.4828 22.3125 4.81437 22.3125C2.1646 22.3125 0 19.6799 0 16.4063C0 13.1555 2.14594 10.5 4.81437 10.5C7.46414 10.5 9.62874 13.1555 9.62874 16.4063Z" fill="white" fill-opacity="0.84"/>
<path d="M20.4594 17.5L20.0832 16.0562L19.2914 17.7188L16.4606 6.9125L17.8859 7.83125L17.5296 6.45312L15.55 5.25L14.4414 7.4375L14.8175 8.81562L15.5698 7.19687L18.4204 18.0031L16.9555 17.0625L17.3316 18.5063L19.331 19.6875L20.4594 17.5Z" fill="#3793AE" fill-opacity="0.65"/>
<path d="M22.5394 21L23.3559 20.0171L21.8713 19.8733L28.1067 12.4178V14.2877L28.8861 13.3527L28.849 10.7397L26.8448 10.5L26.0653 11.4589L27.5128 11.5788L21.2775 19.0582L21.296 17.1164L20.4609 18.1233L20.5166 20.7363L22.5394 21Z" fill="#3793AE" fill-opacity="0.65"/>
<path d="M11.7535 31.5L12.5777 30.5953L11.0758 30.5551L17.2482 23.8806L17.2665 25.4889L18.0541 24.6446L17.9991 22.413L15.9661 22.3125L15.1968 23.1569L16.6438 23.1971L10.4714 29.8917L10.4531 28.2432L9.62891 29.1277L9.72048 31.3593L11.7535 31.5Z" fill="#3793AE" fill-opacity="0.65"/>
<path d="M17.0866 18.9673L15.8942 18.5412L16.6581 20.1179L7.6591 16.9645L9.0192 16.1548L7.88268 15.75L6.01953 16.9006L7.007 19.0526L8.14352 19.4574L7.41689 17.9233L16.3973 21.0767L14.9999 21.8864L16.1923 22.3125L18.0555 21.1406L17.0866 18.9673Z" fill="#3793AE" fill-opacity="0.67"/>
<path d="M24.0727 33.3091L23.6793 32.0011L22.932 33.5973L20.041 23.7979L21.457 24.5296L21.0833 23.288L19.097 22.3125L18.0547 24.4187L18.4284 25.6603L19.156 24.1305L22.0667 33.9299L20.6113 33.1539L21.0047 34.462L22.991 35.4375L24.0727 33.3091Z" fill="#3793AE" fill-opacity="0.65"/>
<path d="M31.5541 22.6622L30.3505 22.2535L31.0927 23.9111L22.1058 20.9591L23.4699 20.0508L22.3466 19.6875L20.4609 20.9818L21.4439 23.2072L22.5672 23.5932L21.8451 21.981L30.8319 24.9103L29.4277 25.8413L30.6313 26.25L32.4969 24.9103L31.5541 22.6622Z" fill="#3793AE" fill-opacity="0.65"/>
<path d="M20.4609 28.875L23.1868 13.125H29.4063L32.2089 22.5928L38.2941 13.125H44.5328L41.7686 28.875H37.9293L39.8106 17.7364L32.6888 28.875H29.675L26.2773 17.7587L24.3961 28.875H20.4609Z" fill="url(#paint7_linear_1601_2766)"/>
<path d="M20.4609 28.875L23.1868 13.125H29.4063L32.2089 22.5928L38.2941 13.125H44.5328L41.7686 28.875H37.9293L39.8106 17.7364L32.6888 28.875H29.675L26.2773 17.7587L24.3961 28.875H20.4609Z" fill="white" fill-opacity="0.48"/>
<path d="M56.9393 17.9782C56.3953 17.3372 54.4914 17.0625 52.2766 17.0625C48.8185 17.0625 47.1089 17.7264 46.0792 18.9397C45.0495 20.153 44.5444 24.7315 44.5444 25.2351C44.5444 25.7158 44.389 27.0207 45.1467 27.9135C45.9043 28.8063 47.7306 28.875 50.5476 28.875C53.3646 28.875 54.9188 28.3027 55.9679 27.4557C57.017 26.6315 57.6387 22.2591 57.7552 20.9084C57.8524 19.5349 57.4833 18.5963 56.9393 17.9782ZM54.1805 23.0832C53.8891 24.2965 53.7726 24.8001 53.4229 25.0977C53.0732 25.3953 51.2858 25.6014 50.8973 25.6014C50.5087 25.6014 48.6048 25.5556 48.2162 25.0977C47.8277 24.6399 48.4105 21.2289 48.9739 20.8626C49.5373 20.4964 50.703 20.3819 51.5384 20.4048C52.8206 20.4277 53.792 20.4735 54.064 20.794C54.336 21.1603 54.472 21.8699 54.1805 23.0832Z" fill="url(#paint8_linear_1601_2766)"/>
<path d="M56.9393 17.9782C56.3953 17.3372 54.4914 17.0625 52.2766 17.0625C48.8185 17.0625 47.1089 17.7264 46.0792 18.9397C45.0495 20.153 44.5444 24.7315 44.5444 25.2351C44.5444 25.7158 44.389 27.0207 45.1467 27.9135C45.9043 28.8063 47.7306 28.875 50.5476 28.875C53.3646 28.875 54.9188 28.3027 55.9679 27.4557C57.017 26.6315 57.6387 22.2591 57.7552 20.9084C57.8524 19.5349 57.4833 18.5963 56.9393 17.9782ZM54.1805 23.0832C53.8891 24.2965 53.7726 24.8001 53.4229 25.0977C53.0732 25.3953 51.2858 25.6014 50.8973 25.6014C50.5087 25.6014 48.6048 25.5556 48.2162 25.0977C47.8277 24.6399 48.4105 21.2289 48.9739 20.8626C49.5373 20.4964 50.703 20.3819 51.5384 20.4048C52.8206 20.4277 53.792 20.4735 54.064 20.794C54.336 21.1603 54.472 21.8699 54.1805 23.0832Z" fill="white" fill-opacity="0.48"/>
<path d="M70.0131 13.125L68.9605 19.3062C68.4629 17.9424 67.5251 17.5244 65.5156 17.5244C62.109 17.5244 61.5158 18.1624 60.5014 19.3282C59.4871 20.4941 58.9895 24.8935 58.9895 25.3774C58.9895 25.8394 58.8364 27.0932 59.5828 27.9511C60.3292 28.809 60.9225 28.875 63.621 28.875C66.2237 28.875 67.1615 27.8631 67.6208 27.1812L67.372 28.677H70.7786L73.4197 13.125H70.0131ZM67.5251 25.2675C67.1806 25.5534 65.4199 25.7514 65.018 25.7514C64.6161 25.7514 62.7597 25.7074 62.377 25.2675C61.9942 24.8275 62.5684 21.5499 63.1234 21.198C63.6784 20.846 64.8267 20.736 65.6496 20.758C66.9127 20.78 67.8696 20.824 68.1567 21.132C68.3289 21.33 68.4438 21.7039 68.4246 22.2538L68.195 23.5517C67.9653 24.5636 67.8505 25.0035 67.5251 25.2675Z" fill="url(#paint9_linear_1601_2766)"/>
<path d="M70.0131 13.125L68.9605 19.3062C68.4629 17.9424 67.5251 17.5244 65.5156 17.5244C62.109 17.5244 61.5158 18.1624 60.5014 19.3282C59.4871 20.4941 58.9895 24.8935 58.9895 25.3774C58.9895 25.8394 58.8364 27.0932 59.5828 27.9511C60.3292 28.809 60.9225 28.875 63.621 28.875C66.2237 28.875 67.1615 27.8631 67.6208 27.1812L67.372 28.677H70.7786L73.4197 13.125H70.0131ZM67.5251 25.2675C67.1806 25.5534 65.4199 25.7514 65.018 25.7514C64.6161 25.7514 62.7597 25.7074 62.377 25.2675C61.9942 24.8275 62.5684 21.5499 63.1234 21.198C63.6784 20.846 64.8267 20.736 65.6496 20.758C66.9127 20.78 67.8696 20.824 68.1567 21.132C68.3289 21.33 68.4438 21.7039 68.4246 22.2538L68.195 23.5517C67.9653 24.5636 67.8505 25.0035 67.5251 25.2675Z" fill="white" fill-opacity="0.48"/>
<path d="M85.8912 18.1694C85.4835 17.7509 84.4456 17.5086 82.481 17.5086C80.016 17.5086 78.9966 18.1033 78.2182 19.3589L79.2376 13.125H76.0127L73.418 28.6768H76.6985L76.9579 27.0907C77.3471 28.1701 77.9402 28.875 80.6647 28.875C83.3521 28.875 84.0749 28.7208 84.9275 27.6855C85.8356 26.6061 86.5399 22.5309 86.6326 21.2093C86.7252 19.9096 86.577 18.8523 85.8912 18.1694ZM83.315 23.3019C83.037 24.4694 82.9258 24.954 82.5922 25.2404C82.2586 25.5267 80.5535 25.725 80.1828 25.725C79.8121 25.725 77.9958 25.6809 77.6251 25.2404C77.2545 24.7998 77.8105 21.5177 78.348 21.1652C78.8854 20.8128 79.9975 20.7026 80.7944 20.7247C82.0176 20.7467 82.9443 20.7907 83.2038 21.0991C83.4818 21.4516 83.593 22.1344 83.315 23.3019Z" fill="url(#paint10_linear_1601_2766)"/>
<path d="M85.8912 18.1694C85.4835 17.7509 84.4456 17.5086 82.481 17.5086C80.016 17.5086 78.9966 18.1033 78.2182 19.3589L79.2376 13.125H76.0127L73.418 28.6768H76.6985L76.9579 27.0907C77.3471 28.1701 77.9402 28.875 80.6647 28.875C83.3521 28.875 84.0749 28.7208 84.9275 27.6855C85.8356 26.6061 86.5399 22.5309 86.6326 21.2093C86.7252 19.9096 86.577 18.8523 85.8912 18.1694ZM83.315 23.3019C83.037 24.4694 82.9258 24.954 82.5922 25.2404C82.2586 25.5267 80.5535 25.725 80.1828 25.725C79.8121 25.725 77.9958 25.6809 77.6251 25.2404C77.2545 24.7998 77.8105 21.5177 78.348 21.1652C78.8854 20.8128 79.9975 20.7026 80.7944 20.7247C82.0176 20.7467 82.9443 20.7907 83.2038 21.0991C83.4818 21.4516 83.593 22.1344 83.315 23.3019Z" fill="white" fill-opacity="0.48"/>
<path d="M97.9696 17.0625H97.8359C97.8359 17.0625 96.938 23.4195 96.1165 24.4135C95.295 25.4075 94.0914 25.4769 93.6711 25.4769C93.2699 25.4769 92.1045 25.2688 91.6842 24.7603C91.1684 24.113 92.2956 18.1259 92.5057 17.0625H89.2006C89.2006 17.0625 87.8633 24.3904 87.8633 25.5231C87.8633 26.4247 87.9397 28.089 90.003 28.667C90.4806 28.8057 91.0538 28.875 91.7606 28.875C92.3147 28.875 92.8305 28.8057 93.289 28.667C94.8938 28.2046 95.9063 27.095 96.4604 26.2628L96.0783 28.667H99.2305L101.103 17.0856H97.9696V17.0625Z" fill="url(#paint11_linear_1601_2766)"/>
<path d="M97.9696 17.0625H97.8359C97.8359 17.0625 96.938 23.4195 96.1165 24.4135C95.295 25.4075 94.0914 25.4769 93.6711 25.4769C93.2699 25.4769 92.1045 25.2688 91.6842 24.7603C91.1684 24.113 92.2956 18.1259 92.5057 17.0625H89.2006C89.2006 17.0625 87.8633 24.3904 87.8633 25.5231C87.8633 26.4247 87.9397 28.089 90.003 28.667C90.4806 28.8057 91.0538 28.875 91.7606 28.875C92.3147 28.875 92.8305 28.8057 93.289 28.667C94.8938 28.2046 95.9063 27.095 96.4604 26.2628L96.0783 28.667H99.2305L101.103 17.0856H97.9696V17.0625Z" fill="white" fill-opacity="0.48"/>
<path d="M111.303 20.749H114.284C114.284 20.749 114.339 19.8563 114.339 19.4901C114.339 19.1009 114.395 18.5974 113.765 17.8191C113.136 17.0408 109.729 17.0637 109.155 17.0637C108.581 17.0637 105.489 16.9951 104.619 17.8878C103.878 18.6202 103.267 19.5816 103.267 21.4586C103.267 23.3585 104.286 24.091 106.304 24.091H109.914C110.414 24.091 111.044 24.2741 111.044 24.8463C111.044 25.4186 110.692 26.1969 109.433 26.1969H107.044C106.471 26.1969 105.434 26.0824 105.434 25.2813V24.915H102.453C102.453 24.915 102.305 25.5559 102.305 26.1053C102.305 26.6547 102.379 27.3643 102.879 27.9823C103.379 28.6003 105.471 28.875 107.618 28.875C109.766 28.875 112.081 28.7606 112.858 27.7763C113.654 26.792 114.006 24.9608 114.006 23.9994C114.006 23.038 113.747 22.5802 113.488 22.2598C113.247 21.9622 112.506 21.4128 109.229 21.4128C106.304 21.4128 106.211 21.0695 106.211 20.7261C106.211 20.4515 106.248 19.7648 108.563 19.7648C110.877 19.7419 111.303 19.8792 111.303 20.749Z" fill="url(#paint12_linear_1601_2766)"/>
<path d="M111.303 20.749H114.284C114.284 20.749 114.339 19.8563 114.339 19.4901C114.339 19.1009 114.395 18.5974 113.765 17.8191C113.136 17.0408 109.729 17.0637 109.155 17.0637C108.581 17.0637 105.489 16.9951 104.619 17.8878C103.878 18.6202 103.267 19.5816 103.267 21.4586C103.267 23.3585 104.286 24.091 106.304 24.091H109.914C110.414 24.091 111.044 24.2741 111.044 24.8463C111.044 25.4186 110.692 26.1969 109.433 26.1969H107.044C106.471 26.1969 105.434 26.0824 105.434 25.2813V24.915H102.453C102.453 24.915 102.305 25.5559 102.305 26.1053C102.305 26.6547 102.379 27.3643 102.879 27.9823C103.379 28.6003 105.471 28.875 107.618 28.875C109.766 28.875 112.081 28.7606 112.858 27.7763C113.654 26.792 114.006 24.9608 114.006 23.9994C114.006 23.038 113.747 22.5802 113.488 22.2598C113.247 21.9622 112.506 21.4128 109.229 21.4128C106.304 21.4128 106.211 21.0695 106.211 20.7261C106.211 20.4515 106.248 19.7648 108.563 19.7648C110.877 19.7419 111.303 19.8792 111.303 20.749Z" fill="white" fill-opacity="0.48"/>
<defs>
<linearGradient id="paint0_linear_1601_2766" x1="6.20557" y1="21" x2="32.4986" y2="21" gradientUnits="userSpaceOnUse">
<stop stop-color="#3793AE"/>
<stop offset="1" stop-color="#074287"/>
</linearGradient>
<linearGradient id="paint1_linear_1601_2766" x1="10.8997" y1="5.25" x2="20.4608" y2="5.25" gradientUnits="userSpaceOnUse">
<stop stop-color="#3793AE"/>
<stop offset="1" stop-color="#074287"/>
</linearGradient>
<linearGradient id="paint2_linear_1601_2766" x1="24.138" y1="9.84375" x2="33.6991" y2="9.84375" gradientUnits="userSpaceOnUse">
<stop stop-color="#3793AE"/>
<stop offset="1" stop-color="#074287"/>
</linearGradient>
<linearGradient id="paint3_linear_1601_2766" x1="28.9544" y1="24.9375" x2="38.5155" y2="24.9375" gradientUnits="userSpaceOnUse">
<stop stop-color="#3793AE"/>
<stop offset="1" stop-color="#074287"/>
</linearGradient>
<linearGradient id="paint4_linear_1601_2766" x1="18.1308" y1="36.0937" x2="28.887" y2="36.0937" gradientUnits="userSpaceOnUse">
<stop stop-color="#3793AE"/>
<stop offset="1" stop-color="#074287"/>
</linearGradient>
<linearGradient id="paint5_linear_1601_2766" x1="4.88015" y1="32.1562" x2="14.4412" y2="32.1562" gradientUnits="userSpaceOnUse">
<stop stop-color="#3793AE"/>
<stop offset="1" stop-color="#074287"/>
</linearGradient>
<linearGradient id="paint6_linear_1601_2766" x1="0.0676492" y1="16.4062" x2="9.62874" y2="16.4062" gradientUnits="userSpaceOnUse">
<stop stop-color="#3793AE"/>
<stop offset="1" stop-color="#074287"/>
</linearGradient>
<linearGradient id="paint7_linear_1601_2766" x1="20.6301" y1="21" x2="44.5328" y2="21" gradientUnits="userSpaceOnUse">
<stop stop-color="#3793AE"/>
<stop offset="1" stop-color="#074287"/>
</linearGradient>
<linearGradient id="paint8_linear_1601_2766" x1="44.6243" y1="22.9687" x2="57.7708" y2="22.9687" gradientUnits="userSpaceOnUse">
<stop stop-color="#3793AE"/>
<stop offset="1" stop-color="#074287"/>
</linearGradient>
<linearGradient id="paint9_linear_1601_2766" x1="59.078" y1="21" x2="73.4197" y2="21" gradientUnits="userSpaceOnUse">
<stop stop-color="#3793AE"/>
<stop offset="1" stop-color="#074287"/>
</linearGradient>
<linearGradient id="paint10_linear_1601_2766" x1="73.511" y1="21" x2="86.6575" y2="21" gradientUnits="userSpaceOnUse">
<stop stop-color="#3793AE"/>
<stop offset="1" stop-color="#074287"/>
</linearGradient>
<linearGradient id="paint11_linear_1601_2766" x1="87.9563" y1="22.9687" x2="101.103" y2="22.9687" gradientUnits="userSpaceOnUse">
<stop stop-color="#3793AE"/>
<stop offset="1" stop-color="#074287"/>
</linearGradient>
<linearGradient id="paint12_linear_1601_2766" x1="102.389" y1="22.9687" x2="114.341" y2="22.9687" gradientUnits="userSpaceOnUse">
<stop stop-color="#3793AE"/>
<stop offset="1" stop-color="#074287"/>
</linearGradient>
</defs>
</svg>
