<svg width="22" height="22" viewBox="0 0 22 22" fill="none" xmlns="http://www.w3.org/2000/svg">
<path d="M3.32812 19.5756V14.159H6.03646V10.5479H10.5503V7.83952H7.84201V2.42285H14.1615V7.83952H11.4531V10.5479H15.967V14.159H18.6753V19.5756H12.3559V14.159H15.0642V11.4506H6.93924V14.159H9.64757V19.5756H3.32812ZM8.74479 6.93674H13.2587V3.32563H8.74479V6.93674ZM4.2309 18.6728H8.74479V15.0617H4.2309V18.6728ZM13.2587 18.6728H17.7726V15.0617H13.2587V18.6728Z" fill="url(#paint0_linear_1211_2469)"/>
<path d="M3.32812 19.5756V14.159H6.03646V10.5479H10.5503V7.83952H7.84201V2.42285H14.1615V7.83952H11.4531V10.5479H15.967V14.159H18.6753V19.5756H12.3559V14.159H15.0642V11.4506H6.93924V14.159H9.64757V19.5756H3.32812ZM8.74479 6.93674H13.2587V3.32563H8.74479V6.93674ZM4.2309 18.6728H8.74479V15.0617H4.2309V18.6728ZM13.2587 18.6728H17.7726V15.0617H13.2587V18.6728Z" fill="white" fill-opacity="0.65"/>
<defs>
<linearGradient id="paint0_linear_1211_2469" x1="11.0017" y1="2.42285" x2="11.0017" y2="19.5756" gradientUnits="userSpaceOnUse">
<stop stop-color="#3793AE"/>
<stop offset="1" stop-color="#074287"/>
</linearGradient>
</defs>
</svg>
