<svg width="48" height="48" viewBox="0 0 48 48" fill="none" xmlns="http://www.w3.org/2000/svg">
<path d="M36.9016 37.8996H11.1016C10.5016 37.8996 10.1016 37.4996 10.1016 36.8996V11.0996C10.1016 10.4996 10.5016 10.0996 11.1016 10.0996H36.9016C37.5016 10.0996 37.9016 10.4996 37.9016 11.0996V36.8996C37.9016 37.3996 37.4016 37.8996 36.9016 37.8996ZM12.1016 35.8996H35.9016V12.0996H12.1016V35.8996Z" fill="url(#paint0_linear_1601_2870)"/>
<path d="M36.9016 37.8996H11.1016C10.5016 37.8996 10.1016 37.4996 10.1016 36.8996V11.0996C10.1016 10.4996 10.5016 10.0996 11.1016 10.0996H36.9016C37.5016 10.0996 37.9016 10.4996 37.9016 11.0996V36.8996C37.9016 37.3996 37.4016 37.8996 36.9016 37.8996ZM12.1016 35.8996H35.9016V12.0996H12.1016V35.8996Z" fill="white" fill-opacity="0.48"/>
<path d="M14.8984 12.1C14.2984 12.1 13.8984 11.7 13.8984 11.1V1.5C13.8984 0.9 14.2984 0.5 14.8984 0.5C15.4984 0.5 15.8984 0.9 15.8984 1.5V11.1C15.8984 11.7 15.3984 12.1 14.8984 12.1Z" fill="url(#paint1_linear_1601_2870)"/>
<path d="M14.8984 12.1C14.2984 12.1 13.8984 11.7 13.8984 11.1V1.5C13.8984 0.9 14.2984 0.5 14.8984 0.5C15.4984 0.5 15.8984 0.9 15.8984 1.5V11.1C15.8984 11.7 15.3984 12.1 14.8984 12.1Z" fill="white" fill-opacity="0.48"/>
<path d="M24 12.1C23.4 12.1 23 11.7 23 11.1V1.5C23 0.9 23.4 0.5 24 0.5C24.6 0.5 25 0.9 25 1.5V11.1C25 11.7 24.6 12.1 24 12.1Z" fill="url(#paint2_linear_1601_2870)"/>
<path d="M24 12.1C23.4 12.1 23 11.7 23 11.1V1.5C23 0.9 23.4 0.5 24 0.5C24.6 0.5 25 0.9 25 1.5V11.1C25 11.7 24.6 12.1 24 12.1Z" fill="white" fill-opacity="0.48"/>
<path d="M33.0977 12.1C32.4977 12.1 32.0977 11.7 32.0977 11.1V1.5C32.0977 0.9 32.4977 0.5 33.0977 0.5C33.6977 0.5 34.0977 0.9 34.0977 1.5V11.1C34.0977 11.7 33.6977 12.1 33.0977 12.1Z" fill="url(#paint3_linear_1601_2870)"/>
<path d="M33.0977 12.1C32.4977 12.1 32.0977 11.7 32.0977 11.1V1.5C32.0977 0.9 32.4977 0.5 33.0977 0.5C33.6977 0.5 34.0977 0.9 34.0977 1.5V11.1C34.0977 11.7 33.6977 12.1 33.0977 12.1Z" fill="white" fill-opacity="0.48"/>
<path d="M14.8984 47.5004C14.2984 47.5004 13.8984 47.1004 13.8984 46.5004V36.9004C13.8984 36.3004 14.2984 35.9004 14.8984 35.9004C15.4984 35.9004 15.8984 36.3004 15.8984 36.9004V46.5004C15.8984 47.1004 15.3984 47.5004 14.8984 47.5004Z" fill="url(#paint4_linear_1601_2870)"/>
<path d="M14.8984 47.5004C14.2984 47.5004 13.8984 47.1004 13.8984 46.5004V36.9004C13.8984 36.3004 14.2984 35.9004 14.8984 35.9004C15.4984 35.9004 15.8984 36.3004 15.8984 36.9004V46.5004C15.8984 47.1004 15.3984 47.5004 14.8984 47.5004Z" fill="white" fill-opacity="0.48"/>
<path d="M24 47.5004C23.4 47.5004 23 47.1004 23 46.5004V36.9004C23 36.3004 23.4 35.9004 24 35.9004C24.6 35.9004 25 36.3004 25 36.9004V46.5004C25 47.1004 24.6 47.5004 24 47.5004Z" fill="url(#paint5_linear_1601_2870)"/>
<path d="M24 47.5004C23.4 47.5004 23 47.1004 23 46.5004V36.9004C23 36.3004 23.4 35.9004 24 35.9004C24.6 35.9004 25 36.3004 25 36.9004V46.5004C25 47.1004 24.6 47.5004 24 47.5004Z" fill="white" fill-opacity="0.48"/>
<path d="M33.0977 47.5004C32.4977 47.5004 32.0977 47.1004 32.0977 46.5004V36.9004C32.0977 36.3004 32.4977 35.9004 33.0977 35.9004C33.6977 35.9004 34.0977 36.3004 34.0977 36.9004V46.5004C34.0977 47.1004 33.6977 47.5004 33.0977 47.5004Z" fill="url(#paint6_linear_1601_2870)"/>
<path d="M33.0977 47.5004C32.4977 47.5004 32.0977 47.1004 32.0977 46.5004V36.9004C32.0977 36.3004 32.4977 35.9004 33.0977 35.9004C33.6977 35.9004 34.0977 36.3004 34.0977 36.9004V46.5004C34.0977 47.1004 33.6977 47.5004 33.0977 47.5004Z" fill="white" fill-opacity="0.48"/>
<path d="M46.4984 15.9004H36.8984C36.2984 15.9004 35.8984 15.5004 35.8984 14.9004C35.8984 14.3004 36.2984 13.9004 36.8984 13.9004H46.4984C47.0984 13.9004 47.4984 14.3004 47.4984 14.9004C47.4984 15.5004 47.0984 15.9004 46.4984 15.9004Z" fill="url(#paint7_linear_1601_2870)"/>
<path d="M46.4984 15.9004H36.8984C36.2984 15.9004 35.8984 15.5004 35.8984 14.9004C35.8984 14.3004 36.2984 13.9004 36.8984 13.9004H46.4984C47.0984 13.9004 47.4984 14.3004 47.4984 14.9004C47.4984 15.5004 47.0984 15.9004 46.4984 15.9004Z" fill="white" fill-opacity="0.48"/>
<path d="M46.4984 25H36.8984C36.2984 25 35.8984 24.6 35.8984 24C35.8984 23.4 36.2984 23 36.8984 23H46.4984C47.0984 23 47.4984 23.4 47.4984 24C47.4984 24.6 47.0984 25 46.4984 25Z" fill="url(#paint8_linear_1601_2870)"/>
<path d="M46.4984 25H36.8984C36.2984 25 35.8984 24.6 35.8984 24C35.8984 23.4 36.2984 23 36.8984 23H46.4984C47.0984 23 47.4984 23.4 47.4984 24C47.4984 24.6 47.0984 25 46.4984 25Z" fill="white" fill-opacity="0.48"/>
<path d="M46.4984 34.1006H36.8984C36.2984 34.1006 35.8984 33.7006 35.8984 33.1006C35.8984 32.5006 36.2984 32.1006 36.8984 32.1006H46.4984C47.0984 32.1006 47.4984 32.5006 47.4984 33.1006C47.4984 33.7006 47.0984 34.1006 46.4984 34.1006Z" fill="url(#paint9_linear_1601_2870)"/>
<path d="M46.4984 34.1006H36.8984C36.2984 34.1006 35.8984 33.7006 35.8984 33.1006C35.8984 32.5006 36.2984 32.1006 36.8984 32.1006H46.4984C47.0984 32.1006 47.4984 32.5006 47.4984 33.1006C47.4984 33.7006 47.0984 34.1006 46.4984 34.1006Z" fill="white" fill-opacity="0.48"/>
<path d="M11.1 15.9004H1.5C0.9 15.9004 0.5 15.5004 0.5 14.9004C0.5 14.3004 0.9 13.9004 1.5 13.9004H11.1C11.7 13.9004 12.1 14.3004 12.1 14.9004C12.1 15.5004 11.7 15.9004 11.1 15.9004Z" fill="url(#paint10_linear_1601_2870)"/>
<path d="M11.1 15.9004H1.5C0.9 15.9004 0.5 15.5004 0.5 14.9004C0.5 14.3004 0.9 13.9004 1.5 13.9004H11.1C11.7 13.9004 12.1 14.3004 12.1 14.9004C12.1 15.5004 11.7 15.9004 11.1 15.9004Z" fill="white" fill-opacity="0.48"/>
<path d="M11.1 25H1.5C0.9 25 0.5 24.6 0.5 24C0.5 23.4 0.9 23 1.5 23H11.1C11.7 23 12.1 23.4 12.1 24C12.1 24.6 11.7 25 11.1 25Z" fill="url(#paint11_linear_1601_2870)"/>
<path d="M11.1 25H1.5C0.9 25 0.5 24.6 0.5 24C0.5 23.4 0.9 23 1.5 23H11.1C11.7 23 12.1 23.4 12.1 24C12.1 24.6 11.7 25 11.1 25Z" fill="white" fill-opacity="0.48"/>
<path d="M11.1 34.1006H1.5C0.9 34.1006 0.5 33.7006 0.5 33.1006C0.5 32.5006 0.9 32.1006 1.5 32.1006H11.1C11.7 32.1006 12.1 32.5006 12.1 33.1006C12.1 33.7006 11.7 34.1006 11.1 34.1006Z" fill="url(#paint12_linear_1601_2870)"/>
<path d="M11.1 34.1006H1.5C0.9 34.1006 0.5 33.7006 0.5 33.1006C0.5 32.5006 0.9 32.1006 1.5 32.1006H11.1C11.7 32.1006 12.1 32.5006 12.1 33.1006C12.1 33.7006 11.7 34.1006 11.1 34.1006Z" fill="white" fill-opacity="0.48"/>
<defs>
<linearGradient id="paint0_linear_1601_2870" x1="10.2969" y1="23.9996" x2="37.9016" y2="23.9996" gradientUnits="userSpaceOnUse">
<stop stop-color="#3793AE"/>
<stop offset="1" stop-color="#074287"/>
</linearGradient>
<linearGradient id="paint1_linear_1601_2870" x1="13.9125" y1="6.3" x2="15.8984" y2="6.3" gradientUnits="userSpaceOnUse">
<stop stop-color="#3793AE"/>
<stop offset="1" stop-color="#074287"/>
</linearGradient>
<linearGradient id="paint2_linear_1601_2870" x1="23.0141" y1="6.3" x2="25" y2="6.3" gradientUnits="userSpaceOnUse">
<stop stop-color="#3793AE"/>
<stop offset="1" stop-color="#074287"/>
</linearGradient>
<linearGradient id="paint3_linear_1601_2870" x1="32.1117" y1="6.3" x2="34.0977" y2="6.3" gradientUnits="userSpaceOnUse">
<stop stop-color="#3793AE"/>
<stop offset="1" stop-color="#074287"/>
</linearGradient>
<linearGradient id="paint4_linear_1601_2870" x1="13.9125" y1="41.7004" x2="15.8984" y2="41.7004" gradientUnits="userSpaceOnUse">
<stop stop-color="#3793AE"/>
<stop offset="1" stop-color="#074287"/>
</linearGradient>
<linearGradient id="paint5_linear_1601_2870" x1="23.0141" y1="41.7004" x2="25" y2="41.7004" gradientUnits="userSpaceOnUse">
<stop stop-color="#3793AE"/>
<stop offset="1" stop-color="#074287"/>
</linearGradient>
<linearGradient id="paint6_linear_1601_2870" x1="32.1117" y1="41.7004" x2="34.0977" y2="41.7004" gradientUnits="userSpaceOnUse">
<stop stop-color="#3793AE"/>
<stop offset="1" stop-color="#074287"/>
</linearGradient>
<linearGradient id="paint7_linear_1601_2870" x1="35.9799" y1="14.9004" x2="47.4984" y2="14.9004" gradientUnits="userSpaceOnUse">
<stop stop-color="#3793AE"/>
<stop offset="1" stop-color="#074287"/>
</linearGradient>
<linearGradient id="paint8_linear_1601_2870" x1="35.9799" y1="24" x2="47.4984" y2="24" gradientUnits="userSpaceOnUse">
<stop stop-color="#3793AE"/>
<stop offset="1" stop-color="#074287"/>
</linearGradient>
<linearGradient id="paint9_linear_1601_2870" x1="35.9799" y1="33.1006" x2="47.4984" y2="33.1006" gradientUnits="userSpaceOnUse">
<stop stop-color="#3793AE"/>
<stop offset="1" stop-color="#074287"/>
</linearGradient>
<linearGradient id="paint10_linear_1601_2870" x1="0.581499" y1="14.9004" x2="12.1" y2="14.9004" gradientUnits="userSpaceOnUse">
<stop stop-color="#3793AE"/>
<stop offset="1" stop-color="#074287"/>
</linearGradient>
<linearGradient id="paint11_linear_1601_2870" x1="0.581499" y1="24" x2="12.1" y2="24" gradientUnits="userSpaceOnUse">
<stop stop-color="#3793AE"/>
<stop offset="1" stop-color="#074287"/>
</linearGradient>
<linearGradient id="paint12_linear_1601_2870" x1="0.581499" y1="33.1006" x2="12.1" y2="33.1006" gradientUnits="userSpaceOnUse">
<stop stop-color="#3793AE"/>
<stop offset="1" stop-color="#074287"/>
</linearGradient>
</defs>
</svg>
