<svg width="32" height="31" viewBox="0 0 32 31" fill="none" xmlns="http://www.w3.org/2000/svg">
<path d="M20.7829 11.5795L29.1161 3.29753L29.0889 7.9921C29.0802 8.38347 29.3907 8.72399 29.7826 8.71527L30.2795 8.71478C30.6714 8.70558 30.9954 8.4726 31.0037 8.08122L31.024 1.08782C31.024 1.08106 30.9974 1.07574 30.9974 1.06896L31.0356 0.714393C31.0395 0.517736 30.9935 0.342393 30.8666 0.21697C30.7412 0.0905479 30.5653 0.0135322 30.3701 0.0188604L30.016 0.0270947C30.0093 0.0270947 30.004 0.0295166 29.9967 0.0305156L23.0493 0C22.658 0.00871875 22.3339 0.332281 22.3252 0.724141L22.3242 1.22114C22.3838 1.68275 22.7466 1.95255 23.138 1.94383L27.7168 1.95594L19.4131 10.2092C19.0348 10.5875 19.0348 11.2007 19.4131 11.5795C19.7914 11.9573 20.4046 11.9573 20.7829 11.5795ZM10.2836 19.3788L1.9504 27.635L1.97705 22.9661C1.98625 22.5742 1.67525 22.2337 1.28387 22.2424L0.75642 22.2434C0.364076 22.2531 0.0404836 22.4856 0.0322492 22.8774L0.0119055 29.8708C0.0119055 29.8776 0.0385461 29.8819 0.0385461 29.8897L0.000280478 30.2433C-0.0040789 30.4399 0.0419367 30.6163 0.169327 30.7408C0.294296 30.8677 0.470609 30.9442 0.665327 30.9394L1.01989 30.9306C1.02664 30.9306 1.03148 30.9277 1.03926 30.9277L8.01714 30.9583C8.40851 30.9486 8.73211 30.625 8.74128 30.2336L8.74225 29.7362C8.6827 29.2755 8.31988 29.0048 7.9285 29.0135L3.34973 29.0014L11.6529 20.7491C12.0312 20.3708 12.0312 19.7576 11.6529 19.3793C11.2746 19.001 10.6618 19.0005 10.2835 19.3788H10.2836ZM31.0246 29.8703L31.0042 22.8769C30.9955 22.485 30.6714 22.2525 30.2801 22.2428L29.7831 22.2419C29.3912 22.2331 29.0812 22.5741 29.0895 22.9655L29.1166 27.6601L20.7829 19.3787C20.4046 19.0004 19.7914 19.0004 19.4131 19.3787C19.0348 19.757 19.0348 20.3702 19.4131 20.7485L27.7163 29.0008L23.138 29.0129C22.7466 29.0042 22.3838 29.275 22.3242 29.7356L22.3252 30.2331C22.3344 30.6249 22.6584 30.9485 23.0493 30.9577L29.9972 30.9272C30.0045 30.9272 30.0098 30.9301 30.0166 30.9301L30.3707 30.9388C30.5659 30.9436 30.7422 30.8671 30.8671 30.7402C30.9941 30.6152 31.0396 30.4394 31.0362 30.2427L30.9979 29.8891C30.9979 29.8814 31.0246 29.8771 31.0246 29.8703L31.0246 29.8703ZM3.34976 1.95669L7.92904 1.94467C8.32042 1.95339 8.68322 1.68311 8.74279 1.22196L8.74183 0.724534C8.73211 0.332705 8.40849 0.00862793 8.01766 0.000393555L1.03926 0.0304248C1.03151 0.0294561 1.02667 0.0270342 1.01989 0.0270342L0.665327 0.0187695C0.470639 0.0134717 0.293842 0.0904873 0.169327 0.216879C0.0419367 0.342332 -0.00404862 0.517676 0.000280478 0.714332L0.0385461 1.06889C0.0385461 1.07565 0.0119055 1.08052 0.0119055 1.08779L0.0322492 8.08119C0.040968 8.47257 0.364561 8.70555 0.75642 8.71475L1.2839 8.71521C1.67528 8.72393 1.98573 8.38341 1.97701 7.99204L1.95037 3.32315L10.2836 11.5793C10.6614 11.9576 11.2751 11.9576 11.6534 11.5793C12.0318 11.201 12.0317 10.5873 11.6534 10.209L3.34976 1.95669Z" fill="url(#paint0_linear_1601_2858)"/>
<path d="M20.7829 11.5795L29.1161 3.29753L29.0889 7.9921C29.0802 8.38347 29.3907 8.72399 29.7826 8.71527L30.2795 8.71478C30.6714 8.70558 30.9954 8.4726 31.0037 8.08122L31.024 1.08782C31.024 1.08106 30.9974 1.07574 30.9974 1.06896L31.0356 0.714393C31.0395 0.517736 30.9935 0.342393 30.8666 0.21697C30.7412 0.0905479 30.5653 0.0135322 30.3701 0.0188604L30.016 0.0270947C30.0093 0.0270947 30.004 0.0295166 29.9967 0.0305156L23.0493 0C22.658 0.00871875 22.3339 0.332281 22.3252 0.724141L22.3242 1.22114C22.3838 1.68275 22.7466 1.95255 23.138 1.94383L27.7168 1.95594L19.4131 10.2092C19.0348 10.5875 19.0348 11.2007 19.4131 11.5795C19.7914 11.9573 20.4046 11.9573 20.7829 11.5795ZM10.2836 19.3788L1.9504 27.635L1.97705 22.9661C1.98625 22.5742 1.67525 22.2337 1.28387 22.2424L0.75642 22.2434C0.364076 22.2531 0.0404836 22.4856 0.0322492 22.8774L0.0119055 29.8708C0.0119055 29.8776 0.0385461 29.8819 0.0385461 29.8897L0.000280478 30.2433C-0.0040789 30.4399 0.0419367 30.6163 0.169327 30.7408C0.294296 30.8677 0.470609 30.9442 0.665327 30.9394L1.01989 30.9306C1.02664 30.9306 1.03148 30.9277 1.03926 30.9277L8.01714 30.9583C8.40851 30.9486 8.73211 30.625 8.74128 30.2336L8.74225 29.7362C8.6827 29.2755 8.31988 29.0048 7.9285 29.0135L3.34973 29.0014L11.6529 20.7491C12.0312 20.3708 12.0312 19.7576 11.6529 19.3793C11.2746 19.001 10.6618 19.0005 10.2835 19.3788H10.2836ZM31.0246 29.8703L31.0042 22.8769C30.9955 22.485 30.6714 22.2525 30.2801 22.2428L29.7831 22.2419C29.3912 22.2331 29.0812 22.5741 29.0895 22.9655L29.1166 27.6601L20.7829 19.3787C20.4046 19.0004 19.7914 19.0004 19.4131 19.3787C19.0348 19.757 19.0348 20.3702 19.4131 20.7485L27.7163 29.0008L23.138 29.0129C22.7466 29.0042 22.3838 29.275 22.3242 29.7356L22.3252 30.2331C22.3344 30.6249 22.6584 30.9485 23.0493 30.9577L29.9972 30.9272C30.0045 30.9272 30.0098 30.9301 30.0166 30.9301L30.3707 30.9388C30.5659 30.9436 30.7422 30.8671 30.8671 30.7402C30.9941 30.6152 31.0396 30.4394 31.0362 30.2427L30.9979 29.8891C30.9979 29.8814 31.0246 29.8771 31.0246 29.8703L31.0246 29.8703ZM3.34976 1.95669L7.92904 1.94467C8.32042 1.95339 8.68322 1.68311 8.74279 1.22196L8.74183 0.724534C8.73211 0.332705 8.40849 0.00862793 8.01766 0.000393555L1.03926 0.0304248C1.03151 0.0294561 1.02667 0.0270342 1.01989 0.0270342L0.665327 0.0187695C0.470639 0.0134717 0.293842 0.0904873 0.169327 0.216879C0.0419367 0.342332 -0.00404862 0.517676 0.000280478 0.714332L0.0385461 1.06889C0.0385461 1.07565 0.0119055 1.08052 0.0119055 1.08779L0.0322492 8.08119C0.040968 8.47257 0.364561 8.70555 0.75642 8.71475L1.2839 8.71521C1.67528 8.72393 1.98573 8.38341 1.97701 7.99204L1.95037 3.32315L10.2836 11.5793C10.6614 11.9576 11.2751 11.9576 11.6534 11.5793C12.0318 11.201 12.0317 10.5873 11.6534 10.209L3.34976 1.95669Z" fill="white" fill-opacity="0.49"/>
<defs>
<linearGradient id="paint0_linear_1601_2858" x1="0.218054" y1="15.4791" x2="31.0364" y2="15.4791" gradientUnits="userSpaceOnUse">
<stop stop-color="#3793AE"/>
<stop offset="1" stop-color="#074287"/>
</linearGradient>
</defs>
</svg>
