<svg width="31" height="39" viewBox="0 0 31 39" fill="none" xmlns="http://www.w3.org/2000/svg">
<path d="M26.6376 39H3.19394C1.25443 39 0 37.5847 0 35.7776V3.58692C0 1.67588 1.35221 0 3.19394 0H18.7775C19.0424 0 19.2961 0.113252 19.4718 0.312525L29.9578 11.9948C30.1088 12.1649 30.3242 12.384 30.3242 12.6111V35.7776C30.3242 37.615 28.5883 39 26.6376 39ZM3.19394 1.85658C2.37086 1.85658 1.85658 2.69761 1.85658 3.58692V35.7776C1.85658 36.6737 2.39809 37.1428 3.19394 37.1428H26.6376C27.4162 37.1428 28.4676 36.6737 28.4676 35.7776V12.9633L18.3597 1.85658H3.19394Z" fill="url(#paint0_linear_1601_2750)"/>
<path d="M26.6376 39H3.19394C1.25443 39 0 37.5847 0 35.7776V3.58692C0 1.67588 1.35221 0 3.19394 0H18.7775C19.0424 0 19.2961 0.113252 19.4718 0.312525L29.9578 11.9948C30.1088 12.1649 30.3242 12.384 30.3242 12.6111V35.7776C30.3242 37.615 28.5883 39 26.6376 39ZM3.19394 1.85658C2.37086 1.85658 1.85658 2.69761 1.85658 3.58692V35.7776C1.85658 36.6737 2.39809 37.1428 3.19394 37.1428H26.6376C27.4162 37.1428 28.4676 36.6737 28.4676 35.7776V12.9633L18.3597 1.85658H3.19394Z" fill="white" fill-opacity="0.48"/>
<path d="M16.4009 17.0235C15.8885 17.0235 15.4727 16.6076 15.4727 16.0946V5.57087C15.4727 5.05845 15.8885 4.64258 16.4009 4.64258C16.9134 4.64258 17.3292 5.05845 17.3292 5.57087V16.0946C17.3292 16.6076 16.9134 17.0235 16.4009 17.0235Z" fill="url(#paint1_linear_1601_2750)"/>
<path d="M16.4009 17.0235C15.8885 17.0235 15.4727 16.6076 15.4727 16.0946V5.57087C15.4727 5.05845 15.8885 4.64258 16.4009 4.64258C16.9134 4.64258 17.3292 5.05845 17.3292 5.57087V16.0946C17.3292 16.6076 16.9134 17.0235 16.4009 17.0235Z" fill="white" fill-opacity="0.48"/>
<path d="M11.4478 17.0235C10.9354 17.0235 10.5195 16.6076 10.5195 16.0946V5.57087C10.5195 5.05845 10.9354 4.64258 11.4478 4.64258C11.9602 4.64258 12.3761 5.05845 12.3761 5.57087V16.0946C12.3761 16.6076 11.9602 17.0235 11.4478 17.0235Z" fill="url(#paint2_linear_1601_2750)"/>
<path d="M11.4478 17.0235C10.9354 17.0235 10.5195 16.6076 10.5195 16.0946V5.57087C10.5195 5.05845 10.9354 4.64258 11.4478 4.64258C11.9602 4.64258 12.3761 5.05845 12.3761 5.57087V16.0946C12.3761 16.6076 11.9602 17.0235 11.4478 17.0235Z" fill="white" fill-opacity="0.48"/>
<path d="M6.4986 17.0235C5.98619 17.0235 5.57031 16.6076 5.57031 16.0946V5.57087C5.57031 5.05845 5.98619 4.64258 6.4986 4.64258C7.01102 4.64258 7.4269 5.05845 7.4269 5.57087V16.0946C7.4269 16.6076 7.01102 17.0235 6.4986 17.0235Z" fill="url(#paint3_linear_1601_2750)"/>
<path d="M6.4986 17.0235C5.98619 17.0235 5.57031 16.6076 5.57031 16.0946V5.57087C5.57031 5.05845 5.98619 4.64258 6.4986 4.64258C7.01102 4.64258 7.4269 5.05845 7.4269 5.57087V16.0946C7.4269 16.6076 7.01102 17.0235 6.4986 17.0235Z" fill="white" fill-opacity="0.48"/>
<defs>
<linearGradient id="paint0_linear_1601_2750" x1="0.21305" y1="19.5" x2="30.3242" y2="19.5" gradientUnits="userSpaceOnUse">
<stop stop-color="#3793AE"/>
<stop offset="1" stop-color="#074287"/>
</linearGradient>
<linearGradient id="paint1_linear_1601_2750" x1="15.4857" y1="10.833" x2="17.3292" y2="10.833" gradientUnits="userSpaceOnUse">
<stop stop-color="#3793AE"/>
<stop offset="1" stop-color="#074287"/>
</linearGradient>
<linearGradient id="paint2_linear_1601_2750" x1="10.5326" y1="10.833" x2="12.3761" y2="10.833" gradientUnits="userSpaceOnUse">
<stop stop-color="#3793AE"/>
<stop offset="1" stop-color="#074287"/>
</linearGradient>
<linearGradient id="paint3_linear_1601_2750" x1="5.58336" y1="10.833" x2="7.4269" y2="10.833" gradientUnits="userSpaceOnUse">
<stop stop-color="#3793AE"/>
<stop offset="1" stop-color="#074287"/>
</linearGradient>
</defs>
</svg>
