<svg width="36" height="36" viewBox="0 0 36 36" fill="none" xmlns="http://www.w3.org/2000/svg">
<path d="M0.51252 23.6579C0.569963 22.534 0.824516 21.4289 1.26495 20.3966C1.70229 19.3715 2.31447 18.438 3.07052 17.6394L3.58105 18.2107C2.23493 19.6396 1.37115 21.5478 1.25264 23.6579H0.51252ZM4.71591 15.6053H3.97728V6.76316H4.71591V15.6053ZM3.99832 5.76316C4.11214 4.41389 4.6838 3.14459 5.61821 2.18286C6.54783 1.22606 7.76863 0.643113 9.0625 0.523131V1.31599C7.95681 1.43361 6.92004 1.93862 6.13039 2.75136C5.33887 3.56602 4.85183 4.63164 4.74045 5.76316H3.99832ZM10.0625 1.31599V0.523131C11.3564 0.643113 12.5772 1.22606 13.5068 2.18286C14.4412 3.14459 15.0129 4.41389 15.1267 5.76316H14.3845C14.2732 4.63164 13.7861 3.56602 12.9946 2.75136C12.205 1.93862 11.1682 1.43361 10.0625 1.31599ZM14.4091 6.76316H15.1477V15.6053H14.4091V6.76316ZM17.1878 20.7233C16.7899 19.7909 16.2331 18.94 15.5443 18.2102L16.0545 17.6394C16.8105 18.438 17.4227 19.3715 17.86 20.3966C18.3005 21.4289 18.555 22.534 18.6125 23.6579H17.8726C17.816 22.6472 17.5846 21.6533 17.1878 20.7233ZM15.3775 16.8962L14.8602 17.4751C14.6771 17.2178 14.5385 16.9243 14.4658 16.6071H15.2419C15.2612 16.6615 15.2834 16.7149 15.3084 16.7671C15.3296 16.8112 15.3526 16.8543 15.3775 16.8962ZM17.8721 24.6579H18.612C18.4925 26.9576 17.5522 29.1359 15.9656 30.7689C14.3834 32.3974 12.2795 33.3596 10.0625 33.4858V32.6951C12.092 32.5697 14.0115 31.6845 15.4534 30.2004C16.8976 28.714 17.7536 26.7397 17.8721 24.6579ZM9.0625 32.6951V33.4858C6.84553 33.3596 4.7416 32.3974 3.1594 30.7689C1.57278 29.1359 0.632455 26.9576 0.51298 24.6579H1.25287C1.37144 26.7397 2.22741 28.714 3.67159 30.2004C5.11349 31.6845 7.03296 32.5697 9.0625 32.6951ZM4.26482 17.4751L3.74714 16.8958C3.772 16.854 3.79503 16.811 3.81614 16.7669C3.84121 16.7146 3.86346 16.6611 3.88283 16.6066L4.65927 16.6058C4.58664 16.9238 4.44791 17.2176 4.26482 17.4751Z" fill="url(#paint0_linear_1601_2811)"/>
<path d="M0.51252 23.6579C0.569963 22.534 0.824516 21.4289 1.26495 20.3966C1.70229 19.3715 2.31447 18.438 3.07052 17.6394L3.58105 18.2107C2.23493 19.6396 1.37115 21.5478 1.25264 23.6579H0.51252ZM4.71591 15.6053H3.97728V6.76316H4.71591V15.6053ZM3.99832 5.76316C4.11214 4.41389 4.6838 3.14459 5.61821 2.18286C6.54783 1.22606 7.76863 0.643113 9.0625 0.523131V1.31599C7.95681 1.43361 6.92004 1.93862 6.13039 2.75136C5.33887 3.56602 4.85183 4.63164 4.74045 5.76316H3.99832ZM10.0625 1.31599V0.523131C11.3564 0.643113 12.5772 1.22606 13.5068 2.18286C14.4412 3.14459 15.0129 4.41389 15.1267 5.76316H14.3845C14.2732 4.63164 13.7861 3.56602 12.9946 2.75136C12.205 1.93862 11.1682 1.43361 10.0625 1.31599ZM14.4091 6.76316H15.1477V15.6053H14.4091V6.76316ZM17.1878 20.7233C16.7899 19.7909 16.2331 18.94 15.5443 18.2102L16.0545 17.6394C16.8105 18.438 17.4227 19.3715 17.86 20.3966C18.3005 21.4289 18.555 22.534 18.6125 23.6579H17.8726C17.816 22.6472 17.5846 21.6533 17.1878 20.7233ZM15.3775 16.8962L14.8602 17.4751C14.6771 17.2178 14.5385 16.9243 14.4658 16.6071H15.2419C15.2612 16.6615 15.2834 16.7149 15.3084 16.7671C15.3296 16.8112 15.3526 16.8543 15.3775 16.8962ZM17.8721 24.6579H18.612C18.4925 26.9576 17.5522 29.1359 15.9656 30.7689C14.3834 32.3974 12.2795 33.3596 10.0625 33.4858V32.6951C12.092 32.5697 14.0115 31.6845 15.4534 30.2004C16.8976 28.714 17.7536 26.7397 17.8721 24.6579ZM9.0625 32.6951V33.4858C6.84553 33.3596 4.7416 32.3974 3.1594 30.7689C1.57278 29.1359 0.632455 26.9576 0.51298 24.6579H1.25287C1.37144 26.7397 2.22741 28.714 3.67159 30.2004C5.11349 31.6845 7.03296 32.5697 9.0625 32.6951ZM4.26482 17.4751L3.74714 16.8958C3.772 16.854 3.79503 16.811 3.81614 16.7669C3.84121 16.7146 3.86346 16.6611 3.88283 16.6066L4.65927 16.6058C4.58664 16.9238 4.44791 17.2176 4.26482 17.4751Z" stroke="url(#paint1_linear_1601_2811)"/>
<path d="M0.51252 23.6579C0.569963 22.534 0.824516 21.4289 1.26495 20.3966C1.70229 19.3715 2.31447 18.438 3.07052 17.6394L3.58105 18.2107C2.23493 19.6396 1.37115 21.5478 1.25264 23.6579H0.51252ZM4.71591 15.6053H3.97728V6.76316H4.71591V15.6053ZM3.99832 5.76316C4.11214 4.41389 4.6838 3.14459 5.61821 2.18286C6.54783 1.22606 7.76863 0.643113 9.0625 0.523131V1.31599C7.95681 1.43361 6.92004 1.93862 6.13039 2.75136C5.33887 3.56602 4.85183 4.63164 4.74045 5.76316H3.99832ZM10.0625 1.31599V0.523131C11.3564 0.643113 12.5772 1.22606 13.5068 2.18286C14.4412 3.14459 15.0129 4.41389 15.1267 5.76316H14.3845C14.2732 4.63164 13.7861 3.56602 12.9946 2.75136C12.205 1.93862 11.1682 1.43361 10.0625 1.31599ZM14.4091 6.76316H15.1477V15.6053H14.4091V6.76316ZM17.1878 20.7233C16.7899 19.7909 16.2331 18.94 15.5443 18.2102L16.0545 17.6394C16.8105 18.438 17.4227 19.3715 17.86 20.3966C18.3005 21.4289 18.555 22.534 18.6125 23.6579H17.8726C17.816 22.6472 17.5846 21.6533 17.1878 20.7233ZM15.3775 16.8962L14.8602 17.4751C14.6771 17.2178 14.5385 16.9243 14.4658 16.6071H15.2419C15.2612 16.6615 15.2834 16.7149 15.3084 16.7671C15.3296 16.8112 15.3526 16.8543 15.3775 16.8962ZM17.8721 24.6579H18.612C18.4925 26.9576 17.5522 29.1359 15.9656 30.7689C14.3834 32.3974 12.2795 33.3596 10.0625 33.4858V32.6951C12.092 32.5697 14.0115 31.6845 15.4534 30.2004C16.8976 28.714 17.7536 26.7397 17.8721 24.6579ZM9.0625 32.6951V33.4858C6.84553 33.3596 4.7416 32.3974 3.1594 30.7689C1.57278 29.1359 0.632455 26.9576 0.51298 24.6579H1.25287C1.37144 26.7397 2.22741 28.714 3.67159 30.2004C5.11349 31.6845 7.03296 32.5697 9.0625 32.6951ZM4.26482 17.4751L3.74714 16.8958C3.772 16.854 3.79503 16.811 3.81614 16.7669C3.84121 16.7146 3.86346 16.6611 3.88283 16.6066L4.65927 16.6058C4.58664 16.9238 4.44791 17.2176 4.26482 17.4751Z" stroke="white" stroke-opacity="0.48"/>
<path d="M9.55753 28.6329C11.9581 28.6329 13.9041 26.63 13.9041 24.1592C13.9041 21.6885 11.9581 19.6855 9.55753 19.6855C7.15697 19.6855 5.21094 21.6885 5.21094 24.1592C5.21094 26.63 7.15697 28.6329 9.55753 28.6329Z" stroke="url(#paint2_linear_1601_2811)"/>
<path d="M9.55753 28.6329C11.9581 28.6329 13.9041 26.63 13.9041 24.1592C13.9041 21.6885 11.9581 19.6855 9.55753 19.6855C7.15697 19.6855 5.21094 21.6885 5.21094 24.1592C5.21094 26.63 7.15697 28.6329 9.55753 28.6329Z" stroke="white" stroke-opacity="0.48"/>
<path d="M25.5 33.0831C23.8025 33.0831 22.3573 32.5259 21.1644 31.4115C19.9715 30.297 19.375 28.9404 19.375 27.3415C19.375 26.5787 19.5369 25.8487 19.8606 25.1515C20.1844 24.4542 20.6181 23.832 21.1617 23.2848L25.5 19.2373L29.8383 23.2848C30.3819 23.832 30.8156 24.4542 31.1394 25.1515C31.4631 25.8487 31.625 26.5801 31.625 27.3456C31.625 28.9467 31.0285 30.3034 29.8356 31.4156C28.6427 32.5279 27.1975 33.0837 25.5 33.0831Z" fill="url(#paint3_linear_1601_2811)"/>
<path d="M25.5 33.0831C23.8025 33.0831 22.3573 32.5259 21.1644 31.4115C19.9715 30.297 19.375 28.9404 19.375 27.3415C19.375 26.5787 19.5369 25.8487 19.8606 25.1515C20.1844 24.4542 20.6181 23.832 21.1617 23.2848L25.5 19.2373L29.8383 23.2848C30.3819 23.832 30.8156 24.4542 31.1394 25.1515C31.4631 25.8487 31.625 26.5801 31.625 27.3456C31.625 28.9467 31.0285 30.3034 29.8356 31.4156C28.6427 32.5279 27.1975 33.0837 25.5 33.0831Z" fill="white" fill-opacity="0.48"/>
<defs>
<linearGradient id="paint0_linear_1601_2811" x1="0.134368" y1="17" x2="19.125" y2="17" gradientUnits="userSpaceOnUse">
<stop stop-color="#3793AE"/>
<stop offset="1" stop-color="#074287"/>
</linearGradient>
<linearGradient id="paint1_linear_1601_2811" x1="0.134368" y1="17" x2="19.125" y2="17" gradientUnits="userSpaceOnUse">
<stop stop-color="#3793AE"/>
<stop offset="1" stop-color="#074287"/>
</linearGradient>
<linearGradient id="paint2_linear_1601_2811" x1="5.27201" y1="24.1592" x2="13.9041" y2="24.1592" gradientUnits="userSpaceOnUse">
<stop stop-color="#3793AE"/>
<stop offset="1" stop-color="#074287"/>
</linearGradient>
<linearGradient id="paint3_linear_1601_2811" x1="19.4611" y1="26.1602" x2="31.625" y2="26.1602" gradientUnits="userSpaceOnUse">
<stop stop-color="#3793AE"/>
<stop offset="1" stop-color="#074287"/>
</linearGradient>
</defs>
</svg>
