<svg width="52" height="35" viewBox="0 0 52 35" fill="none" xmlns="http://www.w3.org/2000/svg">
<path d="M14.75 34.4167H2.45833C1.80634 34.4167 1.18106 34.1577 0.720029 33.6966C0.259002 33.2356 0 32.6103 0 31.9583V2.45833C0 1.80634 0.259002 1.18106 0.720029 0.72003C1.18106 0.259003 1.80634 0 2.45833 0H18.7448L15.8759 4.91667H4.91667V29.5H14.75V34.4167ZM25.5052 34.4167L28.3741 29.5H39.3333V4.91667H29.5V0H41.7917C42.4437 0 43.0689 0.259003 43.53 0.72003C43.991 1.18106 44.25 1.80634 44.25 2.45833V31.9583C44.25 32.6103 43.991 33.2356 43.53 33.6966C43.0689 34.1577 42.4437 34.4167 41.7917 34.4167H25.5052ZM46.7083 9.83333H51.625V24.5833H46.7083V9.83333ZM24.5833 14.75H31.9583L19.6667 34.4167V19.6667H12.2917L24.5833 0V14.75Z" fill="url(#paint0_linear_1211_2634)"/>
<path d="M14.75 34.4167H2.45833C1.80634 34.4167 1.18106 34.1577 0.720029 33.6966C0.259002 33.2356 0 32.6103 0 31.9583V2.45833C0 1.80634 0.259002 1.18106 0.720029 0.72003C1.18106 0.259003 1.80634 0 2.45833 0H18.7448L15.8759 4.91667H4.91667V29.5H14.75V34.4167ZM25.5052 34.4167L28.3741 29.5H39.3333V4.91667H29.5V0H41.7917C42.4437 0 43.0689 0.259003 43.53 0.72003C43.991 1.18106 44.25 1.80634 44.25 2.45833V31.9583C44.25 32.6103 43.991 33.2356 43.53 33.6966C43.0689 34.1577 42.4437 34.4167 41.7917 34.4167H25.5052ZM46.7083 9.83333H51.625V24.5833H46.7083V9.83333ZM24.5833 14.75H31.9583L19.6667 34.4167V19.6667H12.2917L24.5833 0V14.75Z" fill="white" fill-opacity="0.48"/>
<defs>
<linearGradient id="paint0_linear_1211_2634" x1="0.362705" y1="17.2083" x2="51.625" y2="17.2083" gradientUnits="userSpaceOnUse">
<stop stop-color="#3793AE"/>
<stop offset="1" stop-color="#074287"/>
</linearGradient>
</defs>
</svg>
