<svg width="144" height="47" viewBox="0 0 144 47" fill="none" xmlns="http://www.w3.org/2000/svg">
<path d="M0 31.4374V10.1201H5.26488V26.9585H13.4983V31.4374H0Z" fill="url(#paint0_linear_1601_2733)"/>
<path d="M0 31.4374V10.1201H5.26488V26.9585H13.4983V31.4374H0Z" fill="white" fill-opacity="0.55"/>
<path d="M40.2688 14.0604V19.8149H45.0856C46.9619 19.8149 47.9141 18.8511 47.9141 16.9518C47.9141 15.0242 46.9899 14.0888 45.0856 14.0888H40.2688V14.0604ZM35.0039 31.4374V10.1201H45.5337C50.6305 10.1201 53.1789 12.4446 53.1789 17.1219C53.1789 18.5109 52.7869 19.7015 52.0027 20.722C51.2186 21.7426 50.1544 22.4796 48.8382 22.8764L53.655 31.4374H47.774L43.6293 23.7552H40.2688V31.4374H35.0039Z" fill="url(#paint1_linear_1601_2733)"/>
<path d="M40.2688 14.0604V19.8149H45.0856C46.9619 19.8149 47.9141 18.8511 47.9141 16.9518C47.9141 15.0242 46.9899 14.0888 45.0856 14.0888H40.2688V14.0604ZM35.0039 31.4374V10.1201H45.5337C50.6305 10.1201 53.1789 12.4446 53.1789 17.1219C53.1789 18.5109 52.7869 19.7015 52.0027 20.722C51.2186 21.7426 50.1544 22.4796 48.8382 22.8764L53.655 31.4374H47.774L43.6293 23.7552H40.2688V31.4374H35.0039Z" fill="white" fill-opacity="0.55"/>
<path d="M65.0816 24.8042V23.6986L61.973 24.6058C60.4888 25.031 59.7607 25.7113 59.7607 26.6751C59.7607 27.8657 60.4888 28.461 61.917 28.461C62.8692 28.461 63.6253 28.1492 64.2134 27.5255C64.7735 26.8735 65.0816 25.9664 65.0816 24.8042ZM69.5063 19.7017V28.1208C69.5063 29.6232 69.6463 30.7288 69.9264 31.4375H65.6697C65.5016 30.9272 65.4176 30.3886 65.3896 29.7933H65.3336C64.9695 30.3886 64.2694 30.8989 63.2893 31.2957C62.3931 31.6643 61.497 31.8627 60.6008 31.8627C59.0326 31.8627 57.8003 31.4658 56.8482 30.6438C55.84 29.7933 55.3359 28.6027 55.3359 27.1287C55.3359 25.3144 56.0641 23.9254 57.4923 22.99C58.7245 22.1962 60.6848 21.6009 63.4013 21.2324L65.0816 21.0056V19.6733C65.0816 18.5394 64.3534 17.9725 62.8972 17.9725C62.1411 17.9725 61.581 18.1425 61.2169 18.4544C60.8529 18.7662 60.6008 19.3331 60.4888 20.0985H56.008C56.0921 16.7535 58.2764 15.1094 62.5051 15.1094C64.8015 15.1094 66.5098 15.4212 67.63 16.0732C68.8902 16.7819 69.5063 18.0008 69.5063 19.7017Z" fill="url(#paint2_linear_1601_2733)"/>
<path d="M65.0816 24.8042V23.6986L61.973 24.6058C60.4888 25.031 59.7607 25.7113 59.7607 26.6751C59.7607 27.8657 60.4888 28.461 61.917 28.461C62.8692 28.461 63.6253 28.1492 64.2134 27.5255C64.7735 26.8735 65.0816 25.9664 65.0816 24.8042ZM69.5063 19.7017V28.1208C69.5063 29.6232 69.6463 30.7288 69.9264 31.4375H65.6697C65.5016 30.9272 65.4176 30.3886 65.3896 29.7933H65.3336C64.9695 30.3886 64.2694 30.8989 63.2893 31.2957C62.3931 31.6643 61.497 31.8627 60.6008 31.8627C59.0326 31.8627 57.8003 31.4658 56.8482 30.6438C55.84 29.7933 55.3359 28.6027 55.3359 27.1287C55.3359 25.3144 56.0641 23.9254 57.4923 22.99C58.7245 22.1962 60.6848 21.6009 63.4013 21.2324L65.0816 21.0056V19.6733C65.0816 18.5394 64.3534 17.9725 62.8972 17.9725C62.1411 17.9725 61.581 18.1425 61.2169 18.4544C60.8529 18.7662 60.6008 19.3331 60.4888 20.0985H56.008C56.0921 16.7535 58.2764 15.1094 62.5051 15.1094C64.8015 15.1094 66.5098 15.4212 67.63 16.0732C68.8902 16.7819 69.5063 18.0008 69.5063 19.7017Z" fill="white" fill-opacity="0.55"/>
<path d="M23.5257 18.6528C22.2655 18.6528 21.3134 19.1064 20.6693 20.0419C20.0812 20.8923 19.7731 22.0262 19.7731 23.4719C19.7731 24.9176 20.0812 26.0515 20.6693 26.9019C21.3134 27.8374 22.2655 28.2909 23.5257 28.2909C26.0462 28.2909 27.2784 26.6184 27.2784 23.2735C27.2784 21.9128 26.9703 20.8072 26.3822 19.9852C25.7381 19.1064 24.7859 18.6528 23.5257 18.6528ZM23.5257 15.0811C26.0462 15.0811 28.0625 15.8181 29.6028 17.2922C31.143 18.7662 31.8991 20.8356 31.8991 23.4719C31.8991 26.1082 31.143 28.1776 29.6028 29.6516C28.0625 31.1257 26.0462 31.8627 23.5257 31.8627C21.0053 31.8627 18.989 31.1257 17.4487 29.6516C15.9085 28.1776 15.1523 26.1082 15.1523 23.4719C15.1523 20.8356 15.9085 18.7662 17.4487 17.2922C19.017 15.8181 21.0333 15.0811 23.5257 15.0811Z" fill="url(#paint3_linear_1601_2733)"/>
<path d="M23.5257 18.6528C22.2655 18.6528 21.3134 19.1064 20.6693 20.0419C20.0812 20.8923 19.7731 22.0262 19.7731 23.4719C19.7731 24.9176 20.0812 26.0515 20.6693 26.9019C21.3134 27.8374 22.2655 28.2909 23.5257 28.2909C26.0462 28.2909 27.2784 26.6184 27.2784 23.2735C27.2784 21.9128 26.9703 20.8072 26.3822 19.9852C25.7381 19.1064 24.7859 18.6528 23.5257 18.6528ZM23.5257 15.0811C26.0462 15.0811 28.0625 15.8181 29.6028 17.2922C31.143 18.7662 31.8991 20.8356 31.8991 23.4719C31.8991 26.1082 31.143 28.1776 29.6028 29.6516C28.0625 31.1257 26.0462 31.8627 23.5257 31.8627C21.0053 31.8627 18.989 31.1257 17.4487 29.6516C15.9085 28.1776 15.1523 26.1082 15.1523 23.4719C15.1523 20.8356 15.9085 18.7662 17.4487 17.2922C19.017 15.8181 21.0333 15.0811 23.5257 15.0811Z" fill="white" fill-opacity="0.55"/>
<path d="M23.3852 11.9058C25.6816 11.9058 27.838 12.5862 29.6303 13.7767L30.5264 12.4728C28.4541 11.1121 26.0177 10.3184 23.3852 10.3184C20.8648 10.3184 18.5124 11.0554 16.4961 12.3027L17.3922 13.6067C19.1565 12.5011 21.2009 11.9058 23.3852 11.9058Z" fill="url(#paint4_linear_1601_2733)"/>
<path d="M23.3852 11.9058C25.6816 11.9058 27.838 12.5862 29.6303 13.7767L30.5264 12.4728C28.4541 11.1121 26.0177 10.3184 23.3852 10.3184C20.8648 10.3184 18.5124 11.0554 16.4961 12.3027L17.3922 13.6067C19.1565 12.5011 21.2009 11.9058 23.3852 11.9058Z" fill="white" fill-opacity="0.38"/>
<path d="M13.6953 8.22054L14.8995 9.94973C17.3639 8.36227 20.2764 7.45516 23.3849 7.45516C26.6335 7.45516 29.63 8.44732 32.1504 10.1198L33.3546 8.39062C30.4981 6.463 27.0535 5.3291 23.3849 5.3291C19.8283 5.3291 16.4958 6.4063 13.6953 8.22054Z" fill="url(#paint5_linear_1601_2733)"/>
<path d="M13.6953 8.22054L14.8995 9.94973C17.3639 8.36227 20.2764 7.45516 23.3849 7.45516C26.6335 7.45516 29.63 8.44732 32.1504 10.1198L33.3546 8.39062C30.4981 6.463 27.0535 5.3291 23.3849 5.3291C19.8283 5.3291 16.4958 6.4063 13.6953 8.22054Z" fill="white" fill-opacity="0.38"/>
<path d="M23.3827 2.91954C27.5834 2.91954 31.476 4.19517 34.7526 6.40627L36.2648 4.22352C32.5962 1.7006 28.1435 0.254883 23.3827 0.254883C18.7619 0.254883 14.4212 1.64391 10.8086 4.02509L12.3208 6.20784C15.5134 4.13848 19.294 2.91954 23.3827 2.91954Z" fill="url(#paint6_linear_1601_2733)"/>
<path d="M23.3827 2.91954C27.5834 2.91954 31.476 4.19517 34.7526 6.40627L36.2648 4.22352C32.5962 1.7006 28.1435 0.254883 23.3827 0.254883C18.7619 0.254883 14.4212 1.64391 10.8086 4.02509L12.3208 6.20784C15.5134 4.13848 19.294 2.91954 23.3827 2.91954Z" fill="white" fill-opacity="0.38"/>
<path d="M23.692 35.0936C21.3956 35.0936 19.2392 34.4132 17.4469 33.2227L16.5508 34.5266C18.6231 35.8873 21.0595 36.681 23.72 36.681C26.2404 36.681 28.5928 35.944 30.6091 34.6967L29.713 33.3927C27.9207 34.4983 25.8763 35.0936 23.692 35.0936Z" fill="url(#paint7_linear_1601_2733)"/>
<path d="M23.692 35.0936C21.3956 35.0936 19.2392 34.4132 17.4469 33.2227L16.5508 34.5266C18.6231 35.8873 21.0595 36.681 23.72 36.681C26.2404 36.681 28.5928 35.944 30.6091 34.6967L29.713 33.3927C27.9207 34.4983 25.8763 35.0936 23.692 35.0936Z" fill="white" fill-opacity="0.38"/>
<path d="M33.3819 38.7792L32.1777 37.05C29.7133 38.6374 26.8008 39.5445 23.6923 39.5445C20.4438 39.5445 17.4473 38.5524 14.9269 36.8799L13.7227 38.6091C16.5791 40.5367 19.9957 41.6706 23.6923 41.6706C27.2489 41.6706 30.5815 40.5934 33.3819 38.7792Z" fill="url(#paint8_linear_1601_2733)"/>
<path d="M33.3819 38.7792L32.1777 37.05C29.7133 38.6374 26.8008 39.5445 23.6923 39.5445C20.4438 39.5445 17.4473 38.5524 14.9269 36.8799L13.7227 38.6091C16.5791 40.5367 19.9957 41.6706 23.6923 41.6706C27.2489 41.6706 30.5815 40.5934 33.3819 38.7792Z" fill="white" fill-opacity="0.38"/>
<path d="M23.6907 44.0795C19.49 44.0795 15.5974 42.8039 12.3208 40.5928L10.8086 42.7755C14.4772 45.2701 18.9299 46.7442 23.6907 46.7442C28.3115 46.7442 32.6522 45.3551 36.2648 42.974L34.7526 40.7912C31.5601 42.8606 27.7514 44.0795 23.6907 44.0795Z" fill="url(#paint9_linear_1601_2733)"/>
<path d="M23.6907 44.0795C19.49 44.0795 15.5974 42.8039 12.3208 40.5928L10.8086 42.7755C14.4772 45.2701 18.9299 46.7442 23.6907 46.7442C28.3115 46.7442 32.6522 45.3551 36.2648 42.974L34.7526 40.7912C31.5601 42.8606 27.7514 44.0795 23.6907 44.0795Z" fill="white" fill-opacity="0.38"/>
<path fill-rule="evenodd" clip-rule="evenodd" d="M72.7266 10.0068H77.8514V21.9978L86.0288 10.0068C86.0288 10.0068 88.7452 10.0068 90.1175 10.0068C90.1175 13.9755 90.1175 21.9978 90.1175 21.9978L98.2948 10.0068H104.428L90.1175 31.2957H84.9926V20.9489L77.8514 31.2957H72.7546V10.0068H72.7266Z" fill="url(#paint10_linear_1601_2733)"/>
<path fill-rule="evenodd" clip-rule="evenodd" d="M72.7266 10.0068H77.8514V21.9978L86.0288 10.0068C86.0288 10.0068 88.7452 10.0068 90.1175 10.0068C90.1175 13.9755 90.1175 21.9978 90.1175 21.9978L98.2948 10.0068H104.428L90.1175 31.2957H84.9926V20.9489L77.8514 31.2957H72.7546V10.0068H72.7266Z" fill="white" fill-opacity="0.39"/>
<path fill-rule="evenodd" clip-rule="evenodd" d="M135.488 10.0068V31.2957H130.027L122.662 20.1269V31.2957H117.621V10.0068H122.858L130.391 21.7143V10.0068H135.488Z" fill="url(#paint11_linear_1601_2733)"/>
<path fill-rule="evenodd" clip-rule="evenodd" d="M135.488 10.0068V31.2957H130.027L122.662 20.1269V31.2957H117.621V10.0068H122.858L130.391 21.7143V10.0068H135.488Z" fill="white" fill-opacity="0.39"/>
<path fill-rule="evenodd" clip-rule="evenodd" d="M113.894 10.0068V31.2957H108.91V28.2342H101.992L99.892 31.3241H94.0391L108.714 10.0352H113.894V10.0068ZM104.961 23.8404H108.91V17.9725L104.961 23.8404Z" fill="url(#paint12_linear_1601_2733)"/>
<path fill-rule="evenodd" clip-rule="evenodd" d="M113.894 10.0068V31.2957H108.91V28.2342H101.992L99.892 31.3241H94.0391L108.714 10.0352H113.894V10.0068ZM104.961 23.8404H108.91V17.9725L104.961 23.8404Z" fill="white" fill-opacity="0.39"/>
<defs>
<linearGradient id="paint0_linear_1601_2733" x1="0.0948355" y1="20.7787" x2="13.4983" y2="20.7787" gradientUnits="userSpaceOnUse">
<stop stop-color="#3793AE"/>
<stop offset="1" stop-color="#074287"/>
</linearGradient>
<linearGradient id="paint1_linear_1601_2733" x1="35.1349" y1="20.7787" x2="53.655" y2="20.7787" gradientUnits="userSpaceOnUse">
<stop stop-color="#3793AE"/>
<stop offset="1" stop-color="#074287"/>
</linearGradient>
<linearGradient id="paint2_linear_1601_2733" x1="55.4384" y1="23.486" x2="69.9264" y2="23.486" gradientUnits="userSpaceOnUse">
<stop stop-color="#3793AE"/>
<stop offset="1" stop-color="#074287"/>
</linearGradient>
<linearGradient id="paint3_linear_1601_2733" x1="15.27" y1="23.4719" x2="31.8991" y2="23.4719" gradientUnits="userSpaceOnUse">
<stop stop-color="#3793AE"/>
<stop offset="1" stop-color="#074287"/>
</linearGradient>
<linearGradient id="paint4_linear_1601_2733" x1="16.5947" y1="12.0476" x2="30.5264" y2="12.0476" gradientUnits="userSpaceOnUse">
<stop stop-color="#3793AE"/>
<stop offset="1" stop-color="#074287"/>
</linearGradient>
<linearGradient id="paint5_linear_1601_2733" x1="13.8334" y1="7.72446" x2="33.3546" y2="7.72446" gradientUnits="userSpaceOnUse">
<stop stop-color="#3793AE"/>
<stop offset="1" stop-color="#074287"/>
</linearGradient>
<linearGradient id="paint6_linear_1601_2733" x1="10.9874" y1="3.33058" x2="36.2648" y2="3.33058" gradientUnits="userSpaceOnUse">
<stop stop-color="#3793AE"/>
<stop offset="1" stop-color="#074287"/>
</linearGradient>
<linearGradient id="paint7_linear_1601_2733" x1="16.6496" y1="34.9518" x2="30.6091" y2="34.9518" gradientUnits="userSpaceOnUse">
<stop stop-color="#3793AE"/>
<stop offset="1" stop-color="#074287"/>
</linearGradient>
<linearGradient id="paint8_linear_1601_2733" x1="13.8608" y1="39.2752" x2="33.3819" y2="39.2752" gradientUnits="userSpaceOnUse">
<stop stop-color="#3793AE"/>
<stop offset="1" stop-color="#074287"/>
</linearGradient>
<linearGradient id="paint9_linear_1601_2733" x1="10.9874" y1="43.6685" x2="36.2648" y2="43.6685" gradientUnits="userSpaceOnUse">
<stop stop-color="#3793AE"/>
<stop offset="1" stop-color="#074287"/>
</linearGradient>
<linearGradient id="paint10_linear_1601_2733" x1="72.9493" y1="20.6513" x2="104.428" y2="20.6513" gradientUnits="userSpaceOnUse">
<stop stop-color="#3793AE"/>
<stop offset="1" stop-color="#074287"/>
</linearGradient>
<linearGradient id="paint11_linear_1601_2733" x1="117.747" y1="20.6513" x2="135.488" y2="20.6513" gradientUnits="userSpaceOnUse">
<stop stop-color="#3793AE"/>
<stop offset="1" stop-color="#074287"/>
</linearGradient>
<linearGradient id="paint12_linear_1601_2733" x1="94.1786" y1="20.6655" x2="113.894" y2="20.6655" gradientUnits="userSpaceOnUse">
<stop stop-color="#3793AE"/>
<stop offset="1" stop-color="#074287"/>
</linearGradient>
</defs>
</svg>
