<svg width="22" height="21" viewBox="0 0 22 21" fill="none" xmlns="http://www.w3.org/2000/svg">
<path d="M14.5918 0.288906C14.5128 0.320524 14.3982 0.379807 14.335 0.427233C14.2717 0.470707 13.3232 1.40737 12.2245 2.50607C11.1258 3.60478 10.2128 4.50588 10.197 4.50588C10.1812 4.50588 10.1022 4.44264 10.0231 4.36755C9.90852 4.25689 9.84924 4.22922 9.71882 4.22922C9.56073 4.22922 9.54492 4.24503 7.48189 6.30411L5.40699 8.37901L4.56518 10.8965C4.10673 12.2838 3.72732 13.4773 3.72732 13.5524C3.72732 13.667 3.7787 13.7382 4.11068 14.0741C4.45452 14.4258 4.48614 14.4693 4.43476 14.5325C4.40314 14.5681 4.20158 14.7776 3.98816 14.9989C3.77079 15.2163 3.56528 15.4653 3.52576 15.5522C3.43486 15.7459 3.43091 16.0027 3.50995 16.1925C3.56923 16.3308 3.56528 16.3387 3.48229 16.4335C3.43091 16.4849 2.83808 17.0856 2.15831 17.7615C1.37973 18.54 0.917326 19.0341 0.901517 19.1013C0.885708 19.1605 0.881756 19.2475 0.893613 19.2989C0.909421 19.3463 1.16631 19.6308 1.46668 19.9312C1.98046 20.441 2.02393 20.4727 2.16621 20.4727C2.3164 20.4727 2.35987 20.4331 3.66804 19.1289L5.01573 17.7812L5.13429 17.8445C5.30424 17.9314 5.65203 17.9196 5.84173 17.8207C5.92868 17.7773 6.20138 17.5401 6.44246 17.2991L6.88906 16.8604L7.27637 17.2437C7.63602 17.5955 7.67949 17.6271 7.82177 17.6271C7.91663 17.6271 8.93629 17.307 10.4816 16.7892L12.9873 15.9553L15.0384 13.9002C16.1688 12.7659 17.1094 11.8016 17.1291 11.7502C17.1805 11.6158 17.141 11.5012 16.9829 11.3273C16.9078 11.2483 16.8485 11.1732 16.8485 11.1653C16.8485 11.1534 17.7536 10.2405 18.8641 9.12992C19.9708 8.01936 20.9272 7.03922 20.9865 6.94832C21.0853 6.80209 21.0971 6.75071 21.0971 6.44639C21.0971 6.13022 21.0892 6.0907 20.9707 5.9089C20.7849 5.61644 15.5641 0.427233 15.3704 0.336332C15.1649 0.245432 14.7736 0.22172 14.5918 0.288906ZM15.3507 1.21371L15.6234 1.47851L14.7934 2.30847C14.335 2.76692 13.9437 3.17004 13.9239 3.20166C13.9042 3.23327 13.8844 3.32417 13.8844 3.39927C13.8844 3.52574 14.0069 3.66011 15.8526 5.50182L17.8168 7.47001H17.9907H18.1686L19.0301 6.61238L19.8917 5.75476L20.1486 6.0077C20.4253 6.28435 20.4806 6.41477 20.3897 6.58867C20.3581 6.64795 19.4372 7.59252 18.3425 8.68727L16.3545 10.6713L15.4139 9.73065L14.4772 8.79398L15.0898 8.1814C15.7419 7.52929 15.817 7.41072 15.6906 7.22102C15.6589 7.17359 15.3032 6.80209 14.9001 6.39897C14.1255 5.62039 14.0504 5.57296 13.8251 5.67177C13.7619 5.69943 13.4497 5.98399 13.1335 6.30016L12.5604 6.87718L11.6317 5.94842L10.699 5.01571L12.7343 2.98429C14.7262 0.992393 14.7736 0.948919 14.9238 0.948919C15.0582 0.948919 15.1096 0.980537 15.3507 1.21371ZM16.3348 2.19385L16.5482 2.41518L15.8486 3.11471L15.1491 3.81425L14.9238 3.58897L14.7025 3.3637L15.3902 2.67602C15.7696 2.29266 16.0858 1.98044 16.0976 1.98044C16.1095 1.97648 16.2162 2.07529 16.3348 2.19385ZM17.2793 3.14633L17.4927 3.36765L16.7932 4.06323L16.0976 4.76277L15.8763 4.54144L15.655 4.32012L16.3427 3.62849C16.7181 3.24513 17.0343 2.93291 17.0461 2.92896C17.058 2.925 17.1647 3.02381 17.2793 3.14633ZM18.2278 4.09485L18.4413 4.31617L17.7417 5.01175L17.0461 5.71129L16.8209 5.48601L16.5916 5.25679L17.2833 4.56516C17.6627 4.18575 17.9828 3.87353 17.9947 3.87353C18.0065 3.87353 18.1132 3.97233 18.2278 4.09485ZM19.1764 5.04337L19.3898 5.26469L18.6902 5.96027L17.9947 6.65981L17.7694 6.43058L17.5402 6.20531L18.2318 5.51368C18.6112 5.13427 18.9313 4.82205 18.9432 4.82205C18.955 4.82205 19.0618 4.92085 19.1764 5.04337ZM10.8847 6.20136C11.5131 6.82975 12.0269 7.35539 12.0269 7.3712C12.0269 7.39096 11.6751 7.76247 11.2444 8.19721C10.5211 8.93231 10.4539 9.01135 10.367 9.24848C10.0271 10.1575 10.6515 11.0744 11.6119 11.0783C11.8095 11.0823 11.9557 11.0546 12.1257 10.9874C12.3352 10.9084 12.4537 10.8056 13.1572 10.1101C13.5919 9.67927 13.9635 9.32753 13.9793 9.32753C14.0148 9.32753 16.2952 11.6158 16.2952 11.6514C16.2952 11.6949 12.841 15.1372 12.7976 15.1372C12.7738 15.1372 12.5881 14.9673 12.3826 14.7618C12.0387 14.4179 11.9953 14.3863 11.8569 14.3863C11.6712 14.3863 11.5131 14.5286 11.5131 14.6946C11.5131 14.829 11.6119 14.9673 11.9162 15.2676C12.0427 15.3902 12.1296 15.4969 12.1099 15.5087C12.0901 15.5206 11.1456 15.8407 10.0073 16.2241L7.93639 16.9157L6.20929 15.1846C5.25681 14.2361 4.47823 13.4417 4.47428 13.418C4.47033 13.3469 5.84173 9.24848 5.8694 9.24848C5.88521 9.24848 6.9602 10.3116 8.25651 11.6079C9.55282 12.9082 10.6634 14.0029 10.7187 14.0385C10.8649 14.1373 10.9993 14.1255 11.1258 14.0029C11.2048 13.9279 11.2365 13.8607 11.2365 13.7579C11.2365 13.6235 11.1021 13.4813 8.71892 11.0981C7.33566 9.71484 6.21324 8.56476 6.22905 8.54895C6.35156 8.41062 9.71486 5.05918 9.72672 5.05918C9.73858 5.05918 10.2603 5.57296 10.8847 6.20136ZM13.4694 8.8177C12.6869 9.60023 11.9795 10.276 11.9004 10.3195C11.7068 10.4183 11.4894 10.4144 11.3076 10.3037C11.0151 10.1259 10.9005 9.84526 10.9993 9.54885C11.0349 9.44214 11.4143 9.03902 12.5091 7.94031L13.9753 6.47406L14.4338 6.93251L14.8922 7.39096L13.4694 8.8177ZM5.70341 15.6708L6.39504 16.3624L5.95635 16.7971C5.71526 17.0382 5.49394 17.2319 5.46628 17.2319C5.43466 17.2319 5.12244 16.9394 4.76674 16.5877C4.25296 16.0739 4.12649 15.9237 4.14625 15.8644C4.16996 15.7933 4.94854 14.9791 4.99202 14.9791C5.00387 14.9791 5.324 15.2914 5.70341 15.6708ZM4.28063 17.0935L4.49799 17.3109L3.3321 18.4768L2.16621 19.6427L1.94094 19.4174L1.71171 19.1882L2.86575 18.0342C3.50205 17.3979 4.03164 16.8762 4.04349 16.8762C4.05535 16.8762 4.16206 16.975 4.28063 17.0935Z" fill="black"/>
<path d="M14.5918 0.288906C14.5128 0.320524 14.3982 0.379807 14.335 0.427233C14.2717 0.470707 13.3232 1.40737 12.2245 2.50607C11.1258 3.60478 10.2128 4.50588 10.197 4.50588C10.1812 4.50588 10.1022 4.44264 10.0231 4.36755C9.90852 4.25689 9.84924 4.22922 9.71882 4.22922C9.56073 4.22922 9.54492 4.24503 7.48189 6.30411L5.40699 8.37901L4.56518 10.8965C4.10673 12.2838 3.72732 13.4773 3.72732 13.5524C3.72732 13.667 3.7787 13.7382 4.11068 14.0741C4.45452 14.4258 4.48614 14.4693 4.43476 14.5325C4.40314 14.5681 4.20158 14.7776 3.98816 14.9989C3.77079 15.2163 3.56528 15.4653 3.52576 15.5522C3.43486 15.7459 3.43091 16.0027 3.50995 16.1925C3.56923 16.3308 3.56528 16.3387 3.48229 16.4335C3.43091 16.4849 2.83808 17.0856 2.15831 17.7615C1.37973 18.54 0.917326 19.0341 0.901517 19.1013C0.885708 19.1605 0.881756 19.2475 0.893613 19.2989C0.909421 19.3463 1.16631 19.6308 1.46668 19.9312C1.98046 20.441 2.02393 20.4727 2.16621 20.4727C2.3164 20.4727 2.35987 20.4331 3.66804 19.1289L5.01573 17.7812L5.13429 17.8445C5.30424 17.9314 5.65203 17.9196 5.84173 17.8207C5.92868 17.7773 6.20138 17.5401 6.44246 17.2991L6.88906 16.8604L7.27637 17.2437C7.63602 17.5955 7.67949 17.6271 7.82177 17.6271C7.91663 17.6271 8.93629 17.307 10.4816 16.7892L12.9873 15.9553L15.0384 13.9002C16.1688 12.7659 17.1094 11.8016 17.1291 11.7502C17.1805 11.6158 17.141 11.5012 16.9829 11.3273C16.9078 11.2483 16.8485 11.1732 16.8485 11.1653C16.8485 11.1534 17.7536 10.2405 18.8641 9.12992C19.9708 8.01936 20.9272 7.03922 20.9865 6.94832C21.0853 6.80209 21.0971 6.75071 21.0971 6.44639C21.0971 6.13022 21.0892 6.0907 20.9707 5.9089C20.7849 5.61644 15.5641 0.427233 15.3704 0.336332C15.1649 0.245432 14.7736 0.22172 14.5918 0.288906ZM15.3507 1.21371L15.6234 1.47851L14.7934 2.30847C14.335 2.76692 13.9437 3.17004 13.9239 3.20166C13.9042 3.23327 13.8844 3.32417 13.8844 3.39927C13.8844 3.52574 14.0069 3.66011 15.8526 5.50182L17.8168 7.47001H17.9907H18.1686L19.0301 6.61238L19.8917 5.75476L20.1486 6.0077C20.4253 6.28435 20.4806 6.41477 20.3897 6.58867C20.3581 6.64795 19.4372 7.59252 18.3425 8.68727L16.3545 10.6713L15.4139 9.73065L14.4772 8.79398L15.0898 8.1814C15.7419 7.52929 15.817 7.41072 15.6906 7.22102C15.6589 7.17359 15.3032 6.80209 14.9001 6.39897C14.1255 5.62039 14.0504 5.57296 13.8251 5.67177C13.7619 5.69943 13.4497 5.98399 13.1335 6.30016L12.5604 6.87718L11.6317 5.94842L10.699 5.01571L12.7343 2.98429C14.7262 0.992393 14.7736 0.948919 14.9238 0.948919C15.0582 0.948919 15.1096 0.980537 15.3507 1.21371ZM16.3348 2.19385L16.5482 2.41518L15.8486 3.11471L15.1491 3.81425L14.9238 3.58897L14.7025 3.3637L15.3902 2.67602C15.7696 2.29266 16.0858 1.98044 16.0976 1.98044C16.1095 1.97648 16.2162 2.07529 16.3348 2.19385ZM17.2793 3.14633L17.4927 3.36765L16.7932 4.06323L16.0976 4.76277L15.8763 4.54144L15.655 4.32012L16.3427 3.62849C16.7181 3.24513 17.0343 2.93291 17.0461 2.92896C17.058 2.925 17.1647 3.02381 17.2793 3.14633ZM18.2278 4.09485L18.4413 4.31617L17.7417 5.01175L17.0461 5.71129L16.8209 5.48601L16.5916 5.25679L17.2833 4.56516C17.6627 4.18575 17.9828 3.87353 17.9947 3.87353C18.0065 3.87353 18.1132 3.97233 18.2278 4.09485ZM19.1764 5.04337L19.3898 5.26469L18.6902 5.96027L17.9947 6.65981L17.7694 6.43058L17.5402 6.20531L18.2318 5.51368C18.6112 5.13427 18.9313 4.82205 18.9432 4.82205C18.955 4.82205 19.0618 4.92085 19.1764 5.04337ZM10.8847 6.20136C11.5131 6.82975 12.0269 7.35539 12.0269 7.3712C12.0269 7.39096 11.6751 7.76247 11.2444 8.19721C10.5211 8.93231 10.4539 9.01135 10.367 9.24848C10.0271 10.1575 10.6515 11.0744 11.6119 11.0783C11.8095 11.0823 11.9557 11.0546 12.1257 10.9874C12.3352 10.9084 12.4537 10.8056 13.1572 10.1101C13.5919 9.67927 13.9635 9.32753 13.9793 9.32753C14.0148 9.32753 16.2952 11.6158 16.2952 11.6514C16.2952 11.6949 12.841 15.1372 12.7976 15.1372C12.7738 15.1372 12.5881 14.9673 12.3826 14.7618C12.0387 14.4179 11.9953 14.3863 11.8569 14.3863C11.6712 14.3863 11.5131 14.5286 11.5131 14.6946C11.5131 14.829 11.6119 14.9673 11.9162 15.2676C12.0427 15.3902 12.1296 15.4969 12.1099 15.5087C12.0901 15.5206 11.1456 15.8407 10.0073 16.2241L7.93639 16.9157L6.20929 15.1846C5.25681 14.2361 4.47823 13.4417 4.47428 13.418C4.47033 13.3469 5.84173 9.24848 5.8694 9.24848C5.88521 9.24848 6.9602 10.3116 8.25651 11.6079C9.55282 12.9082 10.6634 14.0029 10.7187 14.0385C10.8649 14.1373 10.9993 14.1255 11.1258 14.0029C11.2048 13.9279 11.2365 13.8607 11.2365 13.7579C11.2365 13.6235 11.1021 13.4813 8.71892 11.0981C7.33566 9.71484 6.21324 8.56476 6.22905 8.54895C6.35156 8.41062 9.71486 5.05918 9.72672 5.05918C9.73858 5.05918 10.2603 5.57296 10.8847 6.20136ZM13.4694 8.8177C12.6869 9.60023 11.9795 10.276 11.9004 10.3195C11.7068 10.4183 11.4894 10.4144 11.3076 10.3037C11.0151 10.1259 10.9005 9.84526 10.9993 9.54885C11.0349 9.44214 11.4143 9.03902 12.5091 7.94031L13.9753 6.47406L14.4338 6.93251L14.8922 7.39096L13.4694 8.8177ZM5.70341 15.6708L6.39504 16.3624L5.95635 16.7971C5.71526 17.0382 5.49394 17.2319 5.46628 17.2319C5.43466 17.2319 5.12244 16.9394 4.76674 16.5877C4.25296 16.0739 4.12649 15.9237 4.14625 15.8644C4.16996 15.7933 4.94854 14.9791 4.99202 14.9791C5.00387 14.9791 5.324 15.2914 5.70341 15.6708ZM4.28063 17.0935L4.49799 17.3109L3.3321 18.4768L2.16621 19.6427L1.94094 19.4174L1.71171 19.1882L2.86575 18.0342C3.50205 17.3979 4.03164 16.8762 4.04349 16.8762C4.05535 16.8762 4.16206 16.975 4.28063 17.0935Z" fill="url(#paint0_linear_1211_2448)"/>
<path d="M5.96655 11.1459C5.85588 11.2368 5.80846 11.379 5.85193 11.4976C5.86774 11.545 6.66213 12.3631 7.61855 13.3235C9.91081 15.6197 9.81991 15.5328 9.95824 15.5328C10.1282 15.5328 10.2863 15.351 10.2863 15.1652C10.2863 15.0229 10.2151 14.9439 8.38132 13.1101C7.334 12.0628 6.4329 11.1735 6.37757 11.138C6.2432 11.0471 6.09301 11.0471 5.96655 11.1459Z" fill="black"/>
<path d="M5.96655 11.1459C5.85588 11.2368 5.80846 11.379 5.85193 11.4976C5.86774 11.545 6.66213 12.3631 7.61855 13.3235C9.91081 15.6197 9.81991 15.5328 9.95824 15.5328C10.1282 15.5328 10.2863 15.351 10.2863 15.1652C10.2863 15.0229 10.2151 14.9439 8.38132 13.1101C7.334 12.0628 6.4329 11.1735 6.37757 11.138C6.2432 11.0471 6.09301 11.0471 5.96655 11.1459Z" fill="url(#paint1_linear_1211_2448)"/>
<defs>
<linearGradient id="paint0_linear_1211_2448" x1="14.1661" y1="17.1365" x2="22.1442" y2="16.7064" gradientUnits="userSpaceOnUse">
<stop stop-color="#3793AE"/>
<stop offset="1" stop-color="#074287"/>
</linearGradient>
<linearGradient id="paint1_linear_1211_2448" x1="8.76007" y1="14.797" x2="10.5169" y2="14.7025" gradientUnits="userSpaceOnUse">
<stop stop-color="#3793AE"/>
<stop offset="1" stop-color="#074287"/>
</linearGradient>
</defs>
</svg>
