<svg width="48" height="48" viewBox="0 0 48 48" fill="none" xmlns="http://www.w3.org/2000/svg">
<path fill-rule="evenodd" clip-rule="evenodd" d="M26.701 16.4936C27.0037 15.2509 25.4776 14.4518 24.7115 15.4518L16.2528 26.4925C15.6548 27.273 16.1849 28.4317 17.1399 28.4317H21.2772L19.9532 34.5377C19.6862 35.7692 21.1896 36.5339 21.9473 35.5519L30.7434 24.1531C31.3936 23.3105 30.7214 22.0693 29.6979 22.2225L25.1392 22.9051L26.701 16.4936ZM17.9309 26.8417L24.798 17.8784L23.529 23.0877C23.3285 23.9108 23.99 24.6834 24.7923 24.5633L28.957 23.9397L21.7942 33.2218L22.8618 28.2985C23.0236 27.5523 22.4824 26.8417 21.7523 26.8417H17.9309Z" fill="url(#paint0_linear_1601_2756)"/>
<path fill-rule="evenodd" clip-rule="evenodd" d="M26.701 16.4936C27.0037 15.2509 25.4776 14.4518 24.7115 15.4518L16.2528 26.4925C15.6548 27.273 16.1849 28.4317 17.1399 28.4317H21.2772L19.9532 34.5377C19.6862 35.7692 21.1896 36.5339 21.9473 35.5519L30.7434 24.1531C31.3936 23.3105 30.7214 22.0693 29.6979 22.2225L25.1392 22.9051L26.701 16.4936ZM17.9309 26.8417L24.798 17.8784L23.529 23.0877C23.3285 23.9108 23.99 24.6834 24.7923 24.5633L28.957 23.9397L21.7942 33.2218L22.8618 28.2985C23.0236 27.5523 22.4824 26.8417 21.7523 26.8417H17.9309Z" fill="white" fill-opacity="0.48"/>
<path fill-rule="evenodd" clip-rule="evenodd" d="M17.5874 10.7558V8.18605C17.5874 7.53099 17.0574 7 16.4036 7H8.3139C7.66006 7 7.13004 7.53099 7.13004 8.18605V10.7558H3.18386C2.53003 10.7558 2 11.2868 2 11.9419V16.8837C2 17.5388 2.53003 18.0698 3.18386 18.0698H4.1704V39.814C4.1704 40.469 4.70042 41 5.35426 41H43.0404C43.6942 41 44.2242 40.469 44.2242 39.814V18.0698H44.8161C45.47 18.0698 46 17.5388 46 16.8837V11.9419C46 11.2868 45.47 10.7558 44.8161 10.7558H40.87V8.18605C40.87 7.53099 40.34 7 39.6861 7H31.7937C31.1399 7 30.6099 7.53099 30.6099 8.18605V10.7558H17.5874ZM8.70852 8.5814V10.7558H16.009V8.5814H8.70852ZM5.74888 39.4186V18.0698H7.91928C8.35518 18.0698 8.70852 17.7158 8.70852 17.2791C8.70852 16.8424 8.35518 16.4884 7.91928 16.4884H3.57848V12.3372H44.4215V16.4884H40.0807C39.6447 16.4884 39.2915 16.8424 39.2915 17.2791C39.2915 17.7158 39.6447 18.0698 40.0807 18.0698H42.6457V39.4186H5.74888ZM32.1883 10.7558H39.2915V8.5814H32.1883V10.7558Z" fill="url(#paint1_linear_1601_2756)"/>
<path fill-rule="evenodd" clip-rule="evenodd" d="M17.5874 10.7558V8.18605C17.5874 7.53099 17.0574 7 16.4036 7H8.3139C7.66006 7 7.13004 7.53099 7.13004 8.18605V10.7558H3.18386C2.53003 10.7558 2 11.2868 2 11.9419V16.8837C2 17.5388 2.53003 18.0698 3.18386 18.0698H4.1704V39.814C4.1704 40.469 4.70042 41 5.35426 41H43.0404C43.6942 41 44.2242 40.469 44.2242 39.814V18.0698H44.8161C45.47 18.0698 46 17.5388 46 16.8837V11.9419C46 11.2868 45.47 10.7558 44.8161 10.7558H40.87V8.18605C40.87 7.53099 40.34 7 39.6861 7H31.7937C31.1399 7 30.6099 7.53099 30.6099 8.18605V10.7558H17.5874ZM8.70852 8.5814V10.7558H16.009V8.5814H8.70852ZM5.74888 39.4186V18.0698H7.91928C8.35518 18.0698 8.70852 17.7158 8.70852 17.2791C8.70852 16.8424 8.35518 16.4884 7.91928 16.4884H3.57848V12.3372H44.4215V16.4884H40.0807C39.6447 16.4884 39.2915 16.8424 39.2915 17.2791C39.2915 17.7158 39.6447 18.0698 40.0807 18.0698H42.6457V39.4186H5.74888ZM32.1883 10.7558H39.2915V8.5814H32.1883V10.7558Z" fill="white" fill-opacity="0.48"/>
<defs>
<linearGradient id="paint0_linear_1601_2756" x1="16.1054" y1="25.5" x2="31" y2="25.5" gradientUnits="userSpaceOnUse">
<stop stop-color="#3793AE"/>
<stop offset="1" stop-color="#074287"/>
</linearGradient>
<linearGradient id="paint1_linear_1601_2756" x1="2.30913" y1="24" x2="46" y2="24" gradientUnits="userSpaceOnUse">
<stop stop-color="#3793AE"/>
<stop offset="1" stop-color="#074287"/>
</linearGradient>
</defs>
</svg>
