<svg width="133" height="27" viewBox="0 0 133 27" fill="none" xmlns="http://www.w3.org/2000/svg">
<path d="M16.6746 0.250223C15.72 0.647724 15.2591 1.57522 15.2591 3.19835C15.2591 3.96022 15.2262 4.55647 15.1933 4.55647C15.1275 4.55647 13.9754 4.25835 12.6258 3.89397C9.53165 3.06585 9.16956 3.06585 8.34665 3.89397C7.8529 4.39085 7.68831 4.9871 7.68831 6.1796V7.80272L5.31831 7.17335C-0.0141874 5.7821 0.117479 5.61647 0.117479 15.4546C0.117479 21.5165 0.216229 23.4377 0.545396 23.9346C0.874562 24.3321 2.58623 24.9283 5.8779 25.7896C10.8154 27.0815 11.6383 27.0815 12.3625 25.9552C12.4941 25.7565 12.6258 22.1458 12.6258 17.9721C12.6258 11.579 12.5271 10.2208 12.0991 9.59147C11.4079 8.59772 12.1321 8.66397 13.0866 9.69085C13.7121 10.3865 13.8766 11.0158 14.0412 13.7321C14.1729 15.5208 14.2716 18.204 14.2716 19.6615C14.2716 21.4171 14.4033 22.4771 14.6996 22.709C14.8971 22.8746 15.9504 23.239 17.0037 23.4708C18.7812 23.8683 18.9458 23.8352 19.5712 23.2058C20.2296 22.5765 20.2625 22.1127 20.2954 14.7258C20.3612 8.86272 20.2625 6.80897 19.9662 6.51085C19.3079 5.84835 19.4725 5.48397 20.2296 5.88147C21.4475 6.54397 21.8425 8.20022 21.8754 12.7383C21.8754 18.7008 22.0729 19.4627 23.4883 19.9927C24.1137 20.2246 25.2 20.4233 25.8583 20.4233C27.9979 20.4896 28.0966 20.059 28.0966 11.4465C28.0966 2.10522 28.4258 2.70148 22.5008 1.24397C20.2296 0.680849 18.1558 0.150848 17.8925 0.0845985C17.6291 0.0183487 17.0696 0.0845985 16.6746 0.250223Z" fill="white"/>
<path d="M76.3454 3.6524C74.6337 4.61303 73.7779 6.23615 73.9754 8.1574C74.1729 10.1118 75.3579 11.2049 78.7812 12.6624C82.04 14.0205 82.7641 14.5837 82.7641 15.8424C82.7641 17.2005 81.4145 18.128 79.3737 18.128C77.8925 18.128 77.5962 17.9955 76.5429 16.8693C75.5883 15.8755 75.1604 15.6768 74.3045 15.743C73.0208 15.8755 72.955 16.3062 73.9754 17.8299C75.1275 19.5524 76.9379 20.4468 79.4066 20.4468C83.192 20.4468 85.2329 18.7574 85.2329 15.5774C85.2329 13.2918 84.2125 12.2318 80.4929 10.6749C77.1683 9.28365 76.51 8.75365 76.51 7.4949C76.51 4.94428 81.0525 4.38115 82.5995 6.73303C82.9945 7.3624 83.2908 7.46178 84.1795 7.29615C84.7391 7.19678 85.2987 7.06428 85.3645 6.99803C85.4304 6.93178 85.1012 6.3024 84.6404 5.57365C82.9616 3.02303 79.0445 2.12865 76.3454 3.6524Z" fill="white"/>
<path d="M45.5664 11.8343V20.4468H46.7185H47.8706V17.1343V13.8218H49.1872C50.4381 13.8218 50.5368 13.888 52.8081 17.1343C55.0793 20.3805 55.1781 20.4468 56.4289 20.4468C57.1531 20.4468 57.7456 20.3474 57.7456 20.1818C57.7456 20.0493 56.7252 18.5255 55.4743 16.8362L53.236 13.7224L54.5856 13.0268C56.4618 12.0662 57.4164 10.5093 57.4164 8.38928C57.4164 6.36865 56.6593 5.07678 54.8818 3.98365C53.7627 3.28803 53.236 3.22178 49.6152 3.22178H45.5664V11.8343ZM53.5322 5.9049C54.4539 6.40178 55.1781 8.2899 54.816 9.28365C54.1906 10.8737 52.9397 11.503 50.3064 11.503H47.8706V8.52178V5.54053H50.3722C51.7218 5.54053 53.1372 5.70615 53.5322 5.9049Z" fill="white"/>
<path d="M89.3456 5.67303C89.0165 7.3624 88.9177 7.4949 87.9302 7.59428C87.0086 7.69365 86.8769 7.82615 86.7781 8.75365C86.6794 9.81365 86.7123 9.84678 87.8315 9.84678H89.0165V13.9212C89.0165 17.1343 89.1152 18.128 89.5431 18.7574C90.2673 19.7843 91.9461 20.4468 93.7894 20.4468C95.2706 20.4468 95.2706 20.4468 95.2706 19.2874V18.128H93.6906C92.8348 18.128 91.9461 17.9624 91.7156 17.7305C91.4523 17.4655 91.3206 16.0743 91.3206 13.5899V9.84678H93.3286H95.3036L95.2048 8.75365C95.1061 7.69365 95.0731 7.69365 93.2298 7.59428L91.3206 7.4949V5.70615C91.3206 3.98365 91.2548 3.88428 90.5306 3.88428C89.8065 3.88428 89.6748 4.11615 89.3456 5.67303Z" fill="white"/>
<path d="M60.0508 12.1655C60.0508 17.4324 60.5116 18.9893 62.3549 19.9499C63.8691 20.7449 66.0745 20.6124 67.2266 19.6186C68.4445 18.5918 68.4774 18.5918 68.7408 19.6186C68.9054 20.2149 69.1687 20.4468 69.7612 20.4468H70.5841V13.9543V7.4949L69.5308 7.59427L68.4445 7.69365L68.2799 12.2318C68.0824 17.3661 67.8191 17.9624 65.5479 18.3599C64.5274 18.5255 64.2312 18.393 63.3424 17.5318L62.3549 16.538V12.033V7.52802H61.2029H60.0508V12.1655Z" fill="white"/>
<path d="M100.34 8.1574C96.4892 9.91303 95.5346 15.6768 98.6288 18.6912C100.011 20.0493 101.13 20.4468 103.369 20.4468C105.64 20.4468 107.023 19.8837 108.339 18.3599C110.512 15.8755 110.578 12.298 108.537 9.84678C106.66 7.59428 103.171 6.86553 100.34 8.1574ZM104.982 9.97928C106.693 10.708 107.516 12.2649 107.352 14.4512C107.253 15.9749 107.055 16.4055 106.2 17.1674C103.237 19.8505 98.9909 17.6974 99.3201 13.7224C99.4846 11.8012 100.373 10.4762 101.888 9.94615C103.369 9.41615 103.632 9.41615 104.982 9.97928Z" fill="white"/>
<path d="M112.619 7.75976C112.52 7.92538 112.487 10.7741 112.52 14.1529L112.553 20.281H113.705H114.857L115.022 15.7429C115.219 10.5754 115.351 10.2441 117.622 9.946C119.005 9.74726 119.103 9.58163 118.774 8.25663C118.577 7.59413 118.412 7.52788 117.523 7.69351C116.964 7.826 116.108 8.19038 115.647 8.52163C114.791 9.151 114.791 9.11788 114.429 8.32288C114.067 7.561 112.948 7.22976 112.619 7.75976Z" fill="white"/>
<path d="M123.054 8.19055C118.643 10.4099 118.544 17.5318 122.922 19.7843C124.469 20.5793 127.366 20.6787 129.012 19.9831C130.361 19.3868 131.809 18.0287 131.809 17.2999C131.809 16.5712 129.999 16.6706 128.913 17.4656C127.596 18.4593 125.884 18.6581 124.436 17.9624C123.35 17.4324 122.264 16.0412 122.264 15.1468C122.264 14.9481 124.008 14.8156 127.366 14.8156H132.468V13.5568C132.468 12.1324 131.546 9.94618 130.624 9.11806C128.781 7.46181 125.358 7.06431 123.054 8.19055ZM127.859 10.0124C128.386 10.2774 129.044 10.8406 129.308 11.2381C130.328 12.6956 130.098 12.8281 126.049 12.8281C123.975 12.8281 122.264 12.7618 122.264 12.6624C122.264 11.9337 123.482 10.3768 124.337 10.0124C125.72 9.41618 126.674 9.41618 127.859 10.0124Z" fill="white"/>
</svg>
