<svg width="16" height="16" viewBox="0 0 16 16" fill="none" xmlns="http://www.w3.org/2000/svg">
<path d="M8.98296 15.9998C4.82951 16.0217 0.193447 13.8328 0.00489779 8.20705C-0.144013 3.75314 3.12721 1.14805 6.467 0.337511C9.69109 -0.44495 13.0812 0.143456 15.9663 1.99478C15.9765 2.00142 15.985 2.01104 15.9909 2.02267C15.9968 2.03429 16 2.0475 16 2.06092V5.02604C16 5.03192 15.9987 5.0377 15.9963 5.0429C15.994 5.04811 15.9906 5.05257 15.9865 5.05594C15.9823 5.0593 15.9775 5.06145 15.9725 5.06222C15.9675 5.06299 15.9624 5.06235 15.9577 5.06036C14.0636 4.27228 10.4496 3.84299 9.53843 6.69142C9.32899 7.34472 9.29846 8.13404 9.43773 8.81542C9.7618 10.3972 11.1486 11.1241 12.4133 11.3007C13.6274 11.4696 14.8132 11.3292 15.9705 10.8795C15.9739 10.8782 15.9775 10.8779 15.981 10.8786C15.9845 10.8792 15.9879 10.8808 15.9907 10.8832C15.9936 10.8857 15.9959 10.8889 15.9976 10.8926C15.9992 10.8963 16 10.9003 16 10.9045V14.0268C16 14.0551 15.9891 14.0755 15.9673 14.088C13.7701 15.3492 11.442 15.9865 8.98296 15.9998ZM6.77072 3.69511C5.64531 2.76601 4.15031 2.9401 3.25416 4.19865C2.98634 4.57428 2.81618 4.99089 2.74368 5.44847C2.7169 5.61569 2.70405 6.03105 2.70512 6.69454C2.7069 8.15131 2.70726 9.60849 2.70619 11.0661C2.70619 11.356 2.73065 11.5748 2.77957 11.7225C2.98419 12.339 3.55466 12.6684 4.10478 12.7134C4.12442 12.7146 4.13424 12.7038 4.13424 12.6809C4.14245 10.5707 4.1512 8.45892 4.16049 6.34574C4.16191 6.04582 4.18816 5.82451 4.23923 5.68183C4.42456 5.16581 4.92165 4.74213 5.40748 4.82449C6.17775 4.95553 6.57413 5.806 6.29774 6.62029C6.04384 7.36968 5.33463 7.51693 4.68328 7.34097C4.66578 7.33598 4.65703 7.34409 4.65703 7.36531L4.6565 8.95269C4.6565 8.97017 4.66328 8.98285 4.67685 8.99076C4.82362 9.07146 4.92879 9.11389 4.99235 9.11805C5.8519 9.17296 6.57145 8.84912 7.15103 8.14652C8.23519 6.83244 8.03111 4.73589 6.77072 3.69511Z" fill="url(#paint0_linear_109_861)"/>
<defs>
<linearGradient id="paint0_linear_109_861" x1="0.112412" y1="8" x2="16" y2="8" gradientUnits="userSpaceOnUse">
<stop stop-color="#3793AE"/>
<stop offset="1" stop-color="#074287"/>
</linearGradient>
</defs>
</svg>
