<svg width="145" height="38" viewBox="0 0 145 38" fill="none" xmlns="http://www.w3.org/2000/svg">
<path d="M17.5248 3.85752C18.2743 2.60486 19.5615 1.48039 20.7476 1.05997C20.7476 1.05997 20.7476 1.05996 20.7477 1.05996L20.7309 1.01283C21.1741 0.855875 21.3916 0.77437 21.4984 0.849748C21.6036 0.924042 21.6012 1.15075 21.6012 1.60783L17.5248 3.85752ZM17.5248 3.85752C16.4749 5.63567 15.9555 7.39811 15.917 9.30126L15.8985 10.3164L16.4122 10.3554C16.4122 10.3554 16.4122 10.3554 16.4122 10.3554C17.0196 10.4002 17.6434 10.1573 18.2403 9.69243C18.837 9.22761 19.4034 8.54326 19.8938 7.71296C20.8745 6.05228 21.5464 3.81564 21.5512 1.60783M17.5248 3.85752L21.5512 1.60783M21.5512 1.60783L21.5512 1.60772L21.5512 1.60783Z" fill="white" stroke="white" stroke-width="0.1"/>
<path d="M19.8802 10.5873L19.8817 10.587C20.3198 10.4801 20.9907 10.4437 21.6894 10.4678C22.3874 10.4918 23.1079 10.576 23.6445 10.7075C25.0786 11.0793 26.3448 11.7985 27.3722 12.8293C27.6303 13.0883 27.8642 13.332 28.0334 13.5168C28.1181 13.6092 28.1862 13.6865 28.2329 13.7434C28.2563 13.7719 28.2737 13.7945 28.2851 13.811C28.2874 13.8144 28.2894 13.8174 28.2911 13.82C28.2901 13.8214 28.2891 13.8229 28.2878 13.8246C28.2786 13.8374 28.264 13.8547 28.2435 13.8763C28.2029 13.9195 28.1433 13.976 28.0686 14.0428C27.9193 14.176 27.7128 14.3472 27.4849 14.5278C25.4771 16.0933 24.5324 18.0378 24.5445 20.6102M19.8802 10.5873L28.5858 27.5334L28.5628 27.5778C28.5627 27.5778 28.5625 27.5777 28.5624 27.5776C28.3712 27.4785 28.0884 27.2737 27.7832 27.0249C27.477 26.7751 27.1453 26.4786 26.8556 26.194L26.8554 26.1938C26.0284 25.3702 25.45 24.5597 25.0787 23.6611C24.7075 22.7626 24.5445 21.7788 24.5445 20.6102M19.8802 10.5873C19.4869 10.6711 18.5999 10.9475 17.9026 11.1887C17.7645 11.2379 17.6332 11.2848 17.5082 11.3294C16.9517 11.5281 16.5206 11.682 16.1664 11.7931C15.7324 11.9292 15.41 12.0024 15.1097 12.0147C14.5778 12.0365 14.1205 11.8665 13.241 11.5394C13.1279 11.4974 13.0079 11.4527 12.8798 11.4056L12.8797 11.4055M19.8802 10.5873L12.8797 11.4055M24.5445 20.6102L24.5945 20.61H24.5445C24.5445 20.6101 24.5445 20.6101 24.5445 20.6102ZM29.2164 27.9254C29.2181 27.9181 29.2194 27.912 29.2204 27.9071L29.2215 27.9008L29.2218 27.8989L29.2218 27.8984L29.2219 27.8983L29.2218 27.8984L29.2218 27.8992L29.222 27.9029C29.2221 27.9036 29.2222 27.9046 29.2225 27.9058C29.2228 27.9075 29.2233 27.9096 29.2241 27.9119C29.2253 27.9157 29.2284 27.9233 29.2356 27.9306L29.271 27.8953L29.2164 27.9254ZM29.2164 27.9254C29.2219 27.9282 29.2269 27.9306 29.2313 27.9327C29.2367 27.9353 29.2417 27.9376 29.2458 27.9394C29.2478 27.9402 29.2503 27.9412 29.2529 27.9421C29.253 27.9421 29.2571 27.9437 29.2631 27.9446L29.2164 27.9254ZM12.8797 11.4055C11.6126 10.9355 10.6732 10.6658 9.83762 10.567C9.00327 10.4683 8.27014 10.5399 7.41528 10.7558C4.14203 11.5948 1.77352 14.1718 0.839487 17.9202C0.64857 18.6923 0.552423 19.8637 0.553924 21.0909C0.555424 22.3176 0.654475 23.5957 0.851994 24.5805L0.852005 24.5806M12.8797 11.4055L0.852005 24.5806M0.852005 24.5806C1.60779 28.372 3.38341 32.0912 5.81809 34.943C6.79549 36.0861 7.65949 36.7682 8.59132 37.0536C9.52214 37.3386 10.5291 37.2304 11.7982 36.7739L11.7983 36.7739M0.852005 24.5806L11.7983 36.7739M11.7983 36.7739C13.4513 36.1828 14.5253 35.8815 15.5489 35.8708C16.5733 35.8602 17.5426 36.1407 18.986 36.7019C19.503 36.8949 19.8148 37.0019 20.1315 37.0613C20.4481 37.1207 20.7716 37.1328 21.3125 37.1328L21.313 37.1328M11.7983 36.7739L21.313 37.1328M21.313 37.1328C21.8856 37.1388 22.1893 37.1355 22.44 37.0841M21.313 37.1328L22.44 37.0841M22.44 37.0841C22.6888 37.033 22.8871 36.934 23.2483 36.7408L22.44 37.0841Z" fill="white" stroke="white" stroke-width="0.1"/>
<path d="M95.4397 13.2136L95.4398 13.2136C95.7866 13.1109 96.2843 13.0569 96.8445 13.0438C97.4038 13.0308 98.0219 13.0588 98.6076 13.1186C99.1935 13.1784 99.7454 13.27 100.173 13.3838C100.386 13.4407 100.568 13.5028 100.706 13.5686C100.843 13.6341 100.93 13.6998 100.969 13.7611C100.969 13.7626 100.97 13.7671 100.97 13.7763C100.971 13.7905 100.97 13.8102 100.968 13.8353C100.963 13.8854 100.953 13.9527 100.938 14.0323C100.909 14.1912 100.863 14.3957 100.81 14.6031C100.757 14.8105 100.697 15.0199 100.642 15.1886C100.614 15.273 100.587 15.3466 100.563 15.4045C100.546 15.4454 100.531 15.476 100.519 15.4967C100.511 15.4944 100.501 15.4913 100.489 15.4873C100.449 15.474 100.392 15.4526 100.323 15.4247C100.183 15.3689 99.994 15.2879 99.7895 15.1953C99.7895 15.1953 99.7894 15.1952 99.7893 15.1952L99.7687 15.2407L95.4397 13.2136ZM95.4397 13.2136C93.8133 13.6897 92.7029 14.6859 92.1774 16.1404L92.1773 16.1408M95.4397 13.2136L92.1773 16.1408M92.1773 16.1408C91.9888 16.6483 91.8917 17.0803 91.8786 17.5148C91.8655 17.9494 91.9364 18.3892 92.0873 18.9125C92.5211 20.4072 93.7475 21.4522 96.3253 22.5038L96.3255 22.5039M92.1773 16.1408L96.3255 22.5039M96.3255 22.5039C97.1706 22.8532 97.8504 23.219 98.3617 23.6018C98.8726 23.9843 99.2179 24.3857 99.3896 24.8072C99.7148 25.5657 99.6519 26.5718 99.2671 27.3723L99.2671 27.3723M96.3255 22.5039L99.2671 27.3723M99.2671 27.3723L99.2664 27.3736M99.2671 27.3723L99.2664 27.3736M99.2664 27.3736C99.121 27.6546 98.9888 27.8578 98.7987 28.0356C98.6092 28.2129 98.365 28.3626 97.9993 28.5413C96.5217 29.3101 94.6817 29.1485 92.2173 28.1091L92.2173 28.1091M99.2664 27.3736L92.2173 28.1091M92.2173 28.1091L92.2154 28.1083M92.2173 28.1091L92.2154 28.1083M92.2154 28.1083C92.1709 28.0873 92.1412 28.0838 92.1183 28.09C92.0954 28.0962 92.0681 28.115 92.0354 28.1643C91.9683 28.265 91.8981 28.4621 91.7988 28.8048L91.7987 28.805M92.2154 28.1083L91.7987 28.805M91.7987 28.805C91.7306 29.0368 91.67 29.2569 91.6264 29.4248C91.6047 29.5087 91.5873 29.5793 91.5753 29.6317C91.5693 29.6579 91.5648 29.6792 91.5618 29.6951C91.5603 29.7031 91.5592 29.7093 91.5585 29.714C91.5585 29.7141 91.5585 29.7141 91.5585 29.7141C91.5592 29.715 91.5601 29.716 91.5611 29.7171C91.5684 29.7251 91.581 29.7359 91.6002 29.7494C91.6384 29.7763 91.6955 29.8089 91.769 29.8459C91.9155 29.9197 92.1207 30.0075 92.3534 30.0973C92.819 30.2768 93.3896 30.4617 93.8114 30.5538C94.3066 30.6609 95.3191 30.723 96.3041 30.6766L96.3048 30.6766M91.7987 28.805L96.3048 30.6766M96.3048 30.6766C97.0109 30.6534 97.4553 30.6225 97.8211 30.5517C98.1856 30.4811 98.4737 30.3707 98.8666 30.1858L98.867 30.1856M96.3048 30.6766L98.867 30.1856M98.867 30.1856C99.9653 29.6793 100.898 28.7587 101.363 27.7174M98.867 30.1856L101.363 27.7174M101.363 27.7174C101.7 26.9613 101.791 26.0071 101.667 25.0965M101.363 27.7174L101.667 25.0965M101.667 25.0965C101.542 24.1856 101.203 23.3251 100.688 22.754M101.667 25.0965L100.688 22.754M100.688 22.754C100.149 22.1587 98.9131 21.4188 97.3498 20.7533L100.688 22.754Z" fill="white" stroke="white" stroke-width="0.1"/>
<path d="M50.9668 23.1061C50.9727 23.1216 50.9757 23.1389 50.9734 23.1571C50.9709 23.1761 50.9629 23.193 50.9514 23.2074C50.9296 23.2343 50.895 23.2527 50.8556 23.2668C50.7755 23.2953 50.6459 23.3159 50.4588 23.3314C50.0824 23.3626 49.454 23.3742 48.4748 23.3742C47.7833 23.3742 47.1522 23.3587 46.6937 23.3354C46.4646 23.3238 46.2779 23.3102 46.148 23.2955C46.0833 23.2882 46.0313 23.2804 45.9947 23.2722C45.9768 23.2682 45.9601 23.2635 45.9469 23.2576C45.9405 23.2548 45.932 23.2504 45.9243 23.2436C45.9171 23.2373 45.9041 23.2228 45.9041 23.2003C45.9041 23.1934 45.9053 23.1864 45.9061 23.1819C45.9071 23.1764 45.9085 23.17 45.9101 23.163C45.9134 23.1488 45.9183 23.1302 45.9244 23.1078C45.9368 23.0627 45.9549 23.0004 45.9781 22.923C46.0244 22.768 46.0914 22.5514 46.174 22.2891C46.3392 21.7642 46.5671 21.0556 46.8177 20.2889C47.3186 18.7564 47.8343 17.0858 47.9708 16.5756C48.0543 16.2275 48.1209 15.9606 48.1764 15.766C48.2313 15.5739 48.2773 15.445 48.3213 15.3792C48.3417 15.3488 48.3743 15.3128 48.4215 15.316C48.4447 15.3176 48.4634 15.3287 48.4775 15.3412C48.4913 15.3536 48.5029 15.3695 48.5129 15.3864C48.5515 15.4515 48.5881 15.5701 48.6294 15.7231L48.6296 15.7236C48.705 16.016 49.251 17.7641 49.8435 19.5922L49.8437 19.5925C50.4183 21.4124 50.9327 23.0017 50.9668 23.1061ZM50.9668 23.1061C50.9666 23.1056 50.9664 23.1051 50.9662 23.1046L50.9197 23.1229L50.9672 23.1073C50.9671 23.107 50.967 23.1066 50.9668 23.1061ZM44.464 27.8304L44.464 27.8303L45.3751 25.0893L45.3865 25.0551H45.4226H48.4445H51.4664H51.5022L51.5137 25.0891L52.44 27.8301L52.4401 27.8301L53.3549 30.5525H54.4275C54.8303 30.5525 55.0994 30.5408 55.2672 30.5107C55.3515 30.4956 55.4047 30.4767 55.4357 30.4563C55.4637 30.4378 55.4709 30.4204 55.4709 30.4012C55.4709 30.3773 55.4612 30.3222 55.4405 30.2371C55.4204 30.1542 55.3912 30.0481 55.3552 29.9256C55.2833 29.6805 55.1848 29.3714 55.0786 29.0543L55.0786 29.0542C54.8624 28.4016 53.6218 24.7053 52.431 21.1575C51.5309 18.4758 50.6592 15.8788 50.28 14.7454L50.28 14.7454C50.1512 14.359 50.0187 14.0001 49.9091 13.7322C49.8543 13.5982 49.8055 13.4877 49.7659 13.4082C49.7461 13.3684 49.729 13.3372 49.7151 13.315C49.7081 13.304 49.7023 13.2959 49.6979 13.2904C49.6954 13.2874 49.6938 13.2858 49.6931 13.2851C49.6927 13.285 49.6923 13.2847 49.6916 13.2845C49.6898 13.2837 49.6873 13.2827 49.684 13.2816C49.6773 13.2794 49.6683 13.2769 49.6569 13.2742C49.634 13.2689 49.6036 13.2634 49.5661 13.2578C49.4911 13.2466 49.3906 13.2356 49.2714 13.225C49.0334 13.2038 48.7232 13.1845 48.3974 13.169C48.3971 13.169 48.3968 13.169 48.3965 13.169L47.2349 13.154L46.867 14.2345C46.867 14.2345 46.867 14.2345 46.867 14.2345C46.2672 16.0153 44.912 20.0841 43.7066 23.7135C43.104 25.5283 42.5388 27.2332 42.1243 28.4872C41.917 29.1143 41.7474 29.6286 41.6297 29.9876C41.5708 30.1671 41.5249 30.3077 41.4937 30.4041C41.4793 30.4489 41.468 30.484 41.4601 30.509C41.4693 30.5106 41.4801 30.5121 41.4926 30.5137C41.5474 30.5208 41.6276 30.5275 41.7278 30.5333C41.9278 30.5448 42.204 30.5525 42.507 30.5525H43.5642L44.464 27.8304Z" fill="white" stroke="white" stroke-width="0.1"/>
<path d="M107.091 14.6376L107.091 14.6379L107.086 14.6389C107.051 14.6461 106.917 14.6839 106.729 14.7385C106.543 14.7927 106.308 14.8624 106.073 14.9321L106.072 14.9322L105.228 15.1698V16.5876V18.0587V18.1087H105.178H104.267H103.405V18.9104V19.7122H104.267H105.178H105.228V19.7622V23.4478C105.228 25.2827 105.262 26.566 105.347 27.4908C105.432 28.4161 105.568 28.9776 105.769 29.3717L105.769 29.3719C106.079 29.9898 106.884 30.5397 107.723 30.6924L107.723 30.6924L107.723 30.6926C108.112 30.7687 108.706 30.7729 109.232 30.7267C109.494 30.7036 109.737 30.668 109.927 30.6233C110.022 30.6009 110.103 30.5764 110.166 30.5506C110.229 30.5245 110.268 30.4993 110.287 30.4778C110.29 30.4739 110.294 30.4654 110.3 30.4499C110.305 30.4339 110.311 30.4133 110.316 30.388C110.326 30.3375 110.334 30.2716 110.338 30.1947C110.348 30.0408 110.344 29.8463 110.321 29.6477L110.321 29.6477L110.321 29.6463L110.265 28.9658L109.34 28.9952C109.34 28.9952 109.34 28.9952 109.34 28.9952C108.916 29.0107 108.654 29.0075 108.456 28.9528C108.253 28.897 108.12 28.7886 107.951 28.6085C107.658 28.3172 107.482 27.8535 107.383 27.0017C107.284 26.1484 107.261 24.8949 107.284 23.0136L107.284 23.0135L107.33 19.8389L107.33 19.791L107.378 19.7896L109.018 19.7431L109.018 19.7431L110.594 19.6981L110.579 18.9122L110.579 18.9113L110.551 18.1087H108.959H107.319H107.267L107.269 18.0565L107.345 16.3685L107.345 16.3684C107.383 15.5609 107.39 15.0951 107.346 14.8444C107.323 14.7179 107.29 14.6609 107.255 14.6371C107.223 14.6148 107.175 14.6116 107.091 14.6376Z" fill="white" stroke="white" stroke-width="0.1"/>
<path d="M65.1062 19.8877L65.106 19.8877C63.4376 19.1157 61.5278 19.8906 60.5914 21.6752L60.5914 21.6753C60.3273 22.1822 60.2516 22.6576 60.2061 24.0971C60.2061 24.0971 60.2061 24.0971 60.2061 24.0971L60.2561 24.0987C60.1802 26.4061 60.3472 27.0565 61.2735 27.9857L65.1062 19.8877ZM65.1062 19.8877C65.5571 20.0982 65.8891 20.3062 66.1698 20.5827C66.4504 20.8589 66.6772 21.2009 66.9214 21.6756L66.9216 21.6759C67.1917 22.211 67.3518 22.9853 67.3976 23.8056C67.4434 24.6266 67.3748 25.4992 67.1835 26.2329L67.1834 26.2332C66.7996 27.6736 65.8156 28.6361 64.6743 28.9801C63.5326 29.3243 62.2378 29.0482 61.2379 28.0208L65.1062 19.8877ZM59.9956 19.8854L59.9955 19.8854L59.9949 19.883C59.948 19.6917 59.9024 19.2071 59.8872 18.7889L59.8872 18.7881L59.873 18.1093H58.9046H57.9547L58.0434 20.0232C58.0434 20.0233 58.0434 20.0233 58.0434 20.0234C58.1042 21.1249 58.1498 24.9821 58.1498 28.6206V35.1985H59.1627H60.1759L60.1909 32.0275H60.2409L60.1909 32.0272L60.1909 32.0273C60.1909 30.5344 60.1946 29.7379 60.2271 29.3558C60.2353 29.2602 60.2454 29.188 60.2584 29.1364C60.2649 29.1107 60.2726 29.0881 60.2823 29.0697C60.2917 29.0517 60.3053 29.0332 60.3257 29.022C60.3483 29.0096 60.3722 29.0097 60.393 29.0169C60.412 29.0233 60.4283 29.0354 60.4417 29.0476C60.4685 29.0719 60.4964 29.1088 60.5248 29.1494L60.5249 29.1495C60.6867 29.382 61.0185 29.6721 61.4043 29.9363C61.7891 30.1998 62.2214 30.4334 62.5802 30.5554C63.0124 30.6998 63.6243 30.754 64.2532 30.7251C64.8817 30.6962 65.5216 30.5846 66.0089 30.4012C68.711 29.3754 70.1806 25.8292 69.3642 22.2673C68.9268 20.3909 67.9029 19.0571 66.3694 18.3211C65.892 18.093 65.2353 17.9698 64.5505 17.9544C63.8662 17.939 63.1586 18.0314 62.5807 18.2304C61.755 18.5213 60.9441 19.1343 60.4797 19.8217L60.4788 19.8231C60.4076 19.93 60.3528 20.0124 60.3096 20.0691C60.2879 20.0976 60.2678 20.1214 60.2488 20.1392C60.2307 20.1561 60.2084 20.1725 60.1822 20.1776C60.1512 20.1837 60.1244 20.1725 60.1046 20.1537C60.0871 20.1371 60.0743 20.1141 60.0638 20.0907C60.043 20.0444 60.0223 19.9751 59.9968 19.8896L59.9956 19.8854Z" fill="white" stroke="white" stroke-width="0.1"/>
<path d="M77.0571 18.1676L77.056 18.1681C76.289 18.4595 75.4172 19.0888 75.0137 19.6371C74.9211 19.7708 74.8205 19.8892 74.7327 19.9748C74.6888 20.0176 74.6472 20.053 74.6106 20.0782C74.5923 20.0908 74.5743 20.1014 74.5573 20.109C74.5409 20.1164 74.5218 20.1226 74.5023 20.1226C74.4685 20.1226 74.4446 20.1015 74.4301 20.0828C74.4151 20.0635 74.4032 20.0383 74.3931 20.0108C74.3729 19.9552 74.3562 19.8777 74.3427 19.7855C74.3157 19.6004 74.3004 19.3461 74.3004 19.066V18.1094H73.3786H72.4722L72.5326 26.6072L72.593 35.1234L73.6085 35.1678L73.6086 35.1678L74.6041 35.2119V32.0896V28.915V28.7926L74.6898 28.88L75.3428 29.5458C76.1513 30.3704 77.2001 30.7541 78.5866 30.7388L78.5867 30.7388C80.3765 30.7234 81.8574 29.8613 82.8149 28.4666C83.7729 27.0712 84.2079 25.1409 83.8981 22.991L83.8981 22.9909C83.596 20.8654 82.6461 19.3325 81.1442 18.4901C80.7968 18.2976 80.5472 18.184 80.2407 18.1139C79.9328 18.0435 79.5652 18.0165 78.9807 18.001L78.9803 18.001C78.0685 17.97 77.4256 18.0173 77.0571 18.1676ZM79.8251 19.9972L79.8251 19.9972C81.1866 20.7072 81.9176 22.4976 81.8108 24.7052L81.8108 24.7052C81.7422 26.1211 81.3719 27.2213 80.7243 27.9682C80.0755 28.7165 79.1534 29.1043 77.9949 29.1043C77.0671 29.1043 76.1886 28.6626 75.4975 27.8796C75.1133 27.4487 74.8771 27.0425 74.7477 26.4715C74.619 25.9033 74.5966 25.1737 74.6345 24.0972C74.6801 22.6425 74.7557 22.1823 75.035 21.6599C75.2436 21.2505 75.5971 20.824 75.9894 20.4728C76.3812 20.1219 76.8167 19.8417 77.191 19.7304L77.1913 19.7303C77.5714 19.6196 78.0567 19.5965 78.5315 19.6453C79.0064 19.6942 79.4762 19.8154 79.8251 19.9972Z" fill="white" stroke="white" stroke-width="0.1"/>
<path d="M115.978 18.2764L115.977 18.2766C114.863 18.676 113.794 19.5056 113.254 20.3621C111.473 23.2568 111.778 27.0705 113.96 29.173L113.96 29.1732C114.597 29.7911 115.073 30.1529 115.645 30.3622C116.219 30.5719 116.895 30.6302 117.935 30.6302C118.725 30.6302 119.18 30.6185 119.534 30.5611C119.886 30.5042 120.139 30.4021 120.525 30.217L120.525 30.2168C122.767 29.158 123.959 27.0717 123.959 24.2536C123.959 21.5274 122.873 19.5649 120.843 18.5376C120.388 18.3133 120.1 18.188 119.758 18.1139C119.414 18.0395 119.012 18.0163 118.328 18.0008L118.328 18.0008C117.116 17.9699 116.637 18.0318 115.978 18.2764ZM121.336 21.802L121.337 21.8029C121.568 22.3522 121.712 23.1405 121.756 23.9392C121.8 24.7378 121.743 25.553 121.566 26.1567C120.938 28.3757 119.001 29.6232 117.069 29.0245C116.051 28.7099 115.374 28.0793 114.822 26.939C114.587 26.4589 114.459 26.1671 114.391 25.8115C114.323 25.4575 114.316 25.0421 114.316 24.3155C114.316 23.5735 114.323 23.1616 114.395 22.8092C114.467 22.4554 114.602 22.1634 114.853 21.6606L114.853 21.6601C115.219 20.9447 115.588 20.4566 116.007 20.1556L116.008 20.1554C116.963 19.4799 118.301 19.3075 119.425 19.7313C119.748 19.8517 120.134 20.1646 120.483 20.5458C120.833 20.9281 121.151 21.3855 121.336 21.802Z" fill="white" stroke="white" stroke-width="0.1"/>
<path d="M128.737 20.6159L128.691 19.3306L128.691 19.3306L128.648 18.109H127.694H126.745L126.832 19.3246C126.832 19.3247 126.832 19.3248 126.832 19.3249C126.893 20.0404 126.939 22.8609 126.939 25.6006V30.5525H127.937H128.95L128.995 26.6066L128.995 26.6066C129.018 24.7877 129.037 23.7753 129.086 23.1384C129.136 22.4988 129.217 22.2335 129.364 21.9098C129.649 21.2811 130.13 20.7474 130.686 20.3864C131.242 20.0256 131.876 19.8351 132.467 19.8986L132.467 19.8986C132.577 19.9105 132.648 19.9179 132.7 19.9093C132.725 19.9054 132.742 19.8982 132.756 19.8879C132.769 19.8777 132.782 19.862 132.794 19.8361C132.82 19.7821 132.837 19.6929 132.85 19.5454C132.863 19.3994 132.871 19.2033 132.883 18.9395L132.883 18.9395L132.926 17.9542H132.174C131.693 17.9696 131.17 18.0772 130.861 18.2423C130.171 18.6245 129.556 19.252 129.15 20.0179C129.15 20.018 129.15 20.0181 129.15 20.0181L128.831 20.6371L128.744 20.8073L128.737 20.6159Z" fill="white" stroke="white" stroke-width="0.1"/>
<path d="M137.985 18.1379L137.986 18.1379C138.416 17.994 139.236 17.9545 140.042 18.001C140.444 18.0241 140.84 18.0684 141.179 18.1309C141.52 18.1936 141.799 18.2738 141.97 18.3667C142.306 18.549 142.738 18.9089 143.133 19.3157C143.528 19.7226 143.881 20.1713 144.06 20.5286L144.06 20.529C144.24 20.8792 144.413 21.451 144.542 22.0632C144.67 22.6747 144.753 23.3215 144.753 23.8202V24.6684H140.46H136.102H136.046L136.052 24.7238L136.143 25.5595C136.143 25.5596 136.144 25.5597 136.144 25.5598C136.282 26.9537 136.974 28.0215 138.174 28.6801C138.443 28.8294 138.658 28.9171 139.007 28.9646C139.353 29.0116 139.831 29.0192 140.628 29.0115M137.985 18.1379L140.627 28.9615M137.985 18.1379C137.589 18.2675 137.085 18.5433 136.624 18.8614C136.162 19.1797 135.75 19.536 135.535 19.8238L135.534 19.8242C135.325 20.0986 134.917 20.8226 134.644 21.4099M137.985 18.1379L134.644 21.4099M140.628 29.0115C140.628 29.0115 140.628 29.0115 140.628 29.0115L140.627 28.9615M140.628 29.0115C140.628 29.0115 140.627 29.0115 140.627 29.0115V28.9615M140.628 29.0115C141.918 29.0115 142.64 28.9344 143.105 28.7605L143.106 28.7602L143.106 28.7602L143.675 28.5335M140.627 28.9615C141.918 28.9615 142.632 28.8841 143.087 28.7137L143.663 28.4846L143.675 28.5335M143.675 28.5335L143.829 29.1437C143.829 29.1438 143.829 29.1438 143.829 29.1438C143.874 29.3291 143.916 29.5142 143.946 29.6643C143.961 29.7395 143.973 29.8055 143.981 29.8583C143.99 29.9122 143.994 29.9493 143.994 29.9681C143.994 29.9737 143.989 29.9922 143.952 30.0235C143.917 30.0527 143.864 30.0854 143.792 30.1203C143.648 30.1898 143.441 30.2639 143.188 30.3362C142.682 30.4805 142.001 30.6155 141.305 30.6927C139.595 30.8779 138.209 30.7035 137.1 30.1555C135.992 29.608 135.157 28.6846 134.553 27.3612L134.553 27.3609C134.364 26.9521 134.264 26.6979 134.21 26.3161C134.155 25.9312 134.148 25.4164 134.148 24.4861C134.148 23.5087 134.152 23.0025 134.215 22.6087C134.279 22.2175 134.401 21.9368 134.644 21.4099M143.675 28.5335L143.722 28.5149L143.877 29.1318C143.968 29.5035 144.044 29.8752 144.044 29.9681C144.044 30.2004 142.708 30.5875 141.311 30.7424C137.879 31.114 135.722 30.0455 134.508 27.3819L134.644 21.4099M141.308 19.9071L141.308 19.9071L141.309 19.9078C142.006 20.3977 142.528 21.3409 142.666 22.4352C142.666 22.4354 142.666 22.4355 142.666 22.4357L142.772 23.1626L142.781 23.2198H142.723H139.413H136.117H136.057L136.068 23.1609L136.174 22.5724L136.174 22.5722C136.298 21.9053 136.616 21.2399 137.036 20.6982C137.456 20.157 137.98 19.735 138.516 19.5605C138.92 19.4258 139.452 19.403 139.964 19.4675C140.475 19.5319 140.973 19.6845 141.308 19.9071Z" fill="white" stroke="white" stroke-width="0.1"/>
</svg>
