<svg width="182" height="39" viewBox="0 0 182 39" fill="none" xmlns="http://www.w3.org/2000/svg">
<path d="M60.4882 21.6602L57.2272 12.7026L53.9819 21.6602H60.485H60.4882ZM49.125 28.3064L55.8831 10.2983H58.5901L65.3482 28.3064H62.8521L61.2373 23.6835H53.2642L51.6494 28.3064H49.125ZM69.9375 26.2831V33.4447H67.7562V14.7995H69.9375V16.8388C70.3971 16.0353 70.9763 15.443 71.6751 15.0588C72.3833 14.6619 73.2174 14.4666 74.1869 14.4666C75.8017 14.4666 77.1111 15.1197 78.1184 16.429C79.1351 17.7256 79.6419 19.4416 79.6419 21.5706C79.6419 23.6995 79.1351 25.3995 78.1184 26.7121C77.1111 28.0086 75.8017 28.6585 74.1869 28.6585C73.2206 28.6585 72.3864 28.4697 71.6751 28.0823C70.9763 27.6853 70.4003 27.0834 69.9375 26.2863V26.2831ZM77.3661 21.5674C77.3661 19.9346 77.0324 18.654 76.3651 17.7224C75.7167 16.7908 74.8165 16.3234 73.6581 16.3234C72.4998 16.3234 71.5869 16.7908 70.9196 17.7224C70.2618 18.654 69.9312 19.9346 69.9312 21.5674C69.9312 23.2001 70.2618 24.4807 70.9196 25.4123C71.5869 26.3343 72.4998 26.7985 73.6581 26.7985C74.8165 26.7985 75.7167 26.3343 76.3651 25.4123C77.0324 24.4807 77.3661 23.2001 77.3661 21.5674ZM85.3675 26.2831V33.4447H83.1704V14.7995H85.3675V16.8388C85.8271 16.0353 86.4 15.443 87.0893 15.0588C87.7976 14.6619 88.638 14.4666 89.6138 14.4666C91.2191 14.4666 92.5254 15.1197 93.5327 16.429C94.5494 17.7256 95.0561 19.4416 95.0561 21.5706C95.0561 23.6995 94.5494 25.3995 93.5327 26.7121C92.5254 28.0086 91.2191 28.6585 89.6138 28.6585C88.638 28.6585 87.7976 28.4697 87.0893 28.0823C86.4 27.6853 85.824 27.0834 85.3675 26.2863V26.2831ZM92.7835 21.5674C92.7835 19.9346 92.4499 18.654 91.7825 17.7224C91.1341 16.7908 90.2339 16.3234 89.0755 16.3234C87.9172 16.3234 87.0043 16.7908 86.337 17.7224C85.6886 18.654 85.3644 19.9346 85.3644 21.5674C85.3644 23.2001 85.6886 24.4807 86.337 25.4123C87.0043 26.3343 87.9172 26.7985 89.0755 26.7985C90.2339 26.7985 91.1341 26.3343 91.7825 25.4123C92.4499 24.4807 92.7835 23.2001 92.7835 21.5674ZM110.757 25.7356V20.9015H106.854V18.8942H113.133V26.6352C112.208 27.3043 111.185 27.8102 110.067 28.1527C108.96 28.4889 107.776 28.6521 106.511 28.6521C103.737 28.6521 101.572 27.8294 100.007 26.187C98.4525 24.5447 97.675 22.2557 97.675 19.3135C97.675 16.3714 98.4557 14.0824 100.007 12.4401C101.572 10.7881 103.744 9.95894 106.511 9.95894C107.666 9.95894 108.758 10.1094 109.784 10.4007C110.832 10.6825 111.792 11.1115 112.671 11.6781V14.2777C111.786 13.5061 110.845 12.9299 109.847 12.5425C108.849 12.1551 107.801 11.9662 106.709 11.9662C104.546 11.9662 102.919 12.5777 101.821 13.8039C100.744 15.0396 100.206 16.8772 100.206 19.3071C100.206 21.737 100.741 23.5683 101.821 24.7944C102.919 26.0206 104.55 26.632 106.709 26.632C107.556 26.632 108.314 26.5584 108.982 26.4207C109.639 26.2767 110.231 26.0462 110.757 25.7324V25.7356ZM125.545 21.5033H123.379C121.613 21.5033 120.392 21.7082 119.715 22.1276C119.038 22.5342 118.698 23.2353 118.698 24.2277C118.698 25.0217 118.95 25.6492 119.463 26.1134C119.97 26.5712 120.663 26.7985 121.544 26.7985C122.759 26.7985 123.732 26.3599 124.459 25.4923C125.189 24.6215 125.551 23.4594 125.551 22.0059V21.5065H125.545V21.5033ZM127.726 20.5909V28.3032H125.545V26.2479C125.047 27.0706 124.427 27.6789 123.691 28.0759C122.942 28.4633 122.032 28.6521 120.952 28.6521C119.596 28.6521 118.513 28.2648 117.707 27.4932C116.907 26.7121 116.514 25.6652 116.514 24.359C116.514 22.8511 117.011 21.7018 118.006 20.9207C119.013 20.1491 120.505 19.7618 122.491 19.7618H125.545V19.5505C125.545 18.526 125.214 17.732 124.556 17.1782C123.898 16.6211 122.973 16.3458 121.777 16.3458C121.018 16.3458 120.285 16.4387 119.564 16.6179C118.846 16.7972 118.151 17.0821 117.483 17.4503V15.395C118.283 15.0813 119.057 14.8507 119.816 14.6939C120.565 14.5306 121.289 14.4506 121.997 14.4506C123.92 14.4506 125.359 14.9564 126.303 15.968C127.251 16.9925 127.72 18.526 127.72 20.5845L127.726 20.5909ZM132.224 28.3032V9.53955H134.405V28.3032H132.224ZM138.97 28.3032V9.53955H141.151V28.3032H138.97ZM157.012 20.9879V22.0828H146.98C147.072 23.6003 147.516 24.7688 148.328 25.5788C149.143 26.3727 150.276 26.7633 151.724 26.7633C152.558 26.7633 153.37 26.6608 154.148 26.4592C154.947 26.2479 155.728 25.9341 156.496 25.5179V27.6181C155.715 27.9542 154.916 28.2103 154.088 28.396C153.273 28.5657 152.439 28.6521 151.592 28.6521C149.477 28.6521 147.802 28.0246 146.549 26.7665C145.315 25.5211 144.695 23.8276 144.695 21.6858C144.695 19.544 145.284 17.7128 146.461 16.4258C147.635 15.1197 149.225 14.4634 151.214 14.4634C153.002 14.4634 154.409 15.0492 155.445 16.2306C156.487 17.3927 157.009 18.9806 157.009 20.9879H157.012ZM147.04 20.3508H154.831C154.812 19.1375 154.472 18.1642 153.814 17.4311C153.166 16.7108 152.306 16.349 151.227 16.349C150.012 16.349 149.036 16.698 148.296 17.3991C147.566 18.1002 147.154 19.083 147.04 20.3476V20.3508ZM168.196 14.585L168.212 16.8644C167.963 16.7204 167.695 16.6179 167.403 16.5443C167.11 16.4707 166.802 16.4355 166.462 16.4355C165.228 16.4355 164.274 16.8484 163.607 17.6648C162.949 18.478 162.618 19.6465 162.618 21.1768V28.2968H160.437V14.7931H162.618V16.8933C163.078 16.0705 163.676 15.4622 164.416 15.0652C165.155 14.6587 166.046 14.457 167.094 14.457C167.245 14.457 167.412 14.473 167.601 14.5018C167.777 14.5114 167.982 14.537 168.199 14.5786L168.196 14.585ZM181.863 14.7963L176.034 29.5485C175.417 31.1589 174.812 32.2153 174.227 32.7084C173.638 33.1982 172.855 33.4383 171.879 33.4383H170.129V31.5847H171.413C172.011 31.5847 172.48 31.4342 172.82 31.1429C173.15 30.8611 173.512 30.176 173.912 29.0875L174.318 28.0823L168.933 14.7899H171.249L175.404 25.3419L179.543 14.7899H181.86L181.863 14.7963Z" fill="white"/>
<path d="M28.0772 0.739502H11.5938C3.81771 0.739502 0.972656 3.5449 0.972656 11.244V27.571C0.972656 35.2732 3.81771 38.0913 11.5938 38.0913H28.0772C35.8373 38.0913 38.6824 35.2732 38.6824 27.571V11.244C38.6824 3.54174 35.8501 0.739502 28.0772 0.739502Z" fill="white"/>
<path fill-rule="evenodd" clip-rule="evenodd" d="M15.6094 23.5112L15.1633 24.5465H14.1713L16.2895 19.5198H17.1474L19.2656 24.5465H18.2423L17.8118 23.5112H15.6157H15.6094ZM15.9619 22.5997H17.4406L16.6982 20.8025L15.9619 22.5997ZM31.672 19.5231H32.6516V24.5498H31.672V19.5231ZM27.835 23.6382H30.5178V24.5498H26.871V19.5231H30.4117V20.4509H27.835V21.4732H29.6162V22.4011H27.835V23.6415V23.6382ZM25.0617 19.5231H26.0849L24.4097 24.5628H23.583L22.4849 21.2551L21.3869 24.5628H20.5851L18.8943 19.5231H19.9487L21.0156 22.9871L22.0981 19.5231H22.8998L23.9979 22.9871L25.0617 19.5231ZM12.6926 19.5231H13.6722V22.3718C13.6722 23.8107 12.9141 24.6442 11.579 24.6442C10.2438 24.6442 9.51693 23.8238 9.51693 22.4043V19.5296H10.4965V22.3783C10.4965 23.2247 10.8833 23.6773 11.5946 23.6773C12.3058 23.6773 12.6926 23.228 12.6926 22.4108V19.5263V19.5231ZM7.18038 19.5231H8.15992V24.5628H7.18038V22.5052H4.97173V24.5628H3.99219V19.5231H4.97173V21.5481H7.18038V19.5231ZM18.3203 13.1192C14.9231 13.1192 12.1842 10.2445 12.1842 6.71533H13.042C13.042 9.74634 15.416 12.2076 18.3203 12.2076C21.2246 12.2076 23.5986 9.74634 23.5986 6.71533H24.4565C24.4565 10.2379 21.7019 13.1192 18.3203 13.1192Z" fill="#6B9BBB"/>
</svg>
