<svg width="173" height="32" viewBox="0 0 173 32" fill="none" xmlns="http://www.w3.org/2000/svg">
<path d="M49.0073 4.564C47.7165 4.87465 46.6436 5.34879 45.5204 6.10087C44.2296 6.98376 44.0117 7.17995 43.0729 8.30808C38.664 13.589 41.4803 21.7148 48.4206 23.7095C49.6611 24.0528 52.9134 24.1019 54.0365 23.7912C56.4841 23.0882 58.831 21.257 59.7195 19.3441C60.4907 17.6601 60.8595 15.6818 60.6583 14.194L60.541 13.2947L55.9979 13.3438L51.4381 13.3928L51.3878 14.6518L51.3375 15.927H54.64H57.9426L57.8252 16.6137C57.1714 20.6521 52.0919 22.7449 47.9177 20.7011C45.1013 19.3441 43.4752 16.1886 43.9781 13.1149C44.5146 9.7632 47.2471 7.229 50.5664 6.98376C52.6451 6.83661 53.6845 7.1309 55.9979 8.56968C56.35 8.78222 56.417 8.74952 57.2552 7.93204L58.1437 7.0655L57.4564 6.46057C55.4112 4.6948 51.8405 3.89367 49.0073 4.564Z" fill="white"/>
<path d="M104.02 14.5416V23.998H105.539H107.059V14.5416V5.08512H105.539H104.02V14.5416Z" fill="white"/>
<path d="M127.613 15.2489L127.664 23.8997L128.991 23.9489L130.335 23.998L130.37 20.5902L130.421 17.1823L133.006 17.1003C135.333 17.0348 135.694 16.9693 136.539 16.5924C137.728 16.0518 138.882 15.0032 139.348 14.0201C139.865 12.9224 139.865 10.9235 139.348 9.85858C138.813 8.72808 137.504 7.56481 136.263 7.08967C135.315 6.72922 134.971 6.69645 131.404 6.6473L127.578 6.59815L127.613 15.2489ZM135.591 9.44898C136.591 9.98965 137.056 10.7269 137.056 11.8083C137.056 12.7913 136.901 13.1846 136.211 13.8727C135.47 14.6427 134.816 14.8066 132.472 14.8066H130.335V11.9394V9.07214H132.627C134.661 9.07214 134.971 9.1213 135.591 9.44898Z" fill="white"/>
<path d="M142.045 6.95928C141.986 7.23833 142.025 23.0296 142.084 23.8667C142.104 23.9488 142.773 23.998 143.579 23.998H145.055V15.2981V6.59815H143.599C142.261 6.59815 142.143 6.63098 142.045 6.95928Z" fill="white"/>
<path d="M151.465 11.2292C149.944 11.5537 147.861 12.7543 147.861 13.306C147.861 13.4195 148.181 13.7927 148.582 14.1334L149.319 14.7337L149.751 14.3119C151.802 12.3163 155.551 13.2573 155.551 15.7559C155.551 16.5671 155.535 16.5671 154.317 16.2102C153.051 15.837 150.793 15.9506 149.703 16.4536C148.085 17.1837 147.316 18.3519 147.332 20.0392C147.332 21.3047 147.717 22.1647 148.598 22.9597C149.511 23.7709 150.168 23.9818 151.706 23.998C152.907 23.998 153.18 23.9494 153.788 23.5762C154.189 23.3491 154.734 22.9272 154.99 22.6352L155.47 22.116L155.551 22.911L155.631 23.6898L156.8 23.7385L157.97 23.7871L157.922 19.1144C157.873 14.5877 157.857 14.4255 157.505 13.7116C156.832 12.4298 155.743 11.6511 154.141 11.2941C153.308 11.1156 152.09 11.0832 151.465 11.2292ZM154.894 18.1734C155.583 18.4654 155.583 18.4654 155.503 19.1793C155.294 21.0289 153.212 22.4892 151.433 22.0024C150.52 21.759 149.976 21.2561 149.847 20.6071C149.623 19.3578 150.216 18.2707 151.289 17.93C152.026 17.7029 154.093 17.8489 154.894 18.1734Z" fill="white"/>
<path d="M66.8551 11.9817C64.1036 12.4467 62.0025 14.5888 61.5522 17.4283C61.0353 20.5834 63.0864 23.6886 66.2548 24.5355C69.3231 25.3492 72.5415 23.8381 73.8589 20.9819C74.4258 19.7531 74.5592 17.7605 74.159 16.4486C73.2419 13.3766 70.0902 11.4504 66.8551 11.9817ZM69.8067 14.8877C72.5081 16.4486 72.2246 20.8325 69.3564 22.0115C68.4893 22.3768 67.1886 22.3436 66.4049 21.945C64.9374 21.1978 64.0869 19.5871 64.2704 17.8435C64.5705 15.0372 67.4387 13.4928 69.8067 14.8877Z" fill="white"/>
<path d="M81.6927 11.925C80.4417 12.058 79.0239 12.6897 78.0564 13.5708C75.9881 15.4327 75.3709 18.0426 76.3717 20.7025C77.4559 23.5951 80.7419 25.3073 83.8445 24.5925C85.6626 24.1769 87.3807 22.8802 88.1814 21.3176C89.0321 19.6552 89.0321 17.1782 88.1814 15.3828C87.1138 13.1219 84.3616 11.659 81.6927 11.925ZM83.4108 14.4851C84.2115 14.7012 85.279 15.6488 85.7294 16.5298C86.1631 17.361 86.1964 19.0733 85.7961 19.9876C85.1122 21.5836 83.7778 22.3815 82.0263 22.2485C80.7086 22.1488 79.8078 21.5337 79.1406 20.2869C78.7069 19.4557 78.6736 19.2562 78.7236 18.1258C78.8237 16.347 79.4909 15.3495 81.0255 14.6513C81.8762 14.269 82.4934 14.2191 83.4108 14.4851Z" fill="white"/>
<path d="M94.7795 11.9704C93.0345 12.2464 91.0754 13.6908 90.2523 15.2976C88.6719 18.3976 90.0054 22.309 93.1662 23.8347C94.121 24.3053 94.4009 24.3702 95.652 24.3702C97.1501 24.3702 97.7757 24.1593 98.6317 23.364C99.2079 22.8446 99.3396 23.0556 99.2079 24.354C99.0104 26.399 98.286 27.2754 96.4587 27.6812C95.0265 28.0058 93.6271 27.3728 92.6558 25.9446L92.4089 25.5875L91.2401 26.0257L90.0877 26.4639L90.4169 27.0969C90.8944 28.022 91.9973 29.0445 93.1168 29.5801C94.0058 30.0021 94.2363 30.0508 95.8167 30.0508C97.3477 30.0508 97.6605 30.0021 98.4836 29.6126C100.064 28.8822 101.151 27.5189 101.562 25.7336C101.661 25.3116 101.743 22.3415 101.743 18.641V12.2788H100.508H99.2738V12.7657C99.2738 13.3338 99.1092 13.3825 98.7141 12.9443C98.3519 12.5385 97.0678 12.0191 96.2282 11.9218C95.866 11.8731 95.2075 11.8893 94.7795 11.9704ZM97.4794 14.6484C98.1214 14.973 98.5 15.3625 98.9775 16.2552C99.5207 17.229 99.5043 19.2253 98.9445 20.2316C97.4794 22.8284 93.7753 22.5687 92.6065 19.7934C92.2443 18.9494 92.2937 17.229 92.6888 16.4175C93.1168 15.5573 93.9728 14.7458 94.7631 14.4537C95.5368 14.1777 96.7386 14.2589 97.4794 14.6484Z" fill="white"/>
<path d="M113.435 11.9712C111.574 12.2711 110.049 13.4374 109.134 15.3034C108.556 16.4531 108.412 18.8689 108.813 20.3018C109.937 24.3505 114.799 26.0666 118.202 23.6341C118.683 23.2842 119.245 22.7843 119.454 22.4844L119.839 21.9679L118.828 21.2848L117.833 20.6017L117.255 21.1849C116.95 21.5014 116.42 21.868 116.099 22.0179C115.297 22.3512 113.949 22.3345 113.146 21.9513C112.537 21.668 111.638 20.685 111.638 20.3351C111.638 20.2518 113.211 19.5187 115.136 18.7023C117.046 17.9026 118.924 17.0862 119.293 16.9196L119.983 16.6197L119.662 15.8532C118.459 12.9375 116.196 11.538 113.435 11.9712ZM115.795 14.587C116.469 14.9535 116.838 15.3368 116.741 15.6033C116.709 15.7033 116.003 16.0865 115.169 16.4531C114.334 16.8196 113.114 17.3528 112.472 17.636C111.83 17.9192 111.269 18.1025 111.221 18.0525C110.98 17.8026 111.365 16.3864 111.846 15.72C112.825 14.3871 114.495 13.9039 115.795 14.587Z" fill="white"/>
<path d="M159.488 12.0244C159.488 12.1694 162.2 18.1461 164.103 22.2379C164.642 23.3978 164.642 23.6072 164.103 24.6383C163.85 25.1054 163.261 26.3298 162.772 27.3769L161.88 29.2939L163.244 29.2456L164.608 29.1973L165.686 26.8614C166.275 25.5726 167.016 23.9455 167.319 23.2367C167.622 22.5279 168.902 19.6926 170.149 16.9539L172.405 11.9599L171.058 11.9116C170.317 11.8794 169.694 11.8955 169.643 11.9277C169.61 11.976 169.138 13.0393 168.599 14.312C168.06 15.5846 167.572 16.7445 167.521 16.8734C167.454 17.0023 167.134 17.7916 166.78 18.6293C166.427 19.467 166.073 20.1437 165.972 20.1437C165.821 20.1275 164.507 17.26 162.789 13.2487L162.233 11.9599L160.869 11.9116C160.01 11.8794 159.488 11.9277 159.488 12.0244Z" fill="white"/>
<path d="M19.652 13.5865C18.3636 14.8853 17.3047 15.9637 17.3047 15.9837C17.3047 16.0398 17.7597 16.4888 17.8201 16.4888C17.8442 16.4888 17.8684 16.5089 17.8684 16.5369C17.8684 16.585 21.8665 20.5938 21.9832 20.6579C22.0356 20.69 22.1121 20.6659 22.2852 20.5737C22.414 20.5056 22.7281 20.3332 22.9817 20.1969C23.2354 20.0606 23.5374 19.8963 23.6461 19.8401C23.7588 19.78 23.9199 19.6918 24.0084 19.6397C24.097 19.5916 24.3144 19.4713 24.4916 19.3751C24.6687 19.2789 25.0351 19.0785 25.3049 18.9261C25.5787 18.7778 25.8082 18.6535 25.8162 18.6535C25.8243 18.6535 26.0095 18.5533 26.2269 18.4291C26.4484 18.3048 26.7705 18.1284 26.9476 18.0322C27.1248 17.94 27.3422 17.8237 27.4308 17.7716C27.5193 17.7235 27.7448 17.5992 27.934 17.499C28.9487 16.9619 29.2788 16.7053 29.4681 16.3084C29.6251 15.9757 29.5486 15.5949 29.2587 15.2662C29.0856 15.0697 28.8118 14.9094 26.7262 13.7829C25.7196 13.2377 24.8781 12.7767 24.8539 12.7607C24.8338 12.7447 24.6768 12.6605 24.5117 12.5723C23.8595 12.2235 23.1065 11.8187 22.7804 11.6383C22.5912 11.534 22.3375 11.3977 22.2167 11.3376L21.9993 11.2254L19.652 13.5865Z" fill="url(#paint0_linear_1448_2450)" fill-opacity="0.6"/>
<path d="M19.652 13.5865C18.3636 14.8853 17.3047 15.9637 17.3047 15.9837C17.3047 16.0398 17.7597 16.4888 17.8201 16.4888C17.8442 16.4888 17.8684 16.5089 17.8684 16.5369C17.8684 16.585 21.8665 20.5938 21.9832 20.6579C22.0356 20.69 22.1121 20.6659 22.2852 20.5737C22.414 20.5056 22.7281 20.3332 22.9817 20.1969C23.2354 20.0606 23.5374 19.8963 23.6461 19.8401C23.7588 19.78 23.9199 19.6918 24.0084 19.6397C24.097 19.5916 24.3144 19.4713 24.4916 19.3751C24.6687 19.2789 25.0351 19.0785 25.3049 18.9261C25.5787 18.7778 25.8082 18.6535 25.8162 18.6535C25.8243 18.6535 26.0095 18.5533 26.2269 18.4291C26.4484 18.3048 26.7705 18.1284 26.9476 18.0322C27.1248 17.94 27.3422 17.8237 27.4308 17.7716C27.5193 17.7235 27.7448 17.5992 27.934 17.499C28.9487 16.9619 29.2788 16.7053 29.4681 16.3084C29.6251 15.9757 29.5486 15.5949 29.2587 15.2662C29.0856 15.0697 28.8118 14.9094 26.7262 13.7829C25.7196 13.2377 24.8781 12.7767 24.8539 12.7607C24.8338 12.7447 24.6768 12.6605 24.5117 12.5723C23.8595 12.2235 23.1065 11.8187 22.7804 11.6383C22.5912 11.534 22.3375 11.3977 22.2167 11.3376L21.9993 11.2254L19.652 13.5865Z" fill="#878787" fill-opacity="0.24"/>
<path d="M17.0545 16.2681C16.9861 16.3443 16.9096 16.4526 16.8854 16.5087C16.8573 16.5648 16.7848 16.6329 16.7204 16.653C16.6439 16.681 16.5875 16.7372 16.5593 16.8133C16.5311 16.8935 16.4748 16.9536 16.3942 16.9817C16.3298 17.0058 16.2735 17.0458 16.2735 17.0699C16.2735 17.138 16.056 17.3305 15.9795 17.3305C15.9433 17.3305 15.9151 17.3425 15.9191 17.3625C15.9393 17.4146 15.7702 17.599 15.6454 17.6632C15.5769 17.6993 15.4964 17.7835 15.4682 17.8516C15.44 17.9157 15.3957 17.9719 15.3716 17.9719C15.3192 17.9719 15.0656 18.2164 15.0656 18.2645C15.0656 18.2805 15.0938 18.2926 15.126 18.2926C15.1622 18.2926 15.1864 18.3286 15.1864 18.3928C15.1864 18.473 15.1662 18.493 15.0857 18.493C15.0293 18.493 14.985 18.473 14.985 18.4529C14.985 18.4289 14.9649 18.4128 14.9408 18.4128C14.8602 18.4128 12.9357 20.3851 12.9598 20.4452C12.9719 20.4733 12.9679 20.4974 12.9478 20.4934C12.9276 20.4893 12.8914 20.4893 12.8672 20.4934C12.8149 20.4974 11.764 21.5436 11.764 21.5877C11.764 21.6038 11.7479 21.6198 11.7278 21.6198C11.6634 21.6198 10.9145 22.3975 10.8944 22.4897C10.8782 22.5418 10.838 22.5819 10.8017 22.5819C10.7252 22.5819 9.60595 23.6923 9.64218 23.7324C9.65829 23.7444 9.69452 23.7324 9.73076 23.7043C9.7831 23.6603 9.79115 23.6683 9.79115 23.7605C9.79115 23.8567 9.77907 23.8647 9.61802 23.8647C9.48918 23.8647 9.42074 23.8888 9.36437 23.9489C9.308 24.013 9.30397 24.0411 9.34021 24.0531C9.36437 24.0651 9.38853 24.1172 9.38853 24.1694C9.38853 24.2455 9.36839 24.2656 9.28787 24.2656C9.2315 24.2656 9.18721 24.2816 9.18721 24.3057C9.18721 24.3257 9.14292 24.3457 9.08656 24.3457C8.95369 24.3457 8.64367 24.6223 8.70406 24.6825C8.72419 24.7025 8.74432 24.7627 8.74432 24.8148C8.74432 24.8869 8.72017 24.907 8.64769 24.907C8.59132 24.907 8.53496 24.8869 8.51885 24.8629C8.48664 24.8108 8.34572 24.9711 8.3417 25.0593C8.3417 25.1395 8.23299 25.2357 8.20078 25.1876C8.16051 25.1234 8.05986 25.2197 8.05986 25.3239C8.05986 25.372 8.09609 25.4321 8.14038 25.4602C8.23701 25.5203 8.24507 25.6205 8.15649 25.6566C8.11622 25.6726 8.05583 25.6406 7.99544 25.5724C7.87465 25.4481 7.83036 25.4401 7.79815 25.5484C7.78607 25.5925 7.75386 25.6285 7.73373 25.6285C7.6532 25.6285 7.70554 25.7528 7.80218 25.7889C7.92296 25.837 7.91894 25.9693 7.79815 25.9693C7.74581 25.9693 7.7136 25.9372 7.70554 25.8811C7.68541 25.7368 7.57268 25.7688 7.34721 25.9853C7.19018 26.1377 7.15395 26.1938 7.19018 26.2339C7.22239 26.2699 7.22239 26.2739 7.18213 26.2499C7.12174 26.2178 6.85197 26.4503 6.85197 26.5385C6.85197 26.5666 6.82782 26.5866 6.80366 26.5786C6.77548 26.5746 6.74729 26.6107 6.73924 26.6588C6.73119 26.7189 6.69898 26.751 6.64664 26.751C6.60235 26.751 6.55806 26.7831 6.54195 26.8191C6.49364 26.9514 6.3648 27.1118 6.3044 27.1118C6.2279 27.1118 6.12725 27.208 6.12725 27.2801C6.12725 27.3603 6.04269 27.4325 5.95412 27.4325C5.91385 27.4325 5.89372 27.4525 5.9058 27.4726C5.91788 27.4966 5.90177 27.5247 5.86956 27.5367C5.83333 27.5487 5.80514 27.5848 5.80514 27.6169C5.80514 27.6489 5.74475 27.697 5.67228 27.7291C5.55149 27.7772 5.35823 27.9897 5.4307 27.9937C5.45083 27.9977 5.40654 28.0218 5.33407 28.0538C5.24147 28.0939 5.19315 28.146 5.16899 28.2422C5.14484 28.3425 5.11263 28.3785 5.0321 28.3865C4.9395 28.3986 4.8791 28.4707 4.82676 28.6431C4.81468 28.6792 4.76234 28.7153 4.71 28.7233C4.65363 28.7313 4.59324 28.7834 4.557 28.8636C4.52479 28.9357 4.46037 29.0079 4.41608 29.0199C4.3114 29.056 4.1584 29.1683 4.15437 29.2083C4.15437 29.2244 4.08995 29.3045 4.01345 29.3847C3.93695 29.4649 3.87253 29.5531 3.87253 29.5852C3.87253 29.6132 3.82824 29.6573 3.7759 29.6774C3.72356 29.6974 3.55446 29.8377 3.40146 29.986C3.24846 30.1384 3.09546 30.2747 3.0552 30.2907C3.01896 30.3027 2.98675 30.3428 2.98675 30.3749C2.98675 30.4029 2.95857 30.443 2.92233 30.4551C2.89012 30.4671 2.87402 30.4951 2.8861 30.5192C2.9022 30.5432 2.92636 30.5513 2.94649 30.5392C3.01091 30.4992 3.02702 30.5914 2.96662 30.6395C2.93441 30.6675 2.90623 30.7116 2.90623 30.7357C2.90623 30.7838 2.81765 30.8639 2.68076 30.9441C2.64049 30.9722 2.60426 31.0283 2.60828 31.0764C2.60828 31.1446 2.58815 31.1606 2.49555 31.1606C2.43515 31.1606 2.38281 31.1806 2.38281 31.2047C2.38281 31.2328 2.41905 31.2408 2.49152 31.2167C2.55594 31.2007 2.64452 31.1887 2.69686 31.1887C2.76128 31.1927 2.78544 31.1766 2.76933 31.1325C2.75323 31.1005 2.76128 31.0884 2.78947 31.1045C2.81362 31.1205 2.84583 31.1165 2.86194 31.0965C2.9022 31.0363 3.06325 30.9602 3.14378 30.9602C3.18404 30.9602 3.26457 30.9241 3.32093 30.88C3.3773 30.8359 3.43367 30.7998 3.44977 30.7998C3.49004 30.7998 3.59069 30.6876 3.59069 30.6435C3.59069 30.5914 3.65914 30.5833 3.67927 30.6354C3.68732 30.6515 3.72759 30.6354 3.76785 30.5954C3.84435 30.5192 3.84435 30.5192 3.7598 30.5192C3.64706 30.5192 3.64304 30.439 3.75175 30.411C3.79603 30.3989 3.83227 30.3629 3.83227 30.3348C3.83227 30.3027 3.86851 30.2787 3.9128 30.2787C4.00137 30.2787 4.02956 30.419 3.94501 30.451C3.91682 30.4631 3.93293 30.4671 3.98527 30.4671C4.03358 30.4631 4.07385 30.447 4.07385 30.431C4.07385 30.415 4.12216 30.3989 4.18256 30.3989C4.27919 30.3989 4.28321 30.3949 4.22282 30.3508C4.16242 30.3027 4.16645 30.2987 4.26308 30.2947C4.3275 30.2907 4.44426 30.2426 4.52882 30.1865C4.61337 30.1303 4.73416 30.0742 4.79858 30.0582C4.86702 30.0422 4.91936 30.0181 4.91936 30.0021C4.91936 29.982 4.99586 29.9379 5.09249 29.8938C5.1851 29.8537 5.30991 29.7696 5.37031 29.7054C5.43473 29.6333 5.53136 29.5812 5.60786 29.5731C5.68033 29.5651 5.78099 29.529 5.8293 29.497C5.88164 29.4649 5.95009 29.4368 5.98633 29.4368C6.02256 29.4368 6.03867 29.4168 6.02659 29.3968C6.01451 29.3727 6.02256 29.3567 6.05075 29.3567C6.0749 29.3567 6.12725 29.3246 6.16348 29.2805C6.19972 29.2404 6.28024 29.2043 6.34466 29.2043C6.40908 29.2043 6.47753 29.1763 6.49766 29.1402C6.5339 29.0801 6.84392 28.9157 6.92847 28.9157C6.95263 28.9157 6.97276 28.8997 6.97276 28.8796C6.97276 28.8596 7.02913 28.8235 7.09355 28.7994C7.162 28.7794 7.21434 28.7393 7.21434 28.7193C7.21434 28.6952 7.22642 28.6792 7.24655 28.6832C7.29084 28.6912 7.41565 28.6311 7.41565 28.595C7.41565 28.579 7.37136 28.575 7.315 28.587C7.2546 28.595 7.21434 28.587 7.21434 28.5589C7.21434 28.5309 7.28279 28.5148 7.38747 28.5188C7.61697 28.5228 7.81828 28.4747 7.81828 28.4146C7.81828 28.3906 7.8666 28.3425 7.93102 28.3144C8.03973 28.2583 8.07194 28.2462 8.16857 28.2382C8.19675 28.2382 8.20883 28.2102 8.20078 28.1821C8.17662 28.122 8.36988 28.0258 8.40612 28.0819C8.42222 28.1059 8.44235 28.1099 8.45846 28.0819C8.47054 28.0618 8.54704 28.0137 8.62353 27.9736C8.70003 27.9336 8.82082 27.8654 8.88524 27.8173C8.95369 27.7732 9.01408 27.7331 9.02616 27.7291C9.03824 27.7291 9.11071 27.697 9.18721 27.661C9.26371 27.6209 9.29592 27.6008 9.25969 27.6129C9.2154 27.6209 9.18721 27.6089 9.18721 27.5728C9.18721 27.5327 9.2154 27.5247 9.308 27.5527C9.38047 27.5728 9.42879 27.5728 9.42879 27.5487C9.42879 27.5287 9.45697 27.5126 9.49321 27.5126C9.52542 27.5126 9.54152 27.4926 9.52945 27.4726C9.50529 27.4365 9.56971 27.4164 9.69855 27.4204C9.72673 27.4245 9.73881 27.4084 9.72673 27.3884C9.71465 27.3683 9.75894 27.3323 9.82739 27.3082C9.89584 27.2841 9.9522 27.2481 9.9522 27.228C9.9522 27.208 9.98844 27.1919 10.0327 27.1919C10.081 27.1919 10.1133 27.1639 10.1133 27.1278C10.1133 27.0837 10.1374 27.0677 10.1938 27.0837C10.2381 27.0957 10.2743 27.0877 10.2743 27.0677C10.2743 27.0476 10.2985 27.0316 10.3266 27.0316C10.3589 27.0316 10.4233 26.9955 10.4756 26.9514C10.528 26.9073 10.5964 26.8712 10.6326 26.8712C10.6689 26.8712 10.7655 26.8071 10.8501 26.7309C10.995 26.5987 11.1158 26.5425 11.0594 26.6307C11.0474 26.6548 11.0635 26.6588 11.0957 26.6468C11.1319 26.6347 11.1601 26.6067 11.1601 26.5906C11.1601 26.5586 11.3131 26.4984 11.3735 26.5065C11.3896 26.5105 11.4137 26.4824 11.4258 26.4503C11.4379 26.4183 11.5184 26.3742 11.5989 26.3501C11.6996 26.3261 11.7681 26.2739 11.7962 26.2098C11.8284 26.1377 11.8727 26.1096 11.9573 26.1096C12.0177 26.1096 12.1103 26.0735 12.1546 26.0334C12.2029 25.9893 12.2472 25.9653 12.2593 25.9773C12.2754 25.9893 12.3116 25.9693 12.3478 25.9332C12.3841 25.8971 12.4404 25.8691 12.4727 25.8691C12.5049 25.8691 12.529 25.849 12.529 25.829C12.529 25.8049 12.5411 25.7929 12.5612 25.7969C12.5773 25.8049 12.6337 25.7769 12.6901 25.7368C12.7424 25.7007 12.7625 25.6686 12.7344 25.6686C12.7021 25.6686 12.6901 25.6566 12.7021 25.6446C12.7183 25.6285 12.7545 25.6406 12.7867 25.6646C12.827 25.6967 12.8511 25.7007 12.8713 25.6686C12.8833 25.6446 12.9115 25.6366 12.9316 25.6486C12.9478 25.6606 12.9759 25.6406 12.988 25.6045C13.0001 25.5724 13.0283 25.5524 13.0444 25.5644C13.0645 25.5764 13.1289 25.5403 13.1893 25.4882C13.2537 25.4321 13.4792 25.3038 13.6926 25.1996C13.906 25.0914 14.0872 24.9952 14.0912 24.9751C14.0993 24.9591 14.1234 24.9551 14.1436 24.9711C14.1637 24.9831 14.1798 24.9711 14.1798 24.9511C14.1798 24.927 14.208 24.907 14.2402 24.907C14.2724 24.907 14.2885 24.8829 14.2764 24.8549C14.2684 24.8268 14.2845 24.7707 14.3167 24.7266C14.361 24.6664 14.3851 24.6584 14.4254 24.6945C14.4898 24.7466 14.6911 24.6785 14.7797 24.5742C14.8079 24.5342 14.8643 24.5061 14.9045 24.5061C14.9408 24.5061 15.0213 24.47 15.0817 24.4219C15.138 24.3778 15.2025 24.3498 15.2186 24.3618C15.2387 24.3738 15.3112 24.3177 15.3796 24.2415C15.4722 24.1413 15.5286 24.1052 15.585 24.1253C15.6333 24.1373 15.6695 24.1253 15.6856 24.0852C15.6977 24.0491 15.7299 24.025 15.7581 24.0291C15.8507 24.0491 16.1245 23.9048 16.2332 23.7845C16.2936 23.7164 16.3661 23.6643 16.3983 23.6643C16.4305 23.6643 16.5633 23.6121 16.6962 23.544C16.8291 23.4799 16.9619 23.4237 16.9901 23.4237C17.0143 23.4237 17.0384 23.4077 17.0384 23.3877C17.0384 23.3676 17.0787 23.3436 17.131 23.3355C17.1794 23.3275 17.2156 23.2995 17.2075 23.2714C17.2035 23.2393 17.2116 23.2273 17.2317 23.2393C17.28 23.2674 17.6061 23.103 17.7028 22.9988C17.7471 22.9507 17.8638 22.8745 17.9645 22.8345C18.0651 22.7904 18.2262 22.7222 18.3269 22.6781C18.4275 22.638 18.5322 22.5819 18.5604 22.5538C18.5886 22.5258 18.657 22.4897 18.7134 22.4777C18.7657 22.4657 18.81 22.4376 18.81 22.4175C18.81 22.3975 18.8342 22.3815 18.8664 22.3815C18.8986 22.3815 18.9308 22.3574 18.9429 22.3253C18.9711 22.2572 19.2086 22.1329 19.2569 22.165C19.2771 22.177 19.2932 22.165 19.2932 22.1409C19.2932 22.1169 19.3093 22.1049 19.3294 22.1209C19.3495 22.1329 19.3777 22.1249 19.3938 22.1009C19.4059 22.0808 19.4542 22.0608 19.4985 22.0608C19.5428 22.0608 19.5669 22.0407 19.5549 22.0207C19.5428 21.9966 19.5669 21.9806 19.6072 21.9806C19.6515 21.9806 19.6958 21.9565 19.7079 21.9245C19.7199 21.8924 19.7844 21.8563 19.8528 21.8403C19.9213 21.8243 19.9696 21.7962 19.9535 21.7761C19.9414 21.7561 19.9816 21.7401 20.042 21.7401C20.1024 21.7401 20.1427 21.728 20.1266 21.716C20.1145 21.704 20.2876 21.5998 20.5131 21.4875C20.7386 21.3753 20.9318 21.267 20.9359 21.251C20.9439 21.235 20.9721 21.2189 21.0003 21.2189C21.0687 21.2189 21.2499 21.0586 21.2338 21.0105C21.2298 20.9904 21.2419 20.9864 21.266 20.9985C21.3305 21.0385 21.7089 20.8501 21.7089 20.786C21.7089 20.7499 21.7331 20.7379 21.7693 20.7539C21.8015 20.7659 21.8297 20.7659 21.8297 20.7499C21.8297 20.7379 21.3305 20.2328 20.7225 19.6275C20.034 18.942 19.5992 18.5371 19.571 18.5571C19.5428 18.5732 19.5347 18.5692 19.5508 18.5411C19.5871 18.485 18.9912 17.8757 18.9348 17.9117C18.9066 17.9278 18.8946 17.9157 18.8986 17.8837C18.9066 17.8556 18.8865 17.8356 18.8583 17.8436C18.8261 17.8476 18.814 17.8356 18.8261 17.8155C18.8462 17.7875 17.2438 16.1278 17.1955 16.1278C17.1874 16.1278 17.123 16.192 17.0545 16.2681ZM17.3122 16.2802C17.3364 16.3523 17.2518 16.3363 17.2237 16.2641C17.2075 16.2241 17.2196 16.208 17.2478 16.216C17.272 16.2241 17.3042 16.2561 17.3122 16.2802ZM13.294 25.3479C13.294 25.4 13.133 25.4 13.0524 25.3479C13.0081 25.3199 13.0323 25.3078 13.145 25.3078C13.2256 25.3078 13.294 25.3239 13.294 25.3479ZM7.21434 26.5305C7.21434 26.5626 7.18616 26.5906 7.15395 26.5906C7.08952 26.5906 7.07342 26.5425 7.12174 26.4984C7.16602 26.4503 7.21434 26.4664 7.21434 26.5305ZM6.16751 29.1963C6.16751 29.2484 6.04672 29.2484 5.96619 29.1963C5.92191 29.1683 5.93801 29.1562 6.03867 29.1562C6.10711 29.1562 6.16751 29.1723 6.16751 29.1963ZM4.20671 29.3807C4.16242 29.4489 4.13021 29.4689 4.12216 29.4368C4.11008 29.4088 4.13424 29.3607 4.17853 29.3286C4.28321 29.2524 4.28724 29.2605 4.20671 29.3807ZM3.56251 30.0221C3.51822 30.0903 3.48601 30.1103 3.47796 30.0782C3.46588 30.0502 3.49004 30.0021 3.53433 29.97C3.63901 29.8938 3.64304 29.9019 3.56251 30.0221ZM3.32899 30.2346C3.34107 30.2586 3.31288 30.2947 3.26859 30.3188C3.18807 30.3629 3.18404 30.3588 3.22833 30.2827C3.27664 30.1905 3.29275 30.1825 3.32899 30.2346Z" fill="url(#paint1_linear_1448_2450)"/>
<path d="M17.0545 16.2681C16.9861 16.3443 16.9096 16.4526 16.8854 16.5087C16.8573 16.5648 16.7848 16.6329 16.7204 16.653C16.6439 16.681 16.5875 16.7372 16.5593 16.8133C16.5311 16.8935 16.4748 16.9536 16.3942 16.9817C16.3298 17.0058 16.2735 17.0458 16.2735 17.0699C16.2735 17.138 16.056 17.3305 15.9795 17.3305C15.9433 17.3305 15.9151 17.3425 15.9191 17.3625C15.9393 17.4146 15.7702 17.599 15.6454 17.6632C15.5769 17.6993 15.4964 17.7835 15.4682 17.8516C15.44 17.9157 15.3957 17.9719 15.3716 17.9719C15.3192 17.9719 15.0656 18.2164 15.0656 18.2645C15.0656 18.2805 15.0938 18.2926 15.126 18.2926C15.1622 18.2926 15.1864 18.3286 15.1864 18.3928C15.1864 18.473 15.1662 18.493 15.0857 18.493C15.0293 18.493 14.985 18.473 14.985 18.4529C14.985 18.4289 14.9649 18.4128 14.9408 18.4128C14.8602 18.4128 12.9357 20.3851 12.9598 20.4452C12.9719 20.4733 12.9679 20.4974 12.9478 20.4934C12.9276 20.4893 12.8914 20.4893 12.8672 20.4934C12.8149 20.4974 11.764 21.5436 11.764 21.5877C11.764 21.6038 11.7479 21.6198 11.7278 21.6198C11.6634 21.6198 10.9145 22.3975 10.8944 22.4897C10.8782 22.5418 10.838 22.5819 10.8017 22.5819C10.7252 22.5819 9.60595 23.6923 9.64218 23.7324C9.65829 23.7444 9.69452 23.7324 9.73076 23.7043C9.7831 23.6603 9.79115 23.6683 9.79115 23.7605C9.79115 23.8567 9.77907 23.8647 9.61802 23.8647C9.48918 23.8647 9.42074 23.8888 9.36437 23.9489C9.308 24.013 9.30397 24.0411 9.34021 24.0531C9.36437 24.0651 9.38853 24.1172 9.38853 24.1694C9.38853 24.2455 9.36839 24.2656 9.28787 24.2656C9.2315 24.2656 9.18721 24.2816 9.18721 24.3057C9.18721 24.3257 9.14292 24.3457 9.08656 24.3457C8.95369 24.3457 8.64367 24.6223 8.70406 24.6825C8.72419 24.7025 8.74432 24.7627 8.74432 24.8148C8.74432 24.8869 8.72017 24.907 8.64769 24.907C8.59132 24.907 8.53496 24.8869 8.51885 24.8629C8.48664 24.8108 8.34572 24.9711 8.3417 25.0593C8.3417 25.1395 8.23299 25.2357 8.20078 25.1876C8.16051 25.1234 8.05986 25.2197 8.05986 25.3239C8.05986 25.372 8.09609 25.4321 8.14038 25.4602C8.23701 25.5203 8.24507 25.6205 8.15649 25.6566C8.11622 25.6726 8.05583 25.6406 7.99544 25.5724C7.87465 25.4481 7.83036 25.4401 7.79815 25.5484C7.78607 25.5925 7.75386 25.6285 7.73373 25.6285C7.6532 25.6285 7.70554 25.7528 7.80218 25.7889C7.92296 25.837 7.91894 25.9693 7.79815 25.9693C7.74581 25.9693 7.7136 25.9372 7.70554 25.8811C7.68541 25.7368 7.57268 25.7688 7.34721 25.9853C7.19018 26.1377 7.15395 26.1938 7.19018 26.2339C7.22239 26.2699 7.22239 26.2739 7.18213 26.2499C7.12174 26.2178 6.85197 26.4503 6.85197 26.5385C6.85197 26.5666 6.82782 26.5866 6.80366 26.5786C6.77548 26.5746 6.74729 26.6107 6.73924 26.6588C6.73119 26.7189 6.69898 26.751 6.64664 26.751C6.60235 26.751 6.55806 26.7831 6.54195 26.8191C6.49364 26.9514 6.3648 27.1118 6.3044 27.1118C6.2279 27.1118 6.12725 27.208 6.12725 27.2801C6.12725 27.3603 6.04269 27.4325 5.95412 27.4325C5.91385 27.4325 5.89372 27.4525 5.9058 27.4726C5.91788 27.4966 5.90177 27.5247 5.86956 27.5367C5.83333 27.5487 5.80514 27.5848 5.80514 27.6169C5.80514 27.6489 5.74475 27.697 5.67228 27.7291C5.55149 27.7772 5.35823 27.9897 5.4307 27.9937C5.45083 27.9977 5.40654 28.0218 5.33407 28.0538C5.24147 28.0939 5.19315 28.146 5.16899 28.2422C5.14484 28.3425 5.11263 28.3785 5.0321 28.3865C4.9395 28.3986 4.8791 28.4707 4.82676 28.6431C4.81468 28.6792 4.76234 28.7153 4.71 28.7233C4.65363 28.7313 4.59324 28.7834 4.557 28.8636C4.52479 28.9357 4.46037 29.0079 4.41608 29.0199C4.3114 29.056 4.1584 29.1683 4.15437 29.2083C4.15437 29.2244 4.08995 29.3045 4.01345 29.3847C3.93695 29.4649 3.87253 29.5531 3.87253 29.5852C3.87253 29.6132 3.82824 29.6573 3.7759 29.6774C3.72356 29.6974 3.55446 29.8377 3.40146 29.986C3.24846 30.1384 3.09546 30.2747 3.0552 30.2907C3.01896 30.3027 2.98675 30.3428 2.98675 30.3749C2.98675 30.4029 2.95857 30.443 2.92233 30.4551C2.89012 30.4671 2.87402 30.4951 2.8861 30.5192C2.9022 30.5432 2.92636 30.5513 2.94649 30.5392C3.01091 30.4992 3.02702 30.5914 2.96662 30.6395C2.93441 30.6675 2.90623 30.7116 2.90623 30.7357C2.90623 30.7838 2.81765 30.8639 2.68076 30.9441C2.64049 30.9722 2.60426 31.0283 2.60828 31.0764C2.60828 31.1446 2.58815 31.1606 2.49555 31.1606C2.43515 31.1606 2.38281 31.1806 2.38281 31.2047C2.38281 31.2328 2.41905 31.2408 2.49152 31.2167C2.55594 31.2007 2.64452 31.1887 2.69686 31.1887C2.76128 31.1927 2.78544 31.1766 2.76933 31.1325C2.75323 31.1005 2.76128 31.0884 2.78947 31.1045C2.81362 31.1205 2.84583 31.1165 2.86194 31.0965C2.9022 31.0363 3.06325 30.9602 3.14378 30.9602C3.18404 30.9602 3.26457 30.9241 3.32093 30.88C3.3773 30.8359 3.43367 30.7998 3.44977 30.7998C3.49004 30.7998 3.59069 30.6876 3.59069 30.6435C3.59069 30.5914 3.65914 30.5833 3.67927 30.6354C3.68732 30.6515 3.72759 30.6354 3.76785 30.5954C3.84435 30.5192 3.84435 30.5192 3.7598 30.5192C3.64706 30.5192 3.64304 30.439 3.75175 30.411C3.79603 30.3989 3.83227 30.3629 3.83227 30.3348C3.83227 30.3027 3.86851 30.2787 3.9128 30.2787C4.00137 30.2787 4.02956 30.419 3.94501 30.451C3.91682 30.4631 3.93293 30.4671 3.98527 30.4671C4.03358 30.4631 4.07385 30.447 4.07385 30.431C4.07385 30.415 4.12216 30.3989 4.18256 30.3989C4.27919 30.3989 4.28321 30.3949 4.22282 30.3508C4.16242 30.3027 4.16645 30.2987 4.26308 30.2947C4.3275 30.2907 4.44426 30.2426 4.52882 30.1865C4.61337 30.1303 4.73416 30.0742 4.79858 30.0582C4.86702 30.0422 4.91936 30.0181 4.91936 30.0021C4.91936 29.982 4.99586 29.9379 5.09249 29.8938C5.1851 29.8537 5.30991 29.7696 5.37031 29.7054C5.43473 29.6333 5.53136 29.5812 5.60786 29.5731C5.68033 29.5651 5.78099 29.529 5.8293 29.497C5.88164 29.4649 5.95009 29.4368 5.98633 29.4368C6.02256 29.4368 6.03867 29.4168 6.02659 29.3968C6.01451 29.3727 6.02256 29.3567 6.05075 29.3567C6.0749 29.3567 6.12725 29.3246 6.16348 29.2805C6.19972 29.2404 6.28024 29.2043 6.34466 29.2043C6.40908 29.2043 6.47753 29.1763 6.49766 29.1402C6.5339 29.0801 6.84392 28.9157 6.92847 28.9157C6.95263 28.9157 6.97276 28.8997 6.97276 28.8796C6.97276 28.8596 7.02913 28.8235 7.09355 28.7994C7.162 28.7794 7.21434 28.7393 7.21434 28.7193C7.21434 28.6952 7.22642 28.6792 7.24655 28.6832C7.29084 28.6912 7.41565 28.6311 7.41565 28.595C7.41565 28.579 7.37136 28.575 7.315 28.587C7.2546 28.595 7.21434 28.587 7.21434 28.5589C7.21434 28.5309 7.28279 28.5148 7.38747 28.5188C7.61697 28.5228 7.81828 28.4747 7.81828 28.4146C7.81828 28.3906 7.8666 28.3425 7.93102 28.3144C8.03973 28.2583 8.07194 28.2462 8.16857 28.2382C8.19675 28.2382 8.20883 28.2102 8.20078 28.1821C8.17662 28.122 8.36988 28.0258 8.40612 28.0819C8.42222 28.1059 8.44235 28.1099 8.45846 28.0819C8.47054 28.0618 8.54704 28.0137 8.62353 27.9736C8.70003 27.9336 8.82082 27.8654 8.88524 27.8173C8.95369 27.7732 9.01408 27.7331 9.02616 27.7291C9.03824 27.7291 9.11071 27.697 9.18721 27.661C9.26371 27.6209 9.29592 27.6008 9.25969 27.6129C9.2154 27.6209 9.18721 27.6089 9.18721 27.5728C9.18721 27.5327 9.2154 27.5247 9.308 27.5527C9.38047 27.5728 9.42879 27.5728 9.42879 27.5487C9.42879 27.5287 9.45697 27.5126 9.49321 27.5126C9.52542 27.5126 9.54152 27.4926 9.52945 27.4726C9.50529 27.4365 9.56971 27.4164 9.69855 27.4204C9.72673 27.4245 9.73881 27.4084 9.72673 27.3884C9.71465 27.3683 9.75894 27.3323 9.82739 27.3082C9.89584 27.2841 9.9522 27.2481 9.9522 27.228C9.9522 27.208 9.98844 27.1919 10.0327 27.1919C10.081 27.1919 10.1133 27.1639 10.1133 27.1278C10.1133 27.0837 10.1374 27.0677 10.1938 27.0837C10.2381 27.0957 10.2743 27.0877 10.2743 27.0677C10.2743 27.0476 10.2985 27.0316 10.3266 27.0316C10.3589 27.0316 10.4233 26.9955 10.4756 26.9514C10.528 26.9073 10.5964 26.8712 10.6326 26.8712C10.6689 26.8712 10.7655 26.8071 10.8501 26.7309C10.995 26.5987 11.1158 26.5425 11.0594 26.6307C11.0474 26.6548 11.0635 26.6588 11.0957 26.6468C11.1319 26.6347 11.1601 26.6067 11.1601 26.5906C11.1601 26.5586 11.3131 26.4984 11.3735 26.5065C11.3896 26.5105 11.4137 26.4824 11.4258 26.4503C11.4379 26.4183 11.5184 26.3742 11.5989 26.3501C11.6996 26.3261 11.7681 26.2739 11.7962 26.2098C11.8284 26.1377 11.8727 26.1096 11.9573 26.1096C12.0177 26.1096 12.1103 26.0735 12.1546 26.0334C12.2029 25.9893 12.2472 25.9653 12.2593 25.9773C12.2754 25.9893 12.3116 25.9693 12.3478 25.9332C12.3841 25.8971 12.4404 25.8691 12.4727 25.8691C12.5049 25.8691 12.529 25.849 12.529 25.829C12.529 25.8049 12.5411 25.7929 12.5612 25.7969C12.5773 25.8049 12.6337 25.7769 12.6901 25.7368C12.7424 25.7007 12.7625 25.6686 12.7344 25.6686C12.7021 25.6686 12.6901 25.6566 12.7021 25.6446C12.7183 25.6285 12.7545 25.6406 12.7867 25.6646C12.827 25.6967 12.8511 25.7007 12.8713 25.6686C12.8833 25.6446 12.9115 25.6366 12.9316 25.6486C12.9478 25.6606 12.9759 25.6406 12.988 25.6045C13.0001 25.5724 13.0283 25.5524 13.0444 25.5644C13.0645 25.5764 13.1289 25.5403 13.1893 25.4882C13.2537 25.4321 13.4792 25.3038 13.6926 25.1996C13.906 25.0914 14.0872 24.9952 14.0912 24.9751C14.0993 24.9591 14.1234 24.9551 14.1436 24.9711C14.1637 24.9831 14.1798 24.9711 14.1798 24.9511C14.1798 24.927 14.208 24.907 14.2402 24.907C14.2724 24.907 14.2885 24.8829 14.2764 24.8549C14.2684 24.8268 14.2845 24.7707 14.3167 24.7266C14.361 24.6664 14.3851 24.6584 14.4254 24.6945C14.4898 24.7466 14.6911 24.6785 14.7797 24.5742C14.8079 24.5342 14.8643 24.5061 14.9045 24.5061C14.9408 24.5061 15.0213 24.47 15.0817 24.4219C15.138 24.3778 15.2025 24.3498 15.2186 24.3618C15.2387 24.3738 15.3112 24.3177 15.3796 24.2415C15.4722 24.1413 15.5286 24.1052 15.585 24.1253C15.6333 24.1373 15.6695 24.1253 15.6856 24.0852C15.6977 24.0491 15.7299 24.025 15.7581 24.0291C15.8507 24.0491 16.1245 23.9048 16.2332 23.7845C16.2936 23.7164 16.3661 23.6643 16.3983 23.6643C16.4305 23.6643 16.5633 23.6121 16.6962 23.544C16.8291 23.4799 16.9619 23.4237 16.9901 23.4237C17.0143 23.4237 17.0384 23.4077 17.0384 23.3877C17.0384 23.3676 17.0787 23.3436 17.131 23.3355C17.1794 23.3275 17.2156 23.2995 17.2075 23.2714C17.2035 23.2393 17.2116 23.2273 17.2317 23.2393C17.28 23.2674 17.6061 23.103 17.7028 22.9988C17.7471 22.9507 17.8638 22.8745 17.9645 22.8345C18.0651 22.7904 18.2262 22.7222 18.3269 22.6781C18.4275 22.638 18.5322 22.5819 18.5604 22.5538C18.5886 22.5258 18.657 22.4897 18.7134 22.4777C18.7657 22.4657 18.81 22.4376 18.81 22.4175C18.81 22.3975 18.8342 22.3815 18.8664 22.3815C18.8986 22.3815 18.9308 22.3574 18.9429 22.3253C18.9711 22.2572 19.2086 22.1329 19.2569 22.165C19.2771 22.177 19.2932 22.165 19.2932 22.1409C19.2932 22.1169 19.3093 22.1049 19.3294 22.1209C19.3495 22.1329 19.3777 22.1249 19.3938 22.1009C19.4059 22.0808 19.4542 22.0608 19.4985 22.0608C19.5428 22.0608 19.5669 22.0407 19.5549 22.0207C19.5428 21.9966 19.5669 21.9806 19.6072 21.9806C19.6515 21.9806 19.6958 21.9565 19.7079 21.9245C19.7199 21.8924 19.7844 21.8563 19.8528 21.8403C19.9213 21.8243 19.9696 21.7962 19.9535 21.7761C19.9414 21.7561 19.9816 21.7401 20.042 21.7401C20.1024 21.7401 20.1427 21.728 20.1266 21.716C20.1145 21.704 20.2876 21.5998 20.5131 21.4875C20.7386 21.3753 20.9318 21.267 20.9359 21.251C20.9439 21.235 20.9721 21.2189 21.0003 21.2189C21.0687 21.2189 21.2499 21.0586 21.2338 21.0105C21.2298 20.9904 21.2419 20.9864 21.266 20.9985C21.3305 21.0385 21.7089 20.8501 21.7089 20.786C21.7089 20.7499 21.7331 20.7379 21.7693 20.7539C21.8015 20.7659 21.8297 20.7659 21.8297 20.7499C21.8297 20.7379 21.3305 20.2328 20.7225 19.6275C20.034 18.942 19.5992 18.5371 19.571 18.5571C19.5428 18.5732 19.5347 18.5692 19.5508 18.5411C19.5871 18.485 18.9912 17.8757 18.9348 17.9117C18.9066 17.9278 18.8946 17.9157 18.8986 17.8837C18.9066 17.8556 18.8865 17.8356 18.8583 17.8436C18.8261 17.8476 18.814 17.8356 18.8261 17.8155C18.8462 17.7875 17.2438 16.1278 17.1955 16.1278C17.1874 16.1278 17.123 16.192 17.0545 16.2681ZM17.3122 16.2802C17.3364 16.3523 17.2518 16.3363 17.2237 16.2641C17.2075 16.2241 17.2196 16.208 17.2478 16.216C17.272 16.2241 17.3042 16.2561 17.3122 16.2802ZM13.294 25.3479C13.294 25.4 13.133 25.4 13.0524 25.3479C13.0081 25.3199 13.0323 25.3078 13.145 25.3078C13.2256 25.3078 13.294 25.3239 13.294 25.3479ZM7.21434 26.5305C7.21434 26.5626 7.18616 26.5906 7.15395 26.5906C7.08952 26.5906 7.07342 26.5425 7.12174 26.4984C7.16602 26.4503 7.21434 26.4664 7.21434 26.5305ZM6.16751 29.1963C6.16751 29.2484 6.04672 29.2484 5.96619 29.1963C5.92191 29.1683 5.93801 29.1562 6.03867 29.1562C6.10711 29.1562 6.16751 29.1723 6.16751 29.1963ZM4.20671 29.3807C4.16242 29.4489 4.13021 29.4689 4.12216 29.4368C4.11008 29.4088 4.13424 29.3607 4.17853 29.3286C4.28321 29.2524 4.28724 29.2605 4.20671 29.3807ZM3.56251 30.0221C3.51822 30.0903 3.48601 30.1103 3.47796 30.0782C3.46588 30.0502 3.49004 30.0021 3.53433 29.97C3.63901 29.8938 3.64304 29.9019 3.56251 30.0221ZM3.32899 30.2346C3.34107 30.2586 3.31288 30.2947 3.26859 30.3188C3.18807 30.3629 3.18404 30.3588 3.22833 30.2827C3.27664 30.1905 3.29275 30.1825 3.32899 30.2346Z" fill="white" fill-opacity="0.26"/>
<path d="M2.72172 30.6732C2.70959 30.7216 2.6732 30.7578 2.64489 30.7578C2.61254 30.7578 2.56805 30.8021 2.53975 30.8585C2.51548 30.9108 2.47909 30.947 2.46291 30.935C2.44674 30.9269 2.41034 30.9511 2.38608 30.9953C2.31733 31.1322 2.41843 31.1363 2.49931 31.0034C2.53975 30.9309 2.61254 30.8705 2.6732 30.8585C2.74599 30.8423 2.78643 30.8021 2.8026 30.7336C2.82282 30.6128 2.75408 30.5565 2.72172 30.6732Z" fill="white"/>
<path d="M2.21954 31.1677C2.21551 31.1959 2.21551 31.2321 2.21954 31.2482C2.21954 31.2684 2.19135 31.2805 2.15512 31.2845C2.10277 31.2845 2.11083 31.2966 2.17927 31.3248C2.29201 31.369 2.34838 31.3167 2.31617 31.1959C2.29201 31.1114 2.22759 31.0912 2.21954 31.1677Z" fill="white"/>
<path d="M1.91797 0.689666C1.91797 0.717727 5.35238 4.16123 9.54775 8.33833C14.8544 13.6258 17.1775 15.9108 17.1775 15.8547C17.1775 15.8106 17.1936 15.7625 17.2138 15.7505C17.2339 15.7385 17.242 15.6863 17.2299 15.6342C17.2138 15.554 17.2178 15.55 17.2701 15.6142C17.3426 15.7064 17.3627 15.7064 17.3909 15.6062C17.403 15.5621 17.4392 15.526 17.4755 15.526C17.56 15.526 17.556 15.4618 17.4715 15.4258C17.403 15.4017 17.403 15.3977 17.4715 15.3616C17.5077 15.3376 17.5399 15.2935 17.5399 15.2654C17.5399 15.1732 17.6124 15.1973 17.6285 15.2935C17.6406 15.3696 17.6728 15.3456 17.9143 15.1091C18.1559 14.8686 18.1841 14.8245 18.1841 14.6842C18.1841 14.596 18.2042 14.5238 18.2244 14.5238C18.2485 14.5238 18.2646 14.5719 18.2646 14.628V14.7283L18.3814 14.616L18.4941 14.5038L18.4015 14.4917C18.2324 14.4677 18.2968 14.3955 18.4659 14.4116C18.6069 14.4236 18.631 14.4156 18.6512 14.3394C18.6632 14.2913 18.7075 14.2432 18.7518 14.2312C18.8082 14.2151 18.8283 14.175 18.8323 14.0548C18.8323 13.9225 18.8404 13.9145 18.8686 13.9906C18.8887 14.0428 18.9129 14.0828 18.9209 14.0828C18.929 14.0828 18.9853 14.0307 19.0498 13.9626L19.1625 13.8463L19.0659 13.8062C18.9692 13.7662 18.9692 13.7662 19.0618 13.7662C19.1102 13.7621 19.1504 13.7461 19.1504 13.7261C19.1504 13.706 19.1867 13.698 19.2269 13.71C19.2833 13.7221 19.3034 13.71 19.2994 13.6539C19.2954 13.6098 19.3155 13.5818 19.3598 13.5858C19.4443 13.5938 19.9355 13.1007 19.9355 13.0085C19.9355 12.9684 19.9637 12.9444 20.004 12.9444C20.0885 12.9524 20.5797 12.4593 20.5797 12.3671C20.5797 12.331 20.612 12.299 20.6482 12.299C20.6884 12.299 20.7488 12.2669 20.7891 12.2268C20.8253 12.1907 20.8374 12.1587 20.8133 12.1587C20.7891 12.1587 20.7609 12.1146 20.7529 12.0584C20.7287 11.9422 20.7972 11.9221 20.8294 12.0344C20.8495 12.1105 20.8576 12.1105 21.0025 12.0143C21.1917 11.8861 21.2763 11.7458 21.2078 11.6616C21.1797 11.6255 21.1636 11.5774 21.1756 11.5493C21.1877 11.5132 21.2078 11.5253 21.228 11.5774C21.2481 11.6215 21.2843 11.6616 21.3085 11.6656C21.3327 11.6696 21.4615 11.5493 21.5944 11.401L21.84 11.1324L21.6266 11.0041C21.5098 10.932 21.4051 10.8759 21.3971 10.8759C21.385 10.8759 21.236 10.7957 21.0629 10.6955C20.8898 10.5993 20.7327 10.5271 20.7126 10.5391C20.6965 10.5512 20.6804 10.5431 20.6804 10.5191C20.6804 10.499 20.4952 10.3828 20.2697 10.2625C19.549 9.88169 19.3034 9.7494 18.8807 9.50888C18.6512 9.37659 18.4579 9.27236 18.4498 9.27236C18.4418 9.27236 18.2928 9.19219 18.1197 9.09999C17.9425 9.00378 17.6567 8.84744 17.4795 8.75123C17.3024 8.65903 17.101 8.54678 17.0326 8.5067C16.9641 8.46661 16.8957 8.44256 16.8836 8.45859C16.8675 8.47062 16.8554 8.4626 16.8554 8.44256C16.8554 8.4185 16.7709 8.35837 16.6662 8.30626C16.5575 8.25415 16.3683 8.15393 16.2394 8.08177C16.1146 8.0056 15.9898 7.9575 15.9616 7.97353C15.9374 7.98957 15.9294 7.98556 15.9415 7.96151C15.9536 7.94146 15.8891 7.88534 15.7965 7.83724C15.7039 7.78913 15.555 7.70495 15.4664 7.65684C15.3778 7.60473 15.1523 7.48046 14.9631 7.38024C14.7739 7.28002 14.339 7.04351 13.9968 6.85911C12.7607 6.18564 12.5634 6.0774 12.1648 5.86494C11.9434 5.74869 11.6897 5.60838 11.6012 5.55627C11.5126 5.50415 11.3314 5.40794 11.1985 5.3398C11.0657 5.27165 10.8402 5.14738 10.6952 5.06319C10.043 4.69439 9.80141 4.57814 9.71686 4.60219C9.65244 4.62223 9.64439 4.61822 9.68465 4.59016C9.72894 4.55809 9.72088 4.53805 9.64439 4.49395C9.36657 4.32158 9.23371 4.26145 9.19747 4.2855C9.17331 4.30153 9.16526 4.29753 9.17734 4.27347C9.18942 4.25343 9.13305 4.20132 9.05252 4.15722C8.65392 3.94877 7.76412 3.47173 6.87834 2.99068C6.49584 2.78623 6.16166 2.62588 6.1375 2.64192C6.11334 2.65795 6.10529 2.65394 6.1214 2.62588C6.14555 2.58981 6.04087 2.52567 5.23964 2.09673C4.57128 1.73594 4.40218 1.64374 3.9915 1.41926C3.74992 1.28296 3.33119 1.06649 3.06546 0.934198C2.62659 0.713717 2.55009 0.689666 2.25215 0.665613C2.00252 0.649578 1.91797 0.653586 1.91797 0.689666ZM2.10318 0.73777C2.11526 0.761823 2.16357 0.773849 2.20383 0.761823C2.29241 0.73777 2.30852 0.805919 2.22397 0.837989C2.19176 0.850015 2.12331 0.821954 2.07499 0.777858C2.02265 0.729753 2.00252 0.693674 2.0307 0.693674C2.05486 0.693674 2.08707 0.713717 2.10318 0.73777ZM4.47465 1.96845C4.43842 2.00453 4.33373 1.93638 4.33373 1.87224C4.33373 1.8081 4.34178 1.8081 4.41426 1.87625C4.45855 1.91634 4.48673 1.95643 4.47465 1.96845ZM6.87028 3.11896C6.87028 3.15504 6.83405 3.17909 6.76963 3.17909C6.66494 3.17909 6.63273 3.11896 6.72131 3.08689C6.81392 3.0468 6.87028 3.05883 6.87028 3.11896ZM11.0898 5.39592C11.0979 5.44402 11.0777 5.46407 11.0214 5.46407C10.9731 5.46407 10.9368 5.44001 10.9368 5.41195C10.9368 5.28768 11.0657 5.27566 11.0898 5.39592ZM11.5247 5.61239C11.5971 5.71261 11.5931 5.74468 11.5045 5.74468C11.4321 5.74468 11.3636 5.61239 11.4119 5.56829C11.4482 5.53222 11.4683 5.54023 11.5247 5.61239ZM20.2093 12.5475C20.165 12.6718 20.1489 12.6838 20.0926 12.6357C20.0161 12.5756 20.0201 12.5275 20.1087 12.5074C20.2295 12.4753 20.2375 12.4794 20.2093 12.5475ZM19.7544 13.1608C19.7544 13.1809 19.7262 13.2009 19.694 13.2009C19.6618 13.2009 19.6336 13.1809 19.6336 13.1608C19.6336 13.1368 19.6618 13.1207 19.694 13.1207C19.7262 13.1207 19.7544 13.1368 19.7544 13.1608ZM19.553 13.3372C19.553 13.3693 19.5369 13.4094 19.5128 13.4214C19.4926 13.4334 19.4725 13.4094 19.4725 13.3653C19.4725 13.3172 19.4926 13.2811 19.5128 13.2811C19.5369 13.2811 19.553 13.3052 19.553 13.3372ZM17.8419 15.085C17.8298 15.1051 17.7895 15.1251 17.7573 15.1251C17.7251 15.1251 17.701 15.1051 17.701 15.085C17.701 15.061 17.7372 15.0449 17.7855 15.0449C17.8298 15.0449 17.854 15.061 17.8419 15.085Z" fill="#D3EFFF"/>
<path d="M1.68708 0.722467C1.63474 0.730486 1.59448 0.754538 1.59448 0.774582C1.59448 0.794624 1.55421 0.814669 1.5059 0.822685C1.45356 0.830704 1.41732 0.858765 1.42537 0.886826C1.4294 0.918896 1.41732 0.930922 1.39316 0.914886C1.3529 0.890835 1.06703 1.10731 1.07106 1.15541C1.07106 1.16744 1.02677 1.23959 0.970404 1.31175C0.901957 1.39994 0.877799 1.4721 0.897931 1.5162C0.914036 1.5643 0.91001 1.58034 0.877799 1.56029C0.821432 1.52822 0.789221 1.64047 0.777143 1.90504C0.773116 2.00526 0.752985 2.08544 0.728827 2.08544C0.676486 2.07742 0.672459 30.0624 0.724801 30.1786C0.744932 30.2227 0.757011 30.2869 0.752985 30.327C0.748959 30.363 0.765064 30.4031 0.789221 30.4192C0.809353 30.4312 0.829484 30.4793 0.829484 30.5194C0.829484 30.5635 0.869747 30.6356 0.922088 30.6837C0.970404 30.7319 0.986509 30.7559 0.954299 30.7399C0.922088 30.7198 0.954299 30.792 1.0308 30.8922C1.10327 30.9964 1.18782 31.0806 1.21601 31.0806C1.24016 31.0806 1.27237 31.1047 1.28445 31.1327C1.29251 31.1608 1.38511 31.2249 1.48577 31.277C1.62266 31.3452 1.68305 31.3572 1.73942 31.3292C1.81189 31.2891 3.22109 29.902 3.73243 29.3729C3.85724 29.2406 4.1109 28.9881 4.2961 28.8077C5.14967 27.9819 5.94285 27.1641 5.94285 27.112C5.94285 27.0839 5.9509 27.0679 5.96298 27.0799C5.99519 27.108 6.26495 26.8554 6.26495 26.7993C6.26495 26.7712 6.27703 26.7512 6.29716 26.7512C6.32937 26.7512 6.88902 26.206 6.98968 26.0777C7.02189 26.0376 7.09034 25.9815 7.14268 25.9534C7.19099 25.9294 7.23126 25.8813 7.23126 25.8532C7.23126 25.8252 7.29165 25.757 7.36412 25.7049C7.4366 25.6528 7.61375 25.4804 7.75467 25.3281C7.89559 25.1717 8.05262 25.0194 8.10496 24.9873C8.1573 24.9553 8.19756 24.9152 8.19756 24.9032C8.19756 24.8791 10.1704 22.8908 12.0064 21.0588C12.2842 20.7822 12.5339 20.5336 12.558 20.5096C12.5862 20.4815 12.7311 20.3372 12.8801 20.1889C13.0331 20.0365 13.2223 19.8441 13.3029 19.7599C13.3874 19.6758 14.2732 18.7858 15.2757 17.7836C17.0916 15.9677 17.0996 15.9597 17.0272 15.8755C16.9869 15.8274 13.5606 12.4119 9.4135 8.28294C5.26644 4.15394 1.88437 0.774582 1.9045 0.774582C1.9206 0.774582 1.90852 0.754538 1.87631 0.734493C1.8441 0.714451 1.80787 0.698416 1.79579 0.702425C1.78371 0.702425 1.7354 0.714451 1.68708 0.722467Z" fill="white" fill-opacity="0.29"/>
<defs>
<linearGradient id="paint0_linear_1448_2450" x1="17.3907" y1="15.9484" x2="29.548" y2="15.9484" gradientUnits="userSpaceOnUse">
<stop stop-color="#3793AE"/>
<stop offset="1" stop-color="#074287"/>
</linearGradient>
<linearGradient id="paint1_linear_1448_2450" x1="2.51944" y1="23.6794" x2="21.8297" y2="23.6794" gradientUnits="userSpaceOnUse">
<stop stop-color="#3793AE"/>
<stop offset="1" stop-color="#074287"/>
</linearGradient>
</defs>
</svg>
