<svg width="70" height="44" viewBox="0 0 70 44" fill="none" xmlns="http://www.w3.org/2000/svg">
<path d="M0 29.4302V9.47363H5.22832V25.2372H13.4045V29.4302H0Z" fill="black"/>
<path d="M0 29.4302V9.47363H5.22832V25.2372H13.4045V29.4302H0Z" fill="white"/>
<path d="M0 29.4302V9.47363H5.22832V25.2372H13.4045V29.4302H0Z" fill="url(#paint0_linear_1176_2355)" fill-opacity="0.3"/>
<path d="M39.99 13.1624V18.5496H44.7734C46.6367 18.5496 47.5822 17.6473 47.5822 15.8693C47.5822 14.0647 46.6645 13.189 44.7734 13.189H39.99V13.1624ZM34.7617 29.4302V9.47363H45.2184C50.2798 9.47363 52.8105 11.6497 52.8105 16.0285C52.8105 17.3289 52.4212 18.4435 51.6425 19.3988C50.8638 20.3542 49.807 21.0442 48.5 21.4157L53.2833 29.4302H47.4432L43.3273 22.2384H39.99V29.4302H34.7617Z" fill="black"/>
<path d="M39.99 13.1624V18.5496H44.7734C46.6367 18.5496 47.5822 17.6473 47.5822 15.8693C47.5822 14.0647 46.6645 13.189 44.7734 13.189H39.99V13.1624ZM34.7617 29.4302V9.47363H45.2184C50.2798 9.47363 52.8105 11.6497 52.8105 16.0285C52.8105 17.3289 52.4212 18.4435 51.6425 19.3988C50.8638 20.3542 49.807 21.0442 48.5 21.4157L53.2833 29.4302H47.4432L43.3273 22.2384H39.99V29.4302H34.7617Z" fill="white"/>
<path d="M39.99 13.1624V18.5496H44.7734C46.6367 18.5496 47.5822 17.6473 47.5822 15.8693C47.5822 14.0647 46.6645 13.189 44.7734 13.189H39.99V13.1624ZM34.7617 29.4302V9.47363H45.2184C50.2798 9.47363 52.8105 11.6497 52.8105 16.0285C52.8105 17.3289 52.4212 18.4435 51.6425 19.3988C50.8638 20.3542 49.807 21.0442 48.5 21.4157L53.2833 29.4302H47.4432L43.3273 22.2384H39.99V29.4302H34.7617Z" fill="url(#paint1_linear_1176_2355)" fill-opacity="0.3"/>
<path d="M64.6311 23.2205V22.1855L61.5441 23.0348C60.0702 23.4328 59.3471 24.0697 59.3471 24.972C59.3471 26.0866 60.0702 26.6439 61.4885 26.6439C62.4341 26.6439 63.1849 26.352 63.769 25.7682C64.3252 25.1578 64.6311 24.3086 64.6311 23.2205ZM69.0251 18.4437V26.3255C69.0251 27.732 69.1641 28.767 69.4422 29.4304H65.2151C65.0482 28.9527 64.9648 28.4485 64.937 27.8912H64.8814C64.5198 28.4485 63.8246 28.9262 62.8512 29.2977C61.9613 29.6427 61.0714 29.8285 60.1814 29.8285C58.6241 29.8285 57.4004 29.457 56.4549 28.6874C55.4537 27.8912 54.9531 26.7766 54.9531 25.3966C54.9531 23.6982 55.6762 22.3978 57.0945 21.5221C58.3182 20.779 60.2649 20.2217 62.9625 19.8767L64.6311 19.6644V18.4171C64.6311 17.3556 63.908 16.8249 62.4619 16.8249C61.711 16.8249 61.1548 16.9841 60.7933 17.276C60.4317 17.5679 60.1814 18.0987 60.0702 18.8152H55.6206C55.704 15.6837 57.8732 14.1445 62.0725 14.1445C64.353 14.1445 66.0494 14.4364 67.1618 15.0468C68.4133 15.7103 69.0251 16.8514 69.0251 18.4437Z" fill="black"/>
<path d="M64.6311 23.2205V22.1855L61.5441 23.0348C60.0702 23.4328 59.3471 24.0697 59.3471 24.972C59.3471 26.0866 60.0702 26.6439 61.4885 26.6439C62.4341 26.6439 63.1849 26.352 63.769 25.7682C64.3252 25.1578 64.6311 24.3086 64.6311 23.2205ZM69.0251 18.4437V26.3255C69.0251 27.732 69.1641 28.767 69.4422 29.4304H65.2151C65.0482 28.9527 64.9648 28.4485 64.937 27.8912H64.8814C64.5198 28.4485 63.8246 28.9262 62.8512 29.2977C61.9613 29.6427 61.0714 29.8285 60.1814 29.8285C58.6241 29.8285 57.4004 29.457 56.4549 28.6874C55.4537 27.8912 54.9531 26.7766 54.9531 25.3966C54.9531 23.6982 55.6762 22.3978 57.0945 21.5221C58.3182 20.779 60.2649 20.2217 62.9625 19.8767L64.6311 19.6644V18.4171C64.6311 17.3556 63.908 16.8249 62.4619 16.8249C61.711 16.8249 61.1548 16.9841 60.7933 17.276C60.4317 17.5679 60.1814 18.0987 60.0702 18.8152H55.6206C55.704 15.6837 57.8732 14.1445 62.0725 14.1445C64.353 14.1445 66.0494 14.4364 67.1618 15.0468C68.4133 15.7103 69.0251 16.8514 69.0251 18.4437Z" fill="white"/>
<path d="M64.6311 23.2205V22.1855L61.5441 23.0348C60.0702 23.4328 59.3471 24.0697 59.3471 24.972C59.3471 26.0866 60.0702 26.6439 61.4885 26.6439C62.4341 26.6439 63.1849 26.352 63.769 25.7682C64.3252 25.1578 64.6311 24.3086 64.6311 23.2205ZM69.0251 18.4437V26.3255C69.0251 27.732 69.1641 28.767 69.4422 29.4304H65.2151C65.0482 28.9527 64.9648 28.4485 64.937 27.8912H64.8814C64.5198 28.4485 63.8246 28.9262 62.8512 29.2977C61.9613 29.6427 61.0714 29.8285 60.1814 29.8285C58.6241 29.8285 57.4004 29.457 56.4549 28.6874C55.4537 27.8912 54.9531 26.7766 54.9531 25.3966C54.9531 23.6982 55.6762 22.3978 57.0945 21.5221C58.3182 20.779 60.2649 20.2217 62.9625 19.8767L64.6311 19.6644V18.4171C64.6311 17.3556 63.908 16.8249 62.4619 16.8249C61.711 16.8249 61.1548 16.9841 60.7933 17.276C60.4317 17.5679 60.1814 18.0987 60.0702 18.8152H55.6206C55.704 15.6837 57.8732 14.1445 62.0725 14.1445C64.353 14.1445 66.0494 14.4364 67.1618 15.0468C68.4133 15.7103 69.0251 16.8514 69.0251 18.4437Z" fill="url(#paint2_linear_1176_2355)" fill-opacity="0.3"/>
<path d="M23.3621 17.462C22.1107 17.462 21.1651 17.8866 20.5255 18.7623C19.9415 19.5585 19.6356 20.62 19.6356 21.9734C19.6356 23.3268 19.9415 24.3884 20.5255 25.1845C21.1651 26.0603 22.1107 26.4849 23.3621 26.4849C25.865 26.4849 27.0887 24.9191 27.0887 21.7876C27.0887 20.5138 26.7828 19.4788 26.1988 18.7092C25.5591 17.8866 24.6136 17.462 23.3621 17.462ZM23.3621 14.1182C25.865 14.1182 27.8674 14.8082 29.3969 16.1881C30.9265 17.5681 31.6774 19.5054 31.6774 21.9734C31.6774 24.4414 30.9265 26.3787 29.3969 27.7587C27.8674 29.1387 25.865 29.8287 23.3621 29.8287C20.8592 29.8287 18.8569 29.1387 17.3273 27.7587C15.7978 26.3787 15.0469 24.4414 15.0469 21.9734C15.0469 19.5054 15.7978 17.5681 17.3273 16.1881C18.8847 14.8082 20.887 14.1182 23.3621 14.1182Z" fill="black"/>
<path d="M23.3621 17.462C22.1107 17.462 21.1651 17.8866 20.5255 18.7623C19.9415 19.5585 19.6356 20.62 19.6356 21.9734C19.6356 23.3268 19.9415 24.3884 20.5255 25.1845C21.1651 26.0603 22.1107 26.4849 23.3621 26.4849C25.865 26.4849 27.0887 24.9191 27.0887 21.7876C27.0887 20.5138 26.7828 19.4788 26.1988 18.7092C25.5591 17.8866 24.6136 17.462 23.3621 17.462ZM23.3621 14.1182C25.865 14.1182 27.8674 14.8082 29.3969 16.1881C30.9265 17.5681 31.6774 19.5054 31.6774 21.9734C31.6774 24.4414 30.9265 26.3787 29.3969 27.7587C27.8674 29.1387 25.865 29.8287 23.3621 29.8287C20.8592 29.8287 18.8569 29.1387 17.3273 27.7587C15.7978 26.3787 15.0469 24.4414 15.0469 21.9734C15.0469 19.5054 15.7978 17.5681 17.3273 16.1881C18.8847 14.8082 20.887 14.1182 23.3621 14.1182Z" fill="white"/>
<path d="M23.3621 17.462C22.1107 17.462 21.1651 17.8866 20.5255 18.7623C19.9415 19.5585 19.6356 20.62 19.6356 21.9734C19.6356 23.3268 19.9415 24.3884 20.5255 25.1845C21.1651 26.0603 22.1107 26.4849 23.3621 26.4849C25.865 26.4849 27.0887 24.9191 27.0887 21.7876C27.0887 20.5138 26.7828 19.4788 26.1988 18.7092C25.5591 17.8866 24.6136 17.462 23.3621 17.462ZM23.3621 14.1182C25.865 14.1182 27.8674 14.8082 29.3969 16.1881C30.9265 17.5681 31.6774 19.5054 31.6774 21.9734C31.6774 24.4414 30.9265 26.3787 29.3969 27.7587C27.8674 29.1387 25.865 29.8287 23.3621 29.8287C20.8592 29.8287 18.8569 29.1387 17.3273 27.7587C15.7978 26.3787 15.0469 24.4414 15.0469 21.9734C15.0469 19.5054 15.7978 17.5681 17.3273 16.1881C18.8847 14.8082 20.887 14.1182 23.3621 14.1182Z" fill="url(#paint3_linear_1176_2355)" fill-opacity="0.3"/>
<path d="M23.2202 11.1463C25.5006 11.1463 27.642 11.7832 29.4219 12.8978L30.3118 11.677C28.2539 10.4032 25.8344 9.66016 23.2202 9.66016C20.7173 9.66016 18.3812 10.3501 16.3789 11.5178L17.2688 12.7386C19.0209 11.7036 21.051 11.1463 23.2202 11.1463Z" fill="#3793AE" fill-opacity="0.28"/>
<path d="M13.5977 7.69613L14.7935 9.31495C17.2408 7.82882 20.1331 6.97961 23.22 6.97961C26.446 6.97961 29.4217 7.90844 31.9246 9.47418L33.1204 7.85536C30.2838 6.05078 26.8631 4.98926 23.22 4.98926C19.6881 4.98926 16.3787 5.9977 13.5977 7.69613Z" fill="#3793AE" fill-opacity="0.28"/>
<path d="M23.2212 2.73285C27.3927 2.73285 31.2583 3.92706 34.5121 5.99703L36.0138 3.9536C32.3707 1.59172 27.9489 0.238281 23.2212 0.238281C18.6325 0.238281 14.3219 1.53864 10.7344 3.76783L12.2361 5.81126C15.4065 3.87399 19.1609 2.73285 23.2212 2.73285Z" fill="#3793AE" fill-opacity="0.28"/>
<path d="M23.5291 32.854C21.2487 32.854 19.1073 32.2171 17.3274 31.1025L16.4375 32.3233C18.4955 33.5971 20.9149 34.3402 23.5569 34.3402C26.0598 34.3402 28.3959 33.6502 30.3982 32.4825L29.5083 31.2618C27.7284 32.2968 25.6983 32.854 23.5291 32.854Z" fill="#3793AE" fill-opacity="0.28"/>
<path d="M33.1517 36.3034L31.9558 34.6846C29.5085 36.1707 26.6163 37.02 23.5293 37.02C20.3034 37.02 17.3277 36.0911 14.8247 34.5254L13.6289 36.1442C16.4655 37.9488 19.8584 39.0103 23.5293 39.0103C27.0612 39.0103 30.3706 38.0019 33.1517 36.3034Z" fill="#3793AE" fill-opacity="0.28"/>
<path d="M23.5271 41.2661C19.3555 41.2661 15.4899 40.0719 12.2361 38.002L10.7344 40.0454C14.3775 42.3807 18.7993 43.7607 23.5271 43.7607C28.1157 43.7607 32.4263 42.4603 36.0138 40.2311L34.5121 38.1877C31.3417 40.125 27.5595 41.2661 23.5271 41.2661Z" fill="#3793AE" fill-opacity="0.28"/>
<defs>
<linearGradient id="paint0_linear_1176_2355" x1="0.0941769" y1="19.4519" x2="13.4045" y2="19.4519" gradientUnits="userSpaceOnUse">
<stop stop-color="#F5FDFF"/>
<stop offset="1" stop-color="#074287"/>
</linearGradient>
<linearGradient id="paint1_linear_1176_2355" x1="34.8918" y1="19.4519" x2="53.2833" y2="19.4519" gradientUnits="userSpaceOnUse">
<stop stop-color="#F5FDFF"/>
<stop offset="1" stop-color="#074287"/>
</linearGradient>
<linearGradient id="paint2_linear_1176_2355" x1="55.0549" y1="21.9865" x2="69.4422" y2="21.9865" gradientUnits="userSpaceOnUse">
<stop stop-color="#F5FDFF"/>
<stop offset="1" stop-color="#074287"/>
</linearGradient>
<linearGradient id="paint3_linear_1176_2355" x1="15.1637" y1="21.9734" x2="31.6774" y2="21.9734" gradientUnits="userSpaceOnUse">
<stop stop-color="#F5FDFF"/>
<stop offset="1" stop-color="#074287"/>
</linearGradient>
</defs>
</svg>
