<svg width="43" height="45" viewBox="0 0 43 45" fill="none" xmlns="http://www.w3.org/2000/svg">
<path d="M0 16.5359L3.58333 20.2859C12.4879 10.9672 26.9287 10.9672 35.8333 20.2859L39.4167 16.5359C28.5412 5.15469 10.8933 5.15469 0 16.5359ZM14.3333 31.5359L19.7083 37.1609L25.0833 31.5359C24.3782 30.796 23.5404 30.2089 22.6181 29.8084C21.6957 29.4078 20.7069 29.2016 19.7083 29.2016C18.7097 29.2016 17.7209 29.4078 16.7986 29.8084C15.8763 30.2089 15.0385 30.796 14.3333 31.5359ZM7.16667 24.0359L10.75 27.7859C13.1266 25.3009 16.3487 23.905 19.7083 23.905C23.0679 23.905 26.2901 25.3009 28.6667 27.7859L32.25 24.0359C25.3342 16.7984 14.1004 16.7984 7.16667 24.0359Z" fill="black"/>
<path d="M0 16.5359L3.58333 20.2859C12.4879 10.9672 26.9287 10.9672 35.8333 20.2859L39.4167 16.5359C28.5412 5.15469 10.8933 5.15469 0 16.5359ZM14.3333 31.5359L19.7083 37.1609L25.0833 31.5359C24.3782 30.796 23.5404 30.2089 22.6181 29.8084C21.6957 29.4078 20.7069 29.2016 19.7083 29.2016C18.7097 29.2016 17.7209 29.4078 16.7986 29.8084C15.8763 30.2089 15.0385 30.796 14.3333 31.5359ZM7.16667 24.0359L10.75 27.7859C13.1266 25.3009 16.3487 23.905 19.7083 23.905C23.0679 23.905 26.2901 25.3009 28.6667 27.7859L32.25 24.0359C25.3342 16.7984 14.1004 16.7984 7.16667 24.0359Z" fill="white"/>
<path d="M0 16.5359L3.58333 20.2859C12.4879 10.9672 26.9287 10.9672 35.8333 20.2859L39.4167 16.5359C28.5412 5.15469 10.8933 5.15469 0 16.5359ZM14.3333 31.5359L19.7083 37.1609L25.0833 31.5359C24.3782 30.796 23.5404 30.2089 22.6181 29.8084C21.6957 29.4078 20.7069 29.2016 19.7083 29.2016C18.7097 29.2016 17.7209 29.4078 16.7986 29.8084C15.8763 30.2089 15.0385 30.796 14.3333 31.5359ZM7.16667 24.0359L10.75 27.7859C13.1266 25.3009 16.3487 23.905 19.7083 23.905C23.0679 23.905 26.2901 25.3009 28.6667 27.7859L32.25 24.0359C25.3342 16.7984 14.1004 16.7984 7.16667 24.0359Z" fill="url(#paint0_linear_1176_2345)" fill-opacity="0.3"/>
<defs>
<linearGradient id="paint0_linear_1176_2345" x1="0.276932" y1="22.5805" x2="39.4167" y2="22.5805" gradientUnits="userSpaceOnUse">
<stop stop-color="#F5FDFF"/>
<stop offset="1" stop-color="#074287"/>
</linearGradient>
</defs>
</svg>
