<svg width="37" height="38" viewBox="0 0 37 38" fill="none" xmlns="http://www.w3.org/2000/svg">
<path d="M6.59006 9.73783C6.45506 9.76949 6.32006 9.84866 6.20006 9.94366C4.43471 12.5953 3.49142 15.7594 3.50006 19.0003C3.50006 23.1996 5.08041 27.2269 7.89346 30.1962C9.28634 31.6664 10.9399 32.8327 12.7598 33.6284C14.5797 34.4241 16.5302 34.8337 18.5001 34.8337C23.0001 34.8337 27.0201 32.7437 29.7501 29.4503L26.0001 29.8462C21.8751 30.3212 17.6751 30.3845 13.4901 30.0203C12.4251 29.9887 11.3601 29.7037 10.3851 29.2128C9.75213 28.907 9.20751 28.4292 8.80692 27.8283C8.40632 27.2274 8.16411 26.525 8.10506 25.7928C8.09006 25.5395 8.18006 25.3337 8.34506 25.1278L11.6301 21.5337L23.0451 9.02533V8.86699H16.7601C13.3551 8.93033 9.96506 9.21533 6.59006 9.73783ZM30.7551 27.7087C30.8901 27.6612 31.0251 27.6137 31.1451 27.5345C32.686 24.9855 33.5032 22.0241 33.5001 19.0003C33.5001 16.9211 33.1121 14.8622 32.3583 12.9412C31.6044 11.0202 30.4995 9.27473 29.1067 7.80447C27.7138 6.33421 26.0602 5.16793 24.2403 4.37223C22.4204 3.57653 20.4699 3.16699 18.5001 3.16699C14.3301 3.16699 10.5501 4.95616 7.83506 7.86949H8.25506C12.9201 7.23616 17.6451 7.07783 22.3401 7.36283C23.7501 7.34699 25.1751 7.63199 26.4951 8.18616C27.1738 8.47055 27.7659 8.9454 28.2074 9.55935C28.6489 10.1733 28.923 10.903 29.0001 11.6695C29.0001 11.9228 28.8951 12.192 28.7301 12.382L15.0651 27.2178L14.0001 28.4212V28.5953H20.2101C23.7501 28.5003 27.2601 28.1995 30.7551 27.7087Z" fill="black"/>
<path d="M6.59006 9.73783C6.45506 9.76949 6.32006 9.84866 6.20006 9.94366C4.43471 12.5953 3.49142 15.7594 3.50006 19.0003C3.50006 23.1996 5.08041 27.2269 7.89346 30.1962C9.28634 31.6664 10.9399 32.8327 12.7598 33.6284C14.5797 34.4241 16.5302 34.8337 18.5001 34.8337C23.0001 34.8337 27.0201 32.7437 29.7501 29.4503L26.0001 29.8462C21.8751 30.3212 17.6751 30.3845 13.4901 30.0203C12.4251 29.9887 11.3601 29.7037 10.3851 29.2128C9.75213 28.907 9.20751 28.4292 8.80692 27.8283C8.40632 27.2274 8.16411 26.525 8.10506 25.7928C8.09006 25.5395 8.18006 25.3337 8.34506 25.1278L11.6301 21.5337L23.0451 9.02533V8.86699H16.7601C13.3551 8.93033 9.96506 9.21533 6.59006 9.73783ZM30.7551 27.7087C30.8901 27.6612 31.0251 27.6137 31.1451 27.5345C32.686 24.9855 33.5032 22.0241 33.5001 19.0003C33.5001 16.9211 33.1121 14.8622 32.3583 12.9412C31.6044 11.0202 30.4995 9.27473 29.1067 7.80447C27.7138 6.33421 26.0602 5.16793 24.2403 4.37223C22.4204 3.57653 20.4699 3.16699 18.5001 3.16699C14.3301 3.16699 10.5501 4.95616 7.83506 7.86949H8.25506C12.9201 7.23616 17.6451 7.07783 22.3401 7.36283C23.7501 7.34699 25.1751 7.63199 26.4951 8.18616C27.1738 8.47055 27.7659 8.9454 28.2074 9.55935C28.6489 10.1733 28.923 10.903 29.0001 11.6695C29.0001 11.9228 28.8951 12.192 28.7301 12.382L15.0651 27.2178L14.0001 28.4212V28.5953H20.2101C23.7501 28.5003 27.2601 28.1995 30.7551 27.7087Z" fill="white"/>
<path d="M6.59006 9.73783C6.45506 9.76949 6.32006 9.84866 6.20006 9.94366C4.43471 12.5953 3.49142 15.7594 3.50006 19.0003C3.50006 23.1996 5.08041 27.2269 7.89346 30.1962C9.28634 31.6664 10.9399 32.8327 12.7598 33.6284C14.5797 34.4241 16.5302 34.8337 18.5001 34.8337C23.0001 34.8337 27.0201 32.7437 29.7501 29.4503L26.0001 29.8462C21.8751 30.3212 17.6751 30.3845 13.4901 30.0203C12.4251 29.9887 11.3601 29.7037 10.3851 29.2128C9.75213 28.907 9.20751 28.4292 8.80692 27.8283C8.40632 27.2274 8.16411 26.525 8.10506 25.7928C8.09006 25.5395 8.18006 25.3337 8.34506 25.1278L11.6301 21.5337L23.0451 9.02533V8.86699H16.7601C13.3551 8.93033 9.96506 9.21533 6.59006 9.73783ZM30.7551 27.7087C30.8901 27.6612 31.0251 27.6137 31.1451 27.5345C32.686 24.9855 33.5032 22.0241 33.5001 19.0003C33.5001 16.9211 33.1121 14.8622 32.3583 12.9412C31.6044 11.0202 30.4995 9.27473 29.1067 7.80447C27.7138 6.33421 26.0602 5.16793 24.2403 4.37223C22.4204 3.57653 20.4699 3.16699 18.5001 3.16699C14.3301 3.16699 10.5501 4.95616 7.83506 7.86949H8.25506C12.9201 7.23616 17.6451 7.07783 22.3401 7.36283C23.7501 7.34699 25.1751 7.63199 26.4951 8.18616C27.1738 8.47055 27.7659 8.9454 28.2074 9.55935C28.6489 10.1733 28.923 10.903 29.0001 11.6695C29.0001 11.9228 28.8951 12.192 28.7301 12.382L15.0651 27.2178L14.0001 28.4212V28.5953H20.2101C23.7501 28.5003 27.2601 28.1995 30.7551 27.7087Z" fill="url(#paint0_linear_1176_2349)" fill-opacity="0.3"/>
<defs>
<linearGradient id="paint0_linear_1176_2349" x1="3.71077" y1="19.0003" x2="33.5001" y2="19.0003" gradientUnits="userSpaceOnUse">
<stop stop-color="#F5FDFF"/>
<stop offset="1" stop-color="#074287"/>
</linearGradient>
</defs>
</svg>
