<svg width="33" height="35" viewBox="0 0 33 35" fill="none" xmlns="http://www.w3.org/2000/svg">
<path fill-rule="evenodd" clip-rule="evenodd" d="M17.6199 8.63625L20.3342 11.515L17.6199 14.3938V8.63625ZM17.6199 26.3638L20.3342 23.485L17.6199 20.6063V26.3638ZM14.7118 17.5197L8.81719 11.2284L10.5229 9.41938L15.2151 14.3938V2.4675L23.7476 11.515L18.1232 17.5219L23.7848 23.5266L15.2543 32.5763V20.6063L10.5229 25.5806L8.81719 23.7716L14.7118 17.5197ZM16.2999 35C23.5146 35 28.4769 31.3797 28.4769 17.4781C28.4769 3.62031 23.5146 0 16.302 0C9.08944 0 4.125 3.62031 4.125 17.5219C4.125 31.3775 9.08738 35 16.2999 35Z" fill="black"/>
<path fill-rule="evenodd" clip-rule="evenodd" d="M17.6199 8.63625L20.3342 11.515L17.6199 14.3938V8.63625ZM17.6199 26.3638L20.3342 23.485L17.6199 20.6063V26.3638ZM14.7118 17.5197L8.81719 11.2284L10.5229 9.41938L15.2151 14.3938V2.4675L23.7476 11.515L18.1232 17.5219L23.7848 23.5266L15.2543 32.5763V20.6063L10.5229 25.5806L8.81719 23.7716L14.7118 17.5197ZM16.2999 35C23.5146 35 28.4769 31.3797 28.4769 17.4781C28.4769 3.62031 23.5146 0 16.302 0C9.08944 0 4.125 3.62031 4.125 17.5219C4.125 31.3775 9.08738 35 16.2999 35Z" fill="white"/>
<path fill-rule="evenodd" clip-rule="evenodd" d="M17.6199 8.63625L20.3342 11.515L17.6199 14.3938V8.63625ZM17.6199 26.3638L20.3342 23.485L17.6199 20.6063V26.3638ZM14.7118 17.5197L8.81719 11.2284L10.5229 9.41938L15.2151 14.3938V2.4675L23.7476 11.515L18.1232 17.5219L23.7848 23.5266L15.2543 32.5763V20.6063L10.5229 25.5806L8.81719 23.7716L14.7118 17.5197ZM16.2999 35C23.5146 35 28.4769 31.3797 28.4769 17.4781C28.4769 3.62031 23.5146 0 16.302 0C9.08944 0 4.125 3.62031 4.125 17.5219C4.125 31.3775 9.08738 35 16.2999 35Z" fill="url(#paint0_linear_1176_2341)" fill-opacity="0.3"/>
<defs>
<linearGradient id="paint0_linear_1176_2341" x1="4.29609" y1="17.5" x2="28.4769" y2="17.5" gradientUnits="userSpaceOnUse">
<stop stop-color="#F5FDFF"/>
<stop offset="1" stop-color="#074287"/>
</linearGradient>
</defs>
</svg>
