<svg width="52" height="52" viewBox="0 0 52 52" fill="none" xmlns="http://www.w3.org/2000/svg">
<path d="M17.9414 41.0029H7.31641C6.75282 41.0029 6.21232 40.7791 5.8138 40.3805C5.41529 39.982 5.19141 39.4415 5.19141 38.8779V13.3779C5.19141 12.8143 5.41529 12.2738 5.8138 11.8753C6.21232 11.4768 6.75282 11.2529 7.31641 11.2529H21.3945L18.9147 15.5029H9.44141V36.7529H17.9414V41.0029ZM27.2383 41.0029L29.7182 36.7529H39.1914V15.5029H30.6914V11.2529H41.3164C41.88 11.2529 42.4205 11.4768 42.819 11.8753C43.2175 12.2738 43.4414 12.8143 43.4414 13.3779V38.8779C43.4414 39.4415 43.2175 39.982 42.819 40.3805C42.4205 40.7791 41.88 41.0029 41.3164 41.0029H27.2383ZM45.5664 19.7529H49.8164V32.5029H45.5664V19.7529ZM26.4414 24.0029H32.8164L22.1914 41.0029V28.2529H15.8164L26.4414 11.2529V24.0029Z" fill="url(#paint0_linear_1176_3757)"/>
<defs>
<linearGradient id="paint0_linear_1176_3757" x1="5.50493" y1="26.1279" x2="49.8164" y2="26.1279" gradientUnits="userSpaceOnUse">
<stop stop-color="#C6F2FF"/>
<stop offset="0.9999" stop-color="#80B2D3"/>
<stop offset="1" stop-color="#074287"/>
</linearGradient>
</defs>
</svg>
