<svg width="14" height="12" viewBox="0 0 14 12" fill="none" xmlns="http://www.w3.org/2000/svg">
<path d="M1.12089 5.21014C4.78206 3.60662 7.22284 2.54937 8.44323 2.0386C11.9317 0.580085 12.6557 0.326772 13.1286 0.31819C13.2326 0.316513 13.4641 0.342357 13.6152 0.465166C13.7408 0.56874 13.7761 0.708812 13.7937 0.807158C13.8094 0.905406 13.831 1.12932 13.8133 1.30412C13.625 3.30063 12.8068 8.14553 12.3909 10.3817C12.2162 11.3279 11.869 11.6451 11.5335 11.6761C10.8036 11.7436 10.2503 11.1916 9.54394 10.7262C8.43931 9.99763 7.81538 9.54427 6.74214 8.83346C5.50213 8.01197 6.30657 7.56038 7.0129 6.82254C7.19734 6.6294 10.4112 3.69086 10.472 3.42433C10.4798 3.39099 10.4877 3.2667 10.4131 3.2012C10.3405 3.1355 10.2326 3.15799 10.1541 3.17575C10.0423 3.201 8.27842 4.37445 4.85662 6.69589C4.3563 7.04192 3.90306 7.2106 3.49496 7.20172C3.04761 7.19205 2.18431 6.94683 1.54273 6.73732C0.757909 6.48025 0.132016 6.34433 0.186954 5.90774C0.214422 5.68047 0.526387 5.44787 1.12089 5.21014Z" fill="#0E344A"/>
</svg>
