<svg width="10" height="16" viewBox="0 0 10 16" fill="none" xmlns="http://www.w3.org/2000/svg">
<path d="M2.95455 2.94737C2.95455 2.38902 3.17005 1.85354 3.55365 1.45872C3.93724 1.06391 4.45751 0.842105 5 0.842105V0C4.24052 0 3.51214 0.310525 2.9751 0.863264C2.43807 1.416 2.13636 2.16568 2.13636 2.94737H2.95455ZM2.95455 7.57895V2.94737H2.13636V7.57895H2.95455ZM1.31818 11.3684C1.31818 10.2653 1.77637 9.27158 2.50864 8.57853L1.95473 7.95874C1.49569 8.39211 1.1293 8.91905 0.87885 9.50606C0.628404 10.0931 0.499386 10.7273 0.500002 11.3684H1.31818ZM5 15.1579C4.02352 15.1579 3.08704 14.7586 2.39656 14.048C1.70609 13.3373 1.31818 12.3735 1.31818 11.3684H0.500002C0.500002 12.5968 0.974107 13.7749 1.81802 14.6434C2.66193 15.512 3.80653 16 5 16V15.1579ZM8.68182 11.3684C8.68182 12.3735 8.29391 13.3373 7.60344 14.048C6.91296 14.7586 5.97648 15.1579 5 15.1579V16C6.19347 16 7.33807 15.512 8.18198 14.6434C9.02589 13.7749 9.5 12.5968 9.5 11.3684H8.68182ZM7.49136 8.57853C7.86709 8.93302 8.16698 9.36416 8.37194 9.84449C8.5769 10.3248 8.68243 10.8438 8.68182 11.3684H9.5C9.50061 10.7273 9.3716 10.0931 9.12115 9.50606C8.8707 8.91905 8.50431 8.39211 8.04527 7.95874L7.49136 8.57853ZM7.04545 2.94737V7.57895H7.86364V2.94737H7.04545ZM5 0.842105C5.54249 0.842105 6.06276 1.06391 6.44635 1.45872C6.82995 1.85354 7.04545 2.38902 7.04545 2.94737H7.86364C7.86364 2.16568 7.56193 1.416 7.0249 0.863264C6.48786 0.310525 5.75948 0 5 0V0.842105ZM8.04527 7.95874C7.99135 7.91178 7.9474 7.85391 7.91615 7.78871C7.8849 7.72352 7.86702 7.6524 7.86364 7.57979H7.04545C7.04545 7.98316 7.23445 8.33516 7.49136 8.57853L8.04527 7.95874ZM2.13636 7.57979C2.13283 7.65237 2.11489 7.72344 2.08365 7.78861C2.05241 7.85379 2.00854 7.91168 1.95473 7.95874L2.50864 8.57853C2.76555 8.33516 2.95455 7.98316 2.95455 7.57895L2.13636 7.57979Z" fill="url(#paint0_linear_133_1824)"/>
<path d="M4.99956 13.4737C6.12923 13.4737 7.04501 12.5312 7.04501 11.3684C7.04501 10.2057 6.12923 9.26318 4.99956 9.26318C3.86988 9.26318 2.9541 10.2057 2.9541 11.3684C2.9541 12.5312 3.86988 13.4737 4.99956 13.4737Z" stroke="url(#paint1_linear_133_1824)"/>
<defs>
<linearGradient id="paint0_linear_133_1824" x1="0.563232" y1="8" x2="9.5" y2="8" gradientUnits="userSpaceOnUse">
<stop stop-color="#3793AE"/>
<stop offset="1" stop-color="#074287"/>
</linearGradient>
<linearGradient id="paint1_linear_133_1824" x1="2.98284" y1="11.3684" x2="7.04501" y2="11.3684" gradientUnits="userSpaceOnUse">
<stop stop-color="#3793AE"/>
<stop offset="1" stop-color="#074287"/>
</linearGradient>
</defs>
</svg>
