<svg width="36" height="36" viewBox="0 0 36 36" fill="none" xmlns="http://www.w3.org/2000/svg">
<path d="M22.5258 6.10844C22.1985 6.10844 21.9803 5.89026 21.9803 5.56299V2.67208C21.9803 2.34481 21.8712 2.07208 21.5985 1.90844C21.3258 1.69026 20.9985 1.63572 20.6712 1.69026L14.7803 3.10844C14.344 3.21753 14.0167 3.6539 14.0167 4.09026V5.56299C14.0167 5.89026 13.7985 6.10844 13.4712 6.10844C13.144 6.10844 12.9258 5.89026 12.9258 5.56299V4.09026C12.9258 3.10844 13.6349 2.23572 14.5621 2.01753L20.4531 0.599353C21.1076 0.435717 21.7621 0.599353 22.3076 1.03572C22.7985 1.41753 23.0712 2.01753 23.0712 2.67208V5.56299C23.0712 5.83572 22.7985 6.10844 22.5258 6.10844Z" fill="url(#paint0_linear_1213_3236)"/>
<path d="M8.72465 35.4532H7.03374C6.70646 35.4532 6.48828 35.2351 6.48828 34.9078V15.8714C6.48828 14.6714 7.41555 13.7441 8.61555 13.7441H8.72465C9.05192 13.7441 9.2701 13.9623 9.2701 14.2896C9.2701 14.6169 9.05192 14.835 8.72465 14.835H8.61555C8.0701 14.835 7.57919 15.326 7.57919 15.8714V34.3623H8.72465C9.05192 34.3623 9.2701 34.5805 9.2701 34.9078C9.2701 35.2351 9.05192 35.4532 8.72465 35.4532Z" fill="url(#paint1_linear_1213_3236)"/>
<path d="M28.9629 35.4532H27.272C26.9447 35.4532 26.7266 35.2351 26.7266 34.9078C26.7266 34.5805 26.9447 34.3623 27.272 34.3623H28.4175V15.8714C28.4175 15.326 27.9266 14.835 27.3811 14.835H27.272C26.9447 14.835 26.7266 14.6169 26.7266 14.2896C26.7266 13.9623 26.9447 13.7441 27.272 13.7441H27.3811C28.5266 13.7441 29.5084 14.726 29.5084 15.8714V34.9078C29.5084 35.2351 29.2357 35.4532 28.9629 35.4532Z" fill="url(#paint2_linear_1213_3236)"/>
<path d="M25.1994 29.4536H10.7994C10.4721 29.4536 10.2539 29.2354 10.2539 28.9082V9.2718C10.2539 8.0718 11.1812 7.14453 12.3812 7.14453H23.6175C24.763 7.14453 25.7448 8.12635 25.7448 9.2718V28.9082C25.7448 29.2354 25.4721 29.4536 25.1994 29.4536ZM11.3448 28.3627H24.6539V9.2718C24.6539 8.72635 24.163 8.23544 23.6175 8.23544H12.3812C11.8357 8.23544 11.3448 8.72635 11.3448 9.2718V28.3627Z" fill="url(#paint3_linear_1213_3236)"/>
<path d="M25.1994 35.4542H10.7994C10.4721 35.4542 10.2539 35.236 10.2539 34.9087V28.9087C10.2539 28.5815 10.4721 28.3633 10.7994 28.3633H25.1994C25.5266 28.3633 25.7448 28.5815 25.7448 28.9087V34.9087C25.7448 35.236 25.4721 35.4542 25.1994 35.4542ZM11.3448 34.3633H24.6539V29.4542H11.3448V34.3633Z" fill="url(#paint4_linear_1213_3236)"/>
<path d="M20.8884 12.9821H15.1065C14.5065 12.9821 14.0156 12.4912 14.0156 11.8912V10.2003C14.0156 9.60028 14.5065 9.10938 15.1065 9.10938H20.8884C21.4884 9.10938 21.9793 9.60028 21.9793 10.2003V11.8912C21.9793 12.4912 21.4884 12.9821 20.8884 12.9821ZM15.1065 10.2003V11.8912H20.8884V10.2003H15.1065Z" fill="url(#paint5_linear_1213_3236)"/>
<path d="M20.8884 17.7829H15.1065C14.5065 17.7829 14.0156 17.292 14.0156 16.692V15.0011C14.0156 14.4011 14.5065 14.0192 14.9974 13.9102H15.1065H20.8884C21.4884 13.9102 21.9793 14.4011 21.9793 15.0011V16.692C21.9793 17.292 21.4884 17.7829 20.8884 17.7829ZM15.1065 15.0556V16.692H20.8884V15.0011H15.1611C15.1611 15.0011 15.1065 15.0011 15.1065 15.0556Z" fill="url(#paint6_linear_1213_3236)"/>
<path d="M20.8884 22.6364H15.1065C14.5065 22.6364 14.0156 22.1455 14.0156 21.5455V19.8546C14.0156 19.3091 14.5611 18.7637 15.1065 18.7637H20.8884C21.4884 18.7637 21.9793 19.2546 21.9793 19.8546V21.5455C21.9793 22.1455 21.4884 22.6364 20.8884 22.6364ZM15.1065 19.8546V21.5455H20.8884V19.8546H15.1065Z" fill="url(#paint7_linear_1213_3236)"/>
<path d="M20.8884 27.4919H15.1065C14.5065 27.4919 14.0156 27.001 14.0156 26.401V24.71C14.0156 24.11 14.5065 23.6191 15.1065 23.6191H20.8884C21.4884 23.6191 21.9793 24.11 21.9793 24.71V26.401C21.9793 27.001 21.4884 27.4919 20.8884 27.4919ZM15.1065 24.71V26.401H20.8884V24.71H15.1065Z" fill="url(#paint8_linear_1213_3236)"/>
<path d="M31.2538 35.4542H4.74467C4.4174 35.4542 4.19922 35.236 4.19922 34.9087C4.19922 34.5815 4.4174 34.3633 4.74467 34.3633H31.2538C31.581 34.3633 31.7992 34.5815 31.7992 34.9087C31.7992 35.236 31.5265 35.4542 31.2538 35.4542Z" fill="url(#paint9_linear_1213_3236)"/>
<defs>
<linearGradient id="paint0_linear_1213_3236" x1="17.9985" y1="0.537109" x2="17.9985" y2="6.10844" gradientUnits="userSpaceOnUse">
<stop stop-color="#3793AE"/>
<stop offset="1" stop-color="#074287"/>
</linearGradient>
<linearGradient id="paint1_linear_1213_3236" x1="7.87919" y1="13.7441" x2="7.87919" y2="35.4532" gradientUnits="userSpaceOnUse">
<stop stop-color="#3793AE"/>
<stop offset="1" stop-color="#074287"/>
</linearGradient>
<linearGradient id="paint2_linear_1213_3236" x1="28.1175" y1="13.7441" x2="28.1175" y2="35.4532" gradientUnits="userSpaceOnUse">
<stop stop-color="#3793AE"/>
<stop offset="1" stop-color="#074287"/>
</linearGradient>
<linearGradient id="paint3_linear_1213_3236" x1="17.9994" y1="7.14453" x2="17.9994" y2="29.4536" gradientUnits="userSpaceOnUse">
<stop stop-color="#3793AE"/>
<stop offset="1" stop-color="#074287"/>
</linearGradient>
<linearGradient id="paint4_linear_1213_3236" x1="17.9994" y1="28.3633" x2="17.9994" y2="35.4542" gradientUnits="userSpaceOnUse">
<stop stop-color="#3793AE"/>
<stop offset="1" stop-color="#074287"/>
</linearGradient>
<linearGradient id="paint5_linear_1213_3236" x1="17.9974" y1="9.10938" x2="17.9974" y2="12.9821" gradientUnits="userSpaceOnUse">
<stop stop-color="#3793AE"/>
<stop offset="1" stop-color="#074287"/>
</linearGradient>
<linearGradient id="paint6_linear_1213_3236" x1="17.9974" y1="13.9102" x2="17.9974" y2="17.7829" gradientUnits="userSpaceOnUse">
<stop stop-color="#3793AE"/>
<stop offset="1" stop-color="#074287"/>
</linearGradient>
<linearGradient id="paint7_linear_1213_3236" x1="17.9974" y1="18.7637" x2="17.9974" y2="22.6364" gradientUnits="userSpaceOnUse">
<stop stop-color="#3793AE"/>
<stop offset="1" stop-color="#074287"/>
</linearGradient>
<linearGradient id="paint8_linear_1213_3236" x1="17.9974" y1="23.6191" x2="17.9974" y2="27.4919" gradientUnits="userSpaceOnUse">
<stop stop-color="#3793AE"/>
<stop offset="1" stop-color="#074287"/>
</linearGradient>
<linearGradient id="paint9_linear_1213_3236" x1="17.9992" y1="34.3633" x2="17.9992" y2="35.4542" gradientUnits="userSpaceOnUse">
<stop stop-color="#3793AE"/>
<stop offset="1" stop-color="#074287"/>
</linearGradient>
</defs>
</svg>
