<svg width="36" height="36" viewBox="0 0 36 36" fill="none" xmlns="http://www.w3.org/2000/svg">
<path d="M32.1351 16.031C31.2463 16.031 30.5021 16.6267 30.258 17.4372H28.5294C28.3973 14.951 27.4061 12.6948 25.8413 10.955L27.0653 9.73098C27.3488 9.88398 27.6638 9.97398 27.9951 9.97398C28.5216 9.97398 29.0149 9.76923 29.3873 9.39798C29.7591 9.02617 29.9638 8.53173 29.9638 8.0058C29.9638 7.47986 29.7591 6.98542 29.3873 6.61361C28.6459 5.87055 27.3482 5.86998 26.6034 6.61361C26.2316 6.98542 26.0269 7.47986 26.0269 8.0058C26.0269 8.33711 26.1169 8.65211 26.2699 8.93617L25.0459 10.1602C23.3061 8.59473 21.0499 7.60361 18.5636 7.47142V5.7423C19.3742 5.49817 19.9699 4.75398 19.9699 3.86523C19.9699 2.77961 19.0868 1.89648 18.0011 1.89648C16.9155 1.89648 16.0324 2.77961 16.0324 3.86523C16.0324 4.75398 16.6281 5.49817 17.4386 5.7423V7.47142C14.9524 7.60361 12.6962 8.59473 10.9564 10.1596L9.73238 8.93561C9.88594 8.65211 9.97538 8.33711 9.97538 8.00523C9.97538 7.4793 9.77063 6.98486 9.39881 6.61305C8.65519 5.86998 7.3575 5.86998 6.615 6.61305C6.24319 6.98486 6.03844 7.4793 6.03844 8.00523C6.03844 8.53117 6.24319 9.02561 6.615 9.39742C6.98625 9.76924 7.48069 9.97398 8.00719 9.97398C8.3385 9.97398 8.6535 9.88398 8.937 9.73098L10.161 10.955C8.59613 12.6948 7.605 14.951 7.47281 17.4372H5.74425C5.50013 16.6267 4.75594 16.031 3.86719 16.031C2.78156 16.031 1.89844 16.9141 1.89844 17.9997C1.89844 19.0854 2.78156 19.9685 3.86719 19.9685C4.75594 19.9685 5.50013 19.3728 5.74425 18.5622H7.47281C7.605 21.0485 8.59613 23.3047 10.161 25.0445L8.93138 26.2741C8.18944 25.8933 7.22081 25.9968 6.615 26.602C6.24319 26.9739 6.03844 27.4683 6.03844 27.9942C6.03844 28.5202 6.24319 29.0146 6.615 29.3864C6.98625 29.7582 7.48069 29.963 8.00719 29.963C8.53313 29.963 9.027 29.7582 9.39938 29.3864C9.77175 29.0146 9.97594 28.5202 9.97594 27.9942C9.97594 27.6629 9.88594 27.3479 9.73294 27.0639L10.9569 25.8399C12.6962 27.4047 14.9524 28.3959 17.4386 28.528V30.2572C16.6281 30.5013 16.0324 31.2455 16.0324 32.1342C16.0324 33.2199 16.9155 34.103 18.0011 34.103C19.0868 34.103 19.9699 33.2199 19.9699 32.1342C19.9699 31.2455 19.3742 30.5013 18.5636 30.2572V28.528C21.0499 28.3959 23.3061 27.4047 25.0459 25.8399L26.2699 27.0639C26.1163 27.3474 26.0269 27.6624 26.0269 27.9942C26.0269 28.5202 26.2316 29.0146 26.6034 29.3864C26.9753 29.7582 27.4697 29.9624 27.9956 29.9624C28.5221 29.9624 29.016 29.7577 29.3878 29.3859C29.7596 29.014 29.9644 28.5196 29.9644 27.9937C29.9644 27.4677 29.7596 26.9733 29.3878 26.6015C28.7837 25.9957 27.8139 25.8922 27.0714 26.2735L25.8418 25.0439C27.4061 23.3047 28.3973 21.0485 28.5294 18.5622H30.258C30.5021 19.3728 31.2463 19.9685 32.1351 19.9685C33.2207 19.9685 34.1038 19.0854 34.1038 17.9997C34.1038 16.9141 33.2207 16.031 32.1351 16.031ZM27.3988 7.40898C27.558 7.24923 27.7701 7.16205 27.9956 7.16205C28.2212 7.16205 28.4327 7.2498 28.5924 7.40898C28.7516 7.56873 28.8394 7.78023 28.8394 8.0058C28.8394 8.2308 28.7516 8.44286 28.5924 8.60205C28.2746 8.92042 27.7183 8.92155 27.3994 8.60205C27.2402 8.44286 27.1524 8.2308 27.1524 8.0058C27.1519 7.78023 27.2396 7.56817 27.3988 7.40898ZM17.1574 3.8658C17.1574 3.40061 17.5359 3.02205 18.0011 3.02205C18.4663 3.02205 18.8449 3.40061 18.8449 3.8658C18.8449 4.3293 18.4686 4.70673 18.0056 4.70898C18.0039 4.70898 18.0028 4.70786 18.0011 4.70786C17.9994 4.70786 17.9983 4.70898 17.9966 4.70898C17.5337 4.70617 17.1574 4.3293 17.1574 3.8658ZM7.41038 8.60148C7.25119 8.4423 7.16344 8.23023 7.16344 8.00523C7.16344 7.77967 7.25119 7.56817 7.41038 7.40842C7.56956 7.24923 7.78106 7.16148 8.00719 7.16148C8.23219 7.16148 8.44425 7.24923 8.604 7.40842C8.76319 7.56817 8.85094 7.77967 8.85094 8.00523C8.85094 8.23023 8.76319 8.4423 8.604 8.60148C8.28506 8.92098 7.72819 8.92042 7.41038 8.60148ZM3.86719 18.8435C3.402 18.8435 3.02344 18.4649 3.02344 17.9997C3.02344 17.5345 3.402 17.156 3.86719 17.156C4.33069 17.156 4.70756 17.5317 4.71038 17.9941C4.71038 17.9958 4.70925 17.9975 4.70925 17.9997C4.70925 18.002 4.71038 18.0031 4.71038 18.0054C4.70756 18.4677 4.33069 18.8435 3.86719 18.8435ZM8.60344 28.5905C8.28506 28.91 7.72819 28.9089 7.41038 28.5905C7.25119 28.4307 7.16344 28.2192 7.16344 27.9937C7.16344 27.7687 7.25119 27.5566 7.41038 27.3974C7.56956 27.2382 7.78106 27.1505 8.00719 27.1505C8.23219 27.1505 8.44425 27.2382 8.604 27.3974C8.76319 27.5566 8.85094 27.7687 8.85094 27.9937C8.85038 28.2192 8.76263 28.4313 8.60344 28.5905ZM18.8449 32.1337C18.8449 32.5989 18.4663 32.9774 18.0011 32.9774C17.5359 32.9774 17.1574 32.5989 17.1574 32.1337C17.1574 31.6702 17.5337 31.2927 17.9966 31.2905C17.9983 31.2905 17.9994 31.2916 18.0011 31.2916C18.0028 31.2916 18.0039 31.2905 18.0056 31.2905C18.4686 31.2933 18.8449 31.6702 18.8449 32.1337ZM28.5919 27.398C28.7511 27.5572 28.8388 27.7692 28.8388 27.9942C28.8388 28.2198 28.7511 28.4313 28.5919 28.591C28.2741 28.9094 27.7178 28.91 27.3988 28.591C27.2396 28.4313 27.1519 28.2198 27.1519 27.9942C27.1519 27.7692 27.2396 27.5572 27.3988 27.398C27.7178 27.0785 28.2741 27.079 28.5919 27.398ZM18.0011 27.4317C12.8003 27.4317 8.56913 23.2006 8.56913 17.9997C8.56913 12.7989 12.8003 8.56773 18.0011 8.56773C23.202 8.56773 27.4331 12.7989 27.4331 17.9997C27.4331 23.2006 23.202 27.4317 18.0011 27.4317ZM32.1351 18.8435C31.6716 18.8435 31.2947 18.4677 31.2919 18.0054C31.2919 18.0037 31.293 18.002 31.293 17.9997C31.293 17.9975 31.2919 17.9964 31.2919 17.9941C31.2947 17.5312 31.6716 17.156 32.1351 17.156C32.6003 17.156 32.9788 17.5345 32.9788 17.9997C32.9788 18.4649 32.6003 18.8435 32.1351 18.8435Z" fill="black"/>
<path d="M32.1351 16.031C31.2463 16.031 30.5021 16.6267 30.258 17.4372H28.5294C28.3973 14.951 27.4061 12.6948 25.8413 10.955L27.0653 9.73098C27.3488 9.88398 27.6638 9.97398 27.9951 9.97398C28.5216 9.97398 29.0149 9.76923 29.3873 9.39798C29.7591 9.02617 29.9638 8.53173 29.9638 8.0058C29.9638 7.47986 29.7591 6.98542 29.3873 6.61361C28.6459 5.87055 27.3482 5.86998 26.6034 6.61361C26.2316 6.98542 26.0269 7.47986 26.0269 8.0058C26.0269 8.33711 26.1169 8.65211 26.2699 8.93617L25.0459 10.1602C23.3061 8.59473 21.0499 7.60361 18.5636 7.47142V5.7423C19.3742 5.49817 19.9699 4.75398 19.9699 3.86523C19.9699 2.77961 19.0868 1.89648 18.0011 1.89648C16.9155 1.89648 16.0324 2.77961 16.0324 3.86523C16.0324 4.75398 16.6281 5.49817 17.4386 5.7423V7.47142C14.9524 7.60361 12.6962 8.59473 10.9564 10.1596L9.73238 8.93561C9.88594 8.65211 9.97538 8.33711 9.97538 8.00523C9.97538 7.4793 9.77063 6.98486 9.39881 6.61305C8.65519 5.86998 7.3575 5.86998 6.615 6.61305C6.24319 6.98486 6.03844 7.4793 6.03844 8.00523C6.03844 8.53117 6.24319 9.02561 6.615 9.39742C6.98625 9.76924 7.48069 9.97398 8.00719 9.97398C8.3385 9.97398 8.6535 9.88398 8.937 9.73098L10.161 10.955C8.59613 12.6948 7.605 14.951 7.47281 17.4372H5.74425C5.50013 16.6267 4.75594 16.031 3.86719 16.031C2.78156 16.031 1.89844 16.9141 1.89844 17.9997C1.89844 19.0854 2.78156 19.9685 3.86719 19.9685C4.75594 19.9685 5.50013 19.3728 5.74425 18.5622H7.47281C7.605 21.0485 8.59613 23.3047 10.161 25.0445L8.93138 26.2741C8.18944 25.8933 7.22081 25.9968 6.615 26.602C6.24319 26.9739 6.03844 27.4683 6.03844 27.9942C6.03844 28.5202 6.24319 29.0146 6.615 29.3864C6.98625 29.7582 7.48069 29.963 8.00719 29.963C8.53313 29.963 9.027 29.7582 9.39938 29.3864C9.77175 29.0146 9.97594 28.5202 9.97594 27.9942C9.97594 27.6629 9.88594 27.3479 9.73294 27.0639L10.9569 25.8399C12.6962 27.4047 14.9524 28.3959 17.4386 28.528V30.2572C16.6281 30.5013 16.0324 31.2455 16.0324 32.1342C16.0324 33.2199 16.9155 34.103 18.0011 34.103C19.0868 34.103 19.9699 33.2199 19.9699 32.1342C19.9699 31.2455 19.3742 30.5013 18.5636 30.2572V28.528C21.0499 28.3959 23.3061 27.4047 25.0459 25.8399L26.2699 27.0639C26.1163 27.3474 26.0269 27.6624 26.0269 27.9942C26.0269 28.5202 26.2316 29.0146 26.6034 29.3864C26.9753 29.7582 27.4697 29.9624 27.9956 29.9624C28.5221 29.9624 29.016 29.7577 29.3878 29.3859C29.7596 29.014 29.9644 28.5196 29.9644 27.9937C29.9644 27.4677 29.7596 26.9733 29.3878 26.6015C28.7837 25.9957 27.8139 25.8922 27.0714 26.2735L25.8418 25.0439C27.4061 23.3047 28.3973 21.0485 28.5294 18.5622H30.258C30.5021 19.3728 31.2463 19.9685 32.1351 19.9685C33.2207 19.9685 34.1038 19.0854 34.1038 17.9997C34.1038 16.9141 33.2207 16.031 32.1351 16.031ZM27.3988 7.40898C27.558 7.24923 27.7701 7.16205 27.9956 7.16205C28.2212 7.16205 28.4327 7.2498 28.5924 7.40898C28.7516 7.56873 28.8394 7.78023 28.8394 8.0058C28.8394 8.2308 28.7516 8.44286 28.5924 8.60205C28.2746 8.92042 27.7183 8.92155 27.3994 8.60205C27.2402 8.44286 27.1524 8.2308 27.1524 8.0058C27.1519 7.78023 27.2396 7.56817 27.3988 7.40898ZM17.1574 3.8658C17.1574 3.40061 17.5359 3.02205 18.0011 3.02205C18.4663 3.02205 18.8449 3.40061 18.8449 3.8658C18.8449 4.3293 18.4686 4.70673 18.0056 4.70898C18.0039 4.70898 18.0028 4.70786 18.0011 4.70786C17.9994 4.70786 17.9983 4.70898 17.9966 4.70898C17.5337 4.70617 17.1574 4.3293 17.1574 3.8658ZM7.41038 8.60148C7.25119 8.4423 7.16344 8.23023 7.16344 8.00523C7.16344 7.77967 7.25119 7.56817 7.41038 7.40842C7.56956 7.24923 7.78106 7.16148 8.00719 7.16148C8.23219 7.16148 8.44425 7.24923 8.604 7.40842C8.76319 7.56817 8.85094 7.77967 8.85094 8.00523C8.85094 8.23023 8.76319 8.4423 8.604 8.60148C8.28506 8.92098 7.72819 8.92042 7.41038 8.60148ZM3.86719 18.8435C3.402 18.8435 3.02344 18.4649 3.02344 17.9997C3.02344 17.5345 3.402 17.156 3.86719 17.156C4.33069 17.156 4.70756 17.5317 4.71038 17.9941C4.71038 17.9958 4.70925 17.9975 4.70925 17.9997C4.70925 18.002 4.71038 18.0031 4.71038 18.0054C4.70756 18.4677 4.33069 18.8435 3.86719 18.8435ZM8.60344 28.5905C8.28506 28.91 7.72819 28.9089 7.41038 28.5905C7.25119 28.4307 7.16344 28.2192 7.16344 27.9937C7.16344 27.7687 7.25119 27.5566 7.41038 27.3974C7.56956 27.2382 7.78106 27.1505 8.00719 27.1505C8.23219 27.1505 8.44425 27.2382 8.604 27.3974C8.76319 27.5566 8.85094 27.7687 8.85094 27.9937C8.85038 28.2192 8.76263 28.4313 8.60344 28.5905ZM18.8449 32.1337C18.8449 32.5989 18.4663 32.9774 18.0011 32.9774C17.5359 32.9774 17.1574 32.5989 17.1574 32.1337C17.1574 31.6702 17.5337 31.2927 17.9966 31.2905C17.9983 31.2905 17.9994 31.2916 18.0011 31.2916C18.0028 31.2916 18.0039 31.2905 18.0056 31.2905C18.4686 31.2933 18.8449 31.6702 18.8449 32.1337ZM28.5919 27.398C28.7511 27.5572 28.8388 27.7692 28.8388 27.9942C28.8388 28.2198 28.7511 28.4313 28.5919 28.591C28.2741 28.9094 27.7178 28.91 27.3988 28.591C27.2396 28.4313 27.1519 28.2198 27.1519 27.9942C27.1519 27.7692 27.2396 27.5572 27.3988 27.398C27.7178 27.0785 28.2741 27.079 28.5919 27.398ZM18.0011 27.4317C12.8003 27.4317 8.56913 23.2006 8.56913 17.9997C8.56913 12.7989 12.8003 8.56773 18.0011 8.56773C23.202 8.56773 27.4331 12.7989 27.4331 17.9997C27.4331 23.2006 23.202 27.4317 18.0011 27.4317ZM32.1351 18.8435C31.6716 18.8435 31.2947 18.4677 31.2919 18.0054C31.2919 18.0037 31.293 18.002 31.293 17.9997C31.293 17.9975 31.2919 17.9964 31.2919 17.9941C31.2947 17.5312 31.6716 17.156 32.1351 17.156C32.6003 17.156 32.9788 17.5345 32.9788 17.9997C32.9788 18.4649 32.6003 18.8435 32.1351 18.8435Z" fill="url(#paint0_linear_1213_3215)"/>
<path d="M21.0399 13.7175V12.9047C21.0416 12.0964 20.7238 11.3331 20.1466 10.7548C19.5723 10.18 18.8107 9.86328 18.0035 9.86328C18.0013 9.86328 17.999 9.86328 17.9956 9.86328C17.1873 9.86328 16.4263 10.18 15.8514 10.7548C15.2743 11.3331 14.9565 12.097 14.9581 12.9036V13.7175C14.2775 13.8936 13.5496 14.1411 13.3426 14.7025C12.5906 16.7787 11.8138 22.3699 12.1721 23.1287C12.2351 23.2626 12.3774 23.3987 12.5163 23.4499C13.814 23.9252 16.964 24.1266 17.9985 24.1266C19.0329 24.1266 22.1829 23.9252 23.4755 23.4516C23.6167 23.4015 23.7613 23.2643 23.8248 23.1287C24.1831 22.3693 23.4063 16.7781 22.6531 14.6997C22.4484 14.1405 21.7205 13.8936 21.0399 13.7175ZM16.6485 11.5502C17.0107 11.1874 17.4894 10.9883 17.9979 10.9883C17.999 10.9877 18.0013 10.9883 18.0024 10.9883C18.5098 10.9883 18.989 11.1874 19.3507 11.5502C19.7152 11.9153 19.916 12.3957 19.9149 12.9036V13.4143C19.3861 13.2681 18.611 13.0802 18.0283 13.051C18.0097 13.0498 17.99 13.0498 17.9709 13.051C17.391 13.0802 16.6198 13.2664 16.0843 13.4143V12.9025C16.0831 12.3957 16.2834 11.9153 16.6485 11.5502ZM17.9996 23.0016C16.8892 23.0016 14.3973 22.8075 13.193 22.483C13.1694 21.3422 13.688 17.0903 14.3872 15.1249C14.4783 15.0445 14.7146 14.959 14.9593 14.8858V15.7363C14.7871 15.891 14.6763 16.1132 14.6763 16.363C14.6763 16.8298 15.0549 17.2084 15.5218 17.2084C15.9886 17.2084 16.3672 16.8298 16.3672 16.363C16.3672 16.1132 16.2564 15.8905 16.0843 15.7358V14.5843C16.8594 14.3543 17.5681 14.2018 17.9996 14.1748C18.4338 14.2018 19.1482 14.356 19.9149 14.5838V15.7358C19.7422 15.8905 19.632 16.1127 19.632 16.363C19.632 16.8298 20.0105 17.2084 20.4774 17.2084C20.9443 17.2084 21.3228 16.8298 21.3228 16.363C21.3228 16.1132 21.2126 15.891 21.0399 15.7363V14.8858C21.284 14.959 21.5208 15.0445 21.612 15.1249C22.3111 17.0937 22.8298 21.3433 22.8061 22.4835C21.6075 22.807 19.1116 23.0016 17.9996 23.0016Z" fill="black"/>
<path d="M21.0399 13.7175V12.9047C21.0416 12.0964 20.7238 11.3331 20.1466 10.7548C19.5723 10.18 18.8107 9.86328 18.0035 9.86328C18.0013 9.86328 17.999 9.86328 17.9956 9.86328C17.1873 9.86328 16.4263 10.18 15.8514 10.7548C15.2743 11.3331 14.9565 12.097 14.9581 12.9036V13.7175C14.2775 13.8936 13.5496 14.1411 13.3426 14.7025C12.5906 16.7787 11.8138 22.3699 12.1721 23.1287C12.2351 23.2626 12.3774 23.3987 12.5163 23.4499C13.814 23.9252 16.964 24.1266 17.9985 24.1266C19.0329 24.1266 22.1829 23.9252 23.4755 23.4516C23.6167 23.4015 23.7613 23.2643 23.8248 23.1287C24.1831 22.3693 23.4063 16.7781 22.6531 14.6997C22.4484 14.1405 21.7205 13.8936 21.0399 13.7175ZM16.6485 11.5502C17.0107 11.1874 17.4894 10.9883 17.9979 10.9883C17.999 10.9877 18.0013 10.9883 18.0024 10.9883C18.5098 10.9883 18.989 11.1874 19.3507 11.5502C19.7152 11.9153 19.916 12.3957 19.9149 12.9036V13.4143C19.3861 13.2681 18.611 13.0802 18.0283 13.051C18.0097 13.0498 17.99 13.0498 17.9709 13.051C17.391 13.0802 16.6198 13.2664 16.0843 13.4143V12.9025C16.0831 12.3957 16.2834 11.9153 16.6485 11.5502ZM17.9996 23.0016C16.8892 23.0016 14.3973 22.8075 13.193 22.483C13.1694 21.3422 13.688 17.0903 14.3872 15.1249C14.4783 15.0445 14.7146 14.959 14.9593 14.8858V15.7363C14.7871 15.891 14.6763 16.1132 14.6763 16.363C14.6763 16.8298 15.0549 17.2084 15.5218 17.2084C15.9886 17.2084 16.3672 16.8298 16.3672 16.363C16.3672 16.1132 16.2564 15.8905 16.0843 15.7358V14.5843C16.8594 14.3543 17.5681 14.2018 17.9996 14.1748C18.4338 14.2018 19.1482 14.356 19.9149 14.5838V15.7358C19.7422 15.8905 19.632 16.1127 19.632 16.363C19.632 16.8298 20.0105 17.2084 20.4774 17.2084C20.9443 17.2084 21.3228 16.8298 21.3228 16.363C21.3228 16.1132 21.2126 15.891 21.0399 15.7363V14.8858C21.284 14.959 21.5208 15.0445 21.612 15.1249C22.3111 17.0937 22.8298 21.3433 22.8061 22.4835C21.6075 22.807 19.1116 23.0016 17.9996 23.0016Z" fill="url(#paint1_linear_1213_3215)"/>
<defs>
<linearGradient id="paint0_linear_1213_3215" x1="2.1247" y1="17.9997" x2="34.1038" y2="17.9997" gradientUnits="userSpaceOnUse">
<stop stop-color="#3793AE"/>
<stop offset="1" stop-color="#074287"/>
</linearGradient>
<linearGradient id="paint1_linear_1213_3215" x1="12.1652" y1="16.9949" x2="23.9149" y2="16.9949" gradientUnits="userSpaceOnUse">
<stop stop-color="#3793AE"/>
<stop offset="1" stop-color="#074287"/>
</linearGradient>
</defs>
</svg>
