<svg width="36" height="36" viewBox="0 0 36 36" fill="none" xmlns="http://www.w3.org/2000/svg">
<path d="M31.5006 16.7406H29.1606V4.50062C29.1606 4.40515 29.1227 4.31358 29.0552 4.24607C28.9877 4.17855 28.8961 4.14062 28.8006 4.14062H19.8006C19.7051 4.14062 19.6136 4.17855 19.5461 4.24607C19.4786 4.31358 19.4406 4.40515 19.4406 4.50062V16.7406H18.3606V7.20062C18.3606 7.10515 18.3227 7.01358 18.2552 6.94607C18.1877 6.87855 18.0961 6.84062 18.0006 6.84062H15.3006C15.2051 6.84062 15.1136 6.87855 15.0461 6.94607C14.9786 7.01358 14.9406 7.10515 14.9406 7.20062V16.7406H13.8606V9.90062C13.8606 9.80515 13.8227 9.71358 13.7552 9.64607C13.6877 9.57855 13.5961 9.54062 13.5006 9.54062H10.8006C10.7051 9.54062 10.6136 9.57855 10.5461 9.64607C10.4786 9.71358 10.4406 9.80515 10.4406 9.90062V16.7406H9.36062V12.6006C9.36062 12.5051 9.3227 12.4136 9.25518 12.3461C9.18767 12.2786 9.0961 12.2406 9.00062 12.2406H6.30062C6.20515 12.2406 6.11358 12.2786 6.04607 12.3461C5.97855 12.4136 5.94062 12.5051 5.94062 12.6006V16.7406H4.50062C4.40515 16.7406 4.31358 16.7786 4.24607 16.8461C4.17855 16.9136 4.14062 17.0051 4.14062 17.1006V31.5006C4.14062 31.5961 4.17855 31.6877 4.24607 31.7552C4.31358 31.8227 4.40515 31.8606 4.50062 31.8606H31.5006C31.5961 31.8606 31.6877 31.8227 31.7552 31.7552C31.8227 31.6877 31.8606 31.5961 31.8606 31.5006V17.1006C31.8606 17.0051 31.8227 16.9136 31.7552 16.8461C31.6877 16.7786 31.5961 16.7406 31.5006 16.7406ZM20.1606 4.86062H28.4406V16.7406H20.1606V4.86062ZM15.6606 7.56062H17.6406V8.64062H15.6606V7.56062ZM15.6606 9.36062H17.6406V16.7406H15.6606V9.36062ZM11.1606 10.2606H13.1406V11.3406H11.1606V10.2606ZM11.1606 12.0606H13.1406V16.7406H11.1606V12.0606ZM6.66062 12.9606H8.64062V14.0406H6.66062V12.9606ZM6.66062 14.7606H8.64062V16.7406H6.66062V14.7606ZM4.86062 17.4606H31.1406V28.4406H4.86062V17.4606ZM31.1406 31.1406H4.86062V29.1606H31.1406V31.1406Z" fill="url(#paint0_linear_1176_2712)"/>
<path d="M31.5006 16.7406H29.1606V4.50062C29.1606 4.40515 29.1227 4.31358 29.0552 4.24607C28.9877 4.17855 28.8961 4.14062 28.8006 4.14062H19.8006C19.7051 4.14062 19.6136 4.17855 19.5461 4.24607C19.4786 4.31358 19.4406 4.40515 19.4406 4.50062V16.7406H18.3606V7.20062C18.3606 7.10515 18.3227 7.01358 18.2552 6.94607C18.1877 6.87855 18.0961 6.84062 18.0006 6.84062H15.3006C15.2051 6.84062 15.1136 6.87855 15.0461 6.94607C14.9786 7.01358 14.9406 7.10515 14.9406 7.20062V16.7406H13.8606V9.90062C13.8606 9.80515 13.8227 9.71358 13.7552 9.64607C13.6877 9.57855 13.5961 9.54062 13.5006 9.54062H10.8006C10.7051 9.54062 10.6136 9.57855 10.5461 9.64607C10.4786 9.71358 10.4406 9.80515 10.4406 9.90062V16.7406H9.36062V12.6006C9.36062 12.5051 9.3227 12.4136 9.25518 12.3461C9.18767 12.2786 9.0961 12.2406 9.00062 12.2406H6.30062C6.20515 12.2406 6.11358 12.2786 6.04607 12.3461C5.97855 12.4136 5.94062 12.5051 5.94062 12.6006V16.7406H4.50062C4.40515 16.7406 4.31358 16.7786 4.24607 16.8461C4.17855 16.9136 4.14062 17.0051 4.14062 17.1006V31.5006C4.14062 31.5961 4.17855 31.6877 4.24607 31.7552C4.31358 31.8227 4.40515 31.8606 4.50062 31.8606H31.5006C31.5961 31.8606 31.6877 31.8227 31.7552 31.7552C31.8227 31.6877 31.8606 31.5961 31.8606 31.5006V17.1006C31.8606 17.0051 31.8227 16.9136 31.7552 16.8461C31.6877 16.7786 31.5961 16.7406 31.5006 16.7406ZM20.1606 4.86062H28.4406V16.7406H20.1606V4.86062ZM15.6606 7.56062H17.6406V8.64062H15.6606V7.56062ZM15.6606 9.36062H17.6406V16.7406H15.6606V9.36062ZM11.1606 10.2606H13.1406V11.3406H11.1606V10.2606ZM11.1606 12.0606H13.1406V16.7406H11.1606V12.0606ZM6.66062 12.9606H8.64062V14.0406H6.66062V12.9606ZM6.66062 14.7606H8.64062V16.7406H6.66062V14.7606ZM4.86062 17.4606H31.1406V28.4406H4.86062V17.4606ZM31.1406 31.1406H4.86062V29.1606H31.1406V31.1406Z" fill="url(#paint1_linear_1176_2712)"/>
<path d="M23.3983 5.93945H21.5983C21.5028 5.93945 21.4112 5.97738 21.3437 6.04489C21.2762 6.11241 21.2383 6.20398 21.2383 6.29945V8.09945C21.2383 8.19493 21.2762 8.2865 21.3437 8.35401C21.4112 8.42152 21.5028 8.45945 21.5983 8.45945H23.3983C23.4938 8.45945 23.5853 8.42152 23.6528 8.35401C23.7204 8.2865 23.7583 8.19493 23.7583 8.09945V6.29945C23.7583 6.20398 23.7204 6.11241 23.6528 6.04489C23.5853 5.97738 23.4938 5.93945 23.3983 5.93945ZM23.0383 7.73945H21.9583V6.65945H23.0383V7.73945Z" fill="url(#paint2_linear_1176_2712)"/>
<path d="M26.9998 5.93945H25.1998C25.1044 5.93945 25.0128 5.97738 24.9453 6.04489C24.8778 6.11241 24.8398 6.20398 24.8398 6.29945V8.09945C24.8398 8.19493 24.8778 8.2865 24.9453 8.35401C25.0128 8.42152 25.1044 8.45945 25.1998 8.45945H26.9998C27.0953 8.45945 27.1869 8.42152 27.2544 8.35401C27.3219 8.2865 27.3598 8.19493 27.3598 8.09945V6.29945C27.3598 6.20398 27.3219 6.11241 27.2544 6.04489C27.1869 5.97738 27.0953 5.93945 26.9998 5.93945ZM26.6398 7.73945H25.5598V6.65945H26.6398V7.73945Z" fill="url(#paint3_linear_1176_2712)"/>
<path d="M23.3983 9.53906H21.5983C21.5028 9.53906 21.4112 9.57699 21.3437 9.6445C21.2762 9.71202 21.2383 9.80358 21.2383 9.89906V11.6991C21.2383 11.7945 21.2762 11.8861 21.3437 11.9536C21.4112 12.0211 21.5028 12.0591 21.5983 12.0591H23.3983C23.4938 12.0591 23.5853 12.0211 23.6528 11.9536C23.7204 11.8861 23.7583 11.7945 23.7583 11.6991V9.89906C23.7583 9.80358 23.7204 9.71202 23.6528 9.6445C23.5853 9.57699 23.4938 9.53906 23.3983 9.53906ZM23.0383 11.3391H21.9583V10.2591H23.0383V11.3391Z" fill="url(#paint4_linear_1176_2712)"/>
<path d="M26.9998 9.53906H25.1998C25.1044 9.53906 25.0128 9.57699 24.9453 9.6445C24.8778 9.71202 24.8398 9.80358 24.8398 9.89906V11.6991C24.8398 11.7945 24.8778 11.8861 24.9453 11.9536C25.0128 12.0211 25.1044 12.0591 25.1998 12.0591H26.9998C27.0953 12.0591 27.1869 12.0211 27.2544 11.9536C27.3219 11.8861 27.3598 11.7945 27.3598 11.6991V9.89906C27.3598 9.80358 27.3219 9.71202 27.2544 9.6445C27.1869 9.57699 27.0953 9.53906 26.9998 9.53906ZM26.6398 11.3391H25.5598V10.2591H26.6398V11.3391Z" fill="url(#paint5_linear_1176_2712)"/>
<path d="M26.9998 9.53906H25.1998C25.1044 9.53906 25.0128 9.57699 24.9453 9.6445C24.8778 9.71202 24.8398 9.80358 24.8398 9.89906V11.6991C24.8398 11.7945 24.8778 11.8861 24.9453 11.9536C25.0128 12.0211 25.1044 12.0591 25.1998 12.0591H26.9998C27.0953 12.0591 27.1869 12.0211 27.2544 11.9536C27.3219 11.8861 27.3598 11.7945 27.3598 11.6991V9.89906C27.3598 9.80358 27.3219 9.71202 27.2544 9.6445C27.1869 9.57699 27.0953 9.53906 26.9998 9.53906ZM26.6398 11.3391H25.5598V10.2591H26.6398V11.3391Z" fill="url(#paint6_linear_1176_2712)"/>
<path d="M23.3983 13.1406H21.5983C21.5028 13.1406 21.4112 13.1786 21.3437 13.2461C21.2762 13.3136 21.2383 13.4051 21.2383 13.5006V15.3006C21.2383 15.3961 21.2762 15.4877 21.3437 15.5552C21.4112 15.6227 21.5028 15.6606 21.5983 15.6606H23.3983C23.4938 15.6606 23.5853 15.6227 23.6528 15.5552C23.7204 15.4877 23.7583 15.3961 23.7583 15.3006V13.5006C23.7583 13.4051 23.7204 13.3136 23.6528 13.2461C23.5853 13.1786 23.4938 13.1406 23.3983 13.1406ZM23.0383 14.9406H21.9583V13.8606H23.0383V14.9406Z" fill="url(#paint7_linear_1176_2712)"/>
<path d="M26.9998 13.1406H25.1998C25.1044 13.1406 25.0128 13.1786 24.9453 13.2461C24.8778 13.3136 24.8398 13.4051 24.8398 13.5006V15.3006C24.8398 15.3961 24.8778 15.4877 24.9453 15.5552C25.0128 15.6227 25.1044 15.6606 25.1998 15.6606H26.9998C27.0953 15.6606 27.1869 15.6227 27.2544 15.5552C27.3219 15.4877 27.3598 15.3961 27.3598 15.3006V13.5006C27.3598 13.4051 27.3219 13.3136 27.2544 13.2461C27.1869 13.1786 27.0953 13.1406 26.9998 13.1406ZM26.6398 14.9406H25.5598V13.8606H26.6398V14.9406Z" fill="url(#paint8_linear_1176_2712)"/>
<path d="M18.0014 18.5391H6.30141C6.20593 18.5391 6.11436 18.577 6.04685 18.6445C5.97933 18.712 5.94141 18.8036 5.94141 18.8991V22.4991C5.94141 22.5945 5.97933 22.6861 6.04685 22.7536C6.11436 22.8211 6.20593 22.8591 6.30141 22.8591H18.0014C18.0969 22.8591 18.1885 22.8211 18.256 22.7536C18.3235 22.6861 18.3614 22.5945 18.3614 22.4991V18.8991C18.3614 18.8036 18.3235 18.712 18.256 18.6445C18.1885 18.577 18.0969 18.5391 18.0014 18.5391ZM17.6414 22.1391H6.66141V19.2591H17.6414V22.1391Z" fill="url(#paint9_linear_1176_2712)"/>
<path d="M29.7014 18.5391H19.8014C19.7059 18.5391 19.6144 18.577 19.5468 18.6445C19.4793 18.712 19.4414 18.8036 19.4414 18.8991V22.4991C19.4414 22.5945 19.4793 22.6861 19.5468 22.7536C19.6144 22.8211 19.7059 22.8591 19.8014 22.8591H29.7014C29.7969 22.8591 29.8885 22.8211 29.956 22.7536C30.0235 22.6861 30.0614 22.5945 30.0614 22.4991V18.8991C30.0614 18.8036 30.0235 18.712 29.956 18.6445C29.8885 18.577 29.7969 18.5391 29.7014 18.5391ZM29.3414 22.1391H20.1614V19.2591H29.3414V22.1391Z" fill="url(#paint10_linear_1176_2712)"/>
<path d="M12.5991 23.9395H9.89906C9.80358 23.9395 9.71202 23.9774 9.6445 24.0449C9.57699 24.1124 9.53906 24.204 9.53906 24.2995V26.9995C9.53906 27.0949 9.57699 27.1865 9.6445 27.254C9.71202 27.3215 9.80358 27.3595 9.89906 27.3595H12.5991C12.6945 27.3595 12.7861 27.3215 12.8536 27.254C12.9211 27.1865 12.9591 27.0949 12.9591 26.9995V24.2995C12.9591 24.204 12.9211 24.1124 12.8536 24.0449C12.7861 23.9774 12.6945 23.9395 12.5991 23.9395ZM12.2391 26.6395H10.2591V24.6595H12.2391V26.6395Z" fill="url(#paint11_linear_1176_2712)"/>
<path d="M17.0991 23.9395H14.3991C14.3036 23.9395 14.212 23.9774 14.1445 24.0449C14.077 24.1124 14.0391 24.204 14.0391 24.2995V26.9995C14.0391 27.0949 14.077 27.1865 14.1445 27.254C14.212 27.3215 14.3036 27.3595 14.3991 27.3595H17.0991C17.1945 27.3595 17.2861 27.3215 17.3536 27.254C17.4211 27.1865 17.4591 27.0949 17.4591 26.9995V24.2995C17.4591 24.204 17.4211 24.1124 17.3536 24.0449C17.2861 23.9774 17.1945 23.9395 17.0991 23.9395ZM16.7391 26.6395H14.7591V24.6595H16.7391V26.6395Z" fill="url(#paint12_linear_1176_2712)"/>
<path d="M21.5991 23.9395H18.8991C18.8036 23.9395 18.712 23.9774 18.6445 24.0449C18.577 24.1124 18.5391 24.204 18.5391 24.2995V26.9995C18.5391 27.0949 18.577 27.1865 18.6445 27.254C18.712 27.3215 18.8036 27.3595 18.8991 27.3595H21.5991C21.6945 27.3595 21.7861 27.3215 21.8536 27.254C21.9211 27.1865 21.9591 27.0949 21.9591 26.9995V24.2995C21.9591 24.204 21.9211 24.1124 21.8536 24.0449C21.7861 23.9774 21.6945 23.9395 21.5991 23.9395ZM21.2391 26.6395H19.2591V24.6595H21.2391V26.6395Z" fill="url(#paint13_linear_1176_2712)"/>
<path d="M26.0991 23.9395H23.3991C23.3036 23.9395 23.212 23.9774 23.1445 24.0449C23.077 24.1124 23.0391 24.204 23.0391 24.2995V26.9995C23.0391 27.0949 23.077 27.1865 23.1445 27.254C23.212 27.3215 23.3036 27.3595 23.3991 27.3595H26.0991C26.1945 27.3595 26.2861 27.3215 26.3536 27.254C26.4211 27.1865 26.4591 27.0949 26.4591 26.9995V24.2995C26.4591 24.204 26.4211 24.1124 26.3536 24.0449C26.2861 23.9774 26.1945 23.9395 26.0991 23.9395ZM25.7391 26.6395H23.7591V24.6595H25.7391V26.6395Z" fill="url(#paint14_linear_1176_2712)"/>
<defs>
<linearGradient id="paint0_linear_1176_2712" x1="18.0006" y1="4.14062" x2="18.0006" y2="31.8606" gradientUnits="userSpaceOnUse">
<stop stop-color="#3793AE"/>
<stop offset="1" stop-color="#074287"/>
</linearGradient>
<linearGradient id="paint1_linear_1176_2712" x1="4.33538" y1="18.0006" x2="31.8606" y2="18.0006" gradientUnits="userSpaceOnUse">
<stop stop-color="#3793AE"/>
<stop offset="1" stop-color="#074287"/>
</linearGradient>
<linearGradient id="paint2_linear_1176_2712" x1="22.4983" y1="5.93945" x2="22.4983" y2="8.45945" gradientUnits="userSpaceOnUse">
<stop stop-color="#3793AE"/>
<stop offset="1" stop-color="#074287"/>
</linearGradient>
<linearGradient id="paint3_linear_1176_2712" x1="26.0998" y1="5.93945" x2="26.0998" y2="8.45945" gradientUnits="userSpaceOnUse">
<stop stop-color="#3793AE"/>
<stop offset="1" stop-color="#074287"/>
</linearGradient>
<linearGradient id="paint4_linear_1176_2712" x1="22.4983" y1="9.53906" x2="22.4983" y2="12.0591" gradientUnits="userSpaceOnUse">
<stop stop-color="#3793AE"/>
<stop offset="1" stop-color="#074287"/>
</linearGradient>
<linearGradient id="paint5_linear_1176_2712" x1="26.0998" y1="9.53906" x2="26.0998" y2="12.0591" gradientUnits="userSpaceOnUse">
<stop stop-color="#3793AE"/>
<stop offset="1" stop-color="#074287"/>
</linearGradient>
<linearGradient id="paint6_linear_1176_2712" x1="24.8575" y1="10.7991" x2="27.3598" y2="10.7991" gradientUnits="userSpaceOnUse">
<stop stop-color="#3793AE"/>
<stop offset="1" stop-color="#074287"/>
</linearGradient>
<linearGradient id="paint7_linear_1176_2712" x1="22.4983" y1="13.1406" x2="22.4983" y2="15.6606" gradientUnits="userSpaceOnUse">
<stop stop-color="#3793AE"/>
<stop offset="1" stop-color="#074287"/>
</linearGradient>
<linearGradient id="paint8_linear_1176_2712" x1="26.0998" y1="13.1406" x2="26.0998" y2="15.6606" gradientUnits="userSpaceOnUse">
<stop stop-color="#3793AE"/>
<stop offset="1" stop-color="#074287"/>
</linearGradient>
<linearGradient id="paint9_linear_1176_2712" x1="12.1514" y1="18.5391" x2="12.1514" y2="22.8591" gradientUnits="userSpaceOnUse">
<stop stop-color="#3793AE"/>
<stop offset="1" stop-color="#074287"/>
</linearGradient>
<linearGradient id="paint10_linear_1176_2712" x1="24.7514" y1="18.5391" x2="24.7514" y2="22.8591" gradientUnits="userSpaceOnUse">
<stop stop-color="#3793AE"/>
<stop offset="1" stop-color="#074287"/>
</linearGradient>
<linearGradient id="paint11_linear_1176_2712" x1="11.2491" y1="23.9395" x2="11.2491" y2="27.3595" gradientUnits="userSpaceOnUse">
<stop stop-color="#3793AE"/>
<stop offset="1" stop-color="#074287"/>
</linearGradient>
<linearGradient id="paint12_linear_1176_2712" x1="15.7491" y1="23.9395" x2="15.7491" y2="27.3595" gradientUnits="userSpaceOnUse">
<stop stop-color="#3793AE"/>
<stop offset="1" stop-color="#074287"/>
</linearGradient>
<linearGradient id="paint13_linear_1176_2712" x1="20.2491" y1="23.9395" x2="20.2491" y2="27.3595" gradientUnits="userSpaceOnUse">
<stop stop-color="#3793AE"/>
<stop offset="1" stop-color="#074287"/>
</linearGradient>
<linearGradient id="paint14_linear_1176_2712" x1="24.7491" y1="23.9395" x2="24.7491" y2="27.3595" gradientUnits="userSpaceOnUse">
<stop stop-color="#3793AE"/>
<stop offset="1" stop-color="#074287"/>
</linearGradient>
</defs>
</svg>
