<svg width="36" height="36" viewBox="0 0 36 36" fill="none" xmlns="http://www.w3.org/2000/svg">
<path d="M26.7272 22.0172L18.2897 16.9547C18.1114 16.8484 17.8892 16.8484 17.7109 16.9547L9.27338 22.0172C9.1035 22.1185 9 22.3013 9 22.4993V34.3118C9 34.6229 9.252 34.8743 9.5625 34.8743H12.375C12.6855 34.8743 12.9375 34.6229 12.9375 34.3118V25.3118H23.0625V34.3118C23.0625 34.6229 23.3145 34.8743 23.625 34.8743H26.4375C26.748 34.8743 27 34.6229 27 34.3118V22.4993C27 22.3013 26.8965 22.1185 26.7272 22.0172ZM25.875 33.7493H24.1875V24.7493C24.1875 24.4382 23.9355 24.1868 23.625 24.1868H12.375C12.0645 24.1868 11.8125 24.4382 11.8125 24.7493V33.7493H10.125V22.8177L18 18.0927L25.875 22.8177V33.7493Z" fill="url(#paint0_linear_1176_2747)"/>
<path d="M26.7272 22.0172L18.2897 16.9547C18.1114 16.8484 17.8892 16.8484 17.7109 16.9547L9.27338 22.0172C9.1035 22.1185 9 22.3013 9 22.4993V34.3118C9 34.6229 9.252 34.8743 9.5625 34.8743H12.375C12.6855 34.8743 12.9375 34.6229 12.9375 34.3118V25.3118H23.0625V34.3118C23.0625 34.6229 23.3145 34.8743 23.625 34.8743H26.4375C26.748 34.8743 27 34.6229 27 34.3118V22.4993C27 22.3013 26.8965 22.1185 26.7272 22.0172ZM25.875 33.7493H24.1875V24.7493C24.1875 24.4382 23.9355 24.1868 23.625 24.1868H12.375C12.0645 24.1868 11.8125 24.4382 11.8125 24.7493V33.7493H10.125V22.8177L18 18.0927L25.875 22.8177V33.7493Z" fill="url(#paint1_linear_1176_2747)"/>
<path d="M21.375 30.375H20.25V27.5625C20.25 27.2514 19.998 27 19.6875 27H16.3125C16.002 27 15.75 27.2514 15.75 27.5625V30.375H14.625C14.3145 30.375 14.0625 30.6264 14.0625 30.9375V34.3125C14.0625 34.6236 14.3145 34.875 14.625 34.875H21.375C21.6855 34.875 21.9375 34.6236 21.9375 34.3125V30.9375C21.9375 30.6264 21.6855 30.375 21.375 30.375ZM16.875 28.125H19.125V30.375H16.875V28.125ZM17.4375 33.75H15.1875V31.5H17.4375V33.75ZM20.8125 33.75H18.5625V31.5H20.8125V33.75Z" fill="url(#paint2_linear_1176_2747)"/>
<path d="M21.375 30.375H20.25V27.5625C20.25 27.2514 19.998 27 19.6875 27H16.3125C16.002 27 15.75 27.2514 15.75 27.5625V30.375H14.625C14.3145 30.375 14.0625 30.6264 14.0625 30.9375V34.3125C14.0625 34.6236 14.3145 34.875 14.625 34.875H21.375C21.6855 34.875 21.9375 34.6236 21.9375 34.3125V30.9375C21.9375 30.6264 21.6855 30.375 21.375 30.375ZM16.875 28.125H19.125V30.375H16.875V28.125ZM17.4375 33.75H15.1875V31.5H17.4375V33.75ZM20.8125 33.75H18.5625V31.5H20.8125V33.75Z" fill="url(#paint3_linear_1176_2747)"/>
<path d="M18 1.125C16.7591 1.125 15.75 2.13412 15.75 3.375C15.75 4.61588 16.7591 5.625 18 5.625C19.2409 5.625 20.25 4.61588 20.25 3.375C20.25 2.13412 19.2409 1.125 18 1.125ZM18 4.5C17.3796 4.5 16.875 3.99544 16.875 3.375C16.875 2.75456 17.3796 2.25 18 2.25C18.6204 2.25 19.125 2.75456 19.125 3.375C19.125 3.99544 18.6204 4.5 18 4.5Z" fill="url(#paint4_linear_1176_2747)"/>
<path d="M32.625 6.75C31.3841 6.75 30.375 7.75912 30.375 9C30.375 10.2409 31.3841 11.25 32.625 11.25C33.8659 11.25 34.875 10.2409 34.875 9C34.875 7.75912 33.8659 6.75 32.625 6.75ZM32.625 10.125C32.0046 10.125 31.5 9.62044 31.5 9C31.5 8.37956 32.0046 7.875 32.625 7.875C33.2454 7.875 33.75 8.37956 33.75 9C33.75 9.62044 33.2454 10.125 32.625 10.125Z" fill="url(#paint5_linear_1176_2747)"/>
<path d="M3.375 11.25C4.61588 11.25 5.625 10.2409 5.625 9C5.625 7.75912 4.61588 6.75 3.375 6.75C2.13412 6.75 1.125 7.75912 1.125 9C1.125 10.2409 2.13412 11.25 3.375 11.25ZM3.375 7.875C3.99544 7.875 4.5 8.37956 4.5 9C4.5 9.62044 3.99544 10.125 3.375 10.125C2.75456 10.125 2.25 9.62044 2.25 9C2.25 8.37956 2.75456 7.875 3.375 7.875Z" fill="url(#paint6_linear_1176_2747)"/>
<path d="M32.625 18.5625C31.3841 18.5625 30.375 19.5716 30.375 20.8125C30.375 22.0534 31.3841 23.0625 32.625 23.0625C33.8659 23.0625 34.875 22.0534 34.875 20.8125C34.875 19.5716 33.8659 18.5625 32.625 18.5625ZM32.625 21.9375C32.0046 21.9375 31.5 21.4329 31.5 20.8125C31.5 20.1921 32.0046 19.6875 32.625 19.6875C33.2454 19.6875 33.75 20.1921 33.75 20.8125C33.75 21.4329 33.2454 21.9375 32.625 21.9375Z" fill="url(#paint7_linear_1176_2747)"/>
<path d="M3.375 18.5625C2.13412 18.5625 1.125 19.5716 1.125 20.8125C1.125 22.0534 2.13412 23.0625 3.375 23.0625C4.61588 23.0625 5.625 22.0534 5.625 20.8125C5.625 19.5716 4.61588 18.5625 3.375 18.5625ZM3.375 21.9375C2.75456 21.9375 2.25 21.4329 2.25 20.8125C2.25 20.1921 2.75456 19.6875 3.375 19.6875C3.99544 19.6875 4.5 20.1921 4.5 20.8125C4.5 21.4329 3.99544 21.9375 3.375 21.9375Z" fill="url(#paint8_linear_1176_2747)"/>
<path d="M18.5633 14.0632V9.00073L19.2383 9.90073L20.1383 9.2263L18.4508 6.9763C18.2387 6.6928 17.7628 6.6928 17.5508 6.9763L15.8633 9.2263L16.7633 9.90073L17.4383 9.00073V14.0632H18.5633Z" fill="url(#paint9_linear_1176_2747)"/>
<path d="M29.7318 11.5449L26.9474 11.9425L27.1066 13.0563L28.2204 12.8971L24.6406 16.4769L25.436 17.2722L29.0157 13.6925L28.8566 14.8062L29.9697 14.9654L30.3674 12.181C30.3927 12.0055 30.3337 11.8289 30.2083 11.7035C30.0828 11.578 29.9073 11.5195 29.7318 11.5449Z" fill="url(#paint10_linear_1176_2747)"/>
<path d="M10.0008 17.2723L10.7962 16.477L7.21645 12.8972L8.33019 13.0564L8.48938 11.9427L5.70501 11.545C5.52782 11.5191 5.35288 11.5793 5.22745 11.7042C5.10201 11.829 5.04295 12.0062 5.06826 12.1817L5.46594 14.9661L6.57913 14.8069L6.41995 13.6932L10.0008 17.2723Z" fill="url(#paint11_linear_1176_2747)"/>
<defs>
<linearGradient id="paint0_linear_1176_2747" x1="18" y1="16.875" x2="18" y2="34.8743" gradientUnits="userSpaceOnUse">
<stop stop-color="#3793AE"/>
<stop offset="1" stop-color="#074287"/>
</linearGradient>
<linearGradient id="paint1_linear_1176_2747" x1="9.12646" y1="25.8746" x2="27" y2="25.8746" gradientUnits="userSpaceOnUse">
<stop stop-color="#3793AE"/>
<stop offset="1" stop-color="#074287"/>
</linearGradient>
<linearGradient id="paint2_linear_1176_2747" x1="18" y1="27" x2="18" y2="34.875" gradientUnits="userSpaceOnUse">
<stop stop-color="#3793AE"/>
<stop offset="1" stop-color="#074287"/>
</linearGradient>
<linearGradient id="paint3_linear_1176_2747" x1="14.1178" y1="30.9375" x2="21.9375" y2="30.9375" gradientUnits="userSpaceOnUse">
<stop stop-color="#3793AE"/>
<stop offset="1" stop-color="#074287"/>
</linearGradient>
<linearGradient id="paint4_linear_1176_2747" x1="18" y1="1.125" x2="18" y2="5.625" gradientUnits="userSpaceOnUse">
<stop stop-color="#3793AE"/>
<stop offset="1" stop-color="#074287"/>
</linearGradient>
<linearGradient id="paint5_linear_1176_2747" x1="32.625" y1="6.75" x2="32.625" y2="11.25" gradientUnits="userSpaceOnUse">
<stop stop-color="#3793AE"/>
<stop offset="1" stop-color="#074287"/>
</linearGradient>
<linearGradient id="paint6_linear_1176_2747" x1="3.375" y1="6.75" x2="3.375" y2="11.25" gradientUnits="userSpaceOnUse">
<stop stop-color="#3793AE"/>
<stop offset="1" stop-color="#074287"/>
</linearGradient>
<linearGradient id="paint7_linear_1176_2747" x1="32.625" y1="18.5625" x2="32.625" y2="23.0625" gradientUnits="userSpaceOnUse">
<stop stop-color="#3793AE"/>
<stop offset="1" stop-color="#074287"/>
</linearGradient>
<linearGradient id="paint8_linear_1176_2747" x1="3.375" y1="18.5625" x2="3.375" y2="23.0625" gradientUnits="userSpaceOnUse">
<stop stop-color="#3793AE"/>
<stop offset="1" stop-color="#074287"/>
</linearGradient>
<linearGradient id="paint9_linear_1176_2747" x1="18.0008" y1="6.76367" x2="18.0008" y2="14.0632" gradientUnits="userSpaceOnUse">
<stop stop-color="#3793AE"/>
<stop offset="1" stop-color="#074287"/>
</linearGradient>
<linearGradient id="paint10_linear_1176_2747" x1="27.5069" y1="11.5391" x2="27.5069" y2="17.2722" gradientUnits="userSpaceOnUse">
<stop stop-color="#3793AE"/>
<stop offset="1" stop-color="#074287"/>
</linearGradient>
<linearGradient id="paint11_linear_1176_2747" x1="7.92935" y1="11.5391" x2="7.92935" y2="17.2723" gradientUnits="userSpaceOnUse">
<stop stop-color="#3793AE"/>
<stop offset="1" stop-color="#074287"/>
</linearGradient>
</defs>
</svg>
