<svg width="24" height="24" viewBox="0 0 24 24" fill="none" xmlns="http://www.w3.org/2000/svg">
<g clip-path="url(#clip0_1176_2728)">
<path d="M2.7525 23.9995H11.6468C12.5058 24.015 13.3254 23.6404 13.8757 22.9808C14.1988 22.5914 14.3832 22.1054 14.3998 21.5996H21.1998C22.3037 21.5982 23.1984 20.7037 23.1998 19.5996V7.32623L23.9726 5.34502C24.0205 5.22197 24.0046 5.08311 23.93 4.97412C23.8554 4.86514 23.7318 4.79991 23.5998 4.79991H11.5998C11.3789 4.79991 11.1998 4.97901 11.1998 5.1999V12.8177L10.3998 10.7258V2.39995H11.1998C11.4207 2.39995 11.5998 2.22086 11.5998 1.99996V0.399992C11.5998 0.179098 11.4207 0 11.1998 0H3.19977C2.97887 0 2.79977 0.179098 2.79977 0.399992V1.99996C2.79977 2.22086 2.97887 2.39995 3.19977 2.39995H3.99977V10.7258L0.0669527 21.008C0.0597262 21.0273 0.0538668 21.0473 0.0497652 21.0676C-0.0949613 21.7443 0.0798433 22.45 0.523789 22.9808C1.07398 23.6404 1.89371 24.015 2.7525 23.9995ZM11.6468 23.1996H2.7525C2.13648 23.2111 1.54723 22.947 1.14566 22.4797C1.00602 22.3093 0.904062 22.1115 0.846836 21.8988C0.839804 21.8724 0.840586 21.8451 0.834921 21.8187C0.816562 21.7414 0.804648 21.6627 0.799765 21.5832C0.800742 21.532 0.804843 21.481 0.811679 21.4305C0.812851 21.3748 0.817148 21.3191 0.824961 21.264L4.74293 11.1998H9.6566L13.5697 21.2553C13.5697 21.2629 13.573 21.2703 13.5746 21.2779C13.5814 21.3285 13.5853 21.3795 13.5865 21.4305C13.5935 21.481 13.5974 21.532 13.5986 21.5832C13.5937 21.6617 13.5824 21.7398 13.5646 21.8164C13.5589 21.8431 13.5597 21.8703 13.5525 21.8965C13.4953 22.109 13.3935 22.307 13.2537 22.4771C12.8527 22.9455 12.2634 23.2105 11.6468 23.1996ZM23.0146 5.59989L22.4269 7.10592C22.4089 7.15221 22.3998 7.20143 22.3998 7.25103V9.59982H11.9998V5.59989H23.0146ZM11.9998 10.3998H22.3998V11.9998H18.7998C18.5789 11.9998 18.3998 12.1789 18.3998 12.3998C18.3998 12.6207 18.5789 12.7998 18.7998 12.7998H22.3998V14.3997H20.3998C20.1789 14.3997 19.9998 14.5788 19.9998 14.7997C19.9998 15.0206 20.1789 15.1997 20.3998 15.1997H22.3998V16.7997H18.7998C18.5789 16.7997 18.3998 16.9788 18.3998 17.1997C18.3998 17.4206 18.5789 17.5997 18.7998 17.5997H22.3998V19.5596C22.4095 20.2328 21.873 20.7873 21.1998 20.7996H14.2525L11.9998 14.9093V10.3998ZM3.59977 0.799985H10.7998V1.59997H3.59977V0.799985ZM9.59976 2.39995V10.3998H4.79977V2.39995H9.59976Z" fill="black"/>
<path d="M2.7525 23.9995H11.6468C12.5058 24.015 13.3254 23.6404 13.8757 22.9808C14.1988 22.5914 14.3832 22.1054 14.3998 21.5996H21.1998C22.3037 21.5982 23.1984 20.7037 23.1998 19.5996V7.32623L23.9726 5.34502C24.0205 5.22197 24.0046 5.08311 23.93 4.97412C23.8554 4.86514 23.7318 4.79991 23.5998 4.79991H11.5998C11.3789 4.79991 11.1998 4.97901 11.1998 5.1999V12.8177L10.3998 10.7258V2.39995H11.1998C11.4207 2.39995 11.5998 2.22086 11.5998 1.99996V0.399992C11.5998 0.179098 11.4207 0 11.1998 0H3.19977C2.97887 0 2.79977 0.179098 2.79977 0.399992V1.99996C2.79977 2.22086 2.97887 2.39995 3.19977 2.39995H3.99977V10.7258L0.0669527 21.008C0.0597262 21.0273 0.0538668 21.0473 0.0497652 21.0676C-0.0949613 21.7443 0.0798433 22.45 0.523789 22.9808C1.07398 23.6404 1.89371 24.015 2.7525 23.9995ZM11.6468 23.1996H2.7525C2.13648 23.2111 1.54723 22.947 1.14566 22.4797C1.00602 22.3093 0.904062 22.1115 0.846836 21.8988C0.839804 21.8724 0.840586 21.8451 0.834921 21.8187C0.816562 21.7414 0.804648 21.6627 0.799765 21.5832C0.800742 21.532 0.804843 21.481 0.811679 21.4305C0.812851 21.3748 0.817148 21.3191 0.824961 21.264L4.74293 11.1998H9.6566L13.5697 21.2553C13.5697 21.2629 13.573 21.2703 13.5746 21.2779C13.5814 21.3285 13.5853 21.3795 13.5865 21.4305C13.5935 21.481 13.5974 21.532 13.5986 21.5832C13.5937 21.6617 13.5824 21.7398 13.5646 21.8164C13.5589 21.8431 13.5597 21.8703 13.5525 21.8965C13.4953 22.109 13.3935 22.307 13.2537 22.4771C12.8527 22.9455 12.2634 23.2105 11.6468 23.1996ZM23.0146 5.59989L22.4269 7.10592C22.4089 7.15221 22.3998 7.20143 22.3998 7.25103V9.59982H11.9998V5.59989H23.0146ZM11.9998 10.3998H22.3998V11.9998H18.7998C18.5789 11.9998 18.3998 12.1789 18.3998 12.3998C18.3998 12.6207 18.5789 12.7998 18.7998 12.7998H22.3998V14.3997H20.3998C20.1789 14.3997 19.9998 14.5788 19.9998 14.7997C19.9998 15.0206 20.1789 15.1997 20.3998 15.1997H22.3998V16.7997H18.7998C18.5789 16.7997 18.3998 16.9788 18.3998 17.1997C18.3998 17.4206 18.5789 17.5997 18.7998 17.5997H22.3998V19.5596C22.4095 20.2328 21.873 20.7873 21.1998 20.7996H14.2525L11.9998 14.9093V10.3998ZM3.59977 0.799985H10.7998V1.59997H3.59977V0.799985ZM9.59976 2.39995V10.3998H4.79977V2.39995H9.59976Z" fill="url(#paint0_linear_1176_2728)"/>
</g>
<defs>
<linearGradient id="paint0_linear_1176_2728" x1="0.168617" y1="12" x2="23.9999" y2="12" gradientUnits="userSpaceOnUse">
<stop stop-color="#3793AE"/>
<stop offset="1" stop-color="#074287"/>
</linearGradient>
<clipPath id="clip0_1176_2728">
<rect width="24" height="24" fill="white"/>
</clipPath>
</defs>
</svg>
