<svg width="36" height="36" viewBox="0 0 36 36" fill="none" xmlns="http://www.w3.org/2000/svg">
<g clip-path="url(#clip0_1176_2733)">
<path d="M35.3161 27.1445L33.274 23.876L31.2313 20.6067C29.9176 18.505 27.1389 17.8614 25.0341 19.177C22.9317 20.4907 22.29 23.27 23.6044 25.3735L25.6471 28.642C25.6476 28.6427 25.6482 28.6432 25.6488 28.644L27.6892 31.9113C28.5412 33.2745 30.0092 34.0236 31.5099 34.0236C32.3236 34.0236 33.1467 33.8034 33.8864 33.341C34.9034 32.7055 35.6123 31.7111 35.8833 30.5404C36.1543 29.3692 35.9529 28.1628 35.3161 27.1445ZM24.6931 24.6922C23.7556 23.1903 24.2137 21.2046 25.7155 20.2661C26.2431 19.9367 26.8309 19.7793 27.4124 19.7793C28.484 19.7793 29.5329 20.3145 30.142 21.2881L31.844 24.0121L26.3959 27.4162L24.6931 24.6922ZM34.6316 30.2514C34.4377 31.0877 33.9315 31.7978 33.205 32.2522C31.7019 33.1907 29.7168 32.7309 28.7783 31.2308L27.077 28.5062L32.5251 25.1021L34.227 27.8261C34.6812 28.553 34.8249 29.4145 34.6316 30.2514Z" fill="black"/>
<path d="M35.3161 27.1445L33.274 23.876L31.2313 20.6067C29.9176 18.505 27.1389 17.8614 25.0341 19.177C22.9317 20.4907 22.29 23.27 23.6044 25.3735L25.6471 28.642C25.6476 28.6427 25.6482 28.6432 25.6488 28.644L27.6892 31.9113C28.5412 33.2745 30.0092 34.0236 31.5099 34.0236C32.3236 34.0236 33.1467 33.8034 33.8864 33.341C34.9034 32.7055 35.6123 31.7111 35.8833 30.5404C36.1543 29.3692 35.9529 28.1628 35.3161 27.1445ZM24.6931 24.6922C23.7556 23.1903 24.2137 21.2046 25.7155 20.2661C26.2431 19.9367 26.8309 19.7793 27.4124 19.7793C28.484 19.7793 29.5329 20.3145 30.142 21.2881L31.844 24.0121L26.3959 27.4162L24.6931 24.6922ZM34.6316 30.2514C34.4377 31.0877 33.9315 31.7978 33.205 32.2522C31.7019 33.1907 29.7168 32.7309 28.7783 31.2308L27.077 28.5062L32.5251 25.1021L34.227 27.8261C34.6812 28.553 34.8249 29.4145 34.6316 30.2514Z" fill="url(#paint0_linear_1176_2733)"/>
<path d="M19.2291 5.61729C19 4.43724 18.3257 3.41712 17.3307 2.74588C16.3363 2.07526 15.1411 1.8317 13.9592 2.06012C12.7791 2.28902 11.759 2.96354 11.0878 3.95916L8.93221 7.15434L6.77713 10.3501C6.10651 11.3445 5.86295 12.5416 6.09137 13.7216C6.32027 14.9017 6.99479 15.9218 7.98979 16.5931C8.75949 17.1119 9.63278 17.3603 10.498 17.3603C11.9441 17.3603 13.3656 16.6658 14.2333 15.3796L16.3883 12.1844L18.544 8.98863C19.2147 7.99363 19.4581 6.79672 19.2291 5.61729ZM13.1683 14.6606C12.1776 16.1293 10.1758 16.5175 8.70893 15.5277C7.99822 15.0484 7.5164 14.32 7.35319 13.4768C7.18951 12.6336 7.36317 11.7784 7.8425 11.069L9.63793 8.40586L10.8392 9.21597L14.964 11.9986L13.1683 14.6606ZM17.4787 8.2698L15.6825 10.9329L13.0199 9.1367L10.3571 7.34049L12.1531 4.67737C12.6325 3.96665 13.3608 3.48483 14.204 3.32163C15.0497 3.15779 15.9024 3.33224 16.6118 3.81094C17.3226 4.29026 17.8044 5.01861 17.9682 5.86179C18.1319 6.70435 17.9581 7.55955 17.4787 8.2698Z" fill="black"/>
<path d="M19.2291 5.61729C19 4.43724 18.3257 3.41712 17.3307 2.74588C16.3363 2.07526 15.1411 1.8317 13.9592 2.06012C12.7791 2.28902 11.759 2.96354 11.0878 3.95916L8.93221 7.15434L6.77713 10.3501C6.10651 11.3445 5.86295 12.5416 6.09137 13.7216C6.32027 14.9017 6.99479 15.9218 7.98979 16.5931C8.75949 17.1119 9.63278 17.3603 10.498 17.3603C11.9441 17.3603 13.3656 16.6658 14.2333 15.3796L16.3883 12.1844L18.544 8.98863C19.2147 7.99363 19.4581 6.79672 19.2291 5.61729ZM13.1683 14.6606C12.1776 16.1293 10.1758 16.5175 8.70893 15.5277C7.99822 15.0484 7.5164 14.32 7.35319 13.4768C7.18951 12.6336 7.36317 11.7784 7.8425 11.069L9.63793 8.40586L10.8392 9.21597L14.964 11.9986L13.1683 14.6606ZM17.4787 8.2698L15.6825 10.9329L13.0199 9.1367L10.3571 7.34049L12.1531 4.67737C12.6325 3.96665 13.3608 3.48483 14.204 3.32163C15.0497 3.15779 15.9024 3.33224 16.6118 3.81094C17.3226 4.29026 17.8044 5.01861 17.9682 5.86179C18.1319 6.70435 17.9581 7.55955 17.4787 8.2698Z" fill="url(#paint1_linear_1176_2733)"/>
<path d="M15.5192 25.0194L14.2783 25.3519L13.9458 24.111C13.8542 23.7679 13.5028 23.5652 13.1591 23.6568C12.8166 23.7484 12.6133 24.101 12.7049 24.4435L13.0374 25.6844L11.7965 26.0169C11.454 26.1085 11.2507 26.4611 11.3423 26.8036C11.4187 27.091 11.6785 27.2798 11.962 27.2798C12.0173 27.2798 12.0731 27.2729 12.129 27.2578L13.3699 26.9253L13.7024 28.1662C13.7788 28.4536 14.0386 28.6424 14.3221 28.6424C14.3774 28.6424 14.4332 28.6355 14.4891 28.6204C14.8316 28.5288 15.0349 28.1762 14.9433 27.8337L14.6108 26.5928L15.8517 26.2603C16.1942 26.1687 16.3975 25.8161 16.3059 25.4736C16.2141 25.1305 15.8629 24.9284 15.5192 25.0194Z" fill="black"/>
<path d="M15.5192 25.0194L14.2783 25.3519L13.9458 24.111C13.8542 23.7679 13.5028 23.5652 13.1591 23.6568C12.8166 23.7484 12.6133 24.101 12.7049 24.4435L13.0374 25.6844L11.7965 26.0169C11.454 26.1085 11.2507 26.4611 11.3423 26.8036C11.4187 27.091 11.6785 27.2798 11.962 27.2798C12.0173 27.2798 12.0731 27.2729 12.129 27.2578L13.3699 26.9253L13.7024 28.1662C13.7788 28.4536 14.0386 28.6424 14.3221 28.6424C14.3774 28.6424 14.4332 28.6355 14.4891 28.6204C14.8316 28.5288 15.0349 28.1762 14.9433 27.8337L14.6108 26.5928L15.8517 26.2603C16.1942 26.1687 16.3975 25.8161 16.3059 25.4736C16.2141 25.1305 15.8629 24.9284 15.5192 25.0194Z" fill="url(#paint2_linear_1176_2733)"/>
<path d="M28.0454 11.3388C27.9538 11.6813 28.1571 12.0339 28.4996 12.1255L29.7405 12.458L29.408 13.6989C29.3164 14.0414 29.5197 14.394 29.8622 14.4856C29.9181 14.5006 29.9739 14.5076 30.0292 14.5076C30.3127 14.5076 30.5725 14.3188 30.6489 14.0314L30.9814 12.7905L32.2223 13.123C32.2782 13.138 32.334 13.145 32.3893 13.145C32.6728 13.145 32.9326 12.9562 33.009 12.6688C33.1006 12.3263 32.8973 11.9737 32.5548 11.8821L31.3139 11.5496L31.6464 10.3087C31.738 9.96622 31.5347 9.61359 31.1922 9.522C30.851 9.43041 30.4971 9.63309 30.4055 9.9762L30.073 11.2171L28.8321 10.8846C28.4909 10.793 28.137 10.9963 28.0454 11.3388Z" fill="black"/>
<path d="M28.0454 11.3388C27.9538 11.6813 28.1571 12.0339 28.4996 12.1255L29.7405 12.458L29.408 13.6989C29.3164 14.0414 29.5197 14.394 29.8622 14.4856C29.9181 14.5006 29.9739 14.5076 30.0292 14.5076C30.3127 14.5076 30.5725 14.3188 30.6489 14.0314L30.9814 12.7905L32.2223 13.123C32.2782 13.138 32.334 13.145 32.3893 13.145C32.6728 13.145 32.9326 12.9562 33.009 12.6688C33.1006 12.3263 32.8973 11.9737 32.5548 11.8821L31.3139 11.5496L31.6464 10.3087C31.738 9.96622 31.5347 9.61359 31.1922 9.522C30.851 9.43041 30.4971 9.63309 30.4055 9.9762L30.073 11.2171L28.8321 10.8846C28.4909 10.793 28.137 10.9963 28.0454 11.3388Z" fill="url(#paint3_linear_1176_2733)"/>
<path d="M3.52485 13.6274L2.44778 14.3269L1.74814 13.2498C1.55497 12.9525 1.15835 12.8671 0.859081 13.061C0.561688 13.2542 0.476964 13.6521 0.670285 13.9501L1.36977 15.0272L0.292537 15.7268C-0.00485633 15.92 -0.0895806 16.3179 0.10374 16.6159C0.226692 16.8053 0.43312 16.9083 0.643292 16.9083C0.763123 16.9083 0.884202 16.875 0.992643 16.8048L2.06972 16.1053L2.76936 17.1826C2.89231 17.372 3.09873 17.475 3.30891 17.475C3.42874 17.475 3.54982 17.4417 3.65826 17.3715C3.95565 17.1784 4.04037 16.7805 3.84705 16.4825L3.14757 15.4054L4.2248 14.7058C4.52219 14.5126 4.60692 14.1147 4.4136 13.8167C4.22059 13.5188 3.82334 13.4336 3.52485 13.6274Z" fill="black"/>
<path d="M3.52485 13.6274L2.44778 14.3269L1.74814 13.2498C1.55497 12.9525 1.15835 12.8671 0.859081 13.061C0.561688 13.2542 0.476964 13.6521 0.670285 13.9501L1.36977 15.0272L0.292537 15.7268C-0.00485633 15.92 -0.0895806 16.3179 0.10374 16.6159C0.226692 16.8053 0.43312 16.9083 0.643292 16.9083C0.763123 16.9083 0.884202 16.875 0.992643 16.8048L2.06972 16.1053L2.76936 17.1826C2.89231 17.372 3.09873 17.475 3.30891 17.475C3.42874 17.475 3.54982 17.4417 3.65826 17.3715C3.95565 17.1784 4.04037 16.7805 3.84705 16.4825L3.14757 15.4054L4.2248 14.7058C4.52219 14.5126 4.60692 14.1147 4.4136 13.8167C4.22059 13.5188 3.82334 13.4336 3.52485 13.6274Z" fill="url(#paint4_linear_1176_2733)"/>
<path d="M18.9628 18.4284C19.318 18.4284 19.6052 18.141 19.6052 17.786C19.6052 16.3688 20.7577 15.2164 22.1749 15.2164C22.53 15.2164 22.8173 14.929 22.8173 14.574C22.8173 14.219 22.5298 13.9316 22.1749 13.9316C20.0493 13.9316 18.3203 15.6606 18.3203 17.7862C18.3203 18.1412 18.6077 18.4284 18.9628 18.4284Z" fill="black"/>
<path d="M18.9628 18.4284C19.318 18.4284 19.6052 18.141 19.6052 17.786C19.6052 16.3688 20.7577 15.2164 22.1749 15.2164C22.53 15.2164 22.8173 14.929 22.8173 14.574C22.8173 14.219 22.5298 13.9316 22.1749 13.9316C20.0493 13.9316 18.3203 15.6606 18.3203 17.7862C18.3203 18.1412 18.6077 18.4284 18.9628 18.4284Z" fill="url(#paint5_linear_1176_2733)"/>
<path d="M21.6959 30.9873C20.7844 32.0726 19.1607 32.2157 18.0747 31.3042C17.8025 31.0757 17.3979 31.1135 17.1695 31.3839C16.9417 31.6556 16.9775 32.0608 17.2492 32.2892C17.9701 32.8933 18.849 33.1889 19.7235 33.1889C20.8246 33.1889 21.9187 32.7209 22.6797 31.813C22.9081 31.5413 22.8722 31.1361 22.6007 30.9083C22.3283 30.6799 21.9231 30.7156 21.6959 30.9873Z" fill="black"/>
<path d="M21.6959 30.9873C20.7844 32.0726 19.1607 32.2157 18.0747 31.3042C17.8025 31.0757 17.3979 31.1135 17.1695 31.3839C16.9417 31.6556 16.9775 32.0608 17.2492 32.2892C17.9701 32.8933 18.849 33.1889 19.7235 33.1889C20.8246 33.1889 21.9187 32.7209 22.6797 31.813C22.9081 31.5413 22.8722 31.1361 22.6007 30.9083C22.3283 30.6799 21.9231 30.7156 21.6959 30.9873Z" fill="url(#paint6_linear_1176_2733)"/>
<path d="M23.3005 6.61708C23.8264 6.86235 24.379 6.97782 24.9236 6.97782C26.3759 6.97782 27.77 6.15351 28.423 4.75314C28.5729 4.43125 28.4336 4.04929 28.1125 3.89935C27.7912 3.75127 27.4093 3.88874 27.2587 4.20985C26.6602 5.49335 25.1287 6.05178 23.844 5.45262C23.5221 5.30393 23.1408 5.44201 22.9902 5.76312C22.8399 6.08501 22.9793 6.46713 23.3005 6.61708Z" fill="black"/>
<path d="M23.3005 6.61708C23.8264 6.86235 24.379 6.97782 24.9236 6.97782C26.3759 6.97782 27.77 6.15351 28.423 4.75314C28.5729 4.43125 28.4336 4.04929 28.1125 3.89935C27.7912 3.75127 27.4093 3.88874 27.2587 4.20985C26.6602 5.49335 25.1287 6.05178 23.844 5.45262C23.5221 5.30393 23.1408 5.44201 22.9902 5.76312C22.8399 6.08501 22.9793 6.46713 23.3005 6.61708Z" fill="url(#paint7_linear_1176_2733)"/>
</g>
<defs>
<linearGradient id="paint0_linear_1176_2733" x1="23.0138" y1="26.2589" x2="36.0008" y2="26.2589" gradientUnits="userSpaceOnUse">
<stop stop-color="#3793AE"/>
<stop offset="1" stop-color="#074287"/>
</linearGradient>
<linearGradient id="paint1_linear_1176_2733" x1="6.10129" y1="9.66841" x2="19.313" y2="9.66841" gradientUnits="userSpaceOnUse">
<stop stop-color="#3793AE"/>
<stop offset="1" stop-color="#074287"/>
</linearGradient>
<linearGradient id="paint2_linear_1176_2733" x1="11.3555" y1="26.1386" x2="16.3279" y2="26.1386" gradientUnits="userSpaceOnUse">
<stop stop-color="#3793AE"/>
<stop offset="1" stop-color="#074287"/>
</linearGradient>
<linearGradient id="paint3_linear_1176_2733" x1="28.0586" y1="12.0038" x2="33.031" y2="12.0038" gradientUnits="userSpaceOnUse">
<stop stop-color="#3793AE"/>
<stop offset="1" stop-color="#074287"/>
</linearGradient>
<linearGradient id="paint4_linear_1176_2733" x1="0.0317377" y1="15.216" x2="4.51734" y2="15.216" gradientUnits="userSpaceOnUse">
<stop stop-color="#3793AE"/>
<stop offset="1" stop-color="#074287"/>
</linearGradient>
<linearGradient id="paint5_linear_1176_2733" x1="18.3519" y1="16.18" x2="22.8173" y2="16.18" gradientUnits="userSpaceOnUse">
<stop stop-color="#3793AE"/>
<stop offset="1" stop-color="#074287"/>
</linearGradient>
<linearGradient id="paint6_linear_1176_2733" x1="17.0604" y1="31.9733" x2="22.8301" y2="31.9733" gradientUnits="userSpaceOnUse">
<stop stop-color="#3793AE"/>
<stop offset="1" stop-color="#074287"/>
</linearGradient>
<linearGradient id="paint7_linear_1176_2733" x1="22.9687" y1="5.40883" x2="28.4833" y2="5.40883" gradientUnits="userSpaceOnUse">
<stop stop-color="#3793AE"/>
<stop offset="1" stop-color="#074287"/>
</linearGradient>
<clipPath id="clip0_1176_2733">
<rect width="36" height="36" fill="white"/>
</clipPath>
</defs>
</svg>
