<svg width="28" height="28" viewBox="0 0 28 28" fill="none" xmlns="http://www.w3.org/2000/svg">
<g clip-path="url(#clip0_1176_2791)">
<path d="M11.9865 15.0062C11.7136 15.0062 11.4916 14.7527 11.4916 14.4414V14.0409C12.1789 13.8944 12.6961 13.2836 12.6961 12.5537V11.5957C12.6961 10.7569 12.0134 10.0742 11.1743 10.0742H2.23756C1.39847 10.0742 0.715744 10.7569 0.715744 11.5957V12.5537C0.715744 13.2836 1.23308 13.8944 1.92031 14.0409V14.4414C1.92031 14.7527 1.69823 15.0062 1.42538 15.0062C0.643673 15.0062 0.0078125 15.682 0.0078125 16.5127V26.4943C0.00815407 27.3246 0.644015 28.0004 1.42572 28.0004H11.9865C12.7682 28.0004 13.4041 27.3246 13.4041 26.4939V16.5127C13.4041 15.682 12.7683 15.0062 11.9865 15.0062ZM1.41527 12.5537V11.5957C1.41527 11.1424 1.7843 10.7737 2.23756 10.7737H11.1751C11.6283 10.7737 11.9974 11.1424 11.9974 11.5957V12.5537C11.9974 13.007 11.6283 13.3757 11.1751 13.3757H2.23756C1.78423 13.376 1.41527 13.007 1.41527 12.5537ZM12.7049 26.4939C12.7049 26.9389 12.3828 27.3009 11.9869 27.3009H1.42572C1.02978 27.3009 0.707683 26.9389 0.707683 26.4939V25.5782H12.7049V26.4939ZM12.7049 24.8791H0.707683V17.7351H12.7049V24.8791ZM12.7049 17.036H0.707683V16.5128C0.707683 16.0678 1.02985 15.7058 1.42572 15.7058C2.08433 15.7058 2.62018 15.1385 2.62018 14.4414V14.0752H10.7924V14.4414C10.7924 15.1385 11.3283 15.7058 11.9869 15.7058C12.3828 15.7058 12.7049 16.0678 12.7049 16.5128V17.036Z" fill="url(#paint0_linear_1176_2791)"/>
<path d="M26.5728 4.93202C26.2999 4.93202 26.0778 4.67844 26.0778 4.36714V3.96668C26.7651 3.82015 27.2824 3.20943 27.2824 2.4795V1.52147C27.2825 0.682724 26.5998 0 25.7607 0H16.8235C15.9844 0 15.3017 0.682724 15.3017 1.52147V2.4795C15.3017 3.20943 15.819 3.82015 16.5063 3.96668V4.36714C16.5063 4.67844 16.2842 4.93202 16.0113 4.93202C15.2296 4.93202 14.5938 5.60777 14.5938 6.43846V26.4936C14.5941 27.3243 15.2303 28.0001 16.0117 28.0001H26.5725C27.3545 28.0001 27.9904 27.3243 27.9904 26.4936V6.43846C27.9904 5.60777 27.3545 4.93202 26.5728 4.93202ZM16.0016 2.47984V1.52182C16.0016 1.06856 16.3706 0.69987 16.8238 0.69987H25.7613C26.2146 0.69987 26.5836 1.06849 26.5836 1.52182V2.47984C26.5836 2.9331 26.2146 3.30179 25.7613 3.30179H16.8235C16.3702 3.30179 16.0016 2.9331 16.0016 2.47984ZM27.2909 26.494C27.2909 26.9385 26.9687 27.3005 26.5728 27.3005H16.0117C15.6157 27.3005 15.2936 26.9385 15.2936 26.4936V22.3745H27.2909V26.494ZM27.2909 21.6749H15.2936V9.40969H27.2909V21.6749ZM27.2909 8.7105H15.2936V6.43881C15.2936 5.99388 15.6157 5.63189 16.0117 5.63189C16.6703 5.63189 17.2061 5.06455 17.2061 4.36748V4.00125H25.3784V4.36748C25.3784 5.06455 25.9142 5.63189 26.5728 5.63189C26.9688 5.63189 27.2909 5.99388 27.2909 6.43881V8.7105Z" fill="url(#paint1_linear_1176_2791)"/>
<path d="M20.7849 14.531L19.0613 12.8066C18.4446 12.19 17.4408 12.1893 16.8235 12.8056C16.5244 13.1043 16.3594 13.5013 16.3594 13.9238C16.359 14.346 16.5234 14.7433 16.8221 15.042L18.5461 16.7664C18.8546 17.0749 19.26 17.2295 19.6657 17.2295C20.0707 17.2295 20.4754 17.0756 20.7839 16.7678C21.083 16.4692 21.248 16.0721 21.248 15.6496C21.2484 15.227 21.0839 14.8297 20.7849 14.531ZM17.317 14.5474C17.1505 14.3806 17.0588 14.1592 17.0588 13.9238C17.0588 13.6884 17.1509 13.4669 17.3177 13.3005C17.4898 13.1284 17.7157 13.0427 17.942 13.0427C18.1683 13.0427 18.3946 13.1288 18.567 13.3009L19.1812 13.9154L17.9318 15.1623L17.317 14.5474ZM20.2896 16.2721C19.9451 16.6159 19.3852 16.6156 19.0406 16.2714L18.4261 15.6569L19.6754 14.4099L20.2903 15.0248C20.4568 15.192 20.5488 15.4134 20.5485 15.6488C20.5485 15.8842 20.4565 16.106 20.2896 16.2721Z" fill="url(#paint2_linear_1176_2791)"/>
<path d="M8.69981 21.0514L6.96704 19.3183C6.34798 18.6992 5.33995 18.6985 4.72014 19.3169C4.42004 19.6167 4.25425 20.0154 4.25391 20.4393C4.25391 20.8632 4.41902 21.2623 4.71912 21.5624L6.45189 23.2955C6.76176 23.6053 7.16856 23.7603 7.57571 23.7603C7.98252 23.7603 8.38891 23.6057 8.69844 23.2968C8.99854 22.9971 9.16434 22.5983 9.16468 22.1744C9.16495 21.7501 8.99991 21.3511 8.69981 21.0514ZM5.21371 21.0674C5.0462 20.8995 4.9535 20.6764 4.95384 20.4393C4.95419 20.2022 5.04655 19.9793 5.21439 19.8118C5.38791 19.6387 5.61519 19.5523 5.84294 19.5523C6.07097 19.5523 6.29907 19.6391 6.47252 19.8125L7.09123 20.4312L5.83276 21.6869L5.21371 21.0674ZM8.20419 22.8012C7.85757 23.1475 7.29344 23.1475 6.94607 22.8005L6.32735 22.1818L7.58582 20.9262L8.20488 21.5456C8.37279 21.7131 8.46508 21.9363 8.46508 22.1734C8.46508 22.4105 8.37238 22.6336 8.20419 22.8012Z" fill="url(#paint3_linear_1176_2791)"/>
<path d="M26.1492 17.8051C25.8754 16.7114 24.7631 16.0434 23.6684 16.3173C23.1381 16.4495 22.6915 16.78 22.4099 17.2483C22.1286 17.7167 22.0465 18.2661 22.1791 18.796C22.411 19.7239 23.2476 20.3452 24.1643 20.3452C24.3276 20.3452 24.4941 20.3252 24.6599 20.284C25.1902 20.1518 25.6368 19.8209 25.918 19.3529C26.1996 18.8849 26.2814 18.335 26.1492 17.8051ZM23.0093 17.6086C23.1947 17.3004 23.4885 17.0829 23.8376 16.9958C23.9467 16.9686 24.0562 16.9556 24.1639 16.9556C24.6508 16.9556 25.0988 17.2242 25.3356 17.6477L22.8229 18.2745C22.8271 18.042 22.8862 17.8132 23.0093 17.6086ZM25.3178 18.9926C25.1331 19.3004 24.839 19.5183 24.4902 19.6054C23.8879 19.7547 23.2821 19.4701 22.9929 18.9531L25.5045 18.3263C25.5004 18.5589 25.4409 18.788 25.3178 18.9926Z" fill="url(#paint4_linear_1176_2791)"/>
<path d="M25.4212 11.436C24.7528 10.5279 23.4702 10.3324 22.5612 10.9998C22.1208 11.3233 21.8329 11.7986 21.7504 12.3387C21.6679 12.8783 21.8011 13.418 22.1246 13.858C22.5251 14.4023 23.1463 14.6905 23.7755 14.6905C24.1962 14.6905 24.6205 14.5614 24.9846 14.2942C25.425 13.9707 25.7129 13.4953 25.7954 12.9553C25.878 12.4153 25.7447 11.876 25.4212 11.436ZM22.6881 13.4429C22.4754 13.154 22.388 12.7993 22.4419 12.4439C22.4779 12.2078 22.5786 11.9934 22.7242 11.8116L24.2575 13.8951C23.7045 14.1085 23.056 13.9424 22.6881 13.4429ZM25.1039 12.8497C25.0679 13.0858 24.9672 13.3002 24.8217 13.4817L23.2873 11.3965C23.444 11.336 23.6073 11.3028 23.771 11.3028C24.1851 11.3028 24.594 11.4923 24.8577 11.8505C25.0703 12.1397 25.1578 12.4947 25.1039 12.8497Z" fill="url(#paint5_linear_1176_2791)"/>
</g>
<defs>
<linearGradient id="paint0_linear_1176_2791" x1="6.70594" y1="10.0742" x2="6.70594" y2="28.0004" gradientUnits="userSpaceOnUse">
<stop stop-color="#3793AE"/>
<stop offset="1" stop-color="#074287"/>
</linearGradient>
<linearGradient id="paint1_linear_1176_2791" x1="21.2921" y1="0" x2="21.2921" y2="28.0001" gradientUnits="userSpaceOnUse">
<stop stop-color="#3793AE"/>
<stop offset="1" stop-color="#074287"/>
</linearGradient>
<linearGradient id="paint2_linear_1176_2791" x1="18.8037" y1="12.3438" x2="18.8037" y2="17.2295" gradientUnits="userSpaceOnUse">
<stop stop-color="#3793AE"/>
<stop offset="1" stop-color="#074287"/>
</linearGradient>
<linearGradient id="paint3_linear_1176_2791" x1="6.70929" y1="18.8535" x2="6.70929" y2="23.7603" gradientUnits="userSpaceOnUse">
<stop stop-color="#3793AE"/>
<stop offset="1" stop-color="#074287"/>
</linearGradient>
<linearGradient id="paint4_linear_1176_2791" x1="24.164" y1="16.2559" x2="24.164" y2="20.3452" gradientUnits="userSpaceOnUse">
<stop stop-color="#3793AE"/>
<stop offset="1" stop-color="#074287"/>
</linearGradient>
<linearGradient id="paint5_linear_1176_2791" x1="23.7729" y1="10.6035" x2="23.7729" y2="14.6905" gradientUnits="userSpaceOnUse">
<stop stop-color="#3793AE"/>
<stop offset="1" stop-color="#074287"/>
</linearGradient>
<clipPath id="clip0_1176_2791">
<rect width="28" height="28" fill="white"/>
</clipPath>
</defs>
</svg>
