<svg width="27" height="27" viewBox="0 0 27 27" fill="none" xmlns="http://www.w3.org/2000/svg">
<path d="M26.4973 20.393L25.6144 19.8931C25.4641 19.7925 25.3104 19.7047 25.1539 19.6267C25.1811 19.3913 25.2 19.1504 25.2 18.8999C25.2 14.8028 21.1976 11.4575 16.1934 11.2681V8.21818C16.1934 7.46903 16.4583 6.76049 16.9399 6.19592C17.2469 6.25867 17.5582 6.29996 17.8722 6.29996C19.1088 6.29996 20.2707 5.81919 21.1434 4.94622C22.3062 3.78364 22.765 2.07067 22.3409 0.475875C22.2992 0.319887 22.1774 0.198123 22.0215 0.156621C21.6308 0.0527344 21.2274 0 20.8222 0C19.5855 0 18.4236 0.480779 17.5509 1.35374C16.4521 2.45252 15.9921 4.04251 16.3022 5.56058C16.0823 5.80948 15.8936 6.07938 15.7435 6.36852C15.5963 6.08486 15.412 5.81982 15.1976 5.57487C15.5136 4.05248 15.054 2.456 13.9517 1.35374C13.079 0.480779 11.9171 0 10.6805 0C10.2753 0 9.87193 0.0527344 9.48122 0.156674C9.32523 0.198229 9.20347 0.319939 9.16175 0.475928C8.73766 2.07072 9.19645 3.78369 10.3592 4.94627C11.232 5.81924 12.3939 6.30002 13.6305 6.30002C13.9399 6.30002 14.2466 6.25957 14.5493 6.19866C15.0294 6.76234 15.2934 7.47009 15.2934 8.21823V11.2656C11.188 11.4227 7.71119 13.6757 6.63905 16.8876C6.22208 16.9903 5.80985 17.0737 5.40047 17.1379V16.6496C5.40047 16.1532 4.99663 15.7496 4.50046 15.7496H0.900017C0.403893 15.7495 0 16.1532 0 16.6496V26.1C0 26.5964 0.403893 27 0.900017 27H4.50046C4.99658 27 5.40047 26.5964 5.40047 26.1V25.7294L16.0273 26.5366C16.1394 26.5454 16.2519 26.5495 16.3639 26.5495C17.0262 26.5495 17.6845 26.3984 18.2857 26.1062L26.442 22.1456C26.7759 21.9795 26.9895 21.6475 26.9996 21.279C27.0097 20.9145 26.8172 20.575 26.4973 20.393ZM18.1872 1.99004C18.8903 1.28714 19.826 0.899965 20.8222 0.899965C21.0599 0.899965 21.2973 0.922377 21.5302 0.96699C21.7609 2.17614 21.3808 3.43628 20.5071 4.30993C19.6361 5.18047 18.3744 5.56501 17.1647 5.33297C16.9339 4.12362 17.3136 2.86369 18.1872 1.99004ZM14.3381 5.33297C14.1051 5.37759 13.8683 5.4 13.6305 5.4C12.6343 5.4 11.6987 5.01282 10.9955 4.30993C10.1219 3.43628 9.74178 2.17614 9.97249 0.96699C10.2054 0.922377 10.4427 0.899965 10.6805 0.899965C11.6767 0.899965 12.6123 1.28714 13.3154 1.99004C14.1891 2.86369 14.5688 4.12362 14.3381 5.33297ZM0.900017 26.1V16.6496H4.50046L4.50088 26.1H0.900017ZM15.7296 12.1507C15.7345 12.1509 15.7385 12.1535 15.7434 12.1535C15.749 12.1535 15.7536 12.1506 15.759 12.1504C20.4693 12.1543 24.3 15.1805 24.3 18.9C24.3 19.0449 24.2929 19.1859 24.2823 19.3245C23.3435 19.1157 22.2987 19.2512 21.114 19.7479L16.3947 21.8766C16.0088 22.0494 15.5668 22.0166 15.2112 21.7887L11.8209 19.6119C13.424 18.8082 15.0275 18.0021 16.6215 17.1969C16.9286 17.0464 17.1352 16.7555 17.1743 16.4191C17.2129 16.0864 17.0802 15.7601 16.817 15.5443C15.1339 14.1849 13.3686 14.0442 11.2623 15.1002C9.97555 15.746 8.82283 16.2285 7.7306 16.5786C8.94776 13.9753 12.1504 12.1577 15.7296 12.1507ZM26.0451 21.3379L17.8923 25.2967C17.3325 25.5689 16.7115 25.686 16.0963 25.6392L5.40047 24.8269V18.0473C7.34062 17.7616 9.29301 17.0958 11.6657 15.9047C13.4675 15.0016 14.8386 15.1035 16.2493 16.2424C16.2581 16.2496 16.2853 16.2721 16.2805 16.3153C16.2778 16.3377 16.266 16.3687 16.2202 16.3912C14.3882 17.3167 12.5508 18.2421 10.7108 19.163C10.0455 19.5005 9.37359 19.8378 8.70254 20.1749C8.48064 20.2865 8.39099 20.557 8.50215 20.7791C8.58125 20.9364 8.73988 21.0272 8.90467 21.0272C8.97281 21.0272 9.04178 21.0118 9.10638 20.9793C9.70239 20.6799 10.2969 20.3806 10.8873 20.0818L14.7248 22.546C15.3369 22.9391 16.0994 22.996 16.7638 22.6976L21.473 20.5733C22.9584 19.9502 24.1159 19.9724 25.1416 20.6583L26.0526 21.1758C26.0649 21.1826 26.1014 21.2035 26.1 21.2542C26.0996 21.2801 26.0886 21.3161 26.0451 21.3379Z" fill="black"/>
<path d="M26.4973 20.393L25.6144 19.8931C25.4641 19.7925 25.3104 19.7047 25.1539 19.6267C25.1811 19.3913 25.2 19.1504 25.2 18.8999C25.2 14.8028 21.1976 11.4575 16.1934 11.2681V8.21818C16.1934 7.46903 16.4583 6.76049 16.9399 6.19592C17.2469 6.25867 17.5582 6.29996 17.8722 6.29996C19.1088 6.29996 20.2707 5.81919 21.1434 4.94622C22.3062 3.78364 22.765 2.07067 22.3409 0.475875C22.2992 0.319887 22.1774 0.198123 22.0215 0.156621C21.6308 0.0527344 21.2274 0 20.8222 0C19.5855 0 18.4236 0.480779 17.5509 1.35374C16.4521 2.45252 15.9921 4.04251 16.3022 5.56058C16.0823 5.80948 15.8936 6.07938 15.7435 6.36852C15.5963 6.08486 15.412 5.81982 15.1976 5.57487C15.5136 4.05248 15.054 2.456 13.9517 1.35374C13.079 0.480779 11.9171 0 10.6805 0C10.2753 0 9.87193 0.0527344 9.48122 0.156674C9.32523 0.198229 9.20347 0.319939 9.16175 0.475928C8.73766 2.07072 9.19645 3.78369 10.3592 4.94627C11.232 5.81924 12.3939 6.30002 13.6305 6.30002C13.9399 6.30002 14.2466 6.25957 14.5493 6.19866C15.0294 6.76234 15.2934 7.47009 15.2934 8.21823V11.2656C11.188 11.4227 7.71119 13.6757 6.63905 16.8876C6.22208 16.9903 5.80985 17.0737 5.40047 17.1379V16.6496C5.40047 16.1532 4.99663 15.7496 4.50046 15.7496H0.900017C0.403893 15.7495 0 16.1532 0 16.6496V26.1C0 26.5964 0.403893 27 0.900017 27H4.50046C4.99658 27 5.40047 26.5964 5.40047 26.1V25.7294L16.0273 26.5366C16.1394 26.5454 16.2519 26.5495 16.3639 26.5495C17.0262 26.5495 17.6845 26.3984 18.2857 26.1062L26.442 22.1456C26.7759 21.9795 26.9895 21.6475 26.9996 21.279C27.0097 20.9145 26.8172 20.575 26.4973 20.393ZM18.1872 1.99004C18.8903 1.28714 19.826 0.899965 20.8222 0.899965C21.0599 0.899965 21.2973 0.922377 21.5302 0.96699C21.7609 2.17614 21.3808 3.43628 20.5071 4.30993C19.6361 5.18047 18.3744 5.56501 17.1647 5.33297C16.9339 4.12362 17.3136 2.86369 18.1872 1.99004ZM14.3381 5.33297C14.1051 5.37759 13.8683 5.4 13.6305 5.4C12.6343 5.4 11.6987 5.01282 10.9955 4.30993C10.1219 3.43628 9.74178 2.17614 9.97249 0.96699C10.2054 0.922377 10.4427 0.899965 10.6805 0.899965C11.6767 0.899965 12.6123 1.28714 13.3154 1.99004C14.1891 2.86369 14.5688 4.12362 14.3381 5.33297ZM0.900017 26.1V16.6496H4.50046L4.50088 26.1H0.900017ZM15.7296 12.1507C15.7345 12.1509 15.7385 12.1535 15.7434 12.1535C15.749 12.1535 15.7536 12.1506 15.759 12.1504C20.4693 12.1543 24.3 15.1805 24.3 18.9C24.3 19.0449 24.2929 19.1859 24.2823 19.3245C23.3435 19.1157 22.2987 19.2512 21.114 19.7479L16.3947 21.8766C16.0088 22.0494 15.5668 22.0166 15.2112 21.7887L11.8209 19.6119C13.424 18.8082 15.0275 18.0021 16.6215 17.1969C16.9286 17.0464 17.1352 16.7555 17.1743 16.4191C17.2129 16.0864 17.0802 15.7601 16.817 15.5443C15.1339 14.1849 13.3686 14.0442 11.2623 15.1002C9.97555 15.746 8.82283 16.2285 7.7306 16.5786C8.94776 13.9753 12.1504 12.1577 15.7296 12.1507ZM26.0451 21.3379L17.8923 25.2967C17.3325 25.5689 16.7115 25.686 16.0963 25.6392L5.40047 24.8269V18.0473C7.34062 17.7616 9.29301 17.0958 11.6657 15.9047C13.4675 15.0016 14.8386 15.1035 16.2493 16.2424C16.2581 16.2496 16.2853 16.2721 16.2805 16.3153C16.2778 16.3377 16.266 16.3687 16.2202 16.3912C14.3882 17.3167 12.5508 18.2421 10.7108 19.163C10.0455 19.5005 9.37359 19.8378 8.70254 20.1749C8.48064 20.2865 8.39099 20.557 8.50215 20.7791C8.58125 20.9364 8.73988 21.0272 8.90467 21.0272C8.97281 21.0272 9.04178 21.0118 9.10638 20.9793C9.70239 20.6799 10.2969 20.3806 10.8873 20.0818L14.7248 22.546C15.3369 22.9391 16.0994 22.996 16.7638 22.6976L21.473 20.5733C22.9584 19.9502 24.1159 19.9724 25.1416 20.6583L26.0526 21.1758C26.0649 21.1826 26.1014 21.2035 26.1 21.2542C26.0996 21.2801 26.0886 21.3161 26.0451 21.3379Z" fill="url(#paint0_linear_1176_2812)"/>
<defs>
<linearGradient id="paint0_linear_1176_2812" x1="0.189696" y1="13.5" x2="27" y2="13.5" gradientUnits="userSpaceOnUse">
<stop stop-color="#3793AE"/>
<stop offset="1" stop-color="#074287"/>
</linearGradient>
</defs>
</svg>
