<svg width="14" height="12" viewBox="0 0 14 12" fill="none" xmlns="http://www.w3.org/2000/svg">
<path fill-rule="evenodd" clip-rule="evenodd" d="M11.3284 10.8608C12.618 9.56292 13.3267 7.83703 13.3267 5.99995C13.3267 4.16288 12.618 2.43698 11.3284 1.13906L11.309 1.11962C11.1283 0.938967 10.8393 0.938967 10.6586 1.11962C10.5669 1.20854 10.5225 1.32528 10.5225 1.44477C10.5225 1.56151 10.5669 1.68104 10.6586 1.76996C11.787 2.89831 12.4068 4.39911 12.4068 5.99995C12.4068 7.59802 11.787 9.10159 10.6586 10.23C10.478 10.4078 10.478 10.6997 10.6586 10.8803C10.8393 11.061 11.1283 11.061 11.309 10.8803L11.3284 10.8608ZM3.47704 1.44443C3.47704 1.56216 3.43211 1.67989 3.34224 1.76976C2.21436 2.89764 1.59313 4.39983 1.59313 5.99953C1.59313 7.59923 2.21436 9.10142 3.34224 10.2293C3.52198 10.409 3.52198 10.7002 3.34224 10.88C3.1625 11.0597 2.87131 11.0597 2.69157 10.88C1.3898 9.57841 0.672852 7.84502 0.672852 5.99953C0.672852 4.15403 1.3898 2.42065 2.69157 1.1191C2.87131 0.939358 3.1625 0.939358 3.34224 1.1191C3.43211 1.20897 3.47704 1.3267 3.47704 1.44443ZM4.77838 2.74575C4.77838 2.86348 4.73344 2.98121 4.64357 3.07108C3.02905 4.68606 3.02905 7.31298 4.64357 8.92796C4.82331 9.1077 4.82331 9.39888 4.64357 9.57862C4.46383 9.75836 4.17265 9.75836 3.99291 9.57862C2.01935 7.60506 2.01935 4.39398 3.99291 2.42042C4.17265 2.24067 4.46383 2.24067 4.64357 2.42042C4.73344 2.51029 4.77838 2.62802 4.77838 2.74575ZM5.94511 4.37263C6.03499 4.28276 6.07992 4.16503 6.07992 4.0473C6.07992 3.92957 6.03499 3.81183 5.94511 3.72196C5.76537 3.54222 5.47419 3.54222 5.29445 3.72196C4.03851 4.97791 4.03851 7.02112 5.29445 8.27706C5.47419 8.4568 5.76537 8.4568 5.94511 8.27706C6.12486 8.09732 6.12486 7.80614 5.94511 7.6264C5.0482 6.72949 5.0482 5.26954 5.94511 4.37263ZM7.00028 6.9196C7.5085 6.9196 7.92049 6.5076 7.92049 5.99939C7.92049 5.49117 7.5085 5.07918 7.00028 5.07918C6.49207 5.07918 6.08008 5.49117 6.08008 5.99939C6.08008 6.5076 6.49207 6.9196 7.00028 6.9196ZM9.22201 2.74578C9.22201 2.86351 9.26694 2.98124 9.35681 3.07111C10.9713 4.68609 10.9713 7.31301 9.35681 8.92799C9.17707 9.10773 9.17707 9.39891 9.35681 9.57865C9.53655 9.7584 9.82773 9.7584 10.0075 9.57865C11.981 7.60509 11.981 4.39401 10.0075 2.42045C9.82773 2.24071 9.53655 2.24071 9.35681 2.42045C9.26694 2.51032 9.22201 2.62805 9.22201 2.74578ZM8.05538 4.37263C7.96551 4.28276 7.92057 4.16503 7.92057 4.0473C7.92057 3.92957 7.96551 3.81183 8.05538 3.72196C8.23512 3.54222 8.5263 3.54222 8.70604 3.72196C9.96199 4.97791 9.96199 7.02112 8.70604 8.27706C8.5263 8.4568 8.23512 8.4568 8.05538 8.27706C7.87564 8.09732 7.87564 7.80614 8.05538 7.6264C8.95229 6.72949 8.95229 5.26954 8.05538 4.37263Z" fill="url(#paint0_linear_133_1698)"/>
<defs>
<linearGradient id="paint0_linear_133_1698" x1="0.761755" y1="5.99996" x2="13.3267" y2="5.99996" gradientUnits="userSpaceOnUse">
<stop stop-color="#3793AE"/>
<stop offset="1" stop-color="#074287"/>
</linearGradient>
</defs>
</svg>
