<svg width="16" height="16" viewBox="0 0 16 16" fill="none" xmlns="http://www.w3.org/2000/svg">
<path d="M3.87457 7.33727C3.63426 7.57758 3.63426 7.96867 3.87457 8.21134C4.11488 8.45165 4.50597 8.45165 4.74864 8.21134C6.41197 6.54801 9.11899 6.54801 10.7823 8.21134C10.9025 8.33149 11.0603 8.39275 11.2182 8.39275C11.376 8.39275 11.5339 8.33149 11.654 8.21134C11.8943 7.97103 11.8943 7.57993 11.654 7.33727C9.51009 5.19096 6.01852 5.19096 3.87457 7.33727Z" fill="url(#paint0_linear_109_702)"/>
<path d="M5.54254 9.00545C5.30223 9.24576 5.30223 9.63686 5.54254 9.87953C5.78285 10.1198 6.17394 10.1198 6.41661 9.87953C7.15874 9.13503 8.36972 9.13503 9.11186 9.87953C9.23201 9.99968 9.38986 10.0609 9.54771 10.0609C9.70556 10.0609 9.86342 9.99968 9.98357 9.87953C10.2239 9.63921 10.2239 9.24812 9.98357 9.00781C8.76081 7.78034 6.76765 7.78034 5.54254 9.00545Z" fill="url(#paint1_linear_109_702)"/>
<path d="M7.76365 12.0468C8.21776 12.0468 8.58588 11.6787 8.58588 11.2246C8.58588 10.7705 8.21776 10.4023 7.76365 10.4023C7.30954 10.4023 6.94141 10.7705 6.94141 11.2246C6.94141 11.6787 7.30954 12.0468 7.76365 12.0468Z" fill="url(#paint2_linear_109_702)"/>
<path d="M13.3476 5.64094C10.2683 2.56402 5.25951 2.56402 2.18023 5.64094C1.93992 5.88125 1.93992 6.27234 2.18023 6.51501C2.42054 6.75532 2.81164 6.75532 3.0543 6.51501C5.6506 3.91636 9.87724 3.91636 12.4759 6.51501C12.596 6.63517 12.7539 6.69642 12.9117 6.69642C13.0696 6.69642 13.2274 6.63517 13.3476 6.51501C13.5879 6.2747 13.5879 5.88361 13.3476 5.64094Z" fill="url(#paint3_linear_109_702)"/>
<defs>
<linearGradient id="paint0_linear_109_702" x1="3.75153" y1="7.06014" x2="11.8343" y2="7.06014" gradientUnits="userSpaceOnUse">
<stop stop-color="#3793AE"/>
<stop offset="1" stop-color="#074287"/>
</linearGradient>
<linearGradient id="paint1_linear_109_702" x1="5.39604" y1="9.07392" x2="10.1638" y2="9.07392" gradientUnits="userSpaceOnUse">
<stop stop-color="#3793AE"/>
<stop offset="1" stop-color="#074287"/>
</linearGradient>
<linearGradient id="paint2_linear_109_702" x1="6.95296" y1="11.2246" x2="8.58588" y2="11.2246" gradientUnits="userSpaceOnUse">
<stop stop-color="#3793AE"/>
<stop offset="1" stop-color="#074287"/>
</linearGradient>
<linearGradient id="paint3_linear_109_702" x1="2.08099" y1="5.01484" x2="13.5278" y2="5.01484" gradientUnits="userSpaceOnUse">
<stop stop-color="#3793AE"/>
<stop offset="1" stop-color="#074287"/>
</linearGradient>
</defs>
</svg>
