<svg width="20" height="20" viewBox="0 0 20 20" fill="none" xmlns="http://www.w3.org/2000/svg">
<g clip-path="url(#clip0_1050_4775)">
<path d="M10.0013 3.33325C10.7138 3.33325 11.4446 3.35159 12.153 3.38159L12.9896 3.42159L13.7905 3.46909L14.5405 3.51992L15.2255 3.57325C15.9688 3.63015 16.6683 3.94737 17.2009 4.46912C17.7335 4.99086 18.065 5.6837 18.1371 6.42575L18.1705 6.77992L18.233 7.53825C18.2913 8.32409 18.3346 9.18075 18.3346 9.99992C18.3346 10.8191 18.2913 11.6758 18.233 12.4616L18.1705 13.2199C18.1596 13.3416 18.1488 13.4591 18.1371 13.5741C18.065 14.3163 17.7333 15.0092 17.2006 15.531C16.6679 16.0527 15.9682 16.3699 15.2246 16.4266L14.5413 16.4791L13.7913 16.5308L12.9896 16.5783L12.153 16.6183C11.4362 16.6494 10.7188 16.6655 10.0013 16.6666C9.28382 16.6655 8.56644 16.6494 7.84964 16.6183L7.01297 16.5783L6.21214 16.5308L5.46214 16.4791L4.77714 16.4266C4.03376 16.3697 3.33426 16.0525 2.8017 15.5307C2.26913 15.009 1.93761 14.3161 1.86547 13.5741L1.83214 13.2199L1.76964 12.4616C1.70592 11.6425 1.67201 10.8214 1.66797 9.99992C1.66797 9.18075 1.7113 8.32409 1.76964 7.53825L1.83214 6.77992C1.84297 6.65825 1.8538 6.54075 1.86547 6.42575C1.93759 5.68383 2.26898 4.9911 2.80138 4.46937C3.33377 3.94764 4.03308 3.63034 4.7763 3.57325L5.46047 3.51992L6.21047 3.46909L7.01214 3.42159L7.8488 3.38159C8.56589 3.35045 9.28354 3.33433 10.0013 3.33325ZM10.0013 4.99992C9.3138 4.99992 8.6063 5.01825 7.91797 5.04659L7.10297 5.08575L6.32047 5.13159L5.58547 5.18159L4.91214 5.23409C4.55824 5.25919 4.22467 5.40879 3.97055 5.65636C3.71642 5.90392 3.55815 6.23347 3.5238 6.58659C3.4263 7.59409 3.33464 8.84825 3.33464 9.99992C3.33464 11.1516 3.4263 12.4058 3.5238 13.4133C3.59464 14.1399 4.1713 14.7049 4.91214 14.7658L5.58547 14.8174L6.32047 14.8674L7.10297 14.9141L7.91797 14.9533C8.6063 14.9816 9.3138 14.9999 10.0013 14.9999C10.6888 14.9999 11.3963 14.9816 12.0846 14.9533L12.8996 14.9141L13.6821 14.8683L14.4171 14.8183L15.0905 14.7658C15.4444 14.7406 15.7779 14.591 16.0321 14.3435C16.2862 14.0959 16.4445 13.7664 16.4788 13.4133C16.5763 12.4058 16.668 11.1516 16.668 9.99992C16.668 8.84825 16.5763 7.59409 16.4788 6.58659C16.4445 6.23347 16.2862 5.90392 16.0321 5.65636C15.7779 5.40879 15.4444 5.25919 15.0905 5.23409L14.4171 5.18242L13.6821 5.13242L12.8996 5.08575L12.0846 5.04659C11.3906 5.01672 10.696 5.00117 10.0013 4.99992ZM8.33464 7.97909C8.33458 7.89764 8.35443 7.81741 8.39244 7.74538C8.43046 7.67335 8.48549 7.6117 8.55276 7.56578C8.62003 7.51987 8.6975 7.49108 8.77843 7.48193C8.85937 7.47277 8.94131 7.48352 9.01714 7.51325L9.08463 7.54659L12.5846 9.56659C12.6543 9.6068 12.7133 9.66324 12.7565 9.73112C12.7997 9.79899 12.8259 9.87629 12.8329 9.95646C12.8398 10.0366 12.8273 10.1173 12.7964 10.1916C12.7656 10.2659 12.7172 10.3316 12.6555 10.3833L12.5846 10.4333L9.08463 12.4541C9.0141 12.4949 8.93466 12.5179 8.85321 12.521C8.77177 12.5242 8.6908 12.5073 8.61735 12.472C8.5439 12.4367 8.4802 12.3839 8.4318 12.3183C8.38339 12.2528 8.35176 12.1764 8.33963 12.0958L8.33464 12.0208V7.97909Z" fill="#606060"/>
<path d="M10.0013 3.33325C10.7138 3.33325 11.4446 3.35159 12.153 3.38159L12.9896 3.42159L13.7905 3.46909L14.5405 3.51992L15.2255 3.57325C15.9688 3.63015 16.6683 3.94737 17.2009 4.46912C17.7335 4.99086 18.065 5.6837 18.1371 6.42575L18.1705 6.77992L18.233 7.53825C18.2913 8.32409 18.3346 9.18075 18.3346 9.99992C18.3346 10.8191 18.2913 11.6758 18.233 12.4616L18.1705 13.2199C18.1596 13.3416 18.1488 13.4591 18.1371 13.5741C18.065 14.3163 17.7333 15.0092 17.2006 15.531C16.6679 16.0527 15.9682 16.3699 15.2246 16.4266L14.5413 16.4791L13.7913 16.5308L12.9896 16.5783L12.153 16.6183C11.4362 16.6494 10.7188 16.6655 10.0013 16.6666C9.28382 16.6655 8.56644 16.6494 7.84964 16.6183L7.01297 16.5783L6.21214 16.5308L5.46214 16.4791L4.77714 16.4266C4.03376 16.3697 3.33426 16.0525 2.8017 15.5307C2.26913 15.009 1.93761 14.3161 1.86547 13.5741L1.83214 13.2199L1.76964 12.4616C1.70592 11.6425 1.67201 10.8214 1.66797 9.99992C1.66797 9.18075 1.7113 8.32409 1.76964 7.53825L1.83214 6.77992C1.84297 6.65825 1.8538 6.54075 1.86547 6.42575C1.93759 5.68383 2.26898 4.9911 2.80138 4.46937C3.33377 3.94764 4.03308 3.63034 4.7763 3.57325L5.46047 3.51992L6.21047 3.46909L7.01214 3.42159L7.8488 3.38159C8.56589 3.35045 9.28354 3.33433 10.0013 3.33325ZM10.0013 4.99992C9.3138 4.99992 8.6063 5.01825 7.91797 5.04659L7.10297 5.08575L6.32047 5.13159L5.58547 5.18159L4.91214 5.23409C4.55824 5.25919 4.22467 5.40879 3.97055 5.65636C3.71642 5.90392 3.55815 6.23347 3.5238 6.58659C3.4263 7.59409 3.33464 8.84825 3.33464 9.99992C3.33464 11.1516 3.4263 12.4058 3.5238 13.4133C3.59464 14.1399 4.1713 14.7049 4.91214 14.7658L5.58547 14.8174L6.32047 14.8674L7.10297 14.9141L7.91797 14.9533C8.6063 14.9816 9.3138 14.9999 10.0013 14.9999C10.6888 14.9999 11.3963 14.9816 12.0846 14.9533L12.8996 14.9141L13.6821 14.8683L14.4171 14.8183L15.0905 14.7658C15.4444 14.7406 15.7779 14.591 16.0321 14.3435C16.2862 14.0959 16.4445 13.7664 16.4788 13.4133C16.5763 12.4058 16.668 11.1516 16.668 9.99992C16.668 8.84825 16.5763 7.59409 16.4788 6.58659C16.4445 6.23347 16.2862 5.90392 16.0321 5.65636C15.7779 5.40879 15.4444 5.25919 15.0905 5.23409L14.4171 5.18242L13.6821 5.13242L12.8996 5.08575L12.0846 5.04659C11.3906 5.01672 10.696 5.00117 10.0013 4.99992ZM8.33464 7.97909C8.33458 7.89764 8.35443 7.81741 8.39244 7.74538C8.43046 7.67335 8.48549 7.6117 8.55276 7.56578C8.62003 7.51987 8.6975 7.49108 8.77843 7.48193C8.85937 7.47277 8.94131 7.48352 9.01714 7.51325L9.08463 7.54659L12.5846 9.56659C12.6543 9.6068 12.7133 9.66324 12.7565 9.73112C12.7997 9.79899 12.8259 9.87629 12.8329 9.95646C12.8398 10.0366 12.8273 10.1173 12.7964 10.1916C12.7656 10.2659 12.7172 10.3316 12.6555 10.3833L12.5846 10.4333L9.08463 12.4541C9.0141 12.4949 8.93466 12.5179 8.85321 12.521C8.77177 12.5242 8.6908 12.5073 8.61735 12.472C8.5439 12.4367 8.4802 12.3839 8.4318 12.3183C8.38339 12.2528 8.35176 12.1764 8.33963 12.0958L8.33464 12.0208V7.97909Z" fill="#0E344A"/>
</g>
<defs>
<clipPath id="clip0_1050_4775">
<rect width="20" height="20" fill="white"/>
</clipPath>
</defs>
</svg>
