<svg width="480" height="472" viewBox="0 0 480 472" fill="none" xmlns="http://www.w3.org/2000/svg">
<path d="M15.1932 209.83C15.1894 210.727 14.9527 211.494 14.483 212.131C14.0133 212.767 13.3295 213.254 12.4318 213.591C11.5341 213.928 10.4527 214.097 9.1875 214.097C7.92614 214.097 6.84848 213.928 5.95454 213.591C5.06061 213.25 4.37879 212.761 3.90909 212.125C3.43939 211.485 3.20454 210.72 3.20454 209.83C3.20454 208.939 3.44129 208.176 3.91477 207.54C4.38447 206.903 5.06629 206.417 5.96023 206.08C6.85038 205.739 7.92614 205.568 9.1875 205.568C10.4564 205.568 11.5398 205.737 12.4375 206.074C13.3314 206.411 14.0152 206.898 14.4886 207.534C14.9583 208.17 15.1932 208.936 15.1932 209.83ZM13.6761 209.83C13.6761 209.042 13.2917 208.426 12.5227 207.983C11.7538 207.536 10.642 207.312 9.1875 207.312C8.22159 207.312 7.4053 207.415 6.73864 207.619C6.06818 207.82 5.56061 208.11 5.21591 208.489C4.86742 208.864 4.69318 209.311 4.69318 209.83C4.69318 210.614 5.07954 211.229 5.85227 211.676C6.625 212.123 7.73674 212.348 9.1875 212.352C10.1572 212.352 10.9773 212.252 11.6477 212.051C12.3144 211.847 12.8201 211.557 13.1648 211.182C13.5057 210.807 13.6761 210.356 13.6761 209.83ZM15.1932 200.461C15.1894 201.359 14.9527 202.126 14.483 202.763C14.0133 203.399 13.3295 203.886 12.4318 204.223C11.5341 204.56 10.4527 204.728 9.1875 204.728C7.92614 204.728 6.84848 204.56 5.95454 204.223C5.06061 203.882 4.37879 203.393 3.90909 202.757C3.43939 202.117 3.20454 201.352 3.20454 200.461C3.20454 199.571 3.44129 198.808 3.91477 198.172C4.38447 197.535 5.06629 197.049 5.96023 196.711C6.85038 196.371 7.92614 196.2 9.1875 196.2C10.4564 196.2 11.5398 196.369 12.4375 196.706C13.3314 197.043 14.0152 197.53 14.4886 198.166C14.9583 198.802 15.1932 199.567 15.1932 200.461ZM13.6761 200.461C13.6761 199.674 13.2917 199.058 12.5227 198.615C11.7538 198.168 10.642 197.944 9.1875 197.944C8.22159 197.944 7.4053 198.047 6.73864 198.251C6.06818 198.452 5.5606 198.742 5.21591 199.121C4.86742 199.496 4.69318 199.942 4.69318 200.461C4.69318 201.246 5.07954 201.861 5.85227 202.308C6.625 202.755 7.73674 202.98 9.1875 202.984C10.1572 202.984 10.9773 202.884 11.6477 202.683C12.3144 202.478 12.8201 202.189 13.1648 201.814C13.5057 201.439 13.6761 200.988 13.6761 200.461ZM15.1761 188.171C15.1761 189.016 14.9848 189.743 14.6023 190.353C14.2159 190.959 13.6837 191.425 13.0057 191.751C12.3277 192.076 11.5511 192.239 10.6761 192.239C9.78977 192.239 9.00757 192.073 8.32954 191.739C7.64773 191.406 7.11553 190.936 6.73295 190.33C6.35038 189.724 6.15909 189.01 6.15909 188.188C6.15909 187.525 6.2822 186.934 6.52841 186.416C6.77083 185.897 7.11174 185.478 7.55113 185.16C7.99053 184.838 8.50379 184.647 9.09091 184.586L9.09091 186.239C8.68182 186.33 8.32954 186.539 8.03409 186.864C7.73863 187.186 7.59091 187.618 7.59091 188.16C7.59091 188.633 7.71591 189.048 7.96591 189.404C8.21212 189.756 8.56439 190.031 9.02273 190.228C9.47727 190.425 10.0152 190.523 10.6364 190.523C11.2727 190.523 11.822 190.427 12.2841 190.234C12.7462 190.041 13.1042 189.768 13.358 189.416C13.6117 189.059 13.7386 188.641 13.7386 188.16C13.7386 187.838 13.6799 187.546 13.5625 187.285C13.4413 187.02 13.2689 186.798 13.0455 186.62C12.822 186.438 12.553 186.311 12.2386 186.239L12.2386 184.586C12.803 184.647 13.3068 184.83 13.75 185.137C14.1932 185.444 14.5417 185.855 14.7955 186.37C15.0492 186.881 15.1761 187.482 15.1761 188.171ZM12.8977 178.831L6.27273 176.013L6.27273 174.547L15 178.201L15 179.462L6.27273 183.042L6.27273 181.593L12.8977 178.831ZM6.27273 182.064L15 182.064L15 183.729L6.27273 183.729L6.27273 182.064ZM15 175.553L6.27273 175.553L6.27273 173.9L15 173.9L15 175.553Z" fill="#22677C"/>
<path d="M265.17 468.193C264.273 468.189 263.506 467.953 262.869 467.483C262.233 467.013 261.746 466.33 261.409 465.432C261.072 464.534 260.903 463.453 260.903 462.188C260.903 460.926 261.072 459.848 261.409 458.955C261.75 458.061 262.239 457.379 262.875 456.909C263.515 456.439 264.28 456.205 265.17 456.205C266.061 456.205 266.824 456.441 267.46 456.915C268.097 457.384 268.583 458.066 268.92 458.96C269.261 459.85 269.432 460.926 269.432 462.188C269.432 463.456 269.263 464.54 268.926 465.438C268.589 466.331 268.102 467.015 267.466 467.489C266.83 467.958 266.064 468.193 265.17 468.193ZM265.17 466.676C265.958 466.676 266.574 466.292 267.017 465.523C267.464 464.754 267.688 463.642 267.688 462.188C267.688 461.222 267.585 460.405 267.381 459.739C267.18 459.068 266.89 458.561 266.511 458.216C266.136 457.867 265.689 457.693 265.17 457.693C264.386 457.693 263.771 458.08 263.324 458.852C262.877 459.625 262.652 460.737 262.648 462.188C262.648 463.157 262.748 463.977 262.949 464.648C263.153 465.314 263.443 465.82 263.818 466.165C264.193 466.506 264.644 466.676 265.17 466.676ZM274.539 468.193C273.641 468.189 272.874 467.953 272.237 467.483C271.601 467.013 271.114 466.33 270.777 465.432C270.44 464.534 270.272 463.453 270.272 462.188C270.272 460.926 270.44 459.848 270.777 458.955C271.118 458.061 271.607 457.379 272.243 456.909C272.883 456.439 273.648 456.205 274.539 456.205C275.429 456.205 276.192 456.441 276.828 456.915C277.465 457.384 277.951 458.066 278.289 458.96C278.629 459.85 278.8 460.926 278.8 462.188C278.8 463.456 278.631 464.54 278.294 465.438C277.957 466.331 277.47 467.015 276.834 467.489C276.198 467.958 275.433 468.193 274.539 468.193ZM274.539 466.676C275.326 466.676 275.942 466.292 276.385 465.523C276.832 464.754 277.056 463.642 277.056 462.188C277.056 461.222 276.953 460.405 276.749 459.739C276.548 459.068 276.258 458.561 275.879 458.216C275.504 457.867 275.058 457.693 274.539 457.693C273.754 457.693 273.139 458.08 272.692 458.852C272.245 459.625 272.02 460.737 272.016 462.188C272.016 463.157 272.116 463.977 272.317 464.648C272.522 465.314 272.811 465.82 273.186 466.165C273.561 466.506 274.012 466.676 274.539 466.676ZM286.829 468.176C285.984 468.176 285.257 467.985 284.647 467.602C284.041 467.216 283.575 466.684 283.249 466.006C282.924 465.328 282.761 464.551 282.761 463.676C282.761 462.79 282.927 462.008 283.261 461.33C283.594 460.648 284.064 460.116 284.67 459.733C285.276 459.35 285.99 459.159 286.812 459.159C287.475 459.159 288.066 459.282 288.584 459.528C289.103 459.771 289.522 460.112 289.84 460.551C290.162 460.991 290.353 461.504 290.414 462.091H288.761C288.67 461.682 288.461 461.33 288.136 461.034C287.814 460.739 287.382 460.591 286.84 460.591C286.367 460.591 285.952 460.716 285.596 460.966C285.244 461.212 284.969 461.564 284.772 462.023C284.575 462.477 284.477 463.015 284.477 463.636C284.477 464.273 284.573 464.822 284.766 465.284C284.959 465.746 285.232 466.104 285.584 466.358C285.941 466.612 286.359 466.739 286.84 466.739C287.162 466.739 287.454 466.68 287.715 466.563C287.98 466.441 288.202 466.269 288.38 466.045C288.562 465.822 288.689 465.553 288.761 465.239H290.414C290.353 465.803 290.17 466.307 289.863 466.75C289.556 467.193 289.145 467.542 288.63 467.795C288.119 468.049 287.518 468.176 286.829 468.176ZM296.169 465.898L298.987 459.273H300.453L296.799 468H295.538L291.958 459.273H293.407L296.169 465.898ZM292.936 459.273V468H291.271V459.273H292.936ZM299.447 468V459.273H301.1V468H299.447Z" fill="#22677C"/>
<path d="M26.7598 2.64645C26.5645 2.45118 26.248 2.45118 26.0527 2.64645L22.8707 5.82843C22.6755 6.02369 22.6755 6.34027 22.8707 6.53553C23.066 6.7308 23.3826 6.7308 23.5778 6.53553L26.4062 3.70711L29.2347 6.53553C29.4299 6.7308 29.7465 6.7308 29.9418 6.53553C30.137 6.34027 30.137 6.02369 29.9418 5.82843L26.7598 2.64645ZM26.0527 384.978C26.248 385.173 26.5645 385.173 26.7598 384.978L29.9418 381.796C30.137 381.601 30.137 381.284 29.9418 381.089C29.7465 380.894 29.4299 380.894 29.2347 381.089L26.4062 383.917L23.5778 381.089C23.3826 380.894 23.066 380.894 22.8707 381.089C22.6755 381.284 22.6755 381.601 22.8707 381.796L26.0527 384.978ZM25.9062 3V384.625H26.9062V3H25.9062Z" fill="#22677C"/>
<path d="M478.354 446.494C478.549 446.298 478.549 445.982 478.354 445.787L475.172 442.605C474.976 442.409 474.66 442.409 474.464 442.605C474.269 442.8 474.269 443.116 474.464 443.312L477.293 446.14L474.464 448.969C474.269 449.164 474.269 449.48 474.464 449.676C474.66 449.871 474.976 449.871 475.172 449.676L478.354 446.494ZM84.5567 445.787C84.3615 445.982 84.3615 446.298 84.5567 446.494L87.7387 449.676C87.934 449.871 88.2506 449.871 88.4458 449.676C88.6411 449.48 88.6411 449.164 88.4458 448.969L85.6174 446.14L88.4458 443.312C88.6411 443.116 88.6411 442.8 88.4458 442.605C88.2506 442.409 87.934 442.409 87.7387 442.605L84.5567 445.787ZM478 445.64H84.9103V446.64H478V445.64Z" fill="#22677C"/>
<path d="M191.977 124.514C191.977 122.189 193.862 120.304 196.187 120.304H264.26C266.586 120.304 268.471 122.189 268.471 124.514V143.463H191.977V124.514Z" fill="white" fill-opacity="0.4" stroke="#22677C"/>
<path d="M273.375 124.514C273.375 122.189 275.26 120.304 277.586 120.304H298.639C300.965 120.304 302.85 122.189 302.85 124.514V143.463H273.375V124.514Z" fill="white" fill-opacity="0.4" stroke="#22677C"/>
<rect x="367.422" y="133.637" width="12.6321" height="9.825" fill="white" fill-opacity="0.4" stroke="#22677C"/>
<rect x="429.875" y="133.637" width="12.6321" height="9.825" fill="white" fill-opacity="0.4" stroke="#22677C"/>
<rect width="16.1411" height="14.7375" transform="matrix(1 0 0 -1 428.477 104.162)" fill="white" fill-opacity="0.4" stroke="#22677C"/>
<path d="M367 137.14H379.632" stroke="#22677C"/>
<path d="M367 140.14H379.632" stroke="#22677C"/>
<path d="M429.875 137.14H442.507" stroke="#22677C"/>
<path d="M429.875 140.14H442.507" stroke="#22677C"/>
<path d="M428.469 93.1401H444.961" stroke="#22677C"/>
<path d="M428.469 96.6973H444.961" stroke="#22677C"/>
<path d="M428.469 100.697H444.961" stroke="#22677C"/>
<path d="M273.375 126.269H302.85" stroke="#22677C"/>
<path d="M191.977 126.619L268.471 126.619" stroke="#22677C"/>
<path d="M193.781 57.8447H195.887" stroke="#22677C"/>
<path d="M198.289 57.8447H200.394" stroke="#22677C"/>
<path d="M193 75.1401H196" stroke="#22677C"/>
<path d="M200 75.6401H200.5V74.6401H200V75.6401ZM198 75.6401H200V74.6401H198V75.6401Z" fill="#22677C"/>
<path d="M197.298 57.1401H196.702C196.314 57.1401 196 57.4543 196 57.8419V75.4384C196 75.8259 196.314 76.1401 196.702 76.1401H197.298C197.686 76.1401 198 75.8259 198 75.4384V57.8419C198 57.4543 197.686 57.1401 197.298 57.1401Z" fill="white" fill-opacity="0.4" stroke="#22677C"/>
<path d="M201.807 57.1562L383.232 58.871C384.772 58.8856 386.013 60.138 386.013 61.678V71.8803C386.013 75.3686 383.185 78.1964 379.697 78.1964H366.441C365.511 78.1964 364.639 78.6454 364.098 79.402C363.54 80.1836 362.629 80.6353 361.669 80.6063L201.752 75.7812C200.994 75.7583 200.391 75.137 200.391 74.3783V58.5597C200.391 57.7794 201.027 57.1488 201.807 57.1562Z" fill="white" fill-opacity="0.4" stroke="#22677C"/>
<path d="M182.841 56.792H192.446C193.026 56.792 193.496 57.2622 193.496 57.8422V74.69C193.496 75.27 193.026 75.7402 192.446 75.7402H182.841C177.609 75.7402 173.367 71.4985 173.367 66.2661C173.367 61.0337 177.609 56.792 182.841 56.792Z" fill="white" fill-opacity="0.4" stroke="#22677C"/>
<path d="M86 168.025C86 154.459 96.997 143.462 110.563 143.462H454.438C468.003 143.462 479 154.459 479 168.025V375.753C479 381.567 474.287 386.28 468.473 386.28H96.5268C90.713 386.28 86 381.567 86 375.753V168.025Z" fill="white" fill-opacity="0.4" stroke="#22677C"/>
<path d="M171.617 139.953C171.617 139.566 171.931 139.252 172.319 139.252H181.442C181.83 139.252 182.144 139.566 182.144 139.953V143.462H171.617V139.953Z" fill="white" fill-opacity="0.4" stroke="#22677C"/>
<path d="M428.477 132.234C428.477 133.009 429.105 133.637 429.88 133.637H442.512C443.287 133.637 443.916 133.009 443.916 132.234V128.725H428.477V132.234Z" fill="white" fill-opacity="0.4" stroke="#22677C"/>
<rect x="427.07" y="114.689" width="18.9482" height="14.0357" rx="0.701786" fill="white" fill-opacity="0.4" stroke="#22677C"/>
<rect x="429.875" y="109.075" width="13.3339" height="5.61429" fill="white" fill-opacity="0.4" stroke="#22677C"/>
<rect width="20.3518" height="2.80714" rx="0.701786" transform="matrix(1 0 0 -1 426.367 109.075)" fill="white" fill-opacity="0.4" stroke="#22677C"/>
<path d="M427.07 104.864C427.07 104.477 427.385 104.162 427.772 104.162H445.317C445.704 104.162 446.019 104.477 446.019 104.864V106.268H427.07V104.864Z" fill="white" fill-opacity="0.4" stroke="#22677C"/>
<path d="M426.696 10.4667C426.906 5.17871 431.253 1 436.546 1C441.838 1 446.185 5.17872 446.395 10.4667L449.481 88.2246C449.507 88.8797 448.983 89.425 448.327 89.425H424.764C424.108 89.425 423.584 88.8797 423.61 88.2246L426.696 10.4667Z" fill="white" fill-opacity="0.4" stroke="#22677C"/>
<path d="M362.5 132.936C362.5 133.323 362.814 133.637 363.202 133.637H384.255C384.643 133.637 384.957 133.323 384.957 132.936V130.129H362.5V132.936Z" fill="white" fill-opacity="0.4" stroke="#22677C"/>
<rect width="19.65" height="4.9125" transform="matrix(1 0 0 -1 363.914 116.795)" fill="white" fill-opacity="0.4" stroke="#22677C"/>
<rect x="362.5" y="83.8105" width="22.4571" height="28.0714" rx="1.40357" fill="white" fill-opacity="0.4" stroke="#22677C"/>
<rect width="12.6321" height="5.61429" transform="matrix(1 0 0 -1 367.422 83.8105)" fill="white" fill-opacity="0.4" stroke="#22677C"/>
<rect x="361.805" y="116.795" width="23.8607" height="13.3339" rx="1.40357" fill="white" fill-opacity="0.4" stroke="#22677C"/>
<circle cx="374.088" cy="68.7222" r="3.15804" fill="white" fill-opacity="0.4" stroke="#22677C"/>
<rect x="184.25" y="353.296" width="196.5" height="13.3339" rx="6.66696" fill="white" fill-opacity="0.4" stroke="#22677C"/>
<circle cx="198.282" cy="136.444" r="3.50893" fill="white" fill-opacity="0.4" stroke="#22677C"/>
<circle cx="207.407" cy="136.444" r="3.50893" fill="white" fill-opacity="0.4" stroke="#22677C"/>
<circle cx="216.532" cy="136.444" r="3.50893" fill="white" fill-opacity="0.4" stroke="#22677C"/>
<circle cx="225.65" cy="136.444" r="3.50893" fill="white" fill-opacity="0.4" stroke="#22677C"/>
<circle cx="234.775" cy="136.444" r="3.50893" fill="white" fill-opacity="0.4" stroke="#22677C"/>
<circle cx="243.9" cy="136.444" r="3.50893" fill="white" fill-opacity="0.4" stroke="#22677C"/>
<circle cx="278.993" cy="136.444" r="3.50893" fill="white" fill-opacity="0.4" stroke="#22677C"/>
<circle cx="253.025" cy="136.444" r="3.50893" fill="white" fill-opacity="0.4" stroke="#22677C"/>
<circle cx="288.118" cy="136.444" r="3.50893" fill="white" fill-opacity="0.4" stroke="#22677C"/>
<circle cx="262.15" cy="136.444" r="3.50893" fill="white" fill-opacity="0.4" stroke="#22677C"/>
<circle cx="297.243" cy="136.444" r="3.50893" fill="white" fill-opacity="0.4" stroke="#22677C"/>
</svg>
