<svg width="42" height="42" viewBox="0 0 42 42" fill="none" xmlns="http://www.w3.org/2000/svg">
<g clip-path="url(#clip0_351_1018)">
<path d="M41.6153 39.7458L28.8623 26.9148C31.2393 24.068 32.6719 20.4054 32.6719 16.4062C32.6719 7.34541 25.3265 0 16.2656 0C7.20478 0 -0.140625 7.34541 -0.140625 16.4062C-0.140625 25.4671 7.20478 32.8125 16.2656 32.8125C20.3823 32.8125 24.1426 31.2926 27.0235 28.7871L39.7587 41.6023C40.2712 42.1149 41.1028 42.1149 41.6153 41.6023C42.1272 41.0898 42.1272 40.259 41.6153 39.7458H41.6153ZM16.2656 30.2092C8.64262 30.2092 2.46272 24.0292 2.46272 16.4062C2.46272 8.78325 8.64262 2.60334 16.2656 2.60334C23.8886 2.60334 30.0685 8.78325 30.0685 16.4062C30.0685 24.0292 23.8886 30.2092 16.2656 30.2092Z" fill="#747474"/>
</g>
<defs>
<clipPath id="clip0_351_1018">
<rect width="42" height="42" fill="white"/>
</clipPath>
</defs>
</svg>
