<svg width="577" height="125" viewBox="0 0 577 125" fill="none" xmlns="http://www.w3.org/2000/svg">
<path d="M536.336 61.4687C534.273 61.4915 532.217 61.224 530.229 60.674L536.203 47.4279L542.177 60.674C540.282 61.2339 538.312 61.5019 536.336 61.4687ZM557.577 71.5357L543.637 41.2022C542.044 37.8907 539.92 36.4336 536.734 36.4336H536.203C532.884 36.4336 530.76 37.8907 529.167 41.2022L515.228 71.5357C513.9 74.5823 514.829 77.2316 517.617 78.2912C518.198 78.5663 518.829 78.7192 519.472 78.7404C520.114 78.7617 520.754 78.6508 521.352 78.4148C521.949 78.1787 522.492 77.8225 522.946 77.3683C523.4 76.9141 523.755 76.3716 523.99 75.7745L527.176 69.1514C530.27 70.1173 533.492 70.6086 536.734 70.6085C539.849 70.6526 542.948 70.1597 545.894 69.1514L548.948 75.7745C549.182 76.3716 549.538 76.9141 549.992 77.3683C550.445 77.8225 550.988 78.1787 551.586 78.4148C552.183 78.6508 552.823 78.7617 553.466 78.7404C554.108 78.7192 554.739 78.5663 555.32 78.2912C555.914 77.997 556.444 77.5885 556.879 77.0892C557.315 76.5899 557.647 76.0097 557.857 75.3818C558.066 74.754 558.15 74.091 558.102 73.4309C558.054 72.7709 557.875 72.1268 557.577 71.5357ZM505.935 69.019H484.561L505.669 50.0771C508.723 47.4279 509.918 45.1761 509.918 42.3944V41.997C509.918 38.553 507.793 36.4336 503.944 36.4336H476.981C476.309 36.3994 475.638 36.5062 475.01 36.747C474.383 36.9879 473.813 37.3574 473.337 37.8318C472.862 38.3063 472.492 38.8749 472.25 39.5011C472.009 40.1273 471.902 40.7971 471.936 41.4672C471.908 42.1237 472.022 42.7785 472.27 43.3875C472.517 43.9965 472.892 44.5454 473.37 44.9973C473.849 45.4493 474.418 45.7937 475.041 46.0073C475.664 46.2209 476.325 46.2988 476.981 46.2357H496.761L476.317 64.6478C472.334 68.2242 471.405 70.3436 471.405 72.9928V73.5227C471.405 76.9666 473.662 79.086 477.246 79.086H505.789C506.45 79.123 507.111 79.0226 507.731 78.7911C508.351 78.5597 508.916 78.2022 509.39 77.7415C509.865 77.2807 510.238 76.7266 510.486 76.1144C510.735 75.5022 510.853 74.8452 510.834 74.185C510.93 73.507 510.872 72.816 510.664 72.1636C510.455 71.5112 510.101 70.9142 509.629 70.4174C509.157 69.9206 508.578 69.5368 507.936 69.2946C507.294 69.0525 506.605 68.9582 505.922 69.019M461.183 69.019H439.809L460.917 50.0771C463.971 47.4279 465.166 45.1761 465.166 42.3944V41.997C465.166 38.553 463.041 36.4336 459.192 36.4336H432.242C431.571 36.3994 430.899 36.5062 430.272 36.747C429.644 36.9879 429.074 37.3574 428.599 37.8318C428.123 38.3063 427.753 38.8749 427.511 39.5011C427.27 40.1273 427.163 40.7971 427.197 41.4672C427.17 42.1237 427.283 42.7785 427.531 43.3875C427.778 43.9965 428.154 44.5454 428.632 44.9973C429.11 45.4493 429.68 45.7937 430.302 46.0073C430.925 46.2209 431.587 46.2988 432.242 46.2357H452.023L431.578 64.6478C427.596 68.2242 426.666 70.3436 426.666 72.9928V73.5227C426.666 76.9666 428.923 79.086 432.508 79.086H461.05C461.711 79.123 462.372 79.0226 462.992 78.7911C463.612 78.5597 464.177 78.2022 464.652 77.7415C465.126 77.2807 465.499 76.7266 465.748 76.1144C465.996 75.5022 466.114 74.8452 466.095 74.185C466.36 71.0059 464.502 69.019 461.183 69.019ZM412.993 35.9038C412.294 35.8566 411.594 35.9569 410.937 36.198C410.28 36.4391 409.682 36.8157 409.181 37.3032C408.68 37.7906 408.287 38.378 408.029 39.0271C407.771 39.6761 407.653 40.3721 407.682 41.0698V73.92C407.665 74.6145 407.792 75.305 408.054 75.9484C408.316 76.5918 408.709 77.1741 409.208 77.6591C409.706 78.144 410.3 78.521 410.951 78.7666C411.602 79.0121 412.297 79.1209 412.993 79.086C413.691 79.1332 414.391 79.0329 415.048 78.7918C415.705 78.5507 416.303 78.1741 416.804 77.6866C417.305 77.1992 417.698 76.6118 417.956 75.9628C418.214 75.3137 418.332 74.6177 418.303 73.92V41.0698C418.299 40.3811 418.159 39.7 417.889 39.0661C417.619 38.4322 417.226 37.8581 416.732 37.3774C416.238 36.8966 415.652 36.5188 415.011 36.2658C414.369 36.0128 413.683 35.8897 412.993 35.9038ZM384.716 56.7001H372.768V45.9708H384.716C385.422 45.9562 386.124 46.0887 386.777 46.36C387.429 46.6313 388.018 47.0354 388.505 47.5464C388.992 48.0575 389.368 48.6643 389.606 49.3281C389.845 49.9919 389.943 50.6981 389.893 51.4017C389.94 52.0984 389.84 52.7972 389.598 53.4525C389.357 54.1079 388.979 54.705 388.491 55.205C388.002 55.7049 387.413 56.0965 386.763 56.3541C386.112 56.6118 385.415 56.7297 384.716 56.7001ZM384.716 36.3012H367.59C366.919 36.267 366.247 36.3737 365.62 36.6146C364.992 36.8554 364.422 37.225 363.947 37.6994C363.471 38.1738 363.101 38.7425 362.859 39.3687C362.618 39.9949 362.511 40.6647 362.545 41.3347V74.0525C362.526 74.7301 362.648 75.4043 362.903 76.0326C363.158 76.6608 363.541 77.2294 364.027 77.7025C364.514 78.1756 365.094 78.5428 365.73 78.7809C366.366 79.019 367.044 79.1229 367.723 79.086C368.394 79.1202 369.066 79.0135 369.693 78.7726C370.321 78.5318 370.891 78.1622 371.366 77.6878C371.842 77.2134 372.212 76.6447 372.453 76.0185C372.695 75.3923 372.802 74.7225 372.768 74.0525V66.3698H384.716C394.008 66.3698 399.85 59.8792 399.85 51.2692C399.85 42.6593 393.889 36.3012 384.729 36.3012M321.006 69.4164C314.236 69.4164 309.456 64.3829 309.456 57.4949C309.456 54.4385 310.673 51.5073 312.839 49.3461C315.005 47.185 317.943 45.9708 321.006 45.9708C324.069 45.9708 327.007 47.185 329.173 49.3461C331.339 51.5073 332.556 54.4385 332.556 57.4949C332.556 64.3829 328.042 69.4164 321.006 69.4164ZM321.006 35.9038C318.139 35.8317 315.286 36.3399 312.621 37.3978C309.955 38.4556 307.532 40.0412 305.498 42.0588C303.463 44.0765 301.859 46.4844 300.783 49.1373C299.706 51.7903 299.179 54.6333 299.234 57.4949C299.252 63.2564 301.562 68.7748 305.658 72.8364C309.753 76.8979 315.298 79.1698 321.072 79.1522C326.847 79.1347 332.378 76.8291 336.448 72.7427C340.519 68.6563 342.796 63.1239 342.778 57.3624C342.778 45.0436 333.352 35.9038 321.006 35.9038ZM271.754 68.8865H262.992V46.1033H271.754C278.79 46.1033 283.569 50.342 283.569 57.3624C283.569 64.3829 278.923 68.8865 271.754 68.8865ZM271.754 36.3012H257.814C257.122 36.2954 256.435 36.4296 255.795 36.6955C255.156 36.9614 254.577 37.3537 254.093 37.8486C253.609 38.3436 253.231 38.931 252.981 39.5756C252.731 40.2203 252.614 40.9087 252.637 41.5996V73.6551C252.618 74.3327 252.739 75.0069 252.994 75.6352C253.249 76.2634 253.632 76.8321 254.119 77.3051C254.606 77.7782 255.185 78.1454 255.821 78.3835C256.457 78.6216 257.136 78.7255 257.814 78.6886H271.754C284.233 78.6886 293.658 70.0787 293.658 57.3624C293.658 44.6462 284.233 36.3012 271.754 36.3012ZM224.094 69.4164C217.324 69.4164 212.545 64.3829 212.545 57.4949C212.545 54.4385 213.762 51.5073 215.928 49.3461C218.094 47.185 221.031 45.9708 224.094 45.9708C227.158 45.9708 230.095 47.185 232.261 49.3461C234.427 51.5073 235.644 54.4385 235.644 57.4949C235.644 64.3829 231.13 69.4164 224.094 69.4164ZM224.094 35.9038C221.227 35.8317 218.374 36.3399 215.709 37.3978C213.044 38.4556 210.62 40.0412 208.586 42.0588C206.551 44.0765 204.948 46.4844 203.871 49.1373C202.795 51.7903 202.268 54.6333 202.322 57.4949C202.34 63.2564 204.651 68.7748 208.746 72.8364C212.842 76.8979 218.387 79.1698 224.161 79.1522C229.935 79.1347 235.466 76.8291 239.536 72.7427C243.607 68.6563 245.884 63.1239 245.866 57.3624C245.866 45.0436 236.441 35.9038 224.094 35.9038ZM174.975 68.8865H166.213V46.1033H174.975C182.011 46.1033 186.79 50.342 186.79 57.3624C186.79 64.3829 182.011 68.8865 174.975 68.8865ZM174.975 36.3012H161.022C160.329 36.2954 159.643 36.4296 159.003 36.6955C158.364 36.9614 157.785 37.3537 157.301 37.8486C156.817 38.3436 156.439 38.931 156.189 39.5756C155.938 40.2203 155.821 40.9087 155.845 41.5996V73.6551C155.825 74.3327 155.947 75.0069 156.202 75.6352C156.457 76.2634 156.84 76.8321 157.327 77.3051C157.813 77.7782 158.393 78.1454 159.029 78.3835C159.665 78.6216 160.344 78.7255 161.022 78.6886H174.962C187.441 78.6886 196.866 70.0787 196.866 57.3624C196.866 44.6462 187.321 36.3012 174.975 36.3012Z" fill="url(#paint0_linear_241_718)"/>
<path d="M536.336 61.4687C534.273 61.4915 532.217 61.224 530.229 60.674L536.203 47.4279L542.177 60.674C540.282 61.2339 538.312 61.5019 536.336 61.4687ZM557.577 71.5357L543.637 41.2022C542.044 37.8907 539.92 36.4336 536.734 36.4336H536.203C532.884 36.4336 530.76 37.8907 529.167 41.2022L515.228 71.5357C513.9 74.5823 514.829 77.2316 517.617 78.2912C518.198 78.5663 518.829 78.7192 519.472 78.7404C520.114 78.7617 520.754 78.6508 521.352 78.4148C521.949 78.1787 522.492 77.8225 522.946 77.3683C523.4 76.9141 523.755 76.3716 523.99 75.7745L527.176 69.1514C530.27 70.1173 533.492 70.6086 536.734 70.6085C539.849 70.6526 542.948 70.1597 545.894 69.1514L548.948 75.7745C549.182 76.3716 549.538 76.9141 549.992 77.3683C550.445 77.8225 550.988 78.1787 551.586 78.4148C552.183 78.6508 552.823 78.7617 553.466 78.7404C554.108 78.7192 554.739 78.5663 555.32 78.2912C555.914 77.997 556.444 77.5885 556.879 77.0892C557.315 76.5899 557.647 76.0097 557.857 75.3818C558.066 74.754 558.15 74.091 558.102 73.4309C558.054 72.7709 557.875 72.1268 557.577 71.5357ZM505.935 69.019H484.561L505.669 50.0771C508.723 47.4279 509.918 45.1761 509.918 42.3944V41.997C509.918 38.553 507.793 36.4336 503.944 36.4336H476.981C476.309 36.3994 475.638 36.5062 475.01 36.747C474.383 36.9879 473.813 37.3574 473.337 37.8318C472.862 38.3063 472.492 38.8749 472.25 39.5011C472.009 40.1273 471.902 40.7971 471.936 41.4672C471.908 42.1237 472.022 42.7785 472.27 43.3875C472.517 43.9965 472.892 44.5454 473.37 44.9973C473.849 45.4493 474.418 45.7937 475.041 46.0073C475.664 46.2209 476.325 46.2988 476.981 46.2357H496.761L476.317 64.6478C472.334 68.2242 471.405 70.3436 471.405 72.9928V73.5227C471.405 76.9666 473.662 79.086 477.246 79.086H505.789C506.45 79.123 507.111 79.0226 507.731 78.7911C508.351 78.5597 508.916 78.2022 509.39 77.7415C509.865 77.2807 510.238 76.7266 510.486 76.1144C510.735 75.5022 510.853 74.8452 510.834 74.185C510.93 73.507 510.872 72.816 510.664 72.1636C510.455 71.5112 510.101 70.9142 509.629 70.4174C509.157 69.9206 508.578 69.5368 507.936 69.2946C507.294 69.0525 506.605 68.9582 505.922 69.019M461.183 69.019H439.809L460.917 50.0771C463.971 47.4279 465.166 45.1761 465.166 42.3944V41.997C465.166 38.553 463.041 36.4336 459.192 36.4336H432.242C431.571 36.3994 430.899 36.5062 430.272 36.747C429.644 36.9879 429.074 37.3574 428.599 37.8318C428.123 38.3063 427.753 38.8749 427.511 39.5011C427.27 40.1273 427.163 40.7971 427.197 41.4672C427.17 42.1237 427.283 42.7785 427.531 43.3875C427.778 43.9965 428.154 44.5454 428.632 44.9973C429.11 45.4493 429.68 45.7937 430.302 46.0073C430.925 46.2209 431.587 46.2988 432.242 46.2357H452.023L431.578 64.6478C427.596 68.2242 426.666 70.3436 426.666 72.9928V73.5227C426.666 76.9666 428.923 79.086 432.508 79.086H461.05C461.711 79.123 462.372 79.0226 462.992 78.7911C463.612 78.5597 464.177 78.2022 464.652 77.7415C465.126 77.2807 465.499 76.7266 465.748 76.1144C465.996 75.5022 466.114 74.8452 466.095 74.185C466.36 71.0059 464.502 69.019 461.183 69.019ZM412.993 35.9038C412.294 35.8566 411.594 35.9569 410.937 36.198C410.28 36.4391 409.682 36.8157 409.181 37.3032C408.68 37.7906 408.287 38.378 408.029 39.0271C407.771 39.6761 407.653 40.3721 407.682 41.0698V73.92C407.665 74.6145 407.792 75.305 408.054 75.9484C408.316 76.5918 408.709 77.1741 409.208 77.6591C409.706 78.144 410.3 78.521 410.951 78.7666C411.602 79.0121 412.297 79.1209 412.993 79.086C413.691 79.1332 414.391 79.0329 415.048 78.7918C415.705 78.5507 416.303 78.1741 416.804 77.6866C417.305 77.1992 417.698 76.6118 417.956 75.9628C418.214 75.3137 418.332 74.6177 418.303 73.92V41.0698C418.299 40.3811 418.159 39.7 417.889 39.0661C417.619 38.4322 417.226 37.8581 416.732 37.3774C416.238 36.8966 415.652 36.5188 415.011 36.2658C414.369 36.0128 413.683 35.8897 412.993 35.9038ZM384.716 56.7001H372.768V45.9708H384.716C385.422 45.9562 386.124 46.0887 386.777 46.36C387.429 46.6313 388.018 47.0354 388.505 47.5464C388.992 48.0575 389.368 48.6643 389.606 49.3281C389.845 49.9919 389.943 50.6981 389.893 51.4017C389.94 52.0984 389.84 52.7972 389.598 53.4525C389.357 54.1079 388.979 54.705 388.491 55.205C388.002 55.7049 387.413 56.0965 386.763 56.3541C386.112 56.6118 385.415 56.7297 384.716 56.7001ZM384.716 36.3012H367.59C366.919 36.267 366.247 36.3737 365.62 36.6146C364.992 36.8554 364.422 37.225 363.947 37.6994C363.471 38.1738 363.101 38.7425 362.859 39.3687C362.618 39.9949 362.511 40.6647 362.545 41.3347V74.0525C362.526 74.7301 362.648 75.4043 362.903 76.0326C363.158 76.6608 363.541 77.2294 364.027 77.7025C364.514 78.1756 365.094 78.5428 365.73 78.7809C366.366 79.019 367.044 79.1229 367.723 79.086C368.394 79.1202 369.066 79.0135 369.693 78.7726C370.321 78.5318 370.891 78.1622 371.366 77.6878C371.842 77.2134 372.212 76.6447 372.453 76.0185C372.695 75.3923 372.802 74.7225 372.768 74.0525V66.3698H384.716C394.008 66.3698 399.85 59.8792 399.85 51.2692C399.85 42.6593 393.889 36.3012 384.729 36.3012M321.006 69.4164C314.236 69.4164 309.456 64.3829 309.456 57.4949C309.456 54.4385 310.673 51.5073 312.839 49.3461C315.005 47.185 317.943 45.9708 321.006 45.9708C324.069 45.9708 327.007 47.185 329.173 49.3461C331.339 51.5073 332.556 54.4385 332.556 57.4949C332.556 64.3829 328.042 69.4164 321.006 69.4164ZM321.006 35.9038C318.139 35.8317 315.286 36.3399 312.621 37.3978C309.955 38.4556 307.532 40.0412 305.498 42.0588C303.463 44.0765 301.859 46.4844 300.783 49.1373C299.706 51.7903 299.179 54.6333 299.234 57.4949C299.252 63.2564 301.562 68.7748 305.658 72.8364C309.753 76.8979 315.298 79.1698 321.072 79.1522C326.847 79.1347 332.378 76.8291 336.448 72.7427C340.519 68.6563 342.796 63.1239 342.778 57.3624C342.778 45.0436 333.352 35.9038 321.006 35.9038ZM271.754 68.8865H262.992V46.1033H271.754C278.79 46.1033 283.569 50.342 283.569 57.3624C283.569 64.3829 278.923 68.8865 271.754 68.8865ZM271.754 36.3012H257.814C257.122 36.2954 256.435 36.4296 255.795 36.6955C255.156 36.9614 254.577 37.3537 254.093 37.8486C253.609 38.3436 253.231 38.931 252.981 39.5756C252.731 40.2203 252.614 40.9087 252.637 41.5996V73.6551C252.618 74.3327 252.739 75.0069 252.994 75.6352C253.249 76.2634 253.632 76.8321 254.119 77.3051C254.606 77.7782 255.185 78.1454 255.821 78.3835C256.457 78.6216 257.136 78.7255 257.814 78.6886H271.754C284.233 78.6886 293.658 70.0787 293.658 57.3624C293.658 44.6462 284.233 36.3012 271.754 36.3012ZM224.094 69.4164C217.324 69.4164 212.545 64.3829 212.545 57.4949C212.545 54.4385 213.762 51.5073 215.928 49.3461C218.094 47.185 221.031 45.9708 224.094 45.9708C227.158 45.9708 230.095 47.185 232.261 49.3461C234.427 51.5073 235.644 54.4385 235.644 57.4949C235.644 64.3829 231.13 69.4164 224.094 69.4164ZM224.094 35.9038C221.227 35.8317 218.374 36.3399 215.709 37.3978C213.044 38.4556 210.62 40.0412 208.586 42.0588C206.551 44.0765 204.948 46.4844 203.871 49.1373C202.795 51.7903 202.268 54.6333 202.322 57.4949C202.34 63.2564 204.651 68.7748 208.746 72.8364C212.842 76.8979 218.387 79.1698 224.161 79.1522C229.935 79.1347 235.466 76.8291 239.536 72.7427C243.607 68.6563 245.884 63.1239 245.866 57.3624C245.866 45.0436 236.441 35.9038 224.094 35.9038ZM174.975 68.8865H166.213V46.1033H174.975C182.011 46.1033 186.79 50.342 186.79 57.3624C186.79 64.3829 182.011 68.8865 174.975 68.8865ZM174.975 36.3012H161.022C160.329 36.2954 159.643 36.4296 159.003 36.6955C158.364 36.9614 157.785 37.3537 157.301 37.8486C156.817 38.3436 156.439 38.931 156.189 39.5756C155.938 40.2203 155.821 40.9087 155.845 41.5996V73.6551C155.825 74.3327 155.947 75.0069 156.202 75.6352C156.457 76.2634 156.84 76.8321 157.327 77.3051C157.813 77.7782 158.393 78.1454 159.029 78.3835C159.665 78.6216 160.344 78.7255 161.022 78.6886H174.962C187.441 78.6886 196.866 70.0787 196.866 57.3624C196.866 44.6462 187.321 36.3012 174.975 36.3012Z" fill="#E6EEF1" fill-opacity="0.45"/>
<path d="M76.8027 15.1074C101.416 15.1074 120.347 32.0492 120.347 57.1637C120.347 82.2783 101.416 99.8823 76.7762 99.8823H49.1099C46.5244 100.001 43.9973 99.0914 42.0834 97.353C40.1694 95.6146 39.0248 93.1895 38.901 90.61V25.7043C38.8257 24.3832 39.013 23.0602 39.4519 21.8116C39.8909 20.5629 40.5729 19.4131 41.4587 18.4284C42.3445 17.4436 43.4166 16.6432 44.6135 16.0733C45.8104 15.5034 47.1084 15.1751 48.4328 15.1074H76.8027Z" fill="url(#paint1_linear_241_718)"/>
<path d="M76.8027 15.1074C101.416 15.1074 120.347 32.0492 120.347 57.1637C120.347 82.2783 101.416 99.8823 76.7762 99.8823H49.1099C46.5244 100.001 43.9973 99.0914 42.0834 97.353C40.1694 95.6146 39.0248 93.1895 38.901 90.61V25.7043C38.8257 24.3832 39.013 23.0602 39.4519 21.8116C39.8909 20.5629 40.5729 19.4131 41.4587 18.4284C42.3445 17.4436 43.4166 16.6432 44.6135 16.0733C45.8104 15.5034 47.1084 15.1751 48.4328 15.1074H76.8027Z" fill="#E6EEF1" fill-opacity="0.45"/>
<path d="M105.132 48.0768C104.999 49.1233 103.804 49.1233 103.22 48.2093C101.494 45.3084 99.2375 44.7653 95.6664 44.5004C93.0112 44.3679 89.918 44.6329 86.931 44.6329H86.7983L86.5859 44.5136C86.4657 44.414 86.3895 44.2713 86.3735 44.1163C86.9045 41.6127 89.0286 37.0031 91.2721 36.5792C92.3209 36.4468 94.7238 36.1819 96.0381 36.1819C102.118 36.1686 105.397 43.189 105.132 48.0768ZM70.6419 72.0655C75.1314 73.258 79.7869 73.7055 84.4219 73.3901C90.4916 72.9791 96.3634 71.0672 101.508 67.8267C99.5959 72.8735 91.989 76.0393 84.8202 76.7943C84.8202 77.1917 84.6875 77.4434 84.6875 77.8408C89.2456 77.6554 93.6931 76.3837 97.6577 74.1319C96.3301 79.0197 89.6923 81.0198 83.6121 81.4172C83.4616 81.7788 83.2841 82.1286 83.0811 82.4636C86.0899 82.5299 89.0919 82.1505 91.989 81.3377C89.1879 86.5037 77.2797 90.0801 67.2168 85.3115C69.3176 81.1986 70.4954 76.6785 70.6684 72.0655H70.6419ZM103.937 36.8442C102.825 35.7886 101.515 34.9631 100.082 34.4152C98.6485 33.8673 97.1208 33.6079 95.5867 33.6519C91.604 33.6519 88.3117 34.6983 83.3997 34.8308C80.0808 34.9632 77.0407 27.7176 73.0713 26.7639C72.806 25.9865 72.3577 25.2838 71.7642 24.7148C71.1706 24.1458 70.449 23.727 69.6599 23.4935C68.8707 23.26 68.037 23.2186 67.2285 23.3727C66.42 23.5269 65.6603 23.8722 65.0131 24.3796C62.7695 23.055 59.2647 23.7306 59.2647 26.287C56.7556 25.5055 53.5164 26.8169 54.8971 30.2609C48.6708 30.3933 47.622 35.9964 51.7109 36.4733C46.175 39.4536 48.6974 44.7521 53.2111 43.7719C54.0209 51.7195 57.5787 62.025 51.7508 64.555C48.9949 65.2259 46.1079 65.1343 43.4004 64.29L38.8867 63.0449V67.1379C42.6269 68.1881 46.4981 68.7011 50.3834 68.6612C58.0434 67.8797 58.4682 61.5481 58.0434 55.9715C57.6186 50.3949 55.8131 44.2487 56.4636 39.7053L56.1981 39.4404C53.4235 42.3413 51.5649 41.5598 51.2994 40.6193C50.994 38.8178 54.2333 36.4468 56.145 35.652C56.145 35.5196 56.2777 35.3871 56.2777 35.2546C54.5519 35.5196 52.4411 35.2546 52.295 34.0757C52.149 32.8968 55.2024 31.1748 59.1983 31.5722C59.3311 31.5722 59.3311 31.4398 59.4639 31.4398L58.6939 31.0026C58.4959 30.957 58.3111 30.8667 58.1537 30.7387C57.9962 30.6106 57.8703 30.4482 57.7857 30.2639C57.7011 30.0796 57.6599 29.8785 57.6655 29.6758C57.671 29.4732 57.7231 29.2746 57.8177 29.0952C58.1131 28.7878 58.4743 28.5507 58.8742 28.4016C59.2741 28.2526 59.7025 28.1953 60.1276 28.2342C61.3717 28.212 62.6065 28.4511 63.7519 28.9363C63.8846 28.9363 63.8846 28.8038 64.0174 28.8038C63.7265 28.5748 63.4636 28.3125 63.2341 28.0223C63.0735 27.8388 62.985 27.6035 62.985 27.36C62.985 27.1164 63.0735 26.8811 63.2341 26.6977C63.7537 26.4411 64.3411 26.3542 64.9129 26.4493C65.4848 26.5444 66.0122 26.8167 66.4203 27.2275L67.0708 27.8766H67.2832L67.469 27.7574C67.2393 27.5204 67.0986 27.2116 67.0708 26.8831C67.0263 26.7893 67.0009 26.6876 66.9962 26.584C66.9915 26.4803 67.0076 26.3768 67.0434 26.2794C67.0792 26.182 67.1342 26.0926 67.205 26.0166C67.2758 25.9406 67.361 25.8795 67.4558 25.8367H67.5885C67.8884 25.783 68.1974 25.8155 68.4795 25.9304C68.7616 26.0453 69.0051 26.2379 69.1816 26.4857C69.519 26.9937 69.7827 27.5466 69.9648 28.1282C68.3931 28.1969 66.8544 28.6013 65.4527 29.3143C64.0511 30.0273 62.8191 31.0321 61.8402 32.261C60.7731 33.8354 60.0757 35.6297 59.7999 37.5103C59.524 39.3909 59.6769 41.3093 60.2471 43.1228C61.2019 47.1933 62.485 51.1801 64.0838 55.0443V55.1767C67.2965 64.29 73.3767 86.7819 43.8916 98.7033C45.4401 99.4412 47.1278 99.8431 48.8434 99.8822H51.8835C57.01 97.2962 61.4882 93.5931 64.9865 89.0469C78.501 94.9282 90.7809 91.9346 96.1044 82.106C97.7725 81.0634 99.1808 79.6557 100.223 77.9896C101.265 76.3234 101.913 74.4425 102.118 72.4893C103.075 71.303 103.744 69.9129 104.076 68.4267C104.407 66.9406 104.392 65.3982 104.03 63.9191C103.897 63.3893 103.379 63.3893 102.57 63.7867C91.5775 70.4097 81.9129 71.4297 70.3897 68.0254C70.0827 64.4194 69.5506 60.836 68.7966 57.2961C68.5311 52.6732 69.9781 50.4081 78.3816 53.1898C82.0835 54.2013 85.5183 56.0099 88.4444 58.4882C89.3206 59.1373 90.5553 59.9453 91.219 59.3625C91.4308 59.0961 91.587 58.7901 91.6782 58.4624C91.7694 58.1348 91.7938 57.7923 91.7501 57.4551C91.4981 54.5596 90.6771 51.7419 89.3339 49.163C91.85 49.0257 94.3717 49.0257 96.8877 49.163C97.7452 49.2062 98.5698 49.506 99.2542 50.0234C99.9385 50.5408 100.451 51.2518 100.724 52.0639C101.601 54.7131 106.818 53.9713 107.216 51.799C107.999 47.1761 108.265 41.0697 103.764 36.8442H103.937ZM45.1262 76.5824C43.0529 76.45 40.9733 76.45 38.9 76.5824V79.3508C42.4578 78.5693 44.6483 78.1719 44.6483 78.1719L45.1262 76.5824Z" fill="url(#paint2_linear_241_718)"/>
<path d="M105.132 48.0768C104.999 49.1233 103.804 49.1233 103.22 48.2093C101.494 45.3084 99.2375 44.7653 95.6664 44.5004C93.0112 44.3679 89.918 44.6329 86.931 44.6329H86.7983L86.5859 44.5136C86.4657 44.414 86.3895 44.2713 86.3735 44.1163C86.9045 41.6127 89.0286 37.0031 91.2721 36.5792C92.3209 36.4468 94.7238 36.1819 96.0381 36.1819C102.118 36.1686 105.397 43.189 105.132 48.0768ZM70.6419 72.0655C75.1314 73.258 79.7869 73.7055 84.4219 73.3901C90.4916 72.9791 96.3634 71.0672 101.508 67.8267C99.5959 72.8735 91.989 76.0393 84.8202 76.7943C84.8202 77.1917 84.6875 77.4434 84.6875 77.8408C89.2456 77.6554 93.6931 76.3837 97.6577 74.1319C96.3301 79.0197 89.6923 81.0198 83.6121 81.4172C83.4616 81.7788 83.2841 82.1286 83.0811 82.4636C86.0899 82.5299 89.0919 82.1505 91.989 81.3377C89.1879 86.5037 77.2797 90.0801 67.2168 85.3115C69.3176 81.1986 70.4954 76.6785 70.6684 72.0655H70.6419ZM103.937 36.8442C102.825 35.7886 101.515 34.9631 100.082 34.4152C98.6485 33.8673 97.1208 33.6079 95.5867 33.6519C91.604 33.6519 88.3117 34.6983 83.3997 34.8308C80.0808 34.9632 77.0407 27.7176 73.0713 26.7639C72.806 25.9865 72.3577 25.2838 71.7642 24.7148C71.1706 24.1458 70.449 23.727 69.6599 23.4935C68.8707 23.26 68.037 23.2186 67.2285 23.3727C66.42 23.5269 65.6603 23.8722 65.0131 24.3796C62.7695 23.055 59.2647 23.7306 59.2647 26.287C56.7556 25.5055 53.5164 26.8169 54.8971 30.2609C48.6708 30.3933 47.622 35.9964 51.7109 36.4733C46.175 39.4536 48.6974 44.7521 53.2111 43.7719C54.0209 51.7195 57.5787 62.025 51.7508 64.555C48.9949 65.2259 46.1079 65.1343 43.4004 64.29L38.8867 63.0449V67.1379C42.6269 68.1881 46.4981 68.7011 50.3834 68.6612C58.0434 67.8797 58.4682 61.5481 58.0434 55.9715C57.6186 50.3949 55.8131 44.2487 56.4636 39.7053L56.1981 39.4404C53.4235 42.3413 51.5649 41.5598 51.2994 40.6193C50.994 38.8178 54.2333 36.4468 56.145 35.652C56.145 35.5196 56.2777 35.3871 56.2777 35.2546C54.5519 35.5196 52.4411 35.2546 52.295 34.0757C52.149 32.8968 55.2024 31.1748 59.1983 31.5722C59.3311 31.5722 59.3311 31.4398 59.4639 31.4398L58.6939 31.0026C58.4959 30.957 58.3111 30.8667 58.1537 30.7387C57.9962 30.6106 57.8703 30.4482 57.7857 30.2639C57.7011 30.0796 57.6599 29.8785 57.6655 29.6758C57.671 29.4732 57.7231 29.2746 57.8177 29.0952C58.1131 28.7878 58.4743 28.5507 58.8742 28.4016C59.2741 28.2526 59.7025 28.1953 60.1276 28.2342C61.3717 28.212 62.6065 28.4511 63.7519 28.9363C63.8846 28.9363 63.8846 28.8038 64.0174 28.8038C63.7265 28.5748 63.4636 28.3125 63.2341 28.0223C63.0735 27.8388 62.985 27.6035 62.985 27.36C62.985 27.1164 63.0735 26.8811 63.2341 26.6977C63.7537 26.4411 64.3411 26.3542 64.9129 26.4493C65.4848 26.5444 66.0122 26.8167 66.4203 27.2275L67.0708 27.8766H67.2832L67.469 27.7574C67.2393 27.5204 67.0986 27.2116 67.0708 26.8831C67.0263 26.7893 67.0009 26.6876 66.9962 26.584C66.9915 26.4803 67.0076 26.3768 67.0434 26.2794C67.0792 26.182 67.1342 26.0926 67.205 26.0166C67.2758 25.9406 67.361 25.8795 67.4558 25.8367H67.5885C67.8884 25.783 68.1974 25.8155 68.4795 25.9304C68.7616 26.0453 69.0051 26.2379 69.1816 26.4857C69.519 26.9937 69.7827 27.5466 69.9648 28.1282C68.3931 28.1969 66.8544 28.6013 65.4527 29.3143C64.0511 30.0273 62.8191 31.0321 61.8402 32.261C60.7731 33.8354 60.0757 35.6297 59.7999 37.5103C59.524 39.3909 59.6769 41.3093 60.2471 43.1228C61.2019 47.1933 62.485 51.1801 64.0838 55.0443V55.1767C67.2965 64.29 73.3767 86.7819 43.8916 98.7033C45.4401 99.4412 47.1278 99.8431 48.8434 99.8822H51.8835C57.01 97.2962 61.4882 93.5931 64.9865 89.0469C78.501 94.9282 90.7809 91.9346 96.1044 82.106C97.7725 81.0634 99.1808 79.6557 100.223 77.9896C101.265 76.3234 101.913 74.4425 102.118 72.4893C103.075 71.303 103.744 69.9129 104.076 68.4267C104.407 66.9406 104.392 65.3982 104.03 63.9191C103.897 63.3893 103.379 63.3893 102.57 63.7867C91.5775 70.4097 81.9129 71.4297 70.3897 68.0254C70.0827 64.4194 69.5506 60.836 68.7966 57.2961C68.5311 52.6732 69.9781 50.4081 78.3816 53.1898C82.0835 54.2013 85.5183 56.0099 88.4444 58.4882C89.3206 59.1373 90.5553 59.9453 91.219 59.3625C91.4308 59.0961 91.587 58.7901 91.6782 58.4624C91.7694 58.1348 91.7938 57.7923 91.7501 57.4551C91.4981 54.5596 90.6771 51.7419 89.3339 49.163C91.85 49.0257 94.3717 49.0257 96.8877 49.163C97.7452 49.2062 98.5698 49.506 99.2542 50.0234C99.9385 50.5408 100.451 51.2518 100.724 52.0639C101.601 54.7131 106.818 53.9713 107.216 51.799C107.999 47.1761 108.265 41.0697 103.764 36.8442H103.937ZM45.1262 76.5824C43.0529 76.45 40.9733 76.45 38.9 76.5824V79.3508C42.4578 78.5693 44.6483 78.1719 44.6483 78.1719L45.1262 76.5824Z" fill="#E6EEF1" fill-opacity="0.45"/>
<path d="M78.2501 47.6397C73.617 46.5933 68.4793 45.2554 65.7977 41.2949C65.7977 41.1624 65.6649 41.1624 65.5321 41.1624C65.5133 41.387 65.5594 41.6122 65.6649 41.8115L65.2666 41.9439C64.9024 41.4998 64.6926 40.9498 64.6687 40.3765C64.6447 39.8032 64.808 39.2376 65.1339 38.7649C65.699 38.197 66.4465 37.8458 67.2452 37.7732C68.044 37.7005 68.8428 37.9109 69.5015 38.3675L69.3688 38.7649C68.7349 38.5922 68.061 38.6389 67.4571 38.8973C67.3639 38.9418 67.2817 39.0061 67.2163 39.0858C67.1509 39.1655 67.1038 39.2586 67.0785 39.3584C67.0531 39.4583 67.0501 39.5625 67.0697 39.6637C67.0892 39.7648 67.1308 39.8605 67.1916 39.9438C69.4219 44.2487 76.0597 45.123 83.8657 44.4607C84.0833 44.4863 84.303 44.4356 84.4871 44.3171C84.6713 44.1987 84.8083 44.0199 84.8747 43.8116C85.4558 41.1823 86.7351 38.7575 88.5785 36.7912C87.3107 36.998 86.0262 37.0867 84.7419 37.0561C80.7592 37.321 78.3829 36.7912 77.7058 36.2746L77.8386 35.8772C77.9737 35.948 78.1241 35.985 78.2767 35.985C78.4293 35.985 78.5797 35.948 78.7148 35.8772C78.7226 35.8054 78.7147 35.7327 78.6918 35.6641C78.6689 35.5955 78.6315 35.5327 78.582 35.4798C77.8386 34.7778 74.387 31.2146 74.387 31.2146C73.9887 28.0753 69.5414 28.0753 67.8952 30.9894L67.3642 30.857C67.4756 30.29 67.6965 29.7501 68.0147 29.2674C66.3937 29.6996 64.9412 30.6097 63.8469 31.8788C62.7527 33.1478 62.0676 34.7168 61.8814 36.3806C60.3016 49.8783 80.8256 46.6993 86.6801 52.1964C86.8129 52.3288 87.0784 52.7262 87.2112 52.4613C87.3439 52.1964 84.8348 49.0173 78.2103 47.5735L78.2501 47.6397ZM71.1212 31.3471C71.7857 31.3415 72.4356 31.5426 72.9804 31.9224C73.5252 32.3022 73.9379 32.8419 74.1613 33.4664C74.8383 34.9235 74.6923 36.3673 73.763 36.778C73.0984 36.816 72.4402 36.6304 71.8938 36.251C71.3475 35.8715 70.9445 35.3201 70.7494 34.6851C70.6167 34.4201 70.6167 34.2877 70.4839 34.036H70.6167C70.7319 34.1568 70.8794 34.2422 71.0417 34.2821C71.204 34.322 71.3744 34.3148 71.5327 34.2612C71.696 34.0791 71.7862 33.8433 71.7862 33.5989C71.7862 33.3545 71.696 33.1187 71.5327 32.9366C71.4502 32.7205 71.3078 32.5322 71.1221 32.3938C70.9364 32.2554 70.7151 32.1726 70.4839 32.1551L70.3512 32.0226C70.5433 31.7347 70.8155 31.5091 71.1344 31.3736M101.549 67.8135C96.4058 71.0586 90.534 72.9751 84.4631 73.3901C79.8514 73.6263 75.2301 73.1799 70.7494 72.0655C70.7483 73.4 70.6149 74.731 70.3512 76.0393C74.2166 76.9479 78.1691 77.4364 82.1399 77.4964C81.2731 81.3452 79.271 84.8469 76.3916 87.5501C83.4276 87.8018 89.9592 85.0334 91.9904 81.3377C89.112 82.2224 86.1057 82.6209 83.0957 82.5166C83.2285 82.1193 83.494 81.8676 83.6268 81.4702C89.7202 81.2053 96.3447 79.2184 97.6723 74.1849C93.7077 76.4367 89.2603 77.7085 84.7021 77.8938C84.7021 77.4964 84.8348 77.2447 84.8348 76.8473C91.9373 75.9731 99.5309 72.8735 101.522 67.84" fill="white"/>
<defs>
<linearGradient id="paint0_linear_241_718" x1="158.668" y1="57.5224" x2="558.115" y2="57.5224" gradientUnits="userSpaceOnUse">
<stop stop-color="#3793AE"/>
<stop offset="1" stop-color="#074287"/>
</linearGradient>
<linearGradient id="paint1_linear_241_718" x1="39.4571" y1="57.5" x2="120.347" y2="57.5" gradientUnits="userSpaceOnUse">
<stop stop-color="#3793AE"/>
<stop offset="1" stop-color="#074287"/>
</linearGradient>
<linearGradient id="paint2_linear_241_718" x1="39.37" y1="61.5818" x2="107.67" y2="61.5818" gradientUnits="userSpaceOnUse">
<stop stop-color="#32798E"/>
<stop offset="1" stop-color="#074287"/>
</linearGradient>
</defs>
</svg>
