<svg width="26" height="15" viewBox="0 0 26 15" fill="none" xmlns="http://www.w3.org/2000/svg">
<g clip-path="url(#clip0_1301_4672)">
<path d="M7.5 14.2188C11.2107 14.2188 14.2188 11.2107 14.2188 7.5C14.2188 3.78934 11.2107 0.78125 7.5 0.78125C3.78934 0.78125 0.78125 3.78934 0.78125 7.5C0.78125 11.2107 3.78934 14.2188 7.5 14.2188Z" fill="#FF0000" stroke="white" stroke-linecap="round" stroke-linejoin="round"/>
<path d="M4.375 10.6181V4.375L7.5 9.0625L10.625 4.38437V10.625" stroke="white" stroke-linecap="round" stroke-linejoin="round"/>
</g>
<g clip-path="url(#clip1_1301_4672)">
<path d="M18.5 14.2188C22.2107 14.2188 25.2188 11.2107 25.2188 7.5C25.2188 3.78934 22.2107 0.78125 18.5 0.78125C14.7893 0.78125 11.7812 3.78934 11.7812 7.5C11.7812 11.2107 14.7893 14.2188 18.5 14.2188Z" fill="#7F401D" stroke="white" stroke-linecap="round" stroke-linejoin="round"/>
<path d="M15.375 10.6181V4.375L18.5 9.0625L21.625 4.38437V10.625" stroke="white" stroke-linecap="round" stroke-linejoin="round"/>
</g>
<defs>
<clipPath id="clip0_1301_4672">
<rect width="15" height="15" fill="white"/>
</clipPath>
<clipPath id="clip1_1301_4672">
<rect width="15" height="15" fill="white" transform="translate(11)"/>
</clipPath>
</defs>
</svg>
