<svg width="17" height="17" viewBox="0 0 17 17" fill="none" xmlns="http://www.w3.org/2000/svg">
<path d="M3.08352 14.1888L5.19752 13.4838L5.56752 13.6688C6.41752 14.0928 7.36252 14.3188 8.35352 14.3188C11.6635 14.3188 14.3535 11.7128 14.3535 8.81885C14.3535 5.92485 11.6635 3.31885 8.35352 3.31885C5.04352 3.31885 2.35352 5.92485 2.35352 8.81885C2.35352 9.89885 2.74352 10.9948 3.46052 11.9318L3.80552 12.3818L3.08252 14.1878L3.08352 14.1888ZM2.37652 15.4788C2.28602 15.5092 2.18874 15.513 2.09617 15.4898C2.00359 15.4666 1.91958 15.4174 1.85407 15.348C1.78856 15.2786 1.74428 15.1919 1.72646 15.0981C1.70864 15.0043 1.71803 14.9074 1.75352 14.8188L2.66552 12.5388C1.83352 11.4488 1.35352 10.1448 1.35352 8.81885C1.35352 5.50485 4.35352 2.31885 8.35352 2.31885C12.3535 2.31885 15.3535 5.50485 15.3535 8.81885C15.3535 12.1328 12.3535 15.3188 8.35352 15.3188C7.23169 15.322 6.12462 15.0631 5.12052 14.5628L2.37652 15.4778V15.4788Z" fill="#0E344A"/>
<path d="M3.08352 14.1888L5.19752 13.4838L5.56752 13.6688C6.41752 14.0928 7.36252 14.3188 8.35352 14.3188C11.6635 14.3188 14.3535 11.7128 14.3535 8.81885C14.3535 5.92485 11.6635 3.31885 8.35352 3.31885C5.04352 3.31885 2.35352 5.92485 2.35352 8.81885C2.35352 9.89885 2.74352 10.9948 3.46052 11.9318L3.80552 12.3818L3.08252 14.1878L3.08352 14.1888ZM2.37652 15.4788C2.28602 15.5092 2.18874 15.513 2.09617 15.4898C2.00359 15.4666 1.91958 15.4174 1.85407 15.348C1.78856 15.2786 1.74428 15.1919 1.72646 15.0981C1.70864 15.0043 1.71803 14.9074 1.75352 14.8188L2.66552 12.5388C1.83352 11.4488 1.35352 10.1448 1.35352 8.81885C1.35352 5.50485 4.35352 2.31885 8.35352 2.31885C12.3535 2.31885 15.3535 5.50485 15.3535 8.81885C15.3535 12.1328 12.3535 15.3188 8.35352 15.3188C7.23169 15.322 6.12462 15.0631 5.12052 14.5628L2.37652 15.4778V15.4788Z" fill="url(#paint0_linear_4006_1031)"/>
<path d="M8.35371 9.6188C8.24865 9.6188 8.14462 9.59811 8.04756 9.5579C7.9505 9.5177 7.86231 9.45877 7.78803 9.38448C7.71374 9.3102 7.65481 9.22201 7.61461 9.12495C7.5744 9.02789 7.55371 8.92386 7.55371 8.8188C7.55371 8.71374 7.5744 8.60971 7.61461 8.51265C7.65481 8.41559 7.71374 8.3274 7.78803 8.25311C7.86231 8.17883 7.9505 8.1199 8.04756 8.0797C8.14462 8.03949 8.24865 8.0188 8.35371 8.0188C8.56588 8.0188 8.76937 8.10308 8.9194 8.25311C9.06943 8.40314 9.15371 8.60663 9.15371 8.8188C9.15371 9.03097 9.06943 9.23446 8.9194 9.38448C8.76937 9.53451 8.56588 9.6188 8.35371 9.6188ZM11.3537 9.6188C11.2487 9.6188 11.1446 9.59811 11.0476 9.5579C10.9505 9.5177 10.8623 9.45877 10.788 9.38448C10.7137 9.3102 10.6548 9.22201 10.6146 9.12495C10.5744 9.02789 10.5537 8.92386 10.5537 8.8188C10.5537 8.71374 10.5744 8.60971 10.6146 8.51265C10.6548 8.41559 10.7137 8.3274 10.788 8.25311C10.8623 8.17883 10.9505 8.1199 11.0476 8.0797C11.1446 8.03949 11.2487 8.0188 11.3537 8.0188C11.5659 8.0188 11.7694 8.10308 11.9194 8.25311C12.0694 8.40314 12.1537 8.60663 12.1537 8.8188C12.1537 9.03097 12.0694 9.23446 11.9194 9.38448C11.7694 9.53451 11.5659 9.6188 11.3537 9.6188ZM5.35371 9.6188C5.24865 9.6188 5.14462 9.59811 5.04756 9.5579C4.9505 9.5177 4.86231 9.45877 4.78803 9.38448C4.71374 9.3102 4.65481 9.22201 4.61461 9.12495C4.5744 9.02789 4.55371 8.92386 4.55371 8.8188C4.55371 8.71374 4.5744 8.60971 4.61461 8.51265C4.65481 8.41559 4.71374 8.3274 4.78803 8.25311C4.86231 8.17883 4.9505 8.1199 5.04756 8.0797C5.14462 8.03949 5.24865 8.0188 5.35371 8.0188C5.56588 8.0188 5.76937 8.10308 5.9194 8.25311C6.06943 8.40314 6.15371 8.60663 6.15371 8.8188C6.15371 9.03097 6.06943 9.23446 5.9194 9.38448C5.76937 9.53451 5.56588 9.6188 5.35371 9.6188Z" fill="#0E344A"/>
<path d="M8.35371 9.6188C8.24865 9.6188 8.14462 9.59811 8.04756 9.5579C7.9505 9.5177 7.86231 9.45877 7.78803 9.38448C7.71374 9.3102 7.65481 9.22201 7.61461 9.12495C7.5744 9.02789 7.55371 8.92386 7.55371 8.8188C7.55371 8.71374 7.5744 8.60971 7.61461 8.51265C7.65481 8.41559 7.71374 8.3274 7.78803 8.25311C7.86231 8.17883 7.9505 8.1199 8.04756 8.0797C8.14462 8.03949 8.24865 8.0188 8.35371 8.0188C8.56588 8.0188 8.76937 8.10308 8.9194 8.25311C9.06943 8.40314 9.15371 8.60663 9.15371 8.8188C9.15371 9.03097 9.06943 9.23446 8.9194 9.38448C8.76937 9.53451 8.56588 9.6188 8.35371 9.6188ZM11.3537 9.6188C11.2487 9.6188 11.1446 9.59811 11.0476 9.5579C10.9505 9.5177 10.8623 9.45877 10.788 9.38448C10.7137 9.3102 10.6548 9.22201 10.6146 9.12495C10.5744 9.02789 10.5537 8.92386 10.5537 8.8188C10.5537 8.71374 10.5744 8.60971 10.6146 8.51265C10.6548 8.41559 10.7137 8.3274 10.788 8.25311C10.8623 8.17883 10.9505 8.1199 11.0476 8.0797C11.1446 8.03949 11.2487 8.0188 11.3537 8.0188C11.5659 8.0188 11.7694 8.10308 11.9194 8.25311C12.0694 8.40314 12.1537 8.60663 12.1537 8.8188C12.1537 9.03097 12.0694 9.23446 11.9194 9.38448C11.7694 9.53451 11.5659 9.6188 11.3537 9.6188ZM5.35371 9.6188C5.24865 9.6188 5.14462 9.59811 5.04756 9.5579C4.9505 9.5177 4.86231 9.45877 4.78803 9.38448C4.71374 9.3102 4.65481 9.22201 4.61461 9.12495C4.5744 9.02789 4.55371 8.92386 4.55371 8.8188C4.55371 8.71374 4.5744 8.60971 4.61461 8.51265C4.65481 8.41559 4.71374 8.3274 4.78803 8.25311C4.86231 8.17883 4.9505 8.1199 5.04756 8.0797C5.14462 8.03949 5.24865 8.0188 5.35371 8.0188C5.56588 8.0188 5.76937 8.10308 5.9194 8.25311C6.06943 8.40314 6.15371 8.60663 6.15371 8.8188C6.15371 9.03097 6.06943 9.23446 5.9194 9.38448C5.76937 9.53451 5.56588 9.6188 5.35371 9.6188Z" fill="url(#paint1_linear_4006_1031)"/>
<defs>
<linearGradient id="paint0_linear_4006_1031" x1="1.45188" y1="8.9118" x2="15.3535" y2="8.9118" gradientUnits="userSpaceOnUse">
<stop stop-color="#3793AE"/>
<stop offset="1" stop-color="#074287"/>
</linearGradient>
<linearGradient id="paint1_linear_4006_1031" x1="4.60711" y1="8.8188" x2="12.1537" y2="8.8188" gradientUnits="userSpaceOnUse">
<stop stop-color="#3793AE"/>
<stop offset="1" stop-color="#074287"/>
</linearGradient>
</defs>
</svg>
