<svg width="24" height="25" viewBox="0 0 24 25" fill="none" xmlns="http://www.w3.org/2000/svg">
<path d="M12 0.5C5.37288 0.5 0 5.87288 0 12.5C0 19.1271 5.37288 24.5 12 24.5C18.6271 24.5 24 19.1271 24 12.5C24 5.87288 18.6271 0.5 12 0.5ZM17.5385 14.3462H12C11.7552 14.3462 11.5204 14.2489 11.3473 14.0758C11.1742 13.9027 11.0769 13.6679 11.0769 13.4231V5.11538C11.0769 4.87057 11.1742 4.63578 11.3473 4.46267C11.5204 4.28956 11.7552 4.19231 12 4.19231C12.2448 4.19231 12.4796 4.28956 12.6527 4.46267C12.8258 4.63578 12.9231 4.87057 12.9231 5.11538V12.5H17.5385C17.7833 12.5 18.0181 12.5973 18.1912 12.7704C18.3643 12.9435 18.4615 13.1783 18.4615 13.4231C18.4615 13.6679 18.3643 13.9027 18.1912 14.0758C18.0181 14.2489 17.7833 14.3462 17.5385 14.3462Z" fill="url(#paint0_linear_2530_3863)"/>
<defs>
<linearGradient id="paint0_linear_2530_3863" x1="0.168618" y1="12.5" x2="24" y2="12.5" gradientUnits="userSpaceOnUse">
<stop stop-color="#3793AE"/>
<stop offset="1" stop-color="#074287"/>
</linearGradient>
</defs>
</svg>
