<svg width="31" height="31" viewBox="0 0 31 31" fill="none" xmlns="http://www.w3.org/2000/svg">
<path d="M21.5524 4.00195L20.5938 5.54717C21.3715 6.02967 21.8357 6.86182 21.8357 7.7733C21.8357 8.68477 21.3715 9.51686 20.5938 9.99924L21.5524 11.5446C22.8685 10.7282 23.6543 9.31833 23.6543 7.7733C23.6543 6.22826 22.8685 4.81843 21.5524 4.00195Z" fill="url(#paint0_linear_2530_3839)"/>
<path d="M24.3727 0L23.4141 1.54534C25.5888 2.89432 26.8873 5.22253 26.8873 7.77307C26.8873 10.3235 25.5889 12.6516 23.4141 14.0006L24.3727 15.546C27.0859 13.8629 28.7057 10.957 28.7057 7.77307C28.7057 4.58891 27.0859 1.68308 24.3727 0Z" fill="url(#paint1_linear_2530_3839)"/>
<path d="M9.16228 7.7733C9.16228 6.86188 9.62655 6.02967 10.4043 5.54717L9.44563 4.00195C8.12953 4.81843 7.34375 6.22826 7.34375 7.7733C7.34381 9.31833 8.12959 10.7281 9.44563 11.5446L10.4043 9.99924C9.62655 9.51686 9.16228 8.68477 9.16228 7.7733Z" fill="url(#paint2_linear_2530_3839)"/>
<path d="M4.10753 7.77307C4.10753 5.22253 5.40596 2.89432 7.58074 1.54534L6.6221 0C3.90887 1.68308 2.28906 4.58891 2.28906 7.77307C2.28906 10.9571 3.90887 13.8629 6.6221 15.546L7.58074 14.0006C5.40596 12.6516 4.10753 10.3235 4.10753 7.77307Z" fill="url(#paint3_linear_2530_3839)"/>
<path d="M17.7523 13.0171H13.2951L8.44531 30.9999H10.3287L11.5789 26.3643H19.4302L20.6666 30.9999H22.5486L17.7523 13.0171ZM14.6881 14.8356H16.3552L17.4207 18.8304H13.6107L14.6881 14.8356ZM12.0693 24.5458L13.1203 20.6488H17.9058L18.9452 24.5458H12.0693Z" fill="url(#paint4_linear_2530_3839)"/>
<path d="M15.5023 4.09082C13.472 4.09082 11.8203 5.74254 11.8203 7.7728C11.8203 9.80311 13.472 11.4548 15.5023 11.4548C17.5325 11.4548 19.1843 9.80311 19.1843 7.7728C19.1843 5.74254 17.5325 4.09082 15.5023 4.09082ZM15.5023 9.63637C14.4748 9.63637 13.6388 8.8004 13.6388 7.77286C13.6388 6.74532 14.4747 5.90935 15.5023 5.90935C16.5298 5.90935 17.3657 6.74532 17.3657 7.77286C17.3657 8.80046 16.5298 9.63637 15.5023 9.63637Z" fill="url(#paint5_linear_2530_3839)"/>
<defs>
<linearGradient id="paint0_linear_2530_3839" x1="20.6153" y1="7.77327" x2="23.6543" y2="7.77327" gradientUnits="userSpaceOnUse">
<stop stop-color="#3793AE"/>
<stop offset="1" stop-color="#074287"/>
</linearGradient>
<linearGradient id="paint1_linear_2530_3839" x1="23.4512" y1="7.77297" x2="28.7057" y2="7.77297" gradientUnits="userSpaceOnUse">
<stop stop-color="#3793AE"/>
<stop offset="1" stop-color="#074287"/>
</linearGradient>
<linearGradient id="paint2_linear_2530_3839" x1="7.36525" y1="7.77327" x2="10.4043" y2="7.77327" gradientUnits="userSpaceOnUse">
<stop stop-color="#3793AE"/>
<stop offset="1" stop-color="#074287"/>
</linearGradient>
<linearGradient id="paint3_linear_2530_3839" x1="2.32624" y1="7.77297" x2="7.58074" y2="7.77297" gradientUnits="userSpaceOnUse">
<stop stop-color="#3793AE"/>
<stop offset="1" stop-color="#074287"/>
</linearGradient>
<linearGradient id="paint4_linear_2530_3839" x1="8.5444" y1="22.0085" x2="22.5486" y2="22.0085" gradientUnits="userSpaceOnUse">
<stop stop-color="#3793AE"/>
<stop offset="1" stop-color="#074287"/>
</linearGradient>
<linearGradient id="paint5_linear_2530_3839" x1="11.872" y1="7.77283" x2="19.1843" y2="7.77283" gradientUnits="userSpaceOnUse">
<stop stop-color="#3793AE"/>
<stop offset="1" stop-color="#074287"/>
</linearGradient>
</defs>
</svg>
