<svg width="30" height="29" viewBox="0 0 30 29" fill="none" xmlns="http://www.w3.org/2000/svg">
<path d="M15.1671 3.83182V0.752441" stroke="white" stroke-miterlimit="10"/>
<path d="M22.7001 5.72568L24.9332 3.54248" stroke="white" stroke-miterlimit="10"/>
<path d="M7.64343 5.72568L5.41037 3.54248" stroke="white" stroke-miterlimit="10"/>
<path d="M25.4335 21.7053H4.50234C2.59871 21.7053 1.05554 23.214 1.05554 25.0752C1.05554 26.9363 2.59871 28.4451 4.50234 28.4451H25.4335C27.3372 28.4451 28.8803 26.9363 28.8803 25.0752C28.8803 23.214 27.3372 21.7053 25.4335 21.7053Z" stroke="white" stroke-miterlimit="10"/>
<path d="M4.39117 21.7235V17.5383C4.39117 11.7769 9.17227 7.10254 15.0652 7.10254C20.9582 7.10254 25.7393 11.7769 25.7393 17.5383V22.0768" stroke="white" stroke-miterlimit="10"/>
<path d="M14.88 10.5269C18.7623 10.5269 21.9033 13.5978 21.9033 17.3934" stroke="white" stroke-miterlimit="10"/>
</svg>
