<svg width="22" height="26" viewBox="0 0 22 26" fill="none" xmlns="http://www.w3.org/2000/svg">
<path d="M13.2786 22.7147C13.2786 23.2763 13.047 23.8108 12.6486 24.2094C12.2409 24.608 11.6943 24.8254 11.1198 24.8254C10.5453 24.8254 9.99861 24.5989 9.59093 24.2094C9.18324 23.8108 8.96087 23.2763 8.96087 22.7147M20.8487 19.2451V20.305H1.39084V19.2451L3.5497 17.1344V10.7932C3.5497 7.51395 5.74567 4.63329 8.95159 3.70024V3.39221C8.95159 2.83057 9.18323 2.29613 9.58165 1.89754C9.98934 1.49895 10.536 1.28149 11.1105 1.28149C11.685 1.28149 12.2316 1.50801 12.6393 1.89754C13.047 2.29613 13.2694 2.83057 13.2694 3.39221V3.70024C16.4845 4.63329 18.6713 7.51395 18.6713 10.7932V17.1344L20.8302 19.2451H20.8487Z" stroke="white" stroke-miterlimit="10"/>
</svg>
