<svg width="26" height="32" viewBox="0 0 26 32" fill="none" xmlns="http://www.w3.org/2000/svg">
<path d="M9.25372 27.4003H4.82471C2.73994 27.4003 1.05363 25.7516 1.05363 23.7134V7.19011C1.05363 5.15188 2.73994 3.50317 4.82471 3.50317H5.79765" stroke="white" stroke-miterlimit="10"/>
<path d="M15.5173 3.51221H16.4254C18.5101 3.51221 20.1965 5.16092 20.1965 7.19915V15.2252" stroke="white" stroke-miterlimit="10"/>
<path d="M13.5159 1.48315H7.74342C6.75067 1.48315 5.94594 2.26997 5.94594 3.24056V3.24958C5.94594 4.22017 6.75067 5.00699 7.74342 5.00699H13.5159C14.5087 5.00699 15.3135 4.22017 15.3135 3.24958V3.24056C15.3135 2.26997 14.5087 1.48315 13.5159 1.48315Z" stroke="white" stroke-miterlimit="10"/>
<path d="M5.38991 10.4695H14.0348" stroke="white" stroke-miterlimit="10"/>
<path d="M5.38991 14.9536H14.0348" stroke="white" stroke-miterlimit="10"/>
<path d="M5.38991 19.4465H10.3841" stroke="white" stroke-miterlimit="10"/>
<path d="M18.4267 30.6705C22.1214 30.6705 25.1165 27.7423 25.1165 24.1301C25.1165 20.5179 22.1214 17.5896 18.4267 17.5896C14.7321 17.5896 11.737 20.5179 11.737 24.1301C11.737 27.7423 14.7321 30.6705 18.4267 30.6705Z" stroke="white" stroke-miterlimit="10"/>
<path d="M17.5464 20.896V24.4652H21.8643" stroke="white" stroke-miterlimit="10"/>
</svg>
