<svg width="25" height="21" viewBox="0 0 25 21" fill="none" xmlns="http://www.w3.org/2000/svg">
<path fill-rule="evenodd" clip-rule="evenodd" d="M21.3651 1.33654C21.643 1.21878 21.9488 1.18254 22.2546 1.21877C22.5511 1.25501 22.8383 1.38183 23.0792 1.56301C23.3202 1.74419 23.5055 1.9888 23.6074 2.26962C23.7186 2.55045 23.7464 2.84936 23.7 3.1483L21.1334 18.4486C20.8833 19.9252 19.234 20.7677 17.8627 20.0339C16.7137 19.4179 14.9996 18.4667 13.4615 17.4793C12.6924 16.9811 10.339 15.3958 10.6262 14.2725C10.8764 13.3123 14.8328 9.67972 17.1029 7.53279C17.9924 6.69032 17.5847 6.20116 16.5377 6.98021C13.934 8.90974 9.75523 11.8538 8.36538 12.6782C7.14231 13.4119 6.51224 13.5297 5.75245 13.4119C4.36261 13.1855 3.07466 12.8322 2.02764 12.4064C0.609995 11.8267 0.674854 9.9062 2.02764 9.35362L21.3743 1.34561L21.3651 1.33654Z" stroke="white" stroke-miterlimit="10"/>
</svg>
