<svg width="22" height="22" viewBox="0 0 22 22" fill="none" xmlns="http://www.w3.org/2000/svg">
<path d="M21.6008 11.1998C21.6008 11.3197 21.5531 11.4347 21.4683 11.5195C21.3835 11.6043 21.2685 11.652 21.1486 11.652H11.653V21.1476C11.653 21.2676 11.6053 21.3826 11.5205 21.4674C11.4357 21.5522 11.3207 21.5998 11.2008 21.5998C11.0809 21.5998 10.9658 21.5522 10.881 21.4674C10.7962 21.3826 10.7486 21.2676 10.7486 21.1476V11.652H1.25296C1.13303 11.652 1.01802 11.6043 0.93322 11.5195C0.848421 11.4347 0.800781 11.3197 0.800781 11.1998C0.800781 11.0799 0.848421 10.9649 0.93322 10.8801C1.01802 10.7953 1.13303 10.7476 1.25296 10.7476H10.7486V1.25198C10.7486 1.13205 10.7962 1.01704 10.881 0.932243C10.9658 0.847444 11.0809 0.799805 11.2008 0.799805C11.3207 0.799805 11.4357 0.847444 11.5205 0.932243C11.6053 1.01704 11.653 1.13205 11.653 1.25198V10.7476H21.1486C21.2685 10.7476 21.3835 10.7953 21.4683 10.8801C21.5531 10.9649 21.6008 11.0799 21.6008 11.1998Z" fill="#074287"/>
</svg>
