<svg width="65" height="62" viewBox="0 0 65 62" fill="none" xmlns="http://www.w3.org/2000/svg">
<g clip-path="url(#clip0_2530_2715)">
<path d="M63.3327 0.000723899H1.67233C1.38176 -0.00971501 1.09886 0.0931081 0.889821 0.285706C0.680238 0.478303 0.562041 0.743973 0.562588 1.02113V48.6027C0.554927 49.1977 1.04851 49.6888 1.67233 49.7066H22.7821L20.7919 55.4522H15.6361C15.0172 55.4522 14.5712 55.9438 14.5712 56.5347V60.9801C14.5608 61.253 14.6692 61.5177 14.8711 61.7108C15.073 61.9039 15.3499 62.0088 15.6361 61.9994H49.3689C49.6551 62.0088 49.932 61.9039 50.134 61.7108C50.3359 61.5172 50.4442 61.2525 50.4333 60.9795V56.5347C50.4333 55.9443 49.9884 55.4522 49.3689 55.4522H44.212L42.2218 49.7066H63.3327C63.9565 49.6888 64.4501 49.1972 64.4419 48.6021V1.02113C64.4424 0.743973 64.3248 0.478303 64.1152 0.285706C63.9056 0.0931081 63.6233 -0.00971501 63.3327 0.000723899ZM48.1919 57.59V59.8615H16.8126V57.59H48.1919ZM23.1509 55.4522L25.1411 49.7066H39.8639L41.8541 55.4522H23.1509ZM62.2005 47.5687H2.80397V40.6206H62.2005V47.5687ZM62.2005 38.4827H2.80397V2.13861H62.2005V38.4827Z" fill="url(#paint0_linear_2530_2715)"/>
<path d="M17.0984 24.4989L19.6342 24.7338C19.9236 25.7181 20.3395 26.6644 20.8725 27.5512L19.256 29.4083C18.8861 29.8332 18.9162 30.4569 19.3261 30.8473L22.4977 33.8667C22.907 34.2566 23.5593 34.2853 24.0048 33.9336L25.9577 32.3881C26.8891 32.8949 27.8807 33.2942 28.9111 33.5771L29.1567 36.0229C29.2104 36.5756 29.6908 37.0021 30.2725 37.0125H34.7662C35.3484 37.0021 35.8284 36.5756 35.882 36.0229L36.1282 33.5896C37.1619 33.3104 38.1562 32.91 39.087 32.3985L41.0345 33.9351C41.48 34.2864 42.1328 34.2572 42.5415 33.8673L45.7137 30.8468C46.1241 30.4564 46.1548 29.8326 45.7849 29.4073L44.1679 27.547C44.6987 26.6597 45.1173 25.715 45.4144 24.7338L47.9031 24.4989C48.4722 24.443 48.9012 23.9806 48.8898 23.4352V19.1542C48.9012 18.6082 48.4711 18.1452 47.9015 18.0899L45.3668 17.855C45.0768 16.8712 44.6604 15.9249 44.1268 15.0381L45.7438 13.1815C46.1121 12.7588 46.0842 12.1382 45.6793 11.7472L42.5459 8.72779C42.1372 8.33425 41.4816 8.30345 41.0345 8.65681L39.0815 10.2018C38.1502 9.69444 37.1586 9.29515 36.1282 9.01225L35.8825 6.58417C35.8273 6.03508 35.3446 5.61491 34.7662 5.6123H30.2725C29.6941 5.61544 29.212 6.03508 29.1567 6.58417L28.9111 9.0086C27.8774 9.28627 26.8831 9.68504 25.9517 10.1955L24.0048 8.65577C23.5593 8.30397 22.907 8.33268 22.4977 8.72257L19.325 11.742C18.9151 12.1324 18.8845 12.7562 19.2539 13.181L20.872 15.0423C20.3406 15.9291 19.9226 16.8733 19.626 17.8545L17.0995 18.0899C16.5293 18.1447 16.0986 18.6077 16.1096 19.1542V23.4352C16.0986 23.9811 16.5287 24.4441 17.0984 24.4989ZM18.351 20.125L20.6487 19.911C21.1286 19.8656 21.5226 19.5289 21.6227 19.079C21.9171 17.8159 22.4479 16.6139 23.1894 15.5308C23.4564 15.1378 23.4247 14.6252 23.1101 14.2651L21.6331 12.5683L23.3596 10.9241L25.1408 12.3329C25.5205 12.6335 26.0623 12.6612 26.4738 12.4018C27.6027 11.6883 28.8618 11.183 30.1861 10.9127C30.6638 10.8124 31.0195 10.4293 31.066 9.9648L31.2892 7.75019H33.7489L33.9733 9.96428C34.0204 10.4288 34.3771 10.8114 34.856 10.9095C36.1813 11.1898 37.4426 11.6971 38.5786 12.407C38.989 12.6586 39.5231 12.6283 39.8996 12.3313L41.6753 10.9267L43.3733 12.5625L41.8937 14.2646C41.5779 14.6284 41.5495 15.1462 41.8236 15.5392C42.5727 16.6139 43.1041 17.8128 43.3897 19.0743C43.4822 19.5247 43.8735 19.8645 44.3528 19.9105L46.6484 20.125V22.4654L44.3895 22.6794C43.9101 22.7248 43.5167 23.0614 43.4165 23.5114C43.1221 24.7739 42.5913 25.9755 41.8493 27.058C41.5828 27.451 41.6146 27.9641 41.9292 28.3237L43.4061 30.0216L41.6791 31.6657L39.8985 30.257C39.5182 29.9563 38.977 29.9287 38.565 30.1881C37.4361 30.9016 36.1769 31.4068 34.8527 31.6772C34.3728 31.7852 34.0187 32.1741 33.9733 32.6428L33.7489 34.8741H31.2892L31.0654 32.6428C31.0189 32.1756 30.6627 31.7905 30.1828 31.6887C28.8569 31.4063 27.5956 30.8974 26.4601 30.1865C26.0502 29.9339 25.5156 29.9636 25.1391 30.2601L23.3579 31.6678L21.6309 30.0231L23.1062 28.3253C23.422 27.9615 23.4504 27.4437 23.1763 27.0507C22.4271 25.976 21.8963 24.7771 21.6102 23.5155C21.5177 23.0646 21.1264 22.7248 20.6476 22.6789L18.3499 22.4654L18.351 20.125Z" fill="url(#paint1_linear_2530_2715)"/>
<path d="M32.5021 29.4982C37.2513 29.493 41.0971 25.8175 41.0928 21.2875C41.0889 16.7581 37.2371 13.0883 32.4884 13.0898C27.7392 13.0919 23.8906 16.7643 23.8906 21.2943C23.8983 25.8263 27.7512 29.4967 32.5021 29.4982ZM32.5021 15.2288C36.0136 15.2345 38.8558 17.9528 38.8514 21.3021C38.8476 24.6509 35.9993 27.3635 32.4884 27.3614C28.977 27.3598 26.132 24.6441 26.132 21.2953C26.1386 17.9439 28.9884 15.2298 32.5021 15.2288Z" fill="url(#paint2_linear_2530_2715)"/>
</g>
<defs>
<linearGradient id="paint0_linear_2530_2715" x1="1.0113" y1="31" x2="64.442" y2="31" gradientUnits="userSpaceOnUse">
<stop stop-color="#3793AE"/>
<stop offset="1" stop-color="#074287"/>
</linearGradient>
<linearGradient id="paint1_linear_2530_2715" x1="16.3397" y1="21.3124" x2="48.89" y2="21.3124" gradientUnits="userSpaceOnUse">
<stop stop-color="#3793AE"/>
<stop offset="1" stop-color="#074287"/>
</linearGradient>
<linearGradient id="paint2_linear_2530_2715" x1="24.0115" y1="21.294" x2="41.0928" y2="21.294" gradientUnits="userSpaceOnUse">
<stop stop-color="#3793AE"/>
<stop offset="1" stop-color="#074287"/>
</linearGradient>
<clipPath id="clip0_2530_2715">
<rect width="65" height="62" fill="white"/>
</clipPath>
</defs>
</svg>
