<svg width="68" height="71" viewBox="0 0 68 71" fill="none" xmlns="http://www.w3.org/2000/svg">
<path d="M33.3889 0.11364C33.3889 0.170372 33.2531 0.351921 33.0946 0.510773C32.7437 0.862518 32.7437 1.46388 33.1172 1.64543C33.3436 1.7589 33.3436 1.77024 33.1399 2.09929C32.8909 2.51911 32.8796 2.98432 33.1059 3.2226C33.3436 3.46088 33.1286 3.91474 32.8456 3.78993C32.1326 3.47223 30.7178 3.7105 29.9029 4.31187C29.2011 4.82246 28.9182 5.43518 28.9295 6.46772C28.9295 7.1712 28.9861 7.45487 29.2804 8.11297C30.05 9.849 30.4235 10.734 30.4914 10.961C30.5593 11.1652 30.3782 11.3808 29.4049 12.2204C27.8203 13.6047 27.3336 13.8657 25.6698 14.2288C25.2511 14.3195 25.2624 14.1947 25.7604 12.9012C26.2584 11.6418 26.3263 10.8475 25.9641 10.3596C25.6811 9.96246 25.0586 9.64476 24.3682 9.55398C23.8476 9.47456 23.825 9.46321 23.757 9.02069C23.7005 8.69165 23.7231 8.5101 23.8476 8.37394C24.0626 8.12432 23.9947 7.20525 23.7344 6.94427C23.6325 6.8535 23.3156 6.74004 23.0327 6.69465C22.5686 6.62657 22.4668 6.64926 22.2291 6.88754C22.014 7.10313 21.9574 7.28467 21.9574 7.70449C21.9574 8.06758 22.014 8.28317 22.1159 8.31721C22.2404 8.36259 22.2404 8.47606 22.1272 8.92992L21.9914 9.47456L21.3802 9.54264C19.6146 9.75822 19.2184 10.6092 19.9315 12.7083C20.1352 13.3324 20.271 13.8657 20.2371 13.8997C20.2031 13.9338 19.7617 13.8316 19.2524 13.6728C17.7923 13.1962 17.7357 12.9353 18.6072 10.6886C19.5014 8.39663 19.4335 7.54564 18.279 6.94427C17.4528 6.51311 15.8908 6.33156 15.2231 6.58118C15.0646 6.63792 14.5327 7.09178 14.0573 7.57968C13.2424 8.41933 13.1292 8.49875 12.2237 8.79376C10.99 9.1909 10.7297 9.44052 10.6618 10.2575C10.6165 10.8361 10.6392 10.9269 11.0806 11.585C11.6691 12.4701 11.6691 12.5949 11.0919 12.5949C10.5147 12.5949 9.90348 12.8445 9.74503 13.1395C9.56394 13.4799 9.59789 14.104 9.80162 14.6372C10.0053 15.1592 10.1412 15.1932 10.5826 14.8415C10.7863 14.6826 11.1145 14.5805 11.5107 14.5465L12.1105 14.4897L11.9974 14.7961C11.5446 16.0102 12.3256 16.9973 13.8988 17.2016C14.5892 17.2923 14.6458 17.1902 14.2044 16.5435C14.046 16.3165 13.9215 16.0783 13.9215 16.0102C13.9215 15.9534 14.1026 15.5336 14.3176 15.0798C14.9062 13.843 14.8835 13.287 14.1478 11.8233C13.514 10.5752 13.514 10.3256 14.0912 9.93977C14.4761 9.67879 15.5739 9.30436 15.9248 9.30436C16.3096 9.30436 16.3436 9.51994 16.1398 10.6319C15.8682 12.1297 16.0833 12.9806 16.9321 13.7295C17.4301 14.1607 18.4714 14.6713 19.2524 14.8755C19.558 14.9549 19.807 15.0571 19.807 15.1025C19.807 15.2159 19.06 15.4315 18.7091 15.4315C18.2111 15.4315 17.2151 15.8967 16.8755 16.2825C16.2983 16.9406 16.2757 17.7462 16.8076 18.9149C17.1245 19.6184 17.249 19.6411 18.1319 19.2439C18.9807 18.8582 19.2071 18.8128 19.5919 18.8922C20.0333 18.9943 19.9881 19.0284 18.7317 19.5957C17.1924 20.2992 16.7171 20.2878 15.7437 19.5617C15.3589 19.2666 15.0193 19.0511 14.9967 19.0737C14.9062 19.1645 15.1665 20.2084 15.3815 20.6396C15.506 20.8779 15.8003 21.1956 16.0153 21.3317C16.3775 21.5586 16.536 21.5813 17.2943 21.536C17.9055 21.4906 18.3695 21.3885 18.8336 21.1729C19.1958 21.014 19.524 20.8779 19.5466 20.8779C19.5806 20.8779 19.5693 21.014 19.5353 21.1729C19.4221 21.6154 19.5806 22.4664 19.8183 22.7047C20.1805 23.0677 20.3389 22.9656 20.4182 22.3302C20.52 21.57 20.7351 21.1842 21.1991 20.8892C21.7424 20.5488 22.297 20.5942 23.1232 21.014C23.542 21.2296 24.04 21.3771 24.3569 21.3998C25.0586 21.4452 25.4095 21.6381 26.0433 22.3189C26.6885 23.011 27.0959 23.7031 27.3336 24.5428C27.5487 25.2803 27.5034 25.7796 27.1638 26.4377C26.7224 27.2887 26.1339 27.5723 24.7757 27.5723C24.2777 27.5723 23.8815 27.595 23.8815 27.6291C23.8815 27.7993 24.255 28.5481 24.4248 28.741C24.6738 29.0247 25.3982 29.3878 25.6925 29.3878C26.0207 29.3878 25.9754 29.6601 25.568 30.0005C25.319 30.2047 25.0926 30.2955 24.7757 30.2955C24.2098 30.2955 23.9495 30.1707 23.3496 29.592C23.1006 29.3424 22.8403 29.1608 22.7724 29.2062C22.5686 29.331 22.3875 30.2955 22.4328 30.965C22.4894 31.7706 22.8969 32.3833 23.5533 32.6669C24.074 32.8825 24.0966 32.996 23.6891 33.3818C22.512 34.471 19.7843 33.8129 19.3429 32.3379C19.1618 31.7479 19.3316 31.294 20.0447 30.4544C21.1199 29.1949 21.267 28.6162 20.7577 27.595C20.5313 27.1412 19.8409 26.4036 17.7697 24.4066C16.287 22.977 14.8722 21.6948 14.6232 21.57C13.8875 21.1956 12.3256 19.2666 11.9747 18.2908C11.8502 17.9731 11.7936 17.9277 11.4201 17.9277C11.1372 17.9277 10.8882 17.837 10.7071 17.6668C10.0959 17.1221 6.55328 12.175 5.98736 11.0631C5.65913 10.439 5.3875 9.90573 5.35354 9.88303C5.3309 9.849 5.11586 10.0305 4.86686 10.2688C3.64448 11.4602 3.39548 14.1153 4.35753 15.7038C4.7084 16.2938 5.37618 17.0881 6.90414 18.7674C7.4361 19.3461 7.47006 19.4028 7.13051 19.1645C6.48537 18.722 4.75367 17.2583 3.9048 16.4413C3.14648 15.7152 2.75034 15.4315 2.50134 15.4315C2.28629 15.4315 2.12783 16.2938 2.17311 17.1448C2.21838 18.2114 2.63716 19.1191 3.62185 20.3559C4.28962 21.1956 4.31226 21.2409 4.00667 21.1615C3.04461 20.9232 2.15047 20.7644 1.6751 20.7644C1.14314 20.7644 1.13183 20.7644 1.13183 21.1275C1.13183 21.8196 1.60719 22.6366 2.99934 24.3612L3.29362 24.7357L2.12783 24.713C0.803597 24.6903 0 24.8605 0 25.1669C0 25.5526 0.645141 26.3923 1.6751 27.334C2.25234 27.856 2.71638 28.3212 2.71638 28.3779C2.71638 28.4233 2.29761 28.6049 1.77697 28.7751C0.622505 29.1495 0 29.4559 0 29.6487C0 29.8416 0.803597 30.6019 1.73169 31.2713L2.50134 31.8159L1.99202 32.0769C1.70906 32.2244 1.29028 32.5194 1.07524 32.7464C0.701733 33.1208 0.679096 33.1775 0.826234 33.3931C0.91678 33.5293 1.41478 33.9945 1.93542 34.4143C2.65979 35.0043 2.92011 35.2993 3.04461 35.6397C3.22571 36.1957 3.70107 36.468 4.31226 36.3886C4.66313 36.3432 4.74235 36.3659 4.78763 36.5588C4.88949 36.9105 4.50467 36.9559 3.47471 36.695C3.22571 36.6382 3.06725 36.695 2.73902 36.9559C2.51266 37.1375 2.20706 37.3531 2.05992 37.4325C1.90147 37.5233 1.82224 37.6481 1.8562 37.7615C1.87883 37.8637 1.93542 38.1133 1.9807 38.3175L2.04861 38.6806L1.6751 38.5671C1.47137 38.4991 1.21105 38.4196 1.10919 38.3856C0.950734 38.3402 0.905461 38.3969 0.905461 38.6466C0.905461 39.3841 1.15446 39.872 1.82224 40.5188C2.42211 41.0974 2.49002 41.2109 2.49002 41.6194C2.49002 41.9938 2.55793 42.13 2.8522 42.3796C3.13516 42.6179 3.29362 42.6746 3.58789 42.6292C3.93876 42.5725 3.98403 42.5952 4.19908 43.0377C4.3349 43.2987 4.5839 43.7185 4.76499 43.9795C5.30827 44.7737 7.57192 51.1732 7.58324 51.9221C7.58324 52.2171 7.71906 52.6936 7.94542 53.1702C8.19443 53.7035 8.31893 54.146 8.33025 54.5545C8.35288 55.0991 8.38684 55.1785 8.7377 55.4054C9.11121 55.6664 9.24702 55.9841 9.26966 56.6763C9.26966 56.9599 9.21307 57.0507 8.83957 57.2209C8.34156 57.4478 8.04729 57.8336 7.95674 58.3556C7.90015 58.7413 8.12652 59.0931 9.31493 60.432C9.75635 60.9426 9.84689 61.1241 9.84689 61.4986C9.84689 61.7822 9.90348 61.9524 9.99403 61.9524C10.0619 61.9524 10.4015 62.0659 10.7184 62.202L11.3183 62.463V63.0076C11.3183 63.4955 11.3522 63.575 11.6691 63.7452C11.8729 63.8473 12.2464 64.0969 12.5067 64.2898C13.3103 64.8912 13.4461 64.9479 13.7517 64.7437C14.0686 64.5394 14.2044 64.0288 14.2044 63.053C14.2044 62.4517 14.1705 62.3609 13.8875 62.1226C13.5706 61.873 13.5593 61.8616 13.7404 61.5212C14.1139 60.7951 15.3815 60.1256 17.3169 59.6377C17.9621 59.4789 19.8975 59.1044 21.6179 58.8208C24.5606 58.3442 25.9867 58.0379 26.0773 57.879C26.1112 57.8336 26.0547 57.4819 25.9641 57.0847C25.8736 56.6876 25.8056 56.3245 25.8283 56.2678C25.8509 56.2111 26.1452 56.0295 26.4847 55.8593C27.0393 55.5756 27.6166 54.9743 27.6166 54.6793C27.6166 54.6225 27.3789 54.5771 27.0733 54.5771C26.4621 54.5771 26.1112 54.3843 25.8622 53.8964C25.6246 53.4311 25.6472 53.1702 25.9981 52.7504C26.813 51.7859 28.5334 51.854 29.5067 52.8865C29.8802 53.2836 30.2198 53.9644 30.2198 54.3162C30.2198 54.77 29.7218 55.5076 29.0653 56.0068C28.2504 56.6422 27.9561 57.0847 27.9561 57.6861V58.14L28.273 57.8336C28.5786 57.5386 29.1672 57.3003 29.5407 57.3003C29.9708 57.3117 28.7597 57.9811 26.9601 58.73C26.315 58.991 25.3869 59.4789 24.8776 59.8079C24.0626 60.3525 23.8929 60.4206 23.2364 60.4547L22.5007 60.5001L22.5799 59.8079C22.6252 59.4335 22.6252 59.1158 22.5799 59.1158C22.546 59.1158 22.1385 59.286 21.6745 59.5016C20.6106 59.9895 20.4408 60.2731 20.5087 61.4645C20.5313 61.9524 20.5992 62.3382 20.6785 62.3836C20.7803 62.4517 20.7464 62.7013 20.5427 63.348C20.2257 64.3352 20.1805 65.2656 20.4182 66.0372C20.4974 66.3208 20.5992 66.8314 20.6445 67.1832C20.7237 67.7959 20.7351 67.8186 21.0293 67.7619C21.4594 67.6824 21.6632 67.4668 22.0253 66.7407L22.3423 66.0939L22.4781 66.6499C22.6365 67.2853 23.1119 67.9207 23.6665 68.2498C24.2324 68.5902 25.3416 68.5561 26.1452 68.1817L26.7564 67.898L27.4468 68.6015C28.3296 69.4979 28.9634 69.7248 30.3216 69.6113L31.2158 69.5319L31.9062 70.1673C32.5513 70.7687 32.6306 70.8027 33.1738 70.8027C33.8077 70.8027 34.034 70.712 34.6905 70.1673L35.1432 69.8042L36.275 69.861C37.6219 69.9404 37.8822 69.8383 39.0141 68.8284L39.7158 68.2157L40.327 68.5448C41.0061 68.9079 41.7644 69.0554 42.3869 68.9419C42.9189 68.8398 43.6206 68.1363 44.096 67.2399L44.4582 66.5705L44.6392 67.1378C44.8317 67.7051 45.1033 68.0455 45.5673 68.2838C45.8729 68.4426 45.9522 68.3632 45.9522 67.898C45.9522 67.6938 46.054 67.274 46.1672 66.9676C46.5407 66.0258 46.5634 65.5039 46.2804 64.3579C46.0427 63.3821 46.0427 63.2459 46.1785 62.3495C46.4049 60.8518 46.054 60.1029 44.9562 59.7966C44.2997 59.615 44.2544 59.6377 44.2544 60.1029C44.2544 60.3412 44.2205 60.6589 44.1752 60.7951C44.1186 61.0333 44.062 61.056 43.6998 60.988C43.1566 60.8858 42.3077 60.5001 41.4701 59.9441C41.0853 59.6944 40.1119 59.2065 39.297 58.8435C38.4934 58.4917 37.6672 58.0492 37.4521 57.8677L37.0673 57.5386L37.588 57.6861C37.8822 57.7655 38.2331 57.9244 38.3802 58.0265C38.7537 58.2875 38.8217 58.2534 38.8217 57.8677C38.8217 57.323 38.5387 56.9032 37.7917 56.3245C36.7391 55.5189 36.4675 54.8949 36.7957 54.0439C36.9655 53.5787 37.6672 52.8979 38.3123 52.5688C39.6818 51.8653 40.9721 52.4213 41.1532 53.7942C41.2211 54.2821 41.1985 54.3275 40.8703 54.5658C40.6326 54.736 40.2817 54.8495 39.8403 54.8835C39.4668 54.9175 39.1612 54.997 39.1612 55.0651C39.1612 55.3033 40.2478 56.2337 40.7231 56.3813C40.9834 56.472 41.1985 56.5515 41.1985 56.5515C41.1985 56.5628 41.1193 56.8465 41.0287 57.1869C40.8476 57.8677 40.8137 58.435 40.9495 58.435C41.2098 58.435 44.0394 58.9342 45.4202 59.2292C48.578 59.8987 49.9022 60.3072 51.4981 61.1014C53.2185 61.9524 53.6033 62.0091 54.6106 61.5553C54.9615 61.4078 55.5501 61.2262 55.9349 61.1582C56.829 60.988 57.9722 60.5568 58.6399 60.1256C59.0927 59.842 59.2285 59.6604 59.4888 59.025C59.8397 58.1627 60.1679 57.7655 60.8696 57.323C61.379 56.994 61.6846 56.4947 61.6846 55.9955C61.6846 55.6778 60.4961 53.4085 59.8736 52.5575C59.6925 52.2965 59.2059 51.8653 58.8097 51.593C58.2438 51.2186 58.0967 51.0711 58.1759 50.9462C58.2438 50.8555 58.2891 50.3335 58.2891 49.7889V48.7904L57.9269 48.8698C57.61 48.9379 57.576 48.9152 57.6326 48.6996C57.7005 48.45 57.6779 48.45 56.5234 48.45C55.3463 48.45 55.3463 48.45 55.3463 48.7337C55.3463 48.9833 55.3237 49.006 55.0521 48.9039C54.8936 48.8358 54.7125 48.7904 54.6559 48.7904C54.4861 48.7904 54.5201 51.1732 54.7012 51.1732C54.7691 51.1732 54.5088 51.3547 54.1126 51.5703C53.7165 51.7859 53.2864 52.0469 53.1619 52.1603C52.9016 52.3986 51.2944 54.8381 51.1473 55.2352C51.0907 55.3941 51.068 55.8139 51.1133 56.177C51.1812 56.8011 51.2038 56.8351 51.6113 57.0053C51.8377 57.0961 52.1093 57.3003 52.2225 57.4592L52.4036 57.7542L51.7584 58.0605C50.5134 58.6506 48.9968 58.4463 46.6313 57.3911C45.6805 56.9599 45.2165 56.5968 45.0693 56.1657C44.9335 55.8026 45.058 55.7118 45.2957 56.0068C45.8163 56.6422 46.0653 56.7897 46.0653 56.4493C46.0653 56.2111 46.1219 56.2337 46.8124 56.6309L47.4235 56.9713V56.7103C47.4235 56.5628 47.3669 56.1203 47.3104 55.7232C47.2424 55.326 47.2085 54.9856 47.2311 54.9629C47.2424 54.9402 47.582 55.031 47.9781 55.1445C48.363 55.2693 48.8157 55.3714 48.9628 55.3714C49.3929 55.3714 49.8909 55.0651 50.0833 54.6906C50.321 54.2368 50.2984 54.1233 49.9815 54.1233C49.8343 54.1233 49.574 54.0098 49.4042 53.8737L49.0986 53.6354L49.1892 52.6028C49.3703 50.6285 49.2118 50.0045 48.3516 49.2216C47.8423 48.7564 46.2125 48.1777 44.8882 47.9961C43.8243 47.8373 43.7225 47.8032 43.066 47.3267C42.5001 46.9296 42.5001 46.9069 42.5793 46.4644C42.6246 46.2147 42.6586 45.2843 42.6586 44.4106C42.6699 42.7086 42.6812 42.6633 43.2245 42.6633C43.3376 42.6633 43.6659 42.5384 43.9715 42.3796C44.5147 42.1073 44.5261 42.1073 44.8656 42.3115C45.058 42.4363 45.4315 42.5952 45.7032 42.6746L46.1898 42.8221L46.1106 44.195C46.054 45.3637 46.0653 45.6247 46.2238 45.9424C46.3936 46.2601 47.3217 46.9636 47.8197 47.1565C48.046 47.2473 49.3024 46.2488 49.6532 45.6928L49.9475 45.2276L50.0833 45.7495C50.3437 46.7821 50.7624 47.1338 51.9848 47.3267C52.6413 47.4402 52.6865 47.4288 52.8789 47.1792C53.2524 46.714 53.558 46.0332 53.6373 45.5112L53.7052 45.0006L53.9881 45.5226C54.2145 45.9651 54.339 46.0786 54.8144 46.2261C55.12 46.3282 55.6746 46.4076 56.0367 46.4076H56.6932L56.9422 45.863C57.3836 44.8985 57.4176 44.3085 57.1007 43.4008C57.0554 43.276 57.2365 43.4121 57.5194 43.7071C58.108 44.3425 58.5834 44.5922 59.1719 44.5922C60.4735 44.5922 60.9602 43.7752 60.4848 42.3682C60.3943 42.0846 60.3264 41.8236 60.3603 41.8009C60.383 41.7782 60.6546 41.8577 60.9489 41.9938C61.5827 42.2775 62.2165 42.2321 62.9296 41.869C63.3257 41.6648 63.3823 41.5853 63.3823 41.2449C63.3823 41.0294 63.2578 40.4734 63.1107 39.9968L62.839 39.1458H63.4728C63.9369 39.1458 64.2991 39.055 64.8763 38.7941C65.2951 38.5898 65.646 38.3743 65.646 38.2948C65.646 37.9544 65.3517 37.3304 64.9103 36.763L64.4349 36.139L65.0461 35.8667C65.7365 35.5603 66.6306 34.7434 66.7325 34.3122C66.8231 33.9718 66.5401 33.6314 65.7365 33.1208C65.4422 32.9279 65.1932 32.7464 65.1932 32.7237C65.1932 32.701 65.4535 32.5535 65.7705 32.3946C66.3816 32.0769 67.2079 31.3734 67.5814 30.8401L67.8077 30.5338L67.2645 30.2615C66.9702 30.1026 66.5967 29.9438 66.4382 29.8984C66.2798 29.853 65.8836 29.7168 65.5554 29.592L64.9669 29.3764L66.1326 28.2531C67.3437 27.0958 67.9775 26.3015 67.8643 26.1086C67.6832 25.8136 66.6306 25.6094 65.5214 25.6661L64.4123 25.7228L64.7178 25.3597C64.8876 25.1669 65.2951 24.6676 65.6346 24.2705C66.3364 23.4422 66.7778 22.5798 66.7778 22.0352V21.6494L66.0195 21.7288C65.5894 21.7742 64.8424 21.899 64.333 22.0012L63.4276 22.2054L64.1633 21.4565C64.6839 20.9346 65.0461 20.424 65.363 19.7999C65.7931 18.9376 65.8157 18.8468 65.8044 17.871C65.7931 16.7023 65.7025 16.2258 65.4988 16.2258C65.4083 16.2258 64.9895 16.5321 64.5594 16.9066C63.6992 17.6554 61.0507 19.7659 60.7791 19.9134C60.5301 20.0609 60.8923 19.6297 62.3637 18.0979C64.1859 16.1917 64.6499 15.1251 64.3896 13.4799C64.2312 12.5154 63.4842 10.9383 63.1107 10.7567C62.7598 10.6092 62.8277 10.5411 62.375 11.4602C61.6053 13.0033 59.1266 16.4073 57.6892 17.9051C57.0667 18.5518 56.4782 18.9376 56.4782 18.7107C56.4782 18.6426 55.9575 19.2893 55.3124 20.163C54.1579 21.7175 53.6599 22.2394 53.343 22.2394C53.1959 22.2394 52.5394 22.7841 49.3024 25.598C47.9442 26.7781 47.1293 27.7652 46.801 28.6389C46.5181 29.3764 46.6426 29.853 47.299 30.5678C48.1932 31.5323 48.329 31.7592 48.329 32.2698C48.329 33.1889 47.3783 34.2101 46.3257 34.437C45.8843 34.5278 44.7977 34.2668 44.0281 33.8697C43.7225 33.7108 43.4621 33.552 43.4621 33.5293C43.4621 33.4952 43.7451 33.291 44.096 33.0641C44.7524 32.6442 45.0807 32.2244 45.2957 31.5096C45.4089 31.1351 45.3863 30.965 45.1712 30.2842C44.8882 29.4218 44.8769 29.4105 44.096 29.8076C43.6319 30.0459 42.534 30.4203 42.4661 30.3636C42.4435 30.3295 42.6472 30.0118 42.9302 29.6487C43.4395 28.9906 43.8017 28.3666 43.8017 28.1397C43.8017 28.0829 43.6659 28.0262 43.4961 28.0262C42.8849 28.0148 41.6059 27.6858 41.2438 27.4362C41.04 27.2887 40.7571 26.9823 40.6213 26.744C40.078 25.7682 40.6665 24.157 42.104 22.6706C42.9189 21.8196 42.9755 21.7856 43.4848 21.7856C43.8017 21.7856 44.2431 21.6721 44.6166 21.5019C46.2464 20.7417 47.1406 21.1275 47.4349 22.7614C47.5028 23.1358 47.5707 23.4422 47.5933 23.4649C47.616 23.4876 47.7631 23.4195 47.9215 23.3174C48.295 23.0677 48.4875 22.4664 48.3856 21.8196L48.3064 21.2977L48.6233 21.5019C49.5853 22.1373 49.7325 22.1827 50.5927 22.1827C51.566 22.1827 52.064 21.9558 52.4828 21.3431C52.7318 20.98 53.0487 19.7772 52.9242 19.6638C52.8903 19.6297 52.5394 19.8113 52.1546 20.0609C51.2718 20.6396 50.853 20.7984 50.4795 20.7077C49.9249 20.5715 48.0008 19.5957 48.0687 19.4822C48.1705 19.312 49.0307 19.4595 49.7777 19.7999C50.1626 19.9701 50.5474 20.0836 50.6379 20.0496C51.2378 19.8113 51.7471 18.3589 51.5094 17.5079C51.2491 16.5662 50.6266 16.101 49.3703 15.8967C48.9855 15.84 48.5554 15.6925 48.3969 15.579L48.1366 15.3748L48.8044 15.2386C49.1666 15.1705 49.7438 14.9776 50.0833 14.8188C50.7511 14.5124 51.7584 13.6387 52.0188 13.1395C52.2225 12.7424 52.2112 11.7098 52.0074 10.8361C51.7811 9.89438 51.7924 9.64476 52.0527 9.64476C52.3357 9.64476 54.2485 10.3369 54.339 10.4731C54.4975 10.7 54.554 11.4489 54.4409 11.7439C54.3843 11.9027 54.1579 12.2658 53.9429 12.5495C53.6939 12.8672 53.5014 13.2984 53.4222 13.6841C53.2864 14.3536 53.3656 14.7961 53.8863 15.9648L54.1353 16.5548L53.841 16.9519C53.5014 17.3831 53.4675 17.5873 53.6712 17.7916C54.0108 18.132 54.8823 17.8143 55.6632 17.0541L56.1726 16.5775L56.116 15.8286C56.0481 15.0911 56.0481 15.0911 56.3537 15.0911C56.7837 15.0911 57.361 15.2727 57.5647 15.4769C57.8929 15.8059 58.1419 15.6925 58.3344 15.1251C58.7305 13.9565 58.4589 13.4685 57.2817 13.2416C56.5008 13.0941 56.4216 12.9353 56.863 12.402C57.2931 11.88 57.3949 11.6077 57.4628 10.8021L57.5308 10.0305L56.7498 9.69014C56.3197 9.49725 55.7538 9.24763 55.4935 9.13416C55.2218 9.02069 54.7691 8.6803 54.4748 8.36259C54.1692 8.05624 53.807 7.6818 53.6712 7.53429C52.7205 6.59253 49.9701 6.76273 49.2797 7.80661C48.9402 8.31721 49.0081 9.27032 49.5061 10.7794C50.1852 12.8558 50.1626 13.5253 49.3816 13.9791C48.9741 14.2288 47.9442 14.3763 47.8423 14.2174C47.797 14.1493 47.9215 13.6614 48.114 13.1168C48.3064 12.5722 48.4875 11.7779 48.5214 11.3694L48.5893 10.6092L48.0008 10.2915C47.6612 10.0986 47.1632 9.93977 46.801 9.90573L46.1785 9.83765L46.1559 9.3157C46.1333 8.64626 46.1333 8.56683 46.2351 7.90873C46.3144 7.45487 46.2917 7.37544 46.1333 7.37544C46.0314 7.37544 45.9522 7.29602 45.9522 7.20525C45.9522 7.06909 45.805 7.03505 45.2731 7.03505C44.7411 7.03505 44.594 7.06909 44.594 7.20525C44.594 7.29602 44.5147 7.37544 44.4242 7.37544C44.1978 7.37544 44.1752 8.60087 44.4016 8.69165C44.5261 8.73703 44.5261 8.86184 44.4355 9.29301L44.3337 9.849L43.7225 9.90573C43.3829 9.93977 42.8736 10.11 42.5454 10.2802L41.9681 10.5979L42.0134 11.5169C42.0474 12.1297 42.1605 12.6629 42.353 13.1622C42.851 14.4217 42.851 14.4103 42.4209 14.4103C41.8776 14.399 40.6779 13.9451 39.8969 13.4459C39.1273 12.958 37.8483 11.7666 37.6332 11.3467C37.4521 10.9837 37.5201 10.7681 38.4708 8.8505C39.4781 6.81946 39.546 5.76423 38.7424 4.86785C38.2105 4.27783 37.5766 3.91474 36.6712 3.67646C35.9808 3.50626 35.9242 3.50626 35.5733 3.68781C35.3696 3.80128 35.1659 3.85801 35.1206 3.82397C35.0866 3.77858 35.1206 3.46088 35.1998 3.10914C35.3356 2.54181 35.3356 2.45103 35.1545 2.14468C34.9621 1.82697 34.9621 1.81563 35.1885 1.81563C35.4035 1.81563 35.4262 1.74755 35.4262 1.19157C35.4262 0.646935 35.3809 0.522118 35.1206 0.283844C34.8603 0.0569077 34.6792 0.0115204 34.1019 0.000175476C33.7058 0.000175476 33.3889 0.0455627 33.3889 0.11364ZM35.9695 13.1168C36.2637 13.287 37.0107 13.6728 37.6332 13.9678C38.8669 14.5578 38.9235 14.6599 37.8143 14.2855C37.4295 14.1493 37.09 14.0699 37.056 14.104C36.9202 14.2288 37.3842 15.023 37.9275 15.6017L38.5161 16.2258H38.0407C37.588 16.2258 37.5766 16.2371 37.6446 16.5321C37.7238 16.8725 37.803 16.9633 38.3916 17.2923L38.7651 17.5079L38.0294 17.8597C37.3842 18.166 37.1805 18.2114 36.3316 18.2114C35.7997 18.2001 35.2338 18.166 35.064 18.1206C34.6905 18.0185 34.6452 18.2001 34.9169 18.722C35.0753 19.0284 35.7997 19.5163 36.094 19.5163C36.1505 19.5163 36.3316 19.5617 36.4788 19.6184L36.7617 19.7318L35.9129 21.014C35.4488 21.7175 34.8037 22.8181 34.4868 23.4535C34.1698 24.1003 33.8756 24.6222 33.8303 24.6222C33.7963 24.6222 33.6379 24.3159 33.5021 23.9528C33.3663 23.5783 32.823 22.5231 32.291 21.5927C31.7704 20.6736 31.2837 19.8226 31.2271 19.7092C31.1366 19.539 31.1818 19.4822 31.544 19.3347C32.4947 18.9376 32.7437 18.7787 32.9475 18.4497C33.0607 18.2568 33.1625 18.0639 33.1625 18.0299C33.1625 17.9958 32.5627 17.9731 31.8383 17.9731C30.6159 17.9845 30.4461 17.9618 29.8576 17.6781C29.2011 17.3718 29.0087 17.1335 29.4162 17.1335C29.6991 17.1335 30.1745 16.7364 30.2537 16.4527C30.3216 16.2031 30.2877 16.1804 29.7218 16.0556L29.3822 15.9875L29.9142 15.5223C30.4575 15.0571 30.6951 14.7053 30.8196 14.172L30.8989 13.8657L30.2424 14.138C28.8616 14.7053 29.2238 14.3649 30.8423 13.5707L32.54 12.7424L34.0001 12.7764C35.3356 12.8104 35.4941 12.8331 35.9695 13.1168ZM6.60987 37.2736C6.72305 37.546 6.79096 37.9204 6.76832 38.0906C6.72305 38.3969 6.72305 38.3856 6.59855 37.9658C6.51932 37.7275 6.34955 37.4098 6.21373 37.2623C6.08923 37.1261 6.01 36.9559 6.05527 36.8879C6.20241 36.6269 6.42878 36.7857 6.60987 37.2736ZM7.07392 40.8024C7.19842 40.757 7.17578 40.8365 6.99469 41.0747C6.51932 41.7215 6.62119 43.2987 7.16446 43.5823C7.28896 43.6618 7.74169 43.7185 8.17179 43.7298L8.93011 43.7412L9.63185 43.0604C10.0167 42.6859 10.2883 42.4817 10.243 42.6065C9.90348 43.5256 9.93744 44.3199 10.3789 45.1935L10.6505 45.7382L11.4654 45.6587C12.5293 45.568 12.9255 45.3637 13.3442 44.7283L13.6951 44.195V44.6489C13.6951 45.3637 13.9102 45.9651 14.3176 46.3736C14.6345 46.6913 14.7703 46.748 15.2118 46.748C15.8229 46.748 16.5134 46.4303 16.8416 46.0105C16.9774 45.8403 17.1359 45.4318 17.2151 45.0914L17.3622 44.456L17.566 45.0233C17.7244 45.4659 17.9168 45.6928 18.3922 46.0559C19.2071 46.6686 19.2297 46.6799 19.8183 46.4303C20.9388 45.9424 21.3463 44.9893 21.2104 43.2192L21.1425 42.2434L21.6066 42.1754C21.8669 42.1413 22.263 41.9825 22.4781 41.8123L22.8742 41.5059L23.1459 41.8009C23.293 41.9598 23.5533 42.1186 23.7344 42.1527C23.9042 42.198 24.1758 42.2661 24.3343 42.3115L24.6172 42.4023L24.6512 44.5468L24.6738 46.6913L23.6665 47.1905C22.6479 47.6784 22.1725 47.7465 21.6066 47.4969C21.5047 47.4515 21.3349 47.5082 21.1765 47.6444C21.0407 47.7692 20.6672 47.9167 20.3616 47.9848C19.6259 48.1436 19.0486 48.45 18.5959 48.9266C17.996 49.5506 17.8829 49.9704 17.8829 51.627C17.8829 52.9546 17.8602 53.1248 17.6565 53.329C17.5207 53.4652 17.283 53.556 17.034 53.556H16.6265L16.8076 53.885C17.2264 54.7133 18.03 54.9629 19.0486 54.6112L19.7164 54.3729L19.6372 55.3828C19.5466 56.5288 19.5127 56.5061 20.4521 55.9728C20.9048 55.7118 20.9162 55.7118 20.8596 55.9387C20.769 56.2791 20.9954 56.2111 21.4481 55.7685C21.7877 55.4281 21.8556 55.3941 21.9235 55.553C22.0253 55.8366 21.8443 56.0635 21.1765 56.472C20.4295 56.9145 18.7657 57.4592 17.0227 57.8223C15.4608 58.14 14.8948 58.1627 14.3516 57.9244C13.9781 57.7769 13.9554 57.7201 13.8875 57.1301C13.763 55.9387 13.3669 55.6437 11.9747 55.7685C11.1145 55.848 11.0919 55.848 10.9674 55.553C10.8882 55.3941 10.741 55.2352 10.6279 55.2012C10.4468 55.1445 10.4468 55.1104 10.6052 54.8041C10.8429 54.3048 10.7637 54.0779 10.3223 54.0325C10.0506 54.0098 9.96008 53.9417 9.96008 53.7715C9.96008 53.6581 9.85821 53.3631 9.73371 53.1361C9.60921 52.8979 9.50734 52.6369 9.50734 52.5575C9.50734 52.3873 7.24369 46.9636 6.82492 46.1353C6.45141 45.3864 6.24768 44.8078 6.05527 43.9114C5.96473 43.5029 5.86286 43.0377 5.81759 42.8675C5.71572 42.4136 5.85154 41.9938 6.15714 41.8577C6.37218 41.7555 6.44009 41.608 6.49669 41.1655C6.5646 40.689 6.59855 40.6209 6.73437 40.7343C6.82492 40.8138 6.98337 40.8478 7.07392 40.8024Z" fill="url(#paint0_linear_1176_1932)"/>
<path d="M33.3889 0.11364C33.3889 0.170372 33.2531 0.351921 33.0946 0.510773C32.7437 0.862518 32.7437 1.46388 33.1172 1.64543C33.3436 1.7589 33.3436 1.77024 33.1399 2.09929C32.8909 2.51911 32.8796 2.98432 33.1059 3.2226C33.3436 3.46088 33.1286 3.91474 32.8456 3.78993C32.1326 3.47223 30.7178 3.7105 29.9029 4.31187C29.2011 4.82246 28.9182 5.43518 28.9295 6.46772C28.9295 7.1712 28.9861 7.45487 29.2804 8.11297C30.05 9.849 30.4235 10.734 30.4914 10.961C30.5593 11.1652 30.3782 11.3808 29.4049 12.2204C27.8203 13.6047 27.3336 13.8657 25.6698 14.2288C25.2511 14.3195 25.2624 14.1947 25.7604 12.9012C26.2584 11.6418 26.3263 10.8475 25.9641 10.3596C25.6811 9.96246 25.0586 9.64476 24.3682 9.55398C23.8476 9.47456 23.825 9.46321 23.757 9.02069C23.7005 8.69165 23.7231 8.5101 23.8476 8.37394C24.0626 8.12432 23.9947 7.20525 23.7344 6.94427C23.6325 6.8535 23.3156 6.74004 23.0327 6.69465C22.5686 6.62657 22.4668 6.64926 22.2291 6.88754C22.014 7.10313 21.9574 7.28467 21.9574 7.70449C21.9574 8.06758 22.014 8.28317 22.1159 8.31721C22.2404 8.36259 22.2404 8.47606 22.1272 8.92992L21.9914 9.47456L21.3802 9.54264C19.6146 9.75822 19.2184 10.6092 19.9315 12.7083C20.1352 13.3324 20.271 13.8657 20.2371 13.8997C20.2031 13.9338 19.7617 13.8316 19.2524 13.6728C17.7923 13.1962 17.7357 12.9353 18.6072 10.6886C19.5014 8.39663 19.4335 7.54564 18.279 6.94427C17.4528 6.51311 15.8908 6.33156 15.2231 6.58118C15.0646 6.63792 14.5327 7.09178 14.0573 7.57968C13.2424 8.41933 13.1292 8.49875 12.2237 8.79376C10.99 9.1909 10.7297 9.44052 10.6618 10.2575C10.6165 10.8361 10.6392 10.9269 11.0806 11.585C11.6691 12.4701 11.6691 12.5949 11.0919 12.5949C10.5147 12.5949 9.90348 12.8445 9.74503 13.1395C9.56394 13.4799 9.59789 14.104 9.80162 14.6372C10.0053 15.1592 10.1412 15.1932 10.5826 14.8415C10.7863 14.6826 11.1145 14.5805 11.5107 14.5465L12.1105 14.4897L11.9974 14.7961C11.5446 16.0102 12.3256 16.9973 13.8988 17.2016C14.5892 17.2923 14.6458 17.1902 14.2044 16.5435C14.046 16.3165 13.9215 16.0783 13.9215 16.0102C13.9215 15.9534 14.1026 15.5336 14.3176 15.0798C14.9062 13.843 14.8835 13.287 14.1478 11.8233C13.514 10.5752 13.514 10.3256 14.0912 9.93977C14.4761 9.67879 15.5739 9.30436 15.9248 9.30436C16.3096 9.30436 16.3436 9.51994 16.1398 10.6319C15.8682 12.1297 16.0833 12.9806 16.9321 13.7295C17.4301 14.1607 18.4714 14.6713 19.2524 14.8755C19.558 14.9549 19.807 15.0571 19.807 15.1025C19.807 15.2159 19.06 15.4315 18.7091 15.4315C18.2111 15.4315 17.2151 15.8967 16.8755 16.2825C16.2983 16.9406 16.2757 17.7462 16.8076 18.9149C17.1245 19.6184 17.249 19.6411 18.1319 19.2439C18.9807 18.8582 19.2071 18.8128 19.5919 18.8922C20.0333 18.9943 19.9881 19.0284 18.7317 19.5957C17.1924 20.2992 16.7171 20.2878 15.7437 19.5617C15.3589 19.2666 15.0193 19.0511 14.9967 19.0737C14.9062 19.1645 15.1665 20.2084 15.3815 20.6396C15.506 20.8779 15.8003 21.1956 16.0153 21.3317C16.3775 21.5586 16.536 21.5813 17.2943 21.536C17.9055 21.4906 18.3695 21.3885 18.8336 21.1729C19.1958 21.014 19.524 20.8779 19.5466 20.8779C19.5806 20.8779 19.5693 21.014 19.5353 21.1729C19.4221 21.6154 19.5806 22.4664 19.8183 22.7047C20.1805 23.0677 20.3389 22.9656 20.4182 22.3302C20.52 21.57 20.7351 21.1842 21.1991 20.8892C21.7424 20.5488 22.297 20.5942 23.1232 21.014C23.542 21.2296 24.04 21.3771 24.3569 21.3998C25.0586 21.4452 25.4095 21.6381 26.0433 22.3189C26.6885 23.011 27.0959 23.7031 27.3336 24.5428C27.5487 25.2803 27.5034 25.7796 27.1638 26.4377C26.7224 27.2887 26.1339 27.5723 24.7757 27.5723C24.2777 27.5723 23.8815 27.595 23.8815 27.6291C23.8815 27.7993 24.255 28.5481 24.4248 28.741C24.6738 29.0247 25.3982 29.3878 25.6925 29.3878C26.0207 29.3878 25.9754 29.6601 25.568 30.0005C25.319 30.2047 25.0926 30.2955 24.7757 30.2955C24.2098 30.2955 23.9495 30.1707 23.3496 29.592C23.1006 29.3424 22.8403 29.1608 22.7724 29.2062C22.5686 29.331 22.3875 30.2955 22.4328 30.965C22.4894 31.7706 22.8969 32.3833 23.5533 32.6669C24.074 32.8825 24.0966 32.996 23.6891 33.3818C22.512 34.471 19.7843 33.8129 19.3429 32.3379C19.1618 31.7479 19.3316 31.294 20.0447 30.4544C21.1199 29.1949 21.267 28.6162 20.7577 27.595C20.5313 27.1412 19.8409 26.4036 17.7697 24.4066C16.287 22.977 14.8722 21.6948 14.6232 21.57C13.8875 21.1956 12.3256 19.2666 11.9747 18.2908C11.8502 17.9731 11.7936 17.9277 11.4201 17.9277C11.1372 17.9277 10.8882 17.837 10.7071 17.6668C10.0959 17.1221 6.55328 12.175 5.98736 11.0631C5.65913 10.439 5.3875 9.90573 5.35354 9.88303C5.3309 9.849 5.11586 10.0305 4.86686 10.2688C3.64448 11.4602 3.39548 14.1153 4.35753 15.7038C4.7084 16.2938 5.37618 17.0881 6.90414 18.7674C7.4361 19.3461 7.47006 19.4028 7.13051 19.1645C6.48537 18.722 4.75367 17.2583 3.9048 16.4413C3.14648 15.7152 2.75034 15.4315 2.50134 15.4315C2.28629 15.4315 2.12783 16.2938 2.17311 17.1448C2.21838 18.2114 2.63716 19.1191 3.62185 20.3559C4.28962 21.1956 4.31226 21.2409 4.00667 21.1615C3.04461 20.9232 2.15047 20.7644 1.6751 20.7644C1.14314 20.7644 1.13183 20.7644 1.13183 21.1275C1.13183 21.8196 1.60719 22.6366 2.99934 24.3612L3.29362 24.7357L2.12783 24.713C0.803597 24.6903 0 24.8605 0 25.1669C0 25.5526 0.645141 26.3923 1.6751 27.334C2.25234 27.856 2.71638 28.3212 2.71638 28.3779C2.71638 28.4233 2.29761 28.6049 1.77697 28.7751C0.622505 29.1495 0 29.4559 0 29.6487C0 29.8416 0.803597 30.6019 1.73169 31.2713L2.50134 31.8159L1.99202 32.0769C1.70906 32.2244 1.29028 32.5194 1.07524 32.7464C0.701733 33.1208 0.679096 33.1775 0.826234 33.3931C0.91678 33.5293 1.41478 33.9945 1.93542 34.4143C2.65979 35.0043 2.92011 35.2993 3.04461 35.6397C3.22571 36.1957 3.70107 36.468 4.31226 36.3886C4.66313 36.3432 4.74235 36.3659 4.78763 36.5588C4.88949 36.9105 4.50467 36.9559 3.47471 36.695C3.22571 36.6382 3.06725 36.695 2.73902 36.9559C2.51266 37.1375 2.20706 37.3531 2.05992 37.4325C1.90147 37.5233 1.82224 37.6481 1.8562 37.7615C1.87883 37.8637 1.93542 38.1133 1.9807 38.3175L2.04861 38.6806L1.6751 38.5671C1.47137 38.4991 1.21105 38.4196 1.10919 38.3856C0.950734 38.3402 0.905461 38.3969 0.905461 38.6466C0.905461 39.3841 1.15446 39.872 1.82224 40.5188C2.42211 41.0974 2.49002 41.2109 2.49002 41.6194C2.49002 41.9938 2.55793 42.13 2.8522 42.3796C3.13516 42.6179 3.29362 42.6746 3.58789 42.6292C3.93876 42.5725 3.98403 42.5952 4.19908 43.0377C4.3349 43.2987 4.5839 43.7185 4.76499 43.9795C5.30827 44.7737 7.57192 51.1732 7.58324 51.9221C7.58324 52.2171 7.71906 52.6936 7.94542 53.1702C8.19443 53.7035 8.31893 54.146 8.33025 54.5545C8.35288 55.0991 8.38684 55.1785 8.7377 55.4054C9.11121 55.6664 9.24702 55.9841 9.26966 56.6763C9.26966 56.9599 9.21307 57.0507 8.83957 57.2209C8.34156 57.4478 8.04729 57.8336 7.95674 58.3556C7.90015 58.7413 8.12652 59.0931 9.31493 60.432C9.75635 60.9426 9.84689 61.1241 9.84689 61.4986C9.84689 61.7822 9.90348 61.9524 9.99403 61.9524C10.0619 61.9524 10.4015 62.0659 10.7184 62.202L11.3183 62.463V63.0076C11.3183 63.4955 11.3522 63.575 11.6691 63.7452C11.8729 63.8473 12.2464 64.0969 12.5067 64.2898C13.3103 64.8912 13.4461 64.9479 13.7517 64.7437C14.0686 64.5394 14.2044 64.0288 14.2044 63.053C14.2044 62.4517 14.1705 62.3609 13.8875 62.1226C13.5706 61.873 13.5593 61.8616 13.7404 61.5212C14.1139 60.7951 15.3815 60.1256 17.3169 59.6377C17.9621 59.4789 19.8975 59.1044 21.6179 58.8208C24.5606 58.3442 25.9867 58.0379 26.0773 57.879C26.1112 57.8336 26.0547 57.4819 25.9641 57.0847C25.8736 56.6876 25.8056 56.3245 25.8283 56.2678C25.8509 56.2111 26.1452 56.0295 26.4847 55.8593C27.0393 55.5756 27.6166 54.9743 27.6166 54.6793C27.6166 54.6225 27.3789 54.5771 27.0733 54.5771C26.4621 54.5771 26.1112 54.3843 25.8622 53.8964C25.6246 53.4311 25.6472 53.1702 25.9981 52.7504C26.813 51.7859 28.5334 51.854 29.5067 52.8865C29.8802 53.2836 30.2198 53.9644 30.2198 54.3162C30.2198 54.77 29.7218 55.5076 29.0653 56.0068C28.2504 56.6422 27.9561 57.0847 27.9561 57.6861V58.14L28.273 57.8336C28.5786 57.5386 29.1672 57.3003 29.5407 57.3003C29.9708 57.3117 28.7597 57.9811 26.9601 58.73C26.315 58.991 25.3869 59.4789 24.8776 59.8079C24.0626 60.3525 23.8929 60.4206 23.2364 60.4547L22.5007 60.5001L22.5799 59.8079C22.6252 59.4335 22.6252 59.1158 22.5799 59.1158C22.546 59.1158 22.1385 59.286 21.6745 59.5016C20.6106 59.9895 20.4408 60.2731 20.5087 61.4645C20.5313 61.9524 20.5992 62.3382 20.6785 62.3836C20.7803 62.4517 20.7464 62.7013 20.5427 63.348C20.2257 64.3352 20.1805 65.2656 20.4182 66.0372C20.4974 66.3208 20.5992 66.8314 20.6445 67.1832C20.7237 67.7959 20.7351 67.8186 21.0293 67.7619C21.4594 67.6824 21.6632 67.4668 22.0253 66.7407L22.3423 66.0939L22.4781 66.6499C22.6365 67.2853 23.1119 67.9207 23.6665 68.2498C24.2324 68.5902 25.3416 68.5561 26.1452 68.1817L26.7564 67.898L27.4468 68.6015C28.3296 69.4979 28.9634 69.7248 30.3216 69.6113L31.2158 69.5319L31.9062 70.1673C32.5513 70.7687 32.6306 70.8027 33.1738 70.8027C33.8077 70.8027 34.034 70.712 34.6905 70.1673L35.1432 69.8042L36.275 69.861C37.6219 69.9404 37.8822 69.8383 39.0141 68.8284L39.7158 68.2157L40.327 68.5448C41.0061 68.9079 41.7644 69.0554 42.3869 68.9419C42.9189 68.8398 43.6206 68.1363 44.096 67.2399L44.4582 66.5705L44.6392 67.1378C44.8317 67.7051 45.1033 68.0455 45.5673 68.2838C45.8729 68.4426 45.9522 68.3632 45.9522 67.898C45.9522 67.6938 46.054 67.274 46.1672 66.9676C46.5407 66.0258 46.5634 65.5039 46.2804 64.3579C46.0427 63.3821 46.0427 63.2459 46.1785 62.3495C46.4049 60.8518 46.054 60.1029 44.9562 59.7966C44.2997 59.615 44.2544 59.6377 44.2544 60.1029C44.2544 60.3412 44.2205 60.6589 44.1752 60.7951C44.1186 61.0333 44.062 61.056 43.6998 60.988C43.1566 60.8858 42.3077 60.5001 41.4701 59.9441C41.0853 59.6944 40.1119 59.2065 39.297 58.8435C38.4934 58.4917 37.6672 58.0492 37.4521 57.8677L37.0673 57.5386L37.588 57.6861C37.8822 57.7655 38.2331 57.9244 38.3802 58.0265C38.7537 58.2875 38.8217 58.2534 38.8217 57.8677C38.8217 57.323 38.5387 56.9032 37.7917 56.3245C36.7391 55.5189 36.4675 54.8949 36.7957 54.0439C36.9655 53.5787 37.6672 52.8979 38.3123 52.5688C39.6818 51.8653 40.9721 52.4213 41.1532 53.7942C41.2211 54.2821 41.1985 54.3275 40.8703 54.5658C40.6326 54.736 40.2817 54.8495 39.8403 54.8835C39.4668 54.9175 39.1612 54.997 39.1612 55.0651C39.1612 55.3033 40.2478 56.2337 40.7231 56.3813C40.9834 56.472 41.1985 56.5515 41.1985 56.5515C41.1985 56.5628 41.1193 56.8465 41.0287 57.1869C40.8476 57.8677 40.8137 58.435 40.9495 58.435C41.2098 58.435 44.0394 58.9342 45.4202 59.2292C48.578 59.8987 49.9022 60.3072 51.4981 61.1014C53.2185 61.9524 53.6033 62.0091 54.6106 61.5553C54.9615 61.4078 55.5501 61.2262 55.9349 61.1582C56.829 60.988 57.9722 60.5568 58.6399 60.1256C59.0927 59.842 59.2285 59.6604 59.4888 59.025C59.8397 58.1627 60.1679 57.7655 60.8696 57.323C61.379 56.994 61.6846 56.4947 61.6846 55.9955C61.6846 55.6778 60.4961 53.4085 59.8736 52.5575C59.6925 52.2965 59.2059 51.8653 58.8097 51.593C58.2438 51.2186 58.0967 51.0711 58.1759 50.9462C58.2438 50.8555 58.2891 50.3335 58.2891 49.7889V48.7904L57.9269 48.8698C57.61 48.9379 57.576 48.9152 57.6326 48.6996C57.7005 48.45 57.6779 48.45 56.5234 48.45C55.3463 48.45 55.3463 48.45 55.3463 48.7337C55.3463 48.9833 55.3237 49.006 55.0521 48.9039C54.8936 48.8358 54.7125 48.7904 54.6559 48.7904C54.4861 48.7904 54.5201 51.1732 54.7012 51.1732C54.7691 51.1732 54.5088 51.3547 54.1126 51.5703C53.7165 51.7859 53.2864 52.0469 53.1619 52.1603C52.9016 52.3986 51.2944 54.8381 51.1473 55.2352C51.0907 55.3941 51.068 55.8139 51.1133 56.177C51.1812 56.8011 51.2038 56.8351 51.6113 57.0053C51.8377 57.0961 52.1093 57.3003 52.2225 57.4592L52.4036 57.7542L51.7584 58.0605C50.5134 58.6506 48.9968 58.4463 46.6313 57.3911C45.6805 56.9599 45.2165 56.5968 45.0693 56.1657C44.9335 55.8026 45.058 55.7118 45.2957 56.0068C45.8163 56.6422 46.0653 56.7897 46.0653 56.4493C46.0653 56.2111 46.1219 56.2337 46.8124 56.6309L47.4235 56.9713V56.7103C47.4235 56.5628 47.3669 56.1203 47.3104 55.7232C47.2424 55.326 47.2085 54.9856 47.2311 54.9629C47.2424 54.9402 47.582 55.031 47.9781 55.1445C48.363 55.2693 48.8157 55.3714 48.9628 55.3714C49.3929 55.3714 49.8909 55.0651 50.0833 54.6906C50.321 54.2368 50.2984 54.1233 49.9815 54.1233C49.8343 54.1233 49.574 54.0098 49.4042 53.8737L49.0986 53.6354L49.1892 52.6028C49.3703 50.6285 49.2118 50.0045 48.3516 49.2216C47.8423 48.7564 46.2125 48.1777 44.8882 47.9961C43.8243 47.8373 43.7225 47.8032 43.066 47.3267C42.5001 46.9296 42.5001 46.9069 42.5793 46.4644C42.6246 46.2147 42.6586 45.2843 42.6586 44.4106C42.6699 42.7086 42.6812 42.6633 43.2245 42.6633C43.3376 42.6633 43.6659 42.5384 43.9715 42.3796C44.5147 42.1073 44.5261 42.1073 44.8656 42.3115C45.058 42.4363 45.4315 42.5952 45.7032 42.6746L46.1898 42.8221L46.1106 44.195C46.054 45.3637 46.0653 45.6247 46.2238 45.9424C46.3936 46.2601 47.3217 46.9636 47.8197 47.1565C48.046 47.2473 49.3024 46.2488 49.6532 45.6928L49.9475 45.2276L50.0833 45.7495C50.3437 46.7821 50.7624 47.1338 51.9848 47.3267C52.6413 47.4402 52.6865 47.4288 52.8789 47.1792C53.2524 46.714 53.558 46.0332 53.6373 45.5112L53.7052 45.0006L53.9881 45.5226C54.2145 45.9651 54.339 46.0786 54.8144 46.2261C55.12 46.3282 55.6746 46.4076 56.0367 46.4076H56.6932L56.9422 45.863C57.3836 44.8985 57.4176 44.3085 57.1007 43.4008C57.0554 43.276 57.2365 43.4121 57.5194 43.7071C58.108 44.3425 58.5834 44.5922 59.1719 44.5922C60.4735 44.5922 60.9602 43.7752 60.4848 42.3682C60.3943 42.0846 60.3264 41.8236 60.3603 41.8009C60.383 41.7782 60.6546 41.8577 60.9489 41.9938C61.5827 42.2775 62.2165 42.2321 62.9296 41.869C63.3257 41.6648 63.3823 41.5853 63.3823 41.2449C63.3823 41.0294 63.2578 40.4734 63.1107 39.9968L62.839 39.1458H63.4728C63.9369 39.1458 64.2991 39.055 64.8763 38.7941C65.2951 38.5898 65.646 38.3743 65.646 38.2948C65.646 37.9544 65.3517 37.3304 64.9103 36.763L64.4349 36.139L65.0461 35.8667C65.7365 35.5603 66.6306 34.7434 66.7325 34.3122C66.8231 33.9718 66.5401 33.6314 65.7365 33.1208C65.4422 32.9279 65.1932 32.7464 65.1932 32.7237C65.1932 32.701 65.4535 32.5535 65.7705 32.3946C66.3816 32.0769 67.2079 31.3734 67.5814 30.8401L67.8077 30.5338L67.2645 30.2615C66.9702 30.1026 66.5967 29.9438 66.4382 29.8984C66.2798 29.853 65.8836 29.7168 65.5554 29.592L64.9669 29.3764L66.1326 28.2531C67.3437 27.0958 67.9775 26.3015 67.8643 26.1086C67.6832 25.8136 66.6306 25.6094 65.5214 25.6661L64.4123 25.7228L64.7178 25.3597C64.8876 25.1669 65.2951 24.6676 65.6346 24.2705C66.3364 23.4422 66.7778 22.5798 66.7778 22.0352V21.6494L66.0195 21.7288C65.5894 21.7742 64.8424 21.899 64.333 22.0012L63.4276 22.2054L64.1633 21.4565C64.6839 20.9346 65.0461 20.424 65.363 19.7999C65.7931 18.9376 65.8157 18.8468 65.8044 17.871C65.7931 16.7023 65.7025 16.2258 65.4988 16.2258C65.4083 16.2258 64.9895 16.5321 64.5594 16.9066C63.6992 17.6554 61.0507 19.7659 60.7791 19.9134C60.5301 20.0609 60.8923 19.6297 62.3637 18.0979C64.1859 16.1917 64.6499 15.1251 64.3896 13.4799C64.2312 12.5154 63.4842 10.9383 63.1107 10.7567C62.7598 10.6092 62.8277 10.5411 62.375 11.4602C61.6053 13.0033 59.1266 16.4073 57.6892 17.9051C57.0667 18.5518 56.4782 18.9376 56.4782 18.7107C56.4782 18.6426 55.9575 19.2893 55.3124 20.163C54.1579 21.7175 53.6599 22.2394 53.343 22.2394C53.1959 22.2394 52.5394 22.7841 49.3024 25.598C47.9442 26.7781 47.1293 27.7652 46.801 28.6389C46.5181 29.3764 46.6426 29.853 47.299 30.5678C48.1932 31.5323 48.329 31.7592 48.329 32.2698C48.329 33.1889 47.3783 34.2101 46.3257 34.437C45.8843 34.5278 44.7977 34.2668 44.0281 33.8697C43.7225 33.7108 43.4621 33.552 43.4621 33.5293C43.4621 33.4952 43.7451 33.291 44.096 33.0641C44.7524 32.6442 45.0807 32.2244 45.2957 31.5096C45.4089 31.1351 45.3863 30.965 45.1712 30.2842C44.8882 29.4218 44.8769 29.4105 44.096 29.8076C43.6319 30.0459 42.534 30.4203 42.4661 30.3636C42.4435 30.3295 42.6472 30.0118 42.9302 29.6487C43.4395 28.9906 43.8017 28.3666 43.8017 28.1397C43.8017 28.0829 43.6659 28.0262 43.4961 28.0262C42.8849 28.0148 41.6059 27.6858 41.2438 27.4362C41.04 27.2887 40.7571 26.9823 40.6213 26.744C40.078 25.7682 40.6665 24.157 42.104 22.6706C42.9189 21.8196 42.9755 21.7856 43.4848 21.7856C43.8017 21.7856 44.2431 21.6721 44.6166 21.5019C46.2464 20.7417 47.1406 21.1275 47.4349 22.7614C47.5028 23.1358 47.5707 23.4422 47.5933 23.4649C47.616 23.4876 47.7631 23.4195 47.9215 23.3174C48.295 23.0677 48.4875 22.4664 48.3856 21.8196L48.3064 21.2977L48.6233 21.5019C49.5853 22.1373 49.7325 22.1827 50.5927 22.1827C51.566 22.1827 52.064 21.9558 52.4828 21.3431C52.7318 20.98 53.0487 19.7772 52.9242 19.6638C52.8903 19.6297 52.5394 19.8113 52.1546 20.0609C51.2718 20.6396 50.853 20.7984 50.4795 20.7077C49.9249 20.5715 48.0008 19.5957 48.0687 19.4822C48.1705 19.312 49.0307 19.4595 49.7777 19.7999C50.1626 19.9701 50.5474 20.0836 50.6379 20.0496C51.2378 19.8113 51.7471 18.3589 51.5094 17.5079C51.2491 16.5662 50.6266 16.101 49.3703 15.8967C48.9855 15.84 48.5554 15.6925 48.3969 15.579L48.1366 15.3748L48.8044 15.2386C49.1666 15.1705 49.7438 14.9776 50.0833 14.8188C50.7511 14.5124 51.7584 13.6387 52.0188 13.1395C52.2225 12.7424 52.2112 11.7098 52.0074 10.8361C51.7811 9.89438 51.7924 9.64476 52.0527 9.64476C52.3357 9.64476 54.2485 10.3369 54.339 10.4731C54.4975 10.7 54.554 11.4489 54.4409 11.7439C54.3843 11.9027 54.1579 12.2658 53.9429 12.5495C53.6939 12.8672 53.5014 13.2984 53.4222 13.6841C53.2864 14.3536 53.3656 14.7961 53.8863 15.9648L54.1353 16.5548L53.841 16.9519C53.5014 17.3831 53.4675 17.5873 53.6712 17.7916C54.0108 18.132 54.8823 17.8143 55.6632 17.0541L56.1726 16.5775L56.116 15.8286C56.0481 15.0911 56.0481 15.0911 56.3537 15.0911C56.7837 15.0911 57.361 15.2727 57.5647 15.4769C57.8929 15.8059 58.1419 15.6925 58.3344 15.1251C58.7305 13.9565 58.4589 13.4685 57.2817 13.2416C56.5008 13.0941 56.4216 12.9353 56.863 12.402C57.2931 11.88 57.3949 11.6077 57.4628 10.8021L57.5308 10.0305L56.7498 9.69014C56.3197 9.49725 55.7538 9.24763 55.4935 9.13416C55.2218 9.02069 54.7691 8.6803 54.4748 8.36259C54.1692 8.05624 53.807 7.6818 53.6712 7.53429C52.7205 6.59253 49.9701 6.76273 49.2797 7.80661C48.9402 8.31721 49.0081 9.27032 49.5061 10.7794C50.1852 12.8558 50.1626 13.5253 49.3816 13.9791C48.9741 14.2288 47.9442 14.3763 47.8423 14.2174C47.797 14.1493 47.9215 13.6614 48.114 13.1168C48.3064 12.5722 48.4875 11.7779 48.5214 11.3694L48.5893 10.6092L48.0008 10.2915C47.6612 10.0986 47.1632 9.93977 46.801 9.90573L46.1785 9.83765L46.1559 9.3157C46.1333 8.64626 46.1333 8.56683 46.2351 7.90873C46.3144 7.45487 46.2917 7.37544 46.1333 7.37544C46.0314 7.37544 45.9522 7.29602 45.9522 7.20525C45.9522 7.06909 45.805 7.03505 45.2731 7.03505C44.7411 7.03505 44.594 7.06909 44.594 7.20525C44.594 7.29602 44.5147 7.37544 44.4242 7.37544C44.1978 7.37544 44.1752 8.60087 44.4016 8.69165C44.5261 8.73703 44.5261 8.86184 44.4355 9.29301L44.3337 9.849L43.7225 9.90573C43.3829 9.93977 42.8736 10.11 42.5454 10.2802L41.9681 10.5979L42.0134 11.5169C42.0474 12.1297 42.1605 12.6629 42.353 13.1622C42.851 14.4217 42.851 14.4103 42.4209 14.4103C41.8776 14.399 40.6779 13.9451 39.8969 13.4459C39.1273 12.958 37.8483 11.7666 37.6332 11.3467C37.4521 10.9837 37.5201 10.7681 38.4708 8.8505C39.4781 6.81946 39.546 5.76423 38.7424 4.86785C38.2105 4.27783 37.5766 3.91474 36.6712 3.67646C35.9808 3.50626 35.9242 3.50626 35.5733 3.68781C35.3696 3.80128 35.1659 3.85801 35.1206 3.82397C35.0866 3.77858 35.1206 3.46088 35.1998 3.10914C35.3356 2.54181 35.3356 2.45103 35.1545 2.14468C34.9621 1.82697 34.9621 1.81563 35.1885 1.81563C35.4035 1.81563 35.4262 1.74755 35.4262 1.19157C35.4262 0.646935 35.3809 0.522118 35.1206 0.283844C34.8603 0.0569077 34.6792 0.0115204 34.1019 0.000175476C33.7058 0.000175476 33.3889 0.0455627 33.3889 0.11364ZM35.9695 13.1168C36.2637 13.287 37.0107 13.6728 37.6332 13.9678C38.8669 14.5578 38.9235 14.6599 37.8143 14.2855C37.4295 14.1493 37.09 14.0699 37.056 14.104C36.9202 14.2288 37.3842 15.023 37.9275 15.6017L38.5161 16.2258H38.0407C37.588 16.2258 37.5766 16.2371 37.6446 16.5321C37.7238 16.8725 37.803 16.9633 38.3916 17.2923L38.7651 17.5079L38.0294 17.8597C37.3842 18.166 37.1805 18.2114 36.3316 18.2114C35.7997 18.2001 35.2338 18.166 35.064 18.1206C34.6905 18.0185 34.6452 18.2001 34.9169 18.722C35.0753 19.0284 35.7997 19.5163 36.094 19.5163C36.1505 19.5163 36.3316 19.5617 36.4788 19.6184L36.7617 19.7318L35.9129 21.014C35.4488 21.7175 34.8037 22.8181 34.4868 23.4535C34.1698 24.1003 33.8756 24.6222 33.8303 24.6222C33.7963 24.6222 33.6379 24.3159 33.5021 23.9528C33.3663 23.5783 32.823 22.5231 32.291 21.5927C31.7704 20.6736 31.2837 19.8226 31.2271 19.7092C31.1366 19.539 31.1818 19.4822 31.544 19.3347C32.4947 18.9376 32.7437 18.7787 32.9475 18.4497C33.0607 18.2568 33.1625 18.0639 33.1625 18.0299C33.1625 17.9958 32.5627 17.9731 31.8383 17.9731C30.6159 17.9845 30.4461 17.9618 29.8576 17.6781C29.2011 17.3718 29.0087 17.1335 29.4162 17.1335C29.6991 17.1335 30.1745 16.7364 30.2537 16.4527C30.3216 16.2031 30.2877 16.1804 29.7218 16.0556L29.3822 15.9875L29.9142 15.5223C30.4575 15.0571 30.6951 14.7053 30.8196 14.172L30.8989 13.8657L30.2424 14.138C28.8616 14.7053 29.2238 14.3649 30.8423 13.5707L32.54 12.7424L34.0001 12.7764C35.3356 12.8104 35.4941 12.8331 35.9695 13.1168ZM6.60987 37.2736C6.72305 37.546 6.79096 37.9204 6.76832 38.0906C6.72305 38.3969 6.72305 38.3856 6.59855 37.9658C6.51932 37.7275 6.34955 37.4098 6.21373 37.2623C6.08923 37.1261 6.01 36.9559 6.05527 36.8879C6.20241 36.6269 6.42878 36.7857 6.60987 37.2736ZM7.07392 40.8024C7.19842 40.757 7.17578 40.8365 6.99469 41.0747C6.51932 41.7215 6.62119 43.2987 7.16446 43.5823C7.28896 43.6618 7.74169 43.7185 8.17179 43.7298L8.93011 43.7412L9.63185 43.0604C10.0167 42.6859 10.2883 42.4817 10.243 42.6065C9.90348 43.5256 9.93744 44.3199 10.3789 45.1935L10.6505 45.7382L11.4654 45.6587C12.5293 45.568 12.9255 45.3637 13.3442 44.7283L13.6951 44.195V44.6489C13.6951 45.3637 13.9102 45.9651 14.3176 46.3736C14.6345 46.6913 14.7703 46.748 15.2118 46.748C15.8229 46.748 16.5134 46.4303 16.8416 46.0105C16.9774 45.8403 17.1359 45.4318 17.2151 45.0914L17.3622 44.456L17.566 45.0233C17.7244 45.4659 17.9168 45.6928 18.3922 46.0559C19.2071 46.6686 19.2297 46.6799 19.8183 46.4303C20.9388 45.9424 21.3463 44.9893 21.2104 43.2192L21.1425 42.2434L21.6066 42.1754C21.8669 42.1413 22.263 41.9825 22.4781 41.8123L22.8742 41.5059L23.1459 41.8009C23.293 41.9598 23.5533 42.1186 23.7344 42.1527C23.9042 42.198 24.1758 42.2661 24.3343 42.3115L24.6172 42.4023L24.6512 44.5468L24.6738 46.6913L23.6665 47.1905C22.6479 47.6784 22.1725 47.7465 21.6066 47.4969C21.5047 47.4515 21.3349 47.5082 21.1765 47.6444C21.0407 47.7692 20.6672 47.9167 20.3616 47.9848C19.6259 48.1436 19.0486 48.45 18.5959 48.9266C17.996 49.5506 17.8829 49.9704 17.8829 51.627C17.8829 52.9546 17.8602 53.1248 17.6565 53.329C17.5207 53.4652 17.283 53.556 17.034 53.556H16.6265L16.8076 53.885C17.2264 54.7133 18.03 54.9629 19.0486 54.6112L19.7164 54.3729L19.6372 55.3828C19.5466 56.5288 19.5127 56.5061 20.4521 55.9728C20.9048 55.7118 20.9162 55.7118 20.8596 55.9387C20.769 56.2791 20.9954 56.2111 21.4481 55.7685C21.7877 55.4281 21.8556 55.3941 21.9235 55.553C22.0253 55.8366 21.8443 56.0635 21.1765 56.472C20.4295 56.9145 18.7657 57.4592 17.0227 57.8223C15.4608 58.14 14.8948 58.1627 14.3516 57.9244C13.9781 57.7769 13.9554 57.7201 13.8875 57.1301C13.763 55.9387 13.3669 55.6437 11.9747 55.7685C11.1145 55.848 11.0919 55.848 10.9674 55.553C10.8882 55.3941 10.741 55.2352 10.6279 55.2012C10.4468 55.1445 10.4468 55.1104 10.6052 54.8041C10.8429 54.3048 10.7637 54.0779 10.3223 54.0325C10.0506 54.0098 9.96008 53.9417 9.96008 53.7715C9.96008 53.6581 9.85821 53.3631 9.73371 53.1361C9.60921 52.8979 9.50734 52.6369 9.50734 52.5575C9.50734 52.3873 7.24369 46.9636 6.82492 46.1353C6.45141 45.3864 6.24768 44.8078 6.05527 43.9114C5.96473 43.5029 5.86286 43.0377 5.81759 42.8675C5.71572 42.4136 5.85154 41.9938 6.15714 41.8577C6.37218 41.7555 6.44009 41.608 6.49669 41.1655C6.5646 40.689 6.59855 40.6209 6.73437 40.7343C6.82492 40.8138 6.98337 40.8478 7.07392 40.8024Z" fill="white" fill-opacity="0.55"/>
<defs>
<linearGradient id="paint0_linear_1176_1932" x1="0.476889" y1="35.4015" x2="67.8773" y2="35.4015" gradientUnits="userSpaceOnUse">
<stop stop-color="#3793AE"/>
<stop offset="1" stop-color="#074287"/>
</linearGradient>
</defs>
</svg>
