<svg width="18" height="18" viewBox="0 0 18 18" fill="none" xmlns="http://www.w3.org/2000/svg">
<g clip-path="url(#clip0_1213_2732)">
<path d="M9 -0.000751202C9.82617 -0.000751202 10.623 0.104718 11.3906 0.315655C12.1582 0.526593 12.876 0.82835 13.5439 1.22093C14.2119 1.61351 14.8184 2.08226 15.3633 2.62718C15.9082 3.1721 16.377 3.78148 16.7695 4.4553C17.1621 5.12913 17.4639 5.84691 17.6748 6.60862C17.8857 7.37034 17.9941 8.16722 18 8.99925C18 9.82542 17.8945 10.6223 17.6836 11.3899C17.4727 12.1575 17.1709 12.8752 16.7783 13.5432C16.3857 14.2112 15.917 14.8176 15.3721 15.3625C14.8271 15.9075 14.2178 16.3762 13.5439 16.7688C12.8701 17.1614 12.1523 17.4631 11.3906 17.6741C10.6289 17.885 9.83203 17.9934 9 17.9992C7.99219 17.9992 7.02539 17.8381 6.09961 17.5159C5.17383 17.1936 4.32715 16.7424 3.55957 16.1623C2.79199 15.5823 2.12988 14.885 1.57324 14.0705C1.0166 13.2561 0.603516 12.3655 0.333984 11.3987L1.41504 11.0998C1.64941 11.9494 2.00977 12.7258 2.49609 13.4289C2.98242 14.1321 3.5625 14.7414 4.23633 15.2571C4.91016 15.7727 5.65137 16.1682 6.45996 16.4436C7.26855 16.719 8.11523 16.8625 9 16.8742C9.7207 16.8742 10.415 16.7805 11.083 16.593C11.751 16.4055 12.3779 16.1418 12.9639 15.802C13.5498 15.4621 14.083 15.0491 14.5635 14.5627C15.0439 14.0764 15.4541 13.5461 15.7939 12.9719C16.1338 12.3977 16.4004 11.7707 16.5938 11.091C16.7871 10.4114 16.8809 9.71409 16.875 8.99925C16.875 8.27855 16.7812 7.58421 16.5938 6.91624C16.4062 6.24827 16.1426 5.62132 15.8027 5.03538C15.4629 4.44944 15.0498 3.91624 14.5635 3.43577C14.0771 2.9553 13.5469 2.54515 12.9727 2.2053C12.3984 1.86546 11.7715 1.59886 11.0918 1.4055C10.4121 1.21214 9.71484 1.11839 9 1.12425C8.24414 1.12425 7.50879 1.22972 6.79395 1.44065C6.0791 1.65159 5.41406 1.95335 4.79883 2.34593C4.18359 2.73851 3.62402 3.21019 3.12012 3.76097C2.61621 4.31175 2.20605 4.93284 1.88965 5.62425H4.5V6.74925H0V2.24925H1.125V4.65745C1.51758 3.93675 1.99512 3.28929 2.55762 2.71507C3.12012 2.14085 3.74121 1.65452 4.4209 1.25608C5.10059 0.857647 5.83008 0.5471 6.60938 0.324444C7.38867 0.101788 8.18555 -0.00661058 9 -0.000751202Z" fill="#3793AE"/>
</g>
<defs>
<clipPath id="clip0_1213_2732">
<rect width="18" height="18" fill="white"/>
</clipPath>
</defs>
</svg>
