<svg width="154" height="118" viewBox="0 0 154 118" fill="none" xmlns="http://www.w3.org/2000/svg">
<path d="M120.038 46.2549H38.2451C35.2793 46.2549 32.875 48.6054 32.875 51.505V61.3099C32.875 64.2095 35.2793 66.5601 38.2451 66.5601H120.038C123.004 66.5601 125.408 64.2095 125.408 61.3099V51.505C125.408 48.6054 123.004 46.2549 120.038 46.2549Z" stroke="white" stroke-width="1.46" stroke-miterlimit="10"/>
<path d="M120.038 71.6731H38.2451C35.2793 71.6731 32.875 74.0237 32.875 76.9233V86.7281C32.875 89.6277 35.2793 91.9783 38.2451 91.9783H120.038C123.004 91.9783 125.408 89.6277 125.408 86.7281V76.9233C125.408 74.0237 123.004 71.6731 120.038 71.6731Z" stroke="white" stroke-width="1.46" stroke-miterlimit="10"/>
<path d="M125.819 75.7086H128.975C142.31 75.7086 153.12 65.1397 153.12 52.1024C153.12 39.0652 142.31 28.4963 128.975 28.4963C124.336 28.4963 120.008 29.7794 116.331 31.9931C115.069 14.8517 100.451 1.32471 82.5881 1.32471C68.5819 1.32471 56.5594 9.65054 51.4097 21.5124C48.5243 20.3174 45.3484 19.6611 42.0121 19.6611C28.9477 19.6611 18.3178 29.799 17.887 42.464C8.76995 42.7775 1.48633 50.0944 1.48633 59.0765C1.48633 68.0586 9.10056 75.7086 18.4981 75.7086C20.532 75.7086 16.5545 75.7086 28.8475 75.7086" stroke="white" stroke-width="1.46" stroke-miterlimit="10"/>
<path d="M45.8493 59.9288C47.6199 59.9288 49.0553 58.5254 49.0553 56.7943C49.0553 55.0632 47.6199 53.6599 45.8493 53.6599C44.0787 53.6599 42.6433 55.0632 42.6433 56.7943C42.6433 58.5254 44.0787 59.9288 45.8493 59.9288Z" stroke="white" stroke-width="1.46" stroke-miterlimit="10"/>
<path d="M45.8493 84.8572C47.6199 84.8572 49.0553 83.4539 49.0553 81.7228C49.0553 79.9917 47.6199 78.5884 45.8493 78.5884C44.0787 78.5884 42.6433 79.9917 42.6433 81.7228C42.6433 83.4539 44.0787 84.8572 45.8493 84.8572Z" stroke="white" stroke-width="1.46" stroke-miterlimit="10"/>
<path d="M80.2036 54.6001H57.0803C55.9294 54.6001 54.9964 55.5122 54.9964 56.6375V56.6473C54.9964 57.7725 55.9294 58.6846 57.0803 58.6846H80.2036C81.3545 58.6846 82.2875 57.7725 82.2875 56.6473V56.6375C82.2875 55.5122 81.3545 54.6001 80.2036 54.6001Z" stroke="white" stroke-width="1.46" stroke-miterlimit="10"/>
<path d="M114.558 54.6001H91.4346C90.2837 54.6001 89.3507 55.5122 89.3507 56.6375V56.6473C89.3507 57.7725 90.2837 58.6846 91.4346 58.6846H114.558C115.709 58.6846 116.642 57.7725 116.642 56.6473V56.6375C116.642 55.5122 115.709 54.6001 114.558 54.6001Z" stroke="white" stroke-width="1.46" stroke-miterlimit="10"/>
<path d="M80.1635 80.0281H57.1204C55.9474 80.0281 54.9964 80.9578 54.9964 82.1046V82.1732C54.9964 83.3201 55.9474 84.2498 57.1204 84.2498H80.1635C81.3366 84.2498 82.2875 83.3201 82.2875 82.1732V82.1046C82.2875 80.9578 81.3366 80.0281 80.1635 80.0281Z" stroke="white" stroke-width="1.46" stroke-miterlimit="10"/>
<path d="M114.518 80.0281H91.4747C90.3017 80.0281 89.3507 80.9578 89.3507 82.1046V82.1732C89.3507 83.3201 90.3017 84.2498 91.4747 84.2498H114.518C115.691 84.2498 116.642 83.3201 116.642 82.1732V82.1046C116.642 80.9578 115.691 80.0281 114.518 80.0281Z" stroke="white" stroke-width="1.46" stroke-miterlimit="10"/>
<path d="M120.038 96.7974H38.2451C35.2793 96.7974 32.875 99.148 32.875 102.048V111.852C32.875 114.752 35.2793 117.103 38.2451 117.103H120.038C123.004 117.103 125.408 114.752 125.408 111.852V102.048C125.408 99.148 123.004 96.7974 120.038 96.7974Z" stroke="white" stroke-width="1.46" stroke-miterlimit="10"/>
<path d="M45.8493 109.972C47.6199 109.972 49.0553 108.568 49.0553 106.837C49.0553 105.106 47.6199 103.703 45.8493 103.703C44.0787 103.703 42.6433 105.106 42.6433 106.837C42.6433 108.568 44.0787 109.972 45.8493 109.972Z" stroke="white" stroke-width="1.46" stroke-miterlimit="10"/>
<path d="M80.1635 105.143H57.1204C55.9474 105.143 54.9964 106.073 54.9964 107.219V107.288C54.9964 108.435 55.9474 109.365 57.1204 109.365H80.1635C81.3366 109.365 82.2875 108.435 82.2875 107.288V107.219C82.2875 106.073 81.3366 105.143 80.1635 105.143Z" stroke="white" stroke-width="1.46" stroke-miterlimit="10"/>
<path d="M114.518 105.143H91.4747C90.3017 105.143 89.3507 106.073 89.3507 107.219V107.288C89.3507 108.435 90.3017 109.365 91.4747 109.365H114.518C115.691 109.365 116.642 108.435 116.642 107.288V107.219C116.642 106.073 115.691 105.143 114.518 105.143Z" stroke="white" stroke-width="1.46" stroke-miterlimit="10"/>
</svg>
