<svg width="17" height="17" viewBox="0 0 17 17" fill="none" xmlns="http://www.w3.org/2000/svg">
<path fill-rule="evenodd" clip-rule="evenodd" d="M7.43731 1.41663C6.47723 1.41671 5.53109 1.64638 4.67783 2.08649C3.82456 2.5266 3.08892 3.16438 2.53227 3.94662C1.97562 4.72886 1.61411 5.63287 1.4779 6.58324C1.34168 7.53361 1.43472 8.50277 1.74924 9.40987C2.06376 10.317 2.59065 11.1357 3.28594 11.7978C3.98123 12.4598 4.82477 12.946 5.74618 13.2158C6.66758 13.4855 7.64014 13.531 8.5827 13.3484C9.52527 13.1659 10.4105 12.7606 11.1646 12.1663L13.7514 14.7531C13.885 14.8822 14.0639 14.9536 14.2496 14.9519C14.4354 14.9503 14.613 14.8758 14.7444 14.7445C14.8757 14.6132 14.9502 14.4355 14.9518 14.2498C14.9534 14.0641 14.882 13.8851 14.753 13.7515L12.1661 11.1647C12.866 10.2769 13.3017 9.20999 13.4235 8.0861C13.5453 6.9622 13.3482 5.82672 12.8548 4.80961C12.3614 3.79249 11.5916 2.93484 10.6335 2.33479C9.67545 1.73474 8.56779 1.41655 7.43731 1.41663ZM2.83315 7.43746C2.83315 6.21636 3.31823 5.04527 4.18168 4.18182C5.04512 3.31837 6.21621 2.83329 7.43731 2.83329C8.65841 2.83329 9.8295 3.31837 10.693 4.18182C11.5564 5.04527 12.0415 6.21636 12.0415 7.43746C12.0415 8.65856 11.5564 9.82965 10.693 10.6931C9.8295 11.5565 8.65841 12.0416 7.43731 12.0416C6.21621 12.0416 5.04512 11.5565 4.18168 10.6931C3.31823 9.82965 2.83315 8.65856 2.83315 7.43746Z" fill="#998B8B"/>
</svg>
