<svg width="30" height="30" viewBox="0 0 30 30" fill="none" xmlns="http://www.w3.org/2000/svg">
<g clip-path="url(#clip0_353_1320)">
<path d="M25.9091 0H4.09091C1.83156 0 0 1.83156 0 4.09091V25.9091C0 28.1684 1.83156 30 4.09091 30H25.9091C28.1684 30 30 28.1684 30 25.9091V4.09091C30 1.83156 28.1684 0 25.9091 0Z" fill="white"/>
<path d="M10.807 8.18182C10.807 8.68751 10.657 9.18184 10.3761 9.60231C10.0951 10.0228 9.69583 10.3505 9.22863 10.544C8.76143 10.7375 8.24734 10.7882 7.75137 10.6895C7.25539 10.5909 6.79981 10.3473 6.44224 9.98976C6.08466 9.63218 5.84114 9.1766 5.74249 8.68063C5.64383 8.18465 5.69447 7.67056 5.88799 7.20337C6.08151 6.73617 6.40922 6.33685 6.82969 6.0559C7.25015 5.77495 7.74449 5.625 8.25018 5.625C8.92829 5.625 9.57863 5.89438 10.0581 6.37387C10.5376 6.85337 10.807 7.50371 10.807 8.18182Z" fill="url(#paint0_linear_353_1320)"/>
<path d="M10.227 12.4432V23.7392C10.2274 23.8225 10.2114 23.9051 10.1798 23.9822C10.1483 24.0594 10.1017 24.1295 10.043 24.1886C9.98421 24.2477 9.91435 24.2945 9.8374 24.3265C9.76045 24.3585 9.67794 24.375 9.5946 24.375H6.89972C6.81639 24.3752 6.73383 24.359 6.6568 24.3272C6.57976 24.2954 6.50977 24.2487 6.45085 24.1898C6.39192 24.1308 6.34522 24.0609 6.31344 23.9838C6.28165 23.9068 6.2654 23.8242 6.26563 23.7409V12.4432C6.26563 12.275 6.33243 12.1137 6.45135 11.9948C6.57026 11.8759 6.73155 11.8091 6.89972 11.8091H9.5946C9.76248 11.8095 9.92333 11.8765 10.0419 11.9954C10.1604 12.1143 10.227 12.2753 10.227 12.4432Z" fill="url(#paint1_linear_353_1320)"/>
<path d="M24.3134 18.3239V23.792C24.3137 23.8687 24.2987 23.9446 24.2695 24.0154C24.2403 24.0862 24.1974 24.1506 24.1432 24.2048C24.089 24.2589 24.0247 24.3019 23.9538 24.3311C23.883 24.3603 23.8071 24.3752 23.7305 24.375H20.8327C20.7561 24.3752 20.6802 24.3603 20.6094 24.3311C20.5386 24.3019 20.4742 24.2589 20.42 24.2048C20.3659 24.1506 20.3229 24.0862 20.2937 24.0154C20.2645 23.9446 20.2496 23.8687 20.2498 23.792V18.4926C20.2498 17.7017 20.4816 15.029 18.1822 15.029C16.4009 15.029 16.0379 16.8579 15.9663 17.6795V23.792C15.9663 23.9452 15.906 24.0922 15.7985 24.2013C15.6911 24.3103 15.545 24.3728 15.3918 24.375H12.593C12.5165 24.375 12.4408 24.3599 12.3701 24.3306C12.2995 24.3013 12.2354 24.2583 12.1814 24.2041C12.1274 24.15 12.0846 24.0857 12.0555 24.015C12.0264 23.9443 12.0115 23.8685 12.0117 23.792V12.3937C12.0115 12.3173 12.0264 12.2415 12.0555 12.1708C12.0846 12.1001 12.1274 12.0358 12.1814 11.9816C12.2354 11.9275 12.2995 11.8845 12.3701 11.8552C12.4408 11.8259 12.5165 11.8108 12.593 11.8108H15.3918C15.5464 11.8108 15.6947 11.8722 15.804 11.9815C15.9134 12.0909 15.9748 12.2391 15.9748 12.3937V13.379C16.6362 12.3869 17.6163 11.6216 19.7077 11.6216C24.3407 11.6216 24.3134 15.9477 24.3134 18.3239Z" fill="url(#paint2_linear_353_1320)"/>
</g>
<defs>
<linearGradient id="paint0_linear_353_1320" x1="5.72929" y1="8.18182" x2="10.807" y2="8.18182" gradientUnits="userSpaceOnUse">
<stop stop-color="#3793AE"/>
<stop offset="1" stop-color="#074287"/>
</linearGradient>
<linearGradient id="paint1_linear_353_1320" x1="6.29346" y1="18.092" x2="10.227" y2="18.092" gradientUnits="userSpaceOnUse">
<stop stop-color="#3793AE"/>
<stop offset="1" stop-color="#074287"/>
</linearGradient>
<linearGradient id="paint2_linear_353_1320" x1="12.0981" y1="17.9983" x2="24.3134" y2="17.9983" gradientUnits="userSpaceOnUse">
<stop stop-color="#3793AE"/>
<stop offset="1" stop-color="#074287"/>
</linearGradient>
<clipPath id="clip0_353_1320">
<rect width="30" height="30" fill="white"/>
</clipPath>
</defs>
</svg>
