<svg width="18" height="17" viewBox="0 0 18 17" fill="none" xmlns="http://www.w3.org/2000/svg">
<path d="M9 0.525391C9.7695 0.525391 10.5588 0.547391 11.3238 0.583391L12.2274 0.631391L13.0923 0.688391L13.9023 0.749391L14.6421 0.813391C15.4449 0.881668 16.2004 1.26234 16.7756 1.88843C17.3507 2.51452 17.7088 3.34593 17.7867 4.23639L17.8227 4.66139L17.8902 5.57139C17.9532 6.51439 18 7.54239 18 8.52539C18 9.50839 17.9532 10.5364 17.8902 11.4794L17.8227 12.3894C17.811 12.5354 17.7993 12.6764 17.7867 12.8144C17.7088 13.705 17.3506 14.5365 16.7752 15.1627C16.1999 15.7888 15.4442 16.1693 14.6412 16.2374L13.9032 16.3004L13.0932 16.3624L12.2274 16.4194L11.3238 16.4674C10.5496 16.5048 9.77488 16.5241 9 16.5254C8.22512 16.5241 7.45035 16.5048 6.6762 16.4674L5.7726 16.4194L4.9077 16.3624L4.0977 16.3004L3.3579 16.2374C2.55506 16.1691 1.7996 15.7884 1.22443 15.1624C0.649254 14.5363 0.291217 13.7049 0.2133 12.8144L0.1773 12.3894L0.1098 11.4794C0.0409838 10.4965 0.00435962 9.51121 0 8.52539C0 7.54239 0.0468 6.51439 0.1098 5.57139L0.1773 4.66139C0.189 4.51539 0.2007 4.37439 0.2133 4.23639C0.291187 3.34609 0.649095 2.51481 1.22408 1.88873C1.79907 1.26266 2.55432 0.881893 3.357 0.813391L4.0959 0.749391L4.9059 0.688391L5.7717 0.631391L6.6753 0.583391C7.44975 0.546024 8.22482 0.526686 9 0.525391ZM9 2.52539C8.2575 2.52539 7.4934 2.54739 6.75 2.58139L5.8698 2.62839L5.0247 2.68339L4.2309 2.74339L3.5037 2.80639C3.1215 2.83652 2.76124 3.01604 2.48678 3.31312C2.21233 3.6102 2.0414 4.00565 2.0043 4.42939C1.899 5.63839 1.8 7.14339 1.8 8.52539C1.8 9.90739 1.899 11.4124 2.0043 12.6214C2.0808 13.4934 2.7036 14.1714 3.5037 14.2444L4.2309 14.3064L5.0247 14.3664L5.8698 14.4224L6.75 14.4694C7.4934 14.5034 8.2575 14.5254 9 14.5254C9.7425 14.5254 10.5066 14.5034 11.25 14.4694L12.1302 14.4224L12.9753 14.3674L13.7691 14.3074L14.4963 14.2444C14.8785 14.2143 15.2388 14.0347 15.5132 13.7377C15.7877 13.4406 15.9586 13.0451 15.9957 12.6214C16.101 11.4124 16.2 9.90739 16.2 8.52539C16.2 7.14339 16.101 5.63839 15.9957 4.42939C15.9586 4.00565 15.7877 3.6102 15.5132 3.31312C15.2388 3.01604 14.8785 2.83652 14.4963 2.80639L13.7691 2.74439L12.9753 2.68439L12.1302 2.62839L11.25 2.58139C10.5004 2.54556 9.75027 2.52689 9 2.52539ZM7.2 6.10039C7.19994 6.00265 7.22137 5.90638 7.26243 5.81994C7.30349 5.73351 7.36293 5.65952 7.43558 5.60443C7.50823 5.54933 7.5919 5.51478 7.6793 5.5038C7.76671 5.49281 7.85521 5.50572 7.9371 5.54139L8.01 5.58139L11.79 8.00539C11.8653 8.05365 11.9289 8.12138 11.9756 8.20283C12.0223 8.28428 12.0506 8.37704 12.0581 8.47324C12.0656 8.56944 12.0521 8.66623 12.0188 8.75539C11.9854 8.84455 11.9332 8.92345 11.8665 8.98539L11.79 9.04539L8.01 11.4704C7.93383 11.5194 7.84802 11.547 7.76006 11.5507C7.67211 11.5545 7.58466 11.5343 7.50533 11.4919C7.42601 11.4495 7.35721 11.3862 7.30494 11.3075C7.25266 11.2288 7.21849 11.1371 7.2054 11.0404L7.2 10.9504V6.10039Z" fill="#606060"/>
<path d="M9 0.525391C9.7695 0.525391 10.5588 0.547391 11.3238 0.583391L12.2274 0.631391L13.0923 0.688391L13.9023 0.749391L14.6421 0.813391C15.4449 0.881668 16.2004 1.26234 16.7756 1.88843C17.3507 2.51452 17.7088 3.34593 17.7867 4.23639L17.8227 4.66139L17.8902 5.57139C17.9532 6.51439 18 7.54239 18 8.52539C18 9.50839 17.9532 10.5364 17.8902 11.4794L17.8227 12.3894C17.811 12.5354 17.7993 12.6764 17.7867 12.8144C17.7088 13.705 17.3506 14.5365 16.7752 15.1627C16.1999 15.7888 15.4442 16.1693 14.6412 16.2374L13.9032 16.3004L13.0932 16.3624L12.2274 16.4194L11.3238 16.4674C10.5496 16.5048 9.77488 16.5241 9 16.5254C8.22512 16.5241 7.45035 16.5048 6.6762 16.4674L5.7726 16.4194L4.9077 16.3624L4.0977 16.3004L3.3579 16.2374C2.55506 16.1691 1.7996 15.7884 1.22443 15.1624C0.649254 14.5363 0.291217 13.7049 0.2133 12.8144L0.1773 12.3894L0.1098 11.4794C0.0409838 10.4965 0.00435962 9.51121 0 8.52539C0 7.54239 0.0468 6.51439 0.1098 5.57139L0.1773 4.66139C0.189 4.51539 0.2007 4.37439 0.2133 4.23639C0.291187 3.34609 0.649095 2.51481 1.22408 1.88873C1.79907 1.26266 2.55432 0.881893 3.357 0.813391L4.0959 0.749391L4.9059 0.688391L5.7717 0.631391L6.6753 0.583391C7.44975 0.546024 8.22482 0.526686 9 0.525391ZM9 2.52539C8.2575 2.52539 7.4934 2.54739 6.75 2.58139L5.8698 2.62839L5.0247 2.68339L4.2309 2.74339L3.5037 2.80639C3.1215 2.83652 2.76124 3.01604 2.48678 3.31312C2.21233 3.6102 2.0414 4.00565 2.0043 4.42939C1.899 5.63839 1.8 7.14339 1.8 8.52539C1.8 9.90739 1.899 11.4124 2.0043 12.6214C2.0808 13.4934 2.7036 14.1714 3.5037 14.2444L4.2309 14.3064L5.0247 14.3664L5.8698 14.4224L6.75 14.4694C7.4934 14.5034 8.2575 14.5254 9 14.5254C9.7425 14.5254 10.5066 14.5034 11.25 14.4694L12.1302 14.4224L12.9753 14.3674L13.7691 14.3074L14.4963 14.2444C14.8785 14.2143 15.2388 14.0347 15.5132 13.7377C15.7877 13.4406 15.9586 13.0451 15.9957 12.6214C16.101 11.4124 16.2 9.90739 16.2 8.52539C16.2 7.14339 16.101 5.63839 15.9957 4.42939C15.9586 4.00565 15.7877 3.6102 15.5132 3.31312C15.2388 3.01604 14.8785 2.83652 14.4963 2.80639L13.7691 2.74439L12.9753 2.68439L12.1302 2.62839L11.25 2.58139C10.5004 2.54556 9.75027 2.52689 9 2.52539ZM7.2 6.10039C7.19994 6.00265 7.22137 5.90638 7.26243 5.81994C7.30349 5.73351 7.36293 5.65952 7.43558 5.60443C7.50823 5.54933 7.5919 5.51478 7.6793 5.5038C7.76671 5.49281 7.85521 5.50572 7.9371 5.54139L8.01 5.58139L11.79 8.00539C11.8653 8.05365 11.9289 8.12138 11.9756 8.20283C12.0223 8.28428 12.0506 8.37704 12.0581 8.47324C12.0656 8.56944 12.0521 8.66623 12.0188 8.75539C11.9854 8.84455 11.9332 8.92345 11.8665 8.98539L11.79 9.04539L8.01 11.4704C7.93383 11.5194 7.84802 11.547 7.76006 11.5507C7.67211 11.5545 7.58466 11.5343 7.50533 11.4919C7.42601 11.4495 7.35721 11.3862 7.30494 11.3075C7.25266 11.2288 7.21849 11.1371 7.2054 11.0404L7.2 10.9504V6.10039Z" fill="url(#paint0_linear_4002_857)"/>
<defs>
<linearGradient id="paint0_linear_4002_857" x1="11.8271" y1="3.16498" x2="18.9271" y2="3.59586" gradientUnits="userSpaceOnUse">
<stop stop-color="#3793AE"/>
<stop offset="1" stop-color="#074287"/>
</linearGradient>
</defs>
</svg>
