<svg width="17" height="17" viewBox="0 0 17 17" fill="none" xmlns="http://www.w3.org/2000/svg">
<path d="M8.5 0.525391C3.808 0.525391 0 4.10939 0 8.52539C0 12.9414 3.808 16.5254 8.5 16.5254C13.192 16.5254 17 12.9414 17 8.52539C17 4.10939 13.192 0.525391 8.5 0.525391ZM12.444 5.96539C12.3165 7.22939 11.764 10.3014 11.4835 11.7174C11.3645 12.3174 11.1265 12.5174 10.9055 12.5414C10.4125 12.5814 10.0385 12.2374 9.5625 11.9414C8.8145 11.4774 8.3895 11.1894 7.667 10.7414C6.8255 10.2214 7.3695 9.93339 7.854 9.46939C7.9815 9.34939 10.1575 7.48539 10.2 7.31739C10.2059 7.29194 10.2051 7.26553 10.1977 7.24043C10.1903 7.21534 10.1765 7.19233 10.1575 7.17339C10.1065 7.13339 10.0385 7.14939 9.979 7.15739C9.9025 7.17339 8.7125 7.91739 6.392 9.38939C6.052 9.60539 5.746 9.71739 5.474 9.70939C5.168 9.70139 4.59 9.54939 4.1565 9.41339C3.621 9.25339 3.2045 9.16539 3.2385 8.88539C3.2555 8.74139 3.468 8.59739 3.8675 8.44539C6.3495 7.42939 7.9985 6.75739 8.823 6.43739C11.186 5.50939 11.6705 5.34939 11.9935 5.34939C12.0615 5.34939 12.223 5.36539 12.325 5.44539C12.41 5.50939 12.4355 5.59739 12.444 5.66139C12.4355 5.70939 12.4525 5.85339 12.444 5.96539Z" fill="#606060"/>
<path d="M8.5 0.525391C3.808 0.525391 0 4.10939 0 8.52539C0 12.9414 3.808 16.5254 8.5 16.5254C13.192 16.5254 17 12.9414 17 8.52539C17 4.10939 13.192 0.525391 8.5 0.525391ZM12.444 5.96539C12.3165 7.22939 11.764 10.3014 11.4835 11.7174C11.3645 12.3174 11.1265 12.5174 10.9055 12.5414C10.4125 12.5814 10.0385 12.2374 9.5625 11.9414C8.8145 11.4774 8.3895 11.1894 7.667 10.7414C6.8255 10.2214 7.3695 9.93339 7.854 9.46939C7.9815 9.34939 10.1575 7.48539 10.2 7.31739C10.2059 7.29194 10.2051 7.26553 10.1977 7.24043C10.1903 7.21534 10.1765 7.19233 10.1575 7.17339C10.1065 7.13339 10.0385 7.14939 9.979 7.15739C9.9025 7.17339 8.7125 7.91739 6.392 9.38939C6.052 9.60539 5.746 9.71739 5.474 9.70939C5.168 9.70139 4.59 9.54939 4.1565 9.41339C3.621 9.25339 3.2045 9.16539 3.2385 8.88539C3.2555 8.74139 3.468 8.59739 3.8675 8.44539C6.3495 7.42939 7.9985 6.75739 8.823 6.43739C11.186 5.50939 11.6705 5.34939 11.9935 5.34939C12.0615 5.34939 12.223 5.36539 12.325 5.44539C12.41 5.50939 12.4355 5.59739 12.444 5.66139C12.4355 5.70939 12.4525 5.85339 12.444 5.96539Z" fill="url(#paint0_linear_4002_858)"/>
<defs>
<linearGradient id="paint0_linear_4002_858" x1="11.17" y1="3.16498" x2="17.8782" y2="3.54947" gradientUnits="userSpaceOnUse">
<stop stop-color="#3793AE"/>
<stop offset="1" stop-color="#074287"/>
</linearGradient>
</defs>
</svg>
