<svg width="218" height="57" viewBox="0 0 218 57" fill="none" xmlns="http://www.w3.org/2000/svg">
<path d="M8.07407 56.375H209.926C214.095 56.375 217.375 53.3756 217.375 49.875V7.125C217.375 3.62436 214.095 0.625002 209.926 0.625002H8.07407C3.90479 0.625002 0.625 3.62436 0.625 7.125V49.875C0.625 53.3756 3.90479 56.375 8.07407 56.375Z" stroke="url(#paint0_linear_4005_11152)"/>
<path d="M15.6395 10.7425C15.1651 11.1807 14.8906 11.8629 14.8906 12.7464V44.2603C14.8906 45.1438 15.1651 45.826 15.6395 46.2642L15.7566 46.3604L35.7681 28.7082V28.2913L15.7566 10.6392L15.6395 10.7425Z" fill="url(#paint1_linear_4005_11152)"/>
<path d="M44.8534 34.5952L38.1903 28.7082V28.2914L44.8615 22.4043L45.0109 22.4809L52.9114 26.4478C55.166 27.5735 55.166 29.426 52.9114 30.5589L45.0109 34.5186L44.8534 34.5952V34.5952Z" fill="url(#paint2_linear_4005_11152)"/>
<path d="M43.7998 35.615L36.9792 29.5961L16.8506 47.3605C17.5995 48.0552 18.8207 48.1389 20.2094 47.4443L43.7998 35.615" fill="url(#paint3_linear_4005_11152)"/>
<path d="M43.7998 21.385L20.2094 9.55569C18.8207 8.86813 17.5995 8.95184 16.8506 9.64653L36.9792 27.4038L43.7998 21.385Z" fill="url(#paint4_linear_4005_11152)"/>
<path d="M107.088 24.276C103.259 24.276 100.13 27.0016 100.13 30.7622C100.13 34.4923 103.259 37.2465 107.088 37.2465C110.926 37.2465 114.054 34.4923 114.054 30.7622C114.054 27.0016 110.926 24.276 107.088 24.276ZM107.088 34.6924C104.987 34.6924 103.179 33.0704 103.179 30.7622C103.179 28.4235 104.987 26.8301 107.088 26.8301C109.189 26.8301 111.005 28.4235 111.005 30.7622C111.005 33.0704 109.189 34.6924 107.088 34.6924ZM91.907 24.276C88.0695 24.276 84.9493 27.0016 84.9493 30.7622C84.9493 34.4923 88.0695 37.2465 91.907 37.2465C95.7425 37.2465 98.8647 34.4923 98.8647 30.7622C98.8647 27.0016 95.7425 24.276 91.907 24.276ZM91.907 34.6924C89.8038 34.6924 87.99 33.0704 87.99 30.7622C87.99 28.4235 89.8038 26.8301 91.907 26.8301C94.0082 26.8301 95.8159 28.4235 95.8159 30.7622C95.8159 33.0704 94.0082 34.6924 91.907 34.6924ZM73.8422 26.264V29.0201H80.8794C80.6736 30.5601 80.1233 31.6923 79.2796 32.4814C78.2525 33.4344 76.6526 34.4923 73.8422 34.4923C69.5115 34.4923 66.1203 31.2234 66.1203 27.1732C66.1203 23.1229 69.5115 19.854 73.8422 19.854C76.1839 19.854 77.8877 20.7099 79.1451 21.8192L81.2218 19.8769C79.463 18.3064 77.1234 17.0999 73.8422 17.0999C67.9035 17.0999 62.9125 21.619 62.9125 27.1732C62.9125 32.7273 67.9035 37.2465 73.8422 37.2465C77.0521 37.2465 79.463 36.2629 81.3584 34.4179C83.3006 32.6015 83.9059 30.0474 83.9059 27.9851C83.9059 27.3447 83.8488 26.7557 83.7469 26.264H73.8422ZM147.711 28.4006C147.139 26.9501 145.372 24.276 141.773 24.276C138.206 24.276 135.237 26.9044 135.237 30.7622C135.237 34.3951 138.176 37.2465 142.115 37.2465C145.3 37.2465 147.139 35.43 147.895 34.3722L145.531 32.8988C144.742 33.9776 143.668 34.6924 142.115 34.6924C140.572 34.6924 139.466 34.031 138.756 32.7273L148.031 29.1383L147.711 28.4006ZM138.255 30.5601C138.176 28.0594 140.332 26.7786 141.877 26.7786C143.087 26.7786 144.114 27.3447 144.457 28.1548L138.255 30.5601ZM130.717 36.8519H133.765V17.7917H130.717V36.8519ZM125.723 25.7208H125.622C124.937 24.9622 123.63 24.276 121.976 24.276C118.503 24.276 115.328 27.1274 115.328 30.7831C115.328 34.4179 118.503 37.2465 121.976 37.2465C123.63 37.2465 124.937 36.5546 125.622 35.7731H125.723V36.7032C125.723 39.183 124.307 40.5153 122.022 40.5153C120.16 40.5153 119.004 39.2573 118.527 38.1995L115.876 39.2344C116.64 40.9537 118.664 43.0693 122.022 43.0693C125.597 43.0693 128.613 41.1023 128.613 36.3163V24.6706H125.723V25.7208ZM122.236 34.6924C120.135 34.6924 118.377 33.0475 118.377 30.7831C118.377 28.4978 120.135 26.8301 122.236 26.8301C124.307 26.8301 125.94 28.4978 125.94 30.7831C125.94 33.0475 124.307 34.6924 122.236 34.6924ZM161.986 17.7917H154.694V36.8519H157.734V29.63H161.986C165.362 29.63 168.674 27.3447 168.674 23.7099C168.674 20.0771 165.354 17.7917 161.986 17.7917ZM162.065 26.9787H157.734V20.443H162.065C164.335 20.443 165.632 22.2061 165.632 23.7099C165.632 25.1852 164.335 26.9787 162.065 26.9787ZM180.861 24.2398C178.664 24.2398 176.38 25.1471 175.44 27.1579L178.139 28.2157C178.72 27.1579 179.787 26.8148 180.916 26.8148C182.494 26.8148 184.094 27.7011 184.118 29.266V29.4661C183.568 29.1688 182.39 28.7285 180.941 28.7285C178.035 28.7285 175.074 30.2247 175.074 33.017C175.074 35.5711 177.454 37.216 180.13 37.216C182.176 37.216 183.305 36.3525 184.014 35.3481H184.118V36.8214H187.055V29.5099C187.055 26.1306 184.357 24.2398 180.861 24.2398ZM180.495 34.6848C179.5 34.6848 178.114 34.2235 178.114 33.0704C178.114 31.5951 179.842 31.029 181.338 31.029C182.677 31.029 183.305 31.3054 184.118 31.6694C183.88 33.4344 182.255 34.6848 180.495 34.6848ZM197.754 24.6572L194.259 32.9198H194.155L190.542 24.6572H187.263L192.692 36.2039L189.594 42.629H192.772L201.137 24.6572H197.754ZM170.345 36.8519H173.394V17.7917H170.345V36.8519Z" fill="url(#paint5_linear_4005_11152)"/>
<defs>
<linearGradient id="paint0_linear_4005_11152" x1="0" y1="28.5" x2="218" y2="28.5" gradientUnits="userSpaceOnUse">
<stop stop-color="#0A4789"/>
<stop offset="1" stop-color="#3691AD"/>
</linearGradient>
<linearGradient id="paint1_linear_4005_11152" x1="15.0373" y1="28.4998" x2="35.7681" y2="28.4998" gradientUnits="userSpaceOnUse">
<stop stop-color="#3793AE"/>
<stop offset="1" stop-color="#074287"/>
</linearGradient>
<linearGradient id="paint2_linear_4005_11152" x1="38.3056" y1="28.4998" x2="54.6024" y2="28.4998" gradientUnits="userSpaceOnUse">
<stop stop-color="#3793AE"/>
<stop offset="1" stop-color="#074287"/>
</linearGradient>
<linearGradient id="paint3_linear_4005_11152" x1="17.0399" y1="38.7607" x2="43.7998" y2="38.7607" gradientUnits="userSpaceOnUse">
<stop stop-color="#3793AE"/>
<stop offset="1" stop-color="#074287"/>
</linearGradient>
<linearGradient id="paint4_linear_4005_11152" x1="17.0399" y1="18.2423" x2="43.7998" y2="18.2423" gradientUnits="userSpaceOnUse">
<stop stop-color="#3793AE"/>
<stop offset="1" stop-color="#074287"/>
</linearGradient>
<linearGradient id="paint5_linear_4005_11152" x1="63.8836" y1="30.0846" x2="201.137" y2="30.0846" gradientUnits="userSpaceOnUse">
<stop stop-color="#3793AE"/>
<stop offset="1" stop-color="#074287"/>
</linearGradient>
</defs>
</svg>
