<svg width="222" height="57" viewBox="0 0 222 57" fill="none" xmlns="http://www.w3.org/2000/svg">
<path d="M48.8743 28.1923C48.8273 23.5996 53.1554 21.3652 53.3533 21.2611C50.9021 18.1219 47.1028 17.6929 45.7678 17.6587C42.5768 17.3638 39.4817 19.336 37.8562 19.336C36.1983 19.336 33.6952 17.6872 30.9974 17.7357C27.5259 17.7827 24.2782 19.5483 22.497 22.29C18.821 27.8803 21.5626 36.0954 25.0844 40.6141C26.8462 42.8271 28.9048 45.298 31.5993 45.2111C34.2354 45.1156 35.2201 43.7348 38.4013 43.7348C41.5532 43.7348 42.4779 45.2111 45.2259 45.1555C48.0551 45.1156 49.8363 42.9325 51.5364 40.6996C53.5723 38.1631 54.3899 35.665 54.4223 35.5368C54.3558 35.5168 48.9279 33.6971 48.8743 28.1923Z" fill="url(#paint0_linear_2593_12714)"/>
<path d="M43.6832 14.6862C45.101 13.1287 46.0711 11.0097 45.8018 8.85938C43.7497 8.93917 41.1834 10.1063 39.7055 11.6296C38.398 12.9719 37.23 15.1721 37.5317 17.2412C39.8369 17.3923 42.2037 16.2195 43.6832 14.6862Z" fill="url(#paint1_linear_2593_12714)"/>
<path d="M12.0741 56.375H213.926C218.095 56.375 221.375 53.3756 221.375 49.875V7.125C221.375 3.62436 218.095 0.625002 213.926 0.625002H12.0741C7.90479 0.625002 4.625 3.62436 4.625 7.125V49.875C4.625 53.3756 7.90479 56.375 12.0741 56.375Z" stroke="url(#paint2_linear_2593_12714)"/>
<path d="M89.182 36.3433H85.5143L83.5053 30.773H76.522L74.6082 36.3433H71.0375L77.9561 17.3794H82.2294L89.182 36.3433ZM82.8996 28.436L81.0828 23.4841C80.8906 22.9782 80.5304 21.7869 79.9991 19.9116H79.9345C79.7229 20.7182 79.3822 21.9095 78.9138 23.4841L77.1293 28.436H82.8996Z" fill="url(#paint3_linear_2593_12714)"/>
<path d="M106.975 29.3379C106.975 31.6635 106.262 33.5018 104.838 34.8512C103.562 36.0525 101.978 36.6524 100.087 36.6524C98.0452 36.6524 96.5788 36.0055 95.6857 34.7116H95.6211V41.915H92.1779V27.1705C92.1779 25.7084 92.1343 24.2079 92.0503 22.6689H95.0784L95.2706 24.8363H95.3352C96.4835 23.2033 98.2261 22.3882 100.565 22.3882C102.393 22.3882 103.919 23.0252 105.14 24.3005C106.364 25.5773 106.975 27.256 106.975 29.3379ZM103.467 29.4491C103.467 28.1181 103.128 27.0209 102.446 26.1573C101.702 25.2567 100.702 24.8064 99.4486 24.8064C98.5991 24.8064 97.8272 25.0572 97.1376 25.5517C96.4463 26.0504 95.9941 26.7017 95.7826 27.5082C95.676 27.8844 95.6227 28.1922 95.6227 28.4345V30.7145C95.6227 31.7091 95.9683 32.5484 96.6595 33.2339C97.3507 33.9193 98.2487 34.2613 99.3533 34.2613C100.65 34.2613 101.66 33.8195 102.381 32.9389C103.105 32.0568 103.467 30.894 103.467 29.4491Z" fill="url(#paint4_linear_2593_12714)"/>
<path d="M124.799 29.3379C124.799 31.6635 124.087 33.5018 122.661 34.8512C121.387 36.0525 119.802 36.6524 117.911 36.6524C115.87 36.6524 114.403 36.0055 113.512 34.7116H113.447V41.915H110.004V27.1705C110.004 25.7084 109.961 24.2079 109.877 22.6689H112.905L113.097 24.8363H113.161C114.308 23.2033 116.051 22.3882 118.391 22.3882C120.217 22.3882 121.744 23.0252 122.968 24.3005C124.187 25.5773 124.799 27.256 124.799 29.3379ZM121.291 29.4491C121.291 28.1181 120.951 27.0209 120.269 26.1573C119.525 25.2567 118.528 24.8064 117.273 24.8064C116.422 24.8064 115.652 25.0572 114.961 25.5517C114.269 26.0504 113.819 26.7017 113.607 27.5082C113.502 27.8844 113.447 28.1922 113.447 28.4345V30.7145C113.447 31.7091 113.793 32.5484 114.481 33.2339C115.172 33.9179 116.07 34.2613 117.178 34.2613C118.475 34.2613 119.484 33.8195 120.206 32.9389C120.93 32.0568 121.291 30.894 121.291 29.4491Z" fill="url(#paint5_linear_2593_12714)"/>
<path d="M144.728 31.0252C144.728 32.6383 144.094 33.9508 142.819 34.9639C141.419 36.0712 139.47 36.6241 136.965 36.6241C134.652 36.6241 132.798 36.2308 131.395 35.4427L132.193 32.9105C133.704 33.7171 135.363 34.1218 137.17 34.1218C138.467 34.1218 139.476 33.8624 140.201 33.3466C140.923 32.8307 141.284 32.1382 141.284 31.2746C141.284 30.5051 140.986 29.8567 140.39 29.3309C139.798 28.8051 138.808 28.3163 137.425 27.8646C133.662 26.6263 131.783 24.8122 131.783 22.4268C131.783 20.8678 132.441 19.5896 133.761 18.595C135.075 17.5989 136.829 17.1016 139.023 17.1016C140.978 17.1016 142.603 17.4022 143.9 18.0022L143.039 20.4788C141.828 19.8974 140.458 19.6067 138.926 19.6067C137.714 19.6067 136.768 19.8703 136.09 20.3947C135.516 20.8636 135.229 21.435 135.229 22.1119C135.229 22.8614 135.557 23.4813 136.216 23.9686C136.789 24.4189 137.831 24.9063 139.342 25.4321C141.191 26.089 142.55 26.8571 143.423 27.7378C144.294 28.6156 144.728 29.7142 144.728 31.0252Z" fill="url(#paint6_linear_2593_12714)"/>
<path d="M156.112 24.9494H152.317V31.5885C152.317 33.2771 152.986 34.1207 154.326 34.1207C154.941 34.1207 155.452 34.0737 155.856 33.9796L155.951 36.2867C155.273 36.5104 154.379 36.623 153.273 36.623C151.913 36.623 150.851 36.2568 150.084 35.5257C149.32 34.7933 148.935 33.5649 148.935 31.8393V24.9465H146.674V22.6665H148.935V20.1628L152.317 19.2622V22.6665H156.112V24.9494Z" fill="url(#paint7_linear_2593_12714)"/>
<path d="M173.236 29.3935C173.236 31.4954 172.555 33.2211 171.195 34.5705C169.769 35.9599 167.876 36.6525 165.517 36.6525C163.243 36.6525 161.432 35.987 160.082 34.656C158.732 33.3251 158.057 31.645 158.057 29.6201C158.057 27.5011 158.751 25.7655 160.145 24.416C161.536 23.0651 163.412 22.3896 165.772 22.3896C168.046 22.3896 169.875 23.0551 171.256 24.3875C172.577 25.68 173.236 27.3486 173.236 29.3935ZM169.664 29.4918C169.664 28.2307 169.359 27.1491 168.74 26.2471C168.018 25.1556 166.986 24.6112 165.649 24.6112C164.265 24.6112 163.214 25.157 162.492 26.2471C161.873 27.1506 161.568 28.2492 161.568 29.5488C161.568 30.81 161.873 31.8915 162.492 32.7921C163.236 33.8837 164.276 34.428 165.618 34.428C166.933 34.428 167.965 33.8723 168.709 32.7636C169.344 31.8445 169.664 30.7515 169.664 29.4918Z" fill="url(#paint8_linear_2593_12714)"/>
<path d="M184.428 25.3408C184.087 25.2852 183.724 25.2567 183.343 25.2567C182.132 25.2567 181.195 25.66 180.536 26.468C179.963 27.1805 179.675 28.0811 179.675 29.1683V36.3432H176.234L176.266 26.9753C176.266 25.3992 176.222 23.9642 176.137 22.6703H179.136L179.262 25.2866H179.357C179.721 24.3875 180.294 23.6636 181.079 23.1206C181.846 22.6319 182.674 22.3882 183.567 22.3882C183.886 22.3882 184.173 22.4081 184.428 22.4438V25.3408Z" fill="url(#paint9_linear_2593_12714)"/>
<path d="M199.827 28.8589C199.827 29.4032 199.787 29.8621 199.701 30.2369H189.372C189.412 31.5878 189.911 32.6209 190.87 33.3334C191.741 33.9704 192.867 34.2896 194.249 34.2896C195.778 34.2896 197.174 34.0744 198.429 33.6426L198.968 35.7516C197.502 36.3159 195.77 36.5966 193.773 36.5966C191.37 36.5966 189.483 35.9725 188.11 34.7256C186.741 33.4787 186.055 31.8044 186.055 29.7039C186.055 27.6419 186.692 25.9248 187.97 24.5554C189.307 23.0933 191.114 22.3623 193.388 22.3623C195.622 22.3623 197.313 23.0933 198.461 24.5554C199.37 25.7168 199.827 27.1532 199.827 28.8589ZM196.544 28.0709C196.567 27.1703 196.342 26.3922 195.875 25.7353C195.279 24.8903 194.364 24.4685 193.131 24.4685C192.006 24.4685 191.09 24.8803 190.391 25.7068C189.818 26.3637 189.477 27.1517 189.372 28.0694H196.544V28.0709Z" fill="url(#paint10_linear_2593_12714)"/>
<defs>
<linearGradient id="paint0_linear_2593_12714" x1="20.9879" y1="27.0364" x2="54.4223" y2="27.0364" gradientUnits="userSpaceOnUse">
<stop stop-color="#3793AE"/>
<stop offset="1" stop-color="#074287"/>
</linearGradient>
<linearGradient id="paint1_linear_2593_12714" x1="20.9879" y1="27.0364" x2="54.4223" y2="27.0364" gradientUnits="userSpaceOnUse">
<stop stop-color="#3793AE"/>
<stop offset="1" stop-color="#074287"/>
</linearGradient>
<linearGradient id="paint2_linear_2593_12714" x1="4" y1="28.5" x2="222" y2="28.5" gradientUnits="userSpaceOnUse">
<stop stop-color="#0A4789"/>
<stop offset="1" stop-color="#3691AD"/>
</linearGradient>
<linearGradient id="paint3_linear_2593_12714" x1="71.165" y1="26.8613" x2="89.182" y2="26.8613" gradientUnits="userSpaceOnUse">
<stop stop-color="#3793AE"/>
<stop offset="1" stop-color="#074287"/>
</linearGradient>
<linearGradient id="paint4_linear_2593_12714" x1="92.1552" y1="32.1516" x2="106.975" y2="32.1516" gradientUnits="userSpaceOnUse">
<stop stop-color="#3793AE"/>
<stop offset="1" stop-color="#074287"/>
</linearGradient>
<linearGradient id="paint5_linear_2593_12714" x1="109.981" y1="32.1516" x2="124.799" y2="32.1516" gradientUnits="userSpaceOnUse">
<stop stop-color="#3793AE"/>
<stop offset="1" stop-color="#074287"/>
</linearGradient>
<linearGradient id="paint6_linear_2593_12714" x1="131.489" y1="26.8628" x2="144.728" y2="26.8628" gradientUnits="userSpaceOnUse">
<stop stop-color="#3793AE"/>
<stop offset="1" stop-color="#074287"/>
</linearGradient>
<linearGradient id="paint7_linear_2593_12714" x1="146.741" y1="27.9426" x2="156.112" y2="27.9426" gradientUnits="userSpaceOnUse">
<stop stop-color="#3793AE"/>
<stop offset="1" stop-color="#074287"/>
</linearGradient>
<linearGradient id="paint8_linear_2593_12714" x1="158.164" y1="29.5211" x2="173.236" y2="29.5211" gradientUnits="userSpaceOnUse">
<stop stop-color="#3793AE"/>
<stop offset="1" stop-color="#074287"/>
</linearGradient>
<linearGradient id="paint9_linear_2593_12714" x1="176.195" y1="29.3657" x2="184.428" y2="29.3657" gradientUnits="userSpaceOnUse">
<stop stop-color="#3793AE"/>
<stop offset="1" stop-color="#074287"/>
</linearGradient>
<linearGradient id="paint10_linear_2593_12714" x1="186.151" y1="29.4795" x2="199.827" y2="29.4795" gradientUnits="userSpaceOnUse">
<stop stop-color="#3793AE"/>
<stop offset="1" stop-color="#074287"/>
</linearGradient>
</defs>
</svg>
