<svg width="15" height="15" viewBox="0 0 15 15" fill="none" xmlns="http://www.w3.org/2000/svg">
<path d="M5.16761 2.09751C5.76873 2.01468 6.27419 2.38247 6.51336 2.86051L7.10165 4.03681C7.42802 4.68956 7.24048 5.45547 6.74581 5.93731C6.45356 6.22168 6.15986 6.5466 5.98952 6.83331C5.97819 6.85372 5.97466 6.87757 5.97961 6.90039C6.13711 7.75381 6.71548 8.59701 7.23144 9.20164C7.25746 9.23037 7.29132 9.25085 7.32885 9.26054C7.36638 9.27023 7.40593 9.26872 7.44261 9.25618L8.60198 8.89393C8.91429 8.79632 9.24965 8.80131 9.55891 8.90817C9.86817 9.01504 10.1351 9.21816 10.3205 9.48776L11.1596 10.7084C11.3871 11.0394 11.5023 11.4886 11.3279 11.9206C11.1721 12.3064 10.8709 12.8629 10.3228 13.2331C9.75406 13.6169 8.97502 13.7627 7.95565 13.4133C6.81669 13.0225 5.74073 12.0425 4.84852 10.7892C3.95106 9.52801 3.21227 7.95272 2.76427 6.31006C2.34077 4.75926 2.59627 3.7151 3.19769 3.04281C3.77781 2.39414 4.60906 2.17422 5.16761 2.09751ZM5.8609 3.1866C5.72761 2.92031 5.4899 2.78876 5.26677 2.81939C4.77065 2.88764 4.1494 3.07226 3.74136 3.52872C3.35461 3.96126 3.08686 4.7231 3.46719 6.11814C3.89448 7.68381 4.59798 9.18006 5.44236 10.3663C6.29198 11.5601 7.2574 12.403 8.1919 12.7235C9.02461 13.0091 9.55981 12.8679 9.91448 12.6287C10.2896 12.3753 10.5203 11.9725 10.6515 11.6476C10.7116 11.4988 10.6856 11.3063 10.5585 11.1214L9.71935 9.90106C9.62226 9.75983 9.48248 9.65341 9.3205 9.5974C9.15852 9.5414 8.98286 9.53875 8.81927 9.58985L7.6599 9.9521C7.3134 10.0603 6.92315 9.96376 6.67669 9.67501C6.13973 9.04589 5.45548 8.08106 5.26211 7.03251C5.22517 6.836 5.26082 6.63276 5.36244 6.46056C5.58352 6.08897 5.93352 5.7101 6.23656 5.41493C6.53261 5.12676 6.61661 4.69801 6.44919 4.36289L5.8609 3.1866Z" fill="url(#paint0_linear_4006_1026)"/>
<defs>
<linearGradient id="paint0_linear_4006_1026" x1="2.61692" y1="7.84861" x2="11.4123" y2="7.84861" gradientUnits="userSpaceOnUse">
<stop stop-color="#3793AE"/>
<stop offset="1" stop-color="#074287"/>
</linearGradient>
</defs>
</svg>
