<svg width="35" height="35" viewBox="0 0 35 35" fill="none" xmlns="http://www.w3.org/2000/svg">
<g clip-path="url(#clip0_912_3425)">
<path d="M17.5 0C12.8598 0 8.40547 1.84488 5.12695 5.12559C1.84505 8.40759 0.000909097 12.8586 0 17.5C0 22.1394 1.8457 26.5937 5.12695 29.8744C8.40547 33.1551 12.8598 35 17.5 35C22.1402 35 26.5945 33.1551 29.873 29.8744C33.1543 26.5937 35 22.1394 35 17.5C35 12.8606 33.1543 8.40629 29.873 5.12559C26.5945 1.84488 22.1402 0 17.5 0Z" fill="url(#paint0_linear_912_3425)"/>
<path d="M7.92343 17.3151C13.0258 15.0926 16.4273 13.6272 18.1281 12.9193C22.9898 10.8978 23.9988 10.5467 24.6578 10.5348C24.8027 10.5324 25.1254 10.5683 25.3359 10.7385C25.5109 10.882 25.5602 11.0762 25.5848 11.2125C25.6066 11.3487 25.6367 11.659 25.6121 11.9013C25.3496 14.6685 24.2094 21.3835 23.6297 24.483C23.3863 25.7944 22.9023 26.234 22.4348 26.277C21.4176 26.3705 20.6465 25.6054 19.6621 24.9604C18.1227 23.9506 17.2531 23.3222 15.7574 22.337C14.0293 21.1984 15.1504 20.5725 16.1348 19.5499C16.3918 19.2822 20.8707 15.2093 20.9555 14.8399C20.9664 14.7937 20.9773 14.6214 20.8734 14.5307C20.7723 14.4396 20.6219 14.4708 20.5125 14.4954C20.3566 14.5304 17.8984 16.1568 13.1297 19.3743C12.4324 19.8539 11.8008 20.0877 11.232 20.0754C10.6086 20.062 9.40546 19.7221 8.51132 19.4317C7.41757 19.0755 6.54531 18.8871 6.62187 18.2819C6.66015 17.9669 7.09492 17.6446 7.92343 17.3151Z" fill="white"/>
</g>
<defs>
<linearGradient id="paint0_linear_912_3425" x1="1750" y1="0" x2="1750" y2="3500" gradientUnits="userSpaceOnUse">
<stop stop-color="#2AABEE"/>
<stop offset="1" stop-color="#229ED9"/>
</linearGradient>
<clipPath id="clip0_912_3425">
<rect width="35" height="35" fill="white"/>
</clipPath>
</defs>
</svg>
