<svg width="33" height="33" viewBox="0 0 33 33" fill="none" xmlns="http://www.w3.org/2000/svg">
<path d="M16.5 0C7.38772 0 0 7.38772 0 16.5C0 25.6123 7.38772 33 16.5 33C25.6123 33 33 25.6123 33 16.5C33 7.38772 25.6123 0 16.5 0ZM24.1154 19.0385H16.5C16.1634 19.0385 15.8405 18.9047 15.6025 18.6667C15.3645 18.4287 15.2308 18.1059 15.2308 17.7692V6.34615C15.2308 6.00953 15.3645 5.6867 15.6025 5.44867C15.8405 5.21065 16.1634 5.07692 16.5 5.07692C16.8366 5.07692 17.1595 5.21065 17.3975 5.44867C17.6355 5.6867 17.7692 6.00953 17.7692 6.34615V16.5H24.1154C24.452 16.5 24.7748 16.6337 25.0129 16.8717C25.2509 17.1098 25.3846 17.4326 25.3846 17.7692C25.3846 18.1059 25.2509 18.4287 25.0129 18.6667C24.7748 18.9047 24.452 19.0385 24.1154 19.0385Z" fill="#BD8383"/>
<path d="M16.5 0C7.38772 0 0 7.38772 0 16.5C0 25.6123 7.38772 33 16.5 33C25.6123 33 33 25.6123 33 16.5C33 7.38772 25.6123 0 16.5 0ZM24.1154 19.0385H16.5C16.1634 19.0385 15.8405 18.9047 15.6025 18.6667C15.3645 18.4287 15.2308 18.1059 15.2308 17.7692V6.34615C15.2308 6.00953 15.3645 5.6867 15.6025 5.44867C15.8405 5.21065 16.1634 5.07692 16.5 5.07692C16.8366 5.07692 17.1595 5.21065 17.3975 5.44867C17.6355 5.6867 17.7692 6.00953 17.7692 6.34615V16.5H24.1154C24.452 16.5 24.7748 16.6337 25.0129 16.8717C25.2509 17.1098 25.3846 17.4326 25.3846 17.7692C25.3846 18.1059 25.2509 18.4287 25.0129 18.6667C24.7748 18.9047 24.452 19.0385 24.1154 19.0385Z" fill="#BD8383"/>
</svg>
