<svg width="83" height="54" viewBox="0 0 83 54" fill="none" xmlns="http://www.w3.org/2000/svg">
<path d="M0.0021209 46.353L80.6719 45.5791L80.6719 47.869C80.6719 48.4905 80.32 49.019 79.8435 49.1132L57.0325 53.6224C56.7618 53.6759 56.4873 53.6901 56.2141 53.6647L0.878784 48.5235C0.384758 48.4776 0.00215128 47.9475 0.00215134 47.3089L0.0021209 46.353Z" fill="#BFC8D6"/>
<path d="M29.6855 42.6827L80.9576 46.8718C81.8751 46.9468 82.6211 46.1503 82.6211 45.0925L82.6211 2.71598C82.6211 1.65825 81.8751 0.800781 80.9576 0.800781L79.1438 1.96112L29.6855 0.800777C28.9297 0.800777 28.3185 1.57591 28.3185 2.53209L28.3185 40.8397C28.3185 41.7959 28.9296 42.621 29.6855 42.6827Z" fill="#BFC8D6"/>
<path d="M28.8691 42.6827L80.1412 46.8718C81.0587 46.9468 81.8047 46.1503 81.8047 45.0925L81.8047 2.71598C81.8047 1.65825 81.0587 0.800781 80.1412 0.800781L28.8691 0.800777C28.1132 0.800777 27.5021 1.57591 27.5021 2.53209L27.5021 40.8397C27.5021 41.7959 28.1132 42.621 28.8691 42.6827Z" fill="white"/>
<path d="M30.4623 39.9806L78.2169 43.6194C78.9636 43.6763 79.5703 43.0225 79.5703 42.159L79.5703 5.05826C79.5703 4.19476 78.9636 3.49185 78.217 3.48826L30.4623 3.25977C29.8388 3.25679 29.3344 3.89194 29.3344 4.67844L29.3344 38.4706C29.3344 39.2571 29.8388 39.9331 30.4623 39.9806Z" fill="#3793AE" fill-opacity="0.62"/>
<path d="M61.2821 6.97204L74.17 7.00931L74.1719 5.64551L61.284 5.65016L61.2821 6.97204Z" fill="white"/>
<path d="M55.209 6.57733L58.1862 6.58313L58.1875 5.65137L55.2103 5.65242L55.209 6.57733Z" fill="white"/>
<path d="M55.209 7.86241L58.1862 7.87777L58.1875 6.94601L55.2103 6.9375L55.209 7.86241Z" fill="white"/>
<path d="M40.3782 7.78516L51.9284 7.84474L51.9297 6.92742L40.3794 6.89453L40.3782 7.78516Z" fill="white"/>
<path d="M38.4814 9.00634L49.9167 9.10203L49.918 8.1894L38.4826 8.12012L38.4814 9.00634Z" fill="white"/>
<path d="M38.4814 10.2388L49.9167 10.3711L49.918 9.45851L38.4826 9.35254L38.4814 10.2388Z" fill="white"/>
<path d="M38.4776 11.4692L49.9128 11.6383L49.9141 10.7257L38.4788 10.583L38.4776 11.4692Z" fill="white"/>
<path d="M55.209 9.14659L58.1862 9.17148L58.1875 8.23972L55.2103 8.22168L55.209 9.14659Z" fill="white"/>
<path d="M55.209 10.4327L58.1862 10.4671L58.1875 9.53538L55.2103 9.50781L55.209 10.4327Z" fill="white"/>
<path d="M55.209 11.7169L58.1862 11.7609L58.1875 10.8291L55.2103 10.792L55.209 11.7169Z" fill="white"/>
<path d="M55.2051 13.003L58.1823 13.0566L58.1836 12.1248L55.2064 12.0781L55.2051 13.003Z" fill="white"/>
<path d="M47.2253 12.8586L54.5534 12.9905L54.5547 12.0671L47.2266 11.9521L47.2253 12.8586Z" fill="white"/>
<path d="M55.2013 14.2891L58.1784 14.3523L58.1797 13.4205L55.2026 13.3643L55.2013 14.2891Z" fill="white"/>
<path d="M55.2013 15.5723L58.1784 15.645L58.1797 14.7133L55.2025 14.6475L55.2013 15.5723Z" fill="white"/>
<path d="M55.2013 16.8565L58.1784 16.9388L58.1797 16.007L55.2025 15.9316L55.2013 16.8565Z" fill="white"/>
<path d="M43.792 14.046L51.9167 14.2182L51.918 13.301L43.7932 13.1475L43.792 14.046Z" fill="white"/>
<path d="M39.5682 15.1896L49.905 15.4419L49.9062 14.5293L39.5694 14.3008L39.5682 15.1896Z" fill="white"/>
<path d="M39.5643 16.4269L49.9011 16.7124L49.9023 15.7997L39.5655 15.5381L39.5643 16.4269Z" fill="white"/>
<path d="M55.1974 18.1417L58.1745 18.2335L58.1758 17.3017L55.1987 17.2168L55.1974 18.1417Z" fill="white"/>
<path d="M55.1935 19.4278L58.1706 19.5292L58.1719 18.5974L55.1948 18.5029L55.1935 19.4278Z" fill="white"/>
<path d="M55.1935 20.711L58.1706 20.8219L58.1719 19.8901L55.1948 19.7861L55.1935 20.711Z" fill="white"/>
<path d="M55.1896 21.9981L58.1667 22.1186L58.168 21.1868L55.1909 21.0732L55.1896 21.9981Z" fill="white"/>
<path d="M55.1896 23.2833L58.1667 23.4132L58.168 22.4815L55.1909 22.3584L55.1896 23.2833Z" fill="white"/>
<path d="M55.1896 24.5675L58.1667 24.707L58.168 23.7752L55.1909 23.6426L55.1896 24.5675Z" fill="white"/>
<path d="M55.1896 25.8526L58.1667 26.0017L58.168 25.07L55.191 24.9277L55.1896 25.8526Z" fill="white"/>
<path d="M55.1858 27.1378L58.1627 27.2964L58.1641 26.3647L55.187 26.2129L55.1858 27.1378Z" fill="white"/>
<path d="M55.1819 28.4229L58.1588 28.5912L58.1602 27.6594L55.1831 27.498L55.1819 28.4229Z" fill="white"/>
<path d="M55.1819 29.7071L58.1588 29.8849L58.1602 28.9531L55.1832 28.7822L55.1819 29.7071Z" fill="white"/>
<path d="M55.178 30.9942L58.1549 31.1816L58.1562 30.2498L55.1793 30.0693L55.178 30.9942Z" fill="white"/>
<path d="M55.178 32.2774L58.1549 32.4743L58.1562 31.5426L55.1793 31.3525L55.178 32.2774Z" fill="white"/>
<path d="M55.1741 33.5626L58.151 33.769L58.1523 32.8373L55.1754 32.6377L55.1741 33.5626Z" fill="white"/>
<path d="M55.1702 34.8487L58.1471 35.0647L58.1484 34.1329L55.1715 33.9238L55.1702 34.8487Z" fill="white"/>
<path d="M55.1702 36.1329L58.1471 36.3584L58.1484 35.4267L55.1715 35.208L55.1702 36.1329Z" fill="white"/>
<path d="M55.1702 37.4171L58.1471 37.6522L58.1484 36.7204L55.1715 36.4922L55.1702 37.4171Z" fill="white"/>
<path d="M55.1664 38.7032L58.1432 38.9479L58.1445 38.0161L55.1676 37.7783L55.1664 38.7032Z" fill="white"/>
<path d="M55.1664 39.9884L58.1432 40.2425L58.1445 39.3108L55.1676 39.0635L55.1664 39.9884Z" fill="white"/>
<path d="M46.465 6.55895L54.5847 6.57479L54.5859 5.65137L46.4663 5.65428L46.465 6.55895Z" fill="white"/>
<path d="M40.3401 32.5332L51.8893 33.334L51.8906 32.4167L40.3414 31.6426L40.3401 32.5332Z" fill="white"/>
<path d="M38.4433 33.6343L49.8776 34.4638L49.8789 33.5512L38.4446 32.748L38.4433 33.6343Z" fill="white"/>
<path d="M38.4434 34.8648L49.8776 35.7311L49.8789 34.8184L38.4446 33.9785L38.4434 34.8648Z" fill="white"/>
<path d="M33.5129 35.7079L44.6511 36.5874L44.6523 35.6868L33.5141 34.833L33.5129 35.7079Z" fill="white"/>
<path d="M33.513 36.9227L44.6511 37.838L44.6523 36.9374L33.5142 36.0479L33.513 36.9227Z" fill="white"/>
<path d="M33.513 38.1385L44.6511 39.0896L44.6523 38.189L33.5142 37.2637L33.513 38.1385Z" fill="white"/>
<path d="M46.4267 31.6996L54.5456 32.2365L54.5469 31.3131L46.4279 30.7949L46.4267 31.6996Z" fill="white"/>
<path d="M40.3591 18.9229L51.9089 19.316L51.9102 18.3987L40.3604 18.0322L40.3591 18.9229Z" fill="white"/>
<path d="M38.4662 20.0893L49.9011 20.5153L49.9023 19.6026L38.4675 19.2031L38.4662 20.0893Z" fill="white"/>
<path d="M38.4624 21.3198L49.8972 21.7825L49.8984 20.8698L38.4636 20.4336L38.4624 21.3198Z" fill="white"/>
<path d="M38.4585 22.5522L49.8932 23.0516L49.8945 22.1389L38.4597 21.666L38.4585 22.5522Z" fill="white"/>
<path d="M47.2139 24.1926L54.5417 24.5361L54.543 23.6127L47.2152 23.2861L47.2139 24.1926Z" fill="white"/>
<path d="M43.7728 25.2813L51.8972 25.6882L51.8984 24.771L43.774 24.3828L43.7728 25.2813Z" fill="white"/>
<path d="M39.553 26.3058L49.8893 26.8566L49.8906 25.944L39.5542 25.417L39.553 26.3058Z" fill="white"/>
<path d="M39.5491 27.5392L49.8854 28.1232L49.8867 27.2106L39.5503 26.6504L39.5491 27.5392Z" fill="white"/>
<path d="M37.2595 28.6374L47.4714 29.2472L47.4727 28.3401L37.2607 27.7539L37.2595 28.6374Z" fill="white"/>
<path d="M37.2556 29.8649L47.4675 30.5075L47.4687 29.6004L37.2568 28.9814L37.2556 29.8649Z" fill="white"/>
<path d="M46.4458 17.8724L54.5651 18.1228L54.5664 17.1993L46.4471 16.9678L46.4458 17.8724Z" fill="white"/>
<path d="M61.2816 9.03771L68.6583 9.09651L68.6602 7.75061L61.2834 7.71582L61.2816 9.03771Z" fill="white"/>
<path d="M70.5606 9.11157L69.1713 9.10049L69.1731 7.75293L70.5625 7.75947L70.5606 9.11157Z" fill="white"/>
<path d="M61.2778 10.9381L68.6544 11.0314L68.6562 9.68552L61.2796 9.61621L61.2778 10.9381Z" fill="white"/>
<path d="M70.5606 11.0546L69.1713 11.037L69.1732 9.68945L70.5625 9.70251L70.5606 11.0546Z" fill="white"/>
<path d="M61.2778 12.8385L68.6544 12.9663L68.6562 11.6204L61.2796 11.5166L61.2778 12.8385Z" fill="white"/>
<path d="M70.5567 12.9986L69.1674 12.9745L69.1693 11.627L70.5586 11.6465L70.5567 12.9986Z" fill="white"/>
<path d="M61.2556 26.3268L74.1426 26.9776L74.1445 25.6138L61.2575 25.0049L61.2556 26.3268Z" fill="white"/>
<path d="M61.2509 28.3913L68.627 28.8012L68.6289 27.4554L61.2527 27.0693L61.2509 28.3913Z" fill="white"/>
<path d="M70.5372 28.9072L69.1479 28.83L69.1498 27.4824L70.5391 27.5551L70.5372 28.9072Z" fill="white"/>
<path d="M61.247 30.2926L68.6231 30.7371L68.625 29.3912L61.2488 28.9707L61.247 30.2926Z" fill="white"/>
<path d="M70.5333 30.8512L69.144 30.7675L69.1459 29.4199L70.5352 29.4991L70.5333 30.8512Z" fill="white"/>
<path d="M61.247 32.193L68.6231 32.6719L68.625 31.3261L61.2489 30.8711L61.247 32.193Z" fill="white"/>
<path d="M70.5333 32.7972L69.144 32.7069L69.1459 31.3594L70.5352 31.4451L70.5333 32.7972Z" fill="white"/>
<path d="M61.2747 14.7506L74.1622 15.0345L74.1641 13.6707L61.2765 13.4287L61.2747 14.7506Z" fill="white"/>
<path d="M61.2701 16.8161L68.6465 17.016L68.6484 15.6701L61.2719 15.4941L61.2701 16.8161Z" fill="white"/>
<path d="M70.5528 17.0688L69.1635 17.0311L69.1654 15.6836L70.5547 15.7167L70.5528 17.0688Z" fill="white"/>
<path d="M61.2662 18.7184L68.6427 18.9528L68.6445 17.6069L61.2681 17.3965L61.2662 18.7184Z" fill="white"/>
<path d="M70.5528 19.0118L69.1635 18.9677L69.1654 17.6201L70.5547 17.6598L70.5528 19.0118Z" fill="white"/>
<path d="M61.2624 22.5416L68.6387 22.8455L68.6406 21.4996L61.2643 21.2197L61.2624 22.5416Z" fill="white"/>
<path d="M70.5411 22.9243L69.1518 22.8671L69.1537 21.5195L70.543 21.5722L70.5411 22.9243Z" fill="white"/>
<path d="M61.2585 24.442L68.6348 24.7803L68.6367 23.4345L61.2604 23.1201L61.2585 24.442Z" fill="white"/>
<path d="M70.5411 24.8683L69.1518 24.8046L69.1537 23.457L70.543 23.5163L70.5411 24.8683Z" fill="white"/>
<path d="M61.2624 20.6168L68.6388 20.8857L68.6406 19.5399L61.2642 19.2949L61.2624 20.6168Z" fill="white"/>
<path d="M70.5489 20.9549L69.1596 20.9042L69.1615 19.5566L70.5508 19.6028L70.5489 20.9549Z" fill="white"/>
<path d="M61.2443 34.0924L74.1309 34.9894L74.1328 33.6256L61.2461 32.7705L61.2443 34.0924Z" fill="white"/>
<path d="M61.2432 36.1569L68.6192 36.7078L68.6211 35.3619L61.2451 34.835L61.2432 36.1569Z" fill="white"/>
<path d="M70.5294 36.8498L69.1402 36.746L69.142 35.3984L70.5312 35.4977L70.5294 36.8498Z" fill="white"/>
<path d="M61.2393 38.0582L68.6153 38.6436L68.6172 37.2977L61.2412 36.7363L61.2393 38.0582Z" fill="white"/>
<path d="M70.5176 38.7947L69.1284 38.6845L69.1303 37.3369L70.5195 37.4426L70.5176 38.7947Z" fill="white"/>
<path d="M61.2355 39.9576L68.6114 40.5775L68.6133 39.2316L61.2373 38.6357L61.2355 39.9576Z" fill="white"/>
<path d="M70.5177 40.7377L69.1284 40.621L69.1303 39.2734L70.5195 39.3857L70.5177 40.7377Z" fill="white"/>
<path d="M59.6685 39.8325L59.9524 39.8563L60 5.65039L59.7161 5.65049L59.6685 39.8325Z" fill="white"/>
<path d="M52.6903 1.9586C52.6903 2.35235 52.9542 2.67249 53.28 2.67361C53.6063 2.67476 53.8711 2.35578 53.8711 1.96114C53.8711 1.5665 53.6063 1.24637 53.28 1.24609C52.9541 1.24582 52.6903 1.56481 52.6903 1.9586Z" fill="white"/>
<path d="M26.4555 42.4488L80.6719 46.8582L57.0325 51.5312C56.7618 51.5847 56.4873 51.5989 56.2141 51.5736L0.00212063 46.3508L25.593 42.4788C25.8792 42.4354 26.1679 42.4254 26.4555 42.4488Z" fill="url(#paint0_linear_1585_2554)"/>
<path d="M72.7539 46.8976L27.6171 43.1719L13.6477 45.2685L58.3956 49.2511L72.7539 46.8976Z" fill="#D8DEE8"/>
<defs>
<linearGradient id="paint0_linear_1585_2554" x1="80.6719" y1="47.0111" x2="0.00213279" y2="47.0111" gradientUnits="userSpaceOnUse">
<stop offset="0.494" stop-color="#EBEFF2"/>
<stop offset="1" stop-color="white"/>
</linearGradient>
</defs>
</svg>
