<svg width="119" height="74" viewBox="0 0 119 74" fill="none" xmlns="http://www.w3.org/2000/svg">
<path d="M-0.000526428 61.9519L116.188 60.8994V64.0137C116.188 64.859 115.681 65.5777 114.994 65.7058L82.1399 71.8385C81.75 71.9112 81.3546 71.9306 80.9611 71.896L1.26212 64.9039C0.550583 64.8415 -0.000480652 64.1205 -0.000480652 63.252L-0.000526428 61.9519Z" fill="#BFC8D6"/>
<path d="M42.7572 56.9601L116.604 62.6574C117.926 62.7593 119 61.6761 119 60.2375V2.6047C119 1.16617 117.926 0 116.604 0L113.992 1.57809L42.7573 0C41.6686 0 40.7884 1.05419 40.7884 2.35461V54.4537C40.7884 55.754 41.6686 56.8762 42.7572 56.9601Z" fill="#BFC8D6"/>
<path d="M41.5776 56.9601L115.424 62.6574C116.746 62.7593 117.82 61.6761 117.82 60.2375V2.6047C117.82 1.16617 116.746 0 115.424 0H41.5776C40.4889 0 39.6087 1.05419 39.6087 2.35461V54.4537C39.6087 55.754 40.4889 56.8762 41.5776 56.9601Z" fill="white"/>
<path d="M43.8834 53.2866L112.664 58.2355C113.739 58.3128 114.613 57.4237 114.613 56.2493V5.79168C114.613 4.61731 113.739 3.66135 112.664 3.65646L43.8834 3.34572C42.9853 3.34166 42.2589 4.20548 42.2589 5.27513V51.233C42.2589 52.3026 42.9853 53.222 43.8834 53.2866Z" fill="#D8DEE8"/>
<path d="M88.267 8.39298L106.829 8.44366L106.832 6.58887L88.2697 6.59519L88.267 8.39298Z" fill="white"/>
<path d="M79.5265 7.856L83.8145 7.86389L83.8164 6.59668L79.5283 6.59811L79.5265 7.856Z" fill="white"/>
<path d="M79.5265 9.6036L83.8145 9.62449L83.8164 8.35728L79.5284 8.3457L79.5265 9.6036Z" fill="white"/>
<path d="M58.1554 9.49936L74.7911 9.58038L74.793 8.33282L58.1572 8.28809L58.1554 9.49936Z" fill="white"/>
<path d="M55.4264 11.1613L71.8966 11.2915L71.8984 10.0503L55.4282 9.95605L55.4264 11.1613Z" fill="white"/>
<path d="M55.4226 12.8371L71.8927 13.0171L71.8945 11.776L55.4243 11.6318L55.4226 12.8371Z" fill="white"/>
<path d="M55.4187 14.5109L71.8888 14.7409L71.8906 13.4997L55.4205 13.3057L55.4187 14.5109Z" fill="white"/>
<path d="M79.5226 11.3516L83.8106 11.3855L83.8125 10.1183L79.5245 10.0938L79.5226 11.3516Z" fill="white"/>
<path d="M79.5187 13.0987L83.8067 13.1455L83.8086 11.8783L79.5206 11.8408L79.5187 13.0987Z" fill="white"/>
<path d="M79.5148 14.8467L83.8028 14.9066L83.8047 13.6394L79.5167 13.5889L79.5148 14.8467Z" fill="white"/>
<path d="M79.5148 16.5938L83.8028 16.6667L83.8047 15.3994L79.5167 15.3359L79.5148 16.5938Z" fill="white"/>
<path d="M68.0256 16.3988L78.5802 16.5781L78.582 15.3224L68.0275 15.166L68.0256 16.3988Z" fill="white"/>
<path d="M79.511 18.3418L83.7989 18.4277L83.8008 17.1605L79.5128 17.084L79.511 18.3418Z" fill="white"/>
<path d="M79.5071 20.0899L83.795 20.1888L83.7969 18.9215L79.5089 18.832L79.5071 20.0899Z" fill="white"/>
<path d="M79.5071 21.8379L83.795 21.9498L83.7969 20.6825L79.5089 20.5801L79.5071 21.8379Z" fill="white"/>
<path d="M63.0775 18.013L74.7794 18.2473L74.7812 16.9998L63.0792 16.791L63.0775 18.013Z" fill="white"/>
<path d="M56.9929 19.5701L71.881 19.9133L71.8828 18.6721L56.9948 18.3613L56.9929 19.5701Z" fill="white"/>
<path d="M56.9891 21.2507L71.8771 21.639L71.8789 20.3978L56.9909 20.042L56.9891 21.2507Z" fill="white"/>
<path d="M79.5032 23.585L83.7911 23.7098L83.793 22.4426L79.5051 22.3271L79.5032 23.585Z" fill="white"/>
<path d="M79.4993 25.3321L83.7872 25.4699L83.7891 24.2027L79.5012 24.0742L79.4993 25.3321Z" fill="white"/>
<path d="M79.4994 27.0801L83.7872 27.2309L83.7891 25.9637L79.5012 25.8223L79.4994 27.0801Z" fill="white"/>
<path d="M79.4955 28.8282L83.7833 28.992L83.7852 27.7248L79.4973 27.5703L79.4955 28.8282Z" fill="white"/>
<path d="M79.4916 30.5762L83.7794 30.753L83.7812 29.4858L79.4934 29.3184L79.4916 30.5762Z" fill="white"/>
<path d="M79.4877 32.3242L83.7754 32.514L83.7773 31.2468L79.4895 31.0664L79.4877 32.3242Z" fill="white"/>
<path d="M79.4877 34.0723L83.7755 34.2751L83.7773 33.0079L79.4896 32.8145L79.4877 34.0723Z" fill="white"/>
<path d="M79.4877 35.8203L83.7755 36.0361L83.7773 34.7689L79.4896 34.5625L79.4877 35.8203Z" fill="white"/>
<path d="M79.4838 37.5664L83.7715 37.7952L83.7734 36.528L79.4857 36.3086L79.4838 37.5664Z" fill="white"/>
<path d="M79.48 39.3145L83.7676 39.5563L83.7695 38.2891L79.4818 38.0566L79.48 39.3145Z" fill="white"/>
<path d="M79.476 41.0616L83.7637 41.3164L83.7656 40.0491L79.4779 39.8037L79.476 41.0616Z" fill="white"/>
<path d="M79.4761 42.8096L83.7637 43.0774L83.7656 41.8102L79.4779 41.5518L79.4761 42.8096Z" fill="white"/>
<path d="M79.4722 44.5567L83.7598 44.8374L83.7617 43.5702L79.474 43.2988L79.4722 44.5567Z" fill="white"/>
<path d="M79.4683 46.3047L83.7559 46.5984L83.7578 45.3312L79.4702 45.0469L79.4683 46.3047Z" fill="white"/>
<path d="M79.4644 48.0518L83.752 48.3585L83.7539 47.0913L79.4663 46.7939L79.4644 48.0518Z" fill="white"/>
<path d="M79.4644 49.8008L83.752 50.1205L83.7539 48.8533L79.4663 48.543L79.4644 49.8008Z" fill="white"/>
<path d="M79.4606 51.5479L83.7481 51.8806L83.75 50.6134L79.4624 50.29L79.4606 51.5479Z" fill="white"/>
<path d="M79.4606 53.294L83.7481 53.6397L83.75 52.3725L79.4624 52.0361L79.4606 53.294Z" fill="white"/>
<path d="M66.9246 7.83296L78.6192 7.8545L78.6211 6.59863L66.9264 6.6026L66.9246 7.83296Z" fill="white"/>
<path d="M58.1061 43.1585L74.7403 44.2477L74.7422 43.0001L58.1079 41.9473L58.1061 43.1585Z" fill="white"/>
<path d="M55.3771 44.6535L71.8458 45.7817L71.8477 44.5405L55.3789 43.4482L55.3771 44.6535Z" fill="white"/>
<path d="M55.3733 46.3284L71.8419 47.5065L71.8438 46.2653L55.375 45.123L55.3733 46.3284Z" fill="white"/>
<path d="M48.2724 47.474L64.3146 48.6702L64.3164 47.4454L48.2741 46.2842L48.2724 47.474Z" fill="white"/>
<path d="M48.2686 49.1264L64.3107 50.3712L64.3125 49.1464L48.2703 47.9365L48.2686 49.1264Z" fill="white"/>
<path d="M48.2686 50.7797L64.3107 52.0731L64.3125 50.8483L48.2704 49.5898L48.2686 50.7797Z" fill="white"/>
<path d="M66.8749 42.0233L78.5685 42.7536L78.5703 41.4977L66.8767 40.793L66.8749 42.0233Z" fill="white"/>
<path d="M58.1327 24.6468L74.7677 25.1815L74.7695 23.9339L58.1344 23.4355L58.1327 24.6468Z" fill="white"/>
<path d="M55.3997 26.2326L71.8693 26.8119L71.8711 25.5707L55.4015 25.0273L55.3997 26.2326Z" fill="white"/>
<path d="M55.3998 27.9075L71.8692 28.5366L71.8711 27.2954L55.4015 26.7021L55.3998 27.9075Z" fill="white"/>
<path d="M55.3999 29.5832L71.8692 30.2623L71.8711 29.0211L55.4016 28.3779L55.3999 29.5832Z" fill="white"/>
<path d="M67.9987 31.8139L78.5528 32.281L78.5547 31.0252L68.0005 30.5811L67.9987 31.8139Z" fill="white"/>
<path d="M63.0506 33.2933L74.7521 33.8467L74.7539 32.5992L63.0523 32.0713L63.0506 33.2933Z" fill="white"/>
<path d="M56.9701 34.6863L71.8575 35.4354L71.8594 34.1942L56.9719 33.4775L56.9701 34.6863Z" fill="white"/>
<path d="M56.9702 36.365L71.8575 37.1593L71.8594 35.9181L56.972 35.1562L56.9702 36.365Z" fill="white"/>
<path d="M53.665 37.8578L68.3732 38.6871L68.375 37.4535L53.6668 36.6562L53.665 37.8578Z" fill="white"/>
<path d="M53.6651 39.5287L68.3732 40.4026L68.375 39.169L53.6669 38.3271L53.6651 39.5287Z" fill="white"/>
<path d="M66.9016 23.2177L78.5958 23.5581L78.5977 22.3022L66.9034 21.9873L66.9016 23.2177Z" fill="white"/>
<path d="M88.2634 11.2031L98.8879 11.283L98.8906 9.45259L88.266 9.40527L88.2634 11.2031Z" fill="white"/>
<path d="M101.634 11.3029L99.6329 11.2878L99.6356 9.45508L101.637 9.46398L101.634 11.3029Z" fill="white"/>
<path d="M88.2595 13.7871L98.884 13.914L98.8867 12.0835L88.2622 11.9893L88.2595 13.7871Z" fill="white"/>
<path d="M101.63 13.9465L99.6291 13.9226L99.6317 12.0898L101.633 12.1076L101.63 13.9465Z" fill="white"/>
<path d="M88.2557 16.372L98.8801 16.5458L98.8828 14.7153L88.2583 14.5742L88.2557 16.372Z" fill="white"/>
<path d="M101.626 16.5901L99.6252 16.5574L99.6279 14.7246L101.629 14.7512L101.626 16.5901Z" fill="white"/>
<path d="M88.2292 34.7158L106.79 35.6009L106.793 33.7461L88.2318 32.918L88.2292 34.7158Z" fill="white"/>
<path d="M88.225 37.5234L98.8489 38.081L98.8516 36.2506L88.2276 35.7256L88.225 37.5234Z" fill="white"/>
<path d="M101.595 38.2258L99.594 38.1208L99.5967 36.2881L101.598 36.387L101.595 38.2258Z" fill="white"/>
<path d="M88.2211 40.1093L98.845 40.7138L98.8477 38.8834L88.2238 38.3115L88.2211 40.1093Z" fill="white"/>
<path d="M101.591 40.8694L99.5901 40.7556L99.5928 38.9229L101.594 39.0306L101.591 40.8694Z" fill="white"/>
<path d="M88.2173 42.6933L98.8411 43.3447L98.8438 41.5143L88.22 40.8955L88.2173 42.6933Z" fill="white"/>
<path d="M101.587 43.514L99.5862 43.3913L99.5889 41.5586L101.59 41.6751L101.587 43.514Z" fill="white"/>
<path d="M88.2519 18.9726L106.814 19.3587L106.816 17.5039L88.2546 17.1748L88.2519 18.9726Z" fill="white"/>
<path d="M88.248 21.7822L98.8723 22.0542L98.875 20.2237L88.2506 19.9844L88.248 21.7822Z" fill="white"/>
<path d="M101.618 22.1232L99.6173 22.072L99.6201 20.2393L101.621 20.2843L101.618 22.1232Z" fill="white"/>
<path d="M88.2442 24.3661L98.8684 24.685L98.8711 22.8546L88.2468 22.5684L88.2442 24.3661Z" fill="white"/>
<path d="M101.615 24.7668L99.6135 24.7067L99.6162 22.874L101.617 22.9279L101.615 24.7668Z" fill="white"/>
<path d="M88.2365 29.5683L98.8606 29.9816L98.8633 28.1511L88.2391 27.7705L88.2365 29.5683Z" fill="white"/>
<path d="M101.611 30.0883L99.6096 30.0104L99.6123 28.1777L101.613 28.2494L101.611 30.0883Z" fill="white"/>
<path d="M88.2326 32.1523L98.8566 32.6124L98.8594 30.782L88.2353 30.3545L88.2326 32.1523Z" fill="white"/>
<path d="M101.603 32.7319L99.6018 32.6452L99.6045 30.8125L101.605 30.8931L101.603 32.7319Z" fill="white"/>
<path d="M88.2403 26.9501L98.8645 27.3159L98.8672 25.4855L88.243 25.1523L88.2403 26.9501Z" fill="white"/>
<path d="M101.611 27.4104L99.6096 27.3415L99.6123 25.5088L101.613 25.5715L101.611 27.4104Z" fill="white"/>
<path d="M88.2101 45.2773L106.771 46.4972L106.773 44.6424L88.2128 43.4795L88.2101 45.2773Z" fill="white"/>
<path d="M88.2096 48.085L98.8333 48.8342L98.8359 47.0038L88.2123 46.2871L88.2096 48.085Z" fill="white"/>
<path d="M101.579 49.0285L99.5784 48.8874L99.5811 47.0547L101.582 47.1897L101.579 49.0285Z" fill="white"/>
<path d="M88.2058 50.6708L98.8293 51.467L98.832 49.6366L88.2085 48.873L88.2058 50.6708Z" fill="white"/>
<path d="M101.575 51.6731L99.5745 51.5231L99.5772 49.6904L101.578 49.8342L101.575 51.6731Z" fill="white"/>
<path d="M88.202 53.2548L98.8254 54.0978L98.8281 52.2674L88.2046 51.457L88.202 53.2548Z" fill="white"/>
<path d="M101.575 54.3157L99.5745 54.1569L99.5773 52.3242L101.578 52.4769L101.575 54.3157Z" fill="white"/>
<path d="M85.9445 53.0839L86.3533 53.1163L86.4219 6.5957L86.013 6.59584L85.9445 53.0839Z" fill="white"/>
<path d="M75.893 1.57742C75.893 2.11293 76.2731 2.54832 76.7425 2.54984C77.2124 2.55141 77.5938 2.11759 77.5938 1.58087C77.5938 1.04416 77.2124 0.608768 76.7425 0.608399C76.2731 0.60803 75.893 1.04186 75.893 1.57742Z" fill="white"/>
<path d="M38.1 56.6446L116.188 62.6415L82.1399 68.9969C81.75 69.0696 81.3546 69.089 80.9611 69.0545L-0.000526428 61.9515L36.8579 56.6854C37.2701 56.6265 37.6858 56.6128 38.1 56.6446Z" fill="url(#paint0_linear_4121_10349)"/>
<path d="M104.793 62.693L39.7828 57.626L19.6627 60.4775L84.1129 65.8939L104.793 62.693Z" fill="#D8DEE8"/>
<path d="M56.8397 47.396C56.1758 47.925 55.2283 47.7897 54.7236 47.0939L54.5589 46.8668C54.0541 46.1709 54.1832 45.178 54.8471 44.649L79.1533 25.2838C79.8173 24.7548 80.7647 24.89 81.2694 25.5859L81.4342 25.813C81.9389 26.5089 81.8098 27.5018 81.1459 28.0308L56.8397 47.396Z" fill="#3793AE"/>
<path d="M59.8367 51.1466C59.1728 51.6756 58.2253 51.5404 57.7206 50.8445L51.9576 42.8996C51.4528 42.2037 51.5819 41.2108 52.2459 40.6818L53.3363 39.8131C54.0002 39.2841 54.9477 39.4193 55.4524 40.1152L61.2154 48.0601C61.7202 48.756 61.5911 49.7489 60.9271 50.2779L59.8367 51.1466Z" fill="#82A9FF"/>
<path d="M59.5149 53.6738L35.8714 72.511C35.3094 72.9588 34.6414 73.1647 33.9849 73.151C33.0935 73.1338 32.2142 72.6997 31.6332 71.8986L25.6164 63.6039C24.6073 62.2127 24.8655 60.2259 26.193 59.1683L49.8365 40.331C50.8063 39.5584 52.0829 39.4924 53.0906 40.0579C53.4634 40.2646 53.8025 40.556 54.0744 40.9308L60.0912 49.2255C61.1003 50.6168 60.8423 52.6162 59.5149 53.6738Z" fill="#ADD2DD"/>
<g opacity="0.5">
<path d="M30.9471 62.8094C30.4646 63.1939 29.776 63.0955 29.4092 62.5898C29.0424 62.0841 29.1362 61.3625 29.6187 60.9781L49.2148 45.3655C49.6973 44.981 50.3859 45.0793 50.7527 45.5851C51.1195 46.0908 51.0257 46.8124 50.5432 47.1968L30.9471 62.8094Z" fill="#074287"/>
<path d="M35.1229 68.5643C34.6404 68.9488 33.9518 68.8504 33.585 68.3447C33.2182 67.839 33.312 67.1174 33.7945 66.7329L53.3906 51.1204C53.8731 50.7359 54.5617 50.8342 54.9285 51.3399C55.2953 51.8457 55.2015 52.5673 54.719 52.9517L35.1229 68.5643Z" fill="#074287"/>
</g>
<path d="M85.2309 27.5254L89.8387 22.0125C90.0443 21.7666 90.0537 21.4051 89.8649 21.1448L89.1331 20.136L88.5238 19.296L87.782 18.2733C87.5932 18.013 87.2584 17.9258 86.9772 18.0677L80.6748 21.2472C80.4789 21.3461 80.3189 21.5074 80.2169 21.7085L79.3766 23.3945C79.0973 23.9452 79.1732 24.5967 79.5334 25.0932L80.1612 25.9587L80.7705 26.7987L81.3882 27.6503C81.7483 28.1468 82.3273 28.3975 82.9084 28.2628L84.6954 27.8555C84.9077 27.8062 85.0876 27.6967 85.2309 27.5254Z" fill="#3793AE"/>
<path d="M35.063 31.1399L44.1624 28.6104L46.6219 19.0869L37.0604 10.0837C36.4821 9.47452 37.5167 8.04748 38.336 8.01256C42.3304 7.84223 46.3787 9.40448 49.3668 12.6977C54.7475 18.6276 54.6126 28.0393 49.0716 33.8048C43.4321 39.6728 34.3214 39.6449 28.7148 33.7392C25.7516 30.618 23.8566 26.932 24.034 22.855C24.0714 21.9954 25.5671 21.1375 26.1462 21.7475L35.063 31.1399Z" fill="url(#paint1_linear_4121_10349)"/>
<path d="M49.0655 28.3984L82.2269 60.9103C84.3547 63.0474 84.3866 66.6013 82.2973 68.7798C80.2087 70.9577 76.8191 70.9071 74.7905 68.6679L43.9151 33.769L49.0655 28.3984Z" fill="#074287"/>
<path d="M34.5396 31.7541L43.639 29.2247L46.0985 19.7012L37.1819 10.3089C36.6036 9.69978 36.9933 8.66179 37.8126 8.62682C41.807 8.45649 45.8553 10.0187 48.8434 13.312C54.224 19.2419 54.0891 28.6536 48.5482 34.4191C42.9087 40.2871 33.798 40.2591 28.1914 34.3535C25.2283 31.2323 23.8373 27.0937 24.0147 23.0167C24.0522 22.1571 25.0438 21.7518 25.6229 22.3618L34.5396 31.7541Z" fill="#ADD2DD"/>
<path d="M48.5421 29.0127L81.7035 61.5246C83.8313 63.6616 83.8631 67.2156 81.7739 69.3941C79.6853 71.572 76.2956 71.5214 74.267 69.2821L43.3917 34.3833L48.5421 29.0127Z" fill="#ADD2DD"/>
<defs>
<linearGradient id="paint0_linear_4121_10349" x1="116.188" y1="62.8495" x2="-0.000508827" y2="62.8495" gradientUnits="userSpaceOnUse">
<stop offset="0.494" stop-color="#EBEFF2"/>
<stop offset="1" stop-color="white"/>
</linearGradient>
<linearGradient id="paint1_linear_4121_10349" x1="43.9835" y1="15.6016" x2="10.7199" y2="68.9906" gradientUnits="userSpaceOnUse">
<stop stop-color="#40447E"/>
<stop offset="0.9964" stop-color="#3C3B6B"/>
</linearGradient>
</defs>
</svg>
