<svg width="150" height="180" viewBox="0 0 150 180" fill="none" xmlns="http://www.w3.org/2000/svg">
<path d="M138.853 110.885C138.779 110.885 138.705 110.854 138.652 110.792C138.415 110.515 138.175 110.242 137.932 109.973C137.83 109.861 137.836 109.685 137.945 109.579C138.053 109.474 138.223 109.48 138.325 109.592C138.571 109.865 138.815 110.142 139.055 110.422C139.153 110.537 139.143 110.713 139.032 110.815C138.981 110.862 138.917 110.885 138.853 110.885Z" fill="white"/>
<path d="M109.138 179.289C108.829 179.289 108.52 179.285 108.212 179.278C108.064 179.274 107.946 179.147 107.949 178.993C107.953 178.841 108.073 178.721 108.218 178.721C108.22 178.721 108.222 178.721 108.225 178.721C108.947 178.738 109.677 178.735 110.403 178.711C110.541 178.698 110.676 178.826 110.68 178.981C110.685 179.134 110.568 179.263 110.42 179.268C109.994 179.282 109.563 179.289 109.138 179.289ZM113.962 178.982C113.829 178.982 113.712 178.879 113.695 178.738C113.677 178.585 113.782 178.446 113.93 178.427C114.647 178.335 115.371 178.221 116.083 178.089C116.23 178.063 116.369 178.162 116.395 178.313C116.422 178.465 116.324 178.61 116.178 178.637C115.457 178.772 114.723 178.887 113.995 178.98C113.984 178.982 113.973 178.982 113.962 178.982ZM119.604 177.824C119.486 177.824 119.377 177.743 119.344 177.619C119.305 177.471 119.389 177.317 119.533 177.277C120.227 177.079 120.928 176.858 121.616 176.619C121.757 176.571 121.909 176.649 121.957 176.795C122.004 176.941 121.928 177.099 121.787 177.148C121.09 177.39 120.379 177.614 119.675 177.814C119.651 177.821 119.627 177.824 119.604 177.824ZM125.026 175.837C124.922 175.837 124.823 175.774 124.779 175.669C124.719 175.528 124.782 175.364 124.918 175.303C125.582 175.002 126.245 174.679 126.889 174.344C127.022 174.275 127.184 174.33 127.25 174.468C127.317 174.605 127.264 174.773 127.131 174.842C126.479 175.182 125.807 175.508 125.134 175.813C125.098 175.829 125.062 175.837 125.026 175.837ZM130.117 173.068C130.027 173.068 129.939 173.022 129.888 172.937C129.809 172.806 129.848 172.634 129.974 172.553C130.589 172.158 131.2 171.74 131.791 171.311C131.913 171.223 132.081 171.254 132.166 171.379C132.252 171.505 132.222 171.679 132.1 171.768C131.501 172.202 130.882 172.626 130.258 173.026C130.214 173.055 130.165 173.068 130.117 173.068ZM134.767 169.568C134.691 169.568 134.615 169.534 134.561 169.469C134.465 169.351 134.48 169.175 134.593 169.076C135.146 168.592 135.692 168.087 136.215 167.575C136.323 167.469 136.493 167.474 136.595 167.586C136.697 167.698 136.693 167.874 136.584 167.98C136.054 168.499 135.501 169.011 134.941 169.502C134.89 169.546 134.828 169.568 134.767 169.568ZM138.874 165.407C138.81 165.407 138.747 165.384 138.696 165.337C138.584 165.235 138.574 165.059 138.672 164.944C139.151 164.383 139.62 163.801 140.067 163.214C140.159 163.093 140.329 163.073 140.445 163.168C140.562 163.263 140.582 163.439 140.489 163.559C140.036 164.154 139.561 164.744 139.076 165.312C139.023 165.375 138.948 165.407 138.874 165.407ZM142.356 160.672C142.306 160.672 142.255 160.657 142.209 160.626C142.084 160.542 142.05 160.37 142.131 160.241C142.525 159.615 142.909 158.969 143.27 158.32C143.345 158.187 143.51 158.141 143.638 158.218C143.767 158.295 143.811 158.465 143.737 158.598C143.37 159.256 142.981 159.911 142.582 160.545C142.53 160.627 142.444 160.672 142.356 160.672ZM145.144 155.465C145.106 155.465 145.067 155.457 145.031 155.44C144.896 155.375 144.837 155.209 144.899 155.069C145.204 154.388 145.494 153.691 145.761 152.999C145.816 152.856 145.973 152.786 146.11 152.843C146.249 152.9 146.316 153.062 146.261 153.205C145.991 153.907 145.697 154.613 145.388 155.304C145.343 155.406 145.245 155.465 145.144 155.465ZM147.181 149.897C147.155 149.897 147.13 149.893 147.104 149.886C146.961 149.842 146.881 149.686 146.923 149.539C147.13 148.821 147.32 148.089 147.488 147.361C147.523 147.211 147.669 147.12 147.813 147.155C147.957 147.191 148.046 147.342 148.012 147.491C147.841 148.229 147.648 148.971 147.439 149.698C147.404 149.819 147.297 149.897 147.181 149.897ZM148.424 144.083C148.411 144.083 148.398 144.082 148.385 144.08C148.238 144.057 148.136 143.916 148.157 143.763C148.262 143.023 148.349 142.27 148.414 141.524C148.427 141.37 148.556 141.253 148.706 141.271C148.854 141.285 148.963 141.421 148.95 141.574C148.884 142.33 148.796 143.094 148.69 143.844C148.67 143.983 148.555 144.083 148.424 144.083ZM148.842 138.143C148.693 138.143 148.573 138.018 148.573 137.864C148.573 137.112 148.552 136.354 148.512 135.61C148.504 135.457 148.618 135.325 148.766 135.317C148.91 135.311 149.041 135.426 149.05 135.579C149.09 136.333 149.111 137.102 149.111 137.864C149.111 138.018 148.991 138.143 148.842 138.143ZM148.422 132.204C148.291 132.204 148.176 132.104 148.156 131.965C148.051 131.224 147.924 130.476 147.779 129.744C147.75 129.594 147.844 129.447 147.99 129.416C148.134 129.385 148.277 129.482 148.307 129.633C148.453 130.375 148.582 131.132 148.689 131.884C148.71 132.036 148.609 132.178 148.462 132.201C148.449 132.203 148.435 132.204 148.422 132.204ZM147.174 126.391C147.058 126.391 146.951 126.313 146.916 126.192C146.707 125.473 146.478 124.752 146.233 124.051C146.182 123.906 146.255 123.746 146.395 123.694C146.534 123.641 146.689 123.717 146.739 123.861C146.987 124.573 147.22 125.303 147.432 126.032C147.475 126.179 147.394 126.335 147.251 126.379C147.226 126.387 147.199 126.391 147.174 126.391ZM145.131 120.824C145.029 120.824 144.931 120.764 144.886 120.663C144.582 119.984 144.255 119.305 143.916 118.644C143.846 118.508 143.896 118.339 144.027 118.267C144.157 118.195 144.321 118.246 144.391 118.382C144.735 119.052 145.066 119.74 145.375 120.428C145.437 120.568 145.379 120.734 145.243 120.798C145.207 120.816 145.168 120.824 145.131 120.824ZM142.34 115.618C142.252 115.618 142.166 115.573 142.114 115.491C141.721 114.867 141.303 114.244 140.873 113.639C140.785 113.515 140.811 113.341 140.93 113.249C141.051 113.158 141.219 113.185 141.307 113.309C141.743 113.922 142.166 114.553 142.565 115.186C142.646 115.315 142.611 115.488 142.487 115.572C142.442 115.603 142.39 115.618 142.34 115.618Z" fill="white"/>
<path d="M104.641 179.025C104.631 179.025 104.621 179.025 104.61 179.023C104.251 178.981 103.893 178.933 103.536 178.881C103.389 178.859 103.286 178.718 103.307 178.566C103.328 178.413 103.462 178.307 103.612 178.329C103.964 178.381 104.317 178.427 104.672 178.469C104.819 178.487 104.925 178.625 104.908 178.778C104.893 178.92 104.776 179.025 104.641 179.025Z" fill="white"/>
<path d="M77.9236 163.622C77.8438 163.622 77.7651 163.586 77.7119 163.516C77.4888 163.223 77.2692 162.926 77.0532 162.625C76.9646 162.501 76.9892 162.327 77.1083 162.235C77.2278 162.143 77.3962 162.169 77.4851 162.292C77.6982 162.589 77.9145 162.882 78.1348 163.171C78.2267 163.292 78.2067 163.467 78.0897 163.563C78.0406 163.603 77.982 163.622 77.9236 163.622Z" fill="white"/>
<path d="M116.482 97.7497C116.465 97.7497 116.448 97.7483 116.431 97.7448C116.082 97.6765 115.731 97.6123 115.379 97.5537C115.232 97.5291 115.132 97.386 115.156 97.2342C115.18 97.0821 115.317 96.9801 115.464 97.0033C115.821 97.0631 116.177 97.1279 116.532 97.1973C116.678 97.2257 116.774 97.3714 116.746 97.5229C116.721 97.6565 116.608 97.7497 116.482 97.7497Z" fill="white"/>
<path d="M118.508 107.826C118.322 107.74 118.105 107.786 117.966 107.94L114.004 112.328C111.344 111.799 108.582 111.706 105.82 112.096L102.095 107.497C101.964 107.335 101.749 107.278 101.559 107.353L95.061 109.93C94.8711 110.005 94.7483 110.197 94.7551 110.407L94.9504 116.406C92.6428 118.027 90.6481 120.005 89.0092 122.239L83.2302 121.714C83.0276 121.695 82.8361 121.812 82.7533 122.004L79.9181 128.584C79.8353 128.776 79.8794 129.002 80.028 129.145L84.2658 133.247C83.7553 136.002 83.6653 138.861 84.0424 141.721L79.6001 145.578C79.4443 145.713 79.3885 145.936 79.4612 146.133L81.95 152.861C82.0227 153.058 82.2079 153.185 82.4111 153.178L88.2053 152.976C89.7699 155.365 91.6811 157.43 93.8384 159.127L93.3309 165.111C93.3132 165.32 93.4258 165.519 93.6115 165.605L99.9661 168.54C100.152 168.626 100.37 168.58 100.508 168.427L104.47 164.038C107.131 164.567 109.892 164.66 112.654 164.27L116.379 168.87C116.51 169.031 116.725 169.089 116.915 169.013L123.413 166.436C123.603 166.361 123.726 166.169 123.719 165.959L123.524 159.96C125.831 158.34 127.826 156.361 129.465 154.127L135.244 154.652C135.446 154.671 135.638 154.554 135.721 154.362L138.556 147.782C138.639 147.59 138.595 147.365 138.446 147.221L134.208 143.119C134.719 140.364 134.809 137.505 134.432 134.645L138.874 130.788C139.03 130.653 139.086 130.43 139.013 130.233L136.524 123.505C136.451 123.309 136.266 123.181 136.063 123.188L130.269 123.391C128.704 121.001 126.793 118.936 124.636 117.239L125.143 111.256C125.161 111.046 125.048 110.848 124.863 110.762L118.508 107.826Z" fill="#ADD2DD"/>
<path opacity="0.7" d="M109.251 145.002C108.871 145.002 108.489 144.968 108.107 144.899C106.375 144.587 104.864 143.595 103.853 142.106C102.841 140.616 102.45 138.809 102.752 137.015C103.053 135.222 104.011 133.657 105.449 132.61C108.418 130.448 112.532 131.189 114.62 134.263C115.632 135.752 116.023 137.56 115.721 139.353C115.42 141.147 114.462 142.711 113.024 143.759C111.902 144.575 110.594 145.002 109.251 145.002ZM109.229 132.207C108.081 132.207 106.922 132.559 105.914 133.294C104.652 134.212 103.812 135.585 103.547 137.159C103.283 138.732 103.626 140.318 104.513 141.624C105.401 142.931 106.726 143.801 108.246 144.075C109.766 144.349 111.298 143.994 112.559 143.075C113.821 142.156 114.661 140.783 114.926 139.21C115.191 137.636 114.848 136.05 113.96 134.744C112.837 133.091 111.046 132.207 109.229 132.207Z" fill="white"/>
<path opacity="0.7" d="M109.207 156.13C102.286 156.13 95.749 151.774 93.1301 144.694C92.3578 142.606 91.9918 140.458 91.9922 138.345C91.9931 131.181 96.2006 124.412 103.038 121.701C103.275 121.607 103.514 121.519 103.754 121.436C104.57 121.154 105.404 120.935 106.245 120.783C106.355 120.763 106.465 120.744 106.575 120.727L106.698 121.553C105.554 121.736 104.419 122.048 103.326 122.482C94.8886 125.828 90.6528 135.658 93.8843 144.395C97.116 153.132 106.61 157.517 115.048 154.171C119.135 152.55 122.369 149.378 124.152 145.24C125.104 143.029 125.583 140.684 125.583 138.333C125.583 136.283 125.219 134.23 124.49 132.258C123.428 129.386 121.637 126.87 119.312 124.982L119.81 124.325C122.25 126.306 124.129 128.946 125.244 131.959C126.009 134.028 126.39 136.183 126.39 138.333C126.39 140.8 125.889 143.261 124.889 145.58C123.018 149.923 119.625 153.251 115.336 154.952C113.321 155.751 111.246 156.13 109.207 156.13Z" fill="white"/>
<path d="M101.097 20.8899C100.99 20.8899 100.882 20.8441 100.805 20.7539C100.462 20.3527 100.114 19.9574 99.7616 19.5673C99.6143 19.4041 99.6225 19.1487 99.7797 18.9962C99.9374 18.8431 100.184 18.8517 100.331 19.0149C100.689 19.4102 101.042 19.8114 101.39 20.2177C101.532 20.3847 101.518 20.6401 101.356 20.7884C101.282 20.8563 101.19 20.8899 101.097 20.8899Z" fill="white"/>
<path d="M51.4889 119.701C51.4742 119.701 51.4593 119.7 51.4441 119.699C50.9232 119.637 50.4039 119.568 49.886 119.492C49.6725 119.461 49.5243 119.256 49.5547 119.035C49.5847 118.814 49.7789 118.66 49.9961 118.692C50.5067 118.766 51.0194 118.834 51.5329 118.895C51.7472 118.921 51.9008 119.121 51.8765 119.343C51.8533 119.549 51.6846 119.701 51.4889 119.701Z" fill="white"/>
<path d="M12.7417 97.3655C12.626 97.3655 12.5119 97.3128 12.4346 97.2113C12.1112 96.7863 11.7927 96.3553 11.4795 95.9192C11.351 95.7399 11.3866 95.487 11.5595 95.3535C11.7327 95.2196 11.9769 95.2579 12.1058 95.4364C12.4149 95.8665 12.7285 96.2915 13.0479 96.7114C13.1813 96.8865 13.1522 97.1407 12.9826 97.2788C12.9113 97.337 12.8264 97.3655 12.7417 97.3655Z" fill="white"/>
<path d="M8.94661 91.7236C8.81528 91.7236 8.68721 91.6552 8.61375 91.5311C8.06904 90.6135 7.53905 89.6631 7.03824 88.7064C6.93559 88.5101 7.00579 88.2649 7.19549 88.1586C7.38557 88.0519 7.62195 88.125 7.7246 88.3214C8.21887 89.265 8.74181 90.2025 9.27872 91.1079C9.39156 91.2983 9.33419 91.547 9.15065 91.6638C9.08699 91.7045 9.01643 91.7236 8.94661 91.7236ZM5.15744 84.185C5.00673 84.185 4.86306 84.0941 4.79953 83.9419C4.70795 83.7239 4.61813 83.5054 4.52906 83.2861C4.21419 82.5104 3.90926 81.713 3.62307 80.9162C3.54797 80.7066 3.65062 80.4741 3.85253 80.3963C4.05695 80.3176 4.27986 80.4252 4.35458 80.6339C4.63738 81.4206 4.93792 82.2074 5.24864 82.9728C5.33645 83.1892 5.42551 83.405 5.51545 83.6197C5.60125 83.8246 5.51055 84.0625 5.31304 84.1514C5.2621 84.1744 5.20952 84.185 5.15744 84.185ZM2.42736 76.1695C2.25615 76.1695 2.09902 76.0517 2.05135 75.8724C1.77383 74.8264 1.52098 73.7605 1.2997 72.7042C1.25379 72.4858 1.3875 72.2708 1.59809 72.2236C1.80868 72.1752 2.01676 72.3145 2.06229 72.5326C2.28068 73.5747 2.53026 74.6262 2.804 75.6581C2.86099 75.8735 2.73871 76.0959 2.53101 76.155C2.49667 76.1649 2.46183 76.1695 2.42736 76.1695ZM0.823921 67.8341C0.629814 67.8341 0.461877 67.6844 0.43722 67.48C0.306641 66.4035 0.203614 65.3112 0.130525 64.2338C0.115681 64.0116 0.277833 63.8181 0.492948 63.8024C0.70517 63.7939 0.894372 63.9549 0.909594 64.1776C0.981425 65.2402 1.08283 66.3172 1.21127 67.3798C1.23831 67.6012 1.08647 67.8031 0.872616 67.8311C0.856388 67.8332 0.839898 67.8341 0.823921 67.8341ZM0.39043 59.3459C0.387914 59.3459 0.385529 59.3459 0.383013 59.3459C0.16752 59.3416 -0.00407758 59.1572 7.37626e-05 58.934C0.0198241 57.8515 0.0690097 56.7545 0.14625 55.6741C0.162226 55.4513 0.34904 55.2851 0.564155 55.3009C0.77927 55.3171 0.940542 55.5109 0.924566 55.7336C0.848584 56.7996 0.800155 57.8812 0.780908 58.9493C0.776757 59.1701 0.602651 59.3459 0.39043 59.3459ZM1.13301 50.8804C1.11213 50.8804 1.09113 50.8787 1.06974 50.8749C0.856767 50.8392 0.712598 50.6313 0.74757 50.4112C0.915888 49.3427 1.1149 48.2644 1.33945 47.207C1.38624 46.989 1.59432 46.8533 1.80453 46.8988C2.01511 46.9469 2.14808 47.1623 2.10216 47.3804C1.8805 48.4238 1.68388 49.4872 1.51758 50.5412C1.48651 50.7397 1.32108 50.8804 1.13301 50.8804ZM3.02905 42.6121C2.99043 42.6121 2.95105 42.6061 2.91205 42.5933C2.70637 42.5266 2.59228 42.2996 2.65669 42.0866C2.96905 41.0552 3.31386 40.0177 3.68132 39.0026C3.7568 38.7936 3.98222 38.6864 4.18375 38.7658C4.38527 38.844 4.48794 39.077 4.41195 39.2857C4.04991 40.287 3.70999 41.3108 3.40128 42.3288C3.3492 42.5016 3.19535 42.6121 3.02905 42.6121ZM6.03513 34.7055C5.97889 34.7055 5.92141 34.6927 5.86719 34.666C5.67258 34.5695 5.59055 34.3285 5.68327 34.1271C6.13602 33.1458 6.6192 32.1694 7.11837 31.2247C7.22178 31.0288 7.45905 30.9569 7.64787 31.0641C7.83707 31.1712 7.9065 31.4168 7.80297 31.6123C7.31084 32.5444 6.8342 33.5079 6.38761 34.4757C6.32081 34.6208 6.1808 34.7055 6.03513 34.7055ZM10.0902 27.3193C10.0159 27.3193 9.94079 27.2972 9.87437 27.2514C9.69498 27.1276 9.64654 26.8769 9.76605 26.6911C10.3456 25.79 10.9572 24.8946 11.5828 24.0288C11.7113 23.8507 11.9563 23.8133 12.1292 23.9476C12.3015 24.0811 12.3369 24.3343 12.2076 24.5133C11.5906 25.3671 10.9876 26.2507 10.4154 27.1391C10.3402 27.256 10.2163 27.3193 10.0902 27.3193ZM15.1154 20.6063C15.0227 20.6063 14.9295 20.5722 14.8547 20.503C14.6942 20.3542 14.6806 20.0988 14.8248 19.9322C15.5202 19.1285 16.2483 18.3324 16.9889 17.5661C17.1407 17.408 17.3887 17.408 17.5405 17.5661C17.6932 17.7239 17.6932 17.9797 17.5405 18.1373C16.8103 18.8934 16.0923 19.6789 15.406 20.472C15.3289 20.5608 15.2226 20.6063 15.1154 20.6063ZM21.0121 14.7057C20.9009 14.7057 20.79 14.6563 20.7128 14.5607C20.5744 14.3894 20.5962 14.1348 20.7616 13.9916C21.5641 13.2963 22.3944 12.6163 23.229 11.9706C23.4018 11.8376 23.646 11.8737 23.7753 12.0527C23.9043 12.2316 23.8689 12.4845 23.6961 12.6184C22.8731 13.255 22.0542 13.9257 21.2623 14.6112C21.1893 14.6747 21.1007 14.7057 21.0121 14.7057ZM27.6648 9.73848C27.5338 9.73848 27.4061 9.67049 27.3323 9.54636C27.2189 9.35645 27.2761 9.10779 27.4595 8.99043C28.3482 8.42214 29.2648 7.8713 30.183 7.35329C30.3711 7.24622 30.6087 7.31838 30.7125 7.5148C30.8155 7.7107 30.7457 7.95635 30.5565 8.06303C29.6505 8.57427 28.7463 9.11795 27.8691 9.67817C27.8055 9.71894 27.7346 9.73848 27.6648 9.73848ZM34.934 5.80067C34.7838 5.80067 34.6405 5.71015 34.5761 5.55802C34.49 5.35352 34.5803 5.11554 34.778 5.02593C35.0276 4.91326 35.2788 4.8019 35.5317 4.69183C36.2487 4.37988 36.9774 4.0803 37.6982 3.80104C37.8997 3.72367 38.1252 3.82905 38.2006 4.03823C38.2761 4.24729 38.1736 4.47978 37.9716 4.55845C37.2605 4.8338 36.5414 5.12922 35.8341 5.437C35.5849 5.54577 35.337 5.65544 35.0899 5.7672C35.0392 5.78999 34.9862 5.80067 34.934 5.80067ZM42.6693 2.95595C42.4985 2.95595 42.3413 2.8386 42.2936 2.65977C42.2358 2.44472 42.3576 2.22199 42.5653 2.16246C43.5764 1.87213 44.605 1.60784 45.623 1.37664C45.834 1.3291 46.0417 1.46625 46.0881 1.68481C46.134 1.90285 46.001 2.1183 45.7904 2.16636C44.7859 2.39417 43.7709 2.6552 42.7738 2.9411C42.7391 2.95126 42.7041 2.95595 42.6693 2.95595ZM50.7156 1.27714C50.5218 1.27714 50.3539 1.12799 50.3289 0.923885C50.3013 0.702846 50.4528 0.500174 50.6668 0.472039C51.7016 0.335143 52.7561 0.225993 53.8013 0.147711C54.0171 0.125959 54.2032 0.298924 54.2187 0.521266C54.2343 0.743998 54.0725 0.937292 53.8579 0.953443C52.8267 1.03081 51.7866 1.1388 50.7653 1.27348C50.7488 1.27582 50.7321 1.27714 50.7156 1.27714ZM62.0372 0.950709C62.0277 0.950709 62.0183 0.950316 62.0089 0.949405C60.9799 0.873337 59.9356 0.825794 58.9044 0.80834C58.6889 0.804563 58.5173 0.620528 58.5206 0.397405C58.5243 0.176887 58.6984 0 58.911 0C58.913 0 58.9151 0 58.9175 0C59.9626 0.0178446 61.0216 0.0663022 62.0647 0.143672C62.2798 0.159433 62.4415 0.35272 62.4259 0.575453C62.4116 0.788416 62.24 0.950709 62.0372 0.950709Z" fill="white"/>
<path d="M68.6581 1.84303C68.6339 1.84303 68.6097 1.84093 68.5851 1.83585C68.0781 1.73686 67.5691 1.64374 67.0589 1.55881C66.8458 1.52312 66.7014 1.31563 66.7355 1.0955C66.7699 0.874855 66.9698 0.727012 67.1829 0.760617C67.7006 0.847366 68.2161 0.941282 68.7305 1.04197C68.9423 1.08313 69.0814 1.2944 69.0412 1.51413C69.0058 1.70782 68.8421 1.84303 68.6581 1.84303Z" fill="white"/>
<path d="M71.5949 16.4561C71.3257 16.3317 71.0098 16.3978 70.8084 16.621L65.0635 22.9841C61.2053 22.2175 57.2013 22.0825 53.1953 22.6485L47.7936 15.9785C47.6041 15.7445 47.2921 15.6609 47.0166 15.77L37.5933 19.5066C37.318 19.616 37.1399 19.894 37.1498 20.199L37.4329 28.8989C34.0866 31.2482 31.1941 34.1179 28.8174 37.3569L20.4371 36.595C20.1433 36.5683 19.8656 36.7375 19.7454 37.0162L15.6341 46.5576C15.514 46.8366 15.5779 47.1635 15.7933 47.3721L21.9388 53.3202C21.1985 57.3151 21.0681 61.461 21.6149 65.6086L15.1729 71.2018C14.947 71.398 14.8661 71.7209 14.9715 72.0061L18.5805 81.7631C18.686 82.0482 18.9545 82.2328 19.2493 82.2224L27.6516 81.9292C29.9205 85.394 32.6921 88.3891 35.8204 90.8498L35.0845 99.527C35.0587 99.8309 35.2222 100.119 35.4914 100.243L44.7065 104.5C44.9758 104.625 45.2917 104.558 45.493 104.335L51.2377 97.9719C55.0959 98.7386 59.1001 98.8735 63.106 98.3074L68.5079 104.978C68.6973 105.211 69.0093 105.295 69.2847 105.186L78.708 101.449C78.9834 101.34 79.1614 101.062 79.1515 100.757L78.8683 92.057C82.2146 89.7077 85.1072 86.8379 87.4839 83.5989L95.8641 84.3609C96.1579 84.3877 96.4358 84.2184 96.5559 83.9395L100.667 74.3981C100.787 74.1192 100.723 73.7923 100.508 73.5838L94.3626 67.6356C95.1029 63.6408 95.2333 59.4948 94.6865 55.3472L101.129 49.754C101.354 49.5581 101.435 49.235 101.33 48.9498L97.7208 39.193C97.6152 38.9079 97.3468 38.7234 97.052 38.7336L88.6497 39.0268C86.3808 35.5622 83.6091 32.567 80.481 30.1062L81.2168 21.4292C81.2426 21.1251 81.0793 20.8376 80.8098 20.713L71.5949 16.4561Z" fill="#ADD2DD"/>
<path opacity="0.7" d="M58.17 70.3658C57.6196 70.3658 57.0654 70.3166 56.5122 70.2167C54.0003 69.7641 51.8092 68.3253 50.3421 66.1662C48.8754 64.0066 48.3082 61.3852 48.7454 58.7844C49.1829 56.1837 50.5719 53.9149 52.6573 52.3959C56.9633 49.2606 62.9285 50.3358 65.957 54.7931C67.4236 56.9525 67.9909 59.5741 67.5534 62.1748C67.1162 64.7759 65.7266 67.0446 63.6414 68.5637C62.0151 69.7478 60.1179 70.3658 58.17 70.3658ZM58.1381 51.812C56.4731 51.812 54.7931 52.3228 53.3313 53.3879C51.5013 54.7199 50.2827 56.7106 49.8993 58.9922C49.5155 61.2741 50.013 63.5739 51.3003 65.4682C52.5871 67.363 54.5094 68.6249 56.7134 69.0223C58.9173 69.4193 61.1385 68.9041 62.9676 67.5717C64.7976 66.2392 66.0164 64.2489 66.4002 61.9669C66.784 59.685 66.2864 57.3851 64.9992 55.4908C63.3709 53.0943 60.7738 51.812 58.1381 51.812Z" fill="white"/>
<path opacity="0.7" d="M58.1077 86.5063C48.0721 86.5063 38.5925 80.1888 34.7946 69.9216C33.6748 66.8938 33.144 63.7792 33.1445 60.7148C33.1458 50.3261 39.2472 40.5111 49.162 36.5793C49.5056 36.4429 49.8521 36.3144 50.2005 36.1942C51.3835 35.7854 52.5932 35.4687 53.8124 35.2481C53.9721 35.2192 54.1318 35.1919 54.2915 35.166L54.4705 36.3646C52.8108 36.6298 51.1657 37.0829 49.5808 37.7115C37.3447 42.564 31.2022 56.8187 35.8883 69.4881C40.5748 82.158 54.3429 88.5179 66.5782 83.6655C72.5056 81.3151 77.1946 76.7152 79.7806 70.7134C81.1619 67.5075 81.8552 64.1065 81.8552 60.6978C81.8552 57.7257 81.3281 54.748 80.2707 51.8888C78.7302 47.7232 76.1335 44.0748 72.7621 41.3376L73.4845 40.3839C77.0229 43.2563 79.7477 47.0848 81.3642 51.4553C82.4737 54.4551 83.0266 57.5799 83.0266 60.6982C83.0266 64.2746 82.2992 67.8436 80.8498 71.2076C78.1361 77.5052 73.2165 82.3312 66.9967 84.7977C64.0737 85.9567 61.0656 86.5063 58.1077 86.5063Z" fill="white"/>
</svg>
