<svg width="163" height="115" viewBox="0 0 163 115" fill="none" xmlns="http://www.w3.org/2000/svg">
<path d="M-0.00109863 84.7385L158.922 83.2988V87.5586C158.922 88.7148 158.229 89.6979 157.29 89.8731L112.351 98.2614C111.818 98.3609 111.277 98.3873 110.739 98.3401L1.72597 88.7762C0.752716 88.6908 -0.0010376 87.7046 -0.0010376 86.5167L-0.00109863 84.7385Z" fill="#BFC8D6"/>
<path d="M58.484 77.9106L159.492 85.7033C161.3 85.8428 162.77 84.3611 162.77 82.3934V3.56273C162.77 1.59509 161.3 0 159.492 0L155.919 2.15852L58.4841 0C56.995 0 55.791 1.44194 55.791 3.22065V74.4822C55.791 76.2608 56.995 77.7957 58.484 77.9106Z" fill="#BFC8D6"/>
<path d="M56.8747 77.9106L157.883 85.7033C159.691 85.8428 161.16 84.3611 161.16 82.3934V3.56273C161.16 1.59509 159.691 0 157.883 0H56.8747C55.3856 0 54.1816 1.44194 54.1816 3.22065V74.4822C54.1816 76.2608 55.3856 77.7957 56.8747 77.9106Z" fill="white"/>
<path d="M60.0207 72.8858L154.099 79.6549C155.57 79.7607 156.766 78.5445 156.766 76.9382V7.9218C156.766 6.31548 155.57 5.00791 154.099 5.00122L60.0207 4.57619C58.7923 4.57064 57.7987 5.75219 57.7987 7.21525V70.0769C57.7987 71.5399 58.7923 72.7974 60.0207 72.8858Z" fill="#D8DEE8"/>
<path d="M120.732 11.4794L146.121 11.5487L146.125 9.01172L120.735 9.02037L120.732 11.4794Z" fill="white"/>
<path d="M108.777 10.746L114.642 10.7567L114.645 9.02344L108.779 9.02539L108.777 10.746Z" fill="white"/>
<path d="M108.773 13.1346L114.638 13.1632L114.641 11.4299L108.775 11.4141L108.773 13.1346Z" fill="white"/>
<path d="M79.5438 12.9927L102.298 13.1036L102.301 11.3971L79.5463 11.3359L79.5438 12.9927Z" fill="white"/>
<path d="M75.8092 15.2658L98.3373 15.4438L98.3398 13.7461L75.8117 13.6172L75.8092 15.2658Z" fill="white"/>
<path d="M75.8054 17.5568L98.3334 17.803L98.3359 16.1053L75.8078 15.9082L75.8054 17.5568Z" fill="white"/>
<path d="M75.8016 19.8459L98.3295 20.1604L98.332 18.4626L75.8041 18.1973L75.8016 19.8459Z" fill="white"/>
<path d="M108.769 15.5252L114.634 15.5715L114.637 13.8382L108.772 13.8047L108.769 15.5252Z" fill="white"/>
<path d="M108.765 17.9178L114.63 17.9819L114.633 16.2485L108.768 16.1973L108.765 17.9178Z" fill="white"/>
<path d="M108.761 20.3064L114.626 20.3883L114.629 18.655L108.764 18.5859L108.761 20.3064Z" fill="white"/>
<path d="M108.757 22.6971L114.622 22.7967L114.625 21.0634L108.76 20.9766L108.757 22.6971Z" fill="white"/>
<path d="M93.0413 22.4304L107.478 22.6756L107.48 20.958L93.0438 20.7441L93.0413 22.4304Z" fill="white"/>
<path d="M108.753 25.0877L114.619 25.2051L114.621 23.4718L108.756 23.3672L108.753 25.0877Z" fill="white"/>
<path d="M108.75 27.4783L114.615 27.6136L114.617 25.8803L108.752 25.7578L108.75 27.4783Z" fill="white"/>
<path d="M108.75 29.8689L114.615 30.022L114.617 28.2886L108.752 28.1484L108.75 29.8689Z" fill="white"/>
<path d="M86.2727 24.6383L102.279 24.9587L102.281 23.2524L86.2751 22.9668L86.2727 24.6383Z" fill="white"/>
<path d="M77.9577 26.7667L98.3217 27.236L98.3242 25.5383L77.9602 25.1133L77.9577 26.7667Z" fill="white"/>
<path d="M77.95 29.0674L98.3139 29.5985L98.3164 27.9008L77.9525 27.4141L77.95 29.0674Z" fill="white"/>
<path d="M108.746 32.2596L114.611 32.4303L114.613 30.697L108.748 30.5391L108.746 32.2596Z" fill="white"/>
<path d="M108.742 34.6482L114.607 34.8368L114.609 33.1035L108.744 32.9277L108.742 34.6482Z" fill="white"/>
<path d="M108.738 37.0388L114.603 37.2451L114.605 35.5118L108.74 35.3184L108.738 37.0388Z" fill="white"/>
<path d="M108.734 39.4314L114.599 39.6555L114.602 37.9222L108.737 37.7109L108.734 39.4314Z" fill="white"/>
<path d="M108.73 41.8221L114.595 42.0638L114.598 40.3306L108.733 40.1016L108.73 41.8221Z" fill="white"/>
<path d="M108.726 44.2127L114.591 44.4722L114.594 42.7389L108.729 42.4922L108.726 44.2127Z" fill="white"/>
<path d="M108.722 46.6033L114.587 46.8807L114.59 45.1474L108.725 44.8828L108.722 46.6033Z" fill="white"/>
<path d="M108.719 48.9939L114.583 49.2891L114.586 47.5558L108.721 47.2734L108.719 48.9939Z" fill="white"/>
<path d="M108.715 51.3826L114.579 51.6955L114.582 49.9622L108.717 49.6621L108.715 51.3826Z" fill="white"/>
<path d="M108.715 53.7732L114.579 54.104L114.582 52.3707L108.717 52.0527L108.715 53.7732Z" fill="white"/>
<path d="M108.707 56.1638L114.572 56.5124L114.574 54.7791L108.709 54.4434L108.707 56.1638Z" fill="white"/>
<path d="M108.707 58.5545L114.572 58.9207L114.574 57.1875L108.709 56.834L108.707 58.5545Z" fill="white"/>
<path d="M108.703 60.9452L114.568 61.3291L114.57 59.5958L108.706 59.2246L108.703 60.9452Z" fill="white"/>
<path d="M108.699 63.3357L114.564 63.7375L114.566 62.0042L108.702 61.6152L108.699 63.3357Z" fill="white"/>
<path d="M108.695 65.7264L114.56 66.1459L114.562 64.4126L108.698 64.0059L108.695 65.7264Z" fill="white"/>
<path d="M108.691 68.117L114.556 68.5543L114.559 66.821L108.694 66.3965L108.691 68.117Z" fill="white"/>
<path d="M108.688 70.5076L114.552 70.9627L114.555 69.2294L108.69 68.7871L108.688 70.5076Z" fill="white"/>
<path d="M108.684 72.8963L114.548 73.3691L114.551 71.6358L108.686 71.1758L108.684 72.8963Z" fill="white"/>
<path d="M91.5405 10.7118L107.537 10.7412L107.539 9.02344L91.5429 9.02887L91.5405 10.7118Z" fill="white"/>
<path d="M79.4755 59.0298L102.228 60.5196L102.23 58.8131L79.478 57.373L79.4755 59.0298Z" fill="white"/>
<path d="M75.741 61.0763L98.267 62.6195L98.2695 60.9218L75.7434 59.4277L75.741 61.0763Z" fill="white"/>
<path d="M75.7372 63.3674L98.2631 64.9789L98.2656 63.2811L75.7396 61.7188L75.7372 63.3674Z" fill="white"/>
<path d="M66.0275 64.936L87.9702 66.5723L87.9727 64.8969L66.0299 63.3086L66.0275 64.936Z" fill="white"/>
<path d="M66.0237 67.1958L87.9663 68.8985L87.9688 67.2232L66.0261 65.5684L66.0237 67.1958Z" fill="white"/>
<path d="M66.0199 69.4575L87.9624 71.2267L87.9648 69.5514L66.0223 67.8301L66.0199 69.4575Z" fill="white"/>
<path d="M91.4716 57.4778L107.466 58.4766L107.469 56.7588L91.4741 55.7949L91.4716 57.4778Z" fill="white"/>
<path d="M79.5135 33.7115L102.267 34.4428L102.27 32.7364L79.5159 32.0547L79.5135 33.7115Z" fill="white"/>
<path d="M75.7789 35.881L98.3061 36.6734L98.3086 34.9756L75.7814 34.2324L75.7789 35.881Z" fill="white"/>
<path d="M75.7751 38.1721L98.3022 39.0327L98.3047 37.335L75.7775 36.5234L75.7751 38.1721Z" fill="white"/>
<path d="M75.7713 40.463L98.2983 41.3919L98.3008 39.6942L75.7737 38.8145L75.7713 40.463Z" fill="white"/>
<path d="M93.0107 43.5163L107.447 44.1553L107.449 42.4376L93.0131 41.8301L93.0107 43.5163Z" fill="white"/>
<path d="M86.2421 45.5387L102.247 46.2956L102.25 44.5892L86.2445 43.8672L86.2421 45.5387Z" fill="white"/>
<path d="M77.9234 47.4443L98.2865 48.469L98.2891 46.7713L77.9258 45.791L77.9234 47.4443Z" fill="white"/>
<path d="M77.9235 49.7413L98.2865 50.8277L98.2891 49.13L77.926 48.0879L77.9235 49.7413Z" fill="white"/>
<path d="M73.403 51.7822L93.5209 52.9165L93.5234 51.2291L73.4054 50.1387L73.403 51.7822Z" fill="white"/>
<path d="M73.3992 54.0654L93.5171 55.2607L93.5195 53.5733L73.4016 52.4219L73.3992 54.0654Z" fill="white"/>
<path d="M91.5099 31.7571L107.505 32.2228L107.508 30.505L91.5124 30.0742L91.5099 31.7571Z" fill="white"/>
<path d="M120.726 15.3223L135.258 15.4317L135.262 12.928L120.729 12.8633L120.726 15.3223Z" fill="white"/>
<path d="M139.016 15.461L136.279 15.4404L136.282 12.9336L139.02 12.9458L139.016 15.461Z" fill="white"/>
<path d="M120.722 18.8575L135.254 19.0311L135.258 16.5274L120.725 16.3984L120.722 18.8575Z" fill="white"/>
<path d="M139.012 19.0747L136.275 19.042L136.279 16.5352L139.016 16.5594L139.012 19.0747Z" fill="white"/>
<path d="M120.714 22.3926L135.246 22.6303L135.25 20.1266L120.718 19.9336L120.714 22.3926Z" fill="white"/>
<path d="M139.008 22.6903L136.271 22.6455L136.275 20.1387L139.012 20.1751L139.008 22.6903Z" fill="white"/>
<path d="M120.679 47.4844L146.067 48.6951L146.07 46.1581L120.682 45.0254L120.679 47.4844Z" fill="white"/>
<path d="M120.672 51.3243L135.203 52.087L135.207 49.5833L120.676 48.8652L120.672 51.3243Z" fill="white"/>
<path d="M138.965 52.2852L136.228 52.1415L136.232 49.6348L138.969 49.77L138.965 52.2852Z" fill="white"/>
<path d="M120.668 54.8614L135.199 55.6882L135.203 53.1845L120.672 52.4023L120.668 54.8614Z" fill="white"/>
<path d="M138.957 55.9008L136.22 55.7451L136.224 53.2383L138.961 53.3856L138.957 55.9008Z" fill="white"/>
<path d="M120.664 58.3946L135.196 59.2856L135.199 56.7819L120.668 55.9355L120.664 58.3946Z" fill="white"/>
<path d="M138.953 59.5184L136.216 59.3505L136.22 56.8438L138.957 57.0032L138.953 59.5184Z" fill="white"/>
<path d="M120.709 25.9493L146.098 26.4774L146.102 23.9404L120.713 23.4902L120.709 25.9493Z" fill="white"/>
<path d="M120.703 29.7931L135.235 30.165L135.238 27.6614L120.706 27.334L120.703 29.7931Z" fill="white"/>
<path d="M138.996 30.2605L136.259 30.1904L136.263 27.6836L139 27.7452L138.996 30.2605Z" fill="white"/>
<path d="M120.699 33.3282L135.231 33.7643L135.234 31.2606L120.702 30.8691L120.699 33.3282Z" fill="white"/>
<path d="M138.989 33.876L136.251 33.7939L136.255 31.2871L138.992 31.3609L138.989 33.876Z" fill="white"/>
<path d="M120.687 40.4434L135.219 41.0087L135.223 38.505L120.691 37.9844L120.687 40.4434Z" fill="white"/>
<path d="M138.981 41.1562L136.244 41.0497L136.247 38.543L138.984 38.641L138.981 41.1562Z" fill="white"/>
<path d="M120.683 43.9786L135.215 44.608L135.219 42.1043L120.687 41.5195L120.683 43.9786Z" fill="white"/>
<path d="M138.973 44.7699L136.236 44.6514L136.24 42.1445L138.977 42.2547L138.973 44.7699Z" fill="white"/>
<path d="M120.695 36.8633L135.227 37.3636L135.23 34.8599L120.699 34.4043L120.695 36.8633Z" fill="white"/>
<path d="M138.985 37.4916L136.248 37.3974L136.251 34.8906L138.988 34.9764L138.985 37.4916Z" fill="white"/>
<path d="M120.656 61.9297L146.043 63.5984L146.047 61.0614L120.659 59.4707L120.656 61.9297Z" fill="white"/>
<path d="M120.653 65.7696L135.184 66.7944L135.188 64.2908L120.656 63.3105L120.653 65.7696Z" fill="white"/>
<path d="M138.942 67.0611L136.205 66.8681L136.208 64.3613L138.945 64.546L138.942 67.0611Z" fill="white"/>
<path d="M120.645 69.3067L135.176 70.3957L135.18 67.892L120.649 66.8477L120.645 69.3067Z" fill="white"/>
<path d="M138.934 70.6787L136.197 70.4736L136.201 67.9668L138.938 68.1635L138.934 70.6787Z" fill="white"/>
<path d="M120.641 72.8418L135.172 73.9949L135.176 71.4912L120.645 70.3828L120.641 72.8418Z" fill="white"/>
<path d="M138.93 74.2923L136.193 74.0751L136.197 71.5684L138.934 71.7772L138.93 74.2923Z" fill="white"/>
<path d="M117.554 72.6065L118.113 72.6508L118.207 9.01953L117.648 9.01972L117.554 72.6065Z" fill="white"/>
<path d="M103.81 2.15551C103.81 2.88799 104.33 3.48352 104.972 3.4856C105.615 3.48775 106.137 2.89436 106.137 2.16024C106.137 1.42612 105.615 0.830583 104.972 0.830078C104.33 0.829574 103.81 1.42297 103.81 2.15551Z" fill="white"/>
<path opacity="0.48" d="M157.883 85.7034L57.3861 77.95L56.8747 77.9106C56.1915 77.8578 55.5702 77.5039 55.0957 76.967C62.3276 76.5522 66.8194 73.8625 69.717 71.0833C75.5359 65.5021 74.5266 59.9982 80.8017 56.3287C88.6284 51.7516 94.7825 57.5513 100.722 51.829C104.322 48.3598 102.555 45.7727 106.985 40.5885C111.892 34.8464 115.087 36.7766 120.019 31.6087C126.255 25.0743 123.136 19.9903 128.507 15.2988C135.023 9.60727 142.051 14.8751 148.254 9.41676C150.929 7.06257 152.397 3.64001 153.164 0H157.883C159.691 0 161.16 1.59509 161.16 3.56273V82.3935C161.16 84.3609 159.691 85.8425 157.883 85.7034Z" fill="white"/>
<path d="M52.1131 77.4779L158.922 85.6806L112.351 94.3734C111.818 94.473 111.277 94.4994 110.739 94.4522L-0.00109863 84.7367L50.4141 77.5337C50.9779 77.4531 51.5466 77.4344 52.1131 77.4779Z" fill="url(#paint0_linear_4102_10348)"/>
<path d="M143.34 85.751L54.4184 78.8203L26.898 82.7206L115.053 90.1292L143.34 85.751Z" fill="#D8DEE8"/>
<path d="M110.934 82.5913C110.122 83.2382 108.964 83.0728 108.347 82.2219L108.145 81.9441C107.528 81.0932 107.686 79.879 108.498 79.2321L138.221 55.551C139.033 54.9041 140.191 55.0695 140.809 55.9205L141.01 56.1982C141.627 57.0492 141.469 58.2634 140.658 58.9103L110.934 82.5913Z" fill="#3793AE"/>
<path d="M114.598 87.1781C113.786 87.8249 112.627 87.6595 112.01 86.8086L104.962 77.093C104.345 76.2421 104.503 75.0279 105.315 74.381L106.648 73.3186C107.46 72.6717 108.619 72.8371 109.236 73.6881L116.283 83.4036C116.901 84.2546 116.743 85.4688 115.931 86.1157L114.598 87.1781Z" fill="#82A9FF"/>
<path d="M114.206 90.269L85.2934 113.304C84.6061 113.852 83.7893 114.104 82.9865 114.087C81.8965 114.066 80.8212 113.535 80.1106 112.556L72.7529 102.412C71.5189 100.711 71.8347 98.2815 73.458 96.9881L102.371 73.9527C103.557 73.0078 105.118 72.9271 106.35 73.6187C106.806 73.8714 107.221 74.2278 107.553 74.6861L114.911 84.8294C116.145 86.5307 115.83 88.9758 114.206 90.269Z" fill="#ADD2DD"/>
<g opacity="0.5">
<path d="M79.2723 101.441C78.6822 101.911 77.8402 101.791 77.3916 101.172C76.9431 100.554 77.0578 99.6714 77.6479 99.2013L101.611 80.1092C102.201 79.639 103.043 79.7593 103.492 80.3777C103.94 80.9961 103.826 81.8785 103.236 82.3487L79.2723 101.441Z" fill="#074287"/>
<path d="M84.3778 108.478C83.7877 108.948 82.9457 108.828 82.4971 108.209C82.0485 107.591 82.1632 106.709 82.7533 106.238L106.717 87.1463C107.307 86.6761 108.149 86.7964 108.597 87.4148C109.046 88.0332 108.931 88.9157 108.341 89.3858L84.3778 108.478Z" fill="#074287"/>
</g>
<path d="M145.652 58.2928L151.287 51.5513C151.539 51.2505 151.55 50.8085 151.319 50.4902L150.424 49.2565L149.679 48.2293L148.772 46.9787C148.541 46.6604 148.132 46.5538 147.788 46.7273L140.081 50.6155C139.841 50.7363 139.646 50.9336 139.521 51.1796L138.493 53.2413C138.152 53.9148 138.245 54.7114 138.685 55.3185L139.453 56.377L140.198 57.4041L140.953 58.4456C141.394 59.0527 142.102 59.3592 142.812 59.1946L144.998 58.6965C145.257 58.6362 145.477 58.5023 145.652 58.2928Z" fill="#3793AE"/>
<path d="M92.0171 54.5517L104.031 51.2121L107.278 38.6381L94.6543 26.7511C93.8908 25.9468 95.2568 24.0627 96.3384 24.0166C101.612 23.7917 106.957 25.8543 110.903 30.2024C118.007 38.0317 117.829 50.458 110.513 58.0702C103.067 65.8178 91.0379 65.7809 83.6356 57.9837C79.7233 53.8627 77.2213 48.996 77.4555 43.6131C77.5049 42.4782 79.4796 41.3455 80.2443 42.1509L92.0171 54.5517Z" fill="url(#paint1_linear_4102_10348)"/>
<path d="M110.504 50.9316L154.287 93.8573C157.097 96.6788 157.139 101.371 154.38 104.247C151.623 107.123 147.147 107.056 144.469 104.1L103.704 58.0224L110.504 50.9316Z" fill="#074287"/>
<path d="M91.3258 55.3642L103.34 52.0246L106.587 39.4506L94.8144 27.05C94.0509 26.2457 94.5654 24.8753 95.6471 24.8291C100.921 24.6042 106.266 26.6668 110.211 31.0149C117.315 38.8443 117.137 51.2705 109.821 58.8827C102.376 66.6303 90.3466 66.5934 82.9443 58.7962C79.032 54.6752 77.1955 49.211 77.4297 43.8281C77.4791 42.6932 78.7884 42.158 79.553 42.9634L91.3258 55.3642Z" fill="#ADD2DD"/>
<path d="M109.813 51.7422L153.596 94.6678C156.405 97.4894 156.447 102.182 153.689 105.058C150.931 107.933 146.456 107.867 143.777 104.91L103.012 58.833L109.813 51.7422Z" fill="#ADD2DD"/>
<defs>
<linearGradient id="paint0_linear_4102_10348" x1="158.922" y1="85.965" x2="-0.00107456" y2="85.965" gradientUnits="userSpaceOnUse">
<stop offset="0.494" stop-color="#EBEFF2"/>
<stop offset="1" stop-color="white"/>
</linearGradient>
<linearGradient id="paint1_linear_4102_10348" x1="103.795" y1="34.0365" x2="59.8768" y2="104.526" gradientUnits="userSpaceOnUse">
<stop stop-color="#40447E"/>
<stop offset="0.9964" stop-color="#3C3B6B"/>
</linearGradient>
</defs>
</svg>
