<svg width="280" height="278" viewBox="0 0 280 278" fill="none" xmlns="http://www.w3.org/2000/svg">
<g clip-path="url(#clip0_1376_3469)">
<path d="M251.943 275.883H233.395V276.061H251.943V275.883Z" fill="#EBEBEB"/>
<path d="M185.481 277.822H180.613V278.001H185.481V277.822Z" fill="#EBEBEB"/>
<path d="M212.851 176.36H174.721C173.266 176.36 172.086 175.188 172.086 173.743V135.886C172.086 134.441 173.266 133.27 174.721 133.27H212.851C214.306 133.27 215.486 134.441 215.486 135.886V173.743C215.486 175.188 214.306 176.36 212.851 176.36Z" fill="#3793AE" fill-opacity="0.48"/>
<path opacity="0.25" d="M210.001 138.899H177.758V170.73H210.001V138.899Z" fill="white"/>
<path opacity="0.25" d="M177.758 170.692L185.967 163.991L188.65 166.137L197.15 159.009L201.325 163.09L210.001 155.865V170.692H177.758Z" fill="white"/>
<path opacity="0.25" d="M177.758 170.692L184.707 157.747L192.829 159.006L198.894 151.134L205.147 152.249L210.001 147.433V170.692H177.758Z" fill="white"/>
<path opacity="0.25" d="M177.758 170.693L193.788 168.727L198.987 166.142L204.587 166.703L210.001 164.021V170.693H177.758Z" fill="white"/>
<path d="M159.995 139.769H121.866C120.41 139.769 119.23 138.597 119.23 137.152V99.2953C119.23 97.8502 120.41 96.6787 121.866 96.6787H159.995C161.451 96.6787 162.63 97.8502 162.63 99.2953V137.152C162.63 138.598 161.451 139.769 159.995 139.769Z" fill="#3793AE" fill-opacity="0.48"/>
<path opacity="0.8" d="M146.442 108.42H135.238C134.968 108.42 134.75 108.203 134.75 107.935V101.657C134.75 101.39 134.968 101.173 135.238 101.173H146.442C146.711 101.173 146.929 101.39 146.929 101.657V107.935C146.929 108.203 146.711 108.42 146.442 108.42Z" fill="white"/>
<path opacity="0.6" d="M137.894 122.292H129.019C128.75 122.292 128.531 122.076 128.531 121.808V117.245C128.531 116.978 128.75 116.761 129.019 116.761H137.894C138.163 116.761 138.382 116.978 138.382 117.245V121.808C138.382 122.076 138.163 122.292 137.894 122.292Z" fill="white"/>
<path opacity="0.6" d="M152.839 122.292H143.964C143.695 122.292 143.477 122.076 143.477 121.808V117.245C143.477 116.978 143.695 116.761 143.964 116.761H152.839C153.109 116.761 153.327 116.978 153.327 117.245V121.808C153.327 122.076 153.109 122.292 152.839 122.292Z" fill="white"/>
<path opacity="0.4" d="M143.651 133.192H139.457C139.187 133.192 138.969 132.975 138.969 132.707V128.951C138.969 128.684 139.187 128.467 139.457 128.467H143.651C143.92 128.467 144.139 128.684 144.139 128.951V132.707C144.139 132.974 143.92 133.192 143.651 133.192Z" fill="white"/>
<path opacity="0.4" d="M150.217 133.192H146.023C145.754 133.192 145.535 132.975 145.535 132.707V128.951C145.535 128.684 145.754 128.467 146.023 128.467H150.217C150.487 128.467 150.705 128.684 150.705 128.951V132.707C150.705 132.974 150.487 133.192 150.217 133.192Z" fill="white"/>
<path opacity="0.4" d="M156.784 133.192H152.589C152.32 133.192 152.102 132.975 152.102 132.707V128.951C152.102 128.684 152.32 128.467 152.589 128.467H156.784C157.053 128.467 157.271 128.684 157.271 128.951V132.707C157.271 132.974 157.053 133.192 156.784 133.192Z" fill="white"/>
<path opacity="0.4" d="M128.456 133.192H124.261C123.992 133.192 123.773 132.975 123.773 132.707V128.951C123.773 128.684 123.992 128.467 124.261 128.467H128.456C128.725 128.467 128.943 128.684 128.943 128.951V132.707C128.944 132.974 128.726 133.192 128.456 133.192Z" fill="white"/>
<path opacity="0.4" d="M135.584 133.192H131.39C131.121 133.192 130.902 132.975 130.902 132.707V128.951C130.902 128.684 131.121 128.467 131.39 128.467H135.584C135.854 128.467 136.072 128.684 136.072 128.951V132.707C136.072 132.974 135.854 133.192 135.584 133.192Z" fill="white"/>
<g opacity="0.3">
<path d="M147.841 116.76H148.401V112.868H141.121V108.42H140.561V112.868H133.281V116.76H133.841V113.424H147.841V116.76Z" fill="white"/>
<path d="M133.28 125.656H126V128.436H126.56V126.212H133.28V128.436H133.84V122.32H133.28V125.656Z" fill="white"/>
<path d="M148.401 126.212V122.32H147.841V126.212H141.121V128.436H141.681V126.768H147.841V128.436H148.401V126.768H154.561V128.436H155.121V126.212H148.401Z" fill="white"/>
</g>
<path d="M219.507 121.033H181.378C179.922 121.033 178.742 119.862 178.742 118.417V80.5599C178.742 79.1148 179.922 77.9434 181.378 77.9434H219.507C220.962 77.9434 222.142 79.1148 222.142 80.5599V118.417C222.142 119.862 220.962 121.033 219.507 121.033Z" fill="#3793AE" fill-opacity="0.48"/>
<path opacity="0.25" d="M216.563 83.5732H184.32V115.404H216.563V83.5732Z" fill="white"/>
<path opacity="0.35" d="M190.86 103.141H187.613V111.406H190.86V103.141Z" fill="white"/>
<path opacity="0.35" d="M190.86 103.141H187.613V115.404H190.86V103.141Z" fill="white"/>
<path opacity="0.35" d="M196.462 97.3467H193.215V109.518H196.462V97.3467Z" fill="white"/>
<path opacity="0.35" d="M196.462 97.3467H193.215V115.404H196.462V97.3467Z" fill="white"/>
<path opacity="0.35" d="M202.067 100.91H198.82V110.679H202.067V100.91Z" fill="white"/>
<path opacity="0.35" d="M202.067 100.91H198.82V115.405H202.067V100.91Z" fill="white"/>
<path opacity="0.35" d="M207.673 95.9053H204.426V109.047H207.673V95.9053Z" fill="white"/>
<path opacity="0.35" d="M207.673 95.9053H204.426V115.404H207.673V95.9053Z" fill="white"/>
<path opacity="0.35" d="M213.274 88.2607H210.027V106.555H213.274V88.2607Z" fill="white"/>
<path opacity="0.35" d="M213.274 88.2607H210.027V115.404H213.274V88.2607Z" fill="white"/>
<path d="M183.718 91.4816H145.588C144.133 91.4816 142.953 90.3101 142.953 88.8651V51.0081C142.953 49.5631 144.133 48.3916 145.588 48.3916H183.718C185.173 48.3916 186.353 49.5631 186.353 51.0081V88.8651C186.353 90.3101 185.173 91.4816 183.718 91.4816Z" fill="#3793AE" fill-opacity="0.48"/>
<path opacity="0.25" d="M178.705 72.1995C179.964 64.4963 174.695 57.2381 166.936 55.988C159.178 54.7378 151.867 59.969 150.608 67.6722C149.349 75.3754 154.618 82.6336 162.376 83.8838C170.135 85.134 177.445 79.9027 178.705 72.1995Z" fill="white"/>
<path opacity="0.25" d="M164.654 69.9368L178.635 72.5762C177.363 79.2165 171.462 84.067 164.654 84.067C156.846 84.067 150.422 77.6886 150.422 69.9368C150.422 62.1851 156.846 55.8066 164.654 55.8066V69.9368Z" fill="white"/>
<path opacity="0.25" d="M164.654 69.9368L164.612 84.067C156.82 84.0442 150.422 77.6725 150.422 69.9368C150.422 62.1851 156.846 55.8066 164.654 55.8066V69.9368H164.654Z" fill="white"/>
<path opacity="0.25" d="M164.654 69.9368L157.152 57.9289C158.267 57.2428 159.471 56.7124 160.732 56.3537C161.992 55.9951 163.297 55.8105 164.608 55.8066L164.654 69.9368Z" fill="white"/>
</g>
<defs>
<clipPath id="clip0_1376_3469">
<rect width="280" height="278" fill="white"/>
</clipPath>
</defs>
</svg>
