<svg width="72" height="61" viewBox="0 0 72 61" fill="none" xmlns="http://www.w3.org/2000/svg">
<path d="M67.305 32.6813C67.2746 32.6813 67.2443 32.6684 67.2225 32.643C67.1257 32.5298 67.0276 32.4183 66.9282 32.3082C66.8866 32.2622 66.8889 32.1901 66.9333 32.1471C66.9777 32.1039 67.0473 32.1063 67.0889 32.1524C67.1897 32.2639 67.2892 32.3771 67.3874 32.4917C67.4277 32.5388 67.4235 32.6108 67.378 32.6527C67.3571 32.6718 67.331 32.6813 67.305 32.6813Z" fill="white"/>
<path d="M55.1465 60.6653C55.0202 60.6653 54.8938 60.6638 54.7678 60.6607C54.707 60.6592 54.6588 60.607 54.6602 60.5441C54.6616 60.4821 54.7107 60.4327 54.7703 60.4327C54.7711 60.4327 54.7719 60.4327 54.7729 60.4327C55.0684 60.4399 55.3669 60.4385 55.6638 60.4288C55.7203 60.4236 55.7755 60.476 55.7773 60.5391C55.7793 60.6019 55.7316 60.6547 55.6708 60.6566C55.4966 60.6623 55.3202 60.6653 55.1465 60.6653ZM57.1201 60.5398C57.0653 60.5398 57.0178 60.4975 57.0109 60.4397C57.0035 60.3772 57.0463 60.3203 57.1068 60.3126C57.4001 60.2751 57.6964 60.2285 57.9874 60.1742C58.0479 60.1637 58.1046 60.2044 58.1154 60.2661C58.1262 60.3281 58.0864 60.3875 58.0265 60.3986C57.7315 60.4537 57.4311 60.5009 57.1336 60.5389C57.1291 60.5395 57.1246 60.5398 57.1201 60.5398ZM59.4279 60.066C59.3796 60.066 59.3352 60.0328 59.3218 59.9822C59.3057 59.9216 59.3402 59.8587 59.3988 59.8421C59.6828 59.7613 59.9697 59.6707 60.2512 59.573C60.3088 59.5532 60.3712 59.5852 60.3906 59.6449C60.4098 59.7046 60.3788 59.7693 60.3211 59.7893C60.0358 59.8882 59.7452 59.9799 59.4572 60.062C59.4474 60.0647 59.4376 60.066 59.4279 60.066ZM61.646 59.2529C61.6036 59.2529 61.5632 59.2273 61.5452 59.1845C61.5207 59.1268 61.5462 59.0596 61.6019 59.0344C61.8737 58.9114 62.145 58.7794 62.4082 58.6423C62.4626 58.6139 62.5287 58.6367 62.556 58.6929C62.5833 58.7492 62.5615 58.8177 62.5071 58.846C62.2404 58.985 61.9655 59.1186 61.6901 59.2433C61.6758 59.2497 61.6608 59.2529 61.646 59.2529ZM63.7286 58.1204C63.6918 58.1204 63.6558 58.1014 63.635 58.0666C63.6029 58.013 63.6187 57.9427 63.6704 57.9095C63.9219 57.7479 64.1719 57.5769 64.4137 57.4015C64.4636 57.3655 64.5324 57.378 64.5672 57.4294C64.602 57.481 64.59 57.5521 64.5402 57.5883C64.295 57.7661 64.0415 57.9394 63.7867 58.1033C63.7685 58.1149 63.7484 58.1204 63.7286 58.1204ZM65.631 56.6883C65.5998 56.6883 65.5687 56.6745 65.547 56.6479C65.5077 56.5998 65.5135 56.5279 65.5599 56.4872C65.7861 56.2893 66.0093 56.0827 66.2233 55.8732C66.2674 55.8299 66.3372 55.8318 66.3789 55.8778C66.4207 55.9234 66.4188 55.9956 66.3745 56.0389C66.1576 56.2513 65.9314 56.4607 65.7021 56.6613C65.6814 56.6795 65.6561 56.6883 65.631 56.6883ZM67.3111 54.9861C67.2852 54.9861 67.2593 54.9766 67.2383 54.9576C67.1927 54.9159 67.1884 54.8438 67.2286 54.7967C67.4243 54.5672 67.6163 54.3291 67.7993 54.0891C67.8368 54.0398 67.9062 54.0312 67.9538 54.0703C68.0015 54.1093 68.0098 54.181 67.972 54.2304C67.7866 54.4737 67.5921 54.7149 67.3937 54.9475C67.3719 54.973 67.3416 54.9861 67.3111 54.9861ZM68.7356 53.0491C68.715 53.0491 68.6942 53.0431 68.6755 53.0305C68.6245 52.9961 68.6103 52.9255 68.6435 52.8727C68.8048 52.6169 68.9617 52.3525 69.1096 52.087C69.1401 52.0326 69.2076 52.0139 69.2601 52.0452C69.3128 52.0767 69.3308 52.1464 69.3005 52.2009C69.1505 52.4701 68.9915 52.738 68.8279 52.9974C68.8068 53.0309 68.7716 53.0491 68.7356 53.0491ZM69.876 50.9192C69.8606 50.9192 69.8448 50.9159 69.8298 50.9087C69.7747 50.8822 69.7506 50.8144 69.7762 50.7573C69.9009 50.4785 70.0195 50.1934 70.1285 49.9102C70.151 49.8517 70.2153 49.8233 70.2715 49.8465C70.328 49.8698 70.3556 49.9361 70.333 49.9946C70.2226 50.2818 70.1024 50.5706 69.976 50.8532C69.9574 50.8948 69.9176 50.9192 69.876 50.9192ZM70.7094 48.6414C70.699 48.6414 70.6885 48.6398 70.6779 48.6366C70.6197 48.6186 70.5866 48.555 70.6039 48.4947C70.6886 48.2012 70.7664 47.9015 70.8352 47.6039C70.8494 47.5426 70.909 47.5051 70.968 47.5196C71.027 47.5343 71.0635 47.5959 71.0494 47.6571C70.9796 47.9587 70.9007 48.2624 70.8149 48.56C70.8007 48.6093 70.7569 48.6414 70.7094 48.6414ZM71.218 46.2627C71.2127 46.2627 71.2074 46.2623 71.2019 46.2615C71.1417 46.2523 71.1002 46.1944 71.109 46.1321C71.1518 45.8293 71.1871 45.5209 71.2138 45.2158C71.2192 45.1531 71.272 45.1052 71.3334 45.1126C71.394 45.1182 71.4385 45.1737 71.4331 45.2365C71.4061 45.5458 71.3703 45.8583 71.3269 46.1652C71.3187 46.2219 71.2717 46.2627 71.218 46.2627ZM71.389 43.8327C71.3282 43.8327 71.2789 43.7817 71.2789 43.7186C71.2788 43.4111 71.2705 43.1009 71.2541 42.7968C71.2507 42.7339 71.2972 42.6801 71.3579 42.6766C71.4169 42.6743 71.4706 42.7212 71.474 42.784C71.4906 43.0924 71.4991 43.4069 71.4992 43.7186C71.4991 43.7816 71.4499 43.8327 71.389 43.8327ZM71.2173 41.403C71.1636 41.403 71.1165 41.3623 71.1085 41.3056C71.0653 41.0022 71.0135 40.6965 70.9543 40.3971C70.9422 40.3354 70.9806 40.2752 71.0403 40.2625C71.0993 40.2498 71.158 40.2896 71.1702 40.3515C71.23 40.655 71.2826 40.9648 71.3264 41.2723C71.3352 41.3347 71.2936 41.3926 71.2335 41.4018C71.2281 41.4027 71.2226 41.403 71.2173 41.403ZM70.7066 39.025C70.6592 39.025 70.6155 38.9931 70.6011 38.9439C70.5158 38.6495 70.4218 38.3548 70.3217 38.0678C70.301 38.0085 70.3306 37.9432 70.3878 37.9218C70.4449 37.9 70.5082 37.9311 70.5287 37.9903C70.6301 38.2813 70.7255 38.58 70.8121 38.8782C70.8296 38.9385 70.7966 39.0021 70.7383 39.0203C70.7277 39.0235 70.7171 39.025 70.7066 39.025ZM69.8707 36.7479C69.8291 36.7479 69.7893 36.7234 69.7706 36.6818C69.6463 36.404 69.5126 36.1262 69.3738 35.8561C69.3452 35.8004 69.3656 35.7313 69.4192 35.7019C69.4726 35.6723 69.5395 35.6932 69.5681 35.7489C69.7089 36.0227 69.8443 36.3042 69.9705 36.5859C69.9961 36.6429 69.9721 36.7108 69.9169 36.7373C69.9019 36.7445 69.8862 36.7479 69.8707 36.7479ZM68.7291 34.6179C68.6931 34.6179 68.6579 34.5996 68.6368 34.5662C68.4757 34.3108 68.3048 34.0559 68.129 33.8086C68.093 33.7578 68.1035 33.6864 68.1524 33.6491C68.2018 33.6118 68.2704 33.6228 68.3065 33.6733C68.4847 33.9241 68.6579 34.1825 68.8212 34.4415C68.8544 34.4942 68.8402 34.5649 68.7892 34.5993C68.7707 34.6119 68.7497 34.6179 68.7291 34.6179Z" fill="white"/>
<path d="M53.3085 60.5565C53.3043 60.5565 53.3001 60.5562 53.2958 60.5557C53.1489 60.5383 53.0024 60.5189 52.8563 60.4973C52.7961 60.4886 52.7542 60.4308 52.7628 60.3684C52.7713 60.3062 52.8261 60.2627 52.8873 60.2717C53.0314 60.2928 53.176 60.312 53.3209 60.3291C53.3813 60.3363 53.4247 60.3928 53.4178 60.4554C53.4113 60.5135 53.3637 60.5565 53.3085 60.5565Z" fill="white"/>
<path d="M42.3778 54.2552C42.3452 54.2552 42.313 54.2403 42.2912 54.2117C42.2 54.0918 42.1101 53.9702 42.0218 53.8472C41.9855 53.7966 41.9956 53.7253 42.0443 53.6876C42.0932 53.6499 42.1621 53.6607 42.1985 53.711C42.2856 53.8323 42.3741 53.9522 42.4642 54.0707C42.5018 54.1201 42.4936 54.1918 42.4458 54.2308C42.4257 54.2472 42.4017 54.2552 42.3778 54.2552Z" fill="white"/>
<path d="M58.1493 27.3067C58.1424 27.3067 58.1356 27.3061 58.1287 27.3047C57.9856 27.2767 57.842 27.2505 57.6981 27.2265C57.638 27.2164 57.5973 27.1579 57.6069 27.0958C57.6166 27.0336 57.673 26.9919 57.7331 27.0013C57.8791 27.0258 58.0246 27.0523 58.1697 27.0807C58.2294 27.0923 58.2687 27.1519 58.2573 27.2139C58.2474 27.2686 58.2012 27.3067 58.1493 27.3067Z" fill="white"/>
<path d="M58.9788 31.4296C58.9028 31.3945 58.8137 31.4131 58.7569 31.4761L57.1363 33.2711C56.0478 33.0549 54.9183 33.0168 53.7882 33.1765L52.2643 31.2948C52.2109 31.2288 52.1229 31.2052 52.0451 31.236L49.3868 32.2901C49.3091 32.321 49.2589 32.3994 49.2617 32.4855L49.3415 34.9397C48.3975 35.6025 47.5815 36.412 46.9111 37.3258L44.5469 37.1108C44.4641 37.1033 44.3857 37.151 44.3518 37.2297L43.192 39.9213C43.1581 40 43.1761 40.0923 43.2369 40.1511L44.9706 41.8291C44.7618 42.956 44.725 44.1256 44.8792 45.2957L43.0619 46.8736C42.9982 46.9289 42.9753 47.02 43.0051 47.1005L44.0232 49.853C44.0529 49.9334 44.1287 49.9855 44.2119 49.9825L46.5822 49.8998C47.2223 50.8772 48.0041 51.7222 48.8867 52.4163L48.6791 54.8642C48.6718 54.9499 48.7179 55.0311 48.7938 55.0662L51.3934 56.2671C51.4694 56.3023 51.5585 56.2835 51.6153 56.2206L53.2359 54.4255C54.3244 54.6418 55.4539 54.6799 56.584 54.5202L58.1079 56.4018C58.1614 56.4678 58.2494 56.4915 58.3271 56.4607L60.9854 55.4065C61.0631 55.3757 61.1133 55.2973 61.1105 55.2112L61.0306 52.7569C61.9747 52.0942 62.7907 51.2846 63.4612 50.3708L65.8252 50.5858C65.9081 50.5934 65.9865 50.5456 66.0204 50.4669L67.1802 47.7752C67.2141 47.6966 67.1961 47.6043 67.1353 47.5455L65.4017 45.8675C65.6105 44.7406 65.6473 43.571 65.493 42.4009L67.3104 40.823C67.3741 40.7678 67.3969 40.6766 67.3671 40.5962L66.349 37.8437C66.3192 37.7633 66.2435 37.7113 66.1604 37.7141L63.79 37.7969C63.15 36.8195 62.368 35.9745 61.4856 35.2803L61.6932 32.8325C61.7004 32.7467 61.6544 32.6656 61.5784 32.6304L58.9788 31.4296Z" fill="#ADD2DD"/>
<path opacity="0.7" d="M55.1915 46.6377C55.0362 46.6377 54.8799 46.6238 54.7238 46.5956C54.0152 46.4679 53.3971 46.062 52.9832 45.4529C52.5694 44.8437 52.4094 44.1042 52.5328 43.3705C52.6562 42.6368 53.048 41.9968 53.6363 41.5683C54.8511 40.6838 56.5339 40.9871 57.3882 42.2445C57.802 42.8537 57.962 43.5933 57.8386 44.3269C57.7152 45.0607 57.3232 45.7007 56.735 46.1293C56.2762 46.4633 55.741 46.6377 55.1915 46.6377ZM55.1825 41.4035C54.7128 41.4035 54.2389 41.5476 53.8265 41.8481C53.3102 42.2239 52.9665 42.7855 52.8583 43.4291C52.75 44.0728 52.8904 44.7216 53.2535 45.256C53.6165 45.7905 54.1588 46.1465 54.7806 46.2586C55.4023 46.3706 56.0289 46.2253 56.5449 45.8494C57.0612 45.4735 57.405 44.912 57.5132 44.2683C57.6215 43.6245 57.4812 42.9757 57.118 42.4414C56.6587 41.7653 55.926 41.4035 55.1825 41.4035Z" fill="white"/>
<path opacity="0.7" d="M55.175 51.1913C52.344 51.1913 49.6697 49.4091 48.5983 46.5127C48.2824 45.6585 48.1327 44.7799 48.1328 43.9154C48.1332 40.9847 49.8544 38.2159 52.6514 37.1067C52.7483 37.0682 52.8461 37.032 52.9444 36.9981C53.2781 36.8827 53.6194 36.7934 53.9633 36.7312C54.0084 36.723 54.0534 36.7153 54.0985 36.708L54.149 37.0461C53.6808 37.1209 53.2166 37.2488 52.7696 37.4261C49.3177 38.795 47.5849 42.8163 48.9068 46.3904C50.2289 49.9646 54.113 51.7588 57.5646 50.3899C59.2367 49.7269 60.5595 48.4292 61.2891 46.7361C61.6787 45.8317 61.8743 44.8722 61.8743 43.9106C61.8743 43.0722 61.7256 42.2322 61.4273 41.4256C60.9927 40.2504 60.2602 39.2212 59.3091 38.4491L59.5129 38.18C60.5111 38.9903 61.2798 40.0703 61.7358 41.3033C62.0488 42.1496 62.2048 43.0311 62.2048 43.9107C62.2048 44.9197 61.9996 45.9265 61.5907 46.8755C60.8251 48.6521 59.4373 50.0135 57.6827 50.7093C56.8581 51.0363 56.0095 51.1913 55.175 51.1913Z" fill="white"/>
<path d="M41.363 8.548C41.319 8.548 41.275 8.52924 41.2434 8.49237C41.103 8.32825 40.9608 8.16653 40.8165 8.00694C40.7563 7.94017 40.7596 7.83568 40.824 7.77328C40.8884 7.71067 40.9894 7.71419 41.0496 7.78096C41.1959 7.94268 41.3401 8.1068 41.4825 8.273C41.5409 8.34131 41.5349 8.4458 41.4689 8.50649C41.4386 8.53425 41.4007 8.548 41.363 8.548Z" fill="white"/>
<path d="M21.0663 48.9703C21.0603 48.9703 21.0542 48.97 21.048 48.9693C20.8349 48.9441 20.6224 48.9159 20.4106 48.8846C20.3232 48.8719 20.2626 48.7881 20.2751 48.6977C20.2873 48.6074 20.3668 48.5443 20.4556 48.5574C20.6645 48.588 20.8742 48.6158 21.0843 48.6407C21.172 48.6511 21.2348 48.733 21.2249 48.8237C21.2154 48.9081 21.1464 48.9703 21.0663 48.9703Z" fill="white"/>
<path d="M5.21198 39.8314C5.16464 39.8314 5.11797 39.8099 5.08637 39.7684C4.95406 39.5945 4.82375 39.4182 4.69561 39.2398C4.64307 39.1664 4.65763 39.063 4.72834 39.0083C4.7992 38.9536 4.89909 38.9692 4.95184 39.0422C5.07829 39.2182 5.20659 39.3921 5.33725 39.5638C5.3918 39.6355 5.37991 39.7395 5.31054 39.796C5.28136 39.8198 5.24662 39.8314 5.21198 39.8314Z" fill="white"/>
<path d="M3.65997 37.5232C3.60624 37.5232 3.55386 37.4953 3.5238 37.4445C3.30097 37.0691 3.08415 36.6803 2.87928 36.2889C2.83728 36.2086 2.866 36.1083 2.94361 36.0648C3.02137 36.0212 3.11807 36.0511 3.16006 36.1314C3.36226 36.5174 3.57619 36.901 3.79583 37.2714C3.842 37.3493 3.81853 37.451 3.74344 37.4988C3.7174 37.5154 3.68853 37.5232 3.65997 37.5232ZM2.10986 34.4393C2.04821 34.4393 1.98943 34.4021 1.96344 34.3398C1.92598 34.2506 1.88923 34.1613 1.8528 34.0715C1.72398 33.7542 1.59924 33.428 1.48216 33.102C1.45144 33.0163 1.49343 32.9212 1.57603 32.8894C1.65966 32.8572 1.75085 32.9012 1.78142 32.9865C1.89711 33.3084 2.02005 33.6302 2.14717 33.9434C2.18309 34.0319 2.21952 34.1202 2.25632 34.208C2.29142 34.2918 2.25431 34.3892 2.17352 34.4255C2.15267 34.4349 2.13116 34.4393 2.10986 34.4393ZM0.993009 31.1602C0.922968 31.1602 0.85869 31.112 0.839186 31.0387C0.725659 30.6108 0.62222 30.1747 0.531696 29.7426C0.512912 29.6532 0.567615 29.5653 0.653764 29.546C0.739913 29.5262 0.825035 29.5832 0.843665 29.6724C0.933005 30.0987 1.03511 30.5289 1.14709 30.951C1.1704 31.0391 1.12038 31.1301 1.03541 31.1543C1.02136 31.1583 1.00711 31.1602 0.993009 31.1602ZM0.337058 27.7503C0.257651 27.7503 0.188949 27.689 0.178863 27.6054C0.125444 27.165 0.0832965 26.7182 0.0533966 26.2774C0.0473239 26.1865 0.113659 26.1074 0.20166 26.1009C0.288478 26.0975 0.365879 26.1633 0.372106 26.2544C0.401491 26.6891 0.442974 27.1297 0.495518 27.5644C0.506582 27.655 0.444466 27.7376 0.356979 27.749C0.35034 27.7499 0.343594 27.7503 0.337058 27.7503ZM0.159721 24.2778C0.158692 24.2778 0.157716 24.2778 0.156687 24.2778C0.0685308 24.2761 -0.0016681 24.2006 3.01756e-05 24.1093C0.00810985 23.6665 0.0282312 23.2177 0.0598294 22.7757C0.0663652 22.6846 0.142789 22.6166 0.23079 22.6231C0.318792 22.6297 0.384767 22.709 0.378231 22.8001C0.347147 23.2362 0.327336 23.6786 0.319462 24.1156C0.317764 24.2059 0.246539 24.2778 0.159721 24.2778ZM0.463504 20.8147C0.454961 20.8147 0.446371 20.814 0.437622 20.8124C0.350495 20.7978 0.291517 20.7128 0.305824 20.6227C0.374681 20.1856 0.456093 19.7445 0.547954 19.3119C0.567099 19.2227 0.652219 19.1673 0.738214 19.1859C0.824363 19.2055 0.878757 19.2936 0.859973 19.3828C0.769296 19.8097 0.688861 20.2447 0.620827 20.6759C0.608115 20.7571 0.540441 20.8147 0.463504 20.8147ZM1.23915 17.4322C1.22336 17.4322 1.20724 17.4297 1.19129 17.4245C1.10715 17.3972 1.06048 17.3044 1.08683 17.2172C1.21461 16.7953 1.35567 16.3709 1.50599 15.9556C1.53687 15.8701 1.62909 15.8262 1.71153 15.8587C1.79397 15.8907 1.83597 15.986 1.80489 16.0714C1.65678 16.481 1.51772 16.8999 1.39143 17.3163C1.37013 17.387 1.30719 17.4322 1.23915 17.4322ZM2.46891 14.1977C2.44591 14.1977 2.42239 14.1925 2.40021 14.1815C2.3206 14.142 2.28704 14.0435 2.32497 13.9611C2.51019 13.5596 2.70785 13.1602 2.91206 12.7737C2.95436 12.6936 3.05142 12.6642 3.12867 12.708C3.20607 12.7518 3.23447 12.8523 3.19212 12.9323C2.9908 13.3136 2.7958 13.7078 2.61311 14.1037C2.58578 14.163 2.52851 14.1977 2.46891 14.1977ZM4.12782 11.1761C4.0974 11.1761 4.06668 11.167 4.03951 11.1483C3.96612 11.0976 3.94631 10.9951 3.9952 10.9191C4.23229 10.5505 4.4825 10.1841 4.73842 9.82994C4.79097 9.7571 4.89122 9.7418 4.96193 9.79674C5.03243 9.85136 5.0469 9.95495 4.99399 10.0282C4.74162 10.3774 4.49491 10.7389 4.26085 11.1023C4.23008 11.1502 4.17938 11.1761 4.12782 11.1761ZM6.18356 8.42982C6.14563 8.42982 6.10749 8.41591 6.07693 8.38756C6.01126 8.32671 6.0057 8.22222 6.06467 8.15407C6.34916 7.8253 6.64703 7.49962 6.94999 7.18614C7.01211 7.12145 7.11354 7.12145 7.17566 7.18614C7.23813 7.25067 7.23813 7.35532 7.17566 7.4198C6.87691 7.72912 6.58322 8.05043 6.30243 8.37488C6.27089 8.41122 6.2274 8.42982 6.18356 8.42982ZM8.59583 6.01595C8.55034 6.01595 8.505 5.99575 8.4734 5.95664C8.41679 5.88657 8.42569 5.7824 8.49336 5.72383C8.82164 5.4394 9.16135 5.1612 9.50276 4.89706C9.57347 4.84266 9.67336 4.85742 9.72626 4.93063C9.77901 5.00385 9.76455 5.10727 9.69384 5.16205C9.35717 5.42251 9.02215 5.69688 8.69819 5.97732C8.66834 6.00327 8.63211 6.01595 8.59583 6.01595ZM11.3174 3.98392C11.2638 3.98392 11.2116 3.9561 11.1814 3.90532C11.135 3.82763 11.1584 3.72591 11.2334 3.6779C11.597 3.44542 11.972 3.22007 12.3476 3.00816C12.4245 2.96436 12.5217 2.99388 12.5642 3.07423C12.6063 3.15437 12.5778 3.25487 12.5004 3.29851C12.1297 3.50765 11.7598 3.73007 11.401 3.95925C11.375 3.97592 11.346 3.98392 11.3174 3.98392ZM14.2912 2.373C14.2297 2.373 14.1711 2.33597 14.1448 2.27373C14.1095 2.19007 14.1465 2.09272 14.2274 2.05606C14.3295 2.00997 14.4322 1.96441 14.5357 1.91938C14.829 1.79177 15.1271 1.66921 15.422 1.55497C15.5044 1.52332 15.5966 1.56643 15.6275 1.652C15.6584 1.73753 15.6164 1.83263 15.5338 1.86482C15.2429 1.97746 14.9487 2.09831 14.6594 2.22423C14.5574 2.26872 14.456 2.31359 14.3549 2.35931C14.3342 2.36863 14.3125 2.373 14.2912 2.373ZM17.4556 1.20925C17.3857 1.20925 17.3214 1.16125 17.3019 1.08809C17.2782 1.00011 17.3281 0.908994 17.4131 0.884643C17.8267 0.76587 18.2475 0.65775 18.6639 0.563169C18.7502 0.54372 18.8352 0.599828 18.8542 0.68924C18.873 0.778439 18.8186 0.866574 18.7324 0.886236C18.3215 0.979432 17.9062 1.08622 17.4983 1.20318C17.4841 1.20733 17.4698 1.20925 17.4556 1.20925ZM20.7473 0.522464C20.668 0.522464 20.5993 0.46145 20.5891 0.377953C20.5778 0.287528 20.6397 0.204616 20.7273 0.193107C21.1506 0.137104 21.582 0.0924515 22.0096 0.0604271C22.0979 0.0515285 22.174 0.122287 22.1803 0.213245C22.1867 0.304362 22.1205 0.383437 22.0327 0.390044C21.6109 0.421696 21.1854 0.465871 20.7676 0.520968C20.7608 0.521927 20.754 0.522464 20.7473 0.522464ZM25.3788 0.388926C25.3749 0.388926 25.3711 0.388765 25.3672 0.388392C24.9463 0.357274 24.5191 0.337824 24.0972 0.330684C24.0091 0.329139 23.9389 0.253852 23.9402 0.162574C23.9417 0.0723626 24.0129 0 24.0999 0C24.1007 0 24.1016 0 24.1026 0C24.5301 0.00730007 24.9633 0.0271236 25.3901 0.058775C25.4781 0.0652225 25.5442 0.144295 25.5378 0.235412C25.532 0.322533 25.4618 0.388926 25.3788 0.388926Z" fill="white"/>
<path d="M28.0855 0.753343C28.0755 0.753343 28.0657 0.752488 28.0556 0.750409C27.8482 0.709913 27.6399 0.671816 27.4312 0.637074C27.344 0.622474 27.285 0.537591 27.2989 0.447539C27.313 0.357274 27.3948 0.296793 27.482 0.31054C27.6937 0.346028 27.9046 0.384449 28.1151 0.425638C28.2017 0.442476 28.2586 0.528905 28.2422 0.618797C28.2277 0.698032 28.1607 0.753343 28.0855 0.753343Z" fill="white"/>
<path d="M29.2882 6.73362C29.1781 6.68273 29.0489 6.7098 28.9665 6.80108L26.6163 9.40417C25.038 9.09059 23.4 9.03533 21.7612 9.2669L19.5514 6.53828C19.4739 6.44252 19.3462 6.40832 19.2335 6.45297L15.3785 7.98156C15.2659 8.02632 15.1931 8.14003 15.1971 8.26483L15.3129 11.8238C13.944 12.785 12.7607 13.9589 11.7884 15.284L8.36008 14.9723C8.23991 14.9613 8.12629 15.0305 8.07714 15.1446L6.39523 19.0479C6.34608 19.162 6.37223 19.2958 6.46038 19.3811L8.97444 21.8144C8.67159 23.4486 8.61822 25.1447 8.84193 26.8415L6.20657 29.1296C6.11414 29.2098 6.08105 29.3419 6.12417 29.4586L7.60059 33.4501C7.64372 33.5668 7.75359 33.6423 7.87417 33.638L11.3115 33.518C12.2397 34.9355 13.3735 36.1607 14.6533 37.1674L14.3522 40.7171C14.3417 40.8415 14.4085 40.9592 14.5186 41.0101L18.2885 42.7515C18.3986 42.8025 18.5279 42.7753 18.6102 42.6841L20.9603 40.081C22.5387 40.3946 24.1767 40.4498 25.8155 40.2182L28.0254 42.9469C28.1029 43.0426 28.2305 43.0769 28.3432 43.0322L32.1982 41.5035C32.3108 41.4589 32.3836 41.3451 32.3796 41.2203L32.2637 37.6612C33.6327 36.7002 34.816 35.5262 35.7883 34.2011L39.2166 34.5128C39.3367 34.5238 39.4504 34.4545 39.4996 34.3405L41.1815 30.4372C41.2306 30.3231 41.2045 30.1893 41.1163 30.104L38.6023 27.6707C38.9052 26.0364 38.9585 24.3404 38.7348 22.6436L41.3702 20.3555C41.4626 20.2754 41.4957 20.1432 41.4525 20.0265L39.9761 16.0351C39.9329 15.9184 39.8231 15.843 39.7025 15.8471L36.2652 15.9671C35.337 14.5498 34.2032 13.3245 32.9235 12.3177L33.2245 8.7681C33.235 8.64368 33.1682 8.52608 33.058 8.47509L29.2882 6.73362Z" fill="#ADD2DD"/>
<path opacity="0.7" d="M23.7972 28.7883C23.572 28.7883 23.3453 28.7682 23.119 28.7273C22.0914 28.5421 21.195 27.9536 20.5949 27.0703C19.9949 26.1868 19.7628 25.1144 19.9416 24.0505C20.1206 22.9865 20.6889 22.0584 21.542 21.437C23.3035 20.1544 25.7438 20.5942 26.9827 22.4177C27.5827 23.3011 27.8148 24.3735 27.6358 25.4374C27.457 26.5015 26.8885 27.4297 26.0355 28.0511C25.3701 28.5355 24.594 28.7883 23.7972 28.7883ZM23.7841 21.1981C23.103 21.1981 22.4157 21.4071 21.8177 21.8428C21.0691 22.3877 20.5706 23.2021 20.4137 24.1355C20.2567 25.069 20.4602 26.0098 20.9868 26.7847C21.5133 27.5599 22.2997 28.0761 23.2013 28.2387C24.1029 28.4011 25.0116 28.1904 25.7598 27.6452C26.5085 27.1001 27.007 26.2859 27.164 25.3524C27.3211 24.4189 27.1175 23.478 26.5909 22.7031C25.9248 21.7227 24.8624 21.1981 23.7841 21.1981Z" fill="white"/>
<path opacity="0.7" d="M23.7708 35.3905C19.6653 35.3905 15.7873 32.8061 14.2336 28.6059C13.7755 27.3672 13.5584 26.0931 13.5586 24.8395C13.5591 20.5896 16.0552 16.5743 20.1112 14.9658C20.2518 14.91 20.3935 14.8575 20.536 14.8083C21.02 14.6411 21.5149 14.5115 22.0136 14.4213C22.0789 14.4094 22.1443 14.3983 22.2096 14.3877L22.2828 14.878C21.6039 14.9865 20.9309 15.1719 20.2825 15.429C15.2768 17.4141 12.764 23.2456 14.681 28.4285C16.5982 33.6117 22.2307 36.2135 27.236 34.2284C29.6608 33.2668 31.579 31.3851 32.637 28.9298C33.202 27.6183 33.4856 26.227 33.4856 24.8325C33.4856 23.6166 33.27 22.3985 32.8375 21.2288C32.2073 19.5247 31.145 18.0322 29.7658 16.9125L30.0613 16.5223C31.5088 17.6973 32.6235 19.2636 33.2848 21.0515C33.7387 22.2787 33.9649 23.557 33.9649 24.8327C33.9649 26.2958 33.6673 27.7558 33.0744 29.132C31.9642 31.7082 29.9516 33.6825 27.4072 34.6915C26.2114 35.1657 24.9808 35.3905 23.7708 35.3905Z" fill="white"/>
</svg>
