<svg width="230" height="331" viewBox="0 0 230 331" fill="none" xmlns="http://www.w3.org/2000/svg">
<g clip-path="url(#clip0_1213_3142)">
<path d="M171.84 330.775H165.703V331H171.84V330.775Z" fill="#EBEBEB"/>
<path d="M206.346 203.035H158.276C156.441 203.035 154.953 201.56 154.953 199.741V152.079C154.953 150.26 156.441 148.785 158.276 148.785H206.346C208.181 148.785 209.668 150.26 209.668 152.079V199.741C209.668 201.56 208.181 203.035 206.346 203.035Z" fill="#3793AE" fill-opacity="0.48"/>
<path opacity="0.25" d="M202.751 155.873H162.102V195.948H202.751V155.873Z" fill="white"/>
<path opacity="0.25" d="M162.102 195.899L172.451 187.463L175.834 190.164L186.55 181.19L191.813 186.328L202.751 177.232V195.899H162.102Z" fill="white"/>
<path opacity="0.25" d="M162.102 195.9L170.863 179.603L181.101 181.188L188.749 171.278L196.632 172.681L202.751 166.617V195.9H162.102Z" fill="white"/>
<path opacity="0.25" d="M162.102 195.9L182.311 193.425L188.866 190.171L195.926 190.878L202.751 187.5V195.9H162.102Z" fill="white"/>
<path d="M139.709 156.969H91.6388C89.804 156.969 88.3164 155.494 88.3164 153.675V106.013C88.3164 104.194 89.804 102.719 91.6388 102.719H139.709C141.544 102.719 143.031 104.194 143.031 106.013V153.675C143.031 155.495 141.544 156.969 139.709 156.969Z" fill="#3793AE" fill-opacity="0.48"/>
<path opacity="0.8" d="M122.623 117.501H108.498C108.158 117.501 107.883 117.228 107.883 116.891V108.987C107.883 108.65 108.158 108.377 108.498 108.377H122.623C122.962 108.377 123.238 108.65 123.238 108.987V116.891C123.238 117.228 122.962 117.501 122.623 117.501Z" fill="white"/>
<path opacity="0.6" d="M111.85 134.966H100.662C100.322 134.966 100.047 134.693 100.047 134.357V128.612C100.047 128.275 100.322 128.002 100.662 128.002H111.85C112.19 128.002 112.465 128.275 112.465 128.612V134.357C112.465 134.693 112.19 134.966 111.85 134.966Z" fill="white"/>
<path opacity="0.6" d="M130.69 134.966H119.502C119.162 134.966 118.887 134.693 118.887 134.357V128.612C118.887 128.275 119.162 128.002 119.502 128.002H130.69C131.03 128.002 131.305 128.275 131.305 128.612V134.357C131.305 134.693 131.03 134.966 130.69 134.966Z" fill="white"/>
<path opacity="0.4" d="M119.106 148.689H113.818C113.478 148.689 113.203 148.416 113.203 148.079V143.35C113.203 143.013 113.478 142.74 113.818 142.74H119.106C119.446 142.74 119.721 143.013 119.721 143.35V148.079C119.721 148.415 119.446 148.689 119.106 148.689Z" fill="white"/>
<path opacity="0.4" d="M127.383 148.689H122.095C121.756 148.689 121.48 148.416 121.48 148.079V143.35C121.48 143.013 121.756 142.74 122.095 142.74H127.383C127.723 142.74 127.998 143.013 127.998 143.35V148.079C127.998 148.415 127.723 148.689 127.383 148.689Z" fill="white"/>
<path opacity="0.4" d="M135.661 148.689H130.373C130.033 148.689 129.758 148.416 129.758 148.079V143.35C129.758 143.013 130.033 142.74 130.373 142.74H135.661C136 142.74 136.276 143.013 136.276 143.35V148.079C136.276 148.415 136 148.689 135.661 148.689Z" fill="white"/>
<path opacity="0.4" d="M99.9497 148.689H94.6618C94.3222 148.689 94.0469 148.416 94.0469 148.079V143.35C94.0469 143.013 94.3222 142.74 94.6618 142.74H99.9497C100.289 142.74 100.565 143.013 100.565 143.35V148.079C100.565 148.415 100.29 148.689 99.9497 148.689Z" fill="white"/>
<path opacity="0.4" d="M108.934 148.689H103.646C103.307 148.689 103.031 148.416 103.031 148.079V143.35C103.031 143.013 103.307 142.74 103.646 142.74H108.934C109.274 142.74 109.549 143.013 109.549 143.35V148.079C109.549 148.415 109.274 148.689 108.934 148.689Z" fill="white"/>
<g opacity="0.3">
<path d="M124.387 128H125.093V123.1H115.915V117.5H115.209V123.1H106.031V128H106.737V123.8H124.387V128Z" fill="white"/>
<path d="M106.03 139.2H96.8516V142.7H97.5576V139.9H106.03V142.7H106.736V135H106.03V139.2Z" fill="white"/>
<path d="M125.092 139.9V135H124.386V139.9H115.914V142.7H116.62V140.6H124.386V142.7H125.092V140.6H132.858V142.7H133.564V139.9H125.092Z" fill="white"/>
</g>
<path d="M214.732 133.381H166.662C164.827 133.381 163.34 131.906 163.34 130.087V82.4251C163.34 80.6058 164.827 79.1309 166.662 79.1309H214.732C216.567 79.1309 218.055 80.6058 218.055 82.4251V130.087C218.055 131.906 216.567 133.381 214.732 133.381Z" fill="#3793AE" fill-opacity="0.48"/>
<path opacity="0.25" d="M211.02 86.2188H170.371V126.294H211.02V86.2188Z" fill="white"/>
<path opacity="0.35" d="M178.613 110.854H174.52V121.26H178.613V110.854Z" fill="white"/>
<path opacity="0.35" d="M178.613 110.854H174.52V126.293H178.613V110.854Z" fill="white"/>
<path opacity="0.35" d="M185.675 103.561H181.582V118.884H185.675V103.561Z" fill="white"/>
<path opacity="0.35" d="M185.675 103.561H181.582V126.295H185.675V103.561Z" fill="white"/>
<path opacity="0.35" d="M192.742 108.047H188.648V120.346H192.742V108.047Z" fill="white"/>
<path opacity="0.35" d="M192.742 108.047H188.648V126.295H192.742V108.047Z" fill="white"/>
<path opacity="0.35" d="M199.808 101.746H195.715V118.291H199.808V101.746Z" fill="white"/>
<path opacity="0.35" d="M199.808 101.746H195.715V126.294H199.808V101.746Z" fill="white"/>
<path opacity="0.35" d="M206.871 92.1211H202.777V115.153H206.871V92.1211Z" fill="white"/>
<path opacity="0.35" d="M206.871 92.1211H202.777V126.294H206.871V92.1211Z" fill="white"/>
<path d="M169.615 96.1738H121.545C119.71 96.1738 118.223 94.6989 118.223 92.8796V45.218C118.223 43.3987 119.71 41.9238 121.545 41.9238H169.615C171.45 41.9238 172.938 43.3987 172.938 45.218V92.8796C172.938 94.6989 171.45 96.1738 169.615 96.1738Z" fill="#3793AE" fill-opacity="0.48"/>
<path opacity="0.25" d="M163.296 71.8993C164.883 62.201 158.241 53.063 148.46 51.4891C138.678 49.9151 129.462 56.5012 127.874 66.1995C126.287 75.8977 132.929 85.0357 142.711 86.6097C152.492 88.1837 161.709 81.5976 163.296 71.8993Z" fill="white"/>
<path opacity="0.25" d="M145.579 69.0496L163.206 72.3725C161.602 80.7326 154.163 86.8394 145.579 86.8394C135.736 86.8394 127.637 78.809 127.637 69.0496C127.637 59.2902 135.736 51.2598 145.579 51.2598V69.0496Z" fill="white"/>
<path opacity="0.25" d="M145.58 69.0496L145.527 86.8394C135.703 86.8107 127.637 78.7887 127.637 69.0496C127.637 59.2902 135.736 51.2598 145.579 51.2598V69.0496H145.58Z" fill="white"/>
<path opacity="0.25" d="M145.579 69.0496L136.121 53.9317C137.526 53.0679 139.045 52.4001 140.634 51.9486C142.223 51.4971 143.867 51.2647 145.521 51.2598L145.579 69.0496Z" fill="white"/>
</g>
<defs>
<clipPath id="clip0_1213_3142">
<rect width="353" height="350" fill="white" transform="translate(-62 -19)"/>
</clipPath>
</defs>
</svg>
