<svg width="181" height="116" viewBox="0 0 181 116" fill="none" xmlns="http://www.w3.org/2000/svg">
<path d="M0.00144944 99.7673L176.684 98.0723L176.684 103.088C176.684 104.449 175.913 105.606 174.869 105.813L124.909 115.689C124.316 115.806 123.715 115.837 123.116 115.781L1.92151 104.521C0.839492 104.421 0.00151017 103.259 0.00151029 101.861L0.00144944 99.7673Z" fill="#BFC8D6"/>
<path d="M65.0218 91.7294L177.318 100.904C179.327 101.069 180.961 99.3241 180.961 97.0074L180.961 4.19465C180.961 1.87801 179.327 -1.31512e-07 177.318 -2.93257e-07L173.345 2.54137L65.0219 -9.33217e-06C63.3665 -9.46542e-06 62.0279 1.69768 62.0279 3.79189L62.0279 87.693C62.0279 89.7871 63.3664 91.5942 65.0218 91.7294Z" fill="#BFC8D6"/>
<path d="M63.2328 91.7294L175.529 100.904C177.538 101.069 179.172 99.3241 179.172 97.0074L179.172 4.19465C179.172 1.87801 177.538 -1.31507e-07 175.529 -2.93257e-07L63.2329 -9.33217e-06C61.5773 -9.46543e-06 60.2388 1.69768 60.2388 3.79189L60.2388 87.693C60.2388 89.7871 61.5773 91.5942 63.2328 91.7294Z" fill="white"/>
<path d="M66.7292 85.8143L171.321 93.784C172.956 93.9085 174.285 92.4767 174.285 90.5854L174.285 9.32771C174.285 7.43648 172.956 5.89699 171.321 5.88911L66.7293 5.38869C65.3636 5.38215 64.259 6.77326 64.259 8.49583L64.259 82.5071C64.259 84.2296 65.3636 85.7102 66.7292 85.8143Z" fill="#3793AE" fill-opacity="0.62"/>
<path d="M134.226 13.5147L162.453 13.5964L162.457 10.6094L134.23 10.6196L134.226 13.5147Z" fill="white"/>
<path d="M120.934 12.6491L127.454 12.6618L127.457 10.6211L120.936 10.6234L120.934 12.6491Z" fill="white"/>
<path d="M120.93 15.4652L127.45 15.4988L127.453 13.4581L120.932 13.4395L120.93 15.4652Z" fill="white"/>
<path d="M88.4344 15.2963L113.732 15.4268L113.734 13.4177L88.4371 13.3457L88.4344 15.2963Z" fill="white"/>
<path d="M84.2837 17.9722L109.329 18.1818L109.332 16.183L84.2864 16.0312L84.2837 17.9722Z" fill="white"/>
<path d="M84.2799 20.6695L109.325 20.9594L109.328 18.9606L84.2826 18.7285L84.2799 20.6695Z" fill="white"/>
<path d="M84.2761 23.3668L109.321 23.7371L109.324 21.7382L84.2788 21.4258L84.2761 23.3668Z" fill="white"/>
<path d="M120.93 18.2796L127.45 18.3342L127.453 16.2934L120.932 16.2539L120.93 18.2796Z" fill="white"/>
<path d="M120.922 21.094L127.442 21.1695L127.445 19.1287L120.925 19.0684L120.922 21.094Z" fill="white"/>
<path d="M120.918 23.9085L127.439 24.0049L127.441 21.9641L120.921 21.8828L120.918 23.9085Z" fill="white"/>
<path d="M120.914 26.7229L127.435 26.8403L127.437 24.7995L120.917 24.6973L120.914 26.7229Z" fill="white"/>
<path d="M103.443 26.4072L119.493 26.696L119.496 24.6736L103.446 24.4219L103.443 26.4072Z" fill="white"/>
<path d="M120.91 29.5374L127.431 29.6757L127.434 27.6349L120.913 27.5117L120.91 29.5374Z" fill="white"/>
<path d="M120.906 32.3518L127.427 32.5111L127.43 30.4703L120.909 30.3262L120.906 32.3518Z" fill="white"/>
<path d="M120.902 35.1663L127.423 35.3464L127.426 33.3056L120.905 33.1406L120.902 35.1663Z" fill="white"/>
<path d="M95.9174 29.007L113.712 29.3843L113.715 27.3753L95.9201 27.0391L95.9174 29.007Z" fill="white"/>
<path d="M86.6701 31.513L109.31 32.0657L109.312 30.0668L86.6729 29.5664L86.6701 31.513Z" fill="white"/>
<path d="M86.6664 34.222L109.306 34.8473L109.309 32.8484L86.669 32.2754L86.6664 34.222Z" fill="white"/>
<path d="M120.899 37.9807L127.419 38.1818L127.422 36.141L120.901 35.9551L120.899 37.9807Z" fill="white"/>
<path d="M120.895 40.7932L127.415 41.0152L127.418 38.9745L120.898 38.7676L120.895 40.7932Z" fill="white"/>
<path d="M120.891 43.6077L127.411 43.8505L127.414 41.8098L120.894 41.582L120.891 43.6077Z" fill="white"/>
<path d="M120.887 46.4241L127.407 46.6879L127.41 44.6472L120.89 44.3984L120.887 46.4241Z" fill="white"/>
<path d="M120.883 49.2385L127.403 49.5232L127.406 47.4826L120.886 47.2129L120.883 49.2385Z" fill="white"/>
<path d="M120.879 52.053L127.399 52.3586L127.402 50.3179L120.882 50.0273L120.879 52.053Z" fill="white"/>
<path d="M120.875 54.8674L127.396 55.194L127.398 53.1533L120.878 52.8418L120.875 54.8674Z" fill="white"/>
<path d="M120.871 57.6819L127.392 58.0294L127.395 55.9887L120.874 55.6562L120.871 57.6819Z" fill="white"/>
<path d="M120.868 60.4964L127.388 60.8648L127.391 58.8241L120.87 58.4707L120.868 60.4964Z" fill="white"/>
<path d="M120.864 63.3089L127.384 63.6983L127.387 61.6575L120.867 61.2832L120.864 63.3089Z" fill="white"/>
<path d="M120.86 66.1253L127.38 66.5356L127.383 64.4949L120.863 64.0996L120.86 66.1253Z" fill="white"/>
<path d="M120.856 68.9378L127.376 69.369L127.379 67.3283L120.859 66.9121L120.856 68.9378Z" fill="white"/>
<path d="M120.852 71.7543L127.372 72.2063L127.375 70.1656L120.855 69.7285L120.852 71.7543Z" fill="white"/>
<path d="M120.848 74.5686L127.368 75.0416L127.371 73.0009L120.851 72.543L120.848 74.5686Z" fill="white"/>
<path d="M120.844 77.3811L127.364 77.8751L127.367 75.8343L120.847 75.3555L120.844 77.3811Z" fill="white"/>
<path d="M120.84 80.1956L127.36 80.7105L127.363 78.6697L120.843 78.1699L120.84 80.1956Z" fill="white"/>
<path d="M120.837 83.012L127.356 83.5478L127.359 81.507L120.839 80.9863L120.837 83.012Z" fill="white"/>
<path d="M120.833 85.8245L127.353 86.3812L127.355 84.3405L120.836 83.7988L120.833 85.8245Z" fill="white"/>
<path d="M101.772 12.6128L119.556 12.6475L119.559 10.625L101.775 10.6314L101.772 12.6128Z" fill="white"/>
<path d="M88.3585 69.4995L113.653 71.2534L113.656 69.2444L88.3612 67.5488L88.3585 69.4995Z" fill="white"/>
<path d="M84.2078 71.9097L109.251 73.7266L109.254 71.7278L84.2105 69.9687L84.2078 71.9097Z" fill="white"/>
<path d="M84.2041 74.6071L109.247 76.5044L109.25 74.5055L84.2067 72.666L84.2041 74.6071Z" fill="white"/>
<path d="M73.4111 76.4513L97.8058 78.3777L97.8086 76.4052L73.4138 74.5352L73.4111 76.4513Z" fill="white"/>
<path d="M73.4074 79.1134L97.8019 81.1181L97.8047 79.1456L73.41 77.1973L73.4074 79.1134Z" fill="white"/>
<path d="M73.4036 81.7774L97.798 83.8604L97.8008 81.888L73.4062 79.8613L73.4036 81.7774Z" fill="white"/>
<path d="M101.696 67.6709L119.478 68.8468L119.48 66.8243L101.698 65.6895L101.696 67.6709Z" fill="white"/>
<path d="M88.4003 39.6909L113.696 40.552L113.699 38.5429L88.403 37.7402L88.4003 39.6909Z" fill="white"/>
<path d="M84.2496 42.2457L109.294 43.1786L109.297 41.1797L84.2523 40.3047L84.2496 42.2457Z" fill="white"/>
<path d="M84.2458 44.9411L109.29 45.9543L109.293 43.9555L84.2484 43L84.2458 44.9411Z" fill="white"/>
<path d="M84.242 47.6383L109.286 48.7319L109.289 46.733L84.2447 45.6973L84.242 47.6383Z" fill="white"/>
<path d="M103.409 51.2334L119.458 51.9857L119.461 49.9633L103.412 49.248L103.409 51.2334Z" fill="white"/>
<path d="M95.8829 53.6144L113.677 54.5056L113.68 52.4966L95.8856 51.6465L95.8829 53.6144Z" fill="white"/>
<path d="M86.6359 55.8587L109.275 57.0651L109.277 55.0663L86.6386 53.9121L86.6359 55.8587Z" fill="white"/>
<path d="M86.6321 58.5599L109.271 59.839L109.273 57.8402L86.6348 56.6133L86.6321 58.5599Z" fill="white"/>
<path d="M81.6116 60.9662L103.978 62.3018L103.98 60.3151L81.6143 59.0312L81.6116 60.9662Z" fill="white"/>
<path d="M81.6079 63.6538L103.974 65.0611L103.977 63.0744L81.6105 61.7187L81.6079 63.6538Z" fill="white"/>
<path d="M101.738 37.3896L119.521 37.9378L119.523 35.9154L101.741 35.4082L101.738 37.3896Z" fill="white"/>
<path d="M134.218 18.0397L150.375 18.1685L150.379 15.2207L134.223 15.1445L134.218 18.0397Z" fill="white"/>
<path d="M154.554 18.2003L151.512 18.176L151.516 15.2246L154.559 15.2389L154.554 18.2003Z" fill="white"/>
<path d="M134.215 22.1999L150.371 22.4043L150.375 19.4565L134.219 19.3047L134.215 22.1999Z" fill="white"/>
<path d="M154.551 22.4567L151.508 22.4183L151.512 19.4668L154.555 19.4954L154.551 22.4567Z" fill="white"/>
<path d="M134.211 26.3639L150.367 26.6438L150.371 23.696L134.215 23.4687L134.211 26.3639Z" fill="white"/>
<path d="M154.543 26.7152L151.5 26.6624L151.504 23.7109L154.547 23.7538L154.543 26.7152Z" fill="white"/>
<path d="M134.165 55.9069L162.39 57.3323L162.395 54.3453L134.169 53.0117L134.165 55.9069Z" fill="white"/>
<path d="M134.161 60.4265L150.316 61.3244L150.32 58.3767L134.165 57.5312L134.161 60.4265Z" fill="white"/>
<path d="M154.496 61.5581L151.453 61.3889L151.457 58.4375L154.5 58.5967L154.496 61.5581Z" fill="white"/>
<path d="M134.157 64.5905L150.312 65.564L150.316 62.6162L134.161 61.6953L134.157 64.5905Z" fill="white"/>
<path d="M154.488 65.8164L151.445 65.633L151.449 62.6816L154.492 62.8551L154.488 65.8164Z" fill="white"/>
<path d="M134.149 68.7527L150.305 69.8016L150.309 66.8539L134.153 65.8574L134.149 68.7527Z" fill="white"/>
<path d="M154.484 70.0748L151.441 69.8772L151.446 66.9258L154.488 67.1135L154.484 70.0748Z" fill="white"/>
<path d="M134.203 30.5514L162.429 31.1732L162.434 28.1862L134.207 27.6562L134.203 30.5514Z" fill="white"/>
<path d="M134.195 35.0769L150.351 35.5148L150.355 32.5671L134.199 32.1816L134.195 35.0769Z" fill="white"/>
<path d="M154.531 35.6257L151.488 35.5432L151.492 32.5918L154.535 32.6644L154.531 35.6257Z" fill="white"/>
<path d="M134.192 39.2409L150.347 39.7544L150.352 36.8066L134.196 36.3457L134.192 39.2409Z" fill="white"/>
<path d="M154.527 39.884L151.484 39.7873L151.488 36.8359L154.531 36.9228L154.527 39.884Z" fill="white"/>
<path d="M134.18 47.6139L150.336 48.2795L150.34 45.3317L134.184 44.7187L134.18 47.6139Z" fill="white"/>
<path d="M154.512 48.4537L151.469 48.3284L151.473 45.377L154.516 45.4924L154.512 48.4537Z" fill="white"/>
<path d="M134.172 51.778L150.328 52.519L150.332 49.5713L134.176 48.8828L134.172 51.778Z" fill="white"/>
<path d="M154.508 52.7121L151.465 52.5726L151.469 49.6211L154.512 49.7508L154.508 52.7121Z" fill="white"/>
<path d="M134.184 43.4011L150.34 43.9901L150.344 41.0423L134.188 40.5059L134.184 43.4011Z" fill="white"/>
<path d="M154.519 44.1405L151.476 44.0295L151.481 41.0781L154.523 41.1791L154.519 44.1405Z" fill="white"/>
<path d="M134.143 72.9128L162.367 74.8774L162.371 71.8904L134.147 70.0176L134.143 72.9128Z" fill="white"/>
<path d="M134.138 77.4343L150.293 78.6409L150.297 75.6932L134.142 74.5391L134.138 77.4343Z" fill="white"/>
<path d="M154.472 78.9541L151.43 78.7268L151.434 75.7754L154.477 75.9928L154.472 78.9541Z" fill="white"/>
<path d="M134.134 81.5983L150.289 82.8805L150.293 79.9327L134.138 78.7031L134.134 81.5983Z" fill="white"/>
<path d="M154.465 83.2144L151.422 82.9729L151.426 80.0215L154.469 80.253L154.465 83.2144Z" fill="white"/>
<path d="M134.126 85.7604L150.281 87.118L150.285 84.1703L134.13 82.8652L134.126 85.7604Z" fill="white"/>
<path d="M154.457 87.4688L151.414 87.2131L151.418 84.2617L154.461 84.5075L154.457 87.4688Z" fill="white"/>
<path d="M130.696 85.4864L131.318 85.5386L131.422 10.6211L130.8 10.6213L130.696 85.4864Z" fill="white"/>
<path d="M115.414 2.53904C115.414 3.40144 115.992 4.1026 116.705 4.10505C117.42 4.10757 118 3.40894 118 2.54461C118 1.68028 117.42 0.97911 116.705 0.978516C115.992 0.977922 115.414 1.67657 115.414 2.53904Z" fill="white"/>
<path d="M57.9393 91.2203L176.684 100.878L124.909 111.112C124.316 111.23 123.715 111.261 123.116 111.205L0.00144884 99.7665L56.0504 91.2859C56.6772 91.191 57.3094 91.169 57.9393 91.2203Z" fill="url(#paint0_linear_1213_3030)"/>
<path d="M159.359 100.961L60.5012 92.8008L29.9055 97.3928L127.912 106.116L159.359 100.961Z" fill="#D8DEE8"/>
<defs>
<linearGradient id="paint0_linear_1213_3030" x1="176.684" y1="101.213" x2="0.00147548" y2="101.213" gradientUnits="userSpaceOnUse">
<stop offset="0.494" stop-color="#EBEFF2"/>
<stop offset="1" stop-color="white"/>
</linearGradient>
</defs>
</svg>
